G04 #@! TF.GenerationSoftware,KiCad,Pcbnew,7.0.11-7.0.11~ubuntu20.04.1*
G04 #@! TF.CreationDate,2024-03-27T14:10:52+00:00*
G04 #@! TF.ProjectId,Swarm-B_20230626,53776172-6d2d-4425-9f32-303233303632,rev?*
G04 #@! TF.SameCoordinates,Original*
G04 #@! TF.FileFunction,Legend,Bot*
G04 #@! TF.FilePolarity,Positive*
%FSLAX46Y46*%
G04 Gerber Fmt 4.6, Leading zero omitted, Abs format (unit mm)*
G04 Created by KiCad (PCBNEW 7.0.11-7.0.11~ubuntu20.04.1) date 2024-03-27 14:10:52*
%MOMM*%
%LPD*%
G01*
G04 APERTURE LIST*
G04 Aperture macros list*
%AMRoundRect*
0 Rectangle with rounded corners*
0 $1 Rounding radius*
0 $2 $3 $4 $5 $6 $7 $8 $9 X,Y pos of 4 corners*
0 Add a 4 corners polygon primitive as box body*
4,1,4,$2,$3,$4,$5,$6,$7,$8,$9,$2,$3,0*
0 Add four circle primitives for the rounded corners*
1,1,$1+$1,$2,$3*
1,1,$1+$1,$4,$5*
1,1,$1+$1,$6,$7*
1,1,$1+$1,$8,$9*
0 Add four rect primitives between the rounded corners*
20,1,$1+$1,$2,$3,$4,$5,0*
20,1,$1+$1,$4,$5,$6,$7,0*
20,1,$1+$1,$6,$7,$8,$9,0*
20,1,$1+$1,$8,$9,$2,$3,0*%
%AMHorizOval*
0 Thick line with rounded ends*
0 $1 width*
0 $2 $3 position (X,Y) of the first rounded end (center of the circle)*
0 $4 $5 position (X,Y) of the second rounded end (center of the circle)*
0 Add line between two ends*
20,1,$1,$2,$3,$4,$5,0*
0 Add two circle primitives to create the rounded ends*
1,1,$1,$2,$3*
1,1,$1,$4,$5*%
%AMRotRect*
0 Rectangle, with rotation*
0 The origin of the aperture is its center*
0 $1 length*
0 $2 width*
0 $3 Rotation angle, in degrees counterclockwise*
0 Add horizontal line*
21,1,$1,$2,0,0,$3*%
G04 Aperture macros list end*
%ADD10C,0.300000*%
%ADD11C,0.150000*%
%ADD12C,0.120000*%
%ADD13R,1.800000X1.800000*%
%ADD14C,1.800000*%
%ADD15RoundRect,0.248400X-0.651600X0.651600X-0.651600X-0.651600X0.651600X-0.651600X0.651600X0.651600X0*%
%ADD16R,1.700000X1.700000*%
%ADD17O,1.700000X1.700000*%
%ADD18C,1.600000*%
%ADD19C,1.400000*%
%ADD20O,1.400000X1.400000*%
%ADD21C,2.000000*%
%ADD22RotRect,1.700000X1.700000X25.000000*%
%ADD23HorizOval,1.700000X0.000000X0.000000X0.000000X0.000000X0*%
%ADD24RoundRect,0.248400X-0.651600X-0.651600X0.651600X-0.651600X0.651600X0.651600X-0.651600X0.651600X0*%
%ADD25RotRect,1.700000X1.700000X335.000000*%
%ADD26HorizOval,1.700000X0.000000X0.000000X0.000000X0.000000X0*%
%ADD27RoundRect,0.248400X0.651600X-0.651600X0.651600X0.651600X-0.651600X0.651600X-0.651600X-0.651600X0*%
%ADD28RoundRect,0.248400X0.651600X0.651600X-0.651600X0.651600X-0.651600X-0.651600X0.651600X-0.651600X0*%
%ADD29RotRect,1.600000X1.600000X235.000000*%
%ADD30HorizOval,1.600000X0.000000X0.000000X0.000000X0.000000X0*%
%ADD31R,1.600000X1.600000*%
%ADD32O,1.600000X1.600000*%
%ADD33C,1.440000*%
G04 APERTURE END LIST*
D10*
X130146900Y-103842572D02*
X130218328Y-104056858D01*
X130218328Y-104056858D02*
X130218328Y-104414000D01*
X130218328Y-104414000D02*
X130146900Y-104556858D01*
X130146900Y-104556858D02*
X130075471Y-104628286D01*
X130075471Y-104628286D02*
X129932614Y-104699715D01*
X129932614Y-104699715D02*
X129789757Y-104699715D01*
X129789757Y-104699715D02*
X129646900Y-104628286D01*
X129646900Y-104628286D02*
X129575471Y-104556858D01*
X129575471Y-104556858D02*
X129504042Y-104414000D01*
X129504042Y-104414000D02*
X129432614Y-104128286D01*
X129432614Y-104128286D02*
X129361185Y-103985429D01*
X129361185Y-103985429D02*
X129289757Y-103914000D01*
X129289757Y-103914000D02*
X129146900Y-103842572D01*
X129146900Y-103842572D02*
X129004042Y-103842572D01*
X129004042Y-103842572D02*
X128861185Y-103914000D01*
X128861185Y-103914000D02*
X128789757Y-103985429D01*
X128789757Y-103985429D02*
X128718328Y-104128286D01*
X128718328Y-104128286D02*
X128718328Y-104485429D01*
X128718328Y-104485429D02*
X128789757Y-104699715D01*
X130218328Y-105342571D02*
X128718328Y-105342571D01*
X128718328Y-105342571D02*
X128718328Y-105699714D01*
X128718328Y-105699714D02*
X128789757Y-105914000D01*
X128789757Y-105914000D02*
X128932614Y-106056857D01*
X128932614Y-106056857D02*
X129075471Y-106128286D01*
X129075471Y-106128286D02*
X129361185Y-106199714D01*
X129361185Y-106199714D02*
X129575471Y-106199714D01*
X129575471Y-106199714D02*
X129861185Y-106128286D01*
X129861185Y-106128286D02*
X130004042Y-106056857D01*
X130004042Y-106056857D02*
X130146900Y-105914000D01*
X130146900Y-105914000D02*
X130218328Y-105699714D01*
X130218328Y-105699714D02*
X130218328Y-105342571D01*
X129789757Y-106771143D02*
X129789757Y-107485429D01*
X130218328Y-106628286D02*
X128718328Y-107128286D01*
X128718328Y-107128286D02*
X130218328Y-107628286D01*
X126174571Y-86720900D02*
X127317429Y-86720900D01*
X126174571Y-89260900D02*
X127317429Y-89260900D01*
X126746000Y-89832328D02*
X126746000Y-88689471D01*
D11*
X111395792Y-86869819D02*
X111729125Y-86393628D01*
X111967220Y-86869819D02*
X111967220Y-85869819D01*
X111967220Y-85869819D02*
X111586268Y-85869819D01*
X111586268Y-85869819D02*
X111491030Y-85917438D01*
X111491030Y-85917438D02*
X111443411Y-85965057D01*
X111443411Y-85965057D02*
X111395792Y-86060295D01*
X111395792Y-86060295D02*
X111395792Y-86203152D01*
X111395792Y-86203152D02*
X111443411Y-86298390D01*
X111443411Y-86298390D02*
X111491030Y-86346009D01*
X111491030Y-86346009D02*
X111586268Y-86393628D01*
X111586268Y-86393628D02*
X111967220Y-86393628D01*
X111062458Y-85869819D02*
X110395792Y-86869819D01*
X110395792Y-85869819D02*
X111062458Y-86869819D01*
X110252935Y-86965057D02*
X109491030Y-86965057D01*
X108919601Y-86346009D02*
X108776744Y-86393628D01*
X108776744Y-86393628D02*
X108729125Y-86441247D01*
X108729125Y-86441247D02*
X108681506Y-86536485D01*
X108681506Y-86536485D02*
X108681506Y-86679342D01*
X108681506Y-86679342D02*
X108729125Y-86774580D01*
X108729125Y-86774580D02*
X108776744Y-86822200D01*
X108776744Y-86822200D02*
X108871982Y-86869819D01*
X108871982Y-86869819D02*
X109252934Y-86869819D01*
X109252934Y-86869819D02*
X109252934Y-85869819D01*
X109252934Y-85869819D02*
X108919601Y-85869819D01*
X108919601Y-85869819D02*
X108824363Y-85917438D01*
X108824363Y-85917438D02*
X108776744Y-85965057D01*
X108776744Y-85965057D02*
X108729125Y-86060295D01*
X108729125Y-86060295D02*
X108729125Y-86155533D01*
X108729125Y-86155533D02*
X108776744Y-86250771D01*
X108776744Y-86250771D02*
X108824363Y-86298390D01*
X108824363Y-86298390D02*
X108919601Y-86346009D01*
X108919601Y-86346009D02*
X109252934Y-86346009D01*
X108252934Y-86869819D02*
X108252934Y-86203152D01*
X108252934Y-86393628D02*
X108205315Y-86298390D01*
X108205315Y-86298390D02*
X108157696Y-86250771D01*
X108157696Y-86250771D02*
X108062458Y-86203152D01*
X108062458Y-86203152D02*
X107967220Y-86203152D01*
X107252934Y-86822200D02*
X107348172Y-86869819D01*
X107348172Y-86869819D02*
X107538648Y-86869819D01*
X107538648Y-86869819D02*
X107633886Y-86822200D01*
X107633886Y-86822200D02*
X107681505Y-86726961D01*
X107681505Y-86726961D02*
X107681505Y-86346009D01*
X107681505Y-86346009D02*
X107633886Y-86250771D01*
X107633886Y-86250771D02*
X107538648Y-86203152D01*
X107538648Y-86203152D02*
X107348172Y-86203152D01*
X107348172Y-86203152D02*
X107252934Y-86250771D01*
X107252934Y-86250771D02*
X107205315Y-86346009D01*
X107205315Y-86346009D02*
X107205315Y-86441247D01*
X107205315Y-86441247D02*
X107681505Y-86536485D01*
X106348172Y-86869819D02*
X106348172Y-86346009D01*
X106348172Y-86346009D02*
X106395791Y-86250771D01*
X106395791Y-86250771D02*
X106491029Y-86203152D01*
X106491029Y-86203152D02*
X106681505Y-86203152D01*
X106681505Y-86203152D02*
X106776743Y-86250771D01*
X106348172Y-86822200D02*
X106443410Y-86869819D01*
X106443410Y-86869819D02*
X106681505Y-86869819D01*
X106681505Y-86869819D02*
X106776743Y-86822200D01*
X106776743Y-86822200D02*
X106824362Y-86726961D01*
X106824362Y-86726961D02*
X106824362Y-86631723D01*
X106824362Y-86631723D02*
X106776743Y-86536485D01*
X106776743Y-86536485D02*
X106681505Y-86488866D01*
X106681505Y-86488866D02*
X106443410Y-86488866D01*
X106443410Y-86488866D02*
X106348172Y-86441247D01*
X105871981Y-86869819D02*
X105871981Y-85869819D01*
X105776743Y-86488866D02*
X105491029Y-86869819D01*
X105491029Y-86203152D02*
X105871981Y-86584104D01*
D10*
X124154285Y-89832328D02*
X124654285Y-89118042D01*
X125011428Y-89832328D02*
X125011428Y-88332328D01*
X125011428Y-88332328D02*
X124439999Y-88332328D01*
X124439999Y-88332328D02*
X124297142Y-88403757D01*
X124297142Y-88403757D02*
X124225713Y-88475185D01*
X124225713Y-88475185D02*
X124154285Y-88618042D01*
X124154285Y-88618042D02*
X124154285Y-88832328D01*
X124154285Y-88832328D02*
X124225713Y-88975185D01*
X124225713Y-88975185D02*
X124297142Y-89046614D01*
X124297142Y-89046614D02*
X124439999Y-89118042D01*
X124439999Y-89118042D02*
X125011428Y-89118042D01*
X123511428Y-89046614D02*
X123011428Y-89046614D01*
X122797142Y-89832328D02*
X123511428Y-89832328D01*
X123511428Y-89832328D02*
X123511428Y-88332328D01*
X123511428Y-88332328D02*
X122797142Y-88332328D01*
X122154285Y-89832328D02*
X122154285Y-88332328D01*
X122154285Y-88332328D02*
X121797142Y-88332328D01*
X121797142Y-88332328D02*
X121582856Y-88403757D01*
X121582856Y-88403757D02*
X121439999Y-88546614D01*
X121439999Y-88546614D02*
X121368570Y-88689471D01*
X121368570Y-88689471D02*
X121297142Y-88975185D01*
X121297142Y-88975185D02*
X121297142Y-89189471D01*
X121297142Y-89189471D02*
X121368570Y-89475185D01*
X121368570Y-89475185D02*
X121439999Y-89618042D01*
X121439999Y-89618042D02*
X121582856Y-89760900D01*
X121582856Y-89760900D02*
X121797142Y-89832328D01*
X121797142Y-89832328D02*
X122154285Y-89832328D01*
X132940900Y-103878286D02*
X133012328Y-104092572D01*
X133012328Y-104092572D02*
X133012328Y-104449714D01*
X133012328Y-104449714D02*
X132940900Y-104592572D01*
X132940900Y-104592572D02*
X132869471Y-104664000D01*
X132869471Y-104664000D02*
X132726614Y-104735429D01*
X132726614Y-104735429D02*
X132583757Y-104735429D01*
X132583757Y-104735429D02*
X132440900Y-104664000D01*
X132440900Y-104664000D02*
X132369471Y-104592572D01*
X132369471Y-104592572D02*
X132298042Y-104449714D01*
X132298042Y-104449714D02*
X132226614Y-104164000D01*
X132226614Y-104164000D02*
X132155185Y-104021143D01*
X132155185Y-104021143D02*
X132083757Y-103949714D01*
X132083757Y-103949714D02*
X131940900Y-103878286D01*
X131940900Y-103878286D02*
X131798042Y-103878286D01*
X131798042Y-103878286D02*
X131655185Y-103949714D01*
X131655185Y-103949714D02*
X131583757Y-104021143D01*
X131583757Y-104021143D02*
X131512328Y-104164000D01*
X131512328Y-104164000D02*
X131512328Y-104521143D01*
X131512328Y-104521143D02*
X131583757Y-104735429D01*
X132869471Y-106235428D02*
X132940900Y-106164000D01*
X132940900Y-106164000D02*
X133012328Y-105949714D01*
X133012328Y-105949714D02*
X133012328Y-105806857D01*
X133012328Y-105806857D02*
X132940900Y-105592571D01*
X132940900Y-105592571D02*
X132798042Y-105449714D01*
X132798042Y-105449714D02*
X132655185Y-105378285D01*
X132655185Y-105378285D02*
X132369471Y-105306857D01*
X132369471Y-105306857D02*
X132155185Y-105306857D01*
X132155185Y-105306857D02*
X131869471Y-105378285D01*
X131869471Y-105378285D02*
X131726614Y-105449714D01*
X131726614Y-105449714D02*
X131583757Y-105592571D01*
X131583757Y-105592571D02*
X131512328Y-105806857D01*
X131512328Y-105806857D02*
X131512328Y-105949714D01*
X131512328Y-105949714D02*
X131583757Y-106164000D01*
X131583757Y-106164000D02*
X131655185Y-106235428D01*
X133012328Y-107592571D02*
X133012328Y-106878285D01*
X133012328Y-106878285D02*
X131512328Y-106878285D01*
X124440000Y-86506614D02*
X124225714Y-86578042D01*
X124225714Y-86578042D02*
X124154285Y-86649471D01*
X124154285Y-86649471D02*
X124082857Y-86792328D01*
X124082857Y-86792328D02*
X124082857Y-87006614D01*
X124082857Y-87006614D02*
X124154285Y-87149471D01*
X124154285Y-87149471D02*
X124225714Y-87220900D01*
X124225714Y-87220900D02*
X124368571Y-87292328D01*
X124368571Y-87292328D02*
X124940000Y-87292328D01*
X124940000Y-87292328D02*
X124940000Y-85792328D01*
X124940000Y-85792328D02*
X124440000Y-85792328D01*
X124440000Y-85792328D02*
X124297143Y-85863757D01*
X124297143Y-85863757D02*
X124225714Y-85935185D01*
X124225714Y-85935185D02*
X124154285Y-86078042D01*
X124154285Y-86078042D02*
X124154285Y-86220900D01*
X124154285Y-86220900D02*
X124225714Y-86363757D01*
X124225714Y-86363757D02*
X124297143Y-86435185D01*
X124297143Y-86435185D02*
X124440000Y-86506614D01*
X124440000Y-86506614D02*
X124940000Y-86506614D01*
X122725714Y-87292328D02*
X123440000Y-87292328D01*
X123440000Y-87292328D02*
X123440000Y-85792328D01*
X122225714Y-87292328D02*
X122225714Y-85792328D01*
X121368571Y-87292328D02*
X122011428Y-86435185D01*
X121368571Y-85792328D02*
X122225714Y-86649471D01*
D11*
X93982223Y-87059888D02*
X93709091Y-87449961D01*
X94270892Y-87145753D02*
X93260548Y-86845227D01*
X93260548Y-86845227D02*
X93888508Y-87691854D01*
X93396871Y-88393985D02*
X93724629Y-87925898D01*
X93560750Y-88159941D02*
X92741598Y-87586365D01*
X92741598Y-87586365D02*
X92913246Y-87590290D01*
X92913246Y-87590290D02*
X93045887Y-87566902D01*
X93045887Y-87566902D02*
X93139520Y-87516200D01*
X140715904Y-83992819D02*
X140715904Y-84802342D01*
X140715904Y-84802342D02*
X140668285Y-84897580D01*
X140668285Y-84897580D02*
X140620666Y-84945200D01*
X140620666Y-84945200D02*
X140525428Y-84992819D01*
X140525428Y-84992819D02*
X140334952Y-84992819D01*
X140334952Y-84992819D02*
X140239714Y-84945200D01*
X140239714Y-84945200D02*
X140192095Y-84897580D01*
X140192095Y-84897580D02*
X140144476Y-84802342D01*
X140144476Y-84802342D02*
X140144476Y-83992819D01*
X139144476Y-84992819D02*
X139715904Y-84992819D01*
X139430190Y-84992819D02*
X139430190Y-83992819D01*
X139430190Y-83992819D02*
X139525428Y-84135676D01*
X139525428Y-84135676D02*
X139620666Y-84230914D01*
X139620666Y-84230914D02*
X139715904Y-84278533D01*
X90113523Y-115517819D02*
X89780190Y-116517819D01*
X89780190Y-116517819D02*
X89446857Y-115517819D01*
X88542095Y-116517819D02*
X88875428Y-116041628D01*
X89113523Y-116517819D02*
X89113523Y-115517819D01*
X89113523Y-115517819D02*
X88732571Y-115517819D01*
X88732571Y-115517819D02*
X88637333Y-115565438D01*
X88637333Y-115565438D02*
X88589714Y-115613057D01*
X88589714Y-115613057D02*
X88542095Y-115708295D01*
X88542095Y-115708295D02*
X88542095Y-115851152D01*
X88542095Y-115851152D02*
X88589714Y-115946390D01*
X88589714Y-115946390D02*
X88637333Y-115994009D01*
X88637333Y-115994009D02*
X88732571Y-116041628D01*
X88732571Y-116041628D02*
X89113523Y-116041628D01*
X87589714Y-116517819D02*
X88161142Y-116517819D01*
X87875428Y-116517819D02*
X87875428Y-115517819D01*
X87875428Y-115517819D02*
X87970666Y-115660676D01*
X87970666Y-115660676D02*
X88065904Y-115755914D01*
X88065904Y-115755914D02*
X88161142Y-115803533D01*
X98188819Y-74584666D02*
X98903104Y-74584666D01*
X98903104Y-74584666D02*
X99045961Y-74537047D01*
X99045961Y-74537047D02*
X99141200Y-74441809D01*
X99141200Y-74441809D02*
X99188819Y-74298952D01*
X99188819Y-74298952D02*
X99188819Y-74203714D01*
X98522152Y-75489428D02*
X99188819Y-75489428D01*
X98141200Y-75251333D02*
X98855485Y-75013238D01*
X98855485Y-75013238D02*
X98855485Y-75632285D01*
D12*
X128307713Y-106887856D02*
X117960394Y-121665359D01*
X96991530Y-84960029D02*
X128307713Y-106887856D01*
X92723748Y-81971696D02*
X94910884Y-83503145D01*
X124589128Y-107543543D02*
X126120577Y-105356407D01*
X95460081Y-87147165D02*
X96991530Y-84960029D01*
X95460081Y-87147165D02*
X124589128Y-107543543D01*
X95460081Y-87147165D02*
X93379435Y-85690281D01*
X93379435Y-85690281D02*
X94910884Y-83503145D01*
X117304707Y-117946774D02*
X115773258Y-120133910D01*
X86095014Y-96093512D02*
X117304707Y-117946774D01*
X86095014Y-96093512D02*
X84563565Y-98280648D01*
X117960394Y-121665359D02*
X82376429Y-96749199D01*
X82376429Y-96749199D02*
X92723748Y-81971696D01*
X145094000Y-103498000D02*
X134814000Y-103498000D01*
X145094000Y-85478000D02*
X145094000Y-103498000D01*
X142604000Y-103438000D02*
X137304000Y-103438000D01*
X142604000Y-85538000D02*
X142604000Y-103438000D01*
X140954000Y-85538000D02*
X142604000Y-85538000D01*
X137304000Y-103438000D02*
X137304000Y-85538000D01*
X137304000Y-85538000D02*
X138954000Y-85538000D01*
X134814000Y-103498000D02*
X134814000Y-85478000D01*
X134814000Y-85478000D02*
X145094000Y-85478000D01*
X138954000Y-85538000D02*
G75*
G03*
X140954000Y-85538000I1000000J0D01*
G01*
X83919000Y-105163000D02*
X93689000Y-105163000D01*
X83919000Y-114933000D02*
X83919000Y-105163000D01*
X83919000Y-114933000D02*
X93689000Y-114933000D01*
X93689000Y-114933000D02*
X93689000Y-105163000D01*
X137954000Y-72318000D02*
X137954000Y-77518000D01*
X102334000Y-72318000D02*
X137954000Y-72318000D01*
X102334000Y-72318000D02*
X102334000Y-74918000D01*
X101064000Y-72318000D02*
X99734000Y-72318000D01*
X99734000Y-72318000D02*
X99734000Y-73648000D01*
X102334000Y-74918000D02*
X99734000Y-74918000D01*
X99734000Y-74918000D02*
X99734000Y-77518000D01*
X99734000Y-77518000D02*
X137954000Y-77518000D01*
%LPC*%
D13*
X111204000Y-124078000D03*
D14*
X113744000Y-124078000D03*
D13*
X126834000Y-64428000D03*
D14*
X124294000Y-64428000D03*
D13*
X88714000Y-86398000D03*
D14*
X88714000Y-88938000D03*
D13*
X149004000Y-101988000D03*
D14*
X149004000Y-99448000D03*
D15*
X89944000Y-91658000D03*
D14*
X89944000Y-94198000D03*
X89944000Y-96738000D03*
D16*
X103594000Y-84328000D03*
D17*
X103594000Y-81788000D03*
D18*
X148864000Y-85248000D03*
X148864000Y-88248000D03*
D16*
X129540000Y-101854000D03*
D17*
X132080000Y-101854000D03*
D16*
X132080000Y-86614000D03*
D17*
X129540000Y-86614000D03*
D16*
X132080000Y-89154000D03*
D17*
X129540000Y-89154000D03*
D19*
X96774000Y-117348000D03*
D20*
X89154000Y-117348000D03*
X129764000Y-117348000D03*
D19*
X137384000Y-117348000D03*
D16*
X103492000Y-65024000D03*
D17*
X106032000Y-65024000D03*
D21*
X84754000Y-81958000D03*
X84754000Y-75458000D03*
X89254000Y-81958000D03*
X89254000Y-75458000D03*
D18*
X95655000Y-64675000D03*
X98253076Y-63175000D03*
D16*
X130674000Y-64400000D03*
D17*
X133214000Y-64400000D03*
X135754000Y-64400000D03*
X138294000Y-64400000D03*
D19*
X137414000Y-112268000D03*
D20*
X129794000Y-112268000D03*
D18*
X98247200Y-125399800D03*
X95649124Y-123899800D03*
D19*
X137344000Y-114808000D03*
D20*
X129724000Y-114808000D03*
D22*
X148633600Y-68693900D03*
D23*
X149707050Y-70995922D03*
X150780501Y-73297944D03*
X151853951Y-75599965D03*
D24*
X116374000Y-123173000D03*
D14*
X118914000Y-123173000D03*
X121454000Y-123173000D03*
D25*
X151804000Y-112550000D03*
D26*
X150730550Y-114852022D03*
X149657099Y-117154044D03*
X148583649Y-119456065D03*
D27*
X148239000Y-97040000D03*
D14*
X148239000Y-94500000D03*
X148239000Y-91960000D03*
D28*
X121304000Y-65250000D03*
D14*
X118764000Y-65250000D03*
X116224000Y-65250000D03*
D29*
X95148200Y-85378400D03*
D30*
X97228846Y-86835284D03*
X99309492Y-88292168D03*
X101390139Y-89749052D03*
X103470785Y-91205937D03*
X105551431Y-92662821D03*
X107632077Y-94119705D03*
X109712723Y-95576589D03*
X111793370Y-97033473D03*
X113874016Y-98490357D03*
X115954662Y-99947241D03*
X118035308Y-101404126D03*
X120115954Y-102861010D03*
X122196601Y-104317894D03*
X124277247Y-105774778D03*
X115535942Y-118258655D03*
X113455296Y-116801771D03*
X111374649Y-115344887D03*
X109294003Y-113888003D03*
X107213357Y-112431119D03*
X105132711Y-110974234D03*
X103052065Y-109517350D03*
X100971418Y-108060466D03*
X98890772Y-106603582D03*
X96810126Y-105146698D03*
X94729480Y-103689814D03*
X92648834Y-102232930D03*
X90568187Y-100776045D03*
X88487541Y-99319161D03*
X86406895Y-97862277D03*
D31*
X143764000Y-86868000D03*
D32*
X143764000Y-89408000D03*
X143764000Y-91948000D03*
X143764000Y-94488000D03*
X143764000Y-97028000D03*
X143764000Y-99568000D03*
X143764000Y-102108000D03*
X136144000Y-102108000D03*
X136144000Y-99568000D03*
X136144000Y-97028000D03*
X136144000Y-94488000D03*
X136144000Y-91948000D03*
X136144000Y-89408000D03*
X136144000Y-86868000D03*
D33*
X88819000Y-107508000D03*
X91359000Y-110048000D03*
X88819000Y-112588000D03*
D16*
X101064000Y-73648000D03*
D17*
X101064000Y-76188000D03*
X103604000Y-73648000D03*
X103604000Y-76188000D03*
X106144000Y-73648000D03*
X106144000Y-76188000D03*
X108684000Y-73648000D03*
X108684000Y-76188000D03*
X111224000Y-73648000D03*
X111224000Y-76188000D03*
X113764000Y-73648000D03*
X113764000Y-76188000D03*
X116304000Y-73648000D03*
X116304000Y-76188000D03*
X118844000Y-73648000D03*
X118844000Y-76188000D03*
X121384000Y-73648000D03*
X121384000Y-76188000D03*
X123924000Y-73648000D03*
X123924000Y-76188000D03*
X126464000Y-73648000D03*
X126464000Y-76188000D03*
X129004000Y-73648000D03*
X129004000Y-76188000D03*
X131544000Y-73648000D03*
X131544000Y-76188000D03*
X134084000Y-73648000D03*
X134084000Y-76188000D03*
X136624000Y-73648000D03*
X136624000Y-76188000D03*
%LPD*%
M02*
