G04 #@! TF.GenerationSoftware,KiCad,Pcbnew,7.0.11-7.0.11~ubuntu20.04.1*
G04 #@! TF.CreationDate,2024-03-27T14:10:51+00:00*
G04 #@! TF.ProjectId,Swarm-B_20230626,53776172-6d2d-4425-9f32-303233303632,rev?*
G04 #@! TF.SameCoordinates,Original*
G04 #@! TF.FileFunction,Copper,L2,Bot*
G04 #@! TF.FilePolarity,Positive*
%FSLAX46Y46*%
G04 Gerber Fmt 4.6, Leading zero omitted, Abs format (unit mm)*
G04 Created by KiCad (PCBNEW 7.0.11-7.0.11~ubuntu20.04.1) date 2024-03-27 14:10:51*
%MOMM*%
%LPD*%
G01*
G04 APERTURE LIST*
G04 Aperture macros list*
%AMRoundRect*
0 Rectangle with rounded corners*
0 $1 Rounding radius*
0 $2 $3 $4 $5 $6 $7 $8 $9 X,Y pos of 4 corners*
0 Add a 4 corners polygon primitive as box body*
4,1,4,$2,$3,$4,$5,$6,$7,$8,$9,$2,$3,0*
0 Add four circle primitives for the rounded corners*
1,1,$1+$1,$2,$3*
1,1,$1+$1,$4,$5*
1,1,$1+$1,$6,$7*
1,1,$1+$1,$8,$9*
0 Add four rect primitives between the rounded corners*
20,1,$1+$1,$2,$3,$4,$5,0*
20,1,$1+$1,$4,$5,$6,$7,0*
20,1,$1+$1,$6,$7,$8,$9,0*
20,1,$1+$1,$8,$9,$2,$3,0*%
%AMHorizOval*
0 Thick line with rounded ends*
0 $1 width*
0 $2 $3 position (X,Y) of the first rounded end (center of the circle)*
0 $4 $5 position (X,Y) of the second rounded end (center of the circle)*
0 Add line between two ends*
20,1,$1,$2,$3,$4,$5,0*
0 Add two circle primitives to create the rounded ends*
1,1,$1,$2,$3*
1,1,$1,$4,$5*%
%AMRotRect*
0 Rectangle, with rotation*
0 The origin of the aperture is its center*
0 $1 length*
0 $2 width*
0 $3 Rotation angle, in degrees counterclockwise*
0 Add horizontal line*
21,1,$1,$2,0,0,$3*%
G04 Aperture macros list end*
G04 #@! TA.AperFunction,ComponentPad*
%ADD10R,1.800000X1.800000*%
G04 #@! TD*
G04 #@! TA.AperFunction,ComponentPad*
%ADD11C,1.800000*%
G04 #@! TD*
G04 #@! TA.AperFunction,ComponentPad*
%ADD12RoundRect,0.248400X-0.651600X0.651600X-0.651600X-0.651600X0.651600X-0.651600X0.651600X0.651600X0*%
G04 #@! TD*
G04 #@! TA.AperFunction,ComponentPad*
%ADD13R,1.700000X1.700000*%
G04 #@! TD*
G04 #@! TA.AperFunction,ComponentPad*
%ADD14O,1.700000X1.700000*%
G04 #@! TD*
G04 #@! TA.AperFunction,ComponentPad*
%ADD15C,1.600000*%
G04 #@! TD*
G04 #@! TA.AperFunction,ComponentPad*
%ADD16C,1.400000*%
G04 #@! TD*
G04 #@! TA.AperFunction,ComponentPad*
%ADD17O,1.400000X1.400000*%
G04 #@! TD*
G04 #@! TA.AperFunction,ComponentPad*
%ADD18C,2.000000*%
G04 #@! TD*
G04 #@! TA.AperFunction,ComponentPad*
%ADD19RotRect,1.700000X1.700000X25.000000*%
G04 #@! TD*
G04 #@! TA.AperFunction,ComponentPad*
%ADD20HorizOval,1.700000X0.000000X0.000000X0.000000X0.000000X0*%
G04 #@! TD*
G04 #@! TA.AperFunction,ComponentPad*
%ADD21RoundRect,0.248400X-0.651600X-0.651600X0.651600X-0.651600X0.651600X0.651600X-0.651600X0.651600X0*%
G04 #@! TD*
G04 #@! TA.AperFunction,ComponentPad*
%ADD22RotRect,1.700000X1.700000X335.000000*%
G04 #@! TD*
G04 #@! TA.AperFunction,ComponentPad*
%ADD23HorizOval,1.700000X0.000000X0.000000X0.000000X0.000000X0*%
G04 #@! TD*
G04 #@! TA.AperFunction,ComponentPad*
%ADD24RoundRect,0.248400X0.651600X-0.651600X0.651600X0.651600X-0.651600X0.651600X-0.651600X-0.651600X0*%
G04 #@! TD*
G04 #@! TA.AperFunction,ComponentPad*
%ADD25RoundRect,0.248400X0.651600X0.651600X-0.651600X0.651600X-0.651600X-0.651600X0.651600X-0.651600X0*%
G04 #@! TD*
G04 #@! TA.AperFunction,ComponentPad*
%ADD26RotRect,1.600000X1.600000X235.000000*%
G04 #@! TD*
G04 #@! TA.AperFunction,ComponentPad*
%ADD27HorizOval,1.600000X0.000000X0.000000X0.000000X0.000000X0*%
G04 #@! TD*
G04 #@! TA.AperFunction,ComponentPad*
%ADD28R,1.600000X1.600000*%
G04 #@! TD*
G04 #@! TA.AperFunction,ComponentPad*
%ADD29O,1.600000X1.600000*%
G04 #@! TD*
G04 #@! TA.AperFunction,ComponentPad*
%ADD30C,1.440000*%
G04 #@! TD*
G04 #@! TA.AperFunction,ViaPad*
%ADD31C,0.610000*%
G04 #@! TD*
G04 #@! TA.AperFunction,Conductor*
%ADD32C,0.254000*%
G04 #@! TD*
G04 APERTURE END LIST*
D10*
X111204000Y-124078000D03*
D11*
X113744000Y-124078000D03*
D10*
X126834000Y-64428000D03*
D11*
X124294000Y-64428000D03*
D10*
X88714000Y-86398000D03*
D11*
X88714000Y-88938000D03*
D10*
X149004000Y-101988000D03*
D11*
X149004000Y-99448000D03*
D12*
X89944000Y-91658000D03*
D11*
X89944000Y-94198000D03*
X89944000Y-96738000D03*
D13*
X103594000Y-84328000D03*
D14*
X103594000Y-81788000D03*
D15*
X148864000Y-85248000D03*
X148864000Y-88248000D03*
D13*
X129540000Y-101854000D03*
D14*
X132080000Y-101854000D03*
D13*
X132080000Y-86614000D03*
D14*
X129540000Y-86614000D03*
D13*
X132080000Y-89154000D03*
D14*
X129540000Y-89154000D03*
D16*
X96774000Y-117348000D03*
D17*
X89154000Y-117348000D03*
X129764000Y-117348000D03*
D16*
X137384000Y-117348000D03*
D13*
X103492000Y-65024000D03*
D14*
X106032000Y-65024000D03*
D18*
X84754000Y-81958000D03*
X84754000Y-75458000D03*
X89254000Y-81958000D03*
X89254000Y-75458000D03*
D15*
X95655000Y-64675000D03*
X98253076Y-63175000D03*
D13*
X130674000Y-64400000D03*
D14*
X133214000Y-64400000D03*
X135754000Y-64400000D03*
X138294000Y-64400000D03*
D16*
X137414000Y-112268000D03*
D17*
X129794000Y-112268000D03*
D15*
X98247200Y-125399800D03*
X95649124Y-123899800D03*
D16*
X137344000Y-114808000D03*
D17*
X129724000Y-114808000D03*
D19*
X148633600Y-68693900D03*
D20*
X149707050Y-70995922D03*
X150780501Y-73297944D03*
X151853951Y-75599965D03*
D21*
X116374000Y-123173000D03*
D11*
X118914000Y-123173000D03*
X121454000Y-123173000D03*
D22*
X151804000Y-112550000D03*
D23*
X150730550Y-114852022D03*
X149657099Y-117154044D03*
X148583649Y-119456065D03*
D24*
X148239000Y-97040000D03*
D11*
X148239000Y-94500000D03*
X148239000Y-91960000D03*
D25*
X121304000Y-65250000D03*
D11*
X118764000Y-65250000D03*
X116224000Y-65250000D03*
D26*
X95148200Y-85378400D03*
D27*
X97228846Y-86835284D03*
X99309492Y-88292168D03*
X101390139Y-89749052D03*
X103470785Y-91205937D03*
X105551431Y-92662821D03*
X107632077Y-94119705D03*
X109712723Y-95576589D03*
X111793370Y-97033473D03*
X113874016Y-98490357D03*
X115954662Y-99947241D03*
X118035308Y-101404126D03*
X120115954Y-102861010D03*
X122196601Y-104317894D03*
X124277247Y-105774778D03*
X115535942Y-118258655D03*
X113455296Y-116801771D03*
X111374649Y-115344887D03*
X109294003Y-113888003D03*
X107213357Y-112431119D03*
X105132711Y-110974234D03*
X103052065Y-109517350D03*
X100971418Y-108060466D03*
X98890772Y-106603582D03*
X96810126Y-105146698D03*
X94729480Y-103689814D03*
X92648834Y-102232930D03*
X90568187Y-100776045D03*
X88487541Y-99319161D03*
X86406895Y-97862277D03*
D28*
X143764000Y-86868000D03*
D29*
X143764000Y-89408000D03*
X143764000Y-91948000D03*
X143764000Y-94488000D03*
X143764000Y-97028000D03*
X143764000Y-99568000D03*
X143764000Y-102108000D03*
X136144000Y-102108000D03*
X136144000Y-99568000D03*
X136144000Y-97028000D03*
X136144000Y-94488000D03*
X136144000Y-91948000D03*
X136144000Y-89408000D03*
X136144000Y-86868000D03*
D30*
X88819000Y-107508000D03*
X91359000Y-110048000D03*
X88819000Y-112588000D03*
D13*
X101064000Y-73648000D03*
D14*
X101064000Y-76188000D03*
X103604000Y-73648000D03*
X103604000Y-76188000D03*
X106144000Y-73648000D03*
X106144000Y-76188000D03*
X108684000Y-73648000D03*
X108684000Y-76188000D03*
X111224000Y-73648000D03*
X111224000Y-76188000D03*
X113764000Y-73648000D03*
X113764000Y-76188000D03*
X116304000Y-73648000D03*
X116304000Y-76188000D03*
X118844000Y-73648000D03*
X118844000Y-76188000D03*
X121384000Y-73648000D03*
X121384000Y-76188000D03*
X123924000Y-73648000D03*
X123924000Y-76188000D03*
X126464000Y-73648000D03*
X126464000Y-76188000D03*
X129004000Y-73648000D03*
X129004000Y-76188000D03*
X131544000Y-73648000D03*
X131544000Y-76188000D03*
X134084000Y-73648000D03*
X134084000Y-76188000D03*
X136624000Y-73648000D03*
X136624000Y-76188000D03*
D31*
X100054000Y-115750000D03*
X123804000Y-101750000D03*
X143304000Y-82750000D03*
X132054000Y-82750000D03*
D32*
X118764000Y-65250000D02*
X117483000Y-66531000D01*
X117483000Y-66531000D02*
X113261000Y-66531000D01*
X113261000Y-66531000D02*
X106144000Y-73648000D01*
X118764000Y-65250000D02*
X120264000Y-66750000D01*
X120264000Y-66750000D02*
X123846897Y-66750000D01*
X123846897Y-66750000D02*
X130235000Y-73138103D01*
X130235000Y-73138103D02*
X130235000Y-85919000D01*
X130235000Y-85919000D02*
X129540000Y-86614000D01*
X148239000Y-94500000D02*
X145453000Y-97286000D01*
X145453000Y-97286000D02*
X145453000Y-100419000D01*
X145453000Y-100419000D02*
X143764000Y-102108000D01*
X100054000Y-115750000D02*
X100054000Y-109521942D01*
X100054000Y-109521942D02*
X96810126Y-106278068D01*
X96810126Y-106278068D02*
X96810126Y-105146698D01*
X132054000Y-82750000D02*
X143304000Y-82750000D01*
X123804000Y-101750000D02*
X123554000Y-101500000D01*
X116173705Y-94119705D02*
X123804000Y-101750000D01*
X107632077Y-94119705D02*
X116173705Y-94119705D01*
X136144000Y-97028000D02*
X137325000Y-95847000D01*
X137325000Y-95847000D02*
X137325000Y-90589000D01*
X137325000Y-90589000D02*
X136144000Y-89408000D01*
X126834000Y-64428000D02*
X128037000Y-65631000D01*
X128037000Y-65631000D02*
X130347897Y-65631000D01*
X130347897Y-65631000D02*
X144945000Y-80228103D01*
X144945000Y-80228103D02*
X144945000Y-88049000D01*
X144945000Y-88049000D02*
X143452813Y-88049000D01*
X143452813Y-88049000D02*
X142554000Y-88947813D01*
X142554000Y-88947813D02*
X142554000Y-90738000D01*
X142554000Y-90738000D02*
X143764000Y-91948000D01*
X149657099Y-117154044D02*
X150859180Y-117154044D01*
X152101944Y-73297944D02*
X150780501Y-73297944D01*
X150859180Y-117154044D02*
X153314587Y-114698637D01*
X153314587Y-114698637D02*
X153314587Y-74510587D01*
X153314587Y-74510587D02*
X152101944Y-73297944D01*
X95655000Y-64675000D02*
X95655000Y-73010029D01*
X122304000Y-127500000D02*
X128554000Y-121250000D01*
X95655000Y-73010029D02*
X84717895Y-83947134D01*
X84717895Y-83947134D02*
X84717895Y-115632315D01*
X84717895Y-115632315D02*
X96585580Y-127500000D01*
X96585580Y-127500000D02*
X122304000Y-127500000D01*
X128554000Y-121250000D02*
X128554000Y-113508000D01*
X128554000Y-113508000D02*
X129794000Y-112268000D01*
X144945000Y-89167000D02*
X144945000Y-97695187D01*
X148864000Y-85248000D02*
X144945000Y-89167000D01*
X144945000Y-97695187D02*
X144253187Y-98387000D01*
X144253187Y-98387000D02*
X143274813Y-98387000D01*
X143274813Y-98387000D02*
X140812000Y-100849813D01*
X140812000Y-100849813D02*
X140812000Y-111491999D01*
X140812000Y-111491999D02*
X138954999Y-113349000D01*
X138954999Y-113349000D02*
X133763000Y-113349000D01*
X133763000Y-113349000D02*
X129764000Y-117348000D01*
X136144000Y-91948000D02*
X134963000Y-90767000D01*
X134963000Y-90767000D02*
X134963000Y-86378813D01*
X135841813Y-85500000D02*
X142396000Y-85500000D01*
X134963000Y-86378813D02*
X135841813Y-85500000D01*
X142396000Y-85500000D02*
X143764000Y-86868000D01*
X95148200Y-85378400D02*
X97442149Y-85378400D01*
X97442149Y-85378400D02*
X98473583Y-86409834D01*
X98473583Y-86409834D02*
X98473583Y-87457890D01*
X98473583Y-87457890D02*
X98128492Y-87802981D01*
X98128492Y-87802981D02*
X98128492Y-88781355D01*
X98128492Y-88781355D02*
X100277189Y-90930052D01*
X100277189Y-90930052D02*
X102076483Y-90930052D01*
X102076483Y-90930052D02*
X102981598Y-90024937D01*
X102981598Y-90024937D02*
X115248937Y-90024937D01*
X115248937Y-90024937D02*
X128309000Y-103085000D01*
X128309000Y-103085000D02*
X132589897Y-103085000D01*
X132589897Y-103085000D02*
X134455000Y-101219897D01*
X134455000Y-101219897D02*
X134455000Y-93637000D01*
X134455000Y-93637000D02*
X136144000Y-91948000D01*
X111204000Y-124078000D02*
X108392186Y-126889814D01*
X108392186Y-126889814D02*
X96693814Y-126889814D01*
X96693814Y-126889814D02*
X85225895Y-115421895D01*
X85225895Y-115421895D02*
X85225895Y-89886105D01*
X85225895Y-89886105D02*
X88714000Y-86398000D01*
X140304000Y-109378000D02*
X140304000Y-90500000D01*
X137414000Y-112268000D02*
X140304000Y-109378000D01*
X140304000Y-90500000D02*
X139776000Y-90500000D01*
X139776000Y-90500000D02*
X136144000Y-86868000D01*
X148583649Y-119456065D02*
X137963300Y-119456065D01*
X136303000Y-116900235D02*
X137314235Y-115889000D01*
X137963300Y-119456065D02*
X136303000Y-117795765D01*
X138165000Y-115889000D02*
X143764000Y-110290000D01*
X136303000Y-117795765D02*
X136303000Y-116900235D01*
X137314235Y-115889000D02*
X138165000Y-115889000D01*
X143764000Y-110290000D02*
X143764000Y-102108000D01*
X124294000Y-64428000D02*
X123394000Y-63528000D01*
X123394000Y-63528000D02*
X111276000Y-63528000D01*
X111276000Y-63528000D02*
X102387000Y-72417000D01*
X102387000Y-72417000D02*
X99887000Y-72417000D01*
X99887000Y-72417000D02*
X90804000Y-81500000D01*
X90804000Y-81500000D02*
X90804000Y-86848000D01*
X90804000Y-86848000D02*
X88714000Y-88938000D01*
X149004000Y-99448000D02*
X150045000Y-98407000D01*
X150045000Y-98407000D02*
X150045000Y-74410103D01*
X150045000Y-74410103D02*
X138634897Y-63000000D01*
X138634897Y-63000000D02*
X125722000Y-63000000D01*
X125722000Y-63000000D02*
X124294000Y-64428000D01*
X111204000Y-124078000D02*
X112485000Y-125359000D01*
X112485000Y-125359000D02*
X123281765Y-125359000D01*
X123281765Y-125359000D02*
X123281765Y-114970235D01*
X123281765Y-114970235D02*
X136144000Y-102108000D01*
X113874016Y-98490357D02*
X113874016Y-114926542D01*
X113874016Y-114926542D02*
X121454000Y-122506526D01*
X121454000Y-122506526D02*
X121454000Y-123173000D01*
X136144000Y-94488000D02*
X134963000Y-95669000D01*
X134963000Y-95669000D02*
X134963000Y-100927000D01*
X134963000Y-100927000D02*
X136144000Y-102108000D01*
X137384000Y-117348000D02*
X149463143Y-117348000D01*
X149463143Y-117348000D02*
X149657099Y-117154044D01*
X123924000Y-73648000D02*
X122693000Y-74879000D01*
X122693000Y-74879000D02*
X122693000Y-95007000D01*
X122693000Y-95007000D02*
X129540000Y-101854000D01*
X123924000Y-76188000D02*
X123924000Y-93698000D01*
X123924000Y-93698000D02*
X132080000Y-101854000D01*
X116374000Y-123173000D02*
X107702544Y-114501544D01*
X108394357Y-110108357D02*
X89944000Y-91658000D01*
X107702544Y-114501544D02*
X107702544Y-113612119D01*
X108394357Y-112920306D02*
X108394357Y-110108357D01*
X107702544Y-113612119D02*
X108394357Y-112920306D01*
X96774000Y-117348000D02*
X92648834Y-113222834D01*
X92648834Y-113222834D02*
X92648834Y-102232930D01*
X91359000Y-110048000D02*
X91359000Y-115143000D01*
X91359000Y-115143000D02*
X89154000Y-117348000D01*
X98247200Y-125399800D02*
X98247200Y-121397276D01*
X98247200Y-121397276D02*
X107213357Y-112431119D01*
G04 #@! TA.AperFunction,Conductor*
G36*
X136274153Y-114004185D02*
G01*
X136319908Y-114056989D01*
X136329852Y-114126147D01*
X136308689Y-114179623D01*
X136293411Y-114201441D01*
X136293410Y-114201443D01*
X136204045Y-114393088D01*
X136204041Y-114393097D01*
X136149315Y-114597339D01*
X136149313Y-114597350D01*
X136130884Y-114807998D01*
X136130884Y-114808001D01*
X136149313Y-115018649D01*
X136149315Y-115018660D01*
X136204041Y-115222902D01*
X136204043Y-115222906D01*
X136204044Y-115222910D01*
X136260922Y-115344885D01*
X136293410Y-115414556D01*
X136293411Y-115414558D01*
X136414700Y-115587778D01*
X136564221Y-115737299D01*
X136564224Y-115737301D01*
X136737442Y-115858589D01*
X136929090Y-115947956D01*
X136929095Y-115947957D01*
X136929099Y-115947959D01*
X136965916Y-115957823D01*
X136987413Y-115963583D01*
X137047073Y-115999947D01*
X137077603Y-116062793D01*
X137069309Y-116132169D01*
X137024824Y-116186048D01*
X136987418Y-116203132D01*
X136969096Y-116208042D01*
X136969092Y-116208043D01*
X136969090Y-116208044D01*
X136969088Y-116208045D01*
X136777443Y-116297410D01*
X136777441Y-116297411D01*
X136604221Y-116418700D01*
X136454700Y-116568221D01*
X136333411Y-116741441D01*
X136333410Y-116741443D01*
X136244045Y-116933088D01*
X136244041Y-116933097D01*
X136189315Y-117137339D01*
X136189313Y-117137350D01*
X136170884Y-117347998D01*
X136170884Y-117348001D01*
X136189313Y-117558649D01*
X136189315Y-117558660D01*
X136244041Y-117762902D01*
X136244043Y-117762906D01*
X136244044Y-117762910D01*
X136294602Y-117871331D01*
X136333410Y-117954556D01*
X136333411Y-117954558D01*
X136454700Y-118127778D01*
X136604221Y-118277299D01*
X136647747Y-118307776D01*
X136777442Y-118398589D01*
X136969090Y-118487956D01*
X137173345Y-118542686D01*
X137323812Y-118555850D01*
X137383998Y-118561116D01*
X137384000Y-118561116D01*
X137384002Y-118561116D01*
X137436663Y-118556508D01*
X137594655Y-118542686D01*
X137798910Y-118487956D01*
X137840320Y-118468645D01*
X137857537Y-118462126D01*
X137877138Y-118456330D01*
X138882495Y-117994806D01*
X138934228Y-117983500D01*
X147873675Y-117983500D01*
X147914379Y-117990371D01*
X147943186Y-118000381D01*
X147979814Y-118013111D01*
X148036676Y-118053710D01*
X148062562Y-118118607D01*
X148049253Y-118187197D01*
X148000974Y-118237704D01*
X147991515Y-118242621D01*
X147906068Y-118282466D01*
X147712575Y-118417951D01*
X147712569Y-118417956D01*
X147545542Y-118584983D01*
X147545533Y-118584993D01*
X147486864Y-118668780D01*
X148294223Y-119045258D01*
X148201888Y-119125267D01*
X148124156Y-119246221D01*
X148083649Y-119384176D01*
X148083649Y-119498755D01*
X147275555Y-119121934D01*
X147275554Y-119121935D01*
X147249082Y-119220736D01*
X147249079Y-119220749D01*
X147228492Y-119456064D01*
X147228492Y-119456066D01*
X147249079Y-119691380D01*
X147249081Y-119691391D01*
X147310215Y-119919548D01*
X147310219Y-119919557D01*
X147410048Y-120133643D01*
X147545543Y-120327147D01*
X147712567Y-120494171D01*
X147712577Y-120494180D01*
X147796364Y-120552849D01*
X148173875Y-119743273D01*
X148201888Y-119786863D01*
X148310549Y-119881017D01*
X148441334Y-119940745D01*
X148547886Y-119956065D01*
X148619412Y-119956065D01*
X148626836Y-119954997D01*
X148249519Y-120764157D01*
X148348326Y-120790633D01*
X148348333Y-120790634D01*
X148583647Y-120811222D01*
X148583651Y-120811222D01*
X148818964Y-120790634D01*
X148818975Y-120790632D01*
X149047132Y-120729498D01*
X149047141Y-120729494D01*
X149261227Y-120629665D01*
X149454731Y-120494170D01*
X149621754Y-120327147D01*
X149680431Y-120243348D01*
X148873074Y-119866870D01*
X148965410Y-119786863D01*
X149043142Y-119665909D01*
X149083649Y-119527954D01*
X149083649Y-119413373D01*
X149891741Y-119790193D01*
X149918217Y-119691385D01*
X149938806Y-119456066D01*
X149938806Y-119456063D01*
X149918218Y-119220749D01*
X149918216Y-119220738D01*
X149857082Y-118992581D01*
X149857078Y-118992572D01*
X149757249Y-118778487D01*
X149757248Y-118778485D01*
X149704596Y-118703290D01*
X149682269Y-118637084D01*
X149699279Y-118569317D01*
X149750227Y-118521504D01*
X149785759Y-118509858D01*
X149991734Y-118475488D01*
X150204673Y-118402386D01*
X150402675Y-118295233D01*
X150580339Y-118156950D01*
X150582276Y-118154845D01*
X150594424Y-118143318D01*
X151041029Y-117773623D01*
X151085503Y-117750068D01*
X151113573Y-117741913D01*
X151131234Y-117731467D01*
X151148692Y-117722915D01*
X151167768Y-117715363D01*
X151203748Y-117689221D01*
X151213495Y-117682818D01*
X151251778Y-117660178D01*
X151266274Y-117645681D01*
X151281072Y-117633042D01*
X151297667Y-117620986D01*
X151326024Y-117586707D01*
X151333867Y-117578088D01*
X151601927Y-117310027D01*
X151610514Y-117302211D01*
X151618600Y-117295519D01*
X151637045Y-117279497D01*
X151637857Y-117278757D01*
X151691799Y-117221435D01*
X151691799Y-117221433D01*
X151694503Y-117218561D01*
X151701842Y-117210112D01*
X152761507Y-116150448D01*
X152822827Y-116116965D01*
X152892519Y-116121949D01*
X152948452Y-116163821D01*
X152972869Y-116229285D01*
X152958017Y-116297558D01*
X152953545Y-116305101D01*
X152707547Y-116688446D01*
X152705433Y-116691632D01*
X151999073Y-117721092D01*
X151996861Y-117724211D01*
X151259119Y-118731366D01*
X151256812Y-118734416D01*
X150488349Y-119718367D01*
X150485949Y-119721344D01*
X149687521Y-120681120D01*
X149685030Y-120684021D01*
X148857389Y-121618719D01*
X148854811Y-121621543D01*
X147998718Y-122530302D01*
X147996053Y-122533044D01*
X147112396Y-123414926D01*
X147109648Y-123417586D01*
X146199167Y-124271850D01*
X146196338Y-124274423D01*
X145259976Y-125100181D01*
X145257070Y-125102665D01*
X144295689Y-125899161D01*
X144292707Y-125901555D01*
X143307229Y-126668025D01*
X143304175Y-126670326D01*
X142295522Y-127406052D01*
X142292398Y-127408258D01*
X141261520Y-128112545D01*
X141258329Y-128114653D01*
X140206276Y-128786787D01*
X140203023Y-128788796D01*
X139130675Y-129428212D01*
X139127361Y-129430119D01*
X138555725Y-129747500D01*
X138126322Y-129985910D01*
X138066132Y-130001499D01*
X99677868Y-130001499D01*
X99617677Y-129985910D01*
X98616637Y-129430118D01*
X98613323Y-129428211D01*
X97540974Y-128788795D01*
X97537721Y-128786786D01*
X96875949Y-128363995D01*
X96830052Y-128311314D01*
X96819923Y-128242182D01*
X96848778Y-128178549D01*
X96907454Y-128140617D01*
X96942708Y-128135500D01*
X122220153Y-128135500D01*
X122235932Y-128137241D01*
X122235958Y-128136974D01*
X122243711Y-128137706D01*
X122243719Y-128137708D01*
X122312044Y-128135561D01*
X122315939Y-128135500D01*
X122343977Y-128135500D01*
X122343983Y-128135500D01*
X122348122Y-128134976D01*
X122359753Y-128134061D01*
X122404205Y-128132665D01*
X122423906Y-128126940D01*
X122442951Y-128122997D01*
X122463299Y-128120427D01*
X122504659Y-128104051D01*
X122515660Y-128100283D01*
X122558393Y-128087869D01*
X122576054Y-128077423D01*
X122593512Y-128068871D01*
X122612588Y-128061319D01*
X122648568Y-128035177D01*
X122658315Y-128028774D01*
X122696598Y-128006134D01*
X122711094Y-127991637D01*
X122725892Y-127978998D01*
X122742487Y-127966942D01*
X122770845Y-127932662D01*
X122778688Y-127924042D01*
X128944075Y-121758656D01*
X128956458Y-121748738D01*
X128956286Y-121748530D01*
X128962294Y-121743558D01*
X128962303Y-121743553D01*
X129009103Y-121693714D01*
X129011783Y-121690948D01*
X129031639Y-121671094D01*
X129034192Y-121667801D01*
X129041774Y-121658923D01*
X129072217Y-121626506D01*
X129082094Y-121608537D01*
X129092779Y-121592272D01*
X129105350Y-121576067D01*
X129123019Y-121535234D01*
X129128145Y-121524770D01*
X129149569Y-121485803D01*
X129154670Y-121465930D01*
X129160969Y-121447534D01*
X129169117Y-121428708D01*
X129176072Y-121384787D01*
X129178442Y-121373347D01*
X129182665Y-121356900D01*
X129189500Y-121330282D01*
X129189500Y-121309774D01*
X129191027Y-121290374D01*
X129193632Y-121273926D01*
X129194235Y-121270121D01*
X129190050Y-121225848D01*
X129189500Y-121214179D01*
X129189500Y-118606794D01*
X129209185Y-118539755D01*
X129261989Y-118494000D01*
X129331147Y-118484056D01*
X129345594Y-118487019D01*
X129349088Y-118487955D01*
X129349090Y-118487956D01*
X129553345Y-118542686D01*
X129703812Y-118555850D01*
X129763998Y-118561116D01*
X129764000Y-118561116D01*
X129764002Y-118561116D01*
X129816663Y-118556508D01*
X129974655Y-118542686D01*
X130178910Y-118487956D01*
X130370558Y-118398589D01*
X130543776Y-118277301D01*
X130693301Y-118127776D01*
X130814589Y-117954558D01*
X130881972Y-117810051D01*
X130885379Y-117803295D01*
X130896409Y-117783004D01*
X130901726Y-117768661D01*
X130902787Y-117766121D01*
X130903951Y-117762918D01*
X130903956Y-117762910D01*
X130903958Y-117762900D01*
X130905814Y-117757800D01*
X130905820Y-117757802D01*
X130906227Y-117756519D01*
X131280957Y-116745762D01*
X131309540Y-116701190D01*
X133989914Y-114020819D01*
X134051237Y-113987334D01*
X134077595Y-113984500D01*
X136207114Y-113984500D01*
X136274153Y-114004185D01*
G37*
G04 #@! TD.AperFunction*
G04 #@! TA.AperFunction,Conductor*
G36*
X93489537Y-104152476D02*
G01*
X93520716Y-104193785D01*
X93578588Y-104317894D01*
X93591957Y-104346563D01*
X93723282Y-104534114D01*
X93885180Y-104696012D01*
X94072731Y-104827337D01*
X94161819Y-104868879D01*
X94280230Y-104924095D01*
X94280232Y-104924095D01*
X94280237Y-104924098D01*
X94501393Y-104983357D01*
X94664312Y-104997610D01*
X94729478Y-105003312D01*
X94729480Y-105003312D01*
X94729482Y-105003312D01*
X94786501Y-104998323D01*
X94957567Y-104983357D01*
X95178723Y-104924098D01*
X95335804Y-104850850D01*
X95404877Y-104840359D01*
X95468661Y-104868879D01*
X95506901Y-104927355D01*
X95511733Y-104974040D01*
X95496628Y-105146695D01*
X95496628Y-105146699D01*
X95516582Y-105374779D01*
X95516583Y-105374787D01*
X95575840Y-105595936D01*
X95575844Y-105595947D01*
X95659235Y-105774779D01*
X95672603Y-105803447D01*
X95803928Y-105990998D01*
X95803932Y-105991002D01*
X95835459Y-106022529D01*
X95850880Y-106042230D01*
X95851116Y-106042065D01*
X95853676Y-106045695D01*
X96189922Y-106456753D01*
X96213018Y-106500664D01*
X96222256Y-106532459D01*
X96232696Y-106550112D01*
X96241254Y-106567582D01*
X96248805Y-106586653D01*
X96248809Y-106586660D01*
X96274950Y-106622640D01*
X96281357Y-106632393D01*
X96303992Y-106670666D01*
X96303996Y-106670670D01*
X96318489Y-106685163D01*
X96331127Y-106699960D01*
X96343183Y-106716555D01*
X96377451Y-106744903D01*
X96386092Y-106752766D01*
X96634294Y-107000968D01*
X96642592Y-107010138D01*
X96646045Y-107014359D01*
X96654263Y-107023907D01*
X96662826Y-107033857D01*
X96663585Y-107034694D01*
X96663598Y-107034708D01*
X96725381Y-107093045D01*
X96732967Y-107099641D01*
X99382181Y-109748855D01*
X99415666Y-109810178D01*
X99418500Y-109836536D01*
X99418500Y-115196625D01*
X99399494Y-115262596D01*
X99316426Y-115394798D01*
X99316423Y-115394805D01*
X99255877Y-115567837D01*
X99255876Y-115567842D01*
X99235353Y-115749996D01*
X99235353Y-115750003D01*
X99255876Y-115932157D01*
X99255878Y-115932168D01*
X99316424Y-116105197D01*
X99316426Y-116105200D01*
X99394394Y-116229285D01*
X99413956Y-116260418D01*
X99543582Y-116390044D01*
X99698802Y-116487575D01*
X99871834Y-116548122D01*
X99871840Y-116548122D01*
X99871842Y-116548123D01*
X100053996Y-116568647D01*
X100054000Y-116568647D01*
X100054004Y-116568647D01*
X100236157Y-116548123D01*
X100236156Y-116548123D01*
X100236166Y-116548122D01*
X100409198Y-116487575D01*
X100564418Y-116390044D01*
X100694044Y-116260418D01*
X100791575Y-116105198D01*
X100852122Y-115932166D01*
X100860412Y-115858588D01*
X100872647Y-115750003D01*
X100872647Y-115749996D01*
X100852123Y-115567842D01*
X100852122Y-115567837D01*
X100852122Y-115567834D01*
X100791575Y-115394802D01*
X100784978Y-115384303D01*
X100708506Y-115262597D01*
X100689500Y-115196625D01*
X100689500Y-109605793D01*
X100691242Y-109590011D01*
X100690975Y-109589986D01*
X100691707Y-109582230D01*
X100691709Y-109582223D01*
X100689561Y-109513878D01*
X100689500Y-109509983D01*
X100689500Y-109484621D01*
X100709185Y-109417582D01*
X100761989Y-109371827D01*
X100824305Y-109361093D01*
X100946992Y-109371827D01*
X100971417Y-109373964D01*
X100971418Y-109373964D01*
X100971420Y-109373964D01*
X101028439Y-109368975D01*
X101199505Y-109354009D01*
X101420661Y-109294750D01*
X101577741Y-109221502D01*
X101646817Y-109211011D01*
X101710601Y-109239531D01*
X101748840Y-109298007D01*
X101753672Y-109344692D01*
X101738567Y-109517347D01*
X101738567Y-109517351D01*
X101758521Y-109745431D01*
X101758522Y-109745439D01*
X101817779Y-109966588D01*
X101817783Y-109966599D01*
X101913037Y-110170871D01*
X101914542Y-110174099D01*
X102045867Y-110361650D01*
X102207765Y-110523548D01*
X102395316Y-110654873D01*
X102480827Y-110694747D01*
X102602815Y-110751631D01*
X102602817Y-110751631D01*
X102602822Y-110751634D01*
X102823978Y-110810893D01*
X102986897Y-110825146D01*
X103052063Y-110830848D01*
X103052065Y-110830848D01*
X103052067Y-110830848D01*
X103109086Y-110825859D01*
X103280152Y-110810893D01*
X103501308Y-110751634D01*
X103658389Y-110678386D01*
X103727462Y-110667895D01*
X103791246Y-110696415D01*
X103829486Y-110754891D01*
X103834318Y-110801576D01*
X103819213Y-110974231D01*
X103819213Y-110974235D01*
X103839167Y-111202315D01*
X103839168Y-111202323D01*
X103898425Y-111423472D01*
X103898429Y-111423483D01*
X103993232Y-111626789D01*
X103995188Y-111630983D01*
X104126513Y-111818534D01*
X104288411Y-111980432D01*
X104475962Y-112111757D01*
X104592774Y-112166227D01*
X104683461Y-112208515D01*
X104683463Y-112208515D01*
X104683468Y-112208518D01*
X104904624Y-112267777D01*
X105067543Y-112282030D01*
X105132709Y-112287732D01*
X105132711Y-112287732D01*
X105132713Y-112287732D01*
X105189732Y-112282743D01*
X105360798Y-112267777D01*
X105581954Y-112208518D01*
X105693282Y-112156605D01*
X105762354Y-112146114D01*
X105826138Y-112174633D01*
X105864378Y-112233109D01*
X105864933Y-112302977D01*
X105862438Y-112310751D01*
X105552970Y-113175929D01*
X105523895Y-113221847D01*
X97857121Y-120888620D01*
X97844731Y-120898548D01*
X97844902Y-120898755D01*
X97838895Y-120903724D01*
X97792098Y-120953557D01*
X97789390Y-120956351D01*
X97769566Y-120976174D01*
X97769565Y-120976176D01*
X97766997Y-120979487D01*
X97759421Y-120988356D01*
X97728982Y-121020771D01*
X97728981Y-121020772D01*
X97719100Y-121038744D01*
X97708425Y-121054995D01*
X97695852Y-121071205D01*
X97695850Y-121071209D01*
X97678187Y-121112024D01*
X97673050Y-121122509D01*
X97651630Y-121161473D01*
X97646529Y-121181340D01*
X97640230Y-121199738D01*
X97632084Y-121218563D01*
X97632081Y-121218572D01*
X97625126Y-121262488D01*
X97622757Y-121273926D01*
X97611700Y-121316986D01*
X97611700Y-121337501D01*
X97610173Y-121356900D01*
X97606965Y-121377153D01*
X97611150Y-121421425D01*
X97611700Y-121433095D01*
X97611700Y-123646042D01*
X97599789Y-123699070D01*
X97049144Y-124863010D01*
X97044077Y-124874062D01*
X97043833Y-124874611D01*
X97028841Y-124915373D01*
X97024846Y-124924971D01*
X97012916Y-124950555D01*
X96953657Y-125171710D01*
X96953656Y-125171718D01*
X96933702Y-125399798D01*
X96933702Y-125399801D01*
X96953656Y-125627881D01*
X96953657Y-125627889D01*
X97012914Y-125849038D01*
X97012918Y-125849049D01*
X97082951Y-125999235D01*
X97109677Y-126056549D01*
X97111525Y-126059189D01*
X97111981Y-126060540D01*
X97112386Y-126061241D01*
X97112245Y-126061322D01*
X97133854Y-126125393D01*
X97116846Y-126193161D01*
X97065899Y-126240975D01*
X97009952Y-126254314D01*
X97008409Y-126254314D01*
X96941370Y-126234629D01*
X96920728Y-126217995D01*
X96037018Y-125334285D01*
X96003533Y-125272962D01*
X96008517Y-125203270D01*
X96050389Y-125147337D01*
X96090355Y-125127923D01*
X96090355Y-125127921D01*
X96090374Y-125127913D01*
X96092608Y-125126829D01*
X96095436Y-125126071D01*
X96095450Y-125126065D01*
X96301606Y-125029934D01*
X96487944Y-124899457D01*
X96648781Y-124738620D01*
X96779258Y-124552282D01*
X96875389Y-124346126D01*
X96875393Y-124346117D01*
X96934263Y-124126410D01*
X96934265Y-124126399D01*
X96954090Y-123899802D01*
X96954090Y-123899797D01*
X96946324Y-123811034D01*
X96016311Y-124060230D01*
X96034289Y-124024948D01*
X96054110Y-123899800D01*
X96034289Y-123774652D01*
X95976765Y-123661755D01*
X95891140Y-123576130D01*
X96816914Y-123328071D01*
X96779259Y-123247319D01*
X96648781Y-123060979D01*
X96487944Y-122900142D01*
X96301606Y-122769665D01*
X96095450Y-122673534D01*
X96095441Y-122673530D01*
X95875734Y-122614660D01*
X95875723Y-122614658D01*
X95649126Y-122594834D01*
X95649121Y-122594834D01*
X95560358Y-122602598D01*
X95809555Y-123532612D01*
X95774272Y-123514635D01*
X95680605Y-123499800D01*
X95617643Y-123499800D01*
X95523976Y-123514635D01*
X95411079Y-123572159D01*
X95325455Y-123657782D01*
X95077395Y-122732008D01*
X94996643Y-122769664D01*
X94810303Y-122900142D01*
X94649466Y-123060979D01*
X94518989Y-123247317D01*
X94422857Y-123453474D01*
X94422092Y-123456330D01*
X94421411Y-123457445D01*
X94421007Y-123458558D01*
X94420783Y-123458476D01*
X94385721Y-123515987D01*
X94322871Y-123546510D01*
X94253496Y-123538209D01*
X94214639Y-123511906D01*
X89422484Y-118719751D01*
X89388999Y-118658428D01*
X89393983Y-118588736D01*
X89435855Y-118532803D01*
X89478069Y-118512296D01*
X89546354Y-118494000D01*
X89568900Y-118487959D01*
X89568901Y-118487958D01*
X89568910Y-118487956D01*
X89760558Y-118398589D01*
X89933776Y-118277301D01*
X90083301Y-118127776D01*
X90204589Y-117954558D01*
X90271972Y-117810051D01*
X90275379Y-117803295D01*
X90286409Y-117783004D01*
X90291726Y-117768661D01*
X90292787Y-117766121D01*
X90293951Y-117762918D01*
X90293956Y-117762910D01*
X90293958Y-117762900D01*
X90295814Y-117757800D01*
X90295820Y-117757802D01*
X90296227Y-117756519D01*
X90670957Y-116745763D01*
X90699540Y-116701191D01*
X91749075Y-115651656D01*
X91761458Y-115641738D01*
X91761286Y-115641530D01*
X91767294Y-115636558D01*
X91767303Y-115636553D01*
X91814103Y-115586714D01*
X91816783Y-115583948D01*
X91836639Y-115564094D01*
X91839192Y-115560801D01*
X91846774Y-115551923D01*
X91877217Y-115519506D01*
X91887094Y-115501537D01*
X91897779Y-115485272D01*
X91910350Y-115469067D01*
X91928019Y-115428234D01*
X91933145Y-115417770D01*
X91954569Y-115378803D01*
X91959670Y-115358930D01*
X91965969Y-115340534D01*
X91974117Y-115321708D01*
X91981072Y-115277787D01*
X91983442Y-115266347D01*
X91989363Y-115243286D01*
X91994500Y-115223282D01*
X91994500Y-115202774D01*
X91996027Y-115183374D01*
X91999235Y-115163121D01*
X91995050Y-115118848D01*
X91994500Y-115107179D01*
X91994500Y-113769810D01*
X92014185Y-113702771D01*
X92066989Y-113657016D01*
X92136147Y-113647072D01*
X92197538Y-113674264D01*
X92216169Y-113689677D01*
X92224800Y-113697532D01*
X95228455Y-116701187D01*
X95257041Y-116745763D01*
X95631802Y-117756606D01*
X95632204Y-117757866D01*
X95632207Y-117757866D01*
X95635211Y-117766116D01*
X95636255Y-117768616D01*
X95638379Y-117774344D01*
X95641582Y-117782984D01*
X95644925Y-117791755D01*
X95645039Y-117792046D01*
X95645051Y-117792075D01*
X95666834Y-117838857D01*
X95672203Y-117850386D01*
X95672208Y-117850393D01*
X95675474Y-117855860D01*
X95675384Y-117855913D01*
X95684601Y-117871331D01*
X95723410Y-117954557D01*
X95723411Y-117954559D01*
X95844699Y-118127777D01*
X95994221Y-118277299D01*
X96037747Y-118307776D01*
X96167442Y-118398589D01*
X96359090Y-118487956D01*
X96563345Y-118542686D01*
X96713812Y-118555850D01*
X96773998Y-118561116D01*
X96774000Y-118561116D01*
X96774002Y-118561116D01*
X96826663Y-118556508D01*
X96984655Y-118542686D01*
X97188910Y-118487956D01*
X97380558Y-118398589D01*
X97553776Y-118277301D01*
X97703301Y-118127776D01*
X97824589Y-117954558D01*
X97913956Y-117762910D01*
X97968686Y-117558655D01*
X97987116Y-117348000D01*
X97982524Y-117295519D01*
X97978630Y-117251009D01*
X97968686Y-117137345D01*
X97913956Y-116933090D01*
X97824589Y-116741442D01*
X97703301Y-116568224D01*
X97703299Y-116568221D01*
X97553778Y-116418700D01*
X97380558Y-116297411D01*
X97380556Y-116297410D01*
X97236089Y-116230044D01*
X97229280Y-116226610D01*
X97209006Y-116215591D01*
X97209005Y-116215590D01*
X97209004Y-116215590D01*
X97194616Y-116210255D01*
X97192114Y-116209211D01*
X97183866Y-116206207D01*
X97183866Y-116206204D01*
X97182606Y-116205802D01*
X96171764Y-115831041D01*
X96127188Y-115802455D01*
X93320653Y-112995920D01*
X93287168Y-112934597D01*
X93284334Y-112908239D01*
X93284334Y-109220000D01*
X94436644Y-109220000D01*
X94456038Y-109466437D01*
X94513745Y-109706807D01*
X94608345Y-109935192D01*
X94608347Y-109935196D01*
X94608348Y-109935197D01*
X94737510Y-110145971D01*
X94898055Y-110333945D01*
X95086029Y-110494490D01*
X95296803Y-110623652D01*
X95296805Y-110623652D01*
X95296807Y-110623654D01*
X95310397Y-110629283D01*
X95525188Y-110718253D01*
X95765560Y-110775961D01*
X96012000Y-110795356D01*
X96258440Y-110775961D01*
X96498812Y-110718253D01*
X96727197Y-110623652D01*
X96937971Y-110494490D01*
X97125945Y-110333945D01*
X97286490Y-110145971D01*
X97415652Y-109935197D01*
X97510253Y-109706812D01*
X97567961Y-109466440D01*
X97587356Y-109220000D01*
X97567961Y-108973560D01*
X97510253Y-108733188D01*
X97432841Y-108546300D01*
X97415654Y-108504807D01*
X97383711Y-108452681D01*
X97286490Y-108294029D01*
X97125945Y-108106055D01*
X96937971Y-107945510D01*
X96727197Y-107816348D01*
X96727196Y-107816347D01*
X96727192Y-107816345D01*
X96499770Y-107722144D01*
X96498812Y-107721747D01*
X96498811Y-107721746D01*
X96498807Y-107721745D01*
X96258436Y-107664038D01*
X96258437Y-107664038D01*
X96012000Y-107644644D01*
X95765562Y-107664038D01*
X95525192Y-107721745D01*
X95296807Y-107816345D01*
X95086028Y-107945510D01*
X94898055Y-108106055D01*
X94737510Y-108294028D01*
X94608345Y-108504807D01*
X94513745Y-108733192D01*
X94456038Y-108973562D01*
X94436644Y-109220000D01*
X93284334Y-109220000D01*
X93284334Y-104246189D01*
X93304019Y-104179150D01*
X93356823Y-104133395D01*
X93425981Y-104123451D01*
X93489537Y-104152476D01*
G37*
G04 #@! TD.AperFunction*
G04 #@! TA.AperFunction,Conductor*
G36*
X118470327Y-123274265D02*
G01*
X118519887Y-123400541D01*
X118604465Y-123506599D01*
X118716547Y-123583016D01*
X118824299Y-123616253D01*
X118115201Y-124325351D01*
X118145649Y-124349050D01*
X118349697Y-124459476D01*
X118349706Y-124459479D01*
X118415943Y-124482219D01*
X118472958Y-124522604D01*
X118499089Y-124587404D01*
X118486038Y-124656044D01*
X118437949Y-124706732D01*
X118375680Y-124723500D01*
X117447277Y-124723500D01*
X117380238Y-124703815D01*
X117334483Y-124651011D01*
X117324539Y-124581853D01*
X117353564Y-124518297D01*
X117382179Y-124493962D01*
X117401556Y-124482009D01*
X117498252Y-124422366D01*
X117623366Y-124297252D01*
X117716255Y-124146658D01*
X117719176Y-124137845D01*
X117771172Y-123980926D01*
X117801197Y-123932247D01*
X118469549Y-123263895D01*
X118470327Y-123274265D01*
G37*
G04 #@! TD.AperFunction*
G04 #@! TA.AperFunction,Conductor*
G36*
X120065185Y-123970632D02*
G01*
X120075113Y-123955438D01*
X120128259Y-123910081D01*
X120197490Y-123900657D01*
X120260826Y-123930158D01*
X120282730Y-123955436D01*
X120292658Y-123970632D01*
X120338688Y-124041086D01*
X120482149Y-124196925D01*
X120496780Y-124212818D01*
X120680983Y-124356190D01*
X120680985Y-124356191D01*
X120680988Y-124356193D01*
X120800331Y-124420777D01*
X120886273Y-124467287D01*
X120908334Y-124474860D01*
X120929767Y-124482219D01*
X120986782Y-124522605D01*
X121012913Y-124587404D01*
X120999861Y-124656044D01*
X120951773Y-124706732D01*
X120889504Y-124723500D01*
X119452320Y-124723500D01*
X119385281Y-124703815D01*
X119339526Y-124651011D01*
X119329582Y-124581853D01*
X119358607Y-124518297D01*
X119412057Y-124482219D01*
X119478293Y-124459479D01*
X119478301Y-124459476D01*
X119682355Y-124349047D01*
X119712797Y-124325351D01*
X119712798Y-124325350D01*
X119002232Y-123614784D01*
X119048138Y-123607865D01*
X119170357Y-123549007D01*
X119269798Y-123456740D01*
X119337625Y-123339260D01*
X119355499Y-123260946D01*
X120065185Y-123970632D01*
G37*
G04 #@! TD.AperFunction*
G04 #@! TA.AperFunction,Conductor*
G36*
X112113832Y-116523952D02*
G01*
X112152071Y-116582428D01*
X112156903Y-116629113D01*
X112141798Y-116801768D01*
X112141798Y-116801772D01*
X112161752Y-117029852D01*
X112161753Y-117029860D01*
X112221010Y-117251009D01*
X112221014Y-117251020D01*
X112248535Y-117310038D01*
X112317773Y-117458520D01*
X112449098Y-117646071D01*
X112610996Y-117807969D01*
X112798547Y-117939294D01*
X112887635Y-117980836D01*
X113006046Y-118036052D01*
X113006048Y-118036052D01*
X113006053Y-118036055D01*
X113227209Y-118095314D01*
X113390128Y-118109567D01*
X113455294Y-118115269D01*
X113455296Y-118115269D01*
X113455298Y-118115269D01*
X113512317Y-118110280D01*
X113683383Y-118095314D01*
X113904539Y-118036055D01*
X114061620Y-117962807D01*
X114130693Y-117952316D01*
X114194477Y-117980836D01*
X114232717Y-118039312D01*
X114237549Y-118085997D01*
X114222444Y-118258652D01*
X114222444Y-118258656D01*
X114242398Y-118486736D01*
X114242399Y-118486744D01*
X114301656Y-118707893D01*
X114301660Y-118707904D01*
X114347436Y-118806070D01*
X114398419Y-118915404D01*
X114529744Y-119102955D01*
X114691642Y-119264853D01*
X114879193Y-119396178D01*
X115004033Y-119454391D01*
X115086692Y-119492936D01*
X115086694Y-119492936D01*
X115086699Y-119492939D01*
X115307855Y-119552198D01*
X115470774Y-119566451D01*
X115535940Y-119572153D01*
X115535942Y-119572153D01*
X115535944Y-119572153D01*
X115592963Y-119567164D01*
X115764029Y-119552198D01*
X115985185Y-119492939D01*
X116192691Y-119396178D01*
X116380242Y-119264853D01*
X116542140Y-119102955D01*
X116673465Y-118915404D01*
X116691064Y-118877661D01*
X116737235Y-118825223D01*
X116804428Y-118806070D01*
X116871310Y-118826285D01*
X116891127Y-118842385D01*
X119909185Y-121860443D01*
X119942670Y-121921766D01*
X119937686Y-121991458D01*
X119895814Y-122047391D01*
X119830350Y-122071808D01*
X119762077Y-122056956D01*
X119745342Y-122045977D01*
X119682355Y-121996952D01*
X119682351Y-121996949D01*
X119478302Y-121886523D01*
X119478293Y-121886520D01*
X119258860Y-121811188D01*
X119030007Y-121773000D01*
X118797993Y-121773000D01*
X118569139Y-121811188D01*
X118349706Y-121886520D01*
X118349697Y-121886523D01*
X118145650Y-121996949D01*
X118115200Y-122020647D01*
X118825768Y-122731215D01*
X118779862Y-122738135D01*
X118657643Y-122796993D01*
X118558202Y-122889260D01*
X118490375Y-123006740D01*
X118472500Y-123085054D01*
X117801196Y-122413750D01*
X117771171Y-122365071D01*
X117716257Y-122199346D01*
X117716255Y-122199342D01*
X117637590Y-122071808D01*
X117623366Y-122048748D01*
X117623365Y-122048747D01*
X117623364Y-122048745D01*
X117498254Y-121923635D01*
X117347657Y-121830744D01*
X117347655Y-121830743D01*
X117179703Y-121775091D01*
X117076044Y-121764500D01*
X117076037Y-121764500D01*
X116875505Y-121764500D01*
X116832056Y-121756639D01*
X115298367Y-121182860D01*
X115254135Y-121154402D01*
X110915908Y-116816175D01*
X110882423Y-116754852D01*
X110887407Y-116685160D01*
X110929279Y-116629227D01*
X110994743Y-116604810D01*
X111035678Y-116608718D01*
X111146562Y-116638430D01*
X111309481Y-116652683D01*
X111374647Y-116658385D01*
X111374649Y-116658385D01*
X111374651Y-116658385D01*
X111431670Y-116653396D01*
X111602736Y-116638430D01*
X111823892Y-116579171D01*
X111980972Y-116505923D01*
X112050048Y-116495432D01*
X112113832Y-116523952D01*
G37*
G04 #@! TD.AperFunction*
G04 #@! TA.AperFunction,Conductor*
G36*
X87154972Y-99037195D02*
G01*
X87193211Y-99095671D01*
X87198043Y-99142356D01*
X87182575Y-99319158D01*
X87182575Y-99319163D01*
X87202399Y-99545760D01*
X87202401Y-99545771D01*
X87261271Y-99765478D01*
X87261275Y-99765487D01*
X87357406Y-99971643D01*
X87487880Y-100157977D01*
X87550883Y-100220981D01*
X88100963Y-99435387D01*
X88102376Y-99444309D01*
X88159900Y-99557206D01*
X88249496Y-99646802D01*
X88362393Y-99704326D01*
X88456060Y-99719161D01*
X88512650Y-99719161D01*
X87960460Y-100507770D01*
X87960460Y-100507771D01*
X88041209Y-100545425D01*
X88041223Y-100545430D01*
X88260930Y-100604300D01*
X88260941Y-100604302D01*
X88487539Y-100624127D01*
X88487543Y-100624127D01*
X88714140Y-100604302D01*
X88714151Y-100604300D01*
X88933858Y-100545430D01*
X88933867Y-100545427D01*
X89094716Y-100470421D01*
X89163793Y-100459929D01*
X89227577Y-100488448D01*
X89265817Y-100546925D01*
X89270649Y-100593610D01*
X89254689Y-100776042D01*
X89254689Y-100776046D01*
X89274643Y-101004126D01*
X89274644Y-101004134D01*
X89333901Y-101225283D01*
X89333905Y-101225294D01*
X89430662Y-101432790D01*
X89430664Y-101432794D01*
X89561989Y-101620345D01*
X89723887Y-101782243D01*
X89911438Y-101913568D01*
X90000526Y-101955110D01*
X90118937Y-102010326D01*
X90118939Y-102010326D01*
X90118944Y-102010329D01*
X90340100Y-102069588D01*
X90503019Y-102083841D01*
X90568185Y-102089543D01*
X90568187Y-102089543D01*
X90568189Y-102089543D01*
X90625208Y-102084554D01*
X90796274Y-102069588D01*
X91017430Y-102010329D01*
X91174510Y-101937081D01*
X91243586Y-101926590D01*
X91307370Y-101955110D01*
X91345609Y-102013586D01*
X91350441Y-102060271D01*
X91335336Y-102232927D01*
X91335336Y-102232931D01*
X91355290Y-102461011D01*
X91355291Y-102461019D01*
X91414549Y-102682171D01*
X91438233Y-102732964D01*
X91444344Y-102748827D01*
X91450799Y-102769761D01*
X91450804Y-102769775D01*
X91804664Y-103517755D01*
X91993968Y-103917901D01*
X92001423Y-103933658D01*
X92013334Y-103986686D01*
X92013334Y-108802980D01*
X91993649Y-108870019D01*
X91940845Y-108915774D01*
X91871687Y-108925718D01*
X91836930Y-108915362D01*
X91780783Y-108889180D01*
X91780772Y-108889176D01*
X91573144Y-108833542D01*
X91573136Y-108833541D01*
X91359002Y-108814807D01*
X91358998Y-108814807D01*
X91144863Y-108833541D01*
X91144855Y-108833542D01*
X90937227Y-108889176D01*
X90937221Y-108889179D01*
X90742405Y-108980023D01*
X90742403Y-108980024D01*
X90566316Y-109103320D01*
X90414320Y-109255316D01*
X90291024Y-109431403D01*
X90291023Y-109431405D01*
X90200179Y-109626221D01*
X90200176Y-109626227D01*
X90144542Y-109833855D01*
X90144541Y-109833863D01*
X90125807Y-110047998D01*
X90125807Y-110048001D01*
X90144541Y-110262136D01*
X90144542Y-110262144D01*
X90200176Y-110469772D01*
X90200179Y-110469779D01*
X90220401Y-110513147D01*
X90226834Y-110530071D01*
X90232786Y-110550006D01*
X90534270Y-111202315D01*
X90686816Y-111532373D01*
X90712059Y-111586989D01*
X90723500Y-111639012D01*
X90723500Y-114828405D01*
X90703815Y-114895444D01*
X90687181Y-114916086D01*
X89800812Y-115802454D01*
X89756236Y-115831040D01*
X88745406Y-116205797D01*
X88744138Y-116206201D01*
X88744140Y-116206207D01*
X88739094Y-116208042D01*
X88739090Y-116208044D01*
X88739085Y-116208045D01*
X88735881Y-116209212D01*
X88733401Y-116210247D01*
X88719029Y-116215576D01*
X88709585Y-116219182D01*
X88709274Y-116219304D01*
X88651608Y-116246205D01*
X88646158Y-116249464D01*
X88646104Y-116249374D01*
X88630670Y-116258599D01*
X88547443Y-116297409D01*
X88547440Y-116297411D01*
X88374222Y-116418699D01*
X88224700Y-116568221D01*
X88103411Y-116741441D01*
X88103410Y-116741443D01*
X88014045Y-116933088D01*
X88014041Y-116933097D01*
X87989704Y-117023927D01*
X87953339Y-117083588D01*
X87890492Y-117114117D01*
X87821116Y-117105822D01*
X87782248Y-117079515D01*
X85897714Y-115194981D01*
X85864229Y-115133658D01*
X85861395Y-115107300D01*
X85861395Y-112588001D01*
X87585807Y-112588001D01*
X87604541Y-112802136D01*
X87604542Y-112802144D01*
X87660176Y-113009772D01*
X87660177Y-113009774D01*
X87660178Y-113009777D01*
X87719433Y-113136849D01*
X87751024Y-113204597D01*
X87751026Y-113204601D01*
X87874319Y-113380682D01*
X88026317Y-113532680D01*
X88202398Y-113655973D01*
X88202400Y-113655974D01*
X88202403Y-113655976D01*
X88397223Y-113746822D01*
X88604858Y-113802458D01*
X88757816Y-113815840D01*
X88818998Y-113821193D01*
X88819000Y-113821193D01*
X88819002Y-113821193D01*
X88879019Y-113815942D01*
X89033142Y-113802458D01*
X89240777Y-113746822D01*
X89435597Y-113655976D01*
X89611681Y-113532681D01*
X89763681Y-113380681D01*
X89886976Y-113204597D01*
X89977822Y-113009777D01*
X90033458Y-112802142D01*
X90052193Y-112588000D01*
X90049516Y-112557407D01*
X90042627Y-112478660D01*
X90033458Y-112373858D01*
X89977822Y-112166223D01*
X89886976Y-111971404D01*
X89779936Y-111818534D01*
X89763679Y-111795316D01*
X89611682Y-111643319D01*
X89435601Y-111520026D01*
X89435597Y-111520024D01*
X89418647Y-111512120D01*
X89240777Y-111429178D01*
X89240774Y-111429177D01*
X89240772Y-111429176D01*
X89033144Y-111373542D01*
X89033136Y-111373541D01*
X88819002Y-111354807D01*
X88818998Y-111354807D01*
X88604863Y-111373541D01*
X88604855Y-111373542D01*
X88397227Y-111429176D01*
X88397221Y-111429179D01*
X88202405Y-111520023D01*
X88202403Y-111520024D01*
X88026316Y-111643320D01*
X87874320Y-111795316D01*
X87751024Y-111971403D01*
X87751023Y-111971405D01*
X87660179Y-112166221D01*
X87660176Y-112166227D01*
X87604542Y-112373855D01*
X87604541Y-112373863D01*
X87585807Y-112587998D01*
X87585807Y-112588001D01*
X85861395Y-112588001D01*
X85861395Y-107508001D01*
X87585807Y-107508001D01*
X87604541Y-107722136D01*
X87604542Y-107722144D01*
X87660176Y-107929772D01*
X87660177Y-107929774D01*
X87660178Y-107929777D01*
X87721118Y-108060464D01*
X87751024Y-108124597D01*
X87751026Y-108124601D01*
X87874319Y-108300682D01*
X88026317Y-108452680D01*
X88202398Y-108575973D01*
X88202400Y-108575974D01*
X88202403Y-108575976D01*
X88397223Y-108666822D01*
X88604858Y-108722458D01*
X88757816Y-108735840D01*
X88818998Y-108741193D01*
X88819000Y-108741193D01*
X88819002Y-108741193D01*
X88872535Y-108736509D01*
X89033142Y-108722458D01*
X89240777Y-108666822D01*
X89435597Y-108575976D01*
X89611681Y-108452681D01*
X89763681Y-108300681D01*
X89886976Y-108124597D01*
X89977822Y-107929777D01*
X90033458Y-107722142D01*
X90052193Y-107508000D01*
X90033458Y-107293858D01*
X89977822Y-107086223D01*
X89886976Y-106891404D01*
X89784396Y-106744903D01*
X89763679Y-106715316D01*
X89611682Y-106563319D01*
X89435601Y-106440026D01*
X89435597Y-106440024D01*
X89417371Y-106431525D01*
X89240777Y-106349178D01*
X89240774Y-106349177D01*
X89240772Y-106349176D01*
X89033144Y-106293542D01*
X89033136Y-106293541D01*
X88819002Y-106274807D01*
X88818998Y-106274807D01*
X88604863Y-106293541D01*
X88604855Y-106293542D01*
X88397227Y-106349176D01*
X88397221Y-106349179D01*
X88202405Y-106440023D01*
X88202403Y-106440024D01*
X88026316Y-106563320D01*
X87874320Y-106715316D01*
X87751024Y-106891403D01*
X87751023Y-106891405D01*
X87660179Y-107086221D01*
X87660176Y-107086227D01*
X87604542Y-107293855D01*
X87604541Y-107293863D01*
X87585807Y-107507998D01*
X87585807Y-107508001D01*
X85861395Y-107508001D01*
X85861395Y-99232368D01*
X85881080Y-99165329D01*
X85933884Y-99119574D01*
X86003042Y-99109630D01*
X86017466Y-99112588D01*
X86178808Y-99155820D01*
X86341727Y-99170073D01*
X86406893Y-99175775D01*
X86406895Y-99175775D01*
X86406897Y-99175775D01*
X86463916Y-99170786D01*
X86634982Y-99155820D01*
X86856138Y-99096561D01*
X87022111Y-99019166D01*
X87091188Y-99008675D01*
X87154972Y-99037195D01*
G37*
G04 #@! TD.AperFunction*
G04 #@! TA.AperFunction,Conductor*
G36*
X152665671Y-76749153D02*
G01*
X152662408Y-76750674D01*
X152677362Y-76781427D01*
X152679087Y-76802039D01*
X152679087Y-111264479D01*
X152659402Y-111331518D01*
X152606598Y-111377273D01*
X152537440Y-111387217D01*
X152502682Y-111376861D01*
X151563690Y-110939002D01*
X151556326Y-110936486D01*
X151506044Y-110919306D01*
X151360279Y-110907717D01*
X151217162Y-110937664D01*
X151217150Y-110937669D01*
X151088274Y-111006719D01*
X151088271Y-111006720D01*
X150984057Y-111109293D01*
X150952561Y-111161429D01*
X150193002Y-112790309D01*
X150173306Y-112847956D01*
X150161717Y-112993720D01*
X150191664Y-113136837D01*
X150191669Y-113136849D01*
X150259161Y-113262817D01*
X150260722Y-113265730D01*
X150295941Y-113301512D01*
X150351587Y-113358049D01*
X150384584Y-113419636D01*
X150379046Y-113489286D01*
X150336732Y-113544885D01*
X150303475Y-113562312D01*
X150182980Y-113603678D01*
X150182969Y-113603683D01*
X149984977Y-113710830D01*
X149984972Y-113710834D01*
X149807311Y-113849114D01*
X149807306Y-113849119D01*
X149654834Y-114014745D01*
X149654826Y-114014756D01*
X149531690Y-114203229D01*
X149441253Y-114409407D01*
X149385986Y-114627650D01*
X149385984Y-114627662D01*
X149367394Y-114852016D01*
X149367394Y-114852027D01*
X149385984Y-115076381D01*
X149385986Y-115076393D01*
X149441253Y-115294636D01*
X149485189Y-115394802D01*
X149531690Y-115500813D01*
X149602772Y-115609613D01*
X149622959Y-115676501D01*
X149603779Y-115743686D01*
X149551321Y-115789837D01*
X149519373Y-115799742D01*
X149322460Y-115832600D01*
X149109529Y-115905700D01*
X149109518Y-115905705D01*
X148911528Y-116012851D01*
X148911526Y-116012852D01*
X148855832Y-116056201D01*
X148809991Y-116091880D01*
X148800520Y-116098565D01*
X148488776Y-116297411D01*
X147870729Y-116691632D01*
X147868515Y-116693044D01*
X147801832Y-116712500D01*
X138934229Y-116712500D01*
X138882496Y-116701193D01*
X138882487Y-116701189D01*
X138428821Y-116492927D01*
X137877149Y-116239674D01*
X137877109Y-116239656D01*
X137868147Y-116235645D01*
X137867787Y-116235488D01*
X137850746Y-116229285D01*
X137827189Y-116220710D01*
X137817204Y-116216574D01*
X137798910Y-116208044D01*
X137798906Y-116208043D01*
X137740584Y-116192415D01*
X137680925Y-116156051D01*
X137650396Y-116093204D01*
X137658691Y-116023828D01*
X137703176Y-115969950D01*
X137740587Y-115952866D01*
X137758900Y-115947959D01*
X137758901Y-115947958D01*
X137758910Y-115947956D01*
X137950558Y-115858589D01*
X138123776Y-115737301D01*
X138273301Y-115587776D01*
X138394589Y-115414558D01*
X138483956Y-115222910D01*
X138538686Y-115018655D01*
X138556929Y-114810136D01*
X138557116Y-114808001D01*
X138557116Y-114807998D01*
X138548334Y-114707621D01*
X138538686Y-114597345D01*
X138483956Y-114393090D01*
X138394589Y-114201442D01*
X138379310Y-114179622D01*
X138356984Y-114113417D01*
X138373994Y-114045649D01*
X138424943Y-113997837D01*
X138480886Y-113984500D01*
X138871152Y-113984500D01*
X138886931Y-113986241D01*
X138886957Y-113985974D01*
X138894710Y-113986706D01*
X138894718Y-113986708D01*
X138963043Y-113984561D01*
X138966938Y-113984500D01*
X138994976Y-113984500D01*
X138994982Y-113984500D01*
X138999121Y-113983976D01*
X139010752Y-113983061D01*
X139055204Y-113981665D01*
X139074905Y-113975940D01*
X139093950Y-113971997D01*
X139114298Y-113969427D01*
X139155658Y-113953051D01*
X139166659Y-113949283D01*
X139209392Y-113936869D01*
X139227053Y-113926423D01*
X139244511Y-113917871D01*
X139263587Y-113910319D01*
X139299567Y-113884177D01*
X139309314Y-113877774D01*
X139347597Y-113855134D01*
X139362093Y-113840637D01*
X139376891Y-113827998D01*
X139393486Y-113815942D01*
X139421834Y-113781673D01*
X139429686Y-113773043D01*
X141202074Y-112000655D01*
X141214458Y-111990737D01*
X141214286Y-111990529D01*
X141220294Y-111985557D01*
X141220303Y-111985552D01*
X141267103Y-111935713D01*
X141269783Y-111932947D01*
X141289639Y-111913093D01*
X141292192Y-111909800D01*
X141299774Y-111900922D01*
X141330217Y-111868505D01*
X141340094Y-111850536D01*
X141350779Y-111834271D01*
X141363350Y-111818066D01*
X141381019Y-111777233D01*
X141386145Y-111766769D01*
X141407569Y-111727802D01*
X141412670Y-111707929D01*
X141418969Y-111689533D01*
X141427117Y-111670707D01*
X141434072Y-111626786D01*
X141436442Y-111615346D01*
X141443723Y-111586989D01*
X141447500Y-111572281D01*
X141447500Y-111551773D01*
X141449027Y-111532373D01*
X141452235Y-111512120D01*
X141448050Y-111467847D01*
X141447500Y-111456178D01*
X141447500Y-101164406D01*
X141467185Y-101097367D01*
X141483814Y-101076729D01*
X142408816Y-100151727D01*
X142470137Y-100118244D01*
X142539828Y-100123228D01*
X142595762Y-100165100D01*
X142608877Y-100187005D01*
X142626476Y-100224748D01*
X142639318Y-100243088D01*
X142757802Y-100412300D01*
X142919700Y-100574198D01*
X143107251Y-100705523D01*
X143160401Y-100730307D01*
X143212840Y-100776479D01*
X143231992Y-100843673D01*
X143211776Y-100910554D01*
X143160401Y-100955071D01*
X143111517Y-100977865D01*
X142925179Y-101108342D01*
X142764342Y-101269179D01*
X142633865Y-101455517D01*
X142537734Y-101661673D01*
X142537730Y-101661682D01*
X142485127Y-101857999D01*
X142485128Y-101858000D01*
X143448314Y-101858000D01*
X143436359Y-101869955D01*
X143378835Y-101982852D01*
X143359014Y-102108000D01*
X143378835Y-102233148D01*
X143436359Y-102346045D01*
X143448314Y-102358000D01*
X142485128Y-102358000D01*
X142537730Y-102554317D01*
X142537734Y-102554326D01*
X142633865Y-102760482D01*
X142764342Y-102946820D01*
X142925179Y-103107657D01*
X143111517Y-103238134D01*
X143317673Y-103334265D01*
X143317682Y-103334269D01*
X143513999Y-103386872D01*
X143514000Y-103386871D01*
X143514000Y-102423686D01*
X143525955Y-102435641D01*
X143638852Y-102493165D01*
X143732519Y-102508000D01*
X143795481Y-102508000D01*
X143889148Y-102493165D01*
X144002045Y-102435641D01*
X144014000Y-102423686D01*
X144014000Y-103386872D01*
X144210317Y-103334269D01*
X144210326Y-103334265D01*
X144416482Y-103238134D01*
X144602820Y-103107657D01*
X144763657Y-102946820D01*
X144894134Y-102760482D01*
X144990265Y-102554326D01*
X144990269Y-102554317D01*
X145042872Y-102358000D01*
X144079686Y-102358000D01*
X144091641Y-102346045D01*
X144149165Y-102233148D01*
X144168986Y-102108000D01*
X144149165Y-101982852D01*
X144091641Y-101869955D01*
X144079686Y-101858000D01*
X145042872Y-101858000D01*
X145042872Y-101857999D01*
X144990269Y-101661682D01*
X144990265Y-101661673D01*
X144894134Y-101455517D01*
X144763657Y-101269179D01*
X144602820Y-101108342D01*
X144416481Y-100977865D01*
X144416479Y-100977864D01*
X144367599Y-100955071D01*
X144315159Y-100908899D01*
X144296007Y-100841706D01*
X144316223Y-100774824D01*
X144367599Y-100730307D01*
X144420749Y-100705523D01*
X144608300Y-100574198D01*
X144770198Y-100412300D01*
X144901523Y-100224749D01*
X144998284Y-100017243D01*
X145057543Y-99796087D01*
X145077498Y-99568000D01*
X145073667Y-99524217D01*
X145057543Y-99339918D01*
X145057543Y-99339913D01*
X144998284Y-99118757D01*
X144987934Y-99096562D01*
X144937821Y-98989093D01*
X144901523Y-98911251D01*
X144848417Y-98835408D01*
X144826091Y-98769204D01*
X144843101Y-98701436D01*
X144862308Y-98676609D01*
X145335072Y-98203845D01*
X145347461Y-98193922D01*
X145347289Y-98193715D01*
X145353298Y-98188742D01*
X145353303Y-98188740D01*
X145400149Y-98138852D01*
X145402798Y-98136119D01*
X145422638Y-98116281D01*
X145425183Y-98113000D01*
X145432776Y-98104109D01*
X145463217Y-98071693D01*
X145473102Y-98053711D01*
X145483773Y-98037465D01*
X145496349Y-98021254D01*
X145514011Y-97980437D01*
X145519142Y-97969963D01*
X145540569Y-97930990D01*
X145545670Y-97911118D01*
X145551973Y-97892713D01*
X145560117Y-97873895D01*
X145567075Y-97829958D01*
X145569442Y-97818532D01*
X145580500Y-97775469D01*
X145580500Y-97754961D01*
X145582027Y-97735561D01*
X145585235Y-97715308D01*
X145582864Y-97690222D01*
X145581050Y-97671035D01*
X145580500Y-97659366D01*
X145580500Y-89481594D01*
X145600185Y-89414555D01*
X145616819Y-89393913D01*
X146561897Y-88448835D01*
X147515021Y-87495710D01*
X147576342Y-87462227D01*
X147646034Y-87467211D01*
X147701967Y-87509083D01*
X147726384Y-87574547D01*
X147715082Y-87635797D01*
X147637735Y-87801668D01*
X147637730Y-87801682D01*
X147578860Y-88021389D01*
X147578858Y-88021400D01*
X147559034Y-88247997D01*
X147559034Y-88248002D01*
X147578858Y-88474599D01*
X147578860Y-88474610D01*
X147637730Y-88694317D01*
X147637735Y-88694331D01*
X147733863Y-88900478D01*
X147784974Y-88973472D01*
X148466046Y-88292400D01*
X148478835Y-88373148D01*
X148536359Y-88486045D01*
X148625955Y-88575641D01*
X148738852Y-88633165D01*
X148819597Y-88645953D01*
X148138526Y-89327025D01*
X148211513Y-89378132D01*
X148211521Y-89378136D01*
X148417668Y-89474264D01*
X148417682Y-89474269D01*
X148637389Y-89533139D01*
X148637400Y-89533141D01*
X148863998Y-89552966D01*
X148864002Y-89552966D01*
X149090599Y-89533141D01*
X149090606Y-89533140D01*
X149253406Y-89489517D01*
X149323256Y-89491180D01*
X149381118Y-89530342D01*
X149408623Y-89594570D01*
X149409500Y-89609292D01*
X149409500Y-90834081D01*
X149389815Y-90901120D01*
X149337011Y-90946875D01*
X149267853Y-90956819D01*
X149204297Y-90927794D01*
X149200008Y-90923633D01*
X149199990Y-90923653D01*
X149196225Y-90920187D01*
X149196220Y-90920182D01*
X149012017Y-90776810D01*
X149012015Y-90776809D01*
X149012014Y-90776808D01*
X149012011Y-90776806D01*
X148806733Y-90665716D01*
X148806730Y-90665715D01*
X148806727Y-90665713D01*
X148806721Y-90665711D01*
X148806719Y-90665710D01*
X148585954Y-90589920D01*
X148407081Y-90560072D01*
X148355712Y-90551500D01*
X148122288Y-90551500D01*
X148076240Y-90559184D01*
X147892045Y-90589920D01*
X147671280Y-90665710D01*
X147671266Y-90665716D01*
X147465988Y-90776806D01*
X147465985Y-90776808D01*
X147281781Y-90920181D01*
X147281776Y-90920185D01*
X147123686Y-91091915D01*
X146996015Y-91287331D01*
X146902251Y-91501092D01*
X146844948Y-91727377D01*
X146825673Y-91959994D01*
X146825673Y-91960005D01*
X146844948Y-92192622D01*
X146902251Y-92418907D01*
X146996015Y-92632668D01*
X147123686Y-92828084D01*
X147281776Y-92999814D01*
X147281780Y-92999818D01*
X147458711Y-93137530D01*
X147458714Y-93137532D01*
X147499527Y-93194242D01*
X147503201Y-93264015D01*
X147468569Y-93324698D01*
X147458712Y-93333239D01*
X147440201Y-93347646D01*
X147440200Y-93347647D01*
X148150769Y-94058215D01*
X148104862Y-94065135D01*
X147982643Y-94123993D01*
X147883202Y-94216260D01*
X147815375Y-94333740D01*
X147797500Y-94412054D01*
X147087811Y-93702365D01*
X147003516Y-93831390D01*
X146910317Y-94043864D01*
X146853361Y-94268781D01*
X146834202Y-94499994D01*
X146834202Y-94500005D01*
X146853361Y-94731218D01*
X146910317Y-94956135D01*
X147003515Y-95168606D01*
X147087812Y-95297633D01*
X147794549Y-94590895D01*
X147795327Y-94601265D01*
X147844887Y-94727541D01*
X147929465Y-94833599D01*
X148041547Y-94910016D01*
X148149299Y-94943253D01*
X147479749Y-95612803D01*
X147431071Y-95642828D01*
X147265344Y-95697743D01*
X147265342Y-95697744D01*
X147114745Y-95790635D01*
X146989635Y-95915745D01*
X146896744Y-96066342D01*
X146896743Y-96066344D01*
X146841091Y-96234295D01*
X146841091Y-96234296D01*
X146830500Y-96337955D01*
X146830500Y-97742030D01*
X146830501Y-97742045D01*
X146841091Y-97845703D01*
X146896743Y-98013655D01*
X146896744Y-98013657D01*
X146989635Y-98164254D01*
X147114745Y-98289364D01*
X147265342Y-98382255D01*
X147265344Y-98382256D01*
X147371221Y-98417339D01*
X147433299Y-98437909D01*
X147536963Y-98448500D01*
X147745413Y-98448499D01*
X147812452Y-98468183D01*
X147858207Y-98520987D01*
X147868151Y-98590145D01*
X147849222Y-98640320D01*
X147761015Y-98775331D01*
X147667251Y-98989092D01*
X147609948Y-99215377D01*
X147590673Y-99447994D01*
X147590673Y-99448005D01*
X147609948Y-99680622D01*
X147667251Y-99906907D01*
X147761015Y-100120668D01*
X147888686Y-100316084D01*
X147975856Y-100410775D01*
X148006779Y-100473429D01*
X147998919Y-100542855D01*
X147954772Y-100597011D01*
X147927963Y-100610939D01*
X147857794Y-100637111D01*
X147740739Y-100724739D01*
X147653111Y-100841795D01*
X147602011Y-100978795D01*
X147602011Y-100978797D01*
X147595500Y-101039345D01*
X147595500Y-102936654D01*
X147602011Y-102997202D01*
X147602011Y-102997204D01*
X147643209Y-103107657D01*
X147653111Y-103134204D01*
X147740739Y-103251261D01*
X147857796Y-103338889D01*
X147994799Y-103389989D01*
X148022050Y-103392918D01*
X148055345Y-103396499D01*
X148055362Y-103396500D01*
X149952638Y-103396500D01*
X149952654Y-103396499D01*
X149979692Y-103393591D01*
X150013201Y-103389989D01*
X150150204Y-103338889D01*
X150267261Y-103251261D01*
X150354889Y-103134204D01*
X150405989Y-102997201D01*
X150410816Y-102952304D01*
X150412499Y-102936654D01*
X150412500Y-102936637D01*
X150412500Y-101039362D01*
X150412499Y-101039345D01*
X150408123Y-100998648D01*
X150405989Y-100978799D01*
X150405640Y-100977864D01*
X150378168Y-100904210D01*
X150354889Y-100841796D01*
X150267261Y-100724739D01*
X150150204Y-100637111D01*
X150080037Y-100610939D01*
X150024104Y-100569067D01*
X149999688Y-100503602D01*
X150014541Y-100435329D01*
X150032138Y-100410780D01*
X150119314Y-100316083D01*
X150246984Y-100120669D01*
X150340749Y-99906907D01*
X150398051Y-99680626D01*
X150409480Y-99542691D01*
X150411362Y-99529138D01*
X150550393Y-98819039D01*
X150563416Y-98783143D01*
X150573102Y-98765524D01*
X150583773Y-98749278D01*
X150596349Y-98733067D01*
X150614011Y-98692250D01*
X150619142Y-98681776D01*
X150640569Y-98642803D01*
X150645670Y-98622931D01*
X150651973Y-98604526D01*
X150660117Y-98585708D01*
X150667075Y-98541771D01*
X150669442Y-98530345D01*
X150671845Y-98520987D01*
X150680500Y-98487282D01*
X150680500Y-98466774D01*
X150682027Y-98447374D01*
X150684703Y-98430477D01*
X150685235Y-98427121D01*
X150681050Y-98382848D01*
X150680500Y-98371179D01*
X150680500Y-98145240D01*
X150680593Y-98141191D01*
X150680502Y-98123784D01*
X150680500Y-98123134D01*
X150680500Y-76635064D01*
X150700185Y-76568025D01*
X150752989Y-76522270D01*
X150822147Y-76512326D01*
X150885703Y-76541351D01*
X150892181Y-76547383D01*
X150982868Y-76638070D01*
X151176372Y-76773565D01*
X151390458Y-76873394D01*
X151390467Y-76873398D01*
X151618624Y-76934532D01*
X151618635Y-76934534D01*
X151853949Y-76955122D01*
X151853953Y-76955122D01*
X152089271Y-76934533D01*
X152188080Y-76908057D01*
X151810761Y-76098897D01*
X151818188Y-76099965D01*
X151889714Y-76099965D01*
X151996266Y-76084645D01*
X152127051Y-76024917D01*
X152235712Y-75930763D01*
X152263723Y-75887175D01*
X152665671Y-76749153D01*
G37*
G04 #@! TD.AperFunction*
G04 #@! TA.AperFunction,Conductor*
G36*
X99633334Y-73671911D02*
G01*
X99689267Y-73713783D01*
X99713684Y-73779247D01*
X99714000Y-73788093D01*
X99714000Y-74545844D01*
X99720401Y-74605372D01*
X99720403Y-74605379D01*
X99770645Y-74740086D01*
X99770649Y-74740093D01*
X99856809Y-74855187D01*
X99856812Y-74855190D01*
X99971906Y-74941350D01*
X99971913Y-74941354D01*
X100091810Y-74986073D01*
X100147744Y-75027944D01*
X100172161Y-75093409D01*
X100157309Y-75161682D01*
X100139706Y-75186238D01*
X99988284Y-75350723D01*
X99988276Y-75350734D01*
X99865140Y-75539207D01*
X99774703Y-75745385D01*
X99719436Y-75963628D01*
X99719434Y-75963640D01*
X99700844Y-76187994D01*
X99700844Y-76188005D01*
X99719434Y-76412359D01*
X99719436Y-76412371D01*
X99774703Y-76630614D01*
X99865140Y-76836792D01*
X99988276Y-77025265D01*
X99988284Y-77025276D01*
X100140756Y-77190902D01*
X100140760Y-77190906D01*
X100318424Y-77329189D01*
X100318425Y-77329189D01*
X100318427Y-77329191D01*
X100390499Y-77368194D01*
X100516426Y-77436342D01*
X100729365Y-77509444D01*
X100951431Y-77546500D01*
X101176569Y-77546500D01*
X101398635Y-77509444D01*
X101611574Y-77436342D01*
X101809576Y-77329189D01*
X101987240Y-77190906D01*
X102139722Y-77025268D01*
X102230193Y-76886790D01*
X102283338Y-76841437D01*
X102352569Y-76832013D01*
X102415905Y-76861515D01*
X102437804Y-76886787D01*
X102528278Y-77025268D01*
X102528283Y-77025273D01*
X102528284Y-77025276D01*
X102680756Y-77190902D01*
X102680760Y-77190906D01*
X102858424Y-77329189D01*
X102858425Y-77329189D01*
X102858427Y-77329191D01*
X102930499Y-77368194D01*
X103056426Y-77436342D01*
X103269365Y-77509444D01*
X103491431Y-77546500D01*
X103716569Y-77546500D01*
X103938635Y-77509444D01*
X104151574Y-77436342D01*
X104349576Y-77329189D01*
X104527240Y-77190906D01*
X104679722Y-77025268D01*
X104770193Y-76886790D01*
X104823338Y-76841437D01*
X104892569Y-76832013D01*
X104955905Y-76861515D01*
X104977804Y-76886787D01*
X105068278Y-77025268D01*
X105068283Y-77025273D01*
X105068284Y-77025276D01*
X105220756Y-77190902D01*
X105220760Y-77190906D01*
X105398424Y-77329189D01*
X105398425Y-77329189D01*
X105398427Y-77329191D01*
X105470499Y-77368194D01*
X105596426Y-77436342D01*
X105809365Y-77509444D01*
X106031431Y-77546500D01*
X106256569Y-77546500D01*
X106478635Y-77509444D01*
X106691574Y-77436342D01*
X106889576Y-77329189D01*
X107067240Y-77190906D01*
X107219722Y-77025268D01*
X107310193Y-76886790D01*
X107363338Y-76841437D01*
X107432569Y-76832013D01*
X107495905Y-76861515D01*
X107517804Y-76886787D01*
X107608278Y-77025268D01*
X107608283Y-77025273D01*
X107608284Y-77025276D01*
X107760756Y-77190902D01*
X107760760Y-77190906D01*
X107938424Y-77329189D01*
X107938425Y-77329189D01*
X107938427Y-77329191D01*
X108010499Y-77368194D01*
X108136426Y-77436342D01*
X108349365Y-77509444D01*
X108571431Y-77546500D01*
X108796569Y-77546500D01*
X109018635Y-77509444D01*
X109231574Y-77436342D01*
X109429576Y-77329189D01*
X109607240Y-77190906D01*
X109759722Y-77025268D01*
X109850193Y-76886790D01*
X109903338Y-76841437D01*
X109972569Y-76832013D01*
X110035905Y-76861515D01*
X110057804Y-76886787D01*
X110148278Y-77025268D01*
X110148283Y-77025273D01*
X110148284Y-77025276D01*
X110300756Y-77190902D01*
X110300760Y-77190906D01*
X110478424Y-77329189D01*
X110478425Y-77329189D01*
X110478427Y-77329191D01*
X110550499Y-77368194D01*
X110676426Y-77436342D01*
X110889365Y-77509444D01*
X111111431Y-77546500D01*
X111336569Y-77546500D01*
X111558635Y-77509444D01*
X111771574Y-77436342D01*
X111969576Y-77329189D01*
X112147240Y-77190906D01*
X112299722Y-77025268D01*
X112390193Y-76886790D01*
X112443338Y-76841437D01*
X112512569Y-76832013D01*
X112575905Y-76861515D01*
X112597804Y-76886787D01*
X112688278Y-77025268D01*
X112688283Y-77025273D01*
X112688284Y-77025276D01*
X112840756Y-77190902D01*
X112840760Y-77190906D01*
X113018424Y-77329189D01*
X113018425Y-77329189D01*
X113018427Y-77329191D01*
X113090499Y-77368194D01*
X113216426Y-77436342D01*
X113429365Y-77509444D01*
X113651431Y-77546500D01*
X113876569Y-77546500D01*
X114098635Y-77509444D01*
X114311574Y-77436342D01*
X114509576Y-77329189D01*
X114687240Y-77190906D01*
X114839722Y-77025268D01*
X114930193Y-76886790D01*
X114983338Y-76841437D01*
X115052569Y-76832013D01*
X115115905Y-76861515D01*
X115137804Y-76886787D01*
X115228278Y-77025268D01*
X115228283Y-77025273D01*
X115228284Y-77025276D01*
X115380756Y-77190902D01*
X115380760Y-77190906D01*
X115558424Y-77329189D01*
X115558425Y-77329189D01*
X115558427Y-77329191D01*
X115630499Y-77368194D01*
X115756426Y-77436342D01*
X115969365Y-77509444D01*
X116191431Y-77546500D01*
X116416569Y-77546500D01*
X116638635Y-77509444D01*
X116851574Y-77436342D01*
X117049576Y-77329189D01*
X117227240Y-77190906D01*
X117379722Y-77025268D01*
X117470193Y-76886790D01*
X117523338Y-76841437D01*
X117592569Y-76832013D01*
X117655905Y-76861515D01*
X117677804Y-76886787D01*
X117768278Y-77025268D01*
X117768283Y-77025273D01*
X117768284Y-77025276D01*
X117920756Y-77190902D01*
X117920760Y-77190906D01*
X118098424Y-77329189D01*
X118098425Y-77329189D01*
X118098427Y-77329191D01*
X118170499Y-77368194D01*
X118296426Y-77436342D01*
X118509365Y-77509444D01*
X118731431Y-77546500D01*
X118956569Y-77546500D01*
X119178635Y-77509444D01*
X119391574Y-77436342D01*
X119589576Y-77329189D01*
X119767240Y-77190906D01*
X119919722Y-77025268D01*
X120010193Y-76886790D01*
X120063338Y-76841437D01*
X120132569Y-76832013D01*
X120195905Y-76861515D01*
X120217804Y-76886787D01*
X120308278Y-77025268D01*
X120308283Y-77025273D01*
X120308284Y-77025276D01*
X120460756Y-77190902D01*
X120460760Y-77190906D01*
X120638424Y-77329189D01*
X120638425Y-77329189D01*
X120638427Y-77329191D01*
X120710499Y-77368194D01*
X120836426Y-77436342D01*
X121049365Y-77509444D01*
X121271431Y-77546500D01*
X121496569Y-77546500D01*
X121718635Y-77509444D01*
X121893237Y-77449502D01*
X121963035Y-77446353D01*
X122023457Y-77481439D01*
X122055317Y-77543622D01*
X122057500Y-77566784D01*
X122057500Y-94923151D01*
X122055758Y-94938927D01*
X122056026Y-94938953D01*
X122055292Y-94946718D01*
X122057439Y-95015043D01*
X122057500Y-95018938D01*
X122057500Y-95046982D01*
X122058022Y-95051118D01*
X122058937Y-95062749D01*
X122060334Y-95107203D01*
X122060335Y-95107207D01*
X122066057Y-95126905D01*
X122070000Y-95145946D01*
X122072571Y-95166288D01*
X122072574Y-95166303D01*
X122088941Y-95207644D01*
X122092722Y-95218687D01*
X122103921Y-95257229D01*
X122105131Y-95261393D01*
X122112859Y-95274461D01*
X122115570Y-95279044D01*
X122124128Y-95296514D01*
X122131679Y-95315585D01*
X122131683Y-95315592D01*
X122157824Y-95351572D01*
X122164231Y-95361325D01*
X122186866Y-95399598D01*
X122186870Y-95399602D01*
X122201363Y-95414095D01*
X122214001Y-95428892D01*
X122226057Y-95445487D01*
X122260325Y-95473835D01*
X122268966Y-95481698D01*
X127539404Y-100752136D01*
X127566726Y-100793446D01*
X127778754Y-101319285D01*
X127785568Y-101388821D01*
X127753706Y-101451003D01*
X127693284Y-101486088D01*
X127623485Y-101482936D01*
X127576070Y-101453337D01*
X115757595Y-89634862D01*
X115747669Y-89622472D01*
X115747462Y-89622644D01*
X115742489Y-89616633D01*
X115692655Y-89569836D01*
X115689855Y-89567122D01*
X115670035Y-89547302D01*
X115670031Y-89547298D01*
X115666733Y-89544740D01*
X115657852Y-89537154D01*
X115625446Y-89506722D01*
X115625438Y-89506717D01*
X115607477Y-89496843D01*
X115591211Y-89486159D01*
X115575876Y-89474264D01*
X115575004Y-89473587D01*
X115575003Y-89473586D01*
X115575001Y-89473585D01*
X115534189Y-89455924D01*
X115523700Y-89450786D01*
X115484742Y-89429369D01*
X115484741Y-89429368D01*
X115484740Y-89429368D01*
X115464874Y-89424267D01*
X115446475Y-89417967D01*
X115427646Y-89409820D01*
X115427645Y-89409819D01*
X115383725Y-89402863D01*
X115372289Y-89400495D01*
X115329219Y-89389437D01*
X115308711Y-89389437D01*
X115289313Y-89387910D01*
X115278706Y-89386230D01*
X115269059Y-89384702D01*
X115269058Y-89384701D01*
X115224785Y-89388887D01*
X115213116Y-89389437D01*
X103065450Y-89389437D01*
X103049667Y-89387694D01*
X103049642Y-89387962D01*
X103041880Y-89387228D01*
X103041879Y-89387228D01*
X102973536Y-89389376D01*
X102969641Y-89389437D01*
X102941615Y-89389437D01*
X102941611Y-89389437D01*
X102941599Y-89389438D01*
X102937474Y-89389959D01*
X102925845Y-89390874D01*
X102881397Y-89392271D01*
X102881392Y-89392272D01*
X102861691Y-89397995D01*
X102842652Y-89401937D01*
X102822309Y-89404508D01*
X102822294Y-89404511D01*
X102790207Y-89417215D01*
X102720629Y-89423589D01*
X102658650Y-89391335D01*
X102624789Y-89334012D01*
X102616410Y-89302739D01*
X102616404Y-89302725D01*
X102520273Y-89096569D01*
X102389799Y-88910235D01*
X102326795Y-88847230D01*
X101776716Y-89632823D01*
X101775304Y-89623904D01*
X101717780Y-89511007D01*
X101628184Y-89421411D01*
X101515287Y-89363887D01*
X101421620Y-89349052D01*
X101365028Y-89349052D01*
X101917218Y-88560441D01*
X101836456Y-88522782D01*
X101616749Y-88463912D01*
X101616738Y-88463910D01*
X101390141Y-88444086D01*
X101390137Y-88444086D01*
X101163539Y-88463910D01*
X101163528Y-88463912D01*
X100943821Y-88522782D01*
X100943807Y-88522787D01*
X100782961Y-88597791D01*
X100713884Y-88608283D01*
X100650100Y-88579763D01*
X100611861Y-88521286D01*
X100607029Y-88474602D01*
X100607965Y-88463910D01*
X100622990Y-88292168D01*
X100620128Y-88259460D01*
X100612627Y-88173716D01*
X100603035Y-88064081D01*
X100543776Y-87842925D01*
X100539306Y-87833340D01*
X100467609Y-87679584D01*
X100447015Y-87635419D01*
X100315690Y-87447868D01*
X100153792Y-87285970D01*
X99966241Y-87154645D01*
X99966237Y-87154643D01*
X99758741Y-87057886D01*
X99758730Y-87057882D01*
X99537581Y-86998625D01*
X99537573Y-86998624D01*
X99309494Y-86978670D01*
X99309490Y-86978670D01*
X99243890Y-86984409D01*
X99175390Y-86970642D01*
X99125207Y-86922027D01*
X99109083Y-86860881D01*
X99109083Y-86493685D01*
X99110825Y-86477903D01*
X99110558Y-86477878D01*
X99111290Y-86470122D01*
X99111292Y-86470115D01*
X99109144Y-86401770D01*
X99109083Y-86397875D01*
X99109083Y-86369855D01*
X99109083Y-86369851D01*
X99108560Y-86365720D01*
X99107644Y-86354074D01*
X99106248Y-86309629D01*
X99100524Y-86289927D01*
X99096580Y-86270883D01*
X99094010Y-86250535D01*
X99077634Y-86209174D01*
X99073861Y-86198153D01*
X99061452Y-86155441D01*
X99051010Y-86137785D01*
X99042452Y-86120316D01*
X99034902Y-86101246D01*
X99008757Y-86065261D01*
X99002352Y-86055509D01*
X98979721Y-86017241D01*
X98979712Y-86017231D01*
X98965222Y-86002741D01*
X98952583Y-85987944D01*
X98940525Y-85971347D01*
X98940522Y-85971345D01*
X98940522Y-85971344D01*
X98906257Y-85942998D01*
X98897616Y-85935135D01*
X97950807Y-84988325D01*
X97940881Y-84975935D01*
X97940674Y-84976107D01*
X97935701Y-84970096D01*
X97890381Y-84927538D01*
X97885865Y-84923297D01*
X97883067Y-84920585D01*
X97863247Y-84900765D01*
X97863243Y-84900761D01*
X97859945Y-84898203D01*
X97851064Y-84890617D01*
X97818658Y-84860185D01*
X97818650Y-84860180D01*
X97800689Y-84850306D01*
X97784423Y-84839622D01*
X97768213Y-84827048D01*
X97727401Y-84809387D01*
X97716912Y-84804249D01*
X97677954Y-84782832D01*
X97677953Y-84782831D01*
X97677952Y-84782831D01*
X97658086Y-84777730D01*
X97639687Y-84771430D01*
X97620858Y-84763283D01*
X97620857Y-84763282D01*
X97576937Y-84756326D01*
X97565501Y-84753958D01*
X97522431Y-84742900D01*
X97501923Y-84742900D01*
X97482525Y-84741373D01*
X97471918Y-84739693D01*
X97462271Y-84738165D01*
X97462270Y-84738164D01*
X97417997Y-84742350D01*
X97406328Y-84742900D01*
X97070610Y-84742900D01*
X97020529Y-84732337D01*
X95641308Y-84123422D01*
X95620266Y-84111560D01*
X95203570Y-83819786D01*
X95203558Y-83819779D01*
X95150216Y-83790377D01*
X95008680Y-83753654D01*
X94862529Y-83758293D01*
X94723611Y-83803918D01*
X94603171Y-83886834D01*
X94603169Y-83886836D01*
X94563097Y-83932713D01*
X94563091Y-83932720D01*
X93589586Y-85323029D01*
X93589579Y-85323041D01*
X93560177Y-85376383D01*
X93523454Y-85517919D01*
X93528093Y-85664070D01*
X93545199Y-85716155D01*
X93573719Y-85802990D01*
X93656636Y-85923431D01*
X93702512Y-85963502D01*
X93702517Y-85963505D01*
X93702520Y-85963508D01*
X95092829Y-86937013D01*
X95092837Y-86937018D01*
X95092839Y-86937019D01*
X95146184Y-86966423D01*
X95287720Y-87003146D01*
X95433869Y-86998507D01*
X95572790Y-86952881D01*
X95693231Y-86869964D01*
X95702698Y-86859125D01*
X95706341Y-86854955D01*
X95765268Y-86817413D01*
X95835137Y-86817689D01*
X95893765Y-86855695D01*
X95922539Y-86919365D01*
X95923260Y-86925720D01*
X95935302Y-87063365D01*
X95935303Y-87063373D01*
X95994560Y-87284522D01*
X95994564Y-87284533D01*
X96071530Y-87449587D01*
X96091323Y-87492033D01*
X96222648Y-87679584D01*
X96384546Y-87841482D01*
X96572097Y-87972807D01*
X96676282Y-88021389D01*
X96779596Y-88069565D01*
X96779598Y-88069565D01*
X96779603Y-88069568D01*
X97000759Y-88128827D01*
X97159248Y-88142693D01*
X97228844Y-88148782D01*
X97228846Y-88148782D01*
X97228847Y-88148782D01*
X97251756Y-88146777D01*
X97358185Y-88137466D01*
X97426684Y-88151232D01*
X97476867Y-88199847D01*
X97492992Y-88260994D01*
X97492992Y-88697506D01*
X97491250Y-88713282D01*
X97491518Y-88713308D01*
X97490784Y-88721073D01*
X97492931Y-88789398D01*
X97492992Y-88793293D01*
X97492992Y-88821337D01*
X97493514Y-88825473D01*
X97494429Y-88837104D01*
X97495826Y-88881558D01*
X97495827Y-88881562D01*
X97501549Y-88901260D01*
X97505492Y-88920301D01*
X97508063Y-88940643D01*
X97508066Y-88940658D01*
X97524433Y-88981999D01*
X97528214Y-88993042D01*
X97540622Y-89035746D01*
X97551062Y-89053399D01*
X97559620Y-89070869D01*
X97567171Y-89089940D01*
X97567175Y-89089947D01*
X97593316Y-89125927D01*
X97599723Y-89135680D01*
X97622358Y-89173953D01*
X97622362Y-89173957D01*
X97636855Y-89188450D01*
X97649493Y-89203247D01*
X97661549Y-89219842D01*
X97695817Y-89248190D01*
X97704458Y-89256053D01*
X99768528Y-91320123D01*
X99778458Y-91332517D01*
X99778665Y-91332347D01*
X99783632Y-91338352D01*
X99833485Y-91385166D01*
X99836285Y-91387880D01*
X99856093Y-91407689D01*
X99859373Y-91410233D01*
X99868255Y-91417818D01*
X99900683Y-91448269D01*
X99918659Y-91458151D01*
X99934905Y-91468822D01*
X99951122Y-91481401D01*
X99991945Y-91499066D01*
X100002412Y-91504195D01*
X100017109Y-91512275D01*
X100041381Y-91525619D01*
X100041383Y-91525619D01*
X100041386Y-91525621D01*
X100061255Y-91530722D01*
X100079651Y-91537020D01*
X100098481Y-91545169D01*
X100142408Y-91552125D01*
X100153839Y-91554493D01*
X100196907Y-91565552D01*
X100217415Y-91565552D01*
X100236812Y-91567078D01*
X100257066Y-91570286D01*
X100257067Y-91570287D01*
X100257067Y-91570286D01*
X100257068Y-91570287D01*
X100276586Y-91568441D01*
X100301341Y-91566102D01*
X100313010Y-91565552D01*
X101992636Y-91565552D01*
X102008415Y-91567293D01*
X102008441Y-91567026D01*
X102016194Y-91567758D01*
X102016202Y-91567760D01*
X102084527Y-91565613D01*
X102088422Y-91565552D01*
X102117337Y-91565552D01*
X102184376Y-91585237D01*
X102230131Y-91638041D01*
X102234487Y-91650156D01*
X102234651Y-91650097D01*
X102236501Y-91655181D01*
X102333260Y-91862682D01*
X102333262Y-91862686D01*
X102464587Y-92050237D01*
X102626485Y-92212135D01*
X102814036Y-92343460D01*
X102895191Y-92381303D01*
X103021535Y-92440218D01*
X103021537Y-92440218D01*
X103021542Y-92440221D01*
X103242698Y-92499480D01*
X103405617Y-92513733D01*
X103470783Y-92519435D01*
X103470785Y-92519435D01*
X103470787Y-92519435D01*
X103527806Y-92514446D01*
X103698872Y-92499480D01*
X103920028Y-92440221D01*
X104077109Y-92366973D01*
X104146182Y-92356482D01*
X104209966Y-92385002D01*
X104248206Y-92443478D01*
X104253038Y-92490163D01*
X104237933Y-92662818D01*
X104237933Y-92662822D01*
X104257887Y-92890902D01*
X104257888Y-92890910D01*
X104317145Y-93112059D01*
X104317149Y-93112070D01*
X104413906Y-93319566D01*
X104413908Y-93319570D01*
X104545233Y-93507121D01*
X104707131Y-93669019D01*
X104894682Y-93800344D01*
X104961261Y-93831390D01*
X105102181Y-93897102D01*
X105102183Y-93897102D01*
X105102188Y-93897105D01*
X105323344Y-93956364D01*
X105484451Y-93970459D01*
X105551429Y-93976319D01*
X105551431Y-93976319D01*
X105551433Y-93976319D01*
X105618411Y-93970459D01*
X105779518Y-93956364D01*
X106000674Y-93897105D01*
X106157755Y-93823857D01*
X106226828Y-93813366D01*
X106290612Y-93841886D01*
X106328852Y-93900362D01*
X106333684Y-93947047D01*
X106318579Y-94119702D01*
X106318579Y-94119706D01*
X106338533Y-94347786D01*
X106338534Y-94347794D01*
X106397791Y-94568943D01*
X106397795Y-94568954D01*
X106473460Y-94731218D01*
X106494554Y-94776454D01*
X106625879Y-94964005D01*
X106787777Y-95125903D01*
X106975328Y-95257228D01*
X107072685Y-95302626D01*
X107182827Y-95353986D01*
X107182829Y-95353986D01*
X107182834Y-95353989D01*
X107403990Y-95413248D01*
X107566909Y-95427501D01*
X107632075Y-95433203D01*
X107632077Y-95433203D01*
X107632079Y-95433203D01*
X107689098Y-95428214D01*
X107860164Y-95413248D01*
X108081320Y-95353989D01*
X108132129Y-95330296D01*
X108147977Y-95324191D01*
X108168915Y-95317736D01*
X108237399Y-95285336D01*
X108306415Y-95274461D01*
X108370357Y-95302626D01*
X108408921Y-95360889D01*
X108413954Y-95408233D01*
X108399225Y-95576586D01*
X108399225Y-95576590D01*
X108419179Y-95804670D01*
X108419180Y-95804678D01*
X108478437Y-96025827D01*
X108478441Y-96025838D01*
X108562236Y-96205536D01*
X108575200Y-96233338D01*
X108706525Y-96420889D01*
X108868423Y-96582787D01*
X109055974Y-96714112D01*
X109145062Y-96755654D01*
X109263473Y-96810870D01*
X109263475Y-96810870D01*
X109263480Y-96810873D01*
X109484636Y-96870132D01*
X109647555Y-96884385D01*
X109712721Y-96890087D01*
X109712723Y-96890087D01*
X109712725Y-96890087D01*
X109769744Y-96885098D01*
X109940810Y-96870132D01*
X110161966Y-96810873D01*
X110319046Y-96737625D01*
X110388122Y-96727134D01*
X110451906Y-96755654D01*
X110490145Y-96814130D01*
X110494977Y-96860815D01*
X110479872Y-97033470D01*
X110479872Y-97033474D01*
X110499826Y-97261554D01*
X110499827Y-97261562D01*
X110559084Y-97482711D01*
X110559088Y-97482722D01*
X110646900Y-97671035D01*
X110655847Y-97690222D01*
X110787172Y-97877773D01*
X110949070Y-98039671D01*
X111136621Y-98170996D01*
X111207077Y-98203850D01*
X111344120Y-98267754D01*
X111344122Y-98267754D01*
X111344127Y-98267757D01*
X111565283Y-98327016D01*
X111728202Y-98341269D01*
X111793368Y-98346971D01*
X111793370Y-98346971D01*
X111793372Y-98346971D01*
X111850391Y-98341982D01*
X112021457Y-98327016D01*
X112242613Y-98267757D01*
X112399694Y-98194509D01*
X112468767Y-98184018D01*
X112532551Y-98212538D01*
X112570791Y-98271014D01*
X112575623Y-98317699D01*
X112560518Y-98490354D01*
X112560518Y-98490358D01*
X112580472Y-98718438D01*
X112580473Y-98718446D01*
X112639731Y-98939598D01*
X112663415Y-98990391D01*
X112669526Y-99006254D01*
X112675981Y-99027188D01*
X112675986Y-99027202D01*
X113025260Y-99765487D01*
X113224674Y-100187005D01*
X113226605Y-100191085D01*
X113238516Y-100244113D01*
X113238516Y-114842693D01*
X113236774Y-114858469D01*
X113237042Y-114858495D01*
X113236308Y-114866260D01*
X113236308Y-114866261D01*
X113237184Y-114894137D01*
X113238455Y-114934585D01*
X113238516Y-114938480D01*
X113238516Y-114966524D01*
X113239038Y-114970660D01*
X113239953Y-114982291D01*
X113241350Y-115026745D01*
X113241351Y-115026749D01*
X113247073Y-115046447D01*
X113251016Y-115065488D01*
X113253587Y-115085830D01*
X113253590Y-115085845D01*
X113269957Y-115127186D01*
X113273738Y-115138229D01*
X113284959Y-115176847D01*
X113286147Y-115180935D01*
X113287589Y-115183374D01*
X113296586Y-115198586D01*
X113305144Y-115216056D01*
X113312695Y-115235127D01*
X113312699Y-115235134D01*
X113338840Y-115271114D01*
X113345241Y-115280857D01*
X113367052Y-115317737D01*
X113384235Y-115385459D01*
X113362075Y-115451722D01*
X113307610Y-115495485D01*
X113271129Y-115504385D01*
X113227213Y-115508227D01*
X113227206Y-115508228D01*
X113006057Y-115567485D01*
X113006055Y-115567486D01*
X112848973Y-115640734D01*
X112779895Y-115651225D01*
X112716112Y-115622705D01*
X112677873Y-115564228D01*
X112673041Y-115517546D01*
X112688147Y-115344887D01*
X112686230Y-115322980D01*
X112678545Y-115235134D01*
X112668192Y-115116800D01*
X112608933Y-114895644D01*
X112608234Y-114894146D01*
X112559421Y-114789465D01*
X112512172Y-114688138D01*
X112380847Y-114500587D01*
X112218949Y-114338689D01*
X112031398Y-114207364D01*
X112022535Y-114203231D01*
X111823898Y-114110605D01*
X111823887Y-114110601D01*
X111602738Y-114051344D01*
X111602730Y-114051343D01*
X111374651Y-114031389D01*
X111374647Y-114031389D01*
X111146567Y-114051343D01*
X111146559Y-114051344D01*
X110925410Y-114110601D01*
X110925399Y-114110605D01*
X110768327Y-114183849D01*
X110699250Y-114194341D01*
X110635466Y-114165821D01*
X110597227Y-114107344D01*
X110592395Y-114060662D01*
X110607501Y-113888003D01*
X110606605Y-113877767D01*
X110600017Y-113802457D01*
X110587546Y-113659916D01*
X110528287Y-113438760D01*
X110526378Y-113434667D01*
X110477243Y-113329296D01*
X110431526Y-113231254D01*
X110300201Y-113043703D01*
X110138303Y-112881805D01*
X109950752Y-112750480D01*
X109950748Y-112750478D01*
X109743252Y-112653721D01*
X109743241Y-112653717D01*
X109522092Y-112594460D01*
X109522084Y-112594459D01*
X109294005Y-112574505D01*
X109294001Y-112574505D01*
X109164664Y-112585820D01*
X109096164Y-112572053D01*
X109045981Y-112523438D01*
X109029857Y-112462292D01*
X109029857Y-110192204D01*
X109031598Y-110176424D01*
X109031331Y-110176399D01*
X109032063Y-110168646D01*
X109032065Y-110168638D01*
X109029918Y-110100311D01*
X109029857Y-110096417D01*
X109029857Y-110068381D01*
X109029857Y-110068374D01*
X109029333Y-110064231D01*
X109028418Y-110052597D01*
X109028274Y-110048000D01*
X109027022Y-110008152D01*
X109021298Y-109988450D01*
X109017354Y-109969406D01*
X109014784Y-109949058D01*
X108998408Y-109907697D01*
X108994635Y-109896676D01*
X108982226Y-109853964D01*
X108971784Y-109836308D01*
X108963226Y-109818839D01*
X108955675Y-109799767D01*
X108945072Y-109785174D01*
X108929531Y-109763784D01*
X108923126Y-109754032D01*
X108900495Y-109715764D01*
X108900486Y-109715754D01*
X108885996Y-109701264D01*
X108873357Y-109686467D01*
X108861299Y-109669870D01*
X108861296Y-109669868D01*
X108861296Y-109669867D01*
X108827025Y-109641515D01*
X108818385Y-109633653D01*
X91962596Y-92777863D01*
X91934138Y-92733631D01*
X91896366Y-92632669D01*
X91482081Y-91525297D01*
X91360360Y-91199941D01*
X91352499Y-91156492D01*
X91352499Y-90955969D01*
X91352498Y-90955954D01*
X91351858Y-90949687D01*
X91341909Y-90852299D01*
X91340947Y-90849396D01*
X91286256Y-90684344D01*
X91286255Y-90684342D01*
X91221287Y-90579014D01*
X91193366Y-90533748D01*
X91193365Y-90533747D01*
X91193364Y-90533745D01*
X91068254Y-90408635D01*
X90917657Y-90315744D01*
X90917655Y-90315743D01*
X90749703Y-90260091D01*
X90646044Y-90249500D01*
X89683361Y-90249500D01*
X89616322Y-90229815D01*
X89570567Y-90177011D01*
X89560623Y-90107853D01*
X89589648Y-90044297D01*
X89607193Y-90027652D01*
X89671220Y-89977818D01*
X89829314Y-89806083D01*
X89956984Y-89610669D01*
X90016883Y-89474111D01*
X90020292Y-89466969D01*
X90034576Y-89439362D01*
X90042015Y-89417967D01*
X90042336Y-89417044D01*
X90045903Y-89407954D01*
X90047413Y-89404511D01*
X90050749Y-89396907D01*
X90053213Y-89387175D01*
X90056289Y-89376915D01*
X90517375Y-88050869D01*
X90546813Y-88003917D01*
X91194072Y-87356658D01*
X91206461Y-87346735D01*
X91206289Y-87346528D01*
X91212298Y-87341555D01*
X91212303Y-87341553D01*
X91259149Y-87291665D01*
X91261798Y-87288932D01*
X91281638Y-87269094D01*
X91284183Y-87265813D01*
X91291776Y-87256922D01*
X91322217Y-87224506D01*
X91332102Y-87206524D01*
X91342773Y-87190278D01*
X91355349Y-87174067D01*
X91373011Y-87133250D01*
X91378142Y-87122776D01*
X91399569Y-87083803D01*
X91404670Y-87063931D01*
X91410973Y-87045526D01*
X91413818Y-87038952D01*
X91419117Y-87026708D01*
X91426075Y-86982771D01*
X91428442Y-86971345D01*
X91429706Y-86966423D01*
X91439500Y-86928282D01*
X91439500Y-86907774D01*
X91441027Y-86888374D01*
X91441291Y-86886706D01*
X91444235Y-86868121D01*
X91441131Y-86835284D01*
X91440050Y-86823848D01*
X91439500Y-86812179D01*
X91439500Y-81814593D01*
X91447307Y-81788005D01*
X102230844Y-81788005D01*
X102249434Y-82012359D01*
X102249436Y-82012371D01*
X102304703Y-82230614D01*
X102395140Y-82436792D01*
X102518276Y-82625265D01*
X102518284Y-82625276D01*
X102663489Y-82783008D01*
X102694412Y-82845662D01*
X102686552Y-82915088D01*
X102642405Y-82969244D01*
X102615596Y-82983172D01*
X102497794Y-83027111D01*
X102380739Y-83114739D01*
X102293111Y-83231795D01*
X102242011Y-83368795D01*
X102242011Y-83368797D01*
X102235500Y-83429345D01*
X102235500Y-85226654D01*
X102242011Y-85287202D01*
X102242011Y-85287204D01*
X102279905Y-85388799D01*
X102293111Y-85424204D01*
X102380739Y-85541261D01*
X102497796Y-85628889D01*
X102634799Y-85679989D01*
X102662050Y-85682918D01*
X102695345Y-85686499D01*
X102695362Y-85686500D01*
X104492638Y-85686500D01*
X104492654Y-85686499D01*
X104519692Y-85683591D01*
X104553201Y-85679989D01*
X104690204Y-85628889D01*
X104807261Y-85541261D01*
X104894889Y-85424204D01*
X104945989Y-85287201D01*
X104949795Y-85251795D01*
X104952499Y-85226654D01*
X104952500Y-85226637D01*
X104952500Y-83429362D01*
X104952499Y-83429345D01*
X104947784Y-83385500D01*
X104945989Y-83368799D01*
X104939416Y-83351177D01*
X104906994Y-83264251D01*
X104894889Y-83231796D01*
X104807261Y-83114739D01*
X104690204Y-83027111D01*
X104572404Y-82983172D01*
X104516471Y-82941300D01*
X104492055Y-82875835D01*
X104506908Y-82807562D01*
X104524504Y-82783014D01*
X104669722Y-82625268D01*
X104792860Y-82436791D01*
X104883296Y-82230616D01*
X104938564Y-82012368D01*
X104943069Y-81958000D01*
X104957156Y-81788005D01*
X104957156Y-81787994D01*
X104938565Y-81563640D01*
X104938563Y-81563628D01*
X104883296Y-81345385D01*
X104850684Y-81271037D01*
X104792860Y-81139209D01*
X104780468Y-81120242D01*
X104669723Y-80950734D01*
X104669715Y-80950723D01*
X104517243Y-80785097D01*
X104517238Y-80785092D01*
X104345798Y-80651654D01*
X104339576Y-80646811D01*
X104339575Y-80646810D01*
X104339572Y-80646808D01*
X104141580Y-80539661D01*
X104141577Y-80539659D01*
X104141574Y-80539658D01*
X104141571Y-80539657D01*
X104141569Y-80539656D01*
X103928637Y-80466556D01*
X103706569Y-80429500D01*
X103481431Y-80429500D01*
X103259362Y-80466556D01*
X103046430Y-80539656D01*
X103046419Y-80539661D01*
X102848427Y-80646808D01*
X102848422Y-80646812D01*
X102670761Y-80785092D01*
X102670756Y-80785097D01*
X102518284Y-80950723D01*
X102518276Y-80950734D01*
X102395140Y-81139207D01*
X102304703Y-81345385D01*
X102249436Y-81563628D01*
X102249434Y-81563640D01*
X102230844Y-81787994D01*
X102230844Y-81788005D01*
X91447307Y-81788005D01*
X91459185Y-81747554D01*
X91475814Y-81726917D01*
X94240142Y-78962588D01*
X94301463Y-78929105D01*
X94371155Y-78934089D01*
X94427088Y-78975961D01*
X94451505Y-79041425D01*
X94451439Y-79059999D01*
X94436644Y-79247999D01*
X94456038Y-79494437D01*
X94513745Y-79734807D01*
X94608345Y-79963192D01*
X94608347Y-79963196D01*
X94608348Y-79963197D01*
X94737510Y-80173971D01*
X94898055Y-80361945D01*
X95086029Y-80522490D01*
X95296803Y-80651652D01*
X95296805Y-80651652D01*
X95296807Y-80651654D01*
X95375173Y-80684114D01*
X95525188Y-80746253D01*
X95765560Y-80803961D01*
X96012000Y-80823356D01*
X96258440Y-80803961D01*
X96498812Y-80746253D01*
X96727197Y-80651652D01*
X96937971Y-80522490D01*
X97125945Y-80361945D01*
X97286490Y-80173971D01*
X97415652Y-79963197D01*
X97510253Y-79734812D01*
X97567961Y-79494440D01*
X97587356Y-79248000D01*
X97567961Y-79001560D01*
X97510253Y-78761188D01*
X97448114Y-78611173D01*
X97415654Y-78532807D01*
X97359940Y-78441890D01*
X97286490Y-78322029D01*
X97125945Y-78134055D01*
X96937971Y-77973510D01*
X96727197Y-77844348D01*
X96727196Y-77844347D01*
X96727192Y-77844345D01*
X96498807Y-77749745D01*
X96258436Y-77692038D01*
X96258437Y-77692038D01*
X96035016Y-77674455D01*
X96012000Y-77672644D01*
X96011999Y-77672644D01*
X95823999Y-77687439D01*
X95755622Y-77673074D01*
X95705866Y-77624023D01*
X95690527Y-77555858D01*
X95714476Y-77490221D01*
X95726582Y-77476148D01*
X99502322Y-73700409D01*
X99563642Y-73666927D01*
X99633334Y-73671911D01*
G37*
G04 #@! TD.AperFunction*
G04 #@! TA.AperFunction,Conductor*
G36*
X138126321Y-58482089D02*
G01*
X139127375Y-59037889D01*
X139130684Y-59039792D01*
X140203046Y-59679217D01*
X140206256Y-59681199D01*
X140732304Y-60017279D01*
X141258330Y-60353346D01*
X141261521Y-60355454D01*
X142292399Y-61059741D01*
X142295523Y-61061947D01*
X143304176Y-61797673D01*
X143307230Y-61799974D01*
X144292708Y-62566444D01*
X144295690Y-62568838D01*
X145257071Y-63365334D01*
X145259978Y-63367818D01*
X146196354Y-64193590D01*
X146199152Y-64196135D01*
X147107071Y-65047994D01*
X147109649Y-65050413D01*
X147112388Y-65053064D01*
X147275644Y-65215992D01*
X147996054Y-65934955D01*
X147998719Y-65937697D01*
X148854828Y-66846475D01*
X148857388Y-66849278D01*
X148898497Y-66895705D01*
X148928202Y-66958945D01*
X148919002Y-67028206D01*
X148873816Y-67081498D01*
X148858066Y-67090290D01*
X147245029Y-67842461D01*
X147192893Y-67873957D01*
X147090320Y-67978171D01*
X147090319Y-67978174D01*
X147021269Y-68107050D01*
X147021264Y-68107062D01*
X146991317Y-68250179D01*
X147002906Y-68395943D01*
X147022602Y-68453590D01*
X147782161Y-70082470D01*
X147813657Y-70134606D01*
X147917871Y-70237179D01*
X147917874Y-70237180D01*
X148046750Y-70306230D01*
X148046752Y-70306231D01*
X148046758Y-70306234D01*
X148046761Y-70306234D01*
X148046762Y-70306235D01*
X148078097Y-70312791D01*
X148189881Y-70336182D01*
X148318011Y-70325995D01*
X148386397Y-70340304D01*
X148436193Y-70389316D01*
X148451586Y-70457469D01*
X148441393Y-70499413D01*
X148417753Y-70553308D01*
X148362486Y-70771550D01*
X148362484Y-70771562D01*
X148343894Y-70995916D01*
X148343894Y-70995927D01*
X148362484Y-71220281D01*
X148362486Y-71220293D01*
X148417753Y-71438536D01*
X148501250Y-71628892D01*
X148510153Y-71698193D01*
X148480175Y-71761305D01*
X148420836Y-71798191D01*
X148350974Y-71797140D01*
X148300013Y-71766383D01*
X139143555Y-62609925D01*
X139133629Y-62597535D01*
X139133422Y-62597707D01*
X139128449Y-62591696D01*
X139078615Y-62544899D01*
X139075815Y-62542185D01*
X139055995Y-62522365D01*
X139055991Y-62522361D01*
X139052693Y-62519803D01*
X139043812Y-62512217D01*
X139011406Y-62481785D01*
X139011398Y-62481780D01*
X138993437Y-62471906D01*
X138977171Y-62461222D01*
X138960961Y-62448648D01*
X138920149Y-62430987D01*
X138909660Y-62425849D01*
X138870702Y-62404432D01*
X138870701Y-62404431D01*
X138870700Y-62404431D01*
X138850834Y-62399330D01*
X138832435Y-62393030D01*
X138813606Y-62384883D01*
X138813605Y-62384882D01*
X138769685Y-62377926D01*
X138758249Y-62375558D01*
X138715179Y-62364500D01*
X138694671Y-62364500D01*
X138675273Y-62362973D01*
X138664666Y-62361293D01*
X138655019Y-62359765D01*
X138655018Y-62359764D01*
X138610745Y-62363950D01*
X138599076Y-62364500D01*
X125805852Y-62364500D01*
X125790069Y-62362757D01*
X125790044Y-62363025D01*
X125782282Y-62362291D01*
X125782281Y-62362291D01*
X125713938Y-62364439D01*
X125710043Y-62364500D01*
X125682017Y-62364500D01*
X125682013Y-62364500D01*
X125682001Y-62364501D01*
X125677876Y-62365022D01*
X125666247Y-62365937D01*
X125621799Y-62367334D01*
X125621794Y-62367335D01*
X125602093Y-62373058D01*
X125583054Y-62377000D01*
X125562711Y-62379571D01*
X125562703Y-62379572D01*
X125562701Y-62379573D01*
X125562699Y-62379573D01*
X125562693Y-62379575D01*
X125521359Y-62395939D01*
X125510319Y-62399719D01*
X125467609Y-62412129D01*
X125455110Y-62419521D01*
X125449948Y-62422573D01*
X125432483Y-62431129D01*
X125413415Y-62438678D01*
X125413414Y-62438679D01*
X125377433Y-62464820D01*
X125367675Y-62471230D01*
X125329398Y-62493868D01*
X125314902Y-62508364D01*
X125300112Y-62520996D01*
X125283516Y-62533054D01*
X125283513Y-62533057D01*
X125255159Y-62567330D01*
X125247298Y-62575968D01*
X125228085Y-62595181D01*
X125181129Y-62624622D01*
X124137400Y-62987542D01*
X124085685Y-62993932D01*
X123701172Y-62959717D01*
X123652425Y-62944867D01*
X123629806Y-62932432D01*
X123629803Y-62932431D01*
X123609937Y-62927330D01*
X123591538Y-62921030D01*
X123572709Y-62912883D01*
X123572708Y-62912882D01*
X123528788Y-62905926D01*
X123517352Y-62903558D01*
X123474282Y-62892500D01*
X123453774Y-62892500D01*
X123434376Y-62890973D01*
X123422411Y-62889078D01*
X123414122Y-62887765D01*
X123414121Y-62887764D01*
X123369848Y-62891950D01*
X123358179Y-62892500D01*
X122951298Y-62892500D01*
X122940307Y-62892012D01*
X122936081Y-62891636D01*
X122925016Y-62890651D01*
X122901994Y-62889124D01*
X122901988Y-62889123D01*
X122901977Y-62889123D01*
X122900949Y-62889078D01*
X122900946Y-62889078D01*
X122900945Y-62889078D01*
X122878264Y-62889797D01*
X122823590Y-62891530D01*
X122823588Y-62891530D01*
X122820256Y-62891636D01*
X122808004Y-62892500D01*
X111359851Y-62892500D01*
X111344076Y-62890758D01*
X111344051Y-62891026D01*
X111336283Y-62890291D01*
X111267970Y-62892439D01*
X111264075Y-62892500D01*
X111236015Y-62892500D01*
X111231871Y-62893023D01*
X111220243Y-62893938D01*
X111175796Y-62895335D01*
X111156098Y-62901058D01*
X111137051Y-62905002D01*
X111116701Y-62907573D01*
X111116698Y-62907573D01*
X111116698Y-62907574D01*
X111075345Y-62923946D01*
X111064297Y-62927728D01*
X111021609Y-62940130D01*
X111021607Y-62940130D01*
X111021607Y-62940131D01*
X111003950Y-62950573D01*
X110986483Y-62959129D01*
X110967415Y-62966678D01*
X110967411Y-62966681D01*
X110931434Y-62992818D01*
X110921679Y-62999226D01*
X110883400Y-63021865D01*
X110868898Y-63036368D01*
X110854108Y-63049000D01*
X110837515Y-63061055D01*
X110837512Y-63061058D01*
X110809163Y-63095325D01*
X110801303Y-63103962D01*
X102160086Y-71745181D01*
X102098763Y-71778666D01*
X102072405Y-71781500D01*
X99970852Y-71781500D01*
X99955069Y-71779757D01*
X99955044Y-71780025D01*
X99947282Y-71779291D01*
X99947281Y-71779291D01*
X99878938Y-71781439D01*
X99875043Y-71781500D01*
X99847017Y-71781500D01*
X99847013Y-71781500D01*
X99847001Y-71781501D01*
X99842876Y-71782022D01*
X99831247Y-71782937D01*
X99786799Y-71784334D01*
X99786794Y-71784335D01*
X99767093Y-71790058D01*
X99748054Y-71794000D01*
X99727711Y-71796571D01*
X99727703Y-71796572D01*
X99727701Y-71796573D01*
X99727699Y-71796573D01*
X99727693Y-71796575D01*
X99686359Y-71812939D01*
X99675319Y-71816719D01*
X99632609Y-71829129D01*
X99625743Y-71833190D01*
X99614948Y-71839573D01*
X99597483Y-71848129D01*
X99578415Y-71855678D01*
X99578414Y-71855679D01*
X99542433Y-71881820D01*
X99532675Y-71888230D01*
X99494398Y-71910868D01*
X99479902Y-71925364D01*
X99465112Y-71937996D01*
X99448517Y-71950053D01*
X99448515Y-71950055D01*
X99420158Y-71984331D01*
X99412298Y-71992968D01*
X90507849Y-80897416D01*
X90446526Y-80930901D01*
X90376834Y-80925917D01*
X90327493Y-80891396D01*
X90327414Y-80891476D01*
X90326961Y-80891023D01*
X90325876Y-80890264D01*
X90323970Y-80888032D01*
X90143413Y-80733821D01*
X90143410Y-80733820D01*
X89940962Y-80609759D01*
X89940959Y-80609757D01*
X89721596Y-80518895D01*
X89575713Y-80483872D01*
X89490711Y-80463465D01*
X89396924Y-80456083D01*
X89331637Y-80431199D01*
X89290166Y-80374968D01*
X89285680Y-80305243D01*
X89318972Y-80244787D01*
X96045072Y-73518687D01*
X96057461Y-73508764D01*
X96057289Y-73508557D01*
X96063298Y-73503584D01*
X96063303Y-73503582D01*
X96110149Y-73453694D01*
X96112798Y-73450961D01*
X96132638Y-73431123D01*
X96135183Y-73427842D01*
X96142776Y-73418951D01*
X96151927Y-73409206D01*
X96173217Y-73386535D01*
X96183102Y-73368553D01*
X96193773Y-73352307D01*
X96206349Y-73336096D01*
X96224011Y-73295279D01*
X96229142Y-73284805D01*
X96250569Y-73245832D01*
X96255670Y-73225960D01*
X96261973Y-73207555D01*
X96270117Y-73188737D01*
X96277075Y-73144800D01*
X96279442Y-73133374D01*
X96290499Y-73090313D01*
X96290500Y-73090311D01*
X96290500Y-73069803D01*
X96292027Y-73050403D01*
X96292144Y-73049665D01*
X96295235Y-73030150D01*
X96291050Y-72985877D01*
X96290500Y-72974208D01*
X96290500Y-66428755D01*
X96302411Y-66375727D01*
X96316738Y-66345444D01*
X96516754Y-65922654D01*
X102133500Y-65922654D01*
X102140011Y-65983202D01*
X102140011Y-65983204D01*
X102185908Y-66106254D01*
X102191111Y-66120204D01*
X102278739Y-66237261D01*
X102395796Y-66324889D01*
X102450906Y-66345444D01*
X102532096Y-66375727D01*
X102532799Y-66375989D01*
X102560050Y-66378918D01*
X102593345Y-66382499D01*
X102593362Y-66382500D01*
X104390638Y-66382500D01*
X104390654Y-66382499D01*
X104417692Y-66379591D01*
X104451201Y-66375989D01*
X104451904Y-66375727D01*
X104465768Y-66370555D01*
X104588204Y-66324889D01*
X104705261Y-66237261D01*
X104792889Y-66120204D01*
X104838138Y-65998887D01*
X104880009Y-65942956D01*
X104945474Y-65918539D01*
X105013746Y-65933391D01*
X105045545Y-65958236D01*
X105108760Y-66026906D01*
X105286424Y-66165189D01*
X105286425Y-66165189D01*
X105286427Y-66165191D01*
X105399843Y-66226568D01*
X105484426Y-66272342D01*
X105697365Y-66345444D01*
X105919431Y-66382500D01*
X106144569Y-66382500D01*
X106366635Y-66345444D01*
X106579574Y-66272342D01*
X106777576Y-66165189D01*
X106955240Y-66026906D01*
X107107722Y-65861268D01*
X107230860Y-65672791D01*
X107321296Y-65466616D01*
X107376564Y-65248368D01*
X107377483Y-65237276D01*
X107395156Y-65024005D01*
X107395156Y-65023994D01*
X107376565Y-64799640D01*
X107376563Y-64799628D01*
X107321296Y-64581385D01*
X107306636Y-64547964D01*
X107230860Y-64375209D01*
X107226609Y-64368703D01*
X107131083Y-64222489D01*
X107107722Y-64186732D01*
X107107719Y-64186729D01*
X107107715Y-64186723D01*
X106955243Y-64021097D01*
X106955238Y-64021092D01*
X106777577Y-63882812D01*
X106777572Y-63882808D01*
X106579580Y-63775661D01*
X106579577Y-63775659D01*
X106579574Y-63775658D01*
X106579571Y-63775657D01*
X106579569Y-63775656D01*
X106366637Y-63702556D01*
X106144569Y-63665500D01*
X105919431Y-63665500D01*
X105697362Y-63702556D01*
X105484430Y-63775656D01*
X105484419Y-63775661D01*
X105286427Y-63882808D01*
X105286422Y-63882812D01*
X105108761Y-64021092D01*
X105045548Y-64089760D01*
X104985661Y-64125750D01*
X104915823Y-64123649D01*
X104858207Y-64084124D01*
X104838138Y-64049110D01*
X104792889Y-63927796D01*
X104792888Y-63927795D01*
X104705261Y-63810739D01*
X104588204Y-63723111D01*
X104547661Y-63707989D01*
X104451203Y-63672011D01*
X104390654Y-63665500D01*
X104390638Y-63665500D01*
X102593362Y-63665500D01*
X102593345Y-63665500D01*
X102532797Y-63672011D01*
X102532795Y-63672011D01*
X102395795Y-63723111D01*
X102278739Y-63810739D01*
X102191111Y-63927795D01*
X102140011Y-64064795D01*
X102140011Y-64064797D01*
X102133500Y-64125345D01*
X102133500Y-65922654D01*
X96516754Y-65922654D01*
X96646529Y-65648338D01*
X96853021Y-65211860D01*
X96853626Y-65210540D01*
X96858096Y-65200795D01*
X96858324Y-65200282D01*
X96873351Y-65159433D01*
X96877330Y-65149876D01*
X96889284Y-65124243D01*
X96948543Y-64903087D01*
X96968498Y-64675000D01*
X96948543Y-64446913D01*
X96889284Y-64225757D01*
X96882021Y-64210182D01*
X96823240Y-64084124D01*
X96792523Y-64018251D01*
X96661198Y-63830700D01*
X96499300Y-63668802D01*
X96311749Y-63537477D01*
X96311745Y-63537475D01*
X96104249Y-63440718D01*
X96104238Y-63440714D01*
X95883089Y-63381457D01*
X95883081Y-63381456D01*
X95655002Y-63361502D01*
X95654998Y-63361502D01*
X95426918Y-63381456D01*
X95426910Y-63381457D01*
X95205761Y-63440714D01*
X95205750Y-63440718D01*
X94998254Y-63537475D01*
X94998252Y-63537476D01*
X94998251Y-63537477D01*
X94810700Y-63668802D01*
X94810698Y-63668803D01*
X94810695Y-63668806D01*
X94648806Y-63830695D01*
X94648803Y-63830698D01*
X94648802Y-63830700D01*
X94560097Y-63957384D01*
X94517478Y-64018250D01*
X94517475Y-64018254D01*
X94420718Y-64225750D01*
X94420714Y-64225761D01*
X94361457Y-64446910D01*
X94361456Y-64446918D01*
X94341502Y-64674998D01*
X94341502Y-64675001D01*
X94361456Y-64903081D01*
X94361457Y-64903089D01*
X94420715Y-65124241D01*
X94444399Y-65175034D01*
X94450510Y-65190897D01*
X94456965Y-65211831D01*
X94456970Y-65211845D01*
X94810901Y-65959975D01*
X95007588Y-66375727D01*
X95007589Y-66375728D01*
X95019500Y-66428756D01*
X95019500Y-72695433D01*
X94999815Y-72762472D01*
X94983181Y-72783114D01*
X86348576Y-81417718D01*
X86287253Y-81451203D01*
X86217561Y-81446219D01*
X86161628Y-81404347D01*
X86146334Y-81377489D01*
X86102242Y-81271040D01*
X86102240Y-81271037D01*
X85978179Y-81068589D01*
X85978178Y-81068586D01*
X85877522Y-80950734D01*
X85823969Y-80888031D01*
X85657970Y-80746254D01*
X85643413Y-80733821D01*
X85643410Y-80733820D01*
X85440962Y-80609759D01*
X85440959Y-80609757D01*
X85221596Y-80518895D01*
X84990714Y-80463465D01*
X84754000Y-80444835D01*
X84517285Y-80463465D01*
X84286404Y-80518895D01*
X84286402Y-80518895D01*
X84067040Y-80609757D01*
X84067037Y-80609759D01*
X83864589Y-80733820D01*
X83864586Y-80733821D01*
X83684031Y-80888031D01*
X83529821Y-81068586D01*
X83529820Y-81068589D01*
X83405759Y-81271037D01*
X83405757Y-81271040D01*
X83314895Y-81490402D01*
X83314895Y-81490404D01*
X83259465Y-81721285D01*
X83240835Y-81958000D01*
X83259465Y-82194714D01*
X83314895Y-82425595D01*
X83314895Y-82425597D01*
X83405757Y-82644959D01*
X83405759Y-82644962D01*
X83529820Y-82847410D01*
X83529821Y-82847413D01*
X83529824Y-82847416D01*
X83684031Y-83027969D01*
X83774518Y-83105252D01*
X83864586Y-83182178D01*
X83864589Y-83182179D01*
X84067037Y-83306240D01*
X84067040Y-83306242D01*
X84175524Y-83351177D01*
X84229928Y-83395018D01*
X84251993Y-83461312D01*
X84234714Y-83529011D01*
X84218466Y-83550619D01*
X84199680Y-83570624D01*
X84199676Y-83570630D01*
X84189795Y-83588602D01*
X84179120Y-83604853D01*
X84166547Y-83621063D01*
X84166545Y-83621067D01*
X84148882Y-83661882D01*
X84143745Y-83672367D01*
X84122325Y-83711331D01*
X84117224Y-83731198D01*
X84110925Y-83749596D01*
X84102779Y-83768421D01*
X84102776Y-83768430D01*
X84095821Y-83812346D01*
X84093452Y-83823784D01*
X84082395Y-83866844D01*
X84082395Y-83887359D01*
X84080867Y-83906758D01*
X84077660Y-83927013D01*
X84081845Y-83971283D01*
X84082395Y-83982953D01*
X84082395Y-114722426D01*
X84062710Y-114789465D01*
X84009906Y-114835220D01*
X83940748Y-114845164D01*
X83877192Y-114816139D01*
X83852019Y-114786146D01*
X83718619Y-114563445D01*
X83716705Y-114560134D01*
X83667380Y-114471714D01*
X83108486Y-113469842D01*
X83106686Y-113466495D01*
X83092317Y-113438760D01*
X82532367Y-112357951D01*
X82530683Y-112354575D01*
X81990779Y-111228766D01*
X81989216Y-111225373D01*
X81681768Y-110530071D01*
X81484314Y-110083523D01*
X81482822Y-110080002D01*
X81148169Y-109255319D01*
X81013377Y-108923153D01*
X81012006Y-108919619D01*
X80578447Y-107748818D01*
X80577196Y-107745274D01*
X80179928Y-106561615D01*
X80178770Y-106557977D01*
X79818210Y-105362707D01*
X79817185Y-105359108D01*
X79493631Y-104153205D01*
X79492717Y-104149576D01*
X79206502Y-102934278D01*
X79205694Y-102930592D01*
X78957102Y-101707112D01*
X78956401Y-101703369D01*
X78949260Y-101661673D01*
X78745640Y-100472740D01*
X78745068Y-100469059D01*
X78572357Y-99232539D01*
X78571888Y-99228746D01*
X78546897Y-98998112D01*
X78437393Y-97987549D01*
X78437046Y-97983819D01*
X78340878Y-96738945D01*
X78340646Y-96735188D01*
X78282912Y-95488017D01*
X78282797Y-95484268D01*
X78263546Y-94235880D01*
X78263546Y-94232087D01*
X78282797Y-92983728D01*
X78282912Y-92979983D01*
X78340647Y-91732806D01*
X78340880Y-91729024D01*
X78437047Y-90484173D01*
X78437392Y-90480455D01*
X78571890Y-89239241D01*
X78572359Y-89235457D01*
X78583736Y-89154005D01*
X78745071Y-87998929D01*
X78745639Y-87995268D01*
X78956405Y-86764602D01*
X78957105Y-86760871D01*
X78966153Y-86716340D01*
X79205697Y-85537393D01*
X79206508Y-85533696D01*
X79492720Y-84318407D01*
X79493627Y-84314809D01*
X79817190Y-83108873D01*
X79818206Y-83105309D01*
X80178778Y-81909995D01*
X80179930Y-81906377D01*
X80577202Y-80722704D01*
X80578439Y-80719200D01*
X81012015Y-79548357D01*
X81013384Y-79544831D01*
X81482823Y-78387992D01*
X81484314Y-78384475D01*
X81531174Y-78278500D01*
X81989227Y-77242600D01*
X81990806Y-77239175D01*
X82530696Y-76113397D01*
X82532379Y-76110025D01*
X83025449Y-75158308D01*
X83073765Y-75107840D01*
X83141698Y-75091505D01*
X83207679Y-75114490D01*
X83250759Y-75169498D01*
X83259166Y-75225079D01*
X83249277Y-75350734D01*
X83240835Y-75457999D01*
X83259465Y-75694714D01*
X83314895Y-75925595D01*
X83314895Y-75925597D01*
X83405757Y-76144959D01*
X83405759Y-76144962D01*
X83529820Y-76347410D01*
X83529821Y-76347413D01*
X83529824Y-76347416D01*
X83684031Y-76527969D01*
X83804213Y-76630614D01*
X83864586Y-76682178D01*
X83864589Y-76682179D01*
X84067037Y-76806240D01*
X84067040Y-76806242D01*
X84286403Y-76897104D01*
X84286404Y-76897104D01*
X84286406Y-76897105D01*
X84517289Y-76952535D01*
X84754000Y-76971165D01*
X84990711Y-76952535D01*
X85221594Y-76897105D01*
X85221596Y-76897104D01*
X85221597Y-76897104D01*
X85440959Y-76806242D01*
X85440960Y-76806241D01*
X85440963Y-76806240D01*
X85643416Y-76682176D01*
X85823969Y-76527969D01*
X85978176Y-76347416D01*
X86102240Y-76144963D01*
X86115295Y-76113447D01*
X86193104Y-75925597D01*
X86193104Y-75925596D01*
X86193105Y-75925594D01*
X86248535Y-75694711D01*
X86267165Y-75458000D01*
X87740835Y-75458000D01*
X87759465Y-75694714D01*
X87814895Y-75925595D01*
X87814895Y-75925597D01*
X87905757Y-76144959D01*
X87905759Y-76144962D01*
X88029820Y-76347410D01*
X88029821Y-76347413D01*
X88029824Y-76347416D01*
X88184031Y-76527969D01*
X88304213Y-76630614D01*
X88364586Y-76682178D01*
X88364589Y-76682179D01*
X88567037Y-76806240D01*
X88567040Y-76806242D01*
X88786403Y-76897104D01*
X88786404Y-76897104D01*
X88786406Y-76897105D01*
X89017289Y-76952535D01*
X89254000Y-76971165D01*
X89490711Y-76952535D01*
X89721594Y-76897105D01*
X89721596Y-76897104D01*
X89721597Y-76897104D01*
X89940959Y-76806242D01*
X89940960Y-76806241D01*
X89940963Y-76806240D01*
X90143416Y-76682176D01*
X90323969Y-76527969D01*
X90478176Y-76347416D01*
X90602240Y-76144963D01*
X90615295Y-76113447D01*
X90693104Y-75925597D01*
X90693104Y-75925596D01*
X90693105Y-75925594D01*
X90748535Y-75694711D01*
X90767165Y-75458000D01*
X90748535Y-75221289D01*
X90693105Y-74990406D01*
X90693104Y-74990403D01*
X90693104Y-74990402D01*
X90602242Y-74771040D01*
X90602240Y-74771037D01*
X90478179Y-74568589D01*
X90478178Y-74568586D01*
X90407024Y-74485276D01*
X90323969Y-74388031D01*
X90200000Y-74282151D01*
X90143413Y-74233821D01*
X90143410Y-74233820D01*
X89940962Y-74109759D01*
X89940959Y-74109757D01*
X89721596Y-74018895D01*
X89490714Y-73963465D01*
X89254000Y-73944835D01*
X89017285Y-73963465D01*
X88786404Y-74018895D01*
X88786402Y-74018895D01*
X88567040Y-74109757D01*
X88567037Y-74109759D01*
X88364589Y-74233820D01*
X88364586Y-74233821D01*
X88184031Y-74388031D01*
X88029821Y-74568586D01*
X88029820Y-74568589D01*
X87905759Y-74771037D01*
X87905757Y-74771040D01*
X87814895Y-74990402D01*
X87814895Y-74990404D01*
X87759465Y-75221285D01*
X87740835Y-75458000D01*
X86267165Y-75458000D01*
X86248535Y-75221289D01*
X86193105Y-74990406D01*
X86193104Y-74990403D01*
X86193104Y-74990402D01*
X86102242Y-74771040D01*
X86102240Y-74771037D01*
X85978179Y-74568589D01*
X85978178Y-74568586D01*
X85907024Y-74485276D01*
X85823969Y-74388031D01*
X85700000Y-74282151D01*
X85643413Y-74233821D01*
X85643410Y-74233820D01*
X85440962Y-74109759D01*
X85440959Y-74109757D01*
X85221596Y-74018895D01*
X84990714Y-73963465D01*
X84754000Y-73944835D01*
X84517285Y-73963465D01*
X84286404Y-74018895D01*
X84286402Y-74018895D01*
X84067040Y-74109757D01*
X84067037Y-74109759D01*
X83864589Y-74233820D01*
X83864587Y-74233821D01*
X83760307Y-74322885D01*
X83696546Y-74351455D01*
X83627460Y-74341018D01*
X83574984Y-74294887D01*
X83555779Y-74227708D01*
X83571485Y-74168187D01*
X83716722Y-73907835D01*
X83718603Y-73904580D01*
X84360189Y-72833497D01*
X84362199Y-72830258D01*
X85036475Y-71779517D01*
X85038541Y-71776403D01*
X85744950Y-70746871D01*
X85747112Y-70743824D01*
X86484905Y-69736598D01*
X86487161Y-69733617D01*
X87255687Y-68749585D01*
X87258012Y-68746701D01*
X88056508Y-67786843D01*
X88058969Y-67783978D01*
X88886610Y-66849280D01*
X88889171Y-66846475D01*
X89745305Y-65937672D01*
X89747921Y-65934979D01*
X90631644Y-65053032D01*
X90634310Y-65050452D01*
X91544879Y-64196105D01*
X91547612Y-64193619D01*
X92484054Y-63367791D01*
X92486898Y-63365360D01*
X92716662Y-63175002D01*
X96948110Y-63175002D01*
X96967934Y-63401599D01*
X96967936Y-63401610D01*
X97026806Y-63621317D01*
X97026810Y-63621326D01*
X97122941Y-63827482D01*
X97253418Y-64013820D01*
X97414255Y-64174657D01*
X97600595Y-64305135D01*
X97681347Y-64342790D01*
X97929406Y-63417016D01*
X98015031Y-63502641D01*
X98127928Y-63560165D01*
X98221595Y-63575000D01*
X98284557Y-63575000D01*
X98378224Y-63560165D01*
X98413506Y-63542187D01*
X98164310Y-64472200D01*
X98253074Y-64479966D01*
X98253078Y-64479966D01*
X98479675Y-64460141D01*
X98479686Y-64460139D01*
X98699393Y-64401269D01*
X98699402Y-64401265D01*
X98905558Y-64305134D01*
X99091896Y-64174657D01*
X99252733Y-64013820D01*
X99383210Y-63827482D01*
X99420866Y-63746727D01*
X98495094Y-63498667D01*
X98580717Y-63413045D01*
X98638241Y-63300148D01*
X98658062Y-63175000D01*
X98638241Y-63049852D01*
X98620262Y-63014567D01*
X99550276Y-63263764D01*
X99558042Y-63175002D01*
X99558042Y-63174997D01*
X99538217Y-62948400D01*
X99538215Y-62948389D01*
X99479345Y-62728682D01*
X99479341Y-62728673D01*
X99383210Y-62522517D01*
X99252733Y-62336179D01*
X99091896Y-62175342D01*
X98905558Y-62044865D01*
X98824803Y-62007208D01*
X98576743Y-62932981D01*
X98491121Y-62847359D01*
X98378224Y-62789835D01*
X98284557Y-62775000D01*
X98221595Y-62775000D01*
X98127928Y-62789835D01*
X98092642Y-62807813D01*
X98341840Y-61877798D01*
X98253079Y-61870034D01*
X98253074Y-61870034D01*
X98026476Y-61889858D01*
X98026465Y-61889860D01*
X97806758Y-61948730D01*
X97806749Y-61948734D01*
X97600593Y-62044865D01*
X97414255Y-62175342D01*
X97253418Y-62336179D01*
X97122940Y-62522519D01*
X97085284Y-62603271D01*
X98011058Y-62851331D01*
X97925435Y-62936955D01*
X97867911Y-63049852D01*
X97848090Y-63175000D01*
X97867911Y-63300148D01*
X97885888Y-63335431D01*
X96955874Y-63086234D01*
X96948110Y-63174997D01*
X96948110Y-63175002D01*
X92716662Y-63175002D01*
X93448324Y-62568826D01*
X93451292Y-62566444D01*
X94436796Y-61799953D01*
X94439798Y-61797692D01*
X95448522Y-61061915D01*
X95451556Y-61059772D01*
X96482487Y-60355448D01*
X96485670Y-60353346D01*
X97537744Y-59681198D01*
X97540954Y-59679216D01*
X98613341Y-59039776D01*
X98616623Y-59037889D01*
X99617679Y-58482089D01*
X99677870Y-58466500D01*
X138066130Y-58466500D01*
X138126321Y-58482089D01*
G37*
G04 #@! TD.AperFunction*
G04 #@! TA.AperFunction,Conductor*
G36*
X87225079Y-88888165D02*
G01*
X87281012Y-88930037D01*
X87305321Y-88994107D01*
X87319948Y-89170622D01*
X87377251Y-89396907D01*
X87471015Y-89610668D01*
X87598686Y-89806084D01*
X87744587Y-89964573D01*
X87756780Y-89977818D01*
X87940983Y-90121190D01*
X87940985Y-90121191D01*
X87940988Y-90121193D01*
X88047862Y-90179030D01*
X88146273Y-90232287D01*
X88200811Y-90251010D01*
X88367045Y-90308079D01*
X88367047Y-90308079D01*
X88367049Y-90308080D01*
X88597288Y-90346500D01*
X88597289Y-90346500D01*
X88598388Y-90346591D01*
X88598809Y-90346753D01*
X88602347Y-90347344D01*
X88602225Y-90348071D01*
X88663575Y-90371738D01*
X88704818Y-90428136D01*
X88709023Y-90497879D01*
X88693697Y-90535266D01*
X88601744Y-90684342D01*
X88601743Y-90684344D01*
X88546091Y-90852295D01*
X88546091Y-90852296D01*
X88535500Y-90955955D01*
X88535500Y-92360030D01*
X88535501Y-92360045D01*
X88546091Y-92463703D01*
X88601743Y-92631655D01*
X88601744Y-92631657D01*
X88694635Y-92782254D01*
X88819745Y-92907364D01*
X88819747Y-92907365D01*
X88819748Y-92907366D01*
X88914724Y-92965949D01*
X88970342Y-93000255D01*
X88970344Y-93000256D01*
X89136073Y-93055172D01*
X89184751Y-93085197D01*
X89855768Y-93756215D01*
X89809862Y-93763135D01*
X89687643Y-93821993D01*
X89588202Y-93914260D01*
X89520375Y-94031740D01*
X89502500Y-94110054D01*
X88792811Y-93400365D01*
X88708516Y-93529390D01*
X88615317Y-93741864D01*
X88558361Y-93966781D01*
X88539202Y-94197994D01*
X88539202Y-94198005D01*
X88558361Y-94429218D01*
X88615317Y-94654135D01*
X88708515Y-94866606D01*
X88792812Y-94995633D01*
X89499549Y-94288895D01*
X89500327Y-94299265D01*
X89549887Y-94425541D01*
X89634465Y-94531599D01*
X89746547Y-94608016D01*
X89854299Y-94641253D01*
X89145201Y-95350351D01*
X89163714Y-95364760D01*
X89204527Y-95421471D01*
X89208202Y-95491244D01*
X89173570Y-95551927D01*
X89163715Y-95560467D01*
X88986781Y-95698181D01*
X88986776Y-95698185D01*
X88828686Y-95869915D01*
X88701015Y-96065331D01*
X88607251Y-96279092D01*
X88549948Y-96505377D01*
X88530673Y-96737994D01*
X88530673Y-96738005D01*
X88549948Y-96970622D01*
X88607251Y-97196907D01*
X88701015Y-97410668D01*
X88828686Y-97606084D01*
X88984619Y-97775471D01*
X88986780Y-97777818D01*
X89170983Y-97921190D01*
X89170985Y-97921191D01*
X89170988Y-97921193D01*
X89189099Y-97930994D01*
X89376273Y-98032287D01*
X89438708Y-98053721D01*
X89597045Y-98108079D01*
X89597047Y-98108079D01*
X89597049Y-98108080D01*
X89827288Y-98146500D01*
X89827289Y-98146500D01*
X90060711Y-98146500D01*
X90060712Y-98146500D01*
X90290951Y-98108080D01*
X90511727Y-98032287D01*
X90717017Y-97921190D01*
X90901220Y-97777818D01*
X91059314Y-97606083D01*
X91186984Y-97410669D01*
X91280749Y-97196907D01*
X91338051Y-96970626D01*
X91351019Y-96814130D01*
X91357327Y-96738005D01*
X91357327Y-96737994D01*
X91338051Y-96505377D01*
X91338051Y-96505374D01*
X91280749Y-96279093D01*
X91186984Y-96065331D01*
X91165470Y-96032401D01*
X91059313Y-95869915D01*
X90901223Y-95698185D01*
X90901222Y-95698184D01*
X90901220Y-95698182D01*
X90724284Y-95560466D01*
X90683472Y-95503757D01*
X90679799Y-95433984D01*
X90714430Y-95373301D01*
X90724285Y-95364761D01*
X90742798Y-95350351D01*
X90742798Y-95350350D01*
X90032232Y-94639784D01*
X90078138Y-94632865D01*
X90200357Y-94574007D01*
X90299798Y-94481740D01*
X90367625Y-94364260D01*
X90385499Y-94285946D01*
X91095186Y-94995633D01*
X91179482Y-94866611D01*
X91272682Y-94654135D01*
X91329637Y-94429224D01*
X91344800Y-94246232D01*
X91369954Y-94181047D01*
X91426356Y-94139808D01*
X91496099Y-94135610D01*
X91556058Y-94168790D01*
X107722538Y-110335270D01*
X107756023Y-110396593D01*
X107758857Y-110422951D01*
X107758857Y-111061026D01*
X107739172Y-111128065D01*
X107686368Y-111173820D01*
X107617210Y-111183764D01*
X107602764Y-111180801D01*
X107441449Y-111137577D01*
X107441445Y-111137576D01*
X107441444Y-111137576D01*
X107441443Y-111137575D01*
X107441438Y-111137575D01*
X107213359Y-111117621D01*
X107213355Y-111117621D01*
X106985275Y-111137575D01*
X106985267Y-111137576D01*
X106764118Y-111196833D01*
X106764107Y-111196837D01*
X106607035Y-111270081D01*
X106537958Y-111280573D01*
X106474174Y-111252053D01*
X106435935Y-111193576D01*
X106431103Y-111146891D01*
X106431767Y-111139311D01*
X106446209Y-110974234D01*
X106443126Y-110939000D01*
X106433664Y-110830848D01*
X106426254Y-110746147D01*
X106366995Y-110524991D01*
X106365308Y-110521374D01*
X106319413Y-110422951D01*
X106270234Y-110317485D01*
X106138909Y-110129934D01*
X105977011Y-109968036D01*
X105789460Y-109836711D01*
X105788617Y-109836318D01*
X105581960Y-109739952D01*
X105581949Y-109739948D01*
X105360800Y-109680691D01*
X105360792Y-109680690D01*
X105132713Y-109660736D01*
X105132709Y-109660736D01*
X104904629Y-109680690D01*
X104904621Y-109680691D01*
X104683472Y-109739948D01*
X104683461Y-109739952D01*
X104526389Y-109813196D01*
X104457312Y-109823688D01*
X104393528Y-109795168D01*
X104355289Y-109736691D01*
X104350457Y-109690009D01*
X104365563Y-109517350D01*
X104364918Y-109509983D01*
X104351892Y-109361093D01*
X104345608Y-109289263D01*
X104286349Y-109068107D01*
X104283285Y-109061537D01*
X104215123Y-108915362D01*
X104189588Y-108860601D01*
X104058263Y-108673050D01*
X103896365Y-108511152D01*
X103708814Y-108379827D01*
X103658388Y-108356313D01*
X103501314Y-108283068D01*
X103501303Y-108283064D01*
X103280154Y-108223807D01*
X103280146Y-108223806D01*
X103052067Y-108203852D01*
X103052063Y-108203852D01*
X102823983Y-108223806D01*
X102823975Y-108223807D01*
X102602826Y-108283064D01*
X102602824Y-108283065D01*
X102445742Y-108356313D01*
X102376664Y-108366804D01*
X102312881Y-108338284D01*
X102274642Y-108279807D01*
X102269810Y-108233125D01*
X102284916Y-108060466D01*
X102264961Y-107832379D01*
X102205702Y-107611223D01*
X102202639Y-107604655D01*
X102108942Y-107403720D01*
X102108941Y-107403718D01*
X102108941Y-107403717D01*
X101977616Y-107216166D01*
X101815718Y-107054268D01*
X101628167Y-106922943D01*
X101628163Y-106922941D01*
X101420667Y-106826184D01*
X101420656Y-106826180D01*
X101199507Y-106766923D01*
X101199499Y-106766922D01*
X100971420Y-106746968D01*
X100971416Y-106746968D01*
X100743336Y-106766922D01*
X100743328Y-106766923D01*
X100522179Y-106826180D01*
X100522168Y-106826184D01*
X100365096Y-106899428D01*
X100296019Y-106909920D01*
X100232235Y-106881400D01*
X100193996Y-106822923D01*
X100189164Y-106776241D01*
X100204270Y-106603582D01*
X100200747Y-106563319D01*
X100195266Y-106500664D01*
X100184315Y-106375495D01*
X100125056Y-106154339D01*
X100116851Y-106136744D01*
X100028296Y-105946836D01*
X100028295Y-105946834D01*
X100028295Y-105946833D01*
X99896970Y-105759282D01*
X99735072Y-105597384D01*
X99547521Y-105466059D01*
X99547517Y-105466057D01*
X99340021Y-105369300D01*
X99340010Y-105369296D01*
X99118861Y-105310039D01*
X99118853Y-105310038D01*
X98890774Y-105290084D01*
X98890770Y-105290084D01*
X98662690Y-105310038D01*
X98662682Y-105310039D01*
X98441533Y-105369296D01*
X98441522Y-105369300D01*
X98284450Y-105442544D01*
X98215373Y-105453036D01*
X98151589Y-105424516D01*
X98113350Y-105366039D01*
X98108518Y-105319357D01*
X98123624Y-105146698D01*
X98103669Y-104918611D01*
X98044410Y-104697455D01*
X98041347Y-104690887D01*
X97971217Y-104540492D01*
X97947649Y-104489949D01*
X97816324Y-104302398D01*
X97654426Y-104140500D01*
X97466875Y-104009175D01*
X97466871Y-104009173D01*
X97259375Y-103912416D01*
X97259364Y-103912412D01*
X97038215Y-103853155D01*
X97038207Y-103853154D01*
X96810128Y-103833200D01*
X96810124Y-103833200D01*
X96582044Y-103853154D01*
X96582036Y-103853155D01*
X96360887Y-103912412D01*
X96360876Y-103912416D01*
X96203804Y-103985660D01*
X96134727Y-103996152D01*
X96070943Y-103967632D01*
X96032704Y-103909155D01*
X96027872Y-103862473D01*
X96042978Y-103689814D01*
X96042287Y-103681921D01*
X96036886Y-103620184D01*
X96023023Y-103461727D01*
X95963764Y-103240571D01*
X95935692Y-103180371D01*
X95904833Y-103114193D01*
X95867003Y-103033065D01*
X95735678Y-102845514D01*
X95573780Y-102683616D01*
X95386229Y-102552291D01*
X95377291Y-102548123D01*
X95178729Y-102455532D01*
X95178718Y-102455528D01*
X94957569Y-102396271D01*
X94957561Y-102396270D01*
X94729482Y-102376316D01*
X94729478Y-102376316D01*
X94501398Y-102396270D01*
X94501390Y-102396271D01*
X94280241Y-102455528D01*
X94280230Y-102455532D01*
X94123158Y-102528776D01*
X94054081Y-102539268D01*
X93990297Y-102510748D01*
X93952058Y-102452271D01*
X93947226Y-102405589D01*
X93962332Y-102232930D01*
X93942377Y-102004843D01*
X93883118Y-101783687D01*
X93882442Y-101782238D01*
X93835675Y-101681944D01*
X93786357Y-101576181D01*
X93655032Y-101388630D01*
X93493134Y-101226732D01*
X93305583Y-101095407D01*
X93277655Y-101082384D01*
X93098083Y-100998648D01*
X93098072Y-100998644D01*
X92876923Y-100939387D01*
X92876915Y-100939386D01*
X92648836Y-100919432D01*
X92648832Y-100919432D01*
X92420752Y-100939386D01*
X92420744Y-100939387D01*
X92199595Y-100998644D01*
X92199593Y-100998645D01*
X92042511Y-101071893D01*
X91973433Y-101082384D01*
X91909650Y-101053864D01*
X91871411Y-100995387D01*
X91866579Y-100948702D01*
X91866614Y-100948313D01*
X91881685Y-100776045D01*
X91877683Y-100730307D01*
X91866632Y-100603986D01*
X91861730Y-100547958D01*
X91802471Y-100326802D01*
X91797471Y-100316080D01*
X91750926Y-100216262D01*
X91705710Y-100119296D01*
X91574385Y-99931745D01*
X91412487Y-99769847D01*
X91224936Y-99638522D01*
X91224932Y-99638520D01*
X91017436Y-99541763D01*
X91017425Y-99541759D01*
X90796276Y-99482502D01*
X90796268Y-99482501D01*
X90568189Y-99462547D01*
X90568185Y-99462547D01*
X90340105Y-99482501D01*
X90340097Y-99482502D01*
X90118948Y-99541759D01*
X90118946Y-99541760D01*
X89952970Y-99619155D01*
X89883892Y-99629646D01*
X89820109Y-99601126D01*
X89781869Y-99542649D01*
X89777038Y-99495964D01*
X89792507Y-99319161D01*
X89792507Y-99319158D01*
X89772682Y-99092561D01*
X89772680Y-99092550D01*
X89713810Y-98872843D01*
X89713806Y-98872834D01*
X89617675Y-98666678D01*
X89487201Y-98480344D01*
X89424197Y-98417339D01*
X88874118Y-99202932D01*
X88872706Y-99194013D01*
X88815182Y-99081116D01*
X88725586Y-98991520D01*
X88612689Y-98933996D01*
X88519022Y-98919161D01*
X88462430Y-98919161D01*
X89014620Y-98130550D01*
X88933858Y-98092891D01*
X88714151Y-98034021D01*
X88714140Y-98034019D01*
X88487543Y-98014195D01*
X88487539Y-98014195D01*
X88260941Y-98034019D01*
X88260930Y-98034021D01*
X88041223Y-98092891D01*
X88041214Y-98092895D01*
X87880365Y-98167900D01*
X87811287Y-98178392D01*
X87747503Y-98149872D01*
X87709264Y-98091395D01*
X87704432Y-98044711D01*
X87705368Y-98034019D01*
X87720393Y-97862277D01*
X87700438Y-97634190D01*
X87641179Y-97413034D01*
X87613107Y-97352834D01*
X87567986Y-97256071D01*
X87544418Y-97205528D01*
X87413093Y-97017977D01*
X87251195Y-96856079D01*
X87063644Y-96724754D01*
X87063640Y-96724752D01*
X86856144Y-96627995D01*
X86856133Y-96627991D01*
X86634984Y-96568734D01*
X86634976Y-96568733D01*
X86406897Y-96548779D01*
X86406893Y-96548779D01*
X86178813Y-96568733D01*
X86178802Y-96568735D01*
X86017488Y-96611959D01*
X85947638Y-96610296D01*
X85889776Y-96571133D01*
X85862272Y-96506905D01*
X85861395Y-96492184D01*
X85861395Y-90200698D01*
X85881080Y-90133659D01*
X85897709Y-90113022D01*
X87094066Y-88916664D01*
X87155387Y-88883181D01*
X87225079Y-88888165D01*
G37*
G04 #@! TD.AperFunction*
G04 #@! TA.AperFunction,Conductor*
G36*
X131620507Y-86404156D02*
G01*
X131580000Y-86542111D01*
X131580000Y-86685889D01*
X131620507Y-86823844D01*
X131646314Y-86864000D01*
X129973686Y-86864000D01*
X129999493Y-86823844D01*
X130040000Y-86685889D01*
X130040000Y-86542111D01*
X129999493Y-86404156D01*
X129973686Y-86364000D01*
X131646314Y-86364000D01*
X131620507Y-86404156D01*
G37*
G04 #@! TD.AperFunction*
G04 #@! TA.AperFunction,Conductor*
G36*
X138018032Y-74204455D02*
G01*
X138040252Y-74222087D01*
X144273181Y-80455016D01*
X144306666Y-80516339D01*
X144309500Y-80542697D01*
X144309500Y-82430676D01*
X144289815Y-82497715D01*
X144237011Y-82543470D01*
X144167853Y-82553414D01*
X144104297Y-82524389D01*
X144068459Y-82471631D01*
X144041575Y-82394803D01*
X144041573Y-82394799D01*
X143944043Y-82239581D01*
X143814418Y-82109956D01*
X143659200Y-82012426D01*
X143659197Y-82012424D01*
X143486168Y-81951878D01*
X143486157Y-81951876D01*
X143304004Y-81931353D01*
X143303996Y-81931353D01*
X143121842Y-81951876D01*
X143121837Y-81951877D01*
X142948805Y-82012423D01*
X142948798Y-82012426D01*
X142816596Y-82095494D01*
X142750625Y-82114500D01*
X132607374Y-82114500D01*
X132541402Y-82095494D01*
X132409200Y-82012426D01*
X132409197Y-82012424D01*
X132236168Y-81951878D01*
X132236157Y-81951876D01*
X132054004Y-81931353D01*
X132053996Y-81931353D01*
X131871842Y-81951876D01*
X131871831Y-81951878D01*
X131698802Y-82012424D01*
X131698799Y-82012426D01*
X131543581Y-82109956D01*
X131413956Y-82239581D01*
X131316426Y-82394799D01*
X131316424Y-82394802D01*
X131255878Y-82567831D01*
X131255876Y-82567842D01*
X131235353Y-82749996D01*
X131235353Y-82750003D01*
X131255876Y-82932157D01*
X131255878Y-82932168D01*
X131316424Y-83105197D01*
X131316426Y-83105200D01*
X131318769Y-83108929D01*
X131413956Y-83260418D01*
X131543582Y-83390044D01*
X131698802Y-83487575D01*
X131871834Y-83548122D01*
X131871840Y-83548122D01*
X131871842Y-83548123D01*
X132053996Y-83568647D01*
X132054000Y-83568647D01*
X132054004Y-83568647D01*
X132236157Y-83548123D01*
X132236156Y-83548123D01*
X132236166Y-83548122D01*
X132409198Y-83487575D01*
X132511389Y-83423364D01*
X132541402Y-83404506D01*
X132607374Y-83385500D01*
X142750626Y-83385500D01*
X142816598Y-83404506D01*
X142893036Y-83452535D01*
X142948802Y-83487575D01*
X143121834Y-83548122D01*
X143121840Y-83548122D01*
X143121842Y-83548123D01*
X143303996Y-83568647D01*
X143304000Y-83568647D01*
X143304004Y-83568647D01*
X143486157Y-83548123D01*
X143486156Y-83548123D01*
X143486166Y-83548122D01*
X143659198Y-83487575D01*
X143814418Y-83390044D01*
X143944044Y-83260418D01*
X144041575Y-83105198D01*
X144068460Y-83028364D01*
X144109180Y-82971592D01*
X144174133Y-82945845D01*
X144242695Y-82959301D01*
X144293097Y-83007689D01*
X144309500Y-83069323D01*
X144309500Y-85416279D01*
X144289815Y-85483318D01*
X144237011Y-85529073D01*
X144167853Y-85539017D01*
X144138673Y-85531097D01*
X142750616Y-84965004D01*
X142728879Y-84952458D01*
X142728783Y-84952622D01*
X142722065Y-84948649D01*
X142681253Y-84930988D01*
X142670763Y-84925849D01*
X142631806Y-84904432D01*
X142631803Y-84904431D01*
X142611937Y-84899330D01*
X142593538Y-84893030D01*
X142574709Y-84884883D01*
X142574708Y-84884882D01*
X142530788Y-84877926D01*
X142519352Y-84875558D01*
X142476282Y-84864500D01*
X142455774Y-84864500D01*
X142436376Y-84862973D01*
X142418773Y-84860185D01*
X142416122Y-84859765D01*
X142416121Y-84859764D01*
X142371848Y-84863950D01*
X142360179Y-84864500D01*
X135925660Y-84864500D01*
X135909880Y-84862758D01*
X135909855Y-84863026D01*
X135902094Y-84862292D01*
X135833769Y-84864439D01*
X135829874Y-84864500D01*
X135801826Y-84864500D01*
X135797679Y-84865023D01*
X135786059Y-84865937D01*
X135741612Y-84867334D01*
X135741607Y-84867335D01*
X135721906Y-84873058D01*
X135702867Y-84877000D01*
X135682524Y-84879571D01*
X135682516Y-84879572D01*
X135682514Y-84879573D01*
X135682512Y-84879573D01*
X135682506Y-84879575D01*
X135641172Y-84895939D01*
X135630132Y-84899719D01*
X135587422Y-84912129D01*
X135574923Y-84919521D01*
X135569761Y-84922573D01*
X135552296Y-84931129D01*
X135533228Y-84938678D01*
X135533224Y-84938681D01*
X135497247Y-84964818D01*
X135487492Y-84971226D01*
X135449213Y-84993865D01*
X135434711Y-85008368D01*
X135419921Y-85021000D01*
X135403328Y-85033055D01*
X135403325Y-85033058D01*
X135374976Y-85067325D01*
X135367116Y-85075962D01*
X134572921Y-85870157D01*
X134560531Y-85880085D01*
X134560702Y-85880292D01*
X134554695Y-85885261D01*
X134507898Y-85935094D01*
X134505190Y-85937888D01*
X134485366Y-85957711D01*
X134485365Y-85957713D01*
X134482797Y-85961024D01*
X134475222Y-85969891D01*
X134458270Y-85987944D01*
X134444782Y-86002308D01*
X134444781Y-86002309D01*
X134434900Y-86020281D01*
X134424225Y-86036532D01*
X134411652Y-86052742D01*
X134411650Y-86052746D01*
X134393987Y-86093561D01*
X134388850Y-86104046D01*
X134367430Y-86143010D01*
X134362329Y-86162877D01*
X134356030Y-86181275D01*
X134347884Y-86200100D01*
X134347881Y-86200109D01*
X134340926Y-86244025D01*
X134338557Y-86255463D01*
X134327500Y-86298523D01*
X134327500Y-86319038D01*
X134325972Y-86338437D01*
X134322765Y-86358692D01*
X134325678Y-86389504D01*
X134326950Y-86402962D01*
X134327500Y-86414632D01*
X134327500Y-90683151D01*
X134325758Y-90698927D01*
X134326026Y-90698953D01*
X134325292Y-90706718D01*
X134327439Y-90775043D01*
X134327500Y-90778938D01*
X134327500Y-90806982D01*
X134328022Y-90811118D01*
X134328937Y-90822749D01*
X134330334Y-90867203D01*
X134330335Y-90867207D01*
X134336057Y-90886905D01*
X134340000Y-90905946D01*
X134342571Y-90926288D01*
X134342574Y-90926303D01*
X134358941Y-90967644D01*
X134362722Y-90978687D01*
X134375130Y-91021391D01*
X134385570Y-91039044D01*
X134394128Y-91056514D01*
X134401679Y-91075585D01*
X134401683Y-91075592D01*
X134427824Y-91111572D01*
X134434231Y-91121325D01*
X134456866Y-91159598D01*
X134456869Y-91159601D01*
X134461647Y-91165760D01*
X134460484Y-91166661D01*
X134483613Y-91203188D01*
X134735088Y-91906236D01*
X134739132Y-91975989D01*
X134735088Y-91989762D01*
X134483613Y-92692809D01*
X134454538Y-92738727D01*
X134064921Y-93128344D01*
X134052531Y-93138272D01*
X134052702Y-93138479D01*
X134046695Y-93143448D01*
X133999898Y-93193281D01*
X133997190Y-93196075D01*
X133977366Y-93215898D01*
X133977365Y-93215900D01*
X133974797Y-93219211D01*
X133967221Y-93228080D01*
X133936782Y-93260495D01*
X133936781Y-93260496D01*
X133926900Y-93278468D01*
X133916225Y-93294719D01*
X133903652Y-93310929D01*
X133903650Y-93310933D01*
X133885987Y-93351748D01*
X133880850Y-93362233D01*
X133859430Y-93401197D01*
X133854329Y-93421064D01*
X133848030Y-93439462D01*
X133839884Y-93458287D01*
X133839881Y-93458296D01*
X133832926Y-93502212D01*
X133830557Y-93513650D01*
X133819500Y-93556710D01*
X133819500Y-93577225D01*
X133817972Y-93596624D01*
X133814765Y-93616879D01*
X133818611Y-93657567D01*
X133818950Y-93661149D01*
X133819500Y-93672819D01*
X133819500Y-100905302D01*
X133799815Y-100972341D01*
X133783181Y-100992983D01*
X133496252Y-101279911D01*
X133434929Y-101313396D01*
X133365237Y-101308412D01*
X133309304Y-101266540D01*
X133295016Y-101242041D01*
X133278860Y-101205209D01*
X133278859Y-101205206D01*
X133185534Y-101062363D01*
X133155722Y-101016732D01*
X133155719Y-101016729D01*
X133155715Y-101016723D01*
X133003243Y-100851097D01*
X133003238Y-100851092D01*
X132869986Y-100747377D01*
X132825576Y-100712811D01*
X132825575Y-100712810D01*
X132825572Y-100712808D01*
X132627576Y-100605659D01*
X132627575Y-100605658D01*
X132593510Y-100593962D01*
X132576347Y-100586581D01*
X132564319Y-100580295D01*
X132564317Y-100580294D01*
X131264001Y-100122071D01*
X131217533Y-100092801D01*
X124595819Y-93471086D01*
X124562334Y-93409763D01*
X124559500Y-93383405D01*
X124559500Y-89154005D01*
X128176844Y-89154005D01*
X128195434Y-89378359D01*
X128195436Y-89378371D01*
X128250703Y-89596614D01*
X128341140Y-89802792D01*
X128464276Y-89991265D01*
X128464284Y-89991276D01*
X128616756Y-90156902D01*
X128616761Y-90156907D01*
X128658420Y-90189332D01*
X128794424Y-90295189D01*
X128794425Y-90295189D01*
X128794427Y-90295191D01*
X128832406Y-90315744D01*
X128992426Y-90402342D01*
X129205365Y-90475444D01*
X129427431Y-90512500D01*
X129652569Y-90512500D01*
X129874635Y-90475444D01*
X130087574Y-90402342D01*
X130285576Y-90295189D01*
X130463240Y-90156906D01*
X130526452Y-90088239D01*
X130586337Y-90052250D01*
X130656175Y-90054349D01*
X130713791Y-90093873D01*
X130733861Y-90128888D01*
X130770554Y-90227263D01*
X130779111Y-90250204D01*
X130866739Y-90367261D01*
X130983796Y-90454889D01*
X131120799Y-90505989D01*
X131148050Y-90508918D01*
X131181345Y-90512499D01*
X131181362Y-90512500D01*
X132978638Y-90512500D01*
X132978654Y-90512499D01*
X133005692Y-90509591D01*
X133039201Y-90505989D01*
X133176204Y-90454889D01*
X133293261Y-90367261D01*
X133380889Y-90250204D01*
X133431989Y-90113201D01*
X133437546Y-90061512D01*
X133438499Y-90052654D01*
X133438500Y-90052637D01*
X133438500Y-88255362D01*
X133438499Y-88255345D01*
X133434548Y-88218601D01*
X133431989Y-88194799D01*
X133424125Y-88173716D01*
X133395875Y-88097975D01*
X133380889Y-88057796D01*
X133301105Y-87951218D01*
X133276689Y-87885754D01*
X133291541Y-87817481D01*
X133301107Y-87802596D01*
X133373352Y-87706089D01*
X133373354Y-87706086D01*
X133423596Y-87571379D01*
X133423598Y-87571372D01*
X133429999Y-87511844D01*
X133430000Y-87511827D01*
X133430000Y-86864000D01*
X132513686Y-86864000D01*
X132539493Y-86823844D01*
X132580000Y-86685889D01*
X132580000Y-86542111D01*
X132539493Y-86404156D01*
X132513686Y-86364000D01*
X133430000Y-86364000D01*
X133430000Y-85716172D01*
X133429999Y-85716155D01*
X133423598Y-85656627D01*
X133423596Y-85656620D01*
X133373354Y-85521913D01*
X133373350Y-85521906D01*
X133287190Y-85406812D01*
X133287187Y-85406809D01*
X133172093Y-85320649D01*
X133172086Y-85320645D01*
X133037379Y-85270403D01*
X133037372Y-85270401D01*
X132977844Y-85264000D01*
X132330000Y-85264000D01*
X132330000Y-86178498D01*
X132222315Y-86129320D01*
X132115763Y-86114000D01*
X132044237Y-86114000D01*
X131937685Y-86129320D01*
X131830000Y-86178498D01*
X131830000Y-85264000D01*
X131182155Y-85264000D01*
X131122627Y-85270401D01*
X131122620Y-85270403D01*
X130987913Y-85320645D01*
X130987906Y-85320649D01*
X130872812Y-85406809D01*
X130872809Y-85406812D01*
X130786649Y-85521906D01*
X130786646Y-85521911D01*
X130737385Y-85653987D01*
X130695513Y-85709920D01*
X130630049Y-85734337D01*
X130561776Y-85719485D01*
X130533522Y-85698334D01*
X130411082Y-85575894D01*
X130217578Y-85440399D01*
X130003492Y-85340570D01*
X130003486Y-85340567D01*
X129790000Y-85283364D01*
X129790000Y-86178498D01*
X129682315Y-86129320D01*
X129575763Y-86114000D01*
X129504237Y-86114000D01*
X129397685Y-86129320D01*
X129290000Y-86178498D01*
X129290000Y-85283364D01*
X129289999Y-85283364D01*
X129076513Y-85340567D01*
X129076507Y-85340570D01*
X128862422Y-85440399D01*
X128862420Y-85440400D01*
X128668926Y-85575886D01*
X128668920Y-85575891D01*
X128501891Y-85742920D01*
X128501886Y-85742926D01*
X128366400Y-85936420D01*
X128366399Y-85936422D01*
X128266570Y-86150507D01*
X128266567Y-86150513D01*
X128209364Y-86363999D01*
X128209364Y-86364000D01*
X129106314Y-86364000D01*
X129080507Y-86404156D01*
X129040000Y-86542111D01*
X129040000Y-86685889D01*
X129080507Y-86823844D01*
X129106314Y-86864000D01*
X128209364Y-86864000D01*
X128266567Y-87077486D01*
X128266570Y-87077492D01*
X128366399Y-87291578D01*
X128501894Y-87485082D01*
X128668917Y-87652105D01*
X128849802Y-87778763D01*
X128893427Y-87833340D01*
X128900619Y-87902839D01*
X128869097Y-87965193D01*
X128837697Y-87989392D01*
X128794427Y-88012809D01*
X128794422Y-88012812D01*
X128616761Y-88151092D01*
X128616756Y-88151097D01*
X128464284Y-88316723D01*
X128464276Y-88316734D01*
X128341140Y-88505207D01*
X128250703Y-88711385D01*
X128195436Y-88929628D01*
X128195434Y-88929640D01*
X128176844Y-89153994D01*
X128176844Y-89154005D01*
X124559500Y-89154005D01*
X124559500Y-78043207D01*
X124571661Y-77989652D01*
X124662094Y-77800802D01*
X125088383Y-76910582D01*
X125135091Y-76858621D01*
X125202478Y-76840160D01*
X125269148Y-76861060D01*
X125304028Y-76896314D01*
X125388278Y-77025268D01*
X125388283Y-77025273D01*
X125388284Y-77025276D01*
X125540756Y-77190902D01*
X125540760Y-77190906D01*
X125718424Y-77329189D01*
X125718425Y-77329189D01*
X125718427Y-77329191D01*
X125790499Y-77368194D01*
X125916426Y-77436342D01*
X126129365Y-77509444D01*
X126351431Y-77546500D01*
X126576569Y-77546500D01*
X126798635Y-77509444D01*
X127011574Y-77436342D01*
X127209576Y-77329189D01*
X127387240Y-77190906D01*
X127539722Y-77025268D01*
X127630193Y-76886790D01*
X127683338Y-76841437D01*
X127752569Y-76832013D01*
X127815905Y-76861515D01*
X127837804Y-76886787D01*
X127928278Y-77025268D01*
X127928283Y-77025273D01*
X127928284Y-77025276D01*
X128080756Y-77190902D01*
X128080760Y-77190906D01*
X128258424Y-77329189D01*
X128258425Y-77329189D01*
X128258427Y-77329191D01*
X128330499Y-77368194D01*
X128456426Y-77436342D01*
X128669365Y-77509444D01*
X128891431Y-77546500D01*
X129116569Y-77546500D01*
X129338635Y-77509444D01*
X129551574Y-77436342D01*
X129749576Y-77329189D01*
X129927240Y-77190906D01*
X130079722Y-77025268D01*
X130170193Y-76886790D01*
X130223338Y-76841437D01*
X130292569Y-76832013D01*
X130355905Y-76861515D01*
X130377804Y-76886787D01*
X130468278Y-77025268D01*
X130468283Y-77025273D01*
X130468284Y-77025276D01*
X130620756Y-77190902D01*
X130620760Y-77190906D01*
X130798424Y-77329189D01*
X130798425Y-77329189D01*
X130798427Y-77329191D01*
X130870499Y-77368194D01*
X130996426Y-77436342D01*
X131209365Y-77509444D01*
X131431431Y-77546500D01*
X131656569Y-77546500D01*
X131878635Y-77509444D01*
X132091574Y-77436342D01*
X132289576Y-77329189D01*
X132467240Y-77190906D01*
X132619722Y-77025268D01*
X132710193Y-76886790D01*
X132763338Y-76841437D01*
X132832569Y-76832013D01*
X132895905Y-76861515D01*
X132917804Y-76886787D01*
X133008278Y-77025268D01*
X133008283Y-77025273D01*
X133008284Y-77025276D01*
X133160756Y-77190902D01*
X133160760Y-77190906D01*
X133338424Y-77329189D01*
X133338425Y-77329189D01*
X133338427Y-77329191D01*
X133410499Y-77368194D01*
X133536426Y-77436342D01*
X133749365Y-77509444D01*
X133971431Y-77546500D01*
X134196569Y-77546500D01*
X134418635Y-77509444D01*
X134631574Y-77436342D01*
X134829576Y-77329189D01*
X135007240Y-77190906D01*
X135159722Y-77025268D01*
X135250193Y-76886790D01*
X135303338Y-76841437D01*
X135372569Y-76832013D01*
X135435905Y-76861515D01*
X135457804Y-76886787D01*
X135548278Y-77025268D01*
X135548283Y-77025273D01*
X135548284Y-77025276D01*
X135700756Y-77190902D01*
X135700760Y-77190906D01*
X135878424Y-77329189D01*
X135878425Y-77329189D01*
X135878427Y-77329191D01*
X135950499Y-77368194D01*
X136076426Y-77436342D01*
X136289365Y-77509444D01*
X136511431Y-77546500D01*
X136540480Y-77546500D01*
X136607519Y-77566185D01*
X136653274Y-77618989D01*
X136663218Y-77688147D01*
X136634193Y-77751703D01*
X136587933Y-77785061D01*
X136444807Y-77844345D01*
X136234028Y-77973510D01*
X136046055Y-78134055D01*
X135885510Y-78322028D01*
X135756345Y-78532807D01*
X135661745Y-78761192D01*
X135604038Y-79001562D01*
X135584644Y-79248000D01*
X135604038Y-79494437D01*
X135661745Y-79734807D01*
X135756345Y-79963192D01*
X135756347Y-79963196D01*
X135756348Y-79963197D01*
X135885510Y-80173971D01*
X136046055Y-80361945D01*
X136234029Y-80522490D01*
X136444803Y-80651652D01*
X136444805Y-80651652D01*
X136444807Y-80651654D01*
X136523173Y-80684114D01*
X136673188Y-80746253D01*
X136913560Y-80803961D01*
X137160000Y-80823356D01*
X137406440Y-80803961D01*
X137646812Y-80746253D01*
X137875197Y-80651652D01*
X138085971Y-80522490D01*
X138273945Y-80361945D01*
X138434490Y-80173971D01*
X138563652Y-79963197D01*
X138658253Y-79734812D01*
X138715961Y-79494440D01*
X138735356Y-79248000D01*
X138715961Y-79001560D01*
X138658253Y-78761188D01*
X138596114Y-78611173D01*
X138563654Y-78532807D01*
X138507940Y-78441890D01*
X138434490Y-78322029D01*
X138273945Y-78134055D01*
X138085971Y-77973510D01*
X137875197Y-77844348D01*
X137875196Y-77844347D01*
X137875192Y-77844345D01*
X137646807Y-77749745D01*
X137406436Y-77692038D01*
X137406437Y-77692038D01*
X137205148Y-77676197D01*
X137139860Y-77651313D01*
X137098389Y-77595082D01*
X137093902Y-77525357D01*
X137127824Y-77464274D01*
X137167466Y-77439729D01*
X137166883Y-77438399D01*
X137171559Y-77436346D01*
X137171574Y-77436342D01*
X137369576Y-77329189D01*
X137547240Y-77190906D01*
X137699722Y-77025268D01*
X137822860Y-76836791D01*
X137913296Y-76630616D01*
X137968564Y-76412368D01*
X137968575Y-76412233D01*
X137987156Y-76188005D01*
X137987156Y-76187994D01*
X137968565Y-75963640D01*
X137968563Y-75963628D01*
X137958931Y-75925594D01*
X137913296Y-75745384D01*
X137822860Y-75539209D01*
X137815586Y-75528076D01*
X137699723Y-75350734D01*
X137699715Y-75350723D01*
X137547243Y-75185097D01*
X137547238Y-75185092D01*
X137369577Y-75046812D01*
X137369578Y-75046812D01*
X137369576Y-75046811D01*
X137333070Y-75027055D01*
X137283479Y-74977836D01*
X137268371Y-74909619D01*
X137292541Y-74844064D01*
X137333070Y-74808945D01*
X137333084Y-74808936D01*
X137369576Y-74789189D01*
X137547240Y-74650906D01*
X137699722Y-74485268D01*
X137822860Y-74296791D01*
X137839015Y-74259958D01*
X137883968Y-74206474D01*
X137950704Y-74185782D01*
X138018032Y-74204455D01*
G37*
G04 #@! TD.AperFunction*
G04 #@! TA.AperFunction,Conductor*
G36*
X149323978Y-92968039D02*
G01*
X149381600Y-93007555D01*
X149408711Y-93071950D01*
X149409500Y-93085918D01*
X149409500Y-93631690D01*
X149389815Y-93698729D01*
X149373181Y-93719371D01*
X148683449Y-94409102D01*
X148682673Y-94398735D01*
X148633113Y-94272459D01*
X148548535Y-94166401D01*
X148436453Y-94089984D01*
X148328699Y-94056746D01*
X149037797Y-93347647D01*
X149037797Y-93347646D01*
X149019285Y-93333237D01*
X148978472Y-93276526D01*
X148974799Y-93206753D01*
X149009430Y-93146070D01*
X149019260Y-93137552D01*
X149196220Y-92999818D01*
X149196226Y-92999811D01*
X149199990Y-92996347D01*
X149201267Y-92997734D01*
X149254139Y-92965949D01*
X149323978Y-92968039D01*
G37*
G04 #@! TD.AperFunction*
G04 #@! TA.AperFunction,Conductor*
G36*
X138544000Y-65730633D02*
G01*
X138757483Y-65673433D01*
X138757492Y-65673429D01*
X138971578Y-65573600D01*
X139165082Y-65438105D01*
X139332105Y-65271082D01*
X139467598Y-65077580D01*
X139502836Y-65002012D01*
X139549009Y-64949572D01*
X139616202Y-64930420D01*
X139683083Y-64950635D01*
X139702900Y-64966735D01*
X149373181Y-74637016D01*
X149406666Y-74698339D01*
X149409500Y-74724697D01*
X149409500Y-83877907D01*
X149389815Y-83944946D01*
X149337011Y-83990701D01*
X149267853Y-84000645D01*
X149253407Y-83997682D01*
X149092092Y-83954458D01*
X149092088Y-83954457D01*
X149092087Y-83954457D01*
X149092086Y-83954456D01*
X149092081Y-83954456D01*
X148864002Y-83934502D01*
X148863998Y-83934502D01*
X148635918Y-83954456D01*
X148635910Y-83954457D01*
X148414761Y-84013714D01*
X148414750Y-84013718D01*
X148207254Y-84110475D01*
X148207252Y-84110476D01*
X148136856Y-84159767D01*
X148019700Y-84241802D01*
X148019698Y-84241803D01*
X148019695Y-84241806D01*
X147857806Y-84403695D01*
X147726475Y-84591253D01*
X147646912Y-84761877D01*
X147644156Y-84767421D01*
X147637265Y-84780457D01*
X147637260Y-84780466D01*
X147635955Y-84784116D01*
X147631594Y-84794729D01*
X147629716Y-84798757D01*
X147629714Y-84798762D01*
X147628032Y-84805038D01*
X147625017Y-84814694D01*
X147203613Y-85992810D01*
X147174538Y-86038728D01*
X145792181Y-87421086D01*
X145730858Y-87454571D01*
X145661166Y-87449587D01*
X145605233Y-87407715D01*
X145580816Y-87342251D01*
X145580500Y-87333405D01*
X145580500Y-80311950D01*
X145582241Y-80296170D01*
X145581974Y-80296145D01*
X145582706Y-80288392D01*
X145582708Y-80288384D01*
X145580561Y-80220057D01*
X145580500Y-80216163D01*
X145580500Y-80188127D01*
X145580500Y-80188120D01*
X145579976Y-80183977D01*
X145579061Y-80172343D01*
X145577665Y-80127898D01*
X145571941Y-80108196D01*
X145567997Y-80089152D01*
X145565427Y-80068804D01*
X145549051Y-80027443D01*
X145545278Y-80016422D01*
X145532869Y-79973710D01*
X145522427Y-79956054D01*
X145513869Y-79938585D01*
X145506318Y-79919513D01*
X145498565Y-79908842D01*
X145480174Y-79883530D01*
X145473769Y-79873778D01*
X145451138Y-79835510D01*
X145451129Y-79835500D01*
X145436639Y-79821010D01*
X145424000Y-79806213D01*
X145411942Y-79789616D01*
X145411939Y-79789614D01*
X145411939Y-79789613D01*
X145377668Y-79761261D01*
X145369028Y-79753399D01*
X131575605Y-65959975D01*
X131542120Y-65898652D01*
X131547104Y-65828960D01*
X131588976Y-65773027D01*
X131626266Y-65755597D01*
X131625932Y-65754701D01*
X131690458Y-65730633D01*
X131770204Y-65700889D01*
X131887261Y-65613261D01*
X131974889Y-65496204D01*
X132020138Y-65374887D01*
X132062009Y-65318956D01*
X132127474Y-65294539D01*
X132195746Y-65309391D01*
X132227545Y-65334236D01*
X132290760Y-65402906D01*
X132468424Y-65541189D01*
X132468425Y-65541189D01*
X132468427Y-65541191D01*
X132529432Y-65574205D01*
X132666426Y-65648342D01*
X132879365Y-65721444D01*
X133101431Y-65758500D01*
X133326569Y-65758500D01*
X133548635Y-65721444D01*
X133761574Y-65648342D01*
X133959576Y-65541189D01*
X134137240Y-65402906D01*
X134258594Y-65271082D01*
X134289715Y-65237276D01*
X134289715Y-65237275D01*
X134289722Y-65237268D01*
X134380193Y-65098790D01*
X134433338Y-65053437D01*
X134502569Y-65044013D01*
X134565905Y-65073515D01*
X134587804Y-65098787D01*
X134678278Y-65237268D01*
X134678283Y-65237273D01*
X134678284Y-65237276D01*
X134790526Y-65359201D01*
X134830760Y-65402906D01*
X135008424Y-65541189D01*
X135008425Y-65541189D01*
X135008427Y-65541191D01*
X135069432Y-65574205D01*
X135206426Y-65648342D01*
X135419365Y-65721444D01*
X135641431Y-65758500D01*
X135866569Y-65758500D01*
X136088635Y-65721444D01*
X136301574Y-65648342D01*
X136499576Y-65541189D01*
X136677240Y-65402906D01*
X136798594Y-65271082D01*
X136829715Y-65237276D01*
X136829715Y-65237275D01*
X136829722Y-65237268D01*
X136923749Y-65093347D01*
X136976894Y-65047994D01*
X137046125Y-65038570D01*
X137109461Y-65068072D01*
X137129130Y-65090048D01*
X137255890Y-65271078D01*
X137422917Y-65438105D01*
X137616421Y-65573600D01*
X137830507Y-65673429D01*
X137830516Y-65673433D01*
X138044000Y-65730634D01*
X138044000Y-64835501D01*
X138151685Y-64884680D01*
X138258237Y-64900000D01*
X138329763Y-64900000D01*
X138436315Y-64884680D01*
X138544000Y-64835501D01*
X138544000Y-65730633D01*
G37*
G04 #@! TD.AperFunction*
G04 #@! TA.AperFunction,Conductor*
G36*
X130355905Y-74321515D02*
G01*
X130377804Y-74346787D01*
X130468278Y-74485268D01*
X130468283Y-74485273D01*
X130468284Y-74485276D01*
X130591745Y-74619388D01*
X130620760Y-74650906D01*
X130798424Y-74789189D01*
X130798429Y-74789191D01*
X130798431Y-74789193D01*
X130834930Y-74808946D01*
X130884520Y-74858165D01*
X130899628Y-74926382D01*
X130875457Y-74991937D01*
X130834930Y-75027054D01*
X130798431Y-75046806D01*
X130798422Y-75046812D01*
X130620761Y-75185092D01*
X130620756Y-75185097D01*
X130468284Y-75350723D01*
X130468276Y-75350734D01*
X130377808Y-75489206D01*
X130324662Y-75534562D01*
X130255431Y-75543986D01*
X130192095Y-75514484D01*
X130170192Y-75489206D01*
X130079723Y-75350734D01*
X130079715Y-75350723D01*
X129927243Y-75185097D01*
X129927238Y-75185092D01*
X129749577Y-75046812D01*
X129749578Y-75046812D01*
X129749576Y-75046811D01*
X129713070Y-75027055D01*
X129663479Y-74977836D01*
X129648371Y-74909619D01*
X129672541Y-74844064D01*
X129713070Y-74808945D01*
X129713084Y-74808936D01*
X129749576Y-74789189D01*
X129927240Y-74650906D01*
X130079722Y-74485268D01*
X130170193Y-74346790D01*
X130223338Y-74301437D01*
X130292569Y-74292013D01*
X130355905Y-74321515D01*
G37*
G04 #@! TD.AperFunction*
G04 #@! TA.AperFunction,Conductor*
G36*
X103144507Y-73438156D02*
G01*
X103104000Y-73576111D01*
X103104000Y-73719889D01*
X103144507Y-73857844D01*
X103170314Y-73898000D01*
X101497686Y-73898000D01*
X101523493Y-73857844D01*
X101564000Y-73719889D01*
X101564000Y-73576111D01*
X101523493Y-73438156D01*
X101497686Y-73398000D01*
X103170314Y-73398000D01*
X103144507Y-73438156D01*
G37*
G04 #@! TD.AperFunction*
G04 #@! TA.AperFunction,Conductor*
G36*
X105684507Y-73438156D02*
G01*
X105644000Y-73576111D01*
X105644000Y-73719889D01*
X105684507Y-73857844D01*
X105710314Y-73898000D01*
X104037686Y-73898000D01*
X104063493Y-73857844D01*
X104104000Y-73719889D01*
X104104000Y-73576111D01*
X104063493Y-73438156D01*
X104037686Y-73398000D01*
X105710314Y-73398000D01*
X105684507Y-73438156D01*
G37*
G04 #@! TD.AperFunction*
G04 #@! TA.AperFunction,Conductor*
G36*
X115094101Y-64183185D02*
G01*
X115139856Y-64235989D01*
X115149800Y-64305147D01*
X115120775Y-64368703D01*
X115118310Y-64371462D01*
X115114944Y-64375118D01*
X115108683Y-64381919D01*
X114981015Y-64577331D01*
X114887251Y-64791092D01*
X114829948Y-65017377D01*
X114810673Y-65249994D01*
X114810673Y-65250005D01*
X114829948Y-65482622D01*
X114887251Y-65708907D01*
X114981015Y-65922668D01*
X115108686Y-66118084D01*
X115266776Y-66289814D01*
X115266780Y-66289818D01*
X115450983Y-66433190D01*
X115450985Y-66433191D01*
X115450988Y-66433193D01*
X115570331Y-66497777D01*
X115656273Y-66544287D01*
X115770914Y-66583643D01*
X115877045Y-66620079D01*
X115877047Y-66620079D01*
X115877049Y-66620080D01*
X116107288Y-66658500D01*
X116107289Y-66658500D01*
X116340711Y-66658500D01*
X116340712Y-66658500D01*
X116570951Y-66620080D01*
X116791727Y-66544287D01*
X116997017Y-66433190D01*
X117181220Y-66289818D01*
X117339314Y-66118083D01*
X117345682Y-66108337D01*
X117395267Y-66032440D01*
X117448412Y-65987082D01*
X117517644Y-65977658D01*
X117580980Y-66007159D01*
X117602885Y-66032438D01*
X117612812Y-66047632D01*
X118319549Y-65340894D01*
X118320327Y-65351265D01*
X118369887Y-65477541D01*
X118454465Y-65583599D01*
X118566547Y-65660016D01*
X118674299Y-65693253D01*
X117965201Y-66402351D01*
X117995649Y-66426050D01*
X118199697Y-66536476D01*
X118199706Y-66536479D01*
X118419139Y-66611811D01*
X118647993Y-66650000D01*
X118880007Y-66650000D01*
X119108860Y-66611811D01*
X119328293Y-66536479D01*
X119328301Y-66536476D01*
X119532355Y-66426047D01*
X119562797Y-66402351D01*
X119562798Y-66402350D01*
X118852232Y-65691784D01*
X118898138Y-65684865D01*
X119020357Y-65626007D01*
X119119798Y-65533740D01*
X119187625Y-65416260D01*
X119205499Y-65337945D01*
X119876802Y-66009248D01*
X119906827Y-66057926D01*
X119961743Y-66223655D01*
X119961744Y-66223657D01*
X120054635Y-66374254D01*
X120179745Y-66499364D01*
X120330342Y-66592255D01*
X120330344Y-66592256D01*
X120414311Y-66620079D01*
X120498299Y-66647909D01*
X120601963Y-66658500D01*
X122006036Y-66658499D01*
X122109701Y-66647909D01*
X122277658Y-66592255D01*
X122428252Y-66499366D01*
X122553366Y-66374252D01*
X122646255Y-66223658D01*
X122701909Y-66055701D01*
X122712500Y-65952037D01*
X122712499Y-64953286D01*
X122732183Y-64886248D01*
X122784987Y-64840493D01*
X122854146Y-64830549D01*
X122917702Y-64859574D01*
X122945918Y-64894948D01*
X123004388Y-65004623D01*
X123014575Y-65022459D01*
X123020520Y-65032866D01*
X123026401Y-65044556D01*
X123051013Y-65100665D01*
X123178686Y-65296084D01*
X123335673Y-65466616D01*
X123336780Y-65467818D01*
X123520983Y-65611190D01*
X123520985Y-65611191D01*
X123520988Y-65611193D01*
X123589627Y-65648338D01*
X123726273Y-65722287D01*
X123820691Y-65754701D01*
X123947045Y-65798079D01*
X123947047Y-65798079D01*
X123947049Y-65798080D01*
X124177288Y-65836500D01*
X124177289Y-65836500D01*
X124410711Y-65836500D01*
X124410712Y-65836500D01*
X124640951Y-65798080D01*
X124861727Y-65722287D01*
X125067017Y-65611190D01*
X125251220Y-65467818D01*
X125251231Y-65467805D01*
X125254990Y-65464347D01*
X125255714Y-65465133D01*
X125311067Y-65431861D01*
X125380905Y-65433954D01*
X125438525Y-65473472D01*
X125458602Y-65508495D01*
X125483111Y-65574205D01*
X125512348Y-65613260D01*
X125570739Y-65691261D01*
X125687796Y-65778889D01*
X125824799Y-65829989D01*
X125852050Y-65832918D01*
X125885345Y-65836499D01*
X125885362Y-65836500D01*
X126451583Y-65836500D01*
X126478088Y-65839365D01*
X127554429Y-66074884D01*
X127612494Y-66106636D01*
X127612668Y-66106438D01*
X127612819Y-66106245D01*
X127612831Y-66106254D01*
X127612993Y-66106071D01*
X127615495Y-66108277D01*
X127615604Y-66108337D01*
X127615906Y-66108639D01*
X127619190Y-66111186D01*
X127628081Y-66118780D01*
X127660487Y-66149211D01*
X127660490Y-66149213D01*
X127660494Y-66149217D01*
X127660497Y-66149219D01*
X127660499Y-66149220D01*
X127678462Y-66159095D01*
X127694724Y-66169776D01*
X127710933Y-66182350D01*
X127751746Y-66200011D01*
X127762227Y-66205145D01*
X127801197Y-66226569D01*
X127801201Y-66226570D01*
X127821054Y-66231667D01*
X127839469Y-66237972D01*
X127858286Y-66246115D01*
X127858289Y-66246115D01*
X127858292Y-66246117D01*
X127902219Y-66253073D01*
X127913650Y-66255441D01*
X127956718Y-66266500D01*
X127977226Y-66266500D01*
X127996623Y-66268026D01*
X128016877Y-66271234D01*
X128016878Y-66271235D01*
X128016878Y-66271234D01*
X128016879Y-66271235D01*
X128036397Y-66269389D01*
X128061152Y-66267050D01*
X128072821Y-66266500D01*
X130033303Y-66266500D01*
X130100342Y-66286185D01*
X130120984Y-66302819D01*
X136050583Y-72232419D01*
X136084068Y-72293742D01*
X136079084Y-72363434D01*
X136037212Y-72419367D01*
X136021920Y-72429155D01*
X135878422Y-72506812D01*
X135700761Y-72645092D01*
X135700756Y-72645097D01*
X135548284Y-72810723D01*
X135548276Y-72810734D01*
X135457808Y-72949206D01*
X135404662Y-72994562D01*
X135335431Y-73003986D01*
X135272095Y-72974484D01*
X135250192Y-72949206D01*
X135174602Y-72833508D01*
X135159722Y-72810732D01*
X135159719Y-72810729D01*
X135159715Y-72810723D01*
X135007243Y-72645097D01*
X135007238Y-72645092D01*
X134829577Y-72506812D01*
X134829572Y-72506808D01*
X134631580Y-72399661D01*
X134631577Y-72399659D01*
X134631574Y-72399658D01*
X134631571Y-72399657D01*
X134631569Y-72399656D01*
X134418637Y-72326556D01*
X134196569Y-72289500D01*
X133971431Y-72289500D01*
X133749362Y-72326556D01*
X133536430Y-72399656D01*
X133536419Y-72399661D01*
X133338427Y-72506808D01*
X133338422Y-72506812D01*
X133160761Y-72645092D01*
X133160756Y-72645097D01*
X133008284Y-72810723D01*
X133008276Y-72810734D01*
X132917808Y-72949206D01*
X132864662Y-72994562D01*
X132795431Y-73003986D01*
X132732095Y-72974484D01*
X132710192Y-72949206D01*
X132634602Y-72833508D01*
X132619722Y-72810732D01*
X132619719Y-72810729D01*
X132619715Y-72810723D01*
X132467243Y-72645097D01*
X132467238Y-72645092D01*
X132289577Y-72506812D01*
X132289572Y-72506808D01*
X132091580Y-72399661D01*
X132091577Y-72399659D01*
X132091574Y-72399658D01*
X132091571Y-72399657D01*
X132091569Y-72399656D01*
X131878637Y-72326556D01*
X131656569Y-72289500D01*
X131431431Y-72289500D01*
X131209362Y-72326556D01*
X130996430Y-72399656D01*
X130996419Y-72399661D01*
X130798427Y-72506808D01*
X130798422Y-72506812D01*
X130620761Y-72645092D01*
X130620756Y-72645097D01*
X130468284Y-72810723D01*
X130468276Y-72810734D01*
X130377808Y-72949206D01*
X130324662Y-72994562D01*
X130255431Y-73003986D01*
X130192095Y-72974484D01*
X130170192Y-72949206D01*
X130094602Y-72833508D01*
X130079722Y-72810732D01*
X130079719Y-72810729D01*
X130079715Y-72810723D01*
X129927243Y-72645097D01*
X129927238Y-72645092D01*
X129749577Y-72506812D01*
X129749572Y-72506808D01*
X129551580Y-72399661D01*
X129551577Y-72399659D01*
X129551574Y-72399658D01*
X129551571Y-72399657D01*
X129551569Y-72399656D01*
X129338637Y-72326556D01*
X129116569Y-72289500D01*
X128891431Y-72289500D01*
X128669362Y-72326556D01*
X128456430Y-72399656D01*
X128456419Y-72399661D01*
X128258427Y-72506808D01*
X128258422Y-72506812D01*
X128080761Y-72645092D01*
X128080756Y-72645097D01*
X127928284Y-72810723D01*
X127928276Y-72810734D01*
X127837808Y-72949206D01*
X127784662Y-72994562D01*
X127715431Y-73003986D01*
X127652095Y-72974484D01*
X127630192Y-72949206D01*
X127554602Y-72833508D01*
X127539722Y-72810732D01*
X127539719Y-72810729D01*
X127539715Y-72810723D01*
X127387243Y-72645097D01*
X127387238Y-72645092D01*
X127209577Y-72506812D01*
X127209572Y-72506808D01*
X127011580Y-72399661D01*
X127011577Y-72399659D01*
X127011574Y-72399658D01*
X127011571Y-72399657D01*
X127011569Y-72399656D01*
X126798637Y-72326556D01*
X126576569Y-72289500D01*
X126351431Y-72289500D01*
X126129362Y-72326556D01*
X125916430Y-72399656D01*
X125916419Y-72399661D01*
X125718427Y-72506808D01*
X125718422Y-72506812D01*
X125540761Y-72645092D01*
X125540756Y-72645097D01*
X125388284Y-72810723D01*
X125388276Y-72810734D01*
X125297808Y-72949206D01*
X125244662Y-72994562D01*
X125175431Y-73003986D01*
X125112095Y-72974484D01*
X125090192Y-72949206D01*
X125014602Y-72833508D01*
X124999722Y-72810732D01*
X124999719Y-72810729D01*
X124999715Y-72810723D01*
X124847243Y-72645097D01*
X124847238Y-72645092D01*
X124669577Y-72506812D01*
X124669572Y-72506808D01*
X124471580Y-72399661D01*
X124471577Y-72399659D01*
X124471574Y-72399658D01*
X124471571Y-72399657D01*
X124471569Y-72399656D01*
X124258637Y-72326556D01*
X124036569Y-72289500D01*
X123811431Y-72289500D01*
X123589362Y-72326556D01*
X123376430Y-72399656D01*
X123376419Y-72399661D01*
X123178427Y-72506808D01*
X123178422Y-72506812D01*
X123000761Y-72645092D01*
X123000756Y-72645097D01*
X122848284Y-72810723D01*
X122848276Y-72810734D01*
X122757808Y-72949206D01*
X122704662Y-72994562D01*
X122635431Y-73003986D01*
X122572095Y-72974484D01*
X122550192Y-72949206D01*
X122474602Y-72833508D01*
X122459722Y-72810732D01*
X122459719Y-72810729D01*
X122459715Y-72810723D01*
X122307243Y-72645097D01*
X122307238Y-72645092D01*
X122129577Y-72506812D01*
X122129572Y-72506808D01*
X121931580Y-72399661D01*
X121931577Y-72399659D01*
X121931574Y-72399658D01*
X121931571Y-72399657D01*
X121931569Y-72399656D01*
X121718637Y-72326556D01*
X121496569Y-72289500D01*
X121271431Y-72289500D01*
X121049362Y-72326556D01*
X120836430Y-72399656D01*
X120836419Y-72399661D01*
X120638427Y-72506808D01*
X120638422Y-72506812D01*
X120460761Y-72645092D01*
X120460756Y-72645097D01*
X120308284Y-72810723D01*
X120308276Y-72810734D01*
X120217808Y-72949206D01*
X120164662Y-72994562D01*
X120095431Y-73003986D01*
X120032095Y-72974484D01*
X120010192Y-72949206D01*
X119934602Y-72833508D01*
X119919722Y-72810732D01*
X119919719Y-72810729D01*
X119919715Y-72810723D01*
X119767243Y-72645097D01*
X119767238Y-72645092D01*
X119589577Y-72506812D01*
X119589572Y-72506808D01*
X119391580Y-72399661D01*
X119391577Y-72399659D01*
X119391574Y-72399658D01*
X119391571Y-72399657D01*
X119391569Y-72399656D01*
X119178637Y-72326556D01*
X118956569Y-72289500D01*
X118731431Y-72289500D01*
X118509362Y-72326556D01*
X118296430Y-72399656D01*
X118296419Y-72399661D01*
X118098427Y-72506808D01*
X118098422Y-72506812D01*
X117920761Y-72645092D01*
X117920756Y-72645097D01*
X117768284Y-72810723D01*
X117768276Y-72810734D01*
X117677808Y-72949206D01*
X117624662Y-72994562D01*
X117555431Y-73003986D01*
X117492095Y-72974484D01*
X117470192Y-72949206D01*
X117394602Y-72833508D01*
X117379722Y-72810732D01*
X117379719Y-72810729D01*
X117379715Y-72810723D01*
X117227243Y-72645097D01*
X117227238Y-72645092D01*
X117049577Y-72506812D01*
X117049572Y-72506808D01*
X116851580Y-72399661D01*
X116851577Y-72399659D01*
X116851574Y-72399658D01*
X116851571Y-72399657D01*
X116851569Y-72399656D01*
X116638637Y-72326556D01*
X116416569Y-72289500D01*
X116191431Y-72289500D01*
X115969362Y-72326556D01*
X115756430Y-72399656D01*
X115756419Y-72399661D01*
X115558427Y-72506808D01*
X115558422Y-72506812D01*
X115380761Y-72645092D01*
X115380756Y-72645097D01*
X115228284Y-72810723D01*
X115228276Y-72810734D01*
X115137808Y-72949206D01*
X115084662Y-72994562D01*
X115015431Y-73003986D01*
X114952095Y-72974484D01*
X114930192Y-72949206D01*
X114854602Y-72833508D01*
X114839722Y-72810732D01*
X114839719Y-72810729D01*
X114839715Y-72810723D01*
X114687243Y-72645097D01*
X114687238Y-72645092D01*
X114509577Y-72506812D01*
X114509572Y-72506808D01*
X114311580Y-72399661D01*
X114311577Y-72399659D01*
X114311574Y-72399658D01*
X114311571Y-72399657D01*
X114311569Y-72399656D01*
X114098637Y-72326556D01*
X113876569Y-72289500D01*
X113651431Y-72289500D01*
X113429362Y-72326556D01*
X113216430Y-72399656D01*
X113216419Y-72399661D01*
X113018427Y-72506808D01*
X113018422Y-72506812D01*
X112840761Y-72645092D01*
X112840756Y-72645097D01*
X112688284Y-72810723D01*
X112688276Y-72810734D01*
X112597808Y-72949206D01*
X112544662Y-72994562D01*
X112475431Y-73003986D01*
X112412095Y-72974484D01*
X112390192Y-72949206D01*
X112314602Y-72833508D01*
X112299722Y-72810732D01*
X112299719Y-72810729D01*
X112299715Y-72810723D01*
X112147243Y-72645097D01*
X112147238Y-72645092D01*
X111969577Y-72506812D01*
X111969572Y-72506808D01*
X111771580Y-72399661D01*
X111771577Y-72399659D01*
X111771574Y-72399658D01*
X111771571Y-72399657D01*
X111771569Y-72399656D01*
X111558637Y-72326556D01*
X111336569Y-72289500D01*
X111111431Y-72289500D01*
X110889362Y-72326556D01*
X110676430Y-72399656D01*
X110676419Y-72399661D01*
X110478427Y-72506808D01*
X110478422Y-72506812D01*
X110300761Y-72645092D01*
X110300756Y-72645097D01*
X110148284Y-72810723D01*
X110148276Y-72810734D01*
X110057808Y-72949206D01*
X110004662Y-72994562D01*
X109935431Y-73003986D01*
X109872095Y-72974484D01*
X109850192Y-72949206D01*
X109774602Y-72833508D01*
X109759722Y-72810732D01*
X109759719Y-72810729D01*
X109759715Y-72810723D01*
X109607243Y-72645097D01*
X109607238Y-72645092D01*
X109429577Y-72506812D01*
X109429572Y-72506808D01*
X109231580Y-72399661D01*
X109231577Y-72399659D01*
X109231574Y-72399658D01*
X109231571Y-72399657D01*
X109231569Y-72399656D01*
X109018637Y-72326556D01*
X108796569Y-72289500D01*
X108571431Y-72289500D01*
X108349362Y-72326556D01*
X108136430Y-72399656D01*
X108136419Y-72399661D01*
X107938427Y-72506808D01*
X107938422Y-72506812D01*
X107760761Y-72645092D01*
X107760756Y-72645097D01*
X107608284Y-72810723D01*
X107608276Y-72810734D01*
X107514251Y-72954650D01*
X107461105Y-73000007D01*
X107391873Y-73009430D01*
X107328538Y-72979928D01*
X107308868Y-72957951D01*
X107182113Y-72776926D01*
X107182108Y-72776920D01*
X107015082Y-72609894D01*
X106821578Y-72474399D01*
X106607492Y-72374570D01*
X106607486Y-72374567D01*
X106394000Y-72317364D01*
X106394000Y-73212498D01*
X106286315Y-73163320D01*
X106179763Y-73148000D01*
X106108237Y-73148000D01*
X106001685Y-73163320D01*
X105894000Y-73212498D01*
X105894000Y-72317364D01*
X105893999Y-72317364D01*
X105680513Y-72374567D01*
X105680507Y-72374570D01*
X105466422Y-72474399D01*
X105466420Y-72474400D01*
X105272926Y-72609886D01*
X105272920Y-72609891D01*
X105105891Y-72776920D01*
X105105890Y-72776922D01*
X104975575Y-72963031D01*
X104920998Y-73006655D01*
X104851499Y-73013848D01*
X104789145Y-72982326D01*
X104772425Y-72963031D01*
X104642109Y-72776922D01*
X104642108Y-72776920D01*
X104475082Y-72609894D01*
X104281578Y-72474399D01*
X104067492Y-72374570D01*
X104067486Y-72374567D01*
X103854000Y-72317364D01*
X103854000Y-73212498D01*
X103746315Y-73163320D01*
X103639763Y-73148000D01*
X103568237Y-73148000D01*
X103461685Y-73163320D01*
X103354000Y-73212498D01*
X103354000Y-72400093D01*
X103373685Y-72333054D01*
X103390319Y-72312412D01*
X107249142Y-68453590D01*
X111502913Y-64199819D01*
X111564236Y-64166334D01*
X111590594Y-64163500D01*
X115027062Y-64163500D01*
X115094101Y-64183185D01*
G37*
G04 #@! TD.AperFunction*
G04 #@! TA.AperFunction,Conductor*
G36*
X100179938Y-115296227D02*
G01*
X100183073Y-115301902D01*
X100263015Y-115652930D01*
X100261511Y-115661758D01*
X100256128Y-115666319D01*
X100058521Y-115749105D01*
X100049566Y-115749141D01*
X100049479Y-115749105D01*
X99851871Y-115666319D01*
X99845565Y-115659962D01*
X99844984Y-115652932D01*
X99924927Y-115301901D01*
X99930105Y-115294596D01*
X99936335Y-115292800D01*
X100171665Y-115292800D01*
X100179938Y-115296227D01*
G37*
G04 #@! TD.AperFunction*
G04 #@! TA.AperFunction,Conductor*
G36*
X96816650Y-105148990D02*
G01*
X97375612Y-105380833D01*
X97539487Y-105448804D01*
X97545816Y-105455139D01*
X97546217Y-105462953D01*
X97232145Y-106516799D01*
X97229205Y-106521730D01*
X97060836Y-106690099D01*
X97052563Y-106693526D01*
X97044290Y-106690099D01*
X97043507Y-106689234D01*
X96251134Y-105720565D01*
X96248549Y-105711994D01*
X96251906Y-105704898D01*
X96803890Y-105151533D01*
X96812155Y-105148098D01*
X96816650Y-105148990D01*
G37*
G04 #@! TD.AperFunction*
G04 #@! TA.AperFunction,Conductor*
G36*
X132502098Y-82620927D02*
G01*
X132509404Y-82626105D01*
X132511200Y-82632335D01*
X132511200Y-82867664D01*
X132507773Y-82875937D01*
X132502098Y-82879072D01*
X132151069Y-82959015D01*
X132142241Y-82957511D01*
X132137681Y-82952129D01*
X132054893Y-82754520D01*
X132054858Y-82745566D01*
X132054894Y-82745479D01*
X132104905Y-82626105D01*
X132137681Y-82547869D01*
X132144037Y-82541565D01*
X132151067Y-82540984D01*
X132502098Y-82620927D01*
G37*
G04 #@! TD.AperFunction*
G04 #@! TA.AperFunction,Conductor*
G36*
X143215758Y-82542488D02*
G01*
X143220319Y-82547871D01*
X143303105Y-82745479D01*
X143303141Y-82754434D01*
X143303105Y-82754521D01*
X143220319Y-82952128D01*
X143213962Y-82958434D01*
X143206930Y-82959015D01*
X142855902Y-82879072D01*
X142848596Y-82873894D01*
X142846800Y-82867664D01*
X142846800Y-82632335D01*
X142850227Y-82624062D01*
X142855901Y-82620927D01*
X143206931Y-82540984D01*
X143215758Y-82542488D01*
G37*
G04 #@! TD.AperFunction*
G04 #@! TA.AperFunction,Conductor*
G36*
X123651405Y-101414146D02*
G01*
X123881995Y-101533876D01*
X123887758Y-101540729D01*
X123887430Y-101548693D01*
X123806564Y-101746171D01*
X123800258Y-101752528D01*
X123800171Y-101752564D01*
X123602693Y-101833430D01*
X123593738Y-101833394D01*
X123587876Y-101827996D01*
X123468146Y-101597406D01*
X123467376Y-101588486D01*
X123470256Y-101583745D01*
X123637744Y-101416257D01*
X123646016Y-101412831D01*
X123651405Y-101414146D01*
G37*
G04 #@! TD.AperFunction*
G04 #@! TA.AperFunction,Conductor*
G36*
X123578414Y-101341878D02*
G01*
X123883156Y-101533564D01*
X123888334Y-101540870D01*
X123887753Y-101547902D01*
X123806564Y-101746171D01*
X123800258Y-101752528D01*
X123800171Y-101752564D01*
X123601902Y-101833753D01*
X123592947Y-101833717D01*
X123587564Y-101829156D01*
X123395878Y-101524414D01*
X123394374Y-101515586D01*
X123397507Y-101509913D01*
X123563912Y-101343508D01*
X123572184Y-101340082D01*
X123578414Y-101341878D01*
G37*
G04 #@! TD.AperFunction*
G04 #@! TA.AperFunction,Conductor*
G36*
X107948807Y-93385622D02*
G01*
X107949307Y-93385844D01*
X109225381Y-93989537D01*
X109231393Y-93996171D01*
X109232077Y-94000112D01*
X109232077Y-94239297D01*
X109228650Y-94247570D01*
X109225380Y-94249873D01*
X107949320Y-94853559D01*
X107940376Y-94853999D01*
X107933741Y-94847986D01*
X107933513Y-94847473D01*
X107684213Y-94247570D01*
X107632941Y-94124192D01*
X107632931Y-94115243D01*
X107933513Y-93391935D01*
X107939852Y-93385611D01*
X107948807Y-93385622D01*
G37*
G04 #@! TD.AperFunction*
G04 #@! TA.AperFunction,Conductor*
G36*
X137187535Y-95809763D02*
G01*
X137190805Y-95812066D01*
X137359933Y-95981194D01*
X137363360Y-95989467D01*
X137362676Y-95993408D01*
X136887238Y-97322588D01*
X136881225Y-97329223D01*
X136872281Y-97329663D01*
X136871757Y-97329462D01*
X136147787Y-97030562D01*
X136141448Y-97024237D01*
X136141437Y-97024212D01*
X135842537Y-96300242D01*
X135842548Y-96291287D01*
X135848887Y-96284962D01*
X135849380Y-96284772D01*
X137178591Y-95809323D01*
X137187535Y-95809763D01*
G37*
G04 #@! TD.AperFunction*
G04 #@! TA.AperFunction,Conductor*
G36*
X136880712Y-89106548D02*
G01*
X136887037Y-89112887D01*
X136887238Y-89113411D01*
X137362676Y-90442591D01*
X137362236Y-90451535D01*
X137359933Y-90454805D01*
X137190805Y-90623933D01*
X137182532Y-90627360D01*
X137178591Y-90626676D01*
X135849411Y-90151238D01*
X135842776Y-90145225D01*
X135842336Y-90136281D01*
X135842527Y-90135782D01*
X136141438Y-89411785D01*
X136147762Y-89405448D01*
X136147764Y-89405446D01*
X136871758Y-89106537D01*
X136880712Y-89106548D01*
G37*
G04 #@! TD.AperFunction*
G04 #@! TA.AperFunction,Conductor*
G36*
X127739264Y-63977406D02*
G01*
X127739297Y-63977471D01*
X128507243Y-65501517D01*
X128508494Y-65506782D01*
X128508494Y-65743462D01*
X128505067Y-65751735D01*
X128496794Y-65755162D01*
X128494293Y-65754892D01*
X126555945Y-65330753D01*
X126548596Y-65325636D01*
X126547016Y-65316822D01*
X126547304Y-65315754D01*
X126831513Y-64432619D01*
X126837307Y-64425796D01*
X127723519Y-63972319D01*
X127732444Y-63971602D01*
X127739264Y-63977406D01*
G37*
G04 #@! TD.AperFunction*
G04 #@! TA.AperFunction,Conductor*
G36*
X142729408Y-90729323D02*
G01*
X144058588Y-91204761D01*
X144065223Y-91210774D01*
X144065663Y-91219718D01*
X144065462Y-91220242D01*
X143766562Y-91944212D01*
X143760237Y-91950551D01*
X143760212Y-91950562D01*
X143036242Y-92249462D01*
X143027287Y-92249451D01*
X143020962Y-92243112D01*
X143020761Y-92242588D01*
X142916305Y-91950562D01*
X142545323Y-90913408D01*
X142545763Y-90904464D01*
X142548063Y-90901197D01*
X142717195Y-90732065D01*
X142725467Y-90728639D01*
X142729408Y-90729323D01*
G37*
G04 #@! TD.AperFunction*
G04 #@! TA.AperFunction,Conductor*
G36*
X151118643Y-116711311D02*
G01*
X151123539Y-116714240D01*
X151291974Y-116882675D01*
X151295401Y-116890948D01*
X151291974Y-116899221D01*
X151291162Y-116899961D01*
X150266333Y-117748302D01*
X150257774Y-117750937D01*
X150250609Y-117747572D01*
X149661936Y-117160282D01*
X149658499Y-117152013D01*
X149659392Y-117147517D01*
X149978326Y-116378519D01*
X149984660Y-116372191D01*
X149992510Y-116371800D01*
X151118643Y-116711311D01*
G37*
G04 #@! TD.AperFunction*
G04 #@! TA.AperFunction,Conductor*
G36*
X151389609Y-72702732D02*
G01*
X152448294Y-73467777D01*
X152452992Y-73475399D01*
X152450924Y-73484112D01*
X152449714Y-73485532D01*
X152281654Y-73653592D01*
X152277387Y-73656312D01*
X151116304Y-74079407D01*
X151107357Y-74079020D01*
X151101491Y-74072896D01*
X150782794Y-73304470D01*
X150782790Y-73295515D01*
X150785335Y-73291708D01*
X151374496Y-72703931D01*
X151382771Y-72700516D01*
X151389609Y-72702732D01*
G37*
G04 #@! TD.AperFunction*
G04 #@! TA.AperFunction,Conductor*
G36*
X96382768Y-64976436D02*
G01*
X96389093Y-64982775D01*
X96389082Y-64991730D01*
X96388854Y-64992243D01*
X95785168Y-66268303D01*
X95778533Y-66274316D01*
X95774592Y-66275000D01*
X95535408Y-66275000D01*
X95527135Y-66271573D01*
X95524832Y-66268303D01*
X94921145Y-64992243D01*
X94920705Y-64983299D01*
X94926718Y-64976664D01*
X94927211Y-64976444D01*
X95650512Y-64675864D01*
X95659461Y-64675854D01*
X96382768Y-64976436D01*
G37*
G04 #@! TD.AperFunction*
G04 #@! TA.AperFunction,Conductor*
G36*
X129158495Y-112004748D02*
G01*
X129790210Y-112265437D01*
X129796550Y-112271760D01*
X129796562Y-112271789D01*
X130057249Y-112903500D01*
X130057237Y-112912455D01*
X130050897Y-112918778D01*
X130050501Y-112918933D01*
X128900887Y-113345143D01*
X128891939Y-113344806D01*
X128888547Y-113342446D01*
X128719553Y-113173452D01*
X128716126Y-113165179D01*
X128716856Y-113161112D01*
X128806642Y-112918933D01*
X129143066Y-112011497D01*
X129149155Y-112004932D01*
X129158103Y-112004595D01*
X129158495Y-112004748D01*
G37*
G04 #@! TD.AperFunction*
G04 #@! TA.AperFunction,Conductor*
G36*
X148136230Y-84946532D02*
G01*
X148860212Y-85245437D01*
X148866551Y-85251762D01*
X148866562Y-85251787D01*
X149165462Y-85975757D01*
X149165451Y-85984712D01*
X149159112Y-85991037D01*
X149158588Y-85991238D01*
X147829408Y-86466676D01*
X147820464Y-86466236D01*
X147817194Y-86463933D01*
X147648066Y-86294805D01*
X147644639Y-86286532D01*
X147645323Y-86282591D01*
X147751017Y-85987104D01*
X148120762Y-84953409D01*
X148126774Y-84946776D01*
X148135718Y-84946336D01*
X148136230Y-84946532D01*
G37*
G04 #@! TD.AperFunction*
G04 #@! TA.AperFunction,Conductor*
G36*
X130666060Y-116271193D02*
G01*
X130669452Y-116273553D01*
X130838446Y-116442547D01*
X130841873Y-116450820D01*
X130841143Y-116454887D01*
X130414933Y-117604501D01*
X130408844Y-117611067D01*
X130399896Y-117611404D01*
X130399500Y-117611249D01*
X129767789Y-117350562D01*
X129761449Y-117344239D01*
X129761437Y-117344210D01*
X129500750Y-116712499D01*
X129500762Y-116703544D01*
X129507102Y-116697221D01*
X129507476Y-116697074D01*
X130657112Y-116270856D01*
X130666060Y-116271193D01*
G37*
G04 #@! TD.AperFunction*
G04 #@! TA.AperFunction,Conductor*
G36*
X135109408Y-90729323D02*
G01*
X136438588Y-91204761D01*
X136445223Y-91210774D01*
X136445663Y-91219718D01*
X136445462Y-91220242D01*
X136146562Y-91944212D01*
X136140237Y-91950551D01*
X136140212Y-91950562D01*
X135416242Y-92249462D01*
X135407287Y-92249451D01*
X135400962Y-92243112D01*
X135400761Y-92242588D01*
X135296305Y-91950562D01*
X134925323Y-90913408D01*
X134925763Y-90904464D01*
X134928063Y-90901197D01*
X135097195Y-90732065D01*
X135105467Y-90728639D01*
X135109408Y-90729323D01*
G37*
G04 #@! TD.AperFunction*
G04 #@! TA.AperFunction,Conductor*
G36*
X142495311Y-85415446D02*
G01*
X144026658Y-86039976D01*
X144084489Y-86063562D01*
X144090856Y-86069860D01*
X144090905Y-86078814D01*
X144090885Y-86078862D01*
X143766562Y-86864214D01*
X143760237Y-86870553D01*
X143760214Y-86870562D01*
X142974862Y-87194884D01*
X142965907Y-87194875D01*
X142959582Y-87188536D01*
X142959562Y-87188488D01*
X142507022Y-86078862D01*
X142311447Y-85599312D01*
X142311496Y-85590359D01*
X142314005Y-85586625D01*
X142482623Y-85418007D01*
X142490895Y-85414581D01*
X142495311Y-85415446D01*
G37*
G04 #@! TD.AperFunction*
G04 #@! TA.AperFunction,Conductor*
G36*
X95412372Y-84583668D02*
G01*
X96917845Y-85248321D01*
X96924030Y-85254796D01*
X96924820Y-85259023D01*
X96924820Y-85498134D01*
X96921393Y-85506407D01*
X96918309Y-85508621D01*
X95574918Y-86173321D01*
X95565983Y-86173918D01*
X95559356Y-86168247D01*
X95149448Y-85382708D01*
X95148659Y-85373790D01*
X95396500Y-84590842D01*
X95402263Y-84583990D01*
X95411185Y-84583220D01*
X95412372Y-84583668D01*
G37*
G04 #@! TD.AperFunction*
G04 #@! TA.AperFunction,Conductor*
G36*
X135416230Y-91646532D02*
G01*
X136140212Y-91945437D01*
X136146551Y-91951762D01*
X136146562Y-91951787D01*
X136445462Y-92675757D01*
X136445451Y-92684712D01*
X136439112Y-92691037D01*
X136438588Y-92691238D01*
X135109408Y-93166676D01*
X135100464Y-93166236D01*
X135097194Y-93163933D01*
X134928066Y-92994805D01*
X134924639Y-92986532D01*
X134925323Y-92982591D01*
X135031017Y-92687104D01*
X135400762Y-91653409D01*
X135406774Y-91646776D01*
X135415718Y-91646336D01*
X135416230Y-91646532D01*
G37*
G04 #@! TD.AperFunction*
G04 #@! TA.AperFunction,Conductor*
G36*
X110314898Y-123709710D02*
G01*
X111200215Y-124075437D01*
X111206553Y-124081763D01*
X111206562Y-124081784D01*
X111572271Y-124967056D01*
X111572262Y-124976011D01*
X111565924Y-124982337D01*
X111565794Y-124982389D01*
X109764566Y-125701340D01*
X109755612Y-125701225D01*
X109751956Y-125698747D01*
X109583252Y-125530043D01*
X109579825Y-125521770D01*
X109580658Y-125517437D01*
X110299611Y-123716203D01*
X110305859Y-123709791D01*
X110314813Y-123709676D01*
X110314898Y-123709710D01*
G37*
G04 #@! TD.AperFunction*
G04 #@! TA.AperFunction,Conductor*
G36*
X87824898Y-86029710D02*
G01*
X88710215Y-86395437D01*
X88716553Y-86401763D01*
X88716562Y-86401784D01*
X89082271Y-87287056D01*
X89082262Y-87296011D01*
X89075924Y-87302337D01*
X89075794Y-87302389D01*
X87274566Y-88021340D01*
X87265612Y-88021225D01*
X87261956Y-88018747D01*
X87093252Y-87850043D01*
X87089825Y-87841770D01*
X87090658Y-87837437D01*
X87809611Y-86036203D01*
X87815859Y-86029791D01*
X87824813Y-86029676D01*
X87824898Y-86029710D01*
G37*
G04 #@! TD.AperFunction*
G04 #@! TA.AperFunction,Conductor*
G36*
X138316060Y-111191193D02*
G01*
X138319452Y-111193553D01*
X138488446Y-111362547D01*
X138491873Y-111370820D01*
X138491143Y-111374887D01*
X138064933Y-112524501D01*
X138058844Y-112531067D01*
X138049896Y-112531404D01*
X138049500Y-112531249D01*
X137417789Y-112270562D01*
X137411449Y-112264239D01*
X137411437Y-112264210D01*
X137150750Y-111632499D01*
X137150762Y-111623544D01*
X137157102Y-111617221D01*
X137157476Y-111617074D01*
X138307112Y-111190856D01*
X138316060Y-111191193D01*
G37*
G04 #@! TD.AperFunction*
G04 #@! TA.AperFunction,Conductor*
G36*
X136880712Y-86566548D02*
G01*
X136887037Y-86572887D01*
X136887238Y-86573411D01*
X137362676Y-87902591D01*
X137362236Y-87911535D01*
X137359933Y-87914805D01*
X137190805Y-88083933D01*
X137182532Y-88087360D01*
X137178591Y-88086676D01*
X135849411Y-87611238D01*
X135842776Y-87605225D01*
X135842336Y-87596281D01*
X135842527Y-87595782D01*
X136141438Y-86871785D01*
X136147762Y-86865448D01*
X136147764Y-86865446D01*
X136871758Y-86566537D01*
X136880712Y-86566548D01*
G37*
G04 #@! TD.AperFunction*
G04 #@! TA.AperFunction,Conductor*
G36*
X122879520Y-63402132D02*
G01*
X124283348Y-63527052D01*
X124291285Y-63531199D01*
X124294011Y-63538693D01*
X124294991Y-64420169D01*
X124291573Y-64428446D01*
X124287764Y-64430993D01*
X123472313Y-64768358D01*
X123463358Y-64768354D01*
X123457516Y-64763051D01*
X122868168Y-63657581D01*
X122866792Y-63652077D01*
X122866792Y-63413787D01*
X122870219Y-63405514D01*
X122878492Y-63402087D01*
X122879520Y-63402132D01*
G37*
G04 #@! TD.AperFunction*
G04 #@! TA.AperFunction,Conductor*
G36*
X89899000Y-87578335D02*
G01*
X89902176Y-87580593D01*
X90071406Y-87749823D01*
X90074833Y-87758096D01*
X90074184Y-87761939D01*
X89549560Y-89270715D01*
X89543606Y-89277403D01*
X89534666Y-89277923D01*
X89534043Y-89277686D01*
X88717785Y-88940562D01*
X88711446Y-88934236D01*
X88711437Y-88934214D01*
X88374313Y-88117956D01*
X88374322Y-88109002D01*
X88380661Y-88102676D01*
X88381251Y-88102451D01*
X89890060Y-87577815D01*
X89899000Y-87578335D01*
G37*
G04 #@! TD.AperFunction*
G04 #@! TA.AperFunction,Conductor*
G36*
X150166060Y-98082623D02*
G01*
X150169487Y-98090896D01*
X150169269Y-98093144D01*
X149905848Y-99438558D01*
X149900895Y-99446019D01*
X149894379Y-99448010D01*
X149011830Y-99448991D01*
X149003553Y-99445573D01*
X149001006Y-99441764D01*
X148999680Y-99438558D01*
X148664007Y-98627196D01*
X148664011Y-98618243D01*
X148670223Y-98611965D01*
X149915798Y-98080135D01*
X149920392Y-98079196D01*
X150157787Y-98079196D01*
X150166060Y-98082623D01*
G37*
G04 #@! TD.AperFunction*
G04 #@! TA.AperFunction,Conductor*
G36*
X125479000Y-63068335D02*
G01*
X125482176Y-63070593D01*
X125651406Y-63239823D01*
X125654833Y-63248096D01*
X125654184Y-63251939D01*
X125129560Y-64760715D01*
X125123606Y-64767403D01*
X125114666Y-64767923D01*
X125114043Y-64767686D01*
X124297785Y-64430562D01*
X124291446Y-64424236D01*
X124291437Y-64424214D01*
X123954313Y-63607956D01*
X123954322Y-63599002D01*
X123960661Y-63592676D01*
X123961251Y-63592451D01*
X125470060Y-63067815D01*
X125479000Y-63068335D01*
G37*
G04 #@! TD.AperFunction*
G04 #@! TA.AperFunction,Conductor*
G36*
X112108940Y-123649837D02*
G01*
X112109026Y-123650018D01*
X112845090Y-125229650D01*
X112846185Y-125234592D01*
X112846185Y-125470866D01*
X112842758Y-125479139D01*
X112834485Y-125482566D01*
X112831539Y-125482189D01*
X110905863Y-124981180D01*
X110898719Y-124975781D01*
X110897486Y-124966911D01*
X110897744Y-124966054D01*
X111201423Y-124082587D01*
X111207349Y-124075882D01*
X112093299Y-123644440D01*
X112102237Y-123643900D01*
X112108940Y-123649837D01*
G37*
G04 #@! TD.AperFunction*
G04 #@! TA.AperFunction,Conductor*
G36*
X135416230Y-101806532D02*
G01*
X136140212Y-102105437D01*
X136146551Y-102111762D01*
X136146562Y-102111787D01*
X136445462Y-102835757D01*
X136445451Y-102844712D01*
X136439112Y-102851037D01*
X136438588Y-102851238D01*
X135109408Y-103326676D01*
X135100464Y-103326236D01*
X135097194Y-103323933D01*
X134928066Y-103154805D01*
X134924639Y-103146532D01*
X134925323Y-103142591D01*
X135031017Y-102847104D01*
X135400762Y-101813409D01*
X135406774Y-101806776D01*
X135415718Y-101806336D01*
X135416230Y-101806532D01*
G37*
G04 #@! TD.AperFunction*
G04 #@! TA.AperFunction,Conductor*
G36*
X114601784Y-98791793D02*
G01*
X114608109Y-98798132D01*
X114608098Y-98807087D01*
X114607870Y-98807600D01*
X114004184Y-100083660D01*
X113997549Y-100089673D01*
X113993608Y-100090357D01*
X113754424Y-100090357D01*
X113746151Y-100086930D01*
X113743848Y-100083660D01*
X113140161Y-98807600D01*
X113139721Y-98798656D01*
X113145734Y-98792021D01*
X113146227Y-98791801D01*
X113869528Y-98491221D01*
X113878477Y-98491211D01*
X114601784Y-98791793D01*
G37*
G04 #@! TD.AperFunction*
G04 #@! TA.AperFunction,Conductor*
G36*
X120720649Y-121591085D02*
G01*
X122078855Y-122528638D01*
X122083716Y-122536158D01*
X122081837Y-122544914D01*
X122080490Y-122546531D01*
X121458139Y-123170267D01*
X121449870Y-123173703D01*
X121449848Y-123173703D01*
X120565518Y-123173009D01*
X120557247Y-123169576D01*
X120553828Y-123161483D01*
X120544516Y-122536604D01*
X120533093Y-121770096D01*
X120536396Y-121761775D01*
X120705730Y-121592440D01*
X120714002Y-121589014D01*
X120720649Y-121591085D01*
G37*
G04 #@! TD.AperFunction*
G04 #@! TA.AperFunction,Conductor*
G36*
X135416230Y-94186532D02*
G01*
X136140212Y-94485437D01*
X136146551Y-94491762D01*
X136146562Y-94491787D01*
X136445462Y-95215757D01*
X136445451Y-95224712D01*
X136439112Y-95231037D01*
X136438588Y-95231238D01*
X135109408Y-95706676D01*
X135100464Y-95706236D01*
X135097194Y-95703933D01*
X134928066Y-95534805D01*
X134924639Y-95526532D01*
X134925323Y-95522591D01*
X135031017Y-95227104D01*
X135400762Y-94193409D01*
X135406774Y-94186776D01*
X135415718Y-94186336D01*
X135416230Y-94186532D01*
G37*
G04 #@! TD.AperFunction*
G04 #@! TA.AperFunction,Conductor*
G36*
X135109408Y-100889323D02*
G01*
X136438588Y-101364761D01*
X136445223Y-101370774D01*
X136445663Y-101379718D01*
X136445462Y-101380242D01*
X136146562Y-102104212D01*
X136140237Y-102110551D01*
X136140212Y-102110562D01*
X135416242Y-102409462D01*
X135407287Y-102409451D01*
X135400962Y-102403112D01*
X135400761Y-102402588D01*
X135296305Y-102110562D01*
X134925323Y-101073408D01*
X134925763Y-101064464D01*
X134928063Y-101061197D01*
X135097195Y-100892065D01*
X135105467Y-100888639D01*
X135109408Y-100889323D01*
G37*
G04 #@! TD.AperFunction*
G04 #@! TA.AperFunction,Conductor*
G36*
X137662515Y-116706175D02*
G01*
X137662875Y-116706332D01*
X138777182Y-117217870D01*
X138783270Y-117224435D01*
X138784000Y-117228502D01*
X138784000Y-117467497D01*
X138780573Y-117475770D01*
X138777181Y-117478130D01*
X137662904Y-117989654D01*
X137653956Y-117989991D01*
X137647390Y-117983902D01*
X137647220Y-117983513D01*
X137384866Y-117352490D01*
X137384855Y-117343538D01*
X137647221Y-116712484D01*
X137653560Y-116706163D01*
X137662515Y-116706175D01*
G37*
G04 #@! TD.AperFunction*
G04 #@! TA.AperFunction,Conductor*
G36*
X149336224Y-116379812D02*
G01*
X149337165Y-116381615D01*
X149656233Y-117149555D01*
X149656242Y-117158510D01*
X149656233Y-117158533D01*
X149336048Y-117929159D01*
X149329709Y-117935484D01*
X149321402Y-117935722D01*
X148003538Y-117477731D01*
X147996849Y-117471778D01*
X147995679Y-117466679D01*
X147995679Y-117227414D01*
X147999106Y-117219141D01*
X148001083Y-117217552D01*
X149320069Y-116376239D01*
X149328886Y-116374680D01*
X149336224Y-116379812D01*
G37*
G04 #@! TD.AperFunction*
G04 #@! TA.AperFunction,Conductor*
G36*
X123150104Y-73327427D02*
G01*
X123920215Y-73645438D01*
X123926552Y-73651761D01*
X123926562Y-73651785D01*
X124244572Y-74421896D01*
X124244563Y-74430851D01*
X124238224Y-74437176D01*
X124237647Y-74437397D01*
X122818671Y-74937434D01*
X122809729Y-74936952D01*
X122806509Y-74934672D01*
X122637327Y-74765490D01*
X122633900Y-74757217D01*
X122634565Y-74753328D01*
X122745975Y-74437176D01*
X123134603Y-73334350D01*
X123140584Y-73327688D01*
X123149526Y-73327206D01*
X123150104Y-73327427D01*
G37*
G04 #@! TD.AperFunction*
G04 #@! TA.AperFunction,Conductor*
G36*
X128185935Y-100316049D02*
G01*
X129881138Y-100999587D01*
X129887530Y-101005859D01*
X129887614Y-101014813D01*
X129887577Y-101014905D01*
X129542562Y-101850215D01*
X129536236Y-101856553D01*
X129536215Y-101856562D01*
X128700905Y-102201577D01*
X128691950Y-102201568D01*
X128685624Y-102195230D01*
X128685587Y-102195138D01*
X128548319Y-101854707D01*
X128002050Y-100499936D01*
X128002134Y-100490984D01*
X128004625Y-100487293D01*
X128173291Y-100318627D01*
X128181563Y-100315201D01*
X128185935Y-100316049D01*
G37*
G04 #@! TD.AperFunction*
G04 #@! TA.AperFunction,Conductor*
G36*
X123928489Y-76188865D02*
G01*
X124697906Y-76508548D01*
X124704231Y-76514887D01*
X124704222Y-76523842D01*
X124703970Y-76524406D01*
X124054183Y-77881353D01*
X124047519Y-77887335D01*
X124043630Y-77888000D01*
X123804370Y-77888000D01*
X123796097Y-77884573D01*
X123793817Y-77881353D01*
X123144029Y-76524406D01*
X123143547Y-76515464D01*
X123149529Y-76508800D01*
X123150093Y-76508548D01*
X123919511Y-76188865D01*
X123928466Y-76188856D01*
X123928489Y-76188865D01*
G37*
G04 #@! TD.AperFunction*
G04 #@! TA.AperFunction,Conductor*
G36*
X130974670Y-100564564D02*
G01*
X132393647Y-101064602D01*
X132400311Y-101070584D01*
X132400793Y-101079526D01*
X132400572Y-101080103D01*
X132082562Y-101850214D01*
X132076237Y-101856553D01*
X132076214Y-101856562D01*
X131306103Y-102174572D01*
X131297148Y-102174563D01*
X131290823Y-102168224D01*
X131290602Y-102167647D01*
X130790565Y-100748671D01*
X130791047Y-100739729D01*
X130793324Y-100736512D01*
X130962510Y-100567326D01*
X130970782Y-100563900D01*
X130974670Y-100564564D01*
G37*
G04 #@! TD.AperFunction*
G04 #@! TA.AperFunction,Conductor*
G36*
X115007209Y-121622193D02*
G01*
X116735457Y-122268759D01*
X116742005Y-122274867D01*
X116742315Y-122283817D01*
X116742171Y-122284184D01*
X116376562Y-123169215D01*
X116370236Y-123175553D01*
X116370215Y-123175562D01*
X115485184Y-123541171D01*
X115476229Y-123541162D01*
X115469903Y-123534824D01*
X115469759Y-123534457D01*
X114823194Y-121806210D01*
X114823504Y-121797262D01*
X114825876Y-121793842D01*
X114994840Y-121624878D01*
X115003112Y-121621452D01*
X115007209Y-121622193D01*
G37*
G04 #@! TD.AperFunction*
G04 #@! TA.AperFunction,Conductor*
G36*
X90841770Y-91289836D02*
G01*
X90848096Y-91296174D01*
X90848240Y-91296541D01*
X91494805Y-93024787D01*
X91494495Y-93033737D01*
X91492120Y-93037160D01*
X91323160Y-93206120D01*
X91314887Y-93209547D01*
X91310787Y-93208805D01*
X89582541Y-92562240D01*
X89575993Y-92556132D01*
X89575683Y-92547182D01*
X89575816Y-92546842D01*
X89941438Y-91661782D01*
X89947762Y-91655446D01*
X90832816Y-91289827D01*
X90841770Y-91289836D01*
G37*
G04 #@! TD.AperFunction*
G04 #@! TA.AperFunction,Conductor*
G36*
X95880887Y-116270856D02*
G01*
X97030501Y-116697066D01*
X97037067Y-116703155D01*
X97037404Y-116712103D01*
X97037249Y-116712499D01*
X96776562Y-117344210D01*
X96770239Y-117350550D01*
X96770210Y-117350562D01*
X96138499Y-117611249D01*
X96129544Y-117611237D01*
X96123221Y-117604897D01*
X96123066Y-117604501D01*
X95696856Y-116454887D01*
X95697193Y-116445939D01*
X95699550Y-116442550D01*
X95868548Y-116273552D01*
X95876820Y-116270126D01*
X95880887Y-116270856D01*
G37*
G04 #@! TD.AperFunction*
G04 #@! TA.AperFunction,Conductor*
G36*
X93376602Y-102534366D02*
G01*
X93382927Y-102540705D01*
X93382916Y-102549660D01*
X93382688Y-102550173D01*
X92779002Y-103826233D01*
X92772367Y-103832246D01*
X92768426Y-103832930D01*
X92529242Y-103832930D01*
X92520969Y-103829503D01*
X92518666Y-103826233D01*
X91914979Y-102550173D01*
X91914539Y-102541229D01*
X91920552Y-102534594D01*
X91921045Y-102534374D01*
X92644346Y-102233794D01*
X92653295Y-102233784D01*
X93376602Y-102534366D01*
G37*
G04 #@! TD.AperFunction*
G04 #@! TA.AperFunction,Conductor*
G36*
X92012960Y-110318862D02*
G01*
X92019283Y-110325201D01*
X92019272Y-110334156D01*
X92019089Y-110334574D01*
X91489139Y-111481209D01*
X91482557Y-111487281D01*
X91478518Y-111488000D01*
X91239482Y-111488000D01*
X91231209Y-111484573D01*
X91228861Y-111481209D01*
X90698910Y-110334574D01*
X90698550Y-110325626D01*
X90704622Y-110319044D01*
X90704983Y-110318885D01*
X91354511Y-110048865D01*
X91363462Y-110048855D01*
X92012960Y-110318862D01*
G37*
G04 #@! TD.AperFunction*
G04 #@! TA.AperFunction,Conductor*
G36*
X90056060Y-116271193D02*
G01*
X90059452Y-116273553D01*
X90228446Y-116442547D01*
X90231873Y-116450820D01*
X90231143Y-116454887D01*
X89804933Y-117604501D01*
X89798844Y-117611067D01*
X89789896Y-117611404D01*
X89789500Y-117611249D01*
X89157789Y-117350562D01*
X89151449Y-117344239D01*
X89151437Y-117344210D01*
X88890750Y-116712499D01*
X88890762Y-116703544D01*
X88897102Y-116697221D01*
X88897476Y-116697074D01*
X90047112Y-116270856D01*
X90056060Y-116271193D01*
G37*
G04 #@! TD.AperFunction*
G04 #@! TA.AperFunction,Conductor*
G36*
X98375065Y-123803227D02*
G01*
X98377368Y-123806497D01*
X98981054Y-125082556D01*
X98981494Y-125091500D01*
X98975481Y-125098135D01*
X98974968Y-125098363D01*
X98251690Y-125398934D01*
X98242736Y-125398944D01*
X98242710Y-125398934D01*
X97519431Y-125098363D01*
X97513106Y-125092024D01*
X97513117Y-125083069D01*
X97513332Y-125082585D01*
X98117032Y-123806497D01*
X98123667Y-123800484D01*
X98127608Y-123799800D01*
X98366792Y-123799800D01*
X98375065Y-123803227D01*
G37*
G04 #@! TD.AperFunction*
G04 #@! TA.AperFunction,Conductor*
G36*
X106485587Y-112129651D02*
G01*
X107209569Y-112428556D01*
X107215908Y-112434881D01*
X107215919Y-112434906D01*
X107514819Y-113158876D01*
X107514808Y-113167831D01*
X107508469Y-113174156D01*
X107507945Y-113174357D01*
X106178765Y-113649795D01*
X106169821Y-113649355D01*
X106166551Y-113647052D01*
X105997423Y-113477924D01*
X105993996Y-113469651D01*
X105994680Y-113465710D01*
X106100374Y-113170223D01*
X106470119Y-112136528D01*
X106476131Y-112129895D01*
X106485075Y-112129455D01*
X106485587Y-112129651D01*
G37*
G04 #@! TD.AperFunction*
M02*
