G04 #@! TF.GenerationSoftware,KiCad,Pcbnew,7.0.11+dfsg-1build4*
G04 #@! TF.CreationDate,2024-12-30T17:53:09+00:00*
G04 #@! TF.ProjectId,Swarm-B_20230626,53776172-6d2d-4425-9f32-303233303632,rev?*
G04 #@! TF.SameCoordinates,Original*
G04 #@! TF.FileFunction,Copper,L1,Top*
G04 #@! TF.FilePolarity,Positive*
%FSLAX46Y46*%
G04 Gerber Fmt 4.6, Leading zero omitted, Abs format (unit mm)*
G04 Created by KiCad (PCBNEW 7.0.11+dfsg-1build4) date 2024-12-30 17:53:09*
%MOMM*%
%LPD*%
G01*
G04 APERTURE LIST*
G04 Aperture macros list*
%AMRoundRect*
0 Rectangle with rounded corners*
0 $1 Rounding radius*
0 $2 $3 $4 $5 $6 $7 $8 $9 X,Y pos of 4 corners*
0 Add a 4 corners polygon primitive as box body*
4,1,4,$2,$3,$4,$5,$6,$7,$8,$9,$2,$3,0*
0 Add four circle primitives for the rounded corners*
1,1,$1+$1,$2,$3*
1,1,$1+$1,$4,$5*
1,1,$1+$1,$6,$7*
1,1,$1+$1,$8,$9*
0 Add four rect primitives between the rounded corners*
20,1,$1+$1,$2,$3,$4,$5,0*
20,1,$1+$1,$4,$5,$6,$7,0*
20,1,$1+$1,$6,$7,$8,$9,0*
20,1,$1+$1,$8,$9,$2,$3,0*%
%AMHorizOval*
0 Thick line with rounded ends*
0 $1 width*
0 $2 $3 position (X,Y) of the first rounded end (center of the circle)*
0 $4 $5 position (X,Y) of the second rounded end (center of the circle)*
0 Add line between two ends*
20,1,$1,$2,$3,$4,$5,0*
0 Add two circle primitives to create the rounded ends*
1,1,$1,$2,$3*
1,1,$1,$4,$5*%
%AMRotRect*
0 Rectangle, with rotation*
0 The origin of the aperture is its center*
0 $1 length*
0 $2 width*
0 $3 Rotation angle, in degrees counterclockwise*
0 Add horizontal line*
21,1,$1,$2,0,0,$3*%
G04 Aperture macros list end*
G04 #@! TA.AperFunction,ComponentPad*
%ADD10C,1.800000*%
G04 #@! TD*
G04 #@! TA.AperFunction,ComponentPad*
%ADD11R,1.800000X1.800000*%
G04 #@! TD*
G04 #@! TA.AperFunction,ComponentPad*
%ADD12RoundRect,0.248400X-0.651600X0.651600X-0.651600X-0.651600X0.651600X-0.651600X0.651600X0.651600X0*%
G04 #@! TD*
G04 #@! TA.AperFunction,ComponentPad*
%ADD13O,1.700000X1.700000*%
G04 #@! TD*
G04 #@! TA.AperFunction,ComponentPad*
%ADD14R,1.700000X1.700000*%
G04 #@! TD*
G04 #@! TA.AperFunction,ComponentPad*
%ADD15C,1.600000*%
G04 #@! TD*
G04 #@! TA.AperFunction,ComponentPad*
%ADD16O,1.400000X1.400000*%
G04 #@! TD*
G04 #@! TA.AperFunction,ComponentPad*
%ADD17C,1.400000*%
G04 #@! TD*
G04 #@! TA.AperFunction,ComponentPad*
%ADD18C,2.000000*%
G04 #@! TD*
G04 #@! TA.AperFunction,ComponentPad*
%ADD19RotRect,1.800000X1.800000X315.000000*%
G04 #@! TD*
G04 #@! TA.AperFunction,ComponentPad*
%ADD20RotRect,1.800000X1.800000X45.000000*%
G04 #@! TD*
G04 #@! TA.AperFunction,ComponentPad*
%ADD21HorizOval,1.700000X0.000000X0.000000X0.000000X0.000000X0*%
G04 #@! TD*
G04 #@! TA.AperFunction,ComponentPad*
%ADD22RotRect,1.700000X1.700000X25.000000*%
G04 #@! TD*
G04 #@! TA.AperFunction,ComponentPad*
%ADD23RoundRect,0.248400X-0.651600X-0.651600X0.651600X-0.651600X0.651600X0.651600X-0.651600X0.651600X0*%
G04 #@! TD*
G04 #@! TA.AperFunction,ComponentPad*
%ADD24HorizOval,1.700000X0.000000X0.000000X0.000000X0.000000X0*%
G04 #@! TD*
G04 #@! TA.AperFunction,ComponentPad*
%ADD25RotRect,1.700000X1.700000X335.000000*%
G04 #@! TD*
G04 #@! TA.AperFunction,ComponentPad*
%ADD26RoundRect,0.248400X0.651600X-0.651600X0.651600X0.651600X-0.651600X0.651600X-0.651600X-0.651600X0*%
G04 #@! TD*
G04 #@! TA.AperFunction,ComponentPad*
%ADD27RoundRect,0.248400X0.651600X0.651600X-0.651600X0.651600X-0.651600X-0.651600X0.651600X-0.651600X0*%
G04 #@! TD*
G04 #@! TA.AperFunction,ComponentPad*
%ADD28RotRect,1.800000X1.800000X225.000000*%
G04 #@! TD*
G04 #@! TA.AperFunction,ComponentPad*
%ADD29RotRect,1.800000X1.800000X135.000000*%
G04 #@! TD*
G04 #@! TA.AperFunction,ComponentPad*
%ADD30HorizOval,1.600000X0.000000X0.000000X0.000000X0.000000X0*%
G04 #@! TD*
G04 #@! TA.AperFunction,ComponentPad*
%ADD31RotRect,1.600000X1.600000X235.000000*%
G04 #@! TD*
G04 #@! TA.AperFunction,ComponentPad*
%ADD32O,1.600000X1.600000*%
G04 #@! TD*
G04 #@! TA.AperFunction,ComponentPad*
%ADD33R,1.600000X1.600000*%
G04 #@! TD*
G04 #@! TA.AperFunction,ComponentPad*
%ADD34C,1.440000*%
G04 #@! TD*
G04 #@! TA.AperFunction,ViaPad*
%ADD35C,0.600000*%
G04 #@! TD*
G04 #@! TA.AperFunction,Conductor*
%ADD36C,0.254000*%
G04 #@! TD*
G04 APERTURE END LIST*
D10*
X120274000Y-126310000D03*
D11*
X117734000Y-126310000D03*
D10*
X117404000Y-62020000D03*
D11*
X119944000Y-62020000D03*
D10*
X86714000Y-95560000D03*
D11*
X86714000Y-93020000D03*
D10*
X151534000Y-93260000D03*
D11*
X151534000Y-95800000D03*
D10*
X89944000Y-96738000D03*
X89944000Y-94198000D03*
D12*
X89944000Y-91658000D03*
D13*
X103594000Y-81788000D03*
D14*
X103594000Y-84328000D03*
D15*
X148864000Y-88248000D03*
X148864000Y-85248000D03*
D13*
X132080000Y-101854000D03*
D14*
X129540000Y-101854000D03*
D13*
X129540000Y-86614000D03*
D14*
X132080000Y-86614000D03*
D13*
X129540000Y-89154000D03*
D14*
X132080000Y-89154000D03*
D16*
X89154000Y-117348000D03*
D17*
X96774000Y-117348000D03*
D16*
X129764000Y-117348000D03*
D17*
X137384000Y-117348000D03*
D13*
X106032000Y-65024000D03*
D14*
X103492000Y-65024000D03*
D18*
X89254000Y-75458000D03*
X89254000Y-81958000D03*
X84754000Y-75458000D03*
X84754000Y-81958000D03*
D15*
X98253076Y-63175000D03*
X95655000Y-64675000D03*
D13*
X138294000Y-64400000D03*
X135754000Y-64400000D03*
X133214000Y-64400000D03*
D14*
X130674000Y-64400000D03*
D10*
X92333951Y-122349951D03*
D19*
X90537900Y-120553900D03*
D16*
X129794000Y-112268000D03*
D17*
X137414000Y-112268000D03*
D15*
X95649124Y-123899800D03*
X98247200Y-125399800D03*
D16*
X129724000Y-114808000D03*
D17*
X137344000Y-114808000D03*
D10*
X147260051Y-120643949D03*
D20*
X145464000Y-122440000D03*
D21*
X152413951Y-78929965D03*
X151340501Y-76627944D03*
X150267050Y-74325922D03*
D22*
X149193600Y-72023900D03*
D10*
X121454000Y-123173000D03*
X118914000Y-123173000D03*
D23*
X116374000Y-123173000D03*
D24*
X149264049Y-116379965D03*
X150337499Y-114077944D03*
X151410950Y-111775922D03*
D25*
X152484400Y-109473900D03*
D10*
X148239000Y-91960000D03*
X148239000Y-94500000D03*
D26*
X148239000Y-97040000D03*
D10*
X116224000Y-65250000D03*
X118764000Y-65250000D03*
D27*
X121304000Y-65250000D03*
D10*
X90494049Y-68029951D03*
D28*
X92290100Y-66233900D03*
D10*
X145447949Y-66443949D03*
D29*
X147244000Y-68240000D03*
D30*
X86406895Y-97862277D03*
X88487541Y-99319161D03*
X90568187Y-100776045D03*
X92648834Y-102232930D03*
X94729480Y-103689814D03*
X96810126Y-105146698D03*
X98890772Y-106603582D03*
X100971418Y-108060466D03*
X103052065Y-109517350D03*
X105132711Y-110974234D03*
X107213357Y-112431119D03*
X109294003Y-113888003D03*
X111374649Y-115344887D03*
X113455296Y-116801771D03*
X115535942Y-118258655D03*
X124277247Y-105774778D03*
X122196601Y-104317894D03*
X120115954Y-102861010D03*
X118035308Y-101404126D03*
X115954662Y-99947241D03*
X113874016Y-98490357D03*
X111793370Y-97033473D03*
X109712723Y-95576589D03*
X107632077Y-94119705D03*
X105551431Y-92662821D03*
X103470785Y-91205937D03*
X101390139Y-89749052D03*
X99309492Y-88292168D03*
X97228846Y-86835284D03*
D31*
X95148200Y-85378400D03*
D32*
X136144000Y-86868000D03*
X136144000Y-89408000D03*
X136144000Y-91948000D03*
X136144000Y-94488000D03*
X136144000Y-97028000D03*
X136144000Y-99568000D03*
X136144000Y-102108000D03*
X143764000Y-102108000D03*
X143764000Y-99568000D03*
X143764000Y-97028000D03*
X143764000Y-94488000D03*
X143764000Y-91948000D03*
X143764000Y-89408000D03*
D33*
X143764000Y-86868000D03*
D34*
X88819000Y-112588000D03*
X91359000Y-110048000D03*
X88819000Y-107508000D03*
D13*
X136624000Y-76188000D03*
X136624000Y-73648000D03*
X134084000Y-76188000D03*
X134084000Y-73648000D03*
X131544000Y-76188000D03*
X131544000Y-73648000D03*
X129004000Y-76188000D03*
X129004000Y-73648000D03*
X126464000Y-76188000D03*
X126464000Y-73648000D03*
X123924000Y-76188000D03*
X123924000Y-73648000D03*
X121384000Y-76188000D03*
X121384000Y-73648000D03*
X118844000Y-76188000D03*
X118844000Y-73648000D03*
X116304000Y-76188000D03*
X116304000Y-73648000D03*
X113764000Y-76188000D03*
X113764000Y-73648000D03*
X111224000Y-76188000D03*
X111224000Y-73648000D03*
X108684000Y-76188000D03*
X108684000Y-73648000D03*
X106144000Y-76188000D03*
X106144000Y-73648000D03*
X103604000Y-76188000D03*
X103604000Y-73648000D03*
X101064000Y-76188000D03*
D14*
X101064000Y-73648000D03*
D35*
X95049700Y-66062900D03*
X143668700Y-119316500D03*
X107083100Y-91642100D03*
X100323300Y-70498700D03*
X93011100Y-75465500D03*
X139420000Y-77507300D03*
X154635300Y-77280200D03*
X96882100Y-60687800D03*
X117733000Y-129216700D03*
X140441400Y-93339400D03*
X139607900Y-91848900D03*
X140513000Y-85040500D03*
X97519600Y-82904000D03*
X100041100Y-68761600D03*
X129540000Y-108186700D03*
X137554400Y-96952900D03*
X140599500Y-73186900D03*
X99509000Y-104147800D03*
D36*
X127371300Y-110974200D02*
X128665100Y-112268000D01*
X105132700Y-110974200D02*
X127371300Y-110974200D01*
X129794000Y-112268000D02*
X128665100Y-112268000D01*
X95655000Y-65457600D02*
X95049700Y-66062900D01*
X95655000Y-64675000D02*
X95655000Y-65457600D01*
X126218200Y-112431100D02*
X128595100Y-114808000D01*
X107213400Y-112431100D02*
X126218200Y-112431100D01*
X129724000Y-114808000D02*
X128595100Y-114808000D01*
X129764000Y-117348000D02*
X128635100Y-117348000D01*
X125175100Y-113888000D02*
X128635100Y-117348000D01*
X109294000Y-113888000D02*
X125175100Y-113888000D01*
X89975400Y-74736600D02*
X89254000Y-75458000D01*
X93035400Y-74736600D02*
X89975400Y-74736600D01*
X99739300Y-68032700D02*
X93035400Y-74736600D01*
X103023300Y-68032700D02*
X99739300Y-68032700D01*
X106032000Y-65024000D02*
X103023300Y-68032700D01*
X103492000Y-65024000D02*
X102213100Y-65024000D01*
X89975800Y-70236200D02*
X84754000Y-75458000D01*
X96749600Y-70236200D02*
X89975800Y-70236200D01*
X101961800Y-65024000D02*
X96749600Y-70236200D01*
X102213100Y-65024000D02*
X101961800Y-65024000D01*
X120230500Y-119316500D02*
X143668700Y-119316500D01*
X116374000Y-123173000D02*
X120230500Y-119316500D01*
X103594000Y-84328000D02*
X102315100Y-84328000D01*
X146957000Y-95758000D02*
X148239000Y-97040000D01*
X134776400Y-95758000D02*
X146957000Y-95758000D01*
X130660500Y-91642100D02*
X134776400Y-95758000D01*
X107083100Y-91642100D02*
X130660500Y-91642100D01*
X101811600Y-83824500D02*
X102315100Y-84328000D01*
X94701600Y-83824500D02*
X101811600Y-83824500D01*
X89944000Y-88582100D02*
X94701600Y-83824500D01*
X89944000Y-91658000D02*
X89944000Y-88582100D01*
X116055300Y-70498700D02*
X100323300Y-70498700D01*
X121304000Y-65250000D02*
X116055300Y-70498700D01*
X150267100Y-74325900D02*
X148933200Y-74947900D01*
X96939900Y-75465500D02*
X93011100Y-75465500D01*
X100048100Y-72357300D02*
X96939900Y-75465500D01*
X124428500Y-72357300D02*
X100048100Y-72357300D01*
X124430000Y-72355800D02*
X124428500Y-72357300D01*
X124679000Y-72355800D02*
X124430000Y-72355800D01*
X125233400Y-71801400D02*
X124679000Y-72355800D01*
X138192400Y-71801400D02*
X125233400Y-71801400D01*
X138748300Y-72357300D02*
X138192400Y-71801400D01*
X143002800Y-72357300D02*
X138748300Y-72357300D01*
X144971400Y-74325900D02*
X143002800Y-72357300D01*
X148311200Y-74325900D02*
X144971400Y-74325900D01*
X148933200Y-74947900D02*
X148311200Y-74325900D01*
X138074100Y-114077900D02*
X137344000Y-114808000D01*
X148381700Y-114077900D02*
X138074100Y-114077900D01*
X149003700Y-113455900D02*
X148381700Y-114077900D01*
X150337500Y-114077900D02*
X149003700Y-113455900D01*
X136041500Y-118690500D02*
X137384000Y-117348000D01*
X118349100Y-118690500D02*
X136041500Y-118690500D01*
X117494400Y-119545200D02*
X118349100Y-118690500D01*
X98971200Y-119545200D02*
X117494400Y-119545200D01*
X96774000Y-117348000D02*
X98971200Y-119545200D01*
X132080000Y-89154000D02*
X129540000Y-89154000D01*
X133358900Y-88424200D02*
X134915100Y-86868000D01*
X133358900Y-89154000D02*
X133358900Y-88424200D01*
X136144000Y-86868000D02*
X134915100Y-86868000D01*
X132080000Y-89154000D02*
X133358900Y-89154000D01*
X135403300Y-77507300D02*
X134084000Y-76188000D01*
X139420000Y-77507300D02*
X135403300Y-77507300D01*
X151340500Y-76627900D02*
X150006600Y-77249900D01*
X151013200Y-76243300D02*
X150006600Y-77249900D01*
X151118200Y-76243300D02*
X151013200Y-76243300D01*
X152155100Y-77280200D02*
X151118200Y-76243300D01*
X154635300Y-77280200D02*
X152155100Y-77280200D01*
X149749200Y-77507300D02*
X139420000Y-77507300D01*
X150006600Y-77249900D02*
X149749200Y-77507300D01*
X139995100Y-102108000D02*
X136144000Y-102108000D01*
X142535100Y-99568000D02*
X139995100Y-102108000D01*
X143289000Y-99568000D02*
X142535100Y-99568000D01*
X143289000Y-99568000D02*
X143764000Y-99568000D01*
X149094900Y-99568000D02*
X151534000Y-97128900D01*
X143764000Y-99568000D02*
X149094900Y-99568000D01*
X151534000Y-95800000D02*
X151534000Y-97128900D01*
X143764000Y-91948000D02*
X142535100Y-91948000D01*
X147244000Y-66280700D02*
X147244000Y-68240000D01*
X142983300Y-62020000D02*
X147244000Y-66280700D01*
X119944000Y-62020000D02*
X142983300Y-62020000D01*
X108977400Y-126310000D02*
X117734000Y-126310000D01*
X103221300Y-120553900D02*
X108977400Y-126310000D01*
X90537900Y-120553900D02*
X103221300Y-120553900D01*
X145464000Y-122440000D02*
X144524300Y-123379700D01*
X136144000Y-94488000D02*
X137372900Y-94488000D01*
X140539600Y-91948000D02*
X142535100Y-91948000D01*
X137999600Y-94488000D02*
X140539600Y-91948000D01*
X137372900Y-94488000D02*
X137999600Y-94488000D01*
X118611800Y-60687800D02*
X96882100Y-60687800D01*
X119944000Y-62020000D02*
X118611800Y-60687800D01*
X138687300Y-129216700D02*
X144524300Y-123379700D01*
X117733000Y-129216700D02*
X138687300Y-129216700D01*
X90494000Y-66113000D02*
X90494000Y-68030000D01*
X94669900Y-61937100D02*
X90494000Y-66113000D01*
X117321100Y-61937100D02*
X94669900Y-61937100D01*
X117404000Y-62020000D02*
X117321100Y-61937100D01*
X118945100Y-127638900D02*
X120274000Y-126310000D01*
X97622900Y-127638900D02*
X118945100Y-127638900D01*
X92334000Y-122350000D02*
X97622900Y-127638900D01*
X147258600Y-120645400D02*
X147260100Y-120643900D01*
X125938600Y-120645400D02*
X147258600Y-120645400D01*
X120274000Y-126310000D02*
X125938600Y-120645400D01*
X143764000Y-94488000D02*
X142535100Y-94488000D01*
X141386500Y-93339400D02*
X140441400Y-93339400D01*
X142535100Y-94488000D02*
X141386500Y-93339400D01*
X137472000Y-91848900D02*
X137372900Y-91948000D01*
X139607900Y-91848900D02*
X137472000Y-91848900D01*
X136144000Y-91948000D02*
X137372900Y-91948000D01*
X105216200Y-85040500D02*
X140513000Y-85040500D01*
X104608700Y-85648000D02*
X105216200Y-85040500D01*
X98362900Y-85648000D02*
X104608700Y-85648000D01*
X98093300Y-85378400D02*
X98362900Y-85648000D01*
X95148200Y-85378400D02*
X98093300Y-85378400D01*
X98635600Y-81788000D02*
X103594000Y-81788000D01*
X97519600Y-82904000D02*
X98635600Y-81788000D01*
X112712400Y-68761600D02*
X116224000Y-65250000D01*
X100041100Y-68761600D02*
X112712400Y-68761600D01*
X105551400Y-92662800D02*
X106307800Y-91582600D01*
X106354200Y-91536200D02*
X106307800Y-91582600D01*
X106354200Y-91340200D02*
X106354200Y-91536200D01*
X106781200Y-90913200D02*
X106354200Y-91340200D01*
X107301000Y-90913200D02*
X106781200Y-90913200D01*
X107536200Y-90678000D02*
X107301000Y-90913200D01*
X146957000Y-90678000D02*
X107536200Y-90678000D01*
X148239000Y-91960000D02*
X146957000Y-90678000D01*
X143764000Y-89408000D02*
X136144000Y-89408000D01*
X132006800Y-94119700D02*
X107632100Y-94119700D01*
X134915100Y-97028000D02*
X132006800Y-94119700D01*
X136144000Y-97028000D02*
X134915100Y-97028000D01*
X137554400Y-97418700D02*
X137554400Y-96952900D01*
X136675100Y-98298000D02*
X137554400Y-97418700D01*
X133096000Y-98298000D02*
X136675100Y-98298000D01*
X129540000Y-101854000D02*
X133096000Y-98298000D01*
X124450300Y-73648000D02*
X123924000Y-73648000D01*
X125741000Y-72357300D02*
X124450300Y-73648000D01*
X137823600Y-72357300D02*
X125741000Y-72357300D01*
X138653200Y-73186900D02*
X137823600Y-72357300D01*
X140599500Y-73186900D02*
X138653200Y-73186900D01*
X101097600Y-108186700D02*
X129540000Y-108186700D01*
X100971400Y-108060500D02*
X101097600Y-108186700D01*
X91105400Y-95576600D02*
X89944000Y-96738000D01*
X109712700Y-95576600D02*
X91105400Y-95576600D01*
X130370700Y-103563300D02*
X132080000Y-101854000D01*
X128507300Y-103563300D02*
X130370700Y-103563300D01*
X124995700Y-107074900D02*
X128507300Y-103563300D01*
X123070100Y-107074900D02*
X124995700Y-107074900D01*
X120143000Y-104147800D02*
X123070100Y-107074900D01*
X99509000Y-104147800D02*
X120143000Y-104147800D01*
X151410900Y-111775900D02*
X150077100Y-111154000D01*
X146380200Y-107457100D02*
X150077100Y-111154000D01*
X125677000Y-107457100D02*
X146380200Y-107457100D01*
X125503300Y-107630800D02*
X125677000Y-107457100D01*
X122401700Y-107630800D02*
X125503300Y-107630800D01*
X119917600Y-105146700D02*
X122401700Y-107630800D01*
X96810100Y-105146700D02*
X119917600Y-105146700D01*
G04 #@! TA.AperFunction,Conductor*
G36*
X95769244Y-70891385D02*
G01*
X95814999Y-70944189D01*
X95824943Y-71013347D01*
X95795918Y-71076903D01*
X95789886Y-71083381D01*
X92808486Y-74064781D01*
X92747163Y-74098266D01*
X92720805Y-74101100D01*
X90059252Y-74101100D01*
X90043469Y-74099357D01*
X90043444Y-74099625D01*
X90035682Y-74098891D01*
X90035681Y-74098891D01*
X89967338Y-74101039D01*
X89963443Y-74101100D01*
X89944721Y-74101100D01*
X89897269Y-74091661D01*
X89832374Y-74064781D01*
X89721593Y-74018894D01*
X89490714Y-73963465D01*
X89254000Y-73944835D01*
X89017285Y-73963465D01*
X88786404Y-74018895D01*
X88786402Y-74018895D01*
X88567040Y-74109757D01*
X88567037Y-74109759D01*
X88364589Y-74233820D01*
X88364586Y-74233821D01*
X88184031Y-74388031D01*
X88029821Y-74568586D01*
X88029820Y-74568589D01*
X87905759Y-74771037D01*
X87905757Y-74771040D01*
X87814895Y-74990402D01*
X87814895Y-74990404D01*
X87759465Y-75221285D01*
X87740835Y-75458000D01*
X87759465Y-75694714D01*
X87814895Y-75925595D01*
X87814895Y-75925597D01*
X87905757Y-76144959D01*
X87905759Y-76144962D01*
X88029820Y-76347410D01*
X88029821Y-76347413D01*
X88077786Y-76403572D01*
X88184031Y-76527969D01*
X88235832Y-76572211D01*
X88364586Y-76682178D01*
X88364589Y-76682179D01*
X88567037Y-76806240D01*
X88567040Y-76806242D01*
X88786403Y-76897104D01*
X88786404Y-76897104D01*
X88786406Y-76897105D01*
X89017289Y-76952535D01*
X89254000Y-76971165D01*
X89490711Y-76952535D01*
X89721594Y-76897105D01*
X89721596Y-76897104D01*
X89721597Y-76897104D01*
X89940959Y-76806242D01*
X89940960Y-76806241D01*
X89940963Y-76806240D01*
X90143416Y-76682176D01*
X90323969Y-76527969D01*
X90478176Y-76347416D01*
X90602240Y-76144963D01*
X90615295Y-76113447D01*
X90693104Y-75925597D01*
X90693104Y-75925596D01*
X90693105Y-75925594D01*
X90748535Y-75694711D01*
X90764932Y-75486369D01*
X90789816Y-75421082D01*
X90846048Y-75379612D01*
X90888550Y-75372100D01*
X92076147Y-75372100D01*
X92143186Y-75391785D01*
X92188941Y-75444589D01*
X92199367Y-75482217D01*
X92217881Y-75646541D01*
X92217882Y-75646546D01*
X92252467Y-75745384D01*
X92268316Y-75790678D01*
X92278058Y-75818517D01*
X92345339Y-75925594D01*
X92374989Y-75972781D01*
X92503819Y-76101611D01*
X92658085Y-76198543D01*
X92830053Y-76258717D01*
X92830058Y-76258718D01*
X93011096Y-76279116D01*
X93011100Y-76279116D01*
X93011104Y-76279116D01*
X93192141Y-76258718D01*
X93192144Y-76258717D01*
X93192147Y-76258717D01*
X93364115Y-76198543D01*
X93364117Y-76198541D01*
X93364119Y-76198541D01*
X93364122Y-76198539D01*
X93489105Y-76120007D01*
X93555077Y-76101000D01*
X96856053Y-76101000D01*
X96871832Y-76102741D01*
X96871858Y-76102474D01*
X96879611Y-76103206D01*
X96879619Y-76103208D01*
X96947944Y-76101061D01*
X96951839Y-76101000D01*
X96979877Y-76101000D01*
X96979883Y-76101000D01*
X96984022Y-76100476D01*
X96995653Y-76099561D01*
X97040105Y-76098165D01*
X97059806Y-76092440D01*
X97078851Y-76088497D01*
X97099199Y-76085927D01*
X97140559Y-76069551D01*
X97151560Y-76065783D01*
X97194293Y-76053369D01*
X97211954Y-76042923D01*
X97229412Y-76034371D01*
X97248488Y-76026819D01*
X97284468Y-76000677D01*
X97294215Y-75994274D01*
X97332498Y-75971634D01*
X97346994Y-75957137D01*
X97361792Y-75944498D01*
X97378387Y-75932442D01*
X97406745Y-75898162D01*
X97414588Y-75889542D01*
X99502322Y-73801810D01*
X99563642Y-73768327D01*
X99633334Y-73773311D01*
X99689267Y-73815183D01*
X99713684Y-73880647D01*
X99714000Y-73889493D01*
X99714000Y-74545844D01*
X99720401Y-74605372D01*
X99720403Y-74605379D01*
X99770645Y-74740086D01*
X99770649Y-74740093D01*
X99856809Y-74855187D01*
X99856812Y-74855190D01*
X99971906Y-74941350D01*
X99971913Y-74941354D01*
X100091810Y-74986073D01*
X100147744Y-75027944D01*
X100172161Y-75093409D01*
X100157309Y-75161682D01*
X100139706Y-75186238D01*
X99988284Y-75350723D01*
X99988276Y-75350734D01*
X99865140Y-75539207D01*
X99774703Y-75745385D01*
X99719436Y-75963628D01*
X99719434Y-75963640D01*
X99700844Y-76187994D01*
X99700844Y-76188005D01*
X99719434Y-76412359D01*
X99719436Y-76412371D01*
X99774703Y-76630614D01*
X99865140Y-76836792D01*
X99988276Y-77025265D01*
X99988284Y-77025276D01*
X100140756Y-77190902D01*
X100140760Y-77190906D01*
X100318424Y-77329189D01*
X100318425Y-77329189D01*
X100318427Y-77329191D01*
X100445135Y-77397761D01*
X100516426Y-77436342D01*
X100663796Y-77486934D01*
X100726906Y-77508600D01*
X100729365Y-77509444D01*
X100951431Y-77546500D01*
X101176569Y-77546500D01*
X101398635Y-77509444D01*
X101611574Y-77436342D01*
X101809576Y-77329189D01*
X101987240Y-77190906D01*
X102139722Y-77025268D01*
X102230193Y-76886790D01*
X102283338Y-76841437D01*
X102352569Y-76832013D01*
X102415905Y-76861515D01*
X102437804Y-76886787D01*
X102528278Y-77025268D01*
X102528283Y-77025273D01*
X102528284Y-77025276D01*
X102680756Y-77190902D01*
X102680760Y-77190906D01*
X102858424Y-77329189D01*
X102858425Y-77329189D01*
X102858427Y-77329191D01*
X102985135Y-77397761D01*
X103056426Y-77436342D01*
X103203796Y-77486934D01*
X103266906Y-77508600D01*
X103269365Y-77509444D01*
X103491431Y-77546500D01*
X103716569Y-77546500D01*
X103938635Y-77509444D01*
X104151574Y-77436342D01*
X104349576Y-77329189D01*
X104527240Y-77190906D01*
X104679722Y-77025268D01*
X104770193Y-76886790D01*
X104823338Y-76841437D01*
X104892569Y-76832013D01*
X104955905Y-76861515D01*
X104977804Y-76886787D01*
X105068278Y-77025268D01*
X105068283Y-77025273D01*
X105068284Y-77025276D01*
X105220756Y-77190902D01*
X105220760Y-77190906D01*
X105398424Y-77329189D01*
X105398425Y-77329189D01*
X105398427Y-77329191D01*
X105525135Y-77397761D01*
X105596426Y-77436342D01*
X105743796Y-77486934D01*
X105806906Y-77508600D01*
X105809365Y-77509444D01*
X106031431Y-77546500D01*
X106256569Y-77546500D01*
X106478635Y-77509444D01*
X106691574Y-77436342D01*
X106889576Y-77329189D01*
X107067240Y-77190906D01*
X107219722Y-77025268D01*
X107310193Y-76886790D01*
X107363338Y-76841437D01*
X107432569Y-76832013D01*
X107495905Y-76861515D01*
X107517804Y-76886787D01*
X107608278Y-77025268D01*
X107608283Y-77025273D01*
X107608284Y-77025276D01*
X107760756Y-77190902D01*
X107760760Y-77190906D01*
X107938424Y-77329189D01*
X107938425Y-77329189D01*
X107938427Y-77329191D01*
X108065135Y-77397761D01*
X108136426Y-77436342D01*
X108283796Y-77486934D01*
X108346906Y-77508600D01*
X108349365Y-77509444D01*
X108571431Y-77546500D01*
X108796569Y-77546500D01*
X109018635Y-77509444D01*
X109231574Y-77436342D01*
X109429576Y-77329189D01*
X109607240Y-77190906D01*
X109759722Y-77025268D01*
X109850193Y-76886790D01*
X109903338Y-76841437D01*
X109972569Y-76832013D01*
X110035905Y-76861515D01*
X110057804Y-76886787D01*
X110148278Y-77025268D01*
X110148283Y-77025273D01*
X110148284Y-77025276D01*
X110300756Y-77190902D01*
X110300760Y-77190906D01*
X110478424Y-77329189D01*
X110478425Y-77329189D01*
X110478427Y-77329191D01*
X110605135Y-77397761D01*
X110676426Y-77436342D01*
X110823796Y-77486934D01*
X110886906Y-77508600D01*
X110889365Y-77509444D01*
X111111431Y-77546500D01*
X111336569Y-77546500D01*
X111558635Y-77509444D01*
X111771574Y-77436342D01*
X111969576Y-77329189D01*
X112147240Y-77190906D01*
X112299722Y-77025268D01*
X112390193Y-76886790D01*
X112443338Y-76841437D01*
X112512569Y-76832013D01*
X112575905Y-76861515D01*
X112597804Y-76886787D01*
X112688278Y-77025268D01*
X112688283Y-77025273D01*
X112688284Y-77025276D01*
X112840756Y-77190902D01*
X112840760Y-77190906D01*
X113018424Y-77329189D01*
X113018425Y-77329189D01*
X113018427Y-77329191D01*
X113145135Y-77397761D01*
X113216426Y-77436342D01*
X113363796Y-77486934D01*
X113426906Y-77508600D01*
X113429365Y-77509444D01*
X113651431Y-77546500D01*
X113876569Y-77546500D01*
X114098635Y-77509444D01*
X114311574Y-77436342D01*
X114509576Y-77329189D01*
X114687240Y-77190906D01*
X114839722Y-77025268D01*
X114930193Y-76886790D01*
X114983338Y-76841437D01*
X115052569Y-76832013D01*
X115115905Y-76861515D01*
X115137804Y-76886787D01*
X115228278Y-77025268D01*
X115228283Y-77025273D01*
X115228284Y-77025276D01*
X115380756Y-77190902D01*
X115380760Y-77190906D01*
X115558424Y-77329189D01*
X115558425Y-77329189D01*
X115558427Y-77329191D01*
X115685135Y-77397761D01*
X115756426Y-77436342D01*
X115903796Y-77486934D01*
X115966906Y-77508600D01*
X115969365Y-77509444D01*
X116191431Y-77546500D01*
X116416569Y-77546500D01*
X116638635Y-77509444D01*
X116851574Y-77436342D01*
X117049576Y-77329189D01*
X117227240Y-77190906D01*
X117379722Y-77025268D01*
X117470193Y-76886790D01*
X117523338Y-76841437D01*
X117592569Y-76832013D01*
X117655905Y-76861515D01*
X117677804Y-76886787D01*
X117768278Y-77025268D01*
X117768283Y-77025273D01*
X117768284Y-77025276D01*
X117920756Y-77190902D01*
X117920760Y-77190906D01*
X118098424Y-77329189D01*
X118098425Y-77329189D01*
X118098427Y-77329191D01*
X118225135Y-77397761D01*
X118296426Y-77436342D01*
X118443796Y-77486934D01*
X118506906Y-77508600D01*
X118509365Y-77509444D01*
X118731431Y-77546500D01*
X118956569Y-77546500D01*
X119178635Y-77509444D01*
X119391574Y-77436342D01*
X119589576Y-77329189D01*
X119767240Y-77190906D01*
X119919722Y-77025268D01*
X120010193Y-76886790D01*
X120063338Y-76841437D01*
X120132569Y-76832013D01*
X120195905Y-76861515D01*
X120217804Y-76886787D01*
X120308278Y-77025268D01*
X120308283Y-77025273D01*
X120308284Y-77025276D01*
X120460756Y-77190902D01*
X120460760Y-77190906D01*
X120638424Y-77329189D01*
X120638425Y-77329189D01*
X120638427Y-77329191D01*
X120765135Y-77397761D01*
X120836426Y-77436342D01*
X120983796Y-77486934D01*
X121046906Y-77508600D01*
X121049365Y-77509444D01*
X121271431Y-77546500D01*
X121496569Y-77546500D01*
X121718635Y-77509444D01*
X121931574Y-77436342D01*
X122129576Y-77329189D01*
X122307240Y-77190906D01*
X122459722Y-77025268D01*
X122550193Y-76886790D01*
X122603338Y-76841437D01*
X122672569Y-76832013D01*
X122735905Y-76861515D01*
X122757804Y-76886787D01*
X122848278Y-77025268D01*
X122848283Y-77025273D01*
X122848284Y-77025276D01*
X123000756Y-77190902D01*
X123000760Y-77190906D01*
X123178424Y-77329189D01*
X123178425Y-77329189D01*
X123178427Y-77329191D01*
X123305135Y-77397761D01*
X123376426Y-77436342D01*
X123523796Y-77486934D01*
X123586906Y-77508600D01*
X123589365Y-77509444D01*
X123811431Y-77546500D01*
X124036569Y-77546500D01*
X124258635Y-77509444D01*
X124471574Y-77436342D01*
X124669576Y-77329189D01*
X124847240Y-77190906D01*
X124999722Y-77025268D01*
X125090193Y-76886790D01*
X125143338Y-76841437D01*
X125212569Y-76832013D01*
X125275905Y-76861515D01*
X125297804Y-76886787D01*
X125388278Y-77025268D01*
X125388283Y-77025273D01*
X125388284Y-77025276D01*
X125540756Y-77190902D01*
X125540760Y-77190906D01*
X125718424Y-77329189D01*
X125718425Y-77329189D01*
X125718427Y-77329191D01*
X125845135Y-77397761D01*
X125916426Y-77436342D01*
X126063796Y-77486934D01*
X126126906Y-77508600D01*
X126129365Y-77509444D01*
X126351431Y-77546500D01*
X126576569Y-77546500D01*
X126798635Y-77509444D01*
X127011574Y-77436342D01*
X127209576Y-77329189D01*
X127387240Y-77190906D01*
X127539722Y-77025268D01*
X127630193Y-76886790D01*
X127683338Y-76841437D01*
X127752569Y-76832013D01*
X127815905Y-76861515D01*
X127837804Y-76886787D01*
X127928278Y-77025268D01*
X127928283Y-77025273D01*
X127928284Y-77025276D01*
X128080756Y-77190902D01*
X128080760Y-77190906D01*
X128258424Y-77329189D01*
X128258425Y-77329189D01*
X128258427Y-77329191D01*
X128385135Y-77397761D01*
X128456426Y-77436342D01*
X128603796Y-77486934D01*
X128666906Y-77508600D01*
X128669365Y-77509444D01*
X128891431Y-77546500D01*
X129116569Y-77546500D01*
X129338635Y-77509444D01*
X129551574Y-77436342D01*
X129749576Y-77329189D01*
X129927240Y-77190906D01*
X130079722Y-77025268D01*
X130170193Y-76886790D01*
X130223338Y-76841437D01*
X130292569Y-76832013D01*
X130355905Y-76861515D01*
X130377804Y-76886787D01*
X130468278Y-77025268D01*
X130468283Y-77025273D01*
X130468284Y-77025276D01*
X130620756Y-77190902D01*
X130620760Y-77190906D01*
X130798424Y-77329189D01*
X130798425Y-77329189D01*
X130798427Y-77329191D01*
X130925135Y-77397761D01*
X130996426Y-77436342D01*
X131143796Y-77486934D01*
X131206906Y-77508600D01*
X131209365Y-77509444D01*
X131431431Y-77546500D01*
X131656569Y-77546500D01*
X131878635Y-77509444D01*
X132091574Y-77436342D01*
X132289576Y-77329189D01*
X132467240Y-77190906D01*
X132619722Y-77025268D01*
X132710193Y-76886790D01*
X132763338Y-76841437D01*
X132832569Y-76832013D01*
X132895905Y-76861515D01*
X132917804Y-76886787D01*
X133008278Y-77025268D01*
X133008283Y-77025273D01*
X133008284Y-77025276D01*
X133160756Y-77190902D01*
X133160760Y-77190906D01*
X133338424Y-77329189D01*
X133338425Y-77329189D01*
X133338427Y-77329191D01*
X133465135Y-77397761D01*
X133536426Y-77436342D01*
X133683796Y-77486934D01*
X133746906Y-77508600D01*
X133749365Y-77509444D01*
X133971431Y-77546500D01*
X134196569Y-77546500D01*
X134418635Y-77509444D01*
X134418643Y-77509441D01*
X134420597Y-77508947D01*
X134421428Y-77508978D01*
X134423695Y-77508600D01*
X134423772Y-77509065D01*
X134490418Y-77511562D01*
X134538734Y-77541466D01*
X134730188Y-77732921D01*
X134894642Y-77897375D01*
X134904567Y-77909763D01*
X134904774Y-77909592D01*
X134909744Y-77915600D01*
X134909746Y-77915602D01*
X134909747Y-77915603D01*
X134945725Y-77949388D01*
X134959581Y-77962400D01*
X134962378Y-77965111D01*
X134982206Y-77984939D01*
X134985490Y-77987486D01*
X134994381Y-77995080D01*
X135026787Y-78025511D01*
X135026790Y-78025513D01*
X135026794Y-78025517D01*
X135026797Y-78025519D01*
X135026799Y-78025520D01*
X135044762Y-78035395D01*
X135061024Y-78046076D01*
X135077233Y-78058650D01*
X135118046Y-78076311D01*
X135128527Y-78081445D01*
X135167497Y-78102869D01*
X135167501Y-78102870D01*
X135187354Y-78107967D01*
X135205769Y-78114272D01*
X135224586Y-78122415D01*
X135224589Y-78122415D01*
X135224592Y-78122417D01*
X135268519Y-78129373D01*
X135279950Y-78131741D01*
X135323018Y-78142800D01*
X135343526Y-78142800D01*
X135362923Y-78144326D01*
X135383177Y-78147534D01*
X135383178Y-78147535D01*
X135383178Y-78147534D01*
X135383179Y-78147535D01*
X135402697Y-78145689D01*
X135427452Y-78143350D01*
X135439121Y-78142800D01*
X135773923Y-78142800D01*
X135840962Y-78162485D01*
X135886717Y-78215289D01*
X135896661Y-78284447D01*
X135879651Y-78331589D01*
X135756346Y-78532804D01*
X135661745Y-78761192D01*
X135604038Y-79001562D01*
X135584644Y-79248000D01*
X135604038Y-79494437D01*
X135661745Y-79734807D01*
X135756345Y-79963192D01*
X135756347Y-79963196D01*
X135756348Y-79963197D01*
X135885510Y-80173971D01*
X136046055Y-80361945D01*
X136234029Y-80522490D01*
X136444803Y-80651652D01*
X136444805Y-80651652D01*
X136444807Y-80651654D01*
X136523173Y-80684114D01*
X136673188Y-80746253D01*
X136913560Y-80803961D01*
X137160000Y-80823356D01*
X137406440Y-80803961D01*
X137646812Y-80746253D01*
X137875197Y-80651652D01*
X138085971Y-80522490D01*
X138273945Y-80361945D01*
X138434490Y-80173971D01*
X138563652Y-79963197D01*
X138658253Y-79734812D01*
X138715961Y-79494440D01*
X138735356Y-79248000D01*
X138715961Y-79001560D01*
X138658253Y-78761188D01*
X138589761Y-78595835D01*
X138563653Y-78532804D01*
X138440349Y-78331589D01*
X138422105Y-78264144D01*
X138443222Y-78197541D01*
X138496994Y-78152928D01*
X138546077Y-78142800D01*
X138876023Y-78142800D01*
X138941995Y-78161807D01*
X139066977Y-78240339D01*
X139066980Y-78240341D01*
X139066984Y-78240342D01*
X139066985Y-78240343D01*
X139229271Y-78297129D01*
X139238953Y-78300517D01*
X139238958Y-78300518D01*
X139419996Y-78320916D01*
X139420000Y-78320916D01*
X139420004Y-78320916D01*
X139601041Y-78300518D01*
X139601044Y-78300517D01*
X139601047Y-78300517D01*
X139773015Y-78240343D01*
X139773017Y-78240341D01*
X139773019Y-78240341D01*
X139773022Y-78240339D01*
X139898005Y-78161807D01*
X139963977Y-78142800D01*
X149665353Y-78142800D01*
X149681132Y-78144541D01*
X149681158Y-78144274D01*
X149688911Y-78145006D01*
X149688919Y-78145008D01*
X149757244Y-78142861D01*
X149761139Y-78142800D01*
X149789177Y-78142800D01*
X149789183Y-78142800D01*
X149793322Y-78142276D01*
X149804953Y-78141361D01*
X149849405Y-78139965D01*
X149869106Y-78134240D01*
X149888151Y-78130297D01*
X149908499Y-78127727D01*
X149949859Y-78111351D01*
X149960860Y-78107583D01*
X150003593Y-78095169D01*
X150021254Y-78084723D01*
X150038712Y-78076171D01*
X150057788Y-78068619D01*
X150093768Y-78042477D01*
X150103515Y-78036074D01*
X150141798Y-78013434D01*
X150156294Y-77998937D01*
X150171092Y-77986298D01*
X150187687Y-77974242D01*
X150216040Y-77939968D01*
X150223881Y-77931350D01*
X150361270Y-77793960D01*
X150396544Y-77769262D01*
X150451981Y-77743411D01*
X150521058Y-77732921D01*
X150580548Y-77757943D01*
X150594925Y-77769133D01*
X150792927Y-77876286D01*
X151005866Y-77949388D01*
X151211837Y-77983758D01*
X151274723Y-78014208D01*
X151311162Y-78073823D01*
X151309587Y-78143675D01*
X151293004Y-78177189D01*
X151240350Y-78252387D01*
X151140521Y-78466472D01*
X151140517Y-78466481D01*
X151079383Y-78694638D01*
X151079381Y-78694649D01*
X151058794Y-78929963D01*
X151058794Y-78929966D01*
X151079381Y-79165280D01*
X151079383Y-79165291D01*
X151105856Y-79264093D01*
X151105857Y-79264094D01*
X151913951Y-78887273D01*
X151913951Y-79001854D01*
X151954458Y-79139809D01*
X152032190Y-79260763D01*
X152124524Y-79340770D01*
X151317165Y-79717248D01*
X151375835Y-79801035D01*
X151375844Y-79801046D01*
X151542868Y-79968070D01*
X151736372Y-80103565D01*
X151950458Y-80203394D01*
X151950467Y-80203398D01*
X152178624Y-80264532D01*
X152178635Y-80264534D01*
X152413949Y-80285122D01*
X152413953Y-80285122D01*
X152649271Y-80264533D01*
X152748080Y-80238057D01*
X152370761Y-79428897D01*
X152378188Y-79429965D01*
X152449714Y-79429965D01*
X152556266Y-79414645D01*
X152687051Y-79354917D01*
X152795712Y-79260763D01*
X152823723Y-79217175D01*
X153201234Y-80026747D01*
X153285033Y-79968070D01*
X153452056Y-79801047D01*
X153587551Y-79607543D01*
X153687380Y-79393457D01*
X153687384Y-79393448D01*
X153748518Y-79165291D01*
X153748520Y-79165280D01*
X153769108Y-78929966D01*
X153769108Y-78929963D01*
X153748520Y-78694649D01*
X153748519Y-78694642D01*
X153722043Y-78595835D01*
X152913951Y-78972654D01*
X152913951Y-78858076D01*
X152873444Y-78720121D01*
X152795712Y-78599167D01*
X152703375Y-78519158D01*
X153510733Y-78142680D01*
X153488427Y-78110823D01*
X153466100Y-78044617D01*
X153483110Y-77976850D01*
X153534059Y-77929037D01*
X153590002Y-77915700D01*
X154091323Y-77915700D01*
X154157295Y-77934707D01*
X154282277Y-78013239D01*
X154282280Y-78013241D01*
X154282284Y-78013242D01*
X154282285Y-78013243D01*
X154412051Y-78058650D01*
X154454253Y-78073417D01*
X154454258Y-78073418D01*
X154635296Y-78093816D01*
X154635300Y-78093816D01*
X154635304Y-78093816D01*
X154816341Y-78073418D01*
X154816344Y-78073417D01*
X154816347Y-78073417D01*
X154988315Y-78013243D01*
X155142581Y-77916311D01*
X155271411Y-77787481D01*
X155368343Y-77633215D01*
X155428517Y-77461247D01*
X155443396Y-77329191D01*
X155448916Y-77280203D01*
X155448916Y-77280197D01*
X155431550Y-77126069D01*
X155443604Y-77057247D01*
X155490954Y-77005867D01*
X155558564Y-76988243D01*
X155624970Y-77009970D01*
X155666578Y-77058565D01*
X155753193Y-77239175D01*
X155754793Y-77242648D01*
X156259685Y-78384476D01*
X156261177Y-78387997D01*
X156730616Y-79544831D01*
X156731999Y-79548396D01*
X157165541Y-80719150D01*
X157166814Y-80722756D01*
X157564069Y-81906378D01*
X157565229Y-81910022D01*
X157925777Y-83105253D01*
X157926825Y-83108930D01*
X158250358Y-84314755D01*
X158251292Y-84318463D01*
X158537491Y-85533696D01*
X158538310Y-85537432D01*
X158786894Y-86760872D01*
X158787598Y-86764630D01*
X158998351Y-87995210D01*
X158998938Y-87998989D01*
X159171641Y-89235458D01*
X159172111Y-89239253D01*
X159306602Y-90480411D01*
X159306956Y-90484218D01*
X159403119Y-91729024D01*
X159403354Y-91732841D01*
X159461085Y-92979945D01*
X159461203Y-92983767D01*
X159480453Y-94232088D01*
X159480453Y-94235912D01*
X159461203Y-95484233D01*
X159461085Y-95488055D01*
X159403354Y-96735159D01*
X159403119Y-96738976D01*
X159306956Y-97983782D01*
X159306602Y-97987589D01*
X159172110Y-99228747D01*
X159171640Y-99232542D01*
X158998937Y-100469011D01*
X158998350Y-100472790D01*
X158787598Y-101703370D01*
X158786894Y-101707128D01*
X158538310Y-102930568D01*
X158537491Y-102934304D01*
X158251292Y-104149537D01*
X158250358Y-104153245D01*
X157926824Y-105359070D01*
X157925776Y-105362747D01*
X157565229Y-106557978D01*
X157564069Y-106561622D01*
X157166814Y-107745244D01*
X157165541Y-107748850D01*
X156731998Y-108919604D01*
X156730615Y-108923169D01*
X156261177Y-110080003D01*
X156259685Y-110083524D01*
X155754793Y-111225352D01*
X155753193Y-111228825D01*
X155213327Y-112354553D01*
X155211620Y-112357975D01*
X154637312Y-113466496D01*
X154635501Y-113469863D01*
X154027293Y-114560135D01*
X154025379Y-114563446D01*
X153383816Y-115634491D01*
X153381800Y-115637741D01*
X152707547Y-116688446D01*
X152705433Y-116691632D01*
X151999073Y-117721092D01*
X151996861Y-117724211D01*
X151259119Y-118731366D01*
X151256812Y-118734416D01*
X150488349Y-119718367D01*
X150485949Y-119721344D01*
X149687521Y-120681120D01*
X149685030Y-120684021D01*
X148857389Y-121618719D01*
X148854811Y-121621543D01*
X147998718Y-122530302D01*
X147996053Y-122533044D01*
X147112396Y-123414926D01*
X147109648Y-123417586D01*
X146199167Y-124271850D01*
X146196338Y-124274423D01*
X145259976Y-125100181D01*
X145257070Y-125102665D01*
X144295689Y-125899161D01*
X144292707Y-125901555D01*
X143307229Y-126668025D01*
X143304175Y-126670326D01*
X142295522Y-127406052D01*
X142292398Y-127408258D01*
X141261520Y-128112545D01*
X141258330Y-128114653D01*
X140639047Y-128510300D01*
X140571955Y-128529805D01*
X140504968Y-128509940D01*
X140459355Y-128457014D01*
X140449597Y-128387829D01*
X140478792Y-128324351D01*
X140484589Y-128318141D01*
X144829728Y-123973003D01*
X144891047Y-123939521D01*
X144960739Y-123944505D01*
X145005086Y-123973006D01*
X145138828Y-124106748D01*
X145186257Y-124144969D01*
X145319266Y-124205711D01*
X145464000Y-124226521D01*
X145608734Y-124205711D01*
X145741743Y-124144969D01*
X145789172Y-124106748D01*
X147130748Y-122765172D01*
X147168969Y-122717743D01*
X147229711Y-122584734D01*
X147250521Y-122440000D01*
X147229711Y-122295266D01*
X147198974Y-122227960D01*
X147189031Y-122158801D01*
X147218057Y-122095246D01*
X147276835Y-122057472D01*
X147311769Y-122052449D01*
X147376762Y-122052449D01*
X147376763Y-122052449D01*
X147607002Y-122014029D01*
X147827778Y-121938236D01*
X148033068Y-121827139D01*
X148217271Y-121683767D01*
X148375365Y-121512032D01*
X148503035Y-121316618D01*
X148596800Y-121102856D01*
X148654102Y-120876575D01*
X148673378Y-120643949D01*
X148665916Y-120553900D01*
X148654102Y-120411326D01*
X148654102Y-120411323D01*
X148596800Y-120185042D01*
X148503035Y-119971280D01*
X148415785Y-119837734D01*
X148375364Y-119775864D01*
X148217274Y-119604134D01*
X148217273Y-119604133D01*
X148217271Y-119604131D01*
X148033068Y-119460759D01*
X148033066Y-119460758D01*
X148033065Y-119460757D01*
X148033062Y-119460755D01*
X147827784Y-119349665D01*
X147827781Y-119349664D01*
X147827778Y-119349662D01*
X147827772Y-119349660D01*
X147827770Y-119349659D01*
X147607005Y-119273869D01*
X147434322Y-119245054D01*
X147376763Y-119235449D01*
X147143339Y-119235449D01*
X147097291Y-119243133D01*
X146913096Y-119273869D01*
X146692331Y-119349659D01*
X146692317Y-119349665D01*
X146487039Y-119460755D01*
X146487036Y-119460757D01*
X146302832Y-119604130D01*
X146302827Y-119604134D01*
X146144737Y-119775864D01*
X146028539Y-119953721D01*
X145975393Y-119999078D01*
X145924730Y-120009900D01*
X144412226Y-120009900D01*
X144345187Y-119990215D01*
X144299432Y-119937411D01*
X144289488Y-119868253D01*
X144307232Y-119819928D01*
X144339834Y-119768042D01*
X144401743Y-119669515D01*
X144461917Y-119497547D01*
X144466062Y-119460759D01*
X144482316Y-119316503D01*
X144482316Y-119316496D01*
X144461918Y-119135458D01*
X144461917Y-119135453D01*
X144401743Y-118963485D01*
X144304811Y-118809219D01*
X144175981Y-118680389D01*
X144061588Y-118608511D01*
X144021717Y-118583458D01*
X144021716Y-118583457D01*
X144021715Y-118583457D01*
X143957868Y-118561116D01*
X143849746Y-118523282D01*
X143849741Y-118523281D01*
X143668704Y-118502884D01*
X143668696Y-118502884D01*
X143487658Y-118523281D01*
X143487653Y-118523282D01*
X143315680Y-118583458D01*
X143315677Y-118583460D01*
X143190695Y-118661993D01*
X143124723Y-118681000D01*
X137944253Y-118681000D01*
X137877214Y-118661315D01*
X137831459Y-118608511D01*
X137821515Y-118539353D01*
X137850540Y-118475797D01*
X137891847Y-118444618D01*
X137990558Y-118398589D01*
X138163776Y-118277301D01*
X138313301Y-118127776D01*
X138434589Y-117954558D01*
X138523956Y-117762910D01*
X138578686Y-117558655D01*
X138597116Y-117348000D01*
X138578686Y-117137345D01*
X138523956Y-116933090D01*
X138434589Y-116741442D01*
X138313301Y-116568224D01*
X138313299Y-116568221D01*
X138163778Y-116418700D01*
X137990558Y-116297411D01*
X137990556Y-116297410D01*
X137969071Y-116287391D01*
X137798910Y-116208044D01*
X137798906Y-116208043D01*
X137798902Y-116208041D01*
X137740586Y-116192416D01*
X137680925Y-116156051D01*
X137650396Y-116093204D01*
X137658691Y-116023829D01*
X137703176Y-115969951D01*
X137740587Y-115952866D01*
X137758900Y-115947959D01*
X137758901Y-115947958D01*
X137758910Y-115947956D01*
X137950558Y-115858589D01*
X138123776Y-115737301D01*
X138273301Y-115587776D01*
X138394589Y-115414558D01*
X138483956Y-115222910D01*
X138538686Y-115018655D01*
X138555489Y-114826591D01*
X138580941Y-114761524D01*
X138637532Y-114720545D01*
X138679017Y-114713400D01*
X148297853Y-114713400D01*
X148313632Y-114715141D01*
X148313658Y-114714874D01*
X148321411Y-114715606D01*
X148321419Y-114715608D01*
X148389744Y-114713461D01*
X148393639Y-114713400D01*
X148421677Y-114713400D01*
X148421683Y-114713400D01*
X148425822Y-114712876D01*
X148437453Y-114711961D01*
X148481905Y-114710565D01*
X148501606Y-114704840D01*
X148520651Y-114700897D01*
X148540999Y-114698327D01*
X148582359Y-114681951D01*
X148593360Y-114678183D01*
X148636093Y-114665769D01*
X148653754Y-114655323D01*
X148671212Y-114646771D01*
X148690288Y-114639219D01*
X148726268Y-114613077D01*
X148736015Y-114606674D01*
X148774298Y-114584034D01*
X148788794Y-114569537D01*
X148803592Y-114556898D01*
X148820187Y-114544842D01*
X148847888Y-114511355D01*
X148905784Y-114472249D01*
X148975635Y-114470651D01*
X149035262Y-114507071D01*
X149056987Y-114540586D01*
X149132816Y-114713461D01*
X149138639Y-114726735D01*
X149216404Y-114845764D01*
X149236591Y-114912652D01*
X149217411Y-114979837D01*
X149164953Y-115025988D01*
X149123404Y-115037112D01*
X149028732Y-115045395D01*
X149028722Y-115045397D01*
X148800565Y-115106531D01*
X148800556Y-115106535D01*
X148586471Y-115206364D01*
X148586469Y-115206365D01*
X148392975Y-115341851D01*
X148392969Y-115341856D01*
X148225942Y-115508883D01*
X148225933Y-115508893D01*
X148167264Y-115592680D01*
X148974623Y-115969158D01*
X148882288Y-116049167D01*
X148804556Y-116170121D01*
X148764049Y-116308076D01*
X148764049Y-116422655D01*
X147955955Y-116045834D01*
X147955954Y-116045835D01*
X147929482Y-116144636D01*
X147929479Y-116144649D01*
X147908892Y-116379964D01*
X147908892Y-116379966D01*
X147929479Y-116615280D01*
X147929481Y-116615291D01*
X147990615Y-116843448D01*
X147990619Y-116843457D01*
X148090448Y-117057543D01*
X148225943Y-117251047D01*
X148392967Y-117418071D01*
X148392977Y-117418080D01*
X148476764Y-117476749D01*
X148854275Y-116667173D01*
X148882288Y-116710763D01*
X148990949Y-116804917D01*
X149121734Y-116864645D01*
X149228286Y-116879965D01*
X149299812Y-116879965D01*
X149307236Y-116878897D01*
X148929919Y-117688057D01*
X149028726Y-117714533D01*
X149028733Y-117714534D01*
X149264047Y-117735122D01*
X149264051Y-117735122D01*
X149499364Y-117714534D01*
X149499375Y-117714532D01*
X149727532Y-117653398D01*
X149727541Y-117653394D01*
X149941627Y-117553565D01*
X150135131Y-117418070D01*
X150302154Y-117251047D01*
X150360831Y-117167248D01*
X149553474Y-116790770D01*
X149645810Y-116710763D01*
X149723542Y-116589809D01*
X149764049Y-116451854D01*
X149764049Y-116337273D01*
X150572141Y-116714093D01*
X150598617Y-116615285D01*
X150619206Y-116379966D01*
X150619206Y-116379963D01*
X150598618Y-116144649D01*
X150598616Y-116144638D01*
X150537482Y-115916481D01*
X150537478Y-115916472D01*
X150437649Y-115702387D01*
X150437648Y-115702385D01*
X150384996Y-115627190D01*
X150362669Y-115560984D01*
X150379679Y-115493217D01*
X150430627Y-115445404D01*
X150466159Y-115433758D01*
X150672134Y-115399388D01*
X150885073Y-115326286D01*
X151083075Y-115219133D01*
X151260739Y-115080850D01*
X151413221Y-114915212D01*
X151536359Y-114726735D01*
X151626795Y-114520560D01*
X151682063Y-114302312D01*
X151682064Y-114302303D01*
X151700655Y-114077949D01*
X151700655Y-114077938D01*
X151682064Y-113853584D01*
X151682062Y-113853572D01*
X151635080Y-113668044D01*
X151626795Y-113635328D01*
X151536359Y-113429153D01*
X151535346Y-113427603D01*
X151475924Y-113336650D01*
X151465276Y-113320353D01*
X151445089Y-113253464D01*
X151464268Y-113186279D01*
X151516727Y-113140128D01*
X151548668Y-113130225D01*
X151745585Y-113097366D01*
X151958524Y-113024264D01*
X152156526Y-112917111D01*
X152334190Y-112778828D01*
X152486672Y-112613190D01*
X152609810Y-112424713D01*
X152700246Y-112218538D01*
X152755514Y-112000290D01*
X152757527Y-111975999D01*
X152774106Y-111775927D01*
X152774106Y-111775916D01*
X152755515Y-111551562D01*
X152755513Y-111551550D01*
X152747530Y-111520026D01*
X152700246Y-111333306D01*
X152676606Y-111279413D01*
X152667704Y-111210115D01*
X152697681Y-111147003D01*
X152757021Y-111110116D01*
X152799985Y-111105995D01*
X152928119Y-111116182D01*
X152928119Y-111116181D01*
X152928120Y-111116182D01*
X153071237Y-111086235D01*
X153071236Y-111086235D01*
X153071242Y-111086234D01*
X153200130Y-111017178D01*
X153304342Y-110914607D01*
X153335838Y-110862470D01*
X154095400Y-109233584D01*
X154115094Y-109175944D01*
X154126682Y-109030181D01*
X154116187Y-108980026D01*
X154096735Y-108887062D01*
X154096734Y-108887061D01*
X154096734Y-108887058D01*
X154027678Y-108758170D01*
X153925107Y-108653958D01*
X153925106Y-108653957D01*
X153872970Y-108622461D01*
X152244090Y-107862902D01*
X152236726Y-107860386D01*
X152186444Y-107843206D01*
X152040679Y-107831617D01*
X151897562Y-107861564D01*
X151897550Y-107861569D01*
X151768674Y-107930619D01*
X151768671Y-107930620D01*
X151664457Y-108033193D01*
X151632961Y-108085329D01*
X150873402Y-109714209D01*
X150853706Y-109771856D01*
X150842117Y-109917620D01*
X150872064Y-110060737D01*
X150872069Y-110060749D01*
X150941052Y-110189500D01*
X150941122Y-110189630D01*
X151011831Y-110261470D01*
X151031987Y-110281949D01*
X151064984Y-110343536D01*
X151059446Y-110413186D01*
X151017132Y-110468785D01*
X150983875Y-110486212D01*
X150863380Y-110527578D01*
X150863369Y-110527583D01*
X150665378Y-110634730D01*
X150665374Y-110634732D01*
X150665374Y-110634733D01*
X150650989Y-110645928D01*
X150585996Y-110671568D01*
X150522432Y-110660456D01*
X150467036Y-110634627D01*
X150431757Y-110609925D01*
X148663039Y-108841207D01*
X146888858Y-107067025D01*
X146878932Y-107054635D01*
X146878725Y-107054807D01*
X146873752Y-107048796D01*
X146823918Y-107001999D01*
X146821118Y-106999285D01*
X146801298Y-106979465D01*
X146801294Y-106979461D01*
X146797996Y-106976903D01*
X146789115Y-106969317D01*
X146756709Y-106938885D01*
X146756701Y-106938880D01*
X146738740Y-106929006D01*
X146722474Y-106918322D01*
X146711642Y-106909920D01*
X146706267Y-106905750D01*
X146706266Y-106905749D01*
X146706264Y-106905748D01*
X146665452Y-106888087D01*
X146654963Y-106882949D01*
X146616005Y-106861532D01*
X146616004Y-106861531D01*
X146616003Y-106861531D01*
X146596137Y-106856430D01*
X146577738Y-106850130D01*
X146558909Y-106841983D01*
X146558908Y-106841982D01*
X146514988Y-106835026D01*
X146503552Y-106832658D01*
X146460482Y-106821600D01*
X146439974Y-106821600D01*
X146420576Y-106820073D01*
X146409969Y-106818393D01*
X146400322Y-106816865D01*
X146400321Y-106816864D01*
X146356048Y-106821050D01*
X146344379Y-106821600D01*
X126447094Y-106821600D01*
X126380055Y-106801915D01*
X126334300Y-106749111D01*
X126324356Y-106679953D01*
X126353381Y-106616397D01*
X126359413Y-106609919D01*
X128734213Y-104235119D01*
X128795536Y-104201634D01*
X128821894Y-104198800D01*
X130286853Y-104198800D01*
X130302632Y-104200541D01*
X130302658Y-104200274D01*
X130310411Y-104201006D01*
X130310419Y-104201008D01*
X130378744Y-104198861D01*
X130382639Y-104198800D01*
X130410677Y-104198800D01*
X130410683Y-104198800D01*
X130414822Y-104198276D01*
X130426453Y-104197361D01*
X130470905Y-104195965D01*
X130490606Y-104190240D01*
X130509651Y-104186297D01*
X130529999Y-104183727D01*
X130571359Y-104167351D01*
X130582360Y-104163583D01*
X130625093Y-104151169D01*
X130642754Y-104140723D01*
X130660212Y-104132171D01*
X130679288Y-104124619D01*
X130715268Y-104098477D01*
X130725015Y-104092074D01*
X130763298Y-104069434D01*
X130777794Y-104054937D01*
X130792592Y-104042298D01*
X130809187Y-104030242D01*
X130837545Y-103995962D01*
X130845388Y-103987342D01*
X131625265Y-103207465D01*
X131686586Y-103173982D01*
X131740256Y-103174890D01*
X131740305Y-103174600D01*
X131742250Y-103174924D01*
X131743393Y-103174944D01*
X131745350Y-103175439D01*
X131745365Y-103175444D01*
X131967431Y-103212500D01*
X132192569Y-103212500D01*
X132414635Y-103175444D01*
X132627574Y-103102342D01*
X132825576Y-102995189D01*
X133003240Y-102856906D01*
X133119150Y-102730995D01*
X133155715Y-102691276D01*
X133155716Y-102691274D01*
X133155722Y-102691268D01*
X133278860Y-102502791D01*
X133369296Y-102296616D01*
X133424564Y-102078368D01*
X133426064Y-102060271D01*
X133443156Y-101854005D01*
X133443156Y-101853994D01*
X133424565Y-101629640D01*
X133424563Y-101629628D01*
X133421876Y-101619018D01*
X133369296Y-101411384D01*
X133278860Y-101205209D01*
X133265514Y-101184782D01*
X133200169Y-101084764D01*
X133155722Y-101016732D01*
X133155719Y-101016729D01*
X133155715Y-101016723D01*
X133003243Y-100851097D01*
X133003238Y-100851092D01*
X132869986Y-100747377D01*
X132825576Y-100712811D01*
X132825575Y-100712810D01*
X132825572Y-100712808D01*
X132627580Y-100605661D01*
X132627577Y-100605659D01*
X132627574Y-100605658D01*
X132627571Y-100605657D01*
X132627569Y-100605656D01*
X132414637Y-100532556D01*
X132192569Y-100495500D01*
X132096593Y-100495500D01*
X132029554Y-100475815D01*
X131983799Y-100423011D01*
X131973855Y-100353853D01*
X132002880Y-100290297D01*
X132008912Y-100283819D01*
X132564834Y-99727898D01*
X133322913Y-98969819D01*
X133384236Y-98936334D01*
X133410594Y-98933500D01*
X134801462Y-98933500D01*
X134868501Y-98953185D01*
X134914256Y-99005989D01*
X134924200Y-99075147D01*
X134913844Y-99109905D01*
X134909716Y-99118755D01*
X134909714Y-99118761D01*
X134850457Y-99339910D01*
X134850456Y-99339918D01*
X134830502Y-99567998D01*
X134830502Y-99568001D01*
X134850456Y-99796081D01*
X134850457Y-99796089D01*
X134909714Y-100017238D01*
X134909718Y-100017249D01*
X134997598Y-100205708D01*
X135006477Y-100224749D01*
X135137802Y-100412300D01*
X135299700Y-100574198D01*
X135487251Y-100705523D01*
X135530345Y-100725618D01*
X135582784Y-100771791D01*
X135601936Y-100838984D01*
X135581720Y-100905865D01*
X135530345Y-100950382D01*
X135487251Y-100970476D01*
X135421192Y-101016732D01*
X135299700Y-101101802D01*
X135299698Y-101101803D01*
X135299695Y-101101806D01*
X135137806Y-101263695D01*
X135006476Y-101451252D01*
X135006475Y-101451254D01*
X134909718Y-101658750D01*
X134909714Y-101658761D01*
X134850457Y-101879910D01*
X134850456Y-101879918D01*
X134830502Y-102107998D01*
X134830502Y-102108001D01*
X134850456Y-102336081D01*
X134850457Y-102336089D01*
X134909714Y-102557238D01*
X134909718Y-102557249D01*
X135000837Y-102752654D01*
X135006477Y-102764749D01*
X135137802Y-102952300D01*
X135299700Y-103114198D01*
X135487251Y-103245523D01*
X135612091Y-103303736D01*
X135694750Y-103342281D01*
X135694752Y-103342281D01*
X135694757Y-103342284D01*
X135915913Y-103401543D01*
X136078832Y-103415796D01*
X136143998Y-103421498D01*
X136144000Y-103421498D01*
X136144002Y-103421498D01*
X136201021Y-103416509D01*
X136372087Y-103401543D01*
X136593243Y-103342284D01*
X136800749Y-103245523D01*
X136988300Y-103114198D01*
X137150198Y-102952300D01*
X137259378Y-102796375D01*
X137313955Y-102752751D01*
X137360952Y-102743500D01*
X139911253Y-102743500D01*
X139927032Y-102745241D01*
X139927058Y-102744974D01*
X139934811Y-102745706D01*
X139934819Y-102745708D01*
X140003144Y-102743561D01*
X140007039Y-102743500D01*
X140035077Y-102743500D01*
X140035083Y-102743500D01*
X140039222Y-102742976D01*
X140050853Y-102742061D01*
X140095305Y-102740665D01*
X140115006Y-102734940D01*
X140134051Y-102730997D01*
X140154399Y-102728427D01*
X140195759Y-102712051D01*
X140206760Y-102708283D01*
X140249493Y-102695869D01*
X140267154Y-102685423D01*
X140284612Y-102676871D01*
X140303688Y-102669319D01*
X140339668Y-102643177D01*
X140349415Y-102636774D01*
X140387698Y-102614134D01*
X140402194Y-102599637D01*
X140416992Y-102586998D01*
X140433587Y-102574942D01*
X140461945Y-102540662D01*
X140469788Y-102532042D01*
X142585987Y-100415843D01*
X142647308Y-100382360D01*
X142717000Y-100387344D01*
X142761347Y-100415845D01*
X142919700Y-100574198D01*
X143107251Y-100705523D01*
X143160401Y-100730307D01*
X143212840Y-100776479D01*
X143231992Y-100843673D01*
X143211776Y-100910554D01*
X143160401Y-100955071D01*
X143111517Y-100977865D01*
X142925179Y-101108342D01*
X142764342Y-101269179D01*
X142633865Y-101455517D01*
X142537734Y-101661673D01*
X142537730Y-101661682D01*
X142485127Y-101857999D01*
X142485128Y-101858000D01*
X143448314Y-101858000D01*
X143436359Y-101869955D01*
X143378835Y-101982852D01*
X143359014Y-102108000D01*
X143378835Y-102233148D01*
X143436359Y-102346045D01*
X143448314Y-102358000D01*
X142485128Y-102358000D01*
X142537730Y-102554317D01*
X142537734Y-102554326D01*
X142633865Y-102760482D01*
X142764342Y-102946820D01*
X142925179Y-103107657D01*
X143111517Y-103238134D01*
X143317673Y-103334265D01*
X143317682Y-103334269D01*
X143513999Y-103386872D01*
X143514000Y-103386871D01*
X143514000Y-102423686D01*
X143525955Y-102435641D01*
X143638852Y-102493165D01*
X143732519Y-102508000D01*
X143795481Y-102508000D01*
X143889148Y-102493165D01*
X144002045Y-102435641D01*
X144014000Y-102423686D01*
X144014000Y-103386872D01*
X144210317Y-103334269D01*
X144210326Y-103334265D01*
X144416482Y-103238134D01*
X144602820Y-103107657D01*
X144763657Y-102946820D01*
X144894134Y-102760482D01*
X144990265Y-102554326D01*
X144990269Y-102554317D01*
X145042872Y-102358000D01*
X144079686Y-102358000D01*
X144091641Y-102346045D01*
X144149165Y-102233148D01*
X144168986Y-102108000D01*
X144149165Y-101982852D01*
X144091641Y-101869955D01*
X144079686Y-101858000D01*
X145042872Y-101858000D01*
X145042872Y-101857999D01*
X144990269Y-101661682D01*
X144990265Y-101661673D01*
X144894134Y-101455517D01*
X144763657Y-101269179D01*
X144602820Y-101108342D01*
X144416481Y-100977865D01*
X144416479Y-100977864D01*
X144367599Y-100955071D01*
X144315159Y-100908899D01*
X144296007Y-100841706D01*
X144316223Y-100774824D01*
X144367599Y-100730307D01*
X144420749Y-100705523D01*
X144608300Y-100574198D01*
X144770198Y-100412300D01*
X144879378Y-100256375D01*
X144933955Y-100212751D01*
X144980952Y-100203500D01*
X149011053Y-100203500D01*
X149026832Y-100205241D01*
X149026858Y-100204974D01*
X149034611Y-100205706D01*
X149034619Y-100205708D01*
X149102944Y-100203561D01*
X149106839Y-100203500D01*
X149134877Y-100203500D01*
X149134883Y-100203500D01*
X149139022Y-100202976D01*
X149150653Y-100202061D01*
X149195105Y-100200665D01*
X149214806Y-100194940D01*
X149233851Y-100190997D01*
X149254199Y-100188427D01*
X149295559Y-100172051D01*
X149306560Y-100168283D01*
X149349293Y-100155869D01*
X149366954Y-100145423D01*
X149384412Y-100136871D01*
X149403488Y-100129319D01*
X149439468Y-100103177D01*
X149449215Y-100096774D01*
X149487498Y-100074134D01*
X149501994Y-100059637D01*
X149516792Y-100046998D01*
X149533387Y-100034942D01*
X149561745Y-100000662D01*
X149569588Y-99992042D01*
X151924072Y-97637558D01*
X151936461Y-97627635D01*
X151936289Y-97627428D01*
X151942298Y-97622455D01*
X151942303Y-97622453D01*
X151989149Y-97572565D01*
X151991798Y-97569832D01*
X152011638Y-97549994D01*
X152014183Y-97546713D01*
X152021776Y-97537822D01*
X152052217Y-97505406D01*
X152062102Y-97487424D01*
X152072773Y-97471178D01*
X152085349Y-97454967D01*
X152103011Y-97414150D01*
X152108142Y-97403676D01*
X152129569Y-97364703D01*
X152134670Y-97344831D01*
X152140973Y-97326426D01*
X152147523Y-97311291D01*
X152149117Y-97307608D01*
X152149118Y-97307599D01*
X152151292Y-97300119D01*
X152154025Y-97300912D01*
X152178175Y-97249969D01*
X152237486Y-97213037D01*
X152270720Y-97208500D01*
X152482638Y-97208500D01*
X152482654Y-97208499D01*
X152509692Y-97205591D01*
X152543201Y-97201989D01*
X152547073Y-97200545D01*
X152557768Y-97196555D01*
X152680204Y-97150889D01*
X152797261Y-97063261D01*
X152884889Y-96946204D01*
X152935366Y-96810871D01*
X152935988Y-96809204D01*
X152935988Y-96809203D01*
X152935989Y-96809201D01*
X152941897Y-96754249D01*
X152942499Y-96748654D01*
X152942500Y-96748637D01*
X152942500Y-94851362D01*
X152942499Y-94851345D01*
X152936919Y-94799453D01*
X152935989Y-94790799D01*
X152933356Y-94783740D01*
X152908123Y-94716089D01*
X152884889Y-94653796D01*
X152797261Y-94536739D01*
X152680204Y-94449111D01*
X152652911Y-94438931D01*
X152610037Y-94422939D01*
X152554104Y-94381067D01*
X152529688Y-94315602D01*
X152544541Y-94247329D01*
X152562138Y-94222780D01*
X152649314Y-94128083D01*
X152776984Y-93932669D01*
X152870749Y-93718907D01*
X152928051Y-93492626D01*
X152940064Y-93347647D01*
X152947327Y-93260005D01*
X152947327Y-93259994D01*
X152928051Y-93027377D01*
X152928051Y-93027374D01*
X152870749Y-92801093D01*
X152776984Y-92587331D01*
X152743362Y-92535868D01*
X152649313Y-92391915D01*
X152491223Y-92220185D01*
X152491222Y-92220184D01*
X152491220Y-92220182D01*
X152307017Y-92076810D01*
X152307015Y-92076809D01*
X152307014Y-92076808D01*
X152307011Y-92076806D01*
X152101733Y-91965716D01*
X152101730Y-91965715D01*
X152101727Y-91965713D01*
X152101721Y-91965711D01*
X152101719Y-91965710D01*
X151880954Y-91889920D01*
X151708271Y-91861105D01*
X151650712Y-91851500D01*
X151417288Y-91851500D01*
X151371240Y-91859184D01*
X151187045Y-91889920D01*
X150966280Y-91965710D01*
X150966266Y-91965716D01*
X150760988Y-92076806D01*
X150760985Y-92076808D01*
X150576781Y-92220181D01*
X150576776Y-92220185D01*
X150418686Y-92391915D01*
X150291015Y-92587331D01*
X150197251Y-92801092D01*
X150139948Y-93027377D01*
X150120673Y-93259994D01*
X150120673Y-93260005D01*
X150139948Y-93492622D01*
X150197251Y-93718907D01*
X150291015Y-93932668D01*
X150418686Y-94128084D01*
X150505856Y-94222775D01*
X150536779Y-94285429D01*
X150528919Y-94354855D01*
X150484772Y-94409011D01*
X150457963Y-94422939D01*
X150387794Y-94449111D01*
X150270739Y-94536739D01*
X150183111Y-94653795D01*
X150132011Y-94790795D01*
X150132011Y-94790797D01*
X150125500Y-94851345D01*
X150125500Y-96748654D01*
X150132011Y-96809202D01*
X150132011Y-96809204D01*
X150154737Y-96870132D01*
X150183111Y-96946204D01*
X150270739Y-97063261D01*
X150387796Y-97150889D01*
X150387798Y-97150889D01*
X150388256Y-97151140D01*
X150388627Y-97151511D01*
X150394896Y-97156204D01*
X150394221Y-97157105D01*
X150437662Y-97200545D01*
X150452514Y-97268818D01*
X150428098Y-97334282D01*
X150416511Y-97347654D01*
X149851335Y-97912831D01*
X149790012Y-97946316D01*
X149720321Y-97941332D01*
X149664387Y-97899461D01*
X149639970Y-97833996D01*
X149640296Y-97812546D01*
X149647500Y-97742037D01*
X149647499Y-96337964D01*
X149636909Y-96234299D01*
X149635947Y-96231396D01*
X149581256Y-96066344D01*
X149581255Y-96066342D01*
X149488364Y-95915745D01*
X149363254Y-95790635D01*
X149212657Y-95697744D01*
X149212655Y-95697743D01*
X149046927Y-95642828D01*
X148998249Y-95612803D01*
X148327231Y-94941784D01*
X148373138Y-94934865D01*
X148495357Y-94876007D01*
X148594798Y-94783740D01*
X148662625Y-94666260D01*
X148680499Y-94587946D01*
X149390186Y-95297633D01*
X149474482Y-95168611D01*
X149567682Y-94956135D01*
X149624638Y-94731218D01*
X149643798Y-94500005D01*
X149643798Y-94499994D01*
X149624638Y-94268781D01*
X149567682Y-94043864D01*
X149474484Y-93831393D01*
X149390186Y-93702365D01*
X148683449Y-94409102D01*
X148682673Y-94398735D01*
X148633113Y-94272459D01*
X148548535Y-94166401D01*
X148436453Y-94089984D01*
X148328699Y-94056746D01*
X149037797Y-93347647D01*
X149037797Y-93347646D01*
X149019285Y-93333237D01*
X148978472Y-93276526D01*
X148974799Y-93206753D01*
X149009430Y-93146070D01*
X149019260Y-93137552D01*
X149196220Y-92999818D01*
X149354314Y-92828083D01*
X149481984Y-92632669D01*
X149575749Y-92418907D01*
X149633051Y-92192626D01*
X149643101Y-92071345D01*
X149652327Y-91960005D01*
X149652327Y-91959994D01*
X149633344Y-91730907D01*
X149633051Y-91727374D01*
X149575749Y-91501093D01*
X149481984Y-91287331D01*
X149432236Y-91211186D01*
X149354313Y-91091915D01*
X149196223Y-90920185D01*
X149196222Y-90920184D01*
X149196220Y-90920182D01*
X149012017Y-90776810D01*
X149012015Y-90776809D01*
X149012014Y-90776808D01*
X149012011Y-90776806D01*
X148806733Y-90665716D01*
X148806730Y-90665715D01*
X148806727Y-90665713D01*
X148806721Y-90665711D01*
X148806719Y-90665710D01*
X148585954Y-90589920D01*
X148413271Y-90561105D01*
X148355712Y-90551500D01*
X148122288Y-90551500D01*
X148083914Y-90557903D01*
X147892044Y-90589920D01*
X147872651Y-90596578D01*
X147802852Y-90599726D01*
X147744710Y-90566977D01*
X147465658Y-90287925D01*
X147455732Y-90275535D01*
X147455525Y-90275707D01*
X147450552Y-90269696D01*
X147400718Y-90222899D01*
X147397918Y-90220185D01*
X147378098Y-90200365D01*
X147378094Y-90200361D01*
X147374796Y-90197803D01*
X147365915Y-90190217D01*
X147333509Y-90159785D01*
X147333501Y-90159780D01*
X147315540Y-90149906D01*
X147299274Y-90139222D01*
X147283064Y-90126648D01*
X147242252Y-90108987D01*
X147231763Y-90103849D01*
X147192805Y-90082432D01*
X147192804Y-90082431D01*
X147192803Y-90082431D01*
X147172937Y-90077330D01*
X147154538Y-90071030D01*
X147135709Y-90062883D01*
X147135708Y-90062882D01*
X147091788Y-90055926D01*
X147080352Y-90053558D01*
X147037282Y-90042500D01*
X147016774Y-90042500D01*
X146997376Y-90040973D01*
X146986769Y-90039293D01*
X146977122Y-90037765D01*
X146977121Y-90037764D01*
X146932848Y-90041950D01*
X146921179Y-90042500D01*
X145106538Y-90042500D01*
X145039499Y-90022815D01*
X144993744Y-89970011D01*
X144983800Y-89900853D01*
X144994156Y-89866095D01*
X144998284Y-89857243D01*
X145057543Y-89636087D01*
X145077498Y-89408000D01*
X145072593Y-89351941D01*
X145070414Y-89327025D01*
X145057543Y-89179913D01*
X144998284Y-88958757D01*
X144901523Y-88751251D01*
X144770198Y-88563700D01*
X144608300Y-88401802D01*
X144600627Y-88396429D01*
X144557006Y-88341853D01*
X144549814Y-88272355D01*
X144562126Y-88248002D01*
X147559034Y-88248002D01*
X147578858Y-88474599D01*
X147578860Y-88474610D01*
X147637730Y-88694317D01*
X147637735Y-88694331D01*
X147733863Y-88900478D01*
X147784974Y-88973472D01*
X148466046Y-88292400D01*
X148478835Y-88373148D01*
X148536359Y-88486045D01*
X148625955Y-88575641D01*
X148738852Y-88633165D01*
X148819599Y-88645953D01*
X148138526Y-89327025D01*
X148211513Y-89378132D01*
X148211521Y-89378136D01*
X148417668Y-89474264D01*
X148417682Y-89474269D01*
X148637389Y-89533139D01*
X148637400Y-89533141D01*
X148863998Y-89552966D01*
X148864002Y-89552966D01*
X149090599Y-89533141D01*
X149090610Y-89533139D01*
X149310317Y-89474269D01*
X149310331Y-89474264D01*
X149516478Y-89378136D01*
X149589471Y-89327024D01*
X148908400Y-88645953D01*
X148989148Y-88633165D01*
X149102045Y-88575641D01*
X149191641Y-88486045D01*
X149249165Y-88373148D01*
X149261953Y-88292400D01*
X149943024Y-88973471D01*
X149994136Y-88900478D01*
X150090264Y-88694331D01*
X150090269Y-88694317D01*
X150149139Y-88474610D01*
X150149141Y-88474599D01*
X150168966Y-88248002D01*
X150168966Y-88247997D01*
X150149141Y-88021400D01*
X150149139Y-88021389D01*
X150090269Y-87801682D01*
X150090264Y-87801668D01*
X149994136Y-87595521D01*
X149994132Y-87595513D01*
X149943025Y-87522526D01*
X149261953Y-88203598D01*
X149249165Y-88122852D01*
X149191641Y-88009955D01*
X149102045Y-87920359D01*
X148989148Y-87862835D01*
X148908401Y-87850046D01*
X149589472Y-87168974D01*
X149516478Y-87117863D01*
X149310331Y-87021735D01*
X149310317Y-87021730D01*
X149090610Y-86962860D01*
X149090599Y-86962858D01*
X148864002Y-86943034D01*
X148863998Y-86943034D01*
X148637400Y-86962858D01*
X148637389Y-86962860D01*
X148417682Y-87021730D01*
X148417673Y-87021734D01*
X148211516Y-87117866D01*
X148211512Y-87117868D01*
X148138526Y-87168973D01*
X148138526Y-87168974D01*
X148819599Y-87850046D01*
X148738852Y-87862835D01*
X148625955Y-87920359D01*
X148536359Y-88009955D01*
X148478835Y-88122852D01*
X148466046Y-88203598D01*
X147784974Y-87522526D01*
X147784973Y-87522526D01*
X147733868Y-87595512D01*
X147733866Y-87595516D01*
X147637734Y-87801673D01*
X147637730Y-87801682D01*
X147578860Y-88021389D01*
X147578858Y-88021400D01*
X147559034Y-88247997D01*
X147559034Y-88248002D01*
X144562126Y-88248002D01*
X144581338Y-88210001D01*
X144641568Y-88174588D01*
X144658489Y-88171570D01*
X144673201Y-88169989D01*
X144810204Y-88118889D01*
X144927261Y-88031261D01*
X145014889Y-87914204D01*
X145060555Y-87791768D01*
X145065988Y-87777204D01*
X145065988Y-87777203D01*
X145065989Y-87777201D01*
X145069591Y-87743692D01*
X145072499Y-87716654D01*
X145072500Y-87716637D01*
X145072500Y-86019362D01*
X145072499Y-86019345D01*
X145066495Y-85963508D01*
X145065989Y-85958799D01*
X145014889Y-85821796D01*
X144927261Y-85704739D01*
X144810204Y-85617111D01*
X144673203Y-85566011D01*
X144612654Y-85559500D01*
X144612638Y-85559500D01*
X142915362Y-85559500D01*
X142915345Y-85559500D01*
X142854797Y-85566011D01*
X142854795Y-85566011D01*
X142717795Y-85617111D01*
X142600739Y-85704739D01*
X142513111Y-85821795D01*
X142462011Y-85958795D01*
X142462011Y-85958797D01*
X142455500Y-86019345D01*
X142455500Y-87716654D01*
X142462011Y-87777202D01*
X142462011Y-87777204D01*
X142498189Y-87874198D01*
X142513111Y-87914204D01*
X142600739Y-88031261D01*
X142717796Y-88118889D01*
X142804135Y-88151092D01*
X142854793Y-88169987D01*
X142854799Y-88169989D01*
X142869499Y-88171569D01*
X142934048Y-88198305D01*
X142973897Y-88255696D01*
X142976393Y-88325521D01*
X142940742Y-88385611D01*
X142927377Y-88396425D01*
X142927371Y-88396431D01*
X142919696Y-88401805D01*
X142757806Y-88563695D01*
X142757803Y-88563698D01*
X142757802Y-88563700D01*
X142654392Y-88711385D01*
X142648623Y-88719624D01*
X142594045Y-88763249D01*
X142547048Y-88772500D01*
X137360952Y-88772500D01*
X137293913Y-88752815D01*
X137259377Y-88719624D01*
X137253608Y-88711385D01*
X137150198Y-88563700D01*
X136988300Y-88401802D01*
X136800749Y-88270477D01*
X136757655Y-88250382D01*
X136705215Y-88204210D01*
X136686063Y-88137017D01*
X136706278Y-88070136D01*
X136757655Y-88025618D01*
X136766724Y-88021389D01*
X136800749Y-88005523D01*
X136988300Y-87874198D01*
X137150198Y-87712300D01*
X137281523Y-87524749D01*
X137378284Y-87317243D01*
X137437543Y-87096087D01*
X137457498Y-86868000D01*
X137456421Y-86855695D01*
X137448291Y-86762763D01*
X137437543Y-86639913D01*
X137378284Y-86418757D01*
X137371475Y-86404156D01*
X137318511Y-86290572D01*
X137281523Y-86211251D01*
X137150198Y-86023700D01*
X137014179Y-85887681D01*
X136980694Y-85826358D01*
X136985678Y-85756666D01*
X137027550Y-85700733D01*
X137093014Y-85676316D01*
X137101860Y-85676000D01*
X139969023Y-85676000D01*
X140034995Y-85695007D01*
X140159977Y-85773539D01*
X140159980Y-85773541D01*
X140159984Y-85773542D01*
X140159985Y-85773543D01*
X140297882Y-85821795D01*
X140331953Y-85833717D01*
X140331958Y-85833718D01*
X140512996Y-85854116D01*
X140513000Y-85854116D01*
X140513004Y-85854116D01*
X140694041Y-85833718D01*
X140694044Y-85833717D01*
X140694047Y-85833717D01*
X140866015Y-85773543D01*
X141020281Y-85676611D01*
X141149111Y-85547781D01*
X141246043Y-85393515D01*
X141296960Y-85248001D01*
X147550502Y-85248001D01*
X147570456Y-85476081D01*
X147570457Y-85476089D01*
X147629714Y-85697238D01*
X147629718Y-85697249D01*
X147710797Y-85871123D01*
X147726477Y-85904749D01*
X147857802Y-86092300D01*
X148019700Y-86254198D01*
X148207251Y-86385523D01*
X148332091Y-86443736D01*
X148414750Y-86482281D01*
X148414752Y-86482281D01*
X148414757Y-86482284D01*
X148635913Y-86541543D01*
X148798832Y-86555796D01*
X148863998Y-86561498D01*
X148864000Y-86561498D01*
X148864002Y-86561498D01*
X148921021Y-86556509D01*
X149092087Y-86541543D01*
X149313243Y-86482284D01*
X149520749Y-86385523D01*
X149708300Y-86254198D01*
X149870198Y-86092300D01*
X150001523Y-85904749D01*
X150098284Y-85697243D01*
X150157543Y-85476087D01*
X150177498Y-85248000D01*
X150157543Y-85019913D01*
X150098284Y-84798757D01*
X150091601Y-84784426D01*
X150045507Y-84685575D01*
X150001523Y-84591251D01*
X149870198Y-84403700D01*
X149708300Y-84241802D01*
X149520749Y-84110477D01*
X149520745Y-84110475D01*
X149313249Y-84013718D01*
X149313238Y-84013714D01*
X149092089Y-83954457D01*
X149092081Y-83954456D01*
X148864002Y-83934502D01*
X148863998Y-83934502D01*
X148635918Y-83954456D01*
X148635910Y-83954457D01*
X148414761Y-84013714D01*
X148414750Y-84013718D01*
X148207254Y-84110475D01*
X148207252Y-84110476D01*
X148207251Y-84110477D01*
X148019700Y-84241802D01*
X148019698Y-84241803D01*
X148019695Y-84241806D01*
X147857806Y-84403695D01*
X147857803Y-84403698D01*
X147857802Y-84403700D01*
X147833370Y-84438593D01*
X147726476Y-84591252D01*
X147726475Y-84591254D01*
X147629718Y-84798750D01*
X147629714Y-84798761D01*
X147570457Y-85019910D01*
X147570456Y-85019918D01*
X147550502Y-85247998D01*
X147550502Y-85248001D01*
X141296960Y-85248001D01*
X141306217Y-85221547D01*
X141326616Y-85040500D01*
X141324296Y-85019913D01*
X141306218Y-84859458D01*
X141306217Y-84859453D01*
X141303016Y-84850306D01*
X141246043Y-84687485D01*
X141149111Y-84533219D01*
X141020281Y-84404389D01*
X140883531Y-84318463D01*
X140866017Y-84307458D01*
X140866016Y-84307457D01*
X140866015Y-84307457D01*
X140811693Y-84288449D01*
X140694046Y-84247282D01*
X140694041Y-84247281D01*
X140513004Y-84226884D01*
X140512996Y-84226884D01*
X140331958Y-84247281D01*
X140331953Y-84247282D01*
X140159980Y-84307458D01*
X140159977Y-84307460D01*
X140034995Y-84385993D01*
X139969023Y-84405000D01*
X105300052Y-84405000D01*
X105284269Y-84403257D01*
X105284244Y-84403525D01*
X105276482Y-84402791D01*
X105276481Y-84402791D01*
X105208138Y-84404939D01*
X105204243Y-84405000D01*
X105176217Y-84405000D01*
X105176213Y-84405000D01*
X105176201Y-84405001D01*
X105172076Y-84405522D01*
X105160447Y-84406437D01*
X105115999Y-84407834D01*
X105115989Y-84407836D01*
X105111088Y-84409260D01*
X105041219Y-84409057D01*
X104982551Y-84371111D01*
X104953711Y-84307471D01*
X104952500Y-84290182D01*
X104952500Y-83429362D01*
X104952499Y-83429345D01*
X104948464Y-83391825D01*
X104945989Y-83368799D01*
X104942560Y-83359606D01*
X104922655Y-83306240D01*
X104894889Y-83231796D01*
X104807261Y-83114739D01*
X104690204Y-83027111D01*
X104572404Y-82983172D01*
X104516471Y-82941300D01*
X104492055Y-82875835D01*
X104506908Y-82807562D01*
X104524504Y-82783014D01*
X104669722Y-82625268D01*
X104792860Y-82436791D01*
X104883296Y-82230616D01*
X104938564Y-82012368D01*
X104947045Y-81910021D01*
X104957156Y-81788005D01*
X104957156Y-81787994D01*
X104938565Y-81563640D01*
X104938563Y-81563628D01*
X104920020Y-81490402D01*
X104883296Y-81345384D01*
X104792860Y-81139209D01*
X104780468Y-81120242D01*
X104669723Y-80950734D01*
X104669715Y-80950723D01*
X104517243Y-80785097D01*
X104517238Y-80785092D01*
X104345798Y-80651654D01*
X104339576Y-80646811D01*
X104339575Y-80646810D01*
X104339572Y-80646808D01*
X104141580Y-80539661D01*
X104141577Y-80539659D01*
X104141574Y-80539658D01*
X104141571Y-80539657D01*
X104141569Y-80539656D01*
X103928637Y-80466556D01*
X103706569Y-80429500D01*
X103481431Y-80429500D01*
X103259362Y-80466556D01*
X103046430Y-80539656D01*
X103046419Y-80539661D01*
X102848427Y-80646808D01*
X102848422Y-80646812D01*
X102670761Y-80785092D01*
X102670756Y-80785097D01*
X102518284Y-80950723D01*
X102518276Y-80950734D01*
X102423159Y-81096322D01*
X102370013Y-81141678D01*
X102319351Y-81152500D01*
X98719451Y-81152500D01*
X98703676Y-81150758D01*
X98703651Y-81151026D01*
X98695883Y-81150291D01*
X98627570Y-81152439D01*
X98623675Y-81152500D01*
X98595615Y-81152500D01*
X98591471Y-81153023D01*
X98579843Y-81153938D01*
X98535396Y-81155335D01*
X98515698Y-81161058D01*
X98496651Y-81165002D01*
X98476301Y-81167573D01*
X98476298Y-81167573D01*
X98476298Y-81167574D01*
X98434945Y-81183946D01*
X98423897Y-81187728D01*
X98381209Y-81200130D01*
X98363550Y-81210573D01*
X98346083Y-81219129D01*
X98327015Y-81226678D01*
X98327011Y-81226681D01*
X98291034Y-81252818D01*
X98281279Y-81259226D01*
X98243000Y-81281865D01*
X98228498Y-81296368D01*
X98213708Y-81309000D01*
X98197115Y-81321055D01*
X98197112Y-81321058D01*
X98168763Y-81355325D01*
X98160903Y-81363962D01*
X97454355Y-82070510D01*
X97393032Y-82103995D01*
X97380559Y-82106049D01*
X97338555Y-82110782D01*
X97166582Y-82170958D01*
X97012318Y-82267889D01*
X96883489Y-82396718D01*
X96786558Y-82550982D01*
X96726382Y-82722953D01*
X96726381Y-82722958D01*
X96705984Y-82903996D01*
X96705984Y-82904003D01*
X96722559Y-83051117D01*
X96710504Y-83119939D01*
X96663155Y-83171318D01*
X96599339Y-83189000D01*
X94785451Y-83189000D01*
X94769676Y-83187258D01*
X94769651Y-83187526D01*
X94761883Y-83186791D01*
X94693570Y-83188939D01*
X94689675Y-83189000D01*
X94661615Y-83189000D01*
X94657471Y-83189523D01*
X94645843Y-83190438D01*
X94601399Y-83191835D01*
X94601389Y-83191837D01*
X94581698Y-83197557D01*
X94562656Y-83201500D01*
X94560727Y-83201744D01*
X94542303Y-83204072D01*
X94542295Y-83204074D01*
X94500945Y-83220445D01*
X94489902Y-83224226D01*
X94447206Y-83236632D01*
X94429550Y-83247073D01*
X94412088Y-83255627D01*
X94393015Y-83263179D01*
X94393006Y-83263184D01*
X94357029Y-83289322D01*
X94347269Y-83295733D01*
X94309002Y-83318364D01*
X94294498Y-83332868D01*
X94279708Y-83345500D01*
X94263115Y-83357555D01*
X94263112Y-83357558D01*
X94234763Y-83391825D01*
X94226903Y-83400462D01*
X89553921Y-88073444D01*
X89541531Y-88083372D01*
X89541702Y-88083579D01*
X89535695Y-88088548D01*
X89488898Y-88138381D01*
X89486190Y-88141175D01*
X89466366Y-88160998D01*
X89466365Y-88161000D01*
X89463797Y-88164311D01*
X89456222Y-88173178D01*
X89435920Y-88194799D01*
X89425782Y-88205595D01*
X89425781Y-88205596D01*
X89415900Y-88223568D01*
X89405225Y-88239819D01*
X89392652Y-88256029D01*
X89392650Y-88256033D01*
X89374987Y-88296848D01*
X89369850Y-88307333D01*
X89348430Y-88346297D01*
X89343329Y-88366164D01*
X89337030Y-88384562D01*
X89328884Y-88403387D01*
X89328881Y-88403396D01*
X89321926Y-88447312D01*
X89319557Y-88458750D01*
X89308500Y-88501810D01*
X89308500Y-88522325D01*
X89306973Y-88541724D01*
X89304009Y-88560441D01*
X89303765Y-88561979D01*
X89305446Y-88579763D01*
X89307950Y-88606249D01*
X89308500Y-88617919D01*
X89308500Y-90130725D01*
X89288815Y-90197764D01*
X89236011Y-90243519D01*
X89197103Y-90254083D01*
X89138296Y-90260091D01*
X88970344Y-90315743D01*
X88970342Y-90315744D01*
X88819745Y-90408635D01*
X88694635Y-90533745D01*
X88601744Y-90684342D01*
X88601743Y-90684344D01*
X88546091Y-90852295D01*
X88546091Y-90852296D01*
X88535500Y-90955955D01*
X88535500Y-92360030D01*
X88535501Y-92360045D01*
X88546091Y-92463703D01*
X88601743Y-92631655D01*
X88601744Y-92631657D01*
X88694635Y-92782254D01*
X88819745Y-92907364D01*
X88819747Y-92907365D01*
X88819748Y-92907366D01*
X88919928Y-92969159D01*
X88970342Y-93000255D01*
X88970344Y-93000256D01*
X89136073Y-93055172D01*
X89184751Y-93085197D01*
X89855769Y-93756215D01*
X89809862Y-93763135D01*
X89687643Y-93821993D01*
X89588202Y-93914260D01*
X89520375Y-94031740D01*
X89502500Y-94110054D01*
X88792811Y-93400365D01*
X88708516Y-93529390D01*
X88615317Y-93741864D01*
X88558361Y-93966781D01*
X88539202Y-94197994D01*
X88539202Y-94198005D01*
X88558361Y-94429218D01*
X88615317Y-94654135D01*
X88708515Y-94866606D01*
X88792812Y-94995633D01*
X89499549Y-94288895D01*
X89500327Y-94299265D01*
X89549887Y-94425541D01*
X89634465Y-94531599D01*
X89746547Y-94608016D01*
X89854299Y-94641253D01*
X89145201Y-95350351D01*
X89163714Y-95364760D01*
X89204527Y-95421471D01*
X89208202Y-95491244D01*
X89173570Y-95551927D01*
X89163715Y-95560467D01*
X88986781Y-95698181D01*
X88986776Y-95698185D01*
X88828686Y-95869915D01*
X88701015Y-96065331D01*
X88607251Y-96279092D01*
X88549948Y-96505377D01*
X88530673Y-96737994D01*
X88530673Y-96738005D01*
X88549948Y-96970622D01*
X88549948Y-96970625D01*
X88549949Y-96970626D01*
X88561939Y-97017972D01*
X88607251Y-97196907D01*
X88701015Y-97410668D01*
X88828686Y-97606084D01*
X88986776Y-97777814D01*
X88986780Y-97777818D01*
X89170983Y-97921190D01*
X89170985Y-97921191D01*
X89170988Y-97921193D01*
X89182386Y-97927361D01*
X89376273Y-98032287D01*
X89412463Y-98044711D01*
X89597045Y-98108079D01*
X89597047Y-98108079D01*
X89597049Y-98108080D01*
X89827288Y-98146500D01*
X89827289Y-98146500D01*
X90060711Y-98146500D01*
X90060712Y-98146500D01*
X90290951Y-98108080D01*
X90511727Y-98032287D01*
X90717017Y-97921190D01*
X90901220Y-97777818D01*
X91059314Y-97606083D01*
X91186984Y-97410669D01*
X91280749Y-97196907D01*
X91338051Y-96970626D01*
X91351019Y-96814130D01*
X91357327Y-96738005D01*
X91357327Y-96737994D01*
X91338051Y-96505377D01*
X91338051Y-96505374D01*
X91302893Y-96366538D01*
X91305518Y-96296720D01*
X91345474Y-96239403D01*
X91410075Y-96212786D01*
X91423099Y-96212100D01*
X108495779Y-96212100D01*
X108562818Y-96231785D01*
X108597351Y-96264973D01*
X108706525Y-96420889D01*
X108868423Y-96582787D01*
X109055974Y-96714112D01*
X109130014Y-96748637D01*
X109263473Y-96810870D01*
X109263475Y-96810870D01*
X109263480Y-96810873D01*
X109484636Y-96870132D01*
X109647555Y-96884385D01*
X109712721Y-96890087D01*
X109712723Y-96890087D01*
X109712725Y-96890087D01*
X109769744Y-96885098D01*
X109940810Y-96870132D01*
X110161966Y-96810873D01*
X110319046Y-96737625D01*
X110388122Y-96727134D01*
X110451906Y-96755654D01*
X110490145Y-96814130D01*
X110494977Y-96860815D01*
X110479872Y-97033470D01*
X110479872Y-97033474D01*
X110499826Y-97261554D01*
X110499827Y-97261562D01*
X110559084Y-97482711D01*
X110559088Y-97482722D01*
X110644243Y-97665337D01*
X110655847Y-97690222D01*
X110787172Y-97877773D01*
X110949070Y-98039671D01*
X111136621Y-98170996D01*
X111225709Y-98212538D01*
X111344120Y-98267754D01*
X111344122Y-98267754D01*
X111344127Y-98267757D01*
X111565283Y-98327016D01*
X111728202Y-98341269D01*
X111793368Y-98346971D01*
X111793370Y-98346971D01*
X111793372Y-98346971D01*
X111850391Y-98341982D01*
X112021457Y-98327016D01*
X112242613Y-98267757D01*
X112399694Y-98194509D01*
X112468767Y-98184018D01*
X112532551Y-98212538D01*
X112570791Y-98271014D01*
X112575623Y-98317699D01*
X112560518Y-98490354D01*
X112560518Y-98490358D01*
X112580472Y-98718438D01*
X112580473Y-98718446D01*
X112639730Y-98939595D01*
X112639734Y-98939606D01*
X112730999Y-99135325D01*
X112736493Y-99147106D01*
X112867818Y-99334657D01*
X113029716Y-99496555D01*
X113217267Y-99627880D01*
X113306355Y-99669422D01*
X113424766Y-99724638D01*
X113424768Y-99724638D01*
X113424773Y-99724641D01*
X113645929Y-99783900D01*
X113808848Y-99798153D01*
X113874014Y-99803855D01*
X113874016Y-99803855D01*
X113874018Y-99803855D01*
X113931037Y-99798866D01*
X114102103Y-99783900D01*
X114323259Y-99724641D01*
X114480340Y-99651393D01*
X114549413Y-99640902D01*
X114613197Y-99669422D01*
X114651437Y-99727898D01*
X114656269Y-99774583D01*
X114641164Y-99947238D01*
X114641164Y-99947242D01*
X114661118Y-100175322D01*
X114661119Y-100175330D01*
X114720376Y-100396479D01*
X114720380Y-100396490D01*
X114803247Y-100574198D01*
X114817139Y-100603990D01*
X114948464Y-100791541D01*
X115110362Y-100953439D01*
X115297913Y-101084764D01*
X115348477Y-101108342D01*
X115505412Y-101181522D01*
X115505414Y-101181522D01*
X115505419Y-101181525D01*
X115726575Y-101240784D01*
X115889494Y-101255037D01*
X115954660Y-101260739D01*
X115954662Y-101260739D01*
X115954664Y-101260739D01*
X116011683Y-101255750D01*
X116182749Y-101240784D01*
X116403905Y-101181525D01*
X116560986Y-101108277D01*
X116630059Y-101097786D01*
X116693843Y-101126306D01*
X116732083Y-101184782D01*
X116736915Y-101231467D01*
X116721810Y-101404123D01*
X116721810Y-101404127D01*
X116741764Y-101632207D01*
X116741765Y-101632215D01*
X116801022Y-101853364D01*
X116801026Y-101853375D01*
X116897503Y-102060271D01*
X116897785Y-102060875D01*
X117029110Y-102248426D01*
X117191008Y-102410324D01*
X117378559Y-102541649D01*
X117449957Y-102574942D01*
X117586058Y-102638407D01*
X117586060Y-102638407D01*
X117586065Y-102638410D01*
X117807221Y-102697669D01*
X117947091Y-102709906D01*
X118035306Y-102717624D01*
X118035308Y-102717624D01*
X118035310Y-102717624D01*
X118098928Y-102712058D01*
X118263395Y-102697669D01*
X118484551Y-102638410D01*
X118641632Y-102565162D01*
X118710705Y-102554671D01*
X118774489Y-102583191D01*
X118812729Y-102641667D01*
X118817561Y-102688352D01*
X118802456Y-102861007D01*
X118802456Y-102861011D01*
X118822410Y-103089091D01*
X118822411Y-103089099D01*
X118881668Y-103310248D01*
X118881672Y-103310259D01*
X118893627Y-103335896D01*
X118904119Y-103404974D01*
X118875599Y-103468757D01*
X118817122Y-103506996D01*
X118781245Y-103512300D01*
X100052977Y-103512300D01*
X99987005Y-103493293D01*
X99862022Y-103414760D01*
X99862019Y-103414758D01*
X99690046Y-103354582D01*
X99690041Y-103354581D01*
X99509004Y-103334184D01*
X99508996Y-103334184D01*
X99327958Y-103354581D01*
X99327953Y-103354582D01*
X99155982Y-103414758D01*
X99001718Y-103511689D01*
X98872889Y-103640518D01*
X98775958Y-103794782D01*
X98715782Y-103966753D01*
X98715781Y-103966758D01*
X98695384Y-104147796D01*
X98695384Y-104147803D01*
X98715781Y-104328841D01*
X98715784Y-104328854D01*
X98721870Y-104346245D01*
X98725433Y-104416023D01*
X98690704Y-104476651D01*
X98628711Y-104508879D01*
X98604829Y-104511200D01*
X98027079Y-104511200D01*
X97960040Y-104491515D01*
X97925506Y-104458326D01*
X97816324Y-104302398D01*
X97654426Y-104140500D01*
X97466875Y-104009175D01*
X97438947Y-103996152D01*
X97259375Y-103912416D01*
X97259364Y-103912412D01*
X97038215Y-103853155D01*
X97038207Y-103853154D01*
X96810128Y-103833200D01*
X96810124Y-103833200D01*
X96582044Y-103853154D01*
X96582036Y-103853155D01*
X96360887Y-103912412D01*
X96360876Y-103912416D01*
X96203804Y-103985660D01*
X96134727Y-103996152D01*
X96070943Y-103967632D01*
X96032704Y-103909155D01*
X96027872Y-103862473D01*
X96042978Y-103689814D01*
X96042287Y-103681921D01*
X96030433Y-103546428D01*
X96023023Y-103461727D01*
X95963764Y-103240571D01*
X95960701Y-103234003D01*
X95904833Y-103114193D01*
X95867003Y-103033065D01*
X95735678Y-102845514D01*
X95573780Y-102683616D01*
X95386229Y-102552291D01*
X95386225Y-102552289D01*
X95178729Y-102455532D01*
X95178718Y-102455528D01*
X94957569Y-102396271D01*
X94957561Y-102396270D01*
X94729482Y-102376316D01*
X94729478Y-102376316D01*
X94501398Y-102396270D01*
X94501390Y-102396271D01*
X94280241Y-102455528D01*
X94280230Y-102455532D01*
X94123158Y-102528776D01*
X94054081Y-102539268D01*
X93990297Y-102510748D01*
X93952058Y-102452271D01*
X93947226Y-102405589D01*
X93962332Y-102232930D01*
X93942377Y-102004843D01*
X93883118Y-101783687D01*
X93882442Y-101782238D01*
X93835675Y-101681944D01*
X93786357Y-101576181D01*
X93655032Y-101388630D01*
X93493134Y-101226732D01*
X93305583Y-101095407D01*
X93255157Y-101071893D01*
X93098083Y-100998648D01*
X93098072Y-100998644D01*
X92876923Y-100939387D01*
X92876915Y-100939386D01*
X92648836Y-100919432D01*
X92648832Y-100919432D01*
X92420752Y-100939386D01*
X92420744Y-100939387D01*
X92199595Y-100998644D01*
X92199593Y-100998645D01*
X92042511Y-101071893D01*
X91973433Y-101082384D01*
X91909650Y-101053864D01*
X91871411Y-100995387D01*
X91866579Y-100948702D01*
X91866614Y-100948313D01*
X91881685Y-100776045D01*
X91880088Y-100757796D01*
X91865724Y-100593610D01*
X91861730Y-100547958D01*
X91802471Y-100326802D01*
X91796188Y-100313329D01*
X91746004Y-100205707D01*
X91705710Y-100119296D01*
X91574385Y-99931745D01*
X91412487Y-99769847D01*
X91224936Y-99638522D01*
X91224932Y-99638520D01*
X91017436Y-99541763D01*
X91017425Y-99541759D01*
X90796276Y-99482502D01*
X90796268Y-99482501D01*
X90568189Y-99462547D01*
X90568185Y-99462547D01*
X90340105Y-99482501D01*
X90340097Y-99482502D01*
X90118948Y-99541759D01*
X90118946Y-99541760D01*
X89952970Y-99619155D01*
X89883892Y-99629646D01*
X89820109Y-99601126D01*
X89781869Y-99542649D01*
X89777038Y-99495964D01*
X89792507Y-99319161D01*
X89792507Y-99319158D01*
X89772682Y-99092561D01*
X89772680Y-99092550D01*
X89713810Y-98872843D01*
X89713806Y-98872834D01*
X89617675Y-98666678D01*
X89487201Y-98480344D01*
X89424197Y-98417339D01*
X88874118Y-99202932D01*
X88872706Y-99194013D01*
X88815182Y-99081116D01*
X88725586Y-98991520D01*
X88612689Y-98933996D01*
X88519022Y-98919161D01*
X88462430Y-98919161D01*
X89014620Y-98130550D01*
X88933858Y-98092891D01*
X88714151Y-98034021D01*
X88714140Y-98034019D01*
X88487543Y-98014195D01*
X88487539Y-98014195D01*
X88260941Y-98034019D01*
X88260930Y-98034021D01*
X88041223Y-98092891D01*
X88041214Y-98092895D01*
X87880365Y-98167900D01*
X87811287Y-98178392D01*
X87747503Y-98149872D01*
X87709264Y-98091395D01*
X87704432Y-98044711D01*
X87705368Y-98034019D01*
X87720393Y-97862277D01*
X87717661Y-97831055D01*
X87709405Y-97736681D01*
X87700438Y-97634190D01*
X87641179Y-97413034D01*
X87639201Y-97408793D01*
X87591229Y-97305915D01*
X87544418Y-97205528D01*
X87413093Y-97017977D01*
X87378341Y-96983225D01*
X87344856Y-96921902D01*
X87349840Y-96852210D01*
X87391712Y-96796277D01*
X87406989Y-96786498D01*
X87487017Y-96743190D01*
X87671220Y-96599818D01*
X87829314Y-96428083D01*
X87956984Y-96232669D01*
X88050749Y-96018907D01*
X88108051Y-95792626D01*
X88120525Y-95642091D01*
X88127327Y-95560005D01*
X88127327Y-95559994D01*
X88108051Y-95327377D01*
X88108051Y-95327374D01*
X88050749Y-95101093D01*
X87956984Y-94887331D01*
X87893917Y-94790799D01*
X87829313Y-94691915D01*
X87742143Y-94597224D01*
X87711220Y-94534570D01*
X87719080Y-94465144D01*
X87763227Y-94410988D01*
X87790032Y-94397061D01*
X87860204Y-94370889D01*
X87977261Y-94283261D01*
X88064889Y-94166204D01*
X88115989Y-94029201D01*
X88119591Y-93995692D01*
X88122499Y-93968654D01*
X88122500Y-93968637D01*
X88122500Y-92071362D01*
X88122499Y-92071345D01*
X88119157Y-92040270D01*
X88115989Y-92010799D01*
X88064889Y-91873796D01*
X87977261Y-91756739D01*
X87860204Y-91669111D01*
X87826723Y-91656623D01*
X87723203Y-91618011D01*
X87662654Y-91611500D01*
X87662638Y-91611500D01*
X85765362Y-91611500D01*
X85765345Y-91611500D01*
X85704797Y-91618011D01*
X85704795Y-91618011D01*
X85567795Y-91669111D01*
X85450739Y-91756739D01*
X85363111Y-91873795D01*
X85312011Y-92010795D01*
X85312011Y-92010797D01*
X85305500Y-92071345D01*
X85305500Y-93968654D01*
X85312011Y-94029202D01*
X85312011Y-94029204D01*
X85358192Y-94153016D01*
X85363111Y-94166204D01*
X85450739Y-94283261D01*
X85567796Y-94370889D01*
X85567795Y-94370889D01*
X85637961Y-94397060D01*
X85693895Y-94438931D01*
X85718311Y-94504396D01*
X85703459Y-94572669D01*
X85685857Y-94597224D01*
X85598683Y-94691919D01*
X85471015Y-94887331D01*
X85377251Y-95101092D01*
X85319948Y-95327377D01*
X85300673Y-95559994D01*
X85300673Y-95560005D01*
X85319948Y-95792622D01*
X85377251Y-96018907D01*
X85471015Y-96232668D01*
X85598686Y-96428084D01*
X85728126Y-96568692D01*
X85759049Y-96631346D01*
X85751189Y-96700772D01*
X85708021Y-96754249D01*
X85562594Y-96856079D01*
X85400701Y-97017972D01*
X85400698Y-97017975D01*
X85400697Y-97017977D01*
X85368989Y-97063261D01*
X85269371Y-97205529D01*
X85269370Y-97205531D01*
X85172613Y-97413027D01*
X85172609Y-97413038D01*
X85113352Y-97634187D01*
X85113351Y-97634195D01*
X85093397Y-97862275D01*
X85093397Y-97862278D01*
X85113351Y-98090358D01*
X85113352Y-98090366D01*
X85172609Y-98311515D01*
X85172613Y-98311526D01*
X85269370Y-98519022D01*
X85269372Y-98519026D01*
X85400697Y-98706577D01*
X85562595Y-98868475D01*
X85750146Y-98999800D01*
X85834711Y-99039233D01*
X85957645Y-99096558D01*
X85957647Y-99096558D01*
X85957652Y-99096561D01*
X86178808Y-99155820D01*
X86341727Y-99170073D01*
X86406893Y-99175775D01*
X86406895Y-99175775D01*
X86406897Y-99175775D01*
X86463916Y-99170786D01*
X86634982Y-99155820D01*
X86856138Y-99096561D01*
X87022111Y-99019166D01*
X87091188Y-99008675D01*
X87154972Y-99037195D01*
X87193211Y-99095671D01*
X87198043Y-99142356D01*
X87182575Y-99319158D01*
X87182575Y-99319163D01*
X87202399Y-99545760D01*
X87202401Y-99545771D01*
X87261271Y-99765478D01*
X87261275Y-99765487D01*
X87357406Y-99971643D01*
X87487880Y-100157977D01*
X87550883Y-100220981D01*
X88100963Y-99435387D01*
X88102376Y-99444309D01*
X88159900Y-99557206D01*
X88249496Y-99646802D01*
X88362393Y-99704326D01*
X88456060Y-99719161D01*
X88512650Y-99719161D01*
X87960460Y-100507770D01*
X87960460Y-100507771D01*
X88041209Y-100545425D01*
X88041223Y-100545430D01*
X88260930Y-100604300D01*
X88260941Y-100604302D01*
X88487539Y-100624127D01*
X88487543Y-100624127D01*
X88714140Y-100604302D01*
X88714151Y-100604300D01*
X88933858Y-100545430D01*
X88933867Y-100545427D01*
X89094716Y-100470421D01*
X89163793Y-100459929D01*
X89227577Y-100488448D01*
X89265817Y-100546925D01*
X89270649Y-100593610D01*
X89254689Y-100776042D01*
X89254689Y-100776046D01*
X89274643Y-101004126D01*
X89274644Y-101004134D01*
X89333901Y-101225283D01*
X89333905Y-101225294D01*
X89417295Y-101404124D01*
X89430664Y-101432794D01*
X89561989Y-101620345D01*
X89723887Y-101782243D01*
X89911438Y-101913568D01*
X90000526Y-101955110D01*
X90118937Y-102010326D01*
X90118939Y-102010326D01*
X90118944Y-102010329D01*
X90340100Y-102069588D01*
X90503019Y-102083841D01*
X90568185Y-102089543D01*
X90568187Y-102089543D01*
X90568189Y-102089543D01*
X90625208Y-102084554D01*
X90796274Y-102069588D01*
X91017430Y-102010329D01*
X91174510Y-101937081D01*
X91243586Y-101926590D01*
X91307370Y-101955110D01*
X91345609Y-102013586D01*
X91350441Y-102060271D01*
X91335336Y-102232927D01*
X91335336Y-102232931D01*
X91355290Y-102461011D01*
X91355291Y-102461019D01*
X91414548Y-102682168D01*
X91414552Y-102682179D01*
X91497943Y-102861011D01*
X91511311Y-102889679D01*
X91642636Y-103077230D01*
X91804534Y-103239128D01*
X91992085Y-103370453D01*
X92066116Y-103404974D01*
X92199584Y-103467211D01*
X92199586Y-103467211D01*
X92199591Y-103467214D01*
X92420747Y-103526473D01*
X92583666Y-103540726D01*
X92648832Y-103546428D01*
X92648834Y-103546428D01*
X92648836Y-103546428D01*
X92705855Y-103541439D01*
X92876921Y-103526473D01*
X93098077Y-103467214D01*
X93255158Y-103393966D01*
X93324231Y-103383475D01*
X93388015Y-103411995D01*
X93426255Y-103470471D01*
X93431087Y-103517156D01*
X93415982Y-103689811D01*
X93415982Y-103689815D01*
X93435936Y-103917895D01*
X93435937Y-103917903D01*
X93495194Y-104139052D01*
X93495198Y-104139063D01*
X93583693Y-104328841D01*
X93591957Y-104346563D01*
X93723282Y-104534114D01*
X93885180Y-104696012D01*
X94072731Y-104827337D01*
X94161819Y-104868879D01*
X94280230Y-104924095D01*
X94280232Y-104924095D01*
X94280237Y-104924098D01*
X94501393Y-104983357D01*
X94664312Y-104997610D01*
X94729478Y-105003312D01*
X94729480Y-105003312D01*
X94729482Y-105003312D01*
X94786501Y-104998323D01*
X94957567Y-104983357D01*
X95178723Y-104924098D01*
X95335804Y-104850850D01*
X95404877Y-104840359D01*
X95468661Y-104868879D01*
X95506901Y-104927355D01*
X95511733Y-104974040D01*
X95496628Y-105146695D01*
X95496628Y-105146699D01*
X95516582Y-105374779D01*
X95516583Y-105374787D01*
X95575840Y-105595936D01*
X95575844Y-105595947D01*
X95672601Y-105803443D01*
X95672603Y-105803447D01*
X95803928Y-105990998D01*
X95965826Y-106152896D01*
X96153377Y-106284221D01*
X96242465Y-106325763D01*
X96360876Y-106380979D01*
X96360878Y-106380979D01*
X96360883Y-106380982D01*
X96582039Y-106440241D01*
X96744958Y-106454494D01*
X96810124Y-106460196D01*
X96810126Y-106460196D01*
X96810128Y-106460196D01*
X96867147Y-106455207D01*
X97038213Y-106440241D01*
X97259369Y-106380982D01*
X97416450Y-106307734D01*
X97485523Y-106297243D01*
X97549307Y-106325763D01*
X97587547Y-106384239D01*
X97592379Y-106430924D01*
X97577274Y-106603579D01*
X97577274Y-106603583D01*
X97597228Y-106831663D01*
X97597229Y-106831671D01*
X97656486Y-107052820D01*
X97656490Y-107052831D01*
X97753247Y-107260327D01*
X97753249Y-107260331D01*
X97884574Y-107447882D01*
X98046472Y-107609780D01*
X98234023Y-107741105D01*
X98323111Y-107782647D01*
X98441522Y-107837863D01*
X98441524Y-107837863D01*
X98441529Y-107837866D01*
X98662685Y-107897125D01*
X98825604Y-107911378D01*
X98890770Y-107917080D01*
X98890772Y-107917080D01*
X98890774Y-107917080D01*
X98947793Y-107912091D01*
X99118859Y-107897125D01*
X99340015Y-107837866D01*
X99497096Y-107764618D01*
X99566169Y-107754127D01*
X99629953Y-107782647D01*
X99668193Y-107841123D01*
X99673025Y-107887808D01*
X99657920Y-108060463D01*
X99657920Y-108060467D01*
X99677874Y-108288547D01*
X99677875Y-108288555D01*
X99737132Y-108509704D01*
X99737136Y-108509715D01*
X99823061Y-108693981D01*
X99833895Y-108717215D01*
X99965220Y-108904766D01*
X100127118Y-109066664D01*
X100314669Y-109197989D01*
X100391016Y-109233590D01*
X100522168Y-109294747D01*
X100522170Y-109294747D01*
X100522175Y-109294750D01*
X100743331Y-109354009D01*
X100906250Y-109368262D01*
X100971416Y-109373964D01*
X100971418Y-109373964D01*
X100971420Y-109373964D01*
X101028439Y-109368975D01*
X101199505Y-109354009D01*
X101420661Y-109294750D01*
X101577741Y-109221502D01*
X101646817Y-109211011D01*
X101710601Y-109239531D01*
X101748840Y-109298007D01*
X101753672Y-109344692D01*
X101738567Y-109517347D01*
X101738567Y-109517351D01*
X101758521Y-109745431D01*
X101758522Y-109745439D01*
X101817779Y-109966588D01*
X101817783Y-109966599D01*
X101901426Y-110145971D01*
X101914542Y-110174099D01*
X102045867Y-110361650D01*
X102207765Y-110523548D01*
X102395316Y-110654873D01*
X102476006Y-110692499D01*
X102602815Y-110751631D01*
X102602817Y-110751631D01*
X102602822Y-110751634D01*
X102823978Y-110810893D01*
X102986897Y-110825146D01*
X103052063Y-110830848D01*
X103052065Y-110830848D01*
X103052067Y-110830848D01*
X103109086Y-110825859D01*
X103280152Y-110810893D01*
X103501308Y-110751634D01*
X103658389Y-110678386D01*
X103727462Y-110667895D01*
X103791246Y-110696415D01*
X103829486Y-110754891D01*
X103834318Y-110801576D01*
X103819213Y-110974231D01*
X103819213Y-110974235D01*
X103839167Y-111202315D01*
X103839168Y-111202323D01*
X103898425Y-111423472D01*
X103898429Y-111423483D01*
X103988852Y-111617396D01*
X103995188Y-111630983D01*
X104126513Y-111818534D01*
X104288411Y-111980432D01*
X104475962Y-112111757D01*
X104592774Y-112166227D01*
X104683461Y-112208515D01*
X104683463Y-112208515D01*
X104683468Y-112208518D01*
X104904624Y-112267777D01*
X105067543Y-112282030D01*
X105132709Y-112287732D01*
X105132711Y-112287732D01*
X105132713Y-112287732D01*
X105189732Y-112282743D01*
X105360798Y-112267777D01*
X105581954Y-112208518D01*
X105739035Y-112135270D01*
X105808108Y-112124779D01*
X105871892Y-112153299D01*
X105910132Y-112211775D01*
X105914964Y-112258460D01*
X105899859Y-112431116D01*
X105899859Y-112431120D01*
X105919813Y-112659200D01*
X105919814Y-112659208D01*
X105979071Y-112880357D01*
X105979075Y-112880368D01*
X106069505Y-113074296D01*
X106075834Y-113087868D01*
X106207159Y-113275419D01*
X106369057Y-113437317D01*
X106556608Y-113568642D01*
X106612885Y-113594884D01*
X106764107Y-113665400D01*
X106764109Y-113665400D01*
X106764114Y-113665403D01*
X106985270Y-113724662D01*
X107148189Y-113738915D01*
X107213355Y-113744617D01*
X107213357Y-113744617D01*
X107213359Y-113744617D01*
X107270378Y-113739628D01*
X107441444Y-113724662D01*
X107662600Y-113665403D01*
X107819681Y-113592155D01*
X107888754Y-113581664D01*
X107952538Y-113610184D01*
X107990778Y-113668660D01*
X107995610Y-113715345D01*
X107980505Y-113888000D01*
X107980505Y-113888004D01*
X108000459Y-114116084D01*
X108000460Y-114116092D01*
X108059717Y-114337241D01*
X108059721Y-114337252D01*
X108138443Y-114506071D01*
X108156480Y-114544752D01*
X108287805Y-114732303D01*
X108449703Y-114894201D01*
X108637254Y-115025526D01*
X108755900Y-115080851D01*
X108844753Y-115122284D01*
X108844755Y-115122284D01*
X108844760Y-115122287D01*
X109065916Y-115181546D01*
X109228835Y-115195799D01*
X109294001Y-115201501D01*
X109294003Y-115201501D01*
X109294005Y-115201501D01*
X109351024Y-115196512D01*
X109522090Y-115181546D01*
X109743246Y-115122287D01*
X109900327Y-115049039D01*
X109969400Y-115038548D01*
X110033184Y-115067068D01*
X110071424Y-115125544D01*
X110076256Y-115172229D01*
X110061151Y-115344884D01*
X110061151Y-115344888D01*
X110081105Y-115572968D01*
X110081106Y-115572976D01*
X110140363Y-115794125D01*
X110140367Y-115794136D01*
X110222351Y-115969951D01*
X110237126Y-116001636D01*
X110368451Y-116189187D01*
X110530349Y-116351085D01*
X110717900Y-116482410D01*
X110806988Y-116523952D01*
X110925399Y-116579168D01*
X110925401Y-116579168D01*
X110925406Y-116579171D01*
X111146562Y-116638430D01*
X111309481Y-116652683D01*
X111374647Y-116658385D01*
X111374649Y-116658385D01*
X111374651Y-116658385D01*
X111431670Y-116653396D01*
X111602736Y-116638430D01*
X111823892Y-116579171D01*
X111980972Y-116505923D01*
X112050048Y-116495432D01*
X112113832Y-116523952D01*
X112152071Y-116582428D01*
X112156903Y-116629113D01*
X112141798Y-116801768D01*
X112141798Y-116801772D01*
X112161752Y-117029852D01*
X112161753Y-117029860D01*
X112221010Y-117251009D01*
X112221014Y-117251020D01*
X112317771Y-117458516D01*
X112317773Y-117458520D01*
X112449098Y-117646071D01*
X112610996Y-117807969D01*
X112798547Y-117939294D01*
X112887635Y-117980836D01*
X113006046Y-118036052D01*
X113006048Y-118036052D01*
X113006053Y-118036055D01*
X113227209Y-118095314D01*
X113390128Y-118109567D01*
X113455294Y-118115269D01*
X113455296Y-118115269D01*
X113455298Y-118115269D01*
X113512317Y-118110280D01*
X113683383Y-118095314D01*
X113904539Y-118036055D01*
X114061620Y-117962807D01*
X114130693Y-117952316D01*
X114194477Y-117980836D01*
X114232717Y-118039312D01*
X114237549Y-118085997D01*
X114222444Y-118258652D01*
X114222444Y-118258656D01*
X114242398Y-118486736D01*
X114242399Y-118486744D01*
X114301656Y-118707893D01*
X114301657Y-118707895D01*
X114301658Y-118707898D01*
X114313323Y-118732914D01*
X114313501Y-118733295D01*
X114323993Y-118802373D01*
X114295473Y-118866157D01*
X114236997Y-118904396D01*
X114201119Y-118909700D01*
X99285794Y-118909700D01*
X99218755Y-118890015D01*
X99198113Y-118873381D01*
X98001283Y-117676550D01*
X97967798Y-117615227D01*
X97969016Y-117564216D01*
X97967745Y-117563992D01*
X97968682Y-117558667D01*
X97968686Y-117558655D01*
X97987116Y-117348000D01*
X97968686Y-117137345D01*
X97913956Y-116933090D01*
X97824589Y-116741442D01*
X97703301Y-116568224D01*
X97703299Y-116568221D01*
X97553778Y-116418700D01*
X97380558Y-116297411D01*
X97380556Y-116297410D01*
X97359071Y-116287391D01*
X97188910Y-116208044D01*
X97188906Y-116208043D01*
X97188902Y-116208041D01*
X96984660Y-116153315D01*
X96984656Y-116153314D01*
X96984655Y-116153314D01*
X96984654Y-116153313D01*
X96984649Y-116153313D01*
X96774002Y-116134884D01*
X96773998Y-116134884D01*
X96563350Y-116153313D01*
X96563339Y-116153315D01*
X96359097Y-116208041D01*
X96359088Y-116208045D01*
X96167443Y-116297410D01*
X96167441Y-116297411D01*
X95994221Y-116418700D01*
X95844700Y-116568221D01*
X95723411Y-116741441D01*
X95723410Y-116741443D01*
X95634045Y-116933088D01*
X95634041Y-116933097D01*
X95579315Y-117137339D01*
X95579313Y-117137350D01*
X95560884Y-117347998D01*
X95560884Y-117348001D01*
X95579313Y-117558649D01*
X95579315Y-117558660D01*
X95634041Y-117762902D01*
X95634043Y-117762906D01*
X95634044Y-117762910D01*
X95704197Y-117913353D01*
X95723410Y-117954556D01*
X95723411Y-117954558D01*
X95844700Y-118127778D01*
X95994221Y-118277299D01*
X95994224Y-118277301D01*
X96167442Y-118398589D01*
X96359090Y-118487956D01*
X96563345Y-118542686D01*
X96713812Y-118555850D01*
X96773998Y-118561116D01*
X96774000Y-118561116D01*
X96774002Y-118561116D01*
X96803198Y-118558561D01*
X96984655Y-118542686D01*
X96984667Y-118542682D01*
X96989992Y-118541745D01*
X96990278Y-118543372D01*
X97052604Y-118544845D01*
X97102550Y-118575283D01*
X98233986Y-119706719D01*
X98267471Y-119768042D01*
X98262487Y-119837734D01*
X98220615Y-119893667D01*
X98155151Y-119918084D01*
X98146305Y-119918400D01*
X91945682Y-119918400D01*
X91878643Y-119898715D01*
X91858001Y-119882081D01*
X90863070Y-118887150D01*
X90815644Y-118848932D01*
X90815643Y-118848931D01*
X90682634Y-118788189D01*
X90682632Y-118788188D01*
X90537900Y-118767379D01*
X90393167Y-118788188D01*
X90393165Y-118788189D01*
X90260156Y-118848931D01*
X90260155Y-118848932D01*
X90212729Y-118887150D01*
X88871150Y-120228729D01*
X88832932Y-120276155D01*
X88832931Y-120276156D01*
X88772189Y-120409165D01*
X88772188Y-120409167D01*
X88751379Y-120553900D01*
X88772188Y-120698632D01*
X88772189Y-120698634D01*
X88832931Y-120831643D01*
X88832932Y-120831644D01*
X88871150Y-120879070D01*
X90212729Y-122220649D01*
X90228537Y-122233388D01*
X90260157Y-122258869D01*
X90393166Y-122319611D01*
X90537900Y-122340421D01*
X90682634Y-122319611D01*
X90749010Y-122289298D01*
X90818165Y-122279355D01*
X90881721Y-122308379D01*
X90919496Y-122367157D01*
X90924095Y-122391853D01*
X90939899Y-122582573D01*
X90997202Y-122808858D01*
X91090966Y-123022619D01*
X91218637Y-123218035D01*
X91342027Y-123352071D01*
X91376731Y-123389769D01*
X91560934Y-123533141D01*
X91560936Y-123533142D01*
X91560939Y-123533144D01*
X91633033Y-123572159D01*
X91766224Y-123644238D01*
X91880865Y-123683594D01*
X91986996Y-123720030D01*
X91986998Y-123720030D01*
X91987000Y-123720031D01*
X92217239Y-123758451D01*
X92217240Y-123758451D01*
X92450663Y-123758451D01*
X92680896Y-123720032D01*
X92680895Y-123720032D01*
X92680902Y-123720031D01*
X92700296Y-123713372D01*
X92770090Y-123710221D01*
X92828239Y-123742971D01*
X94984428Y-125899161D01*
X97114242Y-128028975D01*
X97124167Y-128041363D01*
X97124374Y-128041192D01*
X97129344Y-128047200D01*
X97179181Y-128094000D01*
X97181978Y-128096711D01*
X97201808Y-128116541D01*
X97205087Y-128119084D01*
X97213982Y-128126680D01*
X97246390Y-128157114D01*
X97246397Y-128157119D01*
X97264359Y-128166993D01*
X97280623Y-128177675D01*
X97296833Y-128190249D01*
X97337656Y-128207914D01*
X97348123Y-128213043D01*
X97354106Y-128216332D01*
X97387092Y-128234467D01*
X97387094Y-128234467D01*
X97387097Y-128234469D01*
X97406966Y-128239570D01*
X97425362Y-128245868D01*
X97444192Y-128254017D01*
X97488119Y-128260973D01*
X97499550Y-128263341D01*
X97542618Y-128274400D01*
X97563126Y-128274400D01*
X97582523Y-128275926D01*
X97602777Y-128279134D01*
X97602778Y-128279135D01*
X97602778Y-128279134D01*
X97602779Y-128279135D01*
X97622297Y-128277289D01*
X97647052Y-128274950D01*
X97658721Y-128274400D01*
X117282602Y-128274400D01*
X117349641Y-128294085D01*
X117395396Y-128346889D01*
X117405340Y-128416047D01*
X117376315Y-128479603D01*
X117348574Y-128503394D01*
X117225718Y-128580589D01*
X117096889Y-128709418D01*
X116999958Y-128863682D01*
X116939782Y-129035653D01*
X116939781Y-129035658D01*
X116919384Y-129216696D01*
X116919384Y-129216703D01*
X116939781Y-129397741D01*
X116939782Y-129397746D01*
X116999958Y-129569717D01*
X117096889Y-129723981D01*
X117162726Y-129789818D01*
X117196211Y-129851141D01*
X117191227Y-129920833D01*
X117149355Y-129976766D01*
X117083891Y-130001183D01*
X117075045Y-130001499D01*
X99677868Y-130001499D01*
X99617677Y-129985910D01*
X98616637Y-129430118D01*
X98613323Y-129428211D01*
X97540974Y-128788795D01*
X97537721Y-128786786D01*
X96485669Y-128114653D01*
X96482478Y-128112545D01*
X95451600Y-127408258D01*
X95448476Y-127406052D01*
X94439823Y-126670326D01*
X94436769Y-126668025D01*
X93451291Y-125901555D01*
X93448309Y-125899161D01*
X92486928Y-125102665D01*
X92484022Y-125100181D01*
X92079058Y-124743051D01*
X91547649Y-124274412D01*
X91544832Y-124271850D01*
X91481915Y-124212818D01*
X90634342Y-123417579D01*
X90631602Y-123414926D01*
X90622283Y-123405626D01*
X90012425Y-122796993D01*
X89747945Y-122533044D01*
X89745280Y-122530302D01*
X88889188Y-121621542D01*
X88886610Y-121618718D01*
X88058969Y-120684020D01*
X88056478Y-120681119D01*
X87982174Y-120591800D01*
X87258037Y-119721328D01*
X87255649Y-119718366D01*
X87109475Y-119531203D01*
X86487185Y-118734413D01*
X86484880Y-118731366D01*
X85747134Y-117724205D01*
X85744926Y-117721091D01*
X85680122Y-117626645D01*
X85488931Y-117348001D01*
X87940884Y-117348001D01*
X87959313Y-117558649D01*
X87959315Y-117558660D01*
X88014041Y-117762902D01*
X88014043Y-117762906D01*
X88014044Y-117762910D01*
X88084197Y-117913353D01*
X88103410Y-117954556D01*
X88103411Y-117954558D01*
X88224700Y-118127778D01*
X88374221Y-118277299D01*
X88374224Y-118277301D01*
X88547442Y-118398589D01*
X88739090Y-118487956D01*
X88943345Y-118542686D01*
X89093812Y-118555850D01*
X89153998Y-118561116D01*
X89154000Y-118561116D01*
X89154002Y-118561116D01*
X89206663Y-118556508D01*
X89364655Y-118542686D01*
X89568910Y-118487956D01*
X89760558Y-118398589D01*
X89933776Y-118277301D01*
X90083301Y-118127776D01*
X90204589Y-117954558D01*
X90293956Y-117762910D01*
X90348686Y-117558655D01*
X90367116Y-117348000D01*
X90348686Y-117137345D01*
X90293956Y-116933090D01*
X90204589Y-116741442D01*
X90083301Y-116568224D01*
X90083299Y-116568221D01*
X89933778Y-116418700D01*
X89760558Y-116297411D01*
X89760556Y-116297410D01*
X89739071Y-116287391D01*
X89568910Y-116208044D01*
X89568906Y-116208043D01*
X89568902Y-116208041D01*
X89364660Y-116153315D01*
X89364656Y-116153314D01*
X89364655Y-116153314D01*
X89364654Y-116153313D01*
X89364649Y-116153313D01*
X89154002Y-116134884D01*
X89153998Y-116134884D01*
X88943350Y-116153313D01*
X88943339Y-116153315D01*
X88739097Y-116208041D01*
X88739088Y-116208045D01*
X88547443Y-116297410D01*
X88547441Y-116297411D01*
X88374221Y-116418700D01*
X88224700Y-116568221D01*
X88103411Y-116741441D01*
X88103410Y-116741443D01*
X88014045Y-116933088D01*
X88014041Y-116933097D01*
X87959315Y-117137339D01*
X87959313Y-117137350D01*
X87940884Y-117347998D01*
X87940884Y-117348001D01*
X85488931Y-117348001D01*
X85038561Y-116691625D01*
X85036451Y-116688444D01*
X84362199Y-115637739D01*
X84360183Y-115634490D01*
X83718619Y-114563445D01*
X83716705Y-114560134D01*
X83666787Y-114470651D01*
X83108486Y-113469842D01*
X83106686Y-113466495D01*
X83102012Y-113457473D01*
X82651552Y-112588001D01*
X87585807Y-112588001D01*
X87604541Y-112802136D01*
X87604542Y-112802144D01*
X87660176Y-113009772D01*
X87660177Y-113009774D01*
X87660178Y-113009777D01*
X87742482Y-113186279D01*
X87751024Y-113204597D01*
X87751026Y-113204601D01*
X87874319Y-113380682D01*
X88026317Y-113532680D01*
X88202398Y-113655973D01*
X88202400Y-113655974D01*
X88202403Y-113655976D01*
X88397223Y-113746822D01*
X88604858Y-113802458D01*
X88757816Y-113815840D01*
X88818998Y-113821193D01*
X88819000Y-113821193D01*
X88819002Y-113821193D01*
X88872535Y-113816509D01*
X89033142Y-113802458D01*
X89240777Y-113746822D01*
X89435597Y-113655976D01*
X89611681Y-113532681D01*
X89763681Y-113380681D01*
X89886976Y-113204597D01*
X89977822Y-113009777D01*
X90033458Y-112802142D01*
X90052193Y-112588000D01*
X90033458Y-112373858D01*
X89977822Y-112166223D01*
X89886976Y-111971404D01*
X89763681Y-111795319D01*
X89763679Y-111795316D01*
X89611682Y-111643319D01*
X89435601Y-111520026D01*
X89435597Y-111520024D01*
X89435595Y-111520023D01*
X89240777Y-111429178D01*
X89240774Y-111429177D01*
X89240772Y-111429176D01*
X89033144Y-111373542D01*
X89033136Y-111373541D01*
X88819002Y-111354807D01*
X88818998Y-111354807D01*
X88604863Y-111373541D01*
X88604855Y-111373542D01*
X88397227Y-111429176D01*
X88397221Y-111429179D01*
X88202405Y-111520023D01*
X88202403Y-111520024D01*
X88026316Y-111643320D01*
X87874320Y-111795316D01*
X87751024Y-111971403D01*
X87751023Y-111971405D01*
X87660179Y-112166221D01*
X87660176Y-112166227D01*
X87604542Y-112373855D01*
X87604541Y-112373863D01*
X87585807Y-112587998D01*
X87585807Y-112588001D01*
X82651552Y-112588001D01*
X82532367Y-112357951D01*
X82530683Y-112354575D01*
X81990796Y-111228803D01*
X81989216Y-111225373D01*
X81680668Y-110527583D01*
X81484314Y-110083523D01*
X81482822Y-110080002D01*
X81469836Y-110048001D01*
X90125807Y-110048001D01*
X90144541Y-110262136D01*
X90144542Y-110262144D01*
X90200176Y-110469772D01*
X90200177Y-110469774D01*
X90200178Y-110469777D01*
X90265530Y-110609925D01*
X90291024Y-110664597D01*
X90291026Y-110664601D01*
X90414319Y-110840682D01*
X90566317Y-110992680D01*
X90742398Y-111115973D01*
X90742400Y-111115974D01*
X90742403Y-111115976D01*
X90937223Y-111206822D01*
X91144858Y-111262458D01*
X91297816Y-111275840D01*
X91358998Y-111281193D01*
X91359000Y-111281193D01*
X91359002Y-111281193D01*
X91412535Y-111276509D01*
X91573142Y-111262458D01*
X91780777Y-111206822D01*
X91975597Y-111115976D01*
X92151681Y-110992681D01*
X92303681Y-110840681D01*
X92426976Y-110664597D01*
X92517822Y-110469777D01*
X92573458Y-110262142D01*
X92592193Y-110048000D01*
X92573458Y-109833858D01*
X92517822Y-109626223D01*
X92426976Y-109431404D01*
X92303681Y-109255319D01*
X92303679Y-109255316D01*
X92268363Y-109220000D01*
X94436644Y-109220000D01*
X94456038Y-109466437D01*
X94513745Y-109706807D01*
X94608345Y-109935192D01*
X94608347Y-109935196D01*
X94608348Y-109935197D01*
X94737510Y-110145971D01*
X94898055Y-110333945D01*
X95086029Y-110494490D01*
X95296803Y-110623652D01*
X95296805Y-110623652D01*
X95296807Y-110623654D01*
X95372176Y-110654873D01*
X95525188Y-110718253D01*
X95765560Y-110775961D01*
X96012000Y-110795356D01*
X96258440Y-110775961D01*
X96498812Y-110718253D01*
X96727197Y-110623652D01*
X96937971Y-110494490D01*
X97125945Y-110333945D01*
X97286490Y-110145971D01*
X97415652Y-109935197D01*
X97510253Y-109706812D01*
X97567961Y-109466440D01*
X97587356Y-109220000D01*
X97567961Y-108973560D01*
X97510253Y-108733188D01*
X97432841Y-108546300D01*
X97415654Y-108504807D01*
X97383711Y-108452681D01*
X97286490Y-108294029D01*
X97125945Y-108106055D01*
X96937971Y-107945510D01*
X96727197Y-107816348D01*
X96727196Y-107816347D01*
X96727192Y-107816345D01*
X96499770Y-107722144D01*
X96498812Y-107721747D01*
X96498811Y-107721746D01*
X96498807Y-107721745D01*
X96258436Y-107664038D01*
X96258437Y-107664038D01*
X96012000Y-107644644D01*
X95765562Y-107664038D01*
X95525192Y-107721745D01*
X95296807Y-107816345D01*
X95086028Y-107945510D01*
X94898055Y-108106055D01*
X94737510Y-108294028D01*
X94608345Y-108504807D01*
X94513745Y-108733192D01*
X94456038Y-108973562D01*
X94436644Y-109220000D01*
X92268363Y-109220000D01*
X92151682Y-109103319D01*
X91975601Y-108980026D01*
X91975597Y-108980024D01*
X91961735Y-108973560D01*
X91780777Y-108889178D01*
X91780774Y-108889177D01*
X91780772Y-108889176D01*
X91573144Y-108833542D01*
X91573136Y-108833541D01*
X91359002Y-108814807D01*
X91358998Y-108814807D01*
X91144863Y-108833541D01*
X91144855Y-108833542D01*
X90937227Y-108889176D01*
X90937221Y-108889179D01*
X90742405Y-108980023D01*
X90742403Y-108980024D01*
X90566316Y-109103320D01*
X90414320Y-109255316D01*
X90291024Y-109431403D01*
X90291023Y-109431405D01*
X90200179Y-109626221D01*
X90200176Y-109626227D01*
X90144542Y-109833855D01*
X90144541Y-109833863D01*
X90125807Y-110047998D01*
X90125807Y-110048001D01*
X81469836Y-110048001D01*
X81148169Y-109255319D01*
X81013377Y-108923153D01*
X81012006Y-108919619D01*
X80578447Y-107748818D01*
X80577196Y-107745274D01*
X80497561Y-107508001D01*
X87585807Y-107508001D01*
X87604541Y-107722136D01*
X87604542Y-107722144D01*
X87660176Y-107929772D01*
X87660177Y-107929774D01*
X87660178Y-107929777D01*
X87708402Y-108033193D01*
X87751024Y-108124597D01*
X87751026Y-108124601D01*
X87874319Y-108300682D01*
X88026317Y-108452680D01*
X88202398Y-108575973D01*
X88202400Y-108575974D01*
X88202403Y-108575976D01*
X88397223Y-108666822D01*
X88604858Y-108722458D01*
X88757816Y-108735840D01*
X88818998Y-108741193D01*
X88819000Y-108741193D01*
X88819002Y-108741193D01*
X88872535Y-108736509D01*
X89033142Y-108722458D01*
X89240777Y-108666822D01*
X89435597Y-108575976D01*
X89611681Y-108452681D01*
X89763681Y-108300681D01*
X89886976Y-108124597D01*
X89977822Y-107929777D01*
X90033458Y-107722142D01*
X90052193Y-107508000D01*
X90033458Y-107293858D01*
X89977822Y-107086223D01*
X89886976Y-106891404D01*
X89763681Y-106715319D01*
X89763679Y-106715316D01*
X89611682Y-106563319D01*
X89435601Y-106440026D01*
X89435597Y-106440024D01*
X89416082Y-106430924D01*
X89240777Y-106349178D01*
X89240774Y-106349177D01*
X89240772Y-106349176D01*
X89033144Y-106293542D01*
X89033136Y-106293541D01*
X88819002Y-106274807D01*
X88818998Y-106274807D01*
X88604863Y-106293541D01*
X88604855Y-106293542D01*
X88397227Y-106349176D01*
X88397221Y-106349179D01*
X88202405Y-106440023D01*
X88202403Y-106440024D01*
X88026316Y-106563320D01*
X87874320Y-106715316D01*
X87751024Y-106891403D01*
X87751023Y-106891405D01*
X87660179Y-107086221D01*
X87660176Y-107086227D01*
X87604542Y-107293855D01*
X87604541Y-107293863D01*
X87585807Y-107507998D01*
X87585807Y-107508001D01*
X80497561Y-107508001D01*
X80179928Y-106561615D01*
X80178770Y-106557977D01*
X80143254Y-106440240D01*
X79818210Y-105362707D01*
X79817185Y-105359108D01*
X79493631Y-104153205D01*
X79492717Y-104149576D01*
X79206502Y-102934278D01*
X79205694Y-102930592D01*
X78957102Y-101707112D01*
X78956401Y-101703369D01*
X78949260Y-101661673D01*
X78745640Y-100472740D01*
X78745068Y-100469059D01*
X78572357Y-99232539D01*
X78571888Y-99228746D01*
X78559970Y-99118757D01*
X78437393Y-97987549D01*
X78437046Y-97983819D01*
X78340878Y-96738945D01*
X78340646Y-96735188D01*
X78282912Y-95488017D01*
X78282797Y-95484268D01*
X78263546Y-94235880D01*
X78263546Y-94232087D01*
X78282797Y-92983728D01*
X78282912Y-92979983D01*
X78340647Y-91732806D01*
X78340880Y-91729024D01*
X78437047Y-90484173D01*
X78437392Y-90480455D01*
X78571890Y-89239241D01*
X78572359Y-89235457D01*
X78578119Y-89194219D01*
X78745071Y-87998929D01*
X78745639Y-87995268D01*
X78956405Y-86764602D01*
X78957105Y-86760871D01*
X79205697Y-85537393D01*
X79206508Y-85533696D01*
X79492720Y-84318407D01*
X79493627Y-84314809D01*
X79817190Y-83108873D01*
X79818206Y-83105309D01*
X80164297Y-81958000D01*
X83240835Y-81958000D01*
X83259465Y-82194714D01*
X83314895Y-82425595D01*
X83314895Y-82425597D01*
X83405757Y-82644959D01*
X83405759Y-82644962D01*
X83529820Y-82847410D01*
X83529821Y-82847413D01*
X83529824Y-82847416D01*
X83684031Y-83027969D01*
X83791714Y-83119939D01*
X83864586Y-83182178D01*
X83864588Y-83182178D01*
X83945554Y-83231795D01*
X84067037Y-83306240D01*
X84067040Y-83306242D01*
X84286403Y-83397104D01*
X84286404Y-83397104D01*
X84286406Y-83397105D01*
X84517289Y-83452535D01*
X84754000Y-83471165D01*
X84990711Y-83452535D01*
X85221594Y-83397105D01*
X85221596Y-83397104D01*
X85221597Y-83397104D01*
X85440959Y-83306242D01*
X85440960Y-83306241D01*
X85440963Y-83306240D01*
X85643416Y-83182176D01*
X85823969Y-83027969D01*
X85978176Y-82847416D01*
X86102240Y-82644963D01*
X86110398Y-82625269D01*
X86193104Y-82425597D01*
X86193104Y-82425596D01*
X86193105Y-82425594D01*
X86248535Y-82194711D01*
X86267165Y-81958000D01*
X87740835Y-81958000D01*
X87759465Y-82194714D01*
X87814895Y-82425595D01*
X87814895Y-82425597D01*
X87905757Y-82644959D01*
X87905759Y-82644962D01*
X88029820Y-82847410D01*
X88029821Y-82847413D01*
X88029824Y-82847416D01*
X88184031Y-83027969D01*
X88291714Y-83119939D01*
X88364586Y-83182178D01*
X88364588Y-83182178D01*
X88445554Y-83231795D01*
X88567037Y-83306240D01*
X88567040Y-83306242D01*
X88786403Y-83397104D01*
X88786404Y-83397104D01*
X88786406Y-83397105D01*
X89017289Y-83452535D01*
X89254000Y-83471165D01*
X89490711Y-83452535D01*
X89721594Y-83397105D01*
X89721596Y-83397104D01*
X89721597Y-83397104D01*
X89940959Y-83306242D01*
X89940960Y-83306241D01*
X89940963Y-83306240D01*
X90143416Y-83182176D01*
X90323969Y-83027969D01*
X90478176Y-82847416D01*
X90602240Y-82644963D01*
X90610398Y-82625269D01*
X90693104Y-82425597D01*
X90693104Y-82425596D01*
X90693105Y-82425594D01*
X90748535Y-82194711D01*
X90767165Y-81958000D01*
X90748535Y-81721289D01*
X90693105Y-81490406D01*
X90693104Y-81490403D01*
X90693104Y-81490402D01*
X90602242Y-81271040D01*
X90602240Y-81271037D01*
X90478179Y-81068589D01*
X90478178Y-81068586D01*
X90377522Y-80950734D01*
X90323969Y-80888031D01*
X90157970Y-80746254D01*
X90143413Y-80733821D01*
X90143410Y-80733820D01*
X89940962Y-80609759D01*
X89940959Y-80609757D01*
X89721596Y-80518895D01*
X89490714Y-80463465D01*
X89254000Y-80444835D01*
X89017285Y-80463465D01*
X88786404Y-80518895D01*
X88786402Y-80518895D01*
X88567040Y-80609757D01*
X88567037Y-80609759D01*
X88364589Y-80733820D01*
X88364586Y-80733821D01*
X88184031Y-80888031D01*
X88029821Y-81068586D01*
X88029820Y-81068589D01*
X87905759Y-81271037D01*
X87905757Y-81271040D01*
X87814895Y-81490402D01*
X87814895Y-81490404D01*
X87759465Y-81721285D01*
X87740835Y-81958000D01*
X86267165Y-81958000D01*
X86248535Y-81721289D01*
X86193105Y-81490406D01*
X86193104Y-81490403D01*
X86193104Y-81490402D01*
X86102242Y-81271040D01*
X86102240Y-81271037D01*
X85978179Y-81068589D01*
X85978178Y-81068586D01*
X85877522Y-80950734D01*
X85823969Y-80888031D01*
X85657970Y-80746254D01*
X85643413Y-80733821D01*
X85643410Y-80733820D01*
X85440962Y-80609759D01*
X85440959Y-80609757D01*
X85221596Y-80518895D01*
X84990714Y-80463465D01*
X84754000Y-80444835D01*
X84517285Y-80463465D01*
X84286404Y-80518895D01*
X84286402Y-80518895D01*
X84067040Y-80609757D01*
X84067037Y-80609759D01*
X83864589Y-80733820D01*
X83864586Y-80733821D01*
X83684031Y-80888031D01*
X83529821Y-81068586D01*
X83529820Y-81068589D01*
X83405759Y-81271037D01*
X83405757Y-81271040D01*
X83314895Y-81490402D01*
X83314895Y-81490404D01*
X83259465Y-81721285D01*
X83240835Y-81958000D01*
X80164297Y-81958000D01*
X80178778Y-81909995D01*
X80179930Y-81906377D01*
X80219659Y-81788005D01*
X80577202Y-80722704D01*
X80578439Y-80719200D01*
X81012015Y-79548357D01*
X81013384Y-79544831D01*
X81133836Y-79248000D01*
X94436644Y-79248000D01*
X94456038Y-79494437D01*
X94513745Y-79734807D01*
X94608345Y-79963192D01*
X94608347Y-79963196D01*
X94608348Y-79963197D01*
X94737510Y-80173971D01*
X94898055Y-80361945D01*
X95086029Y-80522490D01*
X95296803Y-80651652D01*
X95296805Y-80651652D01*
X95296807Y-80651654D01*
X95375173Y-80684114D01*
X95525188Y-80746253D01*
X95765560Y-80803961D01*
X96012000Y-80823356D01*
X96258440Y-80803961D01*
X96498812Y-80746253D01*
X96727197Y-80651652D01*
X96937971Y-80522490D01*
X97125945Y-80361945D01*
X97286490Y-80173971D01*
X97415652Y-79963197D01*
X97510253Y-79734812D01*
X97567961Y-79494440D01*
X97587356Y-79248000D01*
X97567961Y-79001560D01*
X97510253Y-78761188D01*
X97441761Y-78595835D01*
X97415654Y-78532807D01*
X97359940Y-78441890D01*
X97286490Y-78322029D01*
X97125945Y-78134055D01*
X96937971Y-77973510D01*
X96727197Y-77844348D01*
X96727196Y-77844347D01*
X96727192Y-77844345D01*
X96498807Y-77749745D01*
X96258436Y-77692038D01*
X96258437Y-77692038D01*
X96012000Y-77672644D01*
X95765562Y-77692038D01*
X95525192Y-77749745D01*
X95296807Y-77844345D01*
X95086028Y-77973510D01*
X94898055Y-78134055D01*
X94737510Y-78322028D01*
X94608345Y-78532807D01*
X94513745Y-78761192D01*
X94456038Y-79001562D01*
X94436644Y-79248000D01*
X81133836Y-79248000D01*
X81482823Y-78387992D01*
X81484314Y-78384475D01*
X81511927Y-78322028D01*
X81989227Y-77242600D01*
X81990806Y-77239175D01*
X82530696Y-76113397D01*
X82532379Y-76110025D01*
X83025449Y-75158308D01*
X83073765Y-75107840D01*
X83141698Y-75091505D01*
X83207679Y-75114490D01*
X83250759Y-75169498D01*
X83259166Y-75225079D01*
X83240835Y-75458000D01*
X83242741Y-75482217D01*
X83259465Y-75694714D01*
X83314895Y-75925595D01*
X83314895Y-75925597D01*
X83405757Y-76144959D01*
X83405759Y-76144962D01*
X83529820Y-76347410D01*
X83529821Y-76347413D01*
X83577786Y-76403572D01*
X83684031Y-76527969D01*
X83735832Y-76572211D01*
X83864586Y-76682178D01*
X83864589Y-76682179D01*
X84067037Y-76806240D01*
X84067040Y-76806242D01*
X84286403Y-76897104D01*
X84286404Y-76897104D01*
X84286406Y-76897105D01*
X84517289Y-76952535D01*
X84754000Y-76971165D01*
X84990711Y-76952535D01*
X85221594Y-76897105D01*
X85221596Y-76897104D01*
X85221597Y-76897104D01*
X85440959Y-76806242D01*
X85440960Y-76806241D01*
X85440963Y-76806240D01*
X85643416Y-76682176D01*
X85823969Y-76527969D01*
X85978176Y-76347416D01*
X86102240Y-76144963D01*
X86115295Y-76113447D01*
X86193104Y-75925597D01*
X86193104Y-75925596D01*
X86193105Y-75925594D01*
X86248535Y-75694711D01*
X86267165Y-75458000D01*
X86248535Y-75221289D01*
X86222711Y-75113725D01*
X86195226Y-74999239D01*
X86198717Y-74929456D01*
X86228117Y-74882613D01*
X90202713Y-70908019D01*
X90264036Y-70874534D01*
X90290394Y-70871700D01*
X95702205Y-70871700D01*
X95769244Y-70891385D01*
G37*
G04 #@! TD.AperFunction*
G04 #@! TA.AperFunction,Conductor*
G36*
X102973745Y-121209085D02*
G01*
X102994386Y-121225718D01*
X105739299Y-123970632D01*
X108468742Y-126700075D01*
X108478667Y-126712463D01*
X108478874Y-126712292D01*
X108483844Y-126718300D01*
X108533681Y-126765100D01*
X108536478Y-126767811D01*
X108559062Y-126790395D01*
X108558056Y-126791400D01*
X108592163Y-126845517D01*
X108591546Y-126915384D01*
X108553254Y-126973826D01*
X108489445Y-127002289D01*
X108472882Y-127003400D01*
X97937494Y-127003400D01*
X97870455Y-126983715D01*
X97849813Y-126967081D01*
X97741142Y-126858410D01*
X97707657Y-126797087D01*
X97712641Y-126727395D01*
X97754513Y-126671462D01*
X97819977Y-126647045D01*
X97860915Y-126650953D01*
X98019113Y-126693343D01*
X98182032Y-126707596D01*
X98247198Y-126713298D01*
X98247200Y-126713298D01*
X98247202Y-126713298D01*
X98304221Y-126708309D01*
X98475287Y-126693343D01*
X98696443Y-126634084D01*
X98903949Y-126537323D01*
X99091500Y-126405998D01*
X99253398Y-126244100D01*
X99384723Y-126056549D01*
X99481484Y-125849043D01*
X99540743Y-125627887D01*
X99560698Y-125399800D01*
X99540743Y-125171713D01*
X99481484Y-124950557D01*
X99465825Y-124916977D01*
X99384724Y-124743054D01*
X99384723Y-124743051D01*
X99253398Y-124555500D01*
X99091500Y-124393602D01*
X98903949Y-124262277D01*
X98903945Y-124262275D01*
X98696449Y-124165518D01*
X98696438Y-124165514D01*
X98475289Y-124106257D01*
X98475281Y-124106256D01*
X98247202Y-124086302D01*
X98247198Y-124086302D01*
X98019118Y-124106256D01*
X98019110Y-124106257D01*
X97797961Y-124165514D01*
X97797950Y-124165518D01*
X97590454Y-124262275D01*
X97590452Y-124262276D01*
X97558049Y-124284965D01*
X97402900Y-124393602D01*
X97402898Y-124393603D01*
X97402895Y-124393606D01*
X97241006Y-124555495D01*
X97241003Y-124555498D01*
X97241002Y-124555500D01*
X97145058Y-124692522D01*
X97109678Y-124743050D01*
X97109675Y-124743054D01*
X97012918Y-124950550D01*
X97012914Y-124950561D01*
X96953657Y-125171710D01*
X96953656Y-125171718D01*
X96933702Y-125399798D01*
X96933702Y-125399801D01*
X96953656Y-125627881D01*
X96953658Y-125627892D01*
X96996045Y-125786083D01*
X96994382Y-125855933D01*
X96955219Y-125913795D01*
X96890991Y-125941299D01*
X96822089Y-125929712D01*
X96788589Y-125905857D01*
X96161576Y-125278844D01*
X96128091Y-125217521D01*
X96133075Y-125147829D01*
X96174947Y-125091896D01*
X96196853Y-125078781D01*
X96301603Y-125029935D01*
X96301605Y-125029934D01*
X96487944Y-124899457D01*
X96648781Y-124738620D01*
X96779258Y-124552282D01*
X96875389Y-124346126D01*
X96875393Y-124346117D01*
X96934263Y-124126410D01*
X96934265Y-124126399D01*
X96954090Y-123899802D01*
X96954090Y-123899797D01*
X96946324Y-123811034D01*
X96016311Y-124060230D01*
X96034289Y-124024948D01*
X96054110Y-123899800D01*
X96034289Y-123774652D01*
X95976765Y-123661755D01*
X95891140Y-123576130D01*
X96816914Y-123328071D01*
X96779259Y-123247319D01*
X96648781Y-123060979D01*
X96487944Y-122900142D01*
X96301606Y-122769665D01*
X96095450Y-122673534D01*
X96095441Y-122673530D01*
X95875734Y-122614660D01*
X95875723Y-122614658D01*
X95649126Y-122594834D01*
X95649121Y-122594834D01*
X95560358Y-122602598D01*
X95809555Y-123532612D01*
X95774272Y-123514635D01*
X95680605Y-123499800D01*
X95617643Y-123499800D01*
X95523976Y-123514635D01*
X95411079Y-123572159D01*
X95325455Y-123657782D01*
X95077395Y-122732008D01*
X94996643Y-122769664D01*
X94810303Y-122900142D01*
X94649466Y-123060979D01*
X94518991Y-123247315D01*
X94470142Y-123352071D01*
X94423969Y-123404510D01*
X94356775Y-123423661D01*
X94289894Y-123403445D01*
X94270079Y-123387346D01*
X93724742Y-122842009D01*
X93691257Y-122780686D01*
X93692217Y-122723888D01*
X93728001Y-122582580D01*
X93728002Y-122582577D01*
X93728003Y-122582568D01*
X93747278Y-122349956D01*
X93747278Y-122349945D01*
X93728002Y-122117328D01*
X93728002Y-122117325D01*
X93670700Y-121891044D01*
X93576935Y-121677282D01*
X93540518Y-121621542D01*
X93449264Y-121481866D01*
X93371491Y-121397383D01*
X93340568Y-121334729D01*
X93348428Y-121265303D01*
X93392575Y-121211147D01*
X93458992Y-121189456D01*
X93462720Y-121189400D01*
X102906706Y-121189400D01*
X102973745Y-121209085D01*
G37*
G04 #@! TD.AperFunction*
G04 #@! TA.AperFunction,Conductor*
G36*
X119089944Y-119345685D02*
G01*
X119135699Y-119398489D01*
X119145643Y-119467647D01*
X119116618Y-119531203D01*
X119110586Y-119537681D01*
X116920084Y-121728181D01*
X116858761Y-121761666D01*
X116832403Y-121764500D01*
X115671969Y-121764500D01*
X115671954Y-121764501D01*
X115568296Y-121775091D01*
X115400344Y-121830743D01*
X115400342Y-121830744D01*
X115249745Y-121923635D01*
X115124635Y-122048745D01*
X115031744Y-122199342D01*
X115031743Y-122199344D01*
X114976091Y-122367295D01*
X114976091Y-122367296D01*
X114965500Y-122470955D01*
X114965500Y-123875030D01*
X114965501Y-123875045D01*
X114976091Y-123978703D01*
X115031743Y-124146655D01*
X115031744Y-124146657D01*
X115124635Y-124297254D01*
X115249745Y-124422364D01*
X115400342Y-124515255D01*
X115400344Y-124515256D01*
X115565396Y-124569947D01*
X115568299Y-124570909D01*
X115671963Y-124581500D01*
X117076036Y-124581499D01*
X117179701Y-124570909D01*
X117347658Y-124515255D01*
X117498252Y-124422366D01*
X117623366Y-124297252D01*
X117716255Y-124146658D01*
X117716816Y-124144967D01*
X117771172Y-123980926D01*
X117801197Y-123932247D01*
X118469549Y-123263895D01*
X118470327Y-123274265D01*
X118519887Y-123400541D01*
X118604465Y-123506599D01*
X118716547Y-123583016D01*
X118824299Y-123616253D01*
X118115201Y-124325351D01*
X118145649Y-124349050D01*
X118349697Y-124459476D01*
X118349706Y-124459479D01*
X118569139Y-124534811D01*
X118797993Y-124573000D01*
X119030007Y-124573000D01*
X119258860Y-124534811D01*
X119478293Y-124459479D01*
X119478301Y-124459476D01*
X119682355Y-124349047D01*
X119712797Y-124325351D01*
X119712798Y-124325350D01*
X119002232Y-123614784D01*
X119048138Y-123607865D01*
X119170357Y-123549007D01*
X119269798Y-123456740D01*
X119337625Y-123339260D01*
X119355499Y-123260946D01*
X120065185Y-123970632D01*
X120075113Y-123955438D01*
X120128259Y-123910081D01*
X120197490Y-123900657D01*
X120260826Y-123930158D01*
X120282730Y-123955436D01*
X120292658Y-123970632D01*
X120338688Y-124041086D01*
X120496776Y-124212814D01*
X120496780Y-124212818D01*
X120680983Y-124356190D01*
X120680985Y-124356191D01*
X120680988Y-124356193D01*
X120750122Y-124393606D01*
X120886273Y-124467287D01*
X120920713Y-124479110D01*
X120945325Y-124487560D01*
X121002340Y-124527945D01*
X121028471Y-124592745D01*
X121015420Y-124661385D01*
X120992743Y-124692522D01*
X120768288Y-124916977D01*
X120706965Y-124950462D01*
X120640344Y-124946577D01*
X120620954Y-124939920D01*
X120429730Y-124908011D01*
X120390712Y-124901500D01*
X120157288Y-124901500D01*
X120118270Y-124908011D01*
X119927045Y-124939920D01*
X119706280Y-125015710D01*
X119706266Y-125015716D01*
X119500988Y-125126806D01*
X119500985Y-125126808D01*
X119316781Y-125270181D01*
X119313010Y-125273653D01*
X119312290Y-125272871D01*
X119256899Y-125306147D01*
X119187061Y-125304034D01*
X119129452Y-125264500D01*
X119109397Y-125229503D01*
X119101371Y-125207987D01*
X119084889Y-125163796D01*
X118997261Y-125046739D01*
X118880204Y-124959111D01*
X118857270Y-124950557D01*
X118743203Y-124908011D01*
X118682654Y-124901500D01*
X118682638Y-124901500D01*
X116785362Y-124901500D01*
X116785345Y-124901500D01*
X116724797Y-124908011D01*
X116724795Y-124908011D01*
X116587795Y-124959111D01*
X116470739Y-125046739D01*
X116383111Y-125163795D01*
X116332011Y-125300795D01*
X116332011Y-125300797D01*
X116325500Y-125361345D01*
X116325500Y-125550500D01*
X116305815Y-125617539D01*
X116253011Y-125663294D01*
X116201500Y-125674500D01*
X109291995Y-125674500D01*
X109224956Y-125654815D01*
X109204314Y-125638181D01*
X103958514Y-120392381D01*
X103925029Y-120331058D01*
X103930013Y-120261366D01*
X103971885Y-120205433D01*
X104037349Y-120181016D01*
X104046195Y-120180700D01*
X117410553Y-120180700D01*
X117426332Y-120182441D01*
X117426358Y-120182174D01*
X117434111Y-120182906D01*
X117434119Y-120182908D01*
X117502444Y-120180761D01*
X117506339Y-120180700D01*
X117534377Y-120180700D01*
X117534383Y-120180700D01*
X117538522Y-120180176D01*
X117550153Y-120179261D01*
X117594605Y-120177865D01*
X117614306Y-120172140D01*
X117633351Y-120168197D01*
X117653699Y-120165627D01*
X117695059Y-120149251D01*
X117706060Y-120145483D01*
X117748793Y-120133069D01*
X117766454Y-120122623D01*
X117783912Y-120114071D01*
X117802988Y-120106519D01*
X117838968Y-120080377D01*
X117848715Y-120073974D01*
X117886998Y-120051334D01*
X117901494Y-120036837D01*
X117916292Y-120024198D01*
X117932887Y-120012142D01*
X117961245Y-119977862D01*
X117969088Y-119969242D01*
X118576013Y-119362319D01*
X118637336Y-119328834D01*
X118663694Y-119326000D01*
X119022905Y-119326000D01*
X119089944Y-119345685D01*
G37*
G04 #@! TD.AperFunction*
G04 #@! TA.AperFunction,Conductor*
G36*
X125497212Y-119971685D02*
G01*
X125542967Y-120024489D01*
X125552911Y-120093647D01*
X125523886Y-120157203D01*
X125503065Y-120176313D01*
X125502004Y-120177083D01*
X125500112Y-120178458D01*
X125471763Y-120212725D01*
X125463903Y-120221362D01*
X122974093Y-122711172D01*
X122912770Y-122744657D01*
X122843078Y-122739673D01*
X122787145Y-122697801D01*
X122772856Y-122673301D01*
X122696984Y-122500331D01*
X122569313Y-122304915D01*
X122411223Y-122133185D01*
X122411222Y-122133184D01*
X122411220Y-122133182D01*
X122227017Y-121989810D01*
X122227015Y-121989809D01*
X122227014Y-121989808D01*
X122227011Y-121989806D01*
X122021733Y-121878716D01*
X122021730Y-121878715D01*
X122021727Y-121878713D01*
X122021721Y-121878711D01*
X122021719Y-121878710D01*
X121800954Y-121802920D01*
X121621650Y-121773000D01*
X121570712Y-121764500D01*
X121337288Y-121764500D01*
X121291240Y-121772184D01*
X121107045Y-121802920D01*
X120886280Y-121878710D01*
X120886266Y-121878716D01*
X120680988Y-121989806D01*
X120680985Y-121989808D01*
X120496781Y-122133181D01*
X120496776Y-122133185D01*
X120338688Y-122304913D01*
X120282732Y-122390561D01*
X120229585Y-122435917D01*
X120160354Y-122445341D01*
X120097018Y-122415839D01*
X120075114Y-122390561D01*
X120065186Y-122375365D01*
X119358449Y-123082102D01*
X119357673Y-123071735D01*
X119308113Y-122945459D01*
X119223535Y-122839401D01*
X119111453Y-122762984D01*
X119003699Y-122729746D01*
X119712797Y-122020647D01*
X119712797Y-122020645D01*
X119682360Y-121996955D01*
X119682354Y-121996951D01*
X119478302Y-121886523D01*
X119478293Y-121886520D01*
X119258860Y-121811188D01*
X119030007Y-121773000D01*
X118972093Y-121773000D01*
X118905054Y-121753315D01*
X118859299Y-121700511D01*
X118849355Y-121631353D01*
X118878380Y-121567797D01*
X118884392Y-121561339D01*
X120457414Y-119988319D01*
X120518737Y-119954834D01*
X120545095Y-119952000D01*
X125430173Y-119952000D01*
X125497212Y-119971685D01*
G37*
G04 #@! TD.AperFunction*
G04 #@! TA.AperFunction,Conductor*
G36*
X146709445Y-91333185D02*
G01*
X146730081Y-91349814D01*
X146848209Y-91467942D01*
X146881693Y-91529264D01*
X146880733Y-91586061D01*
X146844948Y-91727375D01*
X146825673Y-91959994D01*
X146825673Y-91960005D01*
X146844948Y-92192622D01*
X146902251Y-92418907D01*
X146996015Y-92632668D01*
X147123686Y-92828084D01*
X147267003Y-92983766D01*
X147281780Y-92999818D01*
X147427847Y-93113507D01*
X147458714Y-93137532D01*
X147499527Y-93194242D01*
X147503201Y-93264015D01*
X147468569Y-93324698D01*
X147458712Y-93333239D01*
X147440201Y-93347646D01*
X147440200Y-93347647D01*
X148150769Y-94058215D01*
X148104862Y-94065135D01*
X147982643Y-94123993D01*
X147883202Y-94216260D01*
X147815375Y-94333740D01*
X147797500Y-94412054D01*
X147087811Y-93702365D01*
X147003516Y-93831390D01*
X146910317Y-94043864D01*
X146853361Y-94268781D01*
X146834202Y-94499994D01*
X146834202Y-94500005D01*
X146853361Y-94731218D01*
X146910319Y-94956142D01*
X146911040Y-94958242D01*
X146911080Y-94959150D01*
X146911577Y-94961109D01*
X146911173Y-94961211D01*
X146914187Y-95028040D01*
X146879098Y-95088460D01*
X146816915Y-95120318D01*
X146793757Y-95122500D01*
X145106538Y-95122500D01*
X145039499Y-95102815D01*
X144993744Y-95050011D01*
X144983800Y-94980853D01*
X144994156Y-94946095D01*
X144998284Y-94937243D01*
X145057543Y-94716087D01*
X145077498Y-94488000D01*
X145057543Y-94259913D01*
X144998284Y-94038757D01*
X144993829Y-94029204D01*
X144932231Y-93897105D01*
X144901523Y-93831251D01*
X144770198Y-93643700D01*
X144608300Y-93481802D01*
X144420749Y-93350477D01*
X144383777Y-93333237D01*
X144377655Y-93330382D01*
X144325215Y-93284210D01*
X144306063Y-93217017D01*
X144326278Y-93150136D01*
X144377655Y-93105618D01*
X144380882Y-93104112D01*
X144420749Y-93085523D01*
X144608300Y-92954198D01*
X144770198Y-92792300D01*
X144901523Y-92604749D01*
X144998284Y-92397243D01*
X145057543Y-92176087D01*
X145077498Y-91948000D01*
X145057543Y-91719913D01*
X144998284Y-91498757D01*
X144994155Y-91489904D01*
X144983664Y-91420828D01*
X145012183Y-91357044D01*
X145070660Y-91318804D01*
X145106538Y-91313500D01*
X146642406Y-91313500D01*
X146709445Y-91333185D01*
G37*
G04 #@! TD.AperFunction*
G04 #@! TA.AperFunction,Conductor*
G36*
X93622831Y-85904513D02*
G01*
X93661070Y-85927304D01*
X93702512Y-85963502D01*
X93702520Y-85963508D01*
X95092829Y-86937013D01*
X95092837Y-86937018D01*
X95092839Y-86937019D01*
X95146184Y-86966423D01*
X95287720Y-87003146D01*
X95433869Y-86998507D01*
X95572790Y-86952881D01*
X95693231Y-86869964D01*
X95702698Y-86859125D01*
X95706341Y-86854955D01*
X95765268Y-86817413D01*
X95835137Y-86817689D01*
X95893765Y-86855695D01*
X95922539Y-86919365D01*
X95923260Y-86925720D01*
X95935302Y-87063365D01*
X95935303Y-87063373D01*
X95994560Y-87284522D01*
X95994564Y-87284533D01*
X96088082Y-87485082D01*
X96091323Y-87492033D01*
X96222648Y-87679584D01*
X96384546Y-87841482D01*
X96572097Y-87972807D01*
X96657889Y-88012812D01*
X96779596Y-88069565D01*
X96779598Y-88069565D01*
X96779603Y-88069568D01*
X97000759Y-88128827D01*
X97163678Y-88143080D01*
X97228844Y-88148782D01*
X97228846Y-88148782D01*
X97228848Y-88148782D01*
X97285867Y-88143793D01*
X97456933Y-88128827D01*
X97678089Y-88069568D01*
X97835170Y-87996320D01*
X97904243Y-87985829D01*
X97968027Y-88014349D01*
X98006267Y-88072825D01*
X98011099Y-88119510D01*
X97995994Y-88292165D01*
X97995994Y-88292169D01*
X98015948Y-88520249D01*
X98015949Y-88520257D01*
X98075206Y-88741406D01*
X98075210Y-88741417D01*
X98153931Y-88910235D01*
X98171969Y-88948917D01*
X98303294Y-89136468D01*
X98465192Y-89298366D01*
X98652743Y-89429691D01*
X98777583Y-89487904D01*
X98860242Y-89526449D01*
X98860244Y-89526449D01*
X98860249Y-89526452D01*
X99081405Y-89585711D01*
X99244324Y-89599964D01*
X99309490Y-89605666D01*
X99309492Y-89605666D01*
X99309494Y-89605666D01*
X99366513Y-89600677D01*
X99537579Y-89585711D01*
X99758735Y-89526452D01*
X99924711Y-89449056D01*
X99993786Y-89438565D01*
X100057570Y-89467085D01*
X100095809Y-89525561D01*
X100100641Y-89572246D01*
X100085173Y-89749049D01*
X100085173Y-89749054D01*
X100104997Y-89975651D01*
X100104999Y-89975662D01*
X100163869Y-90195369D01*
X100163873Y-90195378D01*
X100260004Y-90401534D01*
X100390478Y-90587868D01*
X100453481Y-90650872D01*
X101003561Y-89865278D01*
X101004974Y-89874200D01*
X101062498Y-89987097D01*
X101152094Y-90076693D01*
X101264991Y-90134217D01*
X101358658Y-90149052D01*
X101415248Y-90149052D01*
X100863058Y-90937661D01*
X100863058Y-90937662D01*
X100943807Y-90975316D01*
X100943821Y-90975321D01*
X101163528Y-91034191D01*
X101163539Y-91034193D01*
X101390137Y-91054018D01*
X101390141Y-91054018D01*
X101616738Y-91034193D01*
X101616749Y-91034191D01*
X101836456Y-90975321D01*
X101836465Y-90975318D01*
X101997315Y-90900312D01*
X102066392Y-90889820D01*
X102130176Y-90918339D01*
X102168416Y-90976816D01*
X102173248Y-91023501D01*
X102157287Y-91205935D01*
X102157287Y-91205938D01*
X102177241Y-91434018D01*
X102177242Y-91434026D01*
X102236499Y-91655175D01*
X102236503Y-91655186D01*
X102283858Y-91756739D01*
X102333262Y-91862686D01*
X102464587Y-92050237D01*
X102626485Y-92212135D01*
X102814036Y-92343460D01*
X102881977Y-92375141D01*
X103021535Y-92440218D01*
X103021537Y-92440218D01*
X103021542Y-92440221D01*
X103242698Y-92499480D01*
X103405617Y-92513733D01*
X103470783Y-92519435D01*
X103470785Y-92519435D01*
X103470787Y-92519435D01*
X103527806Y-92514446D01*
X103698872Y-92499480D01*
X103920028Y-92440221D01*
X104077109Y-92366973D01*
X104146182Y-92356482D01*
X104209966Y-92385002D01*
X104248206Y-92443478D01*
X104253038Y-92490163D01*
X104237933Y-92662818D01*
X104237933Y-92662822D01*
X104257887Y-92890902D01*
X104257888Y-92890910D01*
X104317145Y-93112059D01*
X104317149Y-93112070D01*
X104393836Y-93276526D01*
X104413908Y-93319570D01*
X104545233Y-93507121D01*
X104707131Y-93669019D01*
X104894682Y-93800344D01*
X104964317Y-93832815D01*
X105102181Y-93897102D01*
X105102183Y-93897102D01*
X105102188Y-93897105D01*
X105323344Y-93956364D01*
X105463637Y-93968638D01*
X105551429Y-93976319D01*
X105551431Y-93976319D01*
X105551433Y-93976319D01*
X105618411Y-93970459D01*
X105779518Y-93956364D01*
X106000674Y-93897105D01*
X106157755Y-93823857D01*
X106226828Y-93813366D01*
X106290612Y-93841886D01*
X106328852Y-93900362D01*
X106333684Y-93947047D01*
X106318579Y-94119702D01*
X106318579Y-94119706D01*
X106338533Y-94347786D01*
X106338534Y-94347794D01*
X106397791Y-94568943D01*
X106397795Y-94568954D01*
X106489071Y-94764696D01*
X106499563Y-94833773D01*
X106471043Y-94897557D01*
X106412566Y-94935796D01*
X106376689Y-94941100D01*
X91336605Y-94941100D01*
X91269566Y-94921415D01*
X91223811Y-94868611D01*
X91213867Y-94799453D01*
X91223049Y-94767290D01*
X91272682Y-94654135D01*
X91329638Y-94429218D01*
X91348798Y-94198005D01*
X91348798Y-94197994D01*
X91329638Y-93966781D01*
X91272682Y-93741864D01*
X91179484Y-93529393D01*
X91095186Y-93400365D01*
X90388449Y-94107102D01*
X90387673Y-94096735D01*
X90338113Y-93970459D01*
X90253535Y-93864401D01*
X90141453Y-93787984D01*
X90033699Y-93754746D01*
X90703248Y-93085196D01*
X90751922Y-93055173D01*
X90917658Y-93000255D01*
X91068252Y-92907366D01*
X91193366Y-92782252D01*
X91286255Y-92631658D01*
X91341909Y-92463701D01*
X91352500Y-92360037D01*
X91352499Y-90955964D01*
X91341909Y-90852299D01*
X91316895Y-90776810D01*
X91286256Y-90684344D01*
X91286255Y-90684342D01*
X91204316Y-90551500D01*
X91193366Y-90533748D01*
X91193365Y-90533747D01*
X91193364Y-90533745D01*
X91068254Y-90408635D01*
X90917657Y-90315744D01*
X90917655Y-90315743D01*
X90749703Y-90260091D01*
X90690897Y-90254083D01*
X90626205Y-90227686D01*
X90586054Y-90170505D01*
X90579500Y-90130725D01*
X90579500Y-88896693D01*
X90599185Y-88829654D01*
X90615814Y-88809017D01*
X93491818Y-85933012D01*
X93553139Y-85899529D01*
X93622831Y-85904513D01*
G37*
G04 #@! TD.AperFunction*
G04 #@! TA.AperFunction,Conductor*
G36*
X128377586Y-85695685D02*
G01*
X128423341Y-85748489D01*
X128433285Y-85817647D01*
X128412122Y-85871123D01*
X128366400Y-85936420D01*
X128366399Y-85936422D01*
X128266570Y-86150507D01*
X128266567Y-86150513D01*
X128209364Y-86363999D01*
X128209364Y-86364000D01*
X129106314Y-86364000D01*
X129080507Y-86404156D01*
X129040000Y-86542111D01*
X129040000Y-86685889D01*
X129080507Y-86823844D01*
X129106314Y-86864000D01*
X128209364Y-86864000D01*
X128266567Y-87077486D01*
X128266570Y-87077492D01*
X128366399Y-87291578D01*
X128501894Y-87485082D01*
X128668917Y-87652105D01*
X128849802Y-87778763D01*
X128893427Y-87833340D01*
X128900619Y-87902839D01*
X128869097Y-87965193D01*
X128837697Y-87989392D01*
X128794427Y-88012809D01*
X128794422Y-88012812D01*
X128616761Y-88151092D01*
X128616756Y-88151097D01*
X128464284Y-88316723D01*
X128464276Y-88316734D01*
X128341140Y-88505207D01*
X128250703Y-88711385D01*
X128195436Y-88929628D01*
X128195434Y-88929640D01*
X128176844Y-89153994D01*
X128176844Y-89154005D01*
X128195434Y-89378359D01*
X128195436Y-89378371D01*
X128250703Y-89596614D01*
X128341140Y-89802792D01*
X128372426Y-89850678D01*
X128392614Y-89917567D01*
X128373435Y-89984753D01*
X128320976Y-90030904D01*
X128268618Y-90042500D01*
X107620047Y-90042500D01*
X107604267Y-90040758D01*
X107604242Y-90041026D01*
X107596481Y-90040292D01*
X107528156Y-90042439D01*
X107524261Y-90042500D01*
X107496213Y-90042500D01*
X107492066Y-90043023D01*
X107480446Y-90043937D01*
X107435999Y-90045334D01*
X107435994Y-90045335D01*
X107416293Y-90051058D01*
X107397254Y-90055000D01*
X107376911Y-90057571D01*
X107376903Y-90057572D01*
X107376901Y-90057573D01*
X107376899Y-90057573D01*
X107376893Y-90057575D01*
X107335559Y-90073939D01*
X107324519Y-90077719D01*
X107281809Y-90090129D01*
X107269798Y-90097233D01*
X107264148Y-90100573D01*
X107246683Y-90109129D01*
X107227615Y-90116678D01*
X107227614Y-90116679D01*
X107191633Y-90142820D01*
X107181875Y-90149230D01*
X107143598Y-90171868D01*
X107129102Y-90186364D01*
X107114312Y-90198996D01*
X107097716Y-90211054D01*
X107097712Y-90211057D01*
X107079776Y-90232740D01*
X107021877Y-90271848D01*
X106984232Y-90277700D01*
X106865047Y-90277700D01*
X106849267Y-90275958D01*
X106849242Y-90276226D01*
X106841481Y-90275492D01*
X106773156Y-90277639D01*
X106769261Y-90277700D01*
X106741213Y-90277700D01*
X106737066Y-90278223D01*
X106725446Y-90279137D01*
X106680999Y-90280534D01*
X106680994Y-90280535D01*
X106661293Y-90286258D01*
X106642254Y-90290200D01*
X106621911Y-90292771D01*
X106621903Y-90292772D01*
X106621901Y-90292773D01*
X106621899Y-90292773D01*
X106621893Y-90292775D01*
X106580559Y-90309139D01*
X106569519Y-90312919D01*
X106526809Y-90325329D01*
X106514310Y-90332721D01*
X106509148Y-90335773D01*
X106491683Y-90344329D01*
X106472615Y-90351878D01*
X106472611Y-90351881D01*
X106436634Y-90378018D01*
X106426879Y-90384426D01*
X106388600Y-90407065D01*
X106374098Y-90421568D01*
X106359308Y-90434200D01*
X106342715Y-90446255D01*
X106342712Y-90446258D01*
X106314363Y-90480525D01*
X106306503Y-90489162D01*
X105964121Y-90831544D01*
X105951731Y-90841472D01*
X105951902Y-90841679D01*
X105945895Y-90846648D01*
X105899098Y-90896481D01*
X105896390Y-90899275D01*
X105876566Y-90919098D01*
X105876565Y-90919100D01*
X105873997Y-90922411D01*
X105866421Y-90931280D01*
X105835982Y-90963695D01*
X105835981Y-90963696D01*
X105826100Y-90981668D01*
X105815425Y-90997919D01*
X105802852Y-91014129D01*
X105802850Y-91014133D01*
X105785187Y-91054948D01*
X105780050Y-91065433D01*
X105758630Y-91104397D01*
X105753529Y-91124264D01*
X105747230Y-91142662D01*
X105739084Y-91161487D01*
X105739081Y-91161496D01*
X105732126Y-91205412D01*
X105729757Y-91216852D01*
X105718725Y-91259816D01*
X105682986Y-91319854D01*
X105620461Y-91351038D01*
X105587816Y-91352505D01*
X105551436Y-91349323D01*
X105551429Y-91349323D01*
X105323349Y-91369277D01*
X105323341Y-91369278D01*
X105102192Y-91428535D01*
X105102181Y-91428539D01*
X104945109Y-91501783D01*
X104876032Y-91512275D01*
X104812248Y-91483755D01*
X104774009Y-91425278D01*
X104769177Y-91378596D01*
X104784283Y-91205937D01*
X104764328Y-90977850D01*
X104705069Y-90756694D01*
X104608308Y-90549188D01*
X104476983Y-90361637D01*
X104315085Y-90199739D01*
X104127534Y-90068414D01*
X104115671Y-90062882D01*
X103920034Y-89971655D01*
X103920023Y-89971651D01*
X103698874Y-89912394D01*
X103698866Y-89912393D01*
X103470787Y-89892439D01*
X103470783Y-89892439D01*
X103242703Y-89912393D01*
X103242695Y-89912394D01*
X103021546Y-89971651D01*
X103021544Y-89971652D01*
X102855568Y-90049047D01*
X102786490Y-90059538D01*
X102722707Y-90031018D01*
X102684467Y-89972541D01*
X102679636Y-89925856D01*
X102695105Y-89749052D01*
X102695105Y-89749049D01*
X102675280Y-89522452D01*
X102675278Y-89522441D01*
X102616408Y-89302734D01*
X102616404Y-89302725D01*
X102520273Y-89096569D01*
X102389799Y-88910235D01*
X102326795Y-88847230D01*
X101776716Y-89632823D01*
X101775304Y-89623904D01*
X101717780Y-89511007D01*
X101628184Y-89421411D01*
X101515287Y-89363887D01*
X101421620Y-89349052D01*
X101365028Y-89349052D01*
X101917218Y-88560441D01*
X101836456Y-88522782D01*
X101616749Y-88463912D01*
X101616738Y-88463910D01*
X101390141Y-88444086D01*
X101390137Y-88444086D01*
X101163539Y-88463910D01*
X101163528Y-88463912D01*
X100943821Y-88522782D01*
X100943807Y-88522787D01*
X100782961Y-88597791D01*
X100713884Y-88608283D01*
X100650100Y-88579763D01*
X100611861Y-88521286D01*
X100607029Y-88474602D01*
X100607965Y-88463910D01*
X100622990Y-88292168D01*
X100620128Y-88259460D01*
X100612301Y-88169989D01*
X100603035Y-88064081D01*
X100543776Y-87842925D01*
X100540713Y-87836357D01*
X100454798Y-87652110D01*
X100447015Y-87635419D01*
X100315690Y-87447868D01*
X100153792Y-87285970D01*
X99966241Y-87154645D01*
X99915813Y-87131130D01*
X99758741Y-87057886D01*
X99758730Y-87057882D01*
X99537581Y-86998625D01*
X99537573Y-86998624D01*
X99309494Y-86978670D01*
X99309490Y-86978670D01*
X99081410Y-86998624D01*
X99081402Y-86998625D01*
X98860253Y-87057882D01*
X98860242Y-87057886D01*
X98703170Y-87131130D01*
X98634093Y-87141622D01*
X98570309Y-87113102D01*
X98532070Y-87054625D01*
X98527238Y-87007943D01*
X98542344Y-86835284D01*
X98541364Y-86824088D01*
X98535834Y-86760871D01*
X98522389Y-86607197D01*
X98504797Y-86541542D01*
X98477480Y-86439593D01*
X98479143Y-86369743D01*
X98518306Y-86311881D01*
X98582534Y-86284377D01*
X98597255Y-86283500D01*
X104524853Y-86283500D01*
X104540632Y-86285241D01*
X104540658Y-86284974D01*
X104548411Y-86285706D01*
X104548419Y-86285708D01*
X104616744Y-86283561D01*
X104620639Y-86283500D01*
X104648677Y-86283500D01*
X104648683Y-86283500D01*
X104652822Y-86282976D01*
X104664453Y-86282061D01*
X104708905Y-86280665D01*
X104728606Y-86274940D01*
X104747651Y-86270997D01*
X104767999Y-86268427D01*
X104809359Y-86252051D01*
X104820360Y-86248283D01*
X104863093Y-86235869D01*
X104880754Y-86225423D01*
X104898212Y-86216871D01*
X104917288Y-86209319D01*
X104953268Y-86183177D01*
X104963015Y-86176774D01*
X105001298Y-86154134D01*
X105015794Y-86139637D01*
X105030592Y-86126998D01*
X105047187Y-86114942D01*
X105075535Y-86080673D01*
X105083377Y-86072053D01*
X105443115Y-85712317D01*
X105504437Y-85678834D01*
X105530795Y-85676000D01*
X128310547Y-85676000D01*
X128377586Y-85695685D01*
G37*
G04 #@! TD.AperFunction*
G04 #@! TA.AperFunction,Conductor*
G36*
X135253179Y-85695685D02*
G01*
X135298934Y-85748489D01*
X135308878Y-85817647D01*
X135279853Y-85881203D01*
X135273821Y-85887681D01*
X135137802Y-86023699D01*
X135029159Y-86178856D01*
X134974582Y-86222481D01*
X134931482Y-86231671D01*
X134909709Y-86232355D01*
X134907054Y-86232439D01*
X134903161Y-86232500D01*
X134875113Y-86232500D01*
X134870966Y-86233023D01*
X134859346Y-86233937D01*
X134814899Y-86235334D01*
X134814894Y-86235335D01*
X134795193Y-86241058D01*
X134776154Y-86245000D01*
X134755811Y-86247571D01*
X134755803Y-86247572D01*
X134755801Y-86247573D01*
X134755799Y-86247573D01*
X134755793Y-86247575D01*
X134714459Y-86263939D01*
X134703419Y-86267719D01*
X134660709Y-86280129D01*
X134652066Y-86285241D01*
X134643048Y-86290573D01*
X134625583Y-86299129D01*
X134606515Y-86306678D01*
X134606511Y-86306681D01*
X134570534Y-86332818D01*
X134560779Y-86339226D01*
X134522500Y-86361865D01*
X134507998Y-86376368D01*
X134493208Y-86389000D01*
X134476615Y-86401055D01*
X134476612Y-86401058D01*
X134448263Y-86435325D01*
X134440403Y-86443962D01*
X133641681Y-87242685D01*
X133580358Y-87276170D01*
X133510667Y-87271186D01*
X133454733Y-87229314D01*
X133430316Y-87163850D01*
X133430000Y-87155004D01*
X133430000Y-86864000D01*
X132513686Y-86864000D01*
X132539493Y-86823844D01*
X132580000Y-86685889D01*
X132580000Y-86542111D01*
X132539493Y-86404156D01*
X132513686Y-86364000D01*
X133430000Y-86364000D01*
X133430000Y-85800000D01*
X133449685Y-85732961D01*
X133502489Y-85687206D01*
X133554000Y-85676000D01*
X135186140Y-85676000D01*
X135253179Y-85695685D01*
G37*
G04 #@! TD.AperFunction*
G04 #@! TA.AperFunction,Conductor*
G36*
X131620507Y-86404156D02*
G01*
X131580000Y-86542111D01*
X131580000Y-86685889D01*
X131620507Y-86823844D01*
X131646314Y-86864000D01*
X129973686Y-86864000D01*
X129999493Y-86823844D01*
X130040000Y-86685889D01*
X130040000Y-86542111D01*
X129999493Y-86404156D01*
X129973686Y-86364000D01*
X131646314Y-86364000D01*
X131620507Y-86404156D01*
G37*
G04 #@! TD.AperFunction*
G04 #@! TA.AperFunction,Conductor*
G36*
X97059023Y-62592285D02*
G01*
X97063527Y-62597442D01*
X98011058Y-62851331D01*
X97925435Y-62936955D01*
X97867911Y-63049852D01*
X97848090Y-63175000D01*
X97867911Y-63300148D01*
X97885888Y-63335431D01*
X96955874Y-63086234D01*
X96948110Y-63174997D01*
X96948110Y-63175002D01*
X96967934Y-63401599D01*
X96967936Y-63401610D01*
X97026806Y-63621317D01*
X97026810Y-63621326D01*
X97122941Y-63827482D01*
X97253418Y-64013820D01*
X97414255Y-64174657D01*
X97600595Y-64305135D01*
X97681347Y-64342790D01*
X97929406Y-63417016D01*
X98015031Y-63502641D01*
X98127928Y-63560165D01*
X98221595Y-63575000D01*
X98284557Y-63575000D01*
X98378224Y-63560165D01*
X98413506Y-63542187D01*
X98164310Y-64472200D01*
X98253074Y-64479966D01*
X98253078Y-64479966D01*
X98479675Y-64460141D01*
X98479686Y-64460139D01*
X98699393Y-64401269D01*
X98699402Y-64401265D01*
X98905558Y-64305134D01*
X99091896Y-64174657D01*
X99252733Y-64013820D01*
X99383210Y-63827482D01*
X99420866Y-63746727D01*
X98495094Y-63498667D01*
X98580717Y-63413045D01*
X98638241Y-63300148D01*
X98658062Y-63175000D01*
X98638241Y-63049852D01*
X98620262Y-63014567D01*
X99550276Y-63263764D01*
X99558042Y-63175002D01*
X99558042Y-63174997D01*
X99538217Y-62948400D01*
X99538216Y-62948392D01*
X99479348Y-62728694D01*
X99481011Y-62658844D01*
X99520173Y-62600981D01*
X99584402Y-62573477D01*
X99599123Y-62572600D01*
X116027335Y-62572600D01*
X116094374Y-62592285D01*
X116140129Y-62645089D01*
X116140891Y-62646789D01*
X116161016Y-62692670D01*
X116288686Y-62888084D01*
X116444308Y-63057133D01*
X116446780Y-63059818D01*
X116630983Y-63203190D01*
X116630985Y-63203191D01*
X116630988Y-63203193D01*
X116673871Y-63226400D01*
X116836273Y-63314287D01*
X116945474Y-63351776D01*
X117057045Y-63390079D01*
X117057047Y-63390079D01*
X117057049Y-63390080D01*
X117287288Y-63428500D01*
X117287289Y-63428500D01*
X117520711Y-63428500D01*
X117520712Y-63428500D01*
X117750951Y-63390080D01*
X117971727Y-63314287D01*
X118177017Y-63203190D01*
X118361220Y-63059818D01*
X118361231Y-63059805D01*
X118364990Y-63056347D01*
X118365714Y-63057133D01*
X118421067Y-63023861D01*
X118490905Y-63025954D01*
X118548525Y-63065472D01*
X118568602Y-63100495D01*
X118593111Y-63166205D01*
X118634763Y-63221844D01*
X118680739Y-63283261D01*
X118797796Y-63370889D01*
X118934799Y-63421989D01*
X118962050Y-63424918D01*
X118995345Y-63428499D01*
X118995362Y-63428500D01*
X120892638Y-63428500D01*
X120892654Y-63428499D01*
X120919692Y-63425591D01*
X120953201Y-63421989D01*
X121090204Y-63370889D01*
X121207261Y-63283261D01*
X121294889Y-63166204D01*
X121345989Y-63029201D01*
X121349591Y-62995692D01*
X121352499Y-62968654D01*
X121352500Y-62968637D01*
X121352500Y-62779500D01*
X121372185Y-62712461D01*
X121424989Y-62666706D01*
X121476500Y-62655500D01*
X142668706Y-62655500D01*
X142735745Y-62675185D01*
X142756387Y-62691819D01*
X144988405Y-64923838D01*
X145021890Y-64985161D01*
X145016906Y-65054853D01*
X144975034Y-65110786D01*
X144940988Y-65128800D01*
X144880226Y-65149660D01*
X144880215Y-65149665D01*
X144674937Y-65260755D01*
X144674934Y-65260757D01*
X144490730Y-65404130D01*
X144490725Y-65404134D01*
X144332635Y-65575864D01*
X144204964Y-65771280D01*
X144111200Y-65985041D01*
X144053897Y-66211326D01*
X144034622Y-66443943D01*
X144034622Y-66443954D01*
X144053897Y-66676571D01*
X144111200Y-66902856D01*
X144204964Y-67116617D01*
X144332635Y-67312033D01*
X144490725Y-67483763D01*
X144490729Y-67483767D01*
X144674932Y-67627139D01*
X144674934Y-67627140D01*
X144674937Y-67627142D01*
X144794280Y-67691726D01*
X144880222Y-67738236D01*
X144994863Y-67777592D01*
X145100994Y-67814028D01*
X145100996Y-67814028D01*
X145100998Y-67814029D01*
X145331237Y-67852449D01*
X145331238Y-67852449D01*
X145396231Y-67852449D01*
X145463270Y-67872134D01*
X145509025Y-67924938D01*
X145518969Y-67994096D01*
X145509026Y-68027960D01*
X145478289Y-68095265D01*
X145478288Y-68095267D01*
X145457479Y-68240000D01*
X145478288Y-68384732D01*
X145478289Y-68384734D01*
X145539031Y-68517743D01*
X145577252Y-68565172D01*
X146918828Y-69906748D01*
X146966257Y-69944969D01*
X147099266Y-70005711D01*
X147244000Y-70026521D01*
X147388734Y-70005711D01*
X147521743Y-69944969D01*
X147569172Y-69906748D01*
X148910748Y-68565172D01*
X148948969Y-68517743D01*
X149009711Y-68384734D01*
X149030521Y-68240000D01*
X149009711Y-68095266D01*
X148948969Y-67962257D01*
X148910748Y-67914828D01*
X147915819Y-66919899D01*
X147882334Y-66858576D01*
X147879500Y-66832218D01*
X147879500Y-66364551D01*
X147881242Y-66348769D01*
X147880975Y-66348744D01*
X147881707Y-66340988D01*
X147881709Y-66340981D01*
X147879561Y-66272636D01*
X147879500Y-66268741D01*
X147879500Y-66240721D01*
X147879500Y-66240717D01*
X147878977Y-66236586D01*
X147878061Y-66224940D01*
X147878021Y-66223655D01*
X147876665Y-66180495D01*
X147870941Y-66160793D01*
X147866997Y-66141747D01*
X147864530Y-66122215D01*
X147875661Y-66053238D01*
X147922317Y-66001228D01*
X147989685Y-65982699D01*
X148056376Y-66003534D01*
X148077808Y-66021651D01*
X148417743Y-66382500D01*
X148854811Y-66846457D01*
X148857389Y-66849281D01*
X149685030Y-67783979D01*
X149687520Y-67786879D01*
X149944064Y-68095266D01*
X150485950Y-68746656D01*
X150488344Y-68749626D01*
X150850348Y-69213141D01*
X151256812Y-69733583D01*
X151259119Y-69736633D01*
X151996861Y-70743789D01*
X151999073Y-70746908D01*
X152705434Y-71776368D01*
X152707548Y-71779555D01*
X153381800Y-72830260D01*
X153383816Y-72833509D01*
X154025380Y-73904554D01*
X154027294Y-73907865D01*
X154635502Y-74998137D01*
X154637313Y-75001504D01*
X155211620Y-76110025D01*
X155213327Y-76113447D01*
X155453465Y-76614183D01*
X155464704Y-76683143D01*
X155436878Y-76747232D01*
X155378819Y-76786103D01*
X155308962Y-76787415D01*
X155253976Y-76755484D01*
X155142581Y-76644089D01*
X154988317Y-76547158D01*
X154988316Y-76547157D01*
X154988315Y-76547157D01*
X154933476Y-76527968D01*
X154816346Y-76486982D01*
X154816341Y-76486981D01*
X154635304Y-76466584D01*
X154635296Y-76466584D01*
X154454258Y-76486981D01*
X154454253Y-76486982D01*
X154282280Y-76547158D01*
X154282277Y-76547160D01*
X154157295Y-76625693D01*
X154091323Y-76644700D01*
X152819195Y-76644700D01*
X152752156Y-76625015D01*
X152706401Y-76572211D01*
X152695619Y-76530940D01*
X152685066Y-76403583D01*
X152685064Y-76403572D01*
X152648382Y-76258718D01*
X152629797Y-76185328D01*
X152539361Y-75979153D01*
X152534447Y-75971632D01*
X152477792Y-75884914D01*
X152416223Y-75790676D01*
X152416220Y-75790673D01*
X152416216Y-75790667D01*
X152263744Y-75625041D01*
X152263739Y-75625036D01*
X152086078Y-75486756D01*
X152086073Y-75486752D01*
X151888081Y-75379605D01*
X151888078Y-75379603D01*
X151888075Y-75379602D01*
X151888072Y-75379601D01*
X151888070Y-75379600D01*
X151675138Y-75306500D01*
X151511878Y-75279257D01*
X151478226Y-75273641D01*
X151415341Y-75243192D01*
X151378902Y-75183577D01*
X151380477Y-75113725D01*
X151394825Y-75083515D01*
X151465910Y-74974713D01*
X151556346Y-74768538D01*
X151611614Y-74550290D01*
X151611615Y-74550281D01*
X151630206Y-74325927D01*
X151630206Y-74325916D01*
X151611615Y-74101562D01*
X151611613Y-74101550D01*
X151565623Y-73919939D01*
X151556346Y-73883306D01*
X151465910Y-73677131D01*
X151461718Y-73670715D01*
X151375886Y-73539339D01*
X151342772Y-73488654D01*
X151342769Y-73488651D01*
X151342765Y-73488645D01*
X151190293Y-73323019D01*
X151190288Y-73323014D01*
X151012627Y-73184734D01*
X151012622Y-73184730D01*
X150814630Y-73077583D01*
X150814627Y-73077581D01*
X150814624Y-73077580D01*
X150814621Y-73077579D01*
X150814619Y-73077578D01*
X150694124Y-73036212D01*
X150637109Y-72995826D01*
X150610978Y-72931027D01*
X150624030Y-72862387D01*
X150646011Y-72831950D01*
X150736878Y-72739630D01*
X150805934Y-72610742D01*
X150835882Y-72467619D01*
X150824294Y-72321856D01*
X150804600Y-72264216D01*
X150804597Y-72264209D01*
X150045038Y-70635329D01*
X150013542Y-70583193D01*
X149909328Y-70480620D01*
X149909325Y-70480619D01*
X149780449Y-70411569D01*
X149780437Y-70411564D01*
X149637319Y-70381617D01*
X149491556Y-70393206D01*
X149433909Y-70412902D01*
X147805029Y-71172461D01*
X147752893Y-71203957D01*
X147650320Y-71308171D01*
X147650319Y-71308174D01*
X147581269Y-71437050D01*
X147581264Y-71437062D01*
X147551317Y-71580179D01*
X147559689Y-71685481D01*
X147562906Y-71725944D01*
X147575134Y-71761732D01*
X147582602Y-71783590D01*
X148342161Y-73412470D01*
X148373657Y-73464606D01*
X148385108Y-73475877D01*
X148419078Y-73536932D01*
X148414646Y-73606661D01*
X148373219Y-73662925D01*
X148309793Y-73687700D01*
X148287048Y-73689850D01*
X148275379Y-73690400D01*
X145285994Y-73690400D01*
X145218955Y-73670715D01*
X145198313Y-73654081D01*
X143511458Y-71967225D01*
X143501532Y-71954835D01*
X143501325Y-71955007D01*
X143496352Y-71948996D01*
X143446518Y-71902199D01*
X143443718Y-71899485D01*
X143423898Y-71879665D01*
X143423894Y-71879661D01*
X143420596Y-71877103D01*
X143411715Y-71869517D01*
X143379309Y-71839085D01*
X143379301Y-71839080D01*
X143361340Y-71829206D01*
X143345074Y-71818522D01*
X143328864Y-71805948D01*
X143288052Y-71788287D01*
X143277563Y-71783149D01*
X143238605Y-71761732D01*
X143238604Y-71761731D01*
X143238603Y-71761731D01*
X143218737Y-71756630D01*
X143200338Y-71750330D01*
X143181509Y-71742183D01*
X143181508Y-71742182D01*
X143137588Y-71735226D01*
X143126152Y-71732858D01*
X143083082Y-71721800D01*
X143062574Y-71721800D01*
X143043176Y-71720273D01*
X143032569Y-71718593D01*
X143022922Y-71717065D01*
X143022921Y-71717064D01*
X142978648Y-71721250D01*
X142966979Y-71721800D01*
X139062895Y-71721800D01*
X138995856Y-71702115D01*
X138975214Y-71685481D01*
X138701058Y-71411325D01*
X138691132Y-71398935D01*
X138690925Y-71399107D01*
X138685952Y-71393096D01*
X138636118Y-71346299D01*
X138633318Y-71343585D01*
X138613498Y-71323765D01*
X138613494Y-71323761D01*
X138610196Y-71321203D01*
X138601315Y-71313617D01*
X138568909Y-71283185D01*
X138568901Y-71283180D01*
X138550940Y-71273306D01*
X138534674Y-71262622D01*
X138518464Y-71250048D01*
X138477652Y-71232387D01*
X138467163Y-71227249D01*
X138428205Y-71205832D01*
X138428204Y-71205831D01*
X138428203Y-71205831D01*
X138408337Y-71200730D01*
X138389938Y-71194430D01*
X138371109Y-71186283D01*
X138371108Y-71186282D01*
X138327188Y-71179326D01*
X138315752Y-71176958D01*
X138272682Y-71165900D01*
X138252174Y-71165900D01*
X138232776Y-71164373D01*
X138222169Y-71162693D01*
X138212522Y-71161165D01*
X138212521Y-71161164D01*
X138168248Y-71165350D01*
X138156579Y-71165900D01*
X125317247Y-71165900D01*
X125301467Y-71164158D01*
X125301442Y-71164426D01*
X125293681Y-71163692D01*
X125225356Y-71165839D01*
X125221461Y-71165900D01*
X125193413Y-71165900D01*
X125189266Y-71166423D01*
X125177646Y-71167337D01*
X125133199Y-71168734D01*
X125133194Y-71168735D01*
X125113493Y-71174458D01*
X125094454Y-71178400D01*
X125074111Y-71180971D01*
X125074103Y-71180972D01*
X125074101Y-71180973D01*
X125074099Y-71180973D01*
X125074093Y-71180975D01*
X125032759Y-71197339D01*
X125021719Y-71201119D01*
X124979009Y-71213529D01*
X124966510Y-71220921D01*
X124961348Y-71223973D01*
X124943883Y-71232529D01*
X124924815Y-71240078D01*
X124924814Y-71240079D01*
X124888833Y-71266220D01*
X124879075Y-71272630D01*
X124840798Y-71295268D01*
X124826302Y-71309764D01*
X124811512Y-71322396D01*
X124794916Y-71334454D01*
X124794913Y-71334457D01*
X124766559Y-71368730D01*
X124758698Y-71377368D01*
X124450586Y-71685481D01*
X124389263Y-71718966D01*
X124362905Y-71721800D01*
X100131952Y-71721800D01*
X100116169Y-71720057D01*
X100116144Y-71720325D01*
X100108382Y-71719591D01*
X100108381Y-71719591D01*
X100045892Y-71721555D01*
X100040038Y-71721739D01*
X100036143Y-71721800D01*
X100008117Y-71721800D01*
X100008113Y-71721800D01*
X100008101Y-71721801D01*
X100003976Y-71722322D01*
X99992347Y-71723237D01*
X99947899Y-71724634D01*
X99947894Y-71724635D01*
X99928193Y-71730358D01*
X99909154Y-71734300D01*
X99888811Y-71736871D01*
X99888805Y-71736872D01*
X99888801Y-71736873D01*
X99847454Y-71753242D01*
X99836417Y-71757021D01*
X99793706Y-71769431D01*
X99793704Y-71769432D01*
X99776052Y-71779871D01*
X99758591Y-71788425D01*
X99739517Y-71795978D01*
X99739514Y-71795979D01*
X99703536Y-71822118D01*
X99693777Y-71828528D01*
X99655501Y-71851164D01*
X99640998Y-71865668D01*
X99626208Y-71878300D01*
X99609615Y-71890355D01*
X99609612Y-71890358D01*
X99581263Y-71924625D01*
X99573403Y-71933262D01*
X96712986Y-74793681D01*
X96651663Y-74827166D01*
X96625305Y-74830000D01*
X94140094Y-74830000D01*
X94073055Y-74810315D01*
X94027300Y-74757511D01*
X94017356Y-74688353D01*
X94046381Y-74624797D01*
X94052413Y-74618319D01*
X95353530Y-73317202D01*
X99315740Y-69354990D01*
X99377061Y-69321507D01*
X99446753Y-69326491D01*
X99491100Y-69354992D01*
X99533819Y-69397711D01*
X99688085Y-69494643D01*
X99860053Y-69554817D01*
X99885907Y-69557730D01*
X99950319Y-69584795D01*
X99989876Y-69642389D01*
X99992015Y-69712226D01*
X99956058Y-69772133D01*
X99937997Y-69785943D01*
X99816021Y-69862587D01*
X99816018Y-69862589D01*
X99687189Y-69991418D01*
X99590258Y-70145682D01*
X99530082Y-70317653D01*
X99530081Y-70317658D01*
X99509684Y-70498696D01*
X99509684Y-70498703D01*
X99530081Y-70679741D01*
X99530082Y-70679746D01*
X99590258Y-70851717D01*
X99648362Y-70944189D01*
X99687189Y-71005981D01*
X99816019Y-71134811D01*
X99970285Y-71231743D01*
X100142253Y-71291917D01*
X100142258Y-71291918D01*
X100323296Y-71312316D01*
X100323300Y-71312316D01*
X100323304Y-71312316D01*
X100504341Y-71291918D01*
X100504344Y-71291917D01*
X100504347Y-71291917D01*
X100676315Y-71231743D01*
X100676317Y-71231741D01*
X100676319Y-71231741D01*
X100676322Y-71231739D01*
X100801305Y-71153207D01*
X100867277Y-71134200D01*
X115971453Y-71134200D01*
X115987232Y-71135941D01*
X115987258Y-71135674D01*
X115995011Y-71136406D01*
X115995019Y-71136408D01*
X116063344Y-71134261D01*
X116067239Y-71134200D01*
X116095277Y-71134200D01*
X116095283Y-71134200D01*
X116099422Y-71133676D01*
X116111053Y-71132761D01*
X116155505Y-71131365D01*
X116175206Y-71125640D01*
X116194251Y-71121697D01*
X116214599Y-71119127D01*
X116255959Y-71102751D01*
X116266960Y-71098983D01*
X116309693Y-71086569D01*
X116327354Y-71076123D01*
X116344812Y-71067571D01*
X116363888Y-71060019D01*
X116399868Y-71033877D01*
X116409615Y-71027474D01*
X116447898Y-71004834D01*
X116462394Y-70990337D01*
X116477192Y-70977698D01*
X116493787Y-70965642D01*
X116522145Y-70931362D01*
X116529988Y-70922742D01*
X120757913Y-66694818D01*
X120819236Y-66661333D01*
X120845594Y-66658499D01*
X122006031Y-66658499D01*
X122006036Y-66658499D01*
X122109701Y-66647909D01*
X122277658Y-66592255D01*
X122428252Y-66499366D01*
X122553366Y-66374252D01*
X122646255Y-66223658D01*
X122701909Y-66055701D01*
X122712500Y-65952037D01*
X122712500Y-65298654D01*
X129315500Y-65298654D01*
X129322011Y-65359202D01*
X129322011Y-65359204D01*
X129362074Y-65466614D01*
X129373111Y-65496204D01*
X129460739Y-65613261D01*
X129577796Y-65700889D01*
X129714799Y-65751989D01*
X129742050Y-65754918D01*
X129775345Y-65758499D01*
X129775362Y-65758500D01*
X131572638Y-65758500D01*
X131572654Y-65758499D01*
X131599692Y-65755591D01*
X131633201Y-65751989D01*
X131770204Y-65700889D01*
X131887261Y-65613261D01*
X131974889Y-65496204D01*
X132020138Y-65374887D01*
X132062009Y-65318956D01*
X132127474Y-65294539D01*
X132195746Y-65309391D01*
X132227545Y-65334236D01*
X132290760Y-65402906D01*
X132468424Y-65541189D01*
X132468425Y-65541189D01*
X132468427Y-65541191D01*
X132546791Y-65583599D01*
X132666426Y-65648342D01*
X132879365Y-65721444D01*
X133101431Y-65758500D01*
X133326569Y-65758500D01*
X133548635Y-65721444D01*
X133761574Y-65648342D01*
X133959576Y-65541189D01*
X134137240Y-65402906D01*
X134258594Y-65271082D01*
X134289715Y-65237276D01*
X134289715Y-65237275D01*
X134289722Y-65237268D01*
X134380193Y-65098790D01*
X134433338Y-65053437D01*
X134502569Y-65044013D01*
X134565905Y-65073515D01*
X134587804Y-65098787D01*
X134678278Y-65237268D01*
X134678283Y-65237273D01*
X134678284Y-65237276D01*
X134830756Y-65402902D01*
X134830761Y-65402907D01*
X134875983Y-65438105D01*
X135008424Y-65541189D01*
X135008425Y-65541189D01*
X135008427Y-65541191D01*
X135086791Y-65583599D01*
X135206426Y-65648342D01*
X135419365Y-65721444D01*
X135641431Y-65758500D01*
X135866569Y-65758500D01*
X136088635Y-65721444D01*
X136301574Y-65648342D01*
X136499576Y-65541189D01*
X136677240Y-65402906D01*
X136798594Y-65271082D01*
X136829715Y-65237276D01*
X136829715Y-65237275D01*
X136829722Y-65237268D01*
X136923749Y-65093347D01*
X136976894Y-65047994D01*
X137046125Y-65038570D01*
X137109461Y-65068072D01*
X137129130Y-65090048D01*
X137255890Y-65271078D01*
X137422917Y-65438105D01*
X137616421Y-65573600D01*
X137830507Y-65673429D01*
X137830516Y-65673433D01*
X138044000Y-65730634D01*
X138044000Y-64835501D01*
X138151685Y-64884680D01*
X138258237Y-64900000D01*
X138329763Y-64900000D01*
X138436315Y-64884680D01*
X138544000Y-64835501D01*
X138544000Y-65730633D01*
X138757483Y-65673433D01*
X138757492Y-65673429D01*
X138971578Y-65573600D01*
X139165082Y-65438105D01*
X139332105Y-65271082D01*
X139467600Y-65077578D01*
X139567429Y-64863492D01*
X139567432Y-64863486D01*
X139624636Y-64650000D01*
X138727686Y-64650000D01*
X138753493Y-64609844D01*
X138794000Y-64471889D01*
X138794000Y-64328111D01*
X138753493Y-64190156D01*
X138727686Y-64150000D01*
X139624636Y-64150000D01*
X139624635Y-64149999D01*
X139567432Y-63936513D01*
X139567429Y-63936507D01*
X139467600Y-63722422D01*
X139467599Y-63722420D01*
X139332113Y-63528926D01*
X139332108Y-63528920D01*
X139165082Y-63361894D01*
X138971578Y-63226399D01*
X138757492Y-63126570D01*
X138757486Y-63126567D01*
X138544000Y-63069364D01*
X138544000Y-63964498D01*
X138436315Y-63915320D01*
X138329763Y-63900000D01*
X138258237Y-63900000D01*
X138151685Y-63915320D01*
X138044000Y-63964498D01*
X138044000Y-63069364D01*
X138043999Y-63069364D01*
X137830513Y-63126567D01*
X137830507Y-63126570D01*
X137616422Y-63226399D01*
X137616420Y-63226400D01*
X137422926Y-63361886D01*
X137422920Y-63361891D01*
X137255891Y-63528920D01*
X137255890Y-63528922D01*
X137129131Y-63709952D01*
X137074554Y-63753577D01*
X137005055Y-63760769D01*
X136942701Y-63729247D01*
X136923752Y-63706656D01*
X136829722Y-63562732D01*
X136829715Y-63562725D01*
X136829715Y-63562723D01*
X136677243Y-63397097D01*
X136677238Y-63397092D01*
X136530988Y-63283260D01*
X136499576Y-63258811D01*
X136499575Y-63258810D01*
X136499572Y-63258808D01*
X136301580Y-63151661D01*
X136301577Y-63151659D01*
X136301574Y-63151658D01*
X136301571Y-63151657D01*
X136301569Y-63151656D01*
X136088637Y-63078556D01*
X135866569Y-63041500D01*
X135641431Y-63041500D01*
X135419362Y-63078556D01*
X135206430Y-63151656D01*
X135206419Y-63151661D01*
X135008427Y-63258808D01*
X135008422Y-63258812D01*
X134830761Y-63397092D01*
X134830756Y-63397097D01*
X134678284Y-63562723D01*
X134678276Y-63562734D01*
X134587808Y-63701206D01*
X134534662Y-63746562D01*
X134465431Y-63755986D01*
X134402095Y-63726484D01*
X134380192Y-63701206D01*
X134289723Y-63562734D01*
X134289715Y-63562723D01*
X134137243Y-63397097D01*
X134137238Y-63397092D01*
X133990988Y-63283260D01*
X133959576Y-63258811D01*
X133959575Y-63258810D01*
X133959572Y-63258808D01*
X133761580Y-63151661D01*
X133761577Y-63151659D01*
X133761574Y-63151658D01*
X133761571Y-63151657D01*
X133761569Y-63151656D01*
X133548637Y-63078556D01*
X133326569Y-63041500D01*
X133101431Y-63041500D01*
X132879362Y-63078556D01*
X132666430Y-63151656D01*
X132666419Y-63151661D01*
X132468427Y-63258808D01*
X132468422Y-63258812D01*
X132290761Y-63397092D01*
X132227548Y-63465760D01*
X132167661Y-63501750D01*
X132097823Y-63499649D01*
X132040207Y-63460124D01*
X132020138Y-63425110D01*
X131974889Y-63303796D01*
X131972158Y-63300148D01*
X131887261Y-63186739D01*
X131770204Y-63099111D01*
X131735680Y-63086234D01*
X131633203Y-63048011D01*
X131572654Y-63041500D01*
X131572638Y-63041500D01*
X129775362Y-63041500D01*
X129775345Y-63041500D01*
X129714797Y-63048011D01*
X129714795Y-63048011D01*
X129577795Y-63099111D01*
X129460739Y-63186739D01*
X129373111Y-63303795D01*
X129322011Y-63440795D01*
X129322011Y-63440797D01*
X129315500Y-63501345D01*
X129315500Y-65298654D01*
X122712500Y-65298654D01*
X122712499Y-64547964D01*
X122701909Y-64444299D01*
X122688414Y-64403573D01*
X122646256Y-64276344D01*
X122646255Y-64276342D01*
X122585539Y-64177908D01*
X122553366Y-64125748D01*
X122553365Y-64125747D01*
X122553364Y-64125745D01*
X122428254Y-64000635D01*
X122277657Y-63907744D01*
X122277655Y-63907743D01*
X122109703Y-63852091D01*
X122006037Y-63841500D01*
X120601969Y-63841500D01*
X120601954Y-63841501D01*
X120498296Y-63852091D01*
X120330344Y-63907743D01*
X120330342Y-63907744D01*
X120179745Y-64000635D01*
X120054635Y-64125745D01*
X119961744Y-64276342D01*
X119961743Y-64276344D01*
X119906829Y-64442070D01*
X119876804Y-64490748D01*
X119208449Y-65159102D01*
X119207673Y-65148735D01*
X119158113Y-65022459D01*
X119073535Y-64916401D01*
X118961453Y-64839984D01*
X118853699Y-64806746D01*
X119562797Y-64097647D01*
X119562797Y-64097645D01*
X119532360Y-64073955D01*
X119532354Y-64073951D01*
X119328302Y-63963523D01*
X119328293Y-63963520D01*
X119108860Y-63888188D01*
X118880007Y-63850000D01*
X118647993Y-63850000D01*
X118419139Y-63888188D01*
X118199706Y-63963520D01*
X118199697Y-63963523D01*
X117995650Y-64073949D01*
X117965200Y-64097647D01*
X118675769Y-64808215D01*
X118629862Y-64815135D01*
X118507643Y-64873993D01*
X118408202Y-64966260D01*
X118340375Y-65083740D01*
X118322500Y-65162054D01*
X117612811Y-64452365D01*
X117602884Y-64467560D01*
X117549737Y-64512917D01*
X117480506Y-64522340D01*
X117417171Y-64492837D01*
X117395267Y-64467559D01*
X117339313Y-64381915D01*
X117181223Y-64210185D01*
X117181222Y-64210184D01*
X117181220Y-64210182D01*
X116997017Y-64066810D01*
X116997015Y-64066809D01*
X116997014Y-64066808D01*
X116997011Y-64066806D01*
X116791733Y-63955716D01*
X116791730Y-63955715D01*
X116791727Y-63955713D01*
X116791721Y-63955711D01*
X116791719Y-63955710D01*
X116570954Y-63879920D01*
X116391650Y-63850000D01*
X116340712Y-63841500D01*
X116107288Y-63841500D01*
X116061240Y-63849184D01*
X115877045Y-63879920D01*
X115656280Y-63955710D01*
X115656266Y-63955716D01*
X115450988Y-64066806D01*
X115450985Y-64066808D01*
X115266781Y-64210181D01*
X115266776Y-64210185D01*
X115108686Y-64381915D01*
X114981015Y-64577331D01*
X114887251Y-64791092D01*
X114829948Y-65017377D01*
X114810673Y-65249994D01*
X114810673Y-65250005D01*
X114829948Y-65482622D01*
X114865733Y-65623936D01*
X114863107Y-65693757D01*
X114833208Y-65742057D01*
X112485486Y-68089781D01*
X112424163Y-68123266D01*
X112397805Y-68126100D01*
X104127994Y-68126100D01*
X104060955Y-68106415D01*
X104015200Y-68053611D01*
X104005256Y-67984453D01*
X104034281Y-67920897D01*
X104040313Y-67914419D01*
X105577264Y-66377467D01*
X105638587Y-66343982D01*
X105692256Y-66344892D01*
X105692305Y-66344600D01*
X105694263Y-66344926D01*
X105695398Y-66344946D01*
X105697365Y-66345444D01*
X105919431Y-66382500D01*
X106144569Y-66382500D01*
X106366635Y-66345444D01*
X106579574Y-66272342D01*
X106777576Y-66165189D01*
X106955240Y-66026906D01*
X107071570Y-65900539D01*
X107107715Y-65861276D01*
X107107716Y-65861274D01*
X107107722Y-65861268D01*
X107230860Y-65672791D01*
X107321296Y-65466616D01*
X107376564Y-65248368D01*
X107377483Y-65237276D01*
X107395156Y-65024005D01*
X107395156Y-65023994D01*
X107376565Y-64799640D01*
X107376563Y-64799628D01*
X107338672Y-64650000D01*
X107321296Y-64581384D01*
X107230860Y-64375209D01*
X107200089Y-64328111D01*
X107133214Y-64225750D01*
X107107722Y-64186732D01*
X107107719Y-64186729D01*
X107107715Y-64186723D01*
X106955243Y-64021097D01*
X106955238Y-64021092D01*
X106809611Y-63907745D01*
X106777576Y-63882811D01*
X106777575Y-63882810D01*
X106777572Y-63882808D01*
X106579580Y-63775661D01*
X106579577Y-63775659D01*
X106579574Y-63775658D01*
X106579571Y-63775657D01*
X106579569Y-63775656D01*
X106366637Y-63702556D01*
X106144569Y-63665500D01*
X105919431Y-63665500D01*
X105697362Y-63702556D01*
X105484430Y-63775656D01*
X105484419Y-63775661D01*
X105286427Y-63882808D01*
X105286422Y-63882812D01*
X105108761Y-64021092D01*
X105045548Y-64089760D01*
X104985661Y-64125750D01*
X104915823Y-64123649D01*
X104858207Y-64084124D01*
X104838138Y-64049110D01*
X104792889Y-63927796D01*
X104792888Y-63927795D01*
X104705261Y-63810739D01*
X104588204Y-63723111D01*
X104544071Y-63706650D01*
X104451203Y-63672011D01*
X104390654Y-63665500D01*
X104390638Y-63665500D01*
X102593362Y-63665500D01*
X102593345Y-63665500D01*
X102532797Y-63672011D01*
X102532795Y-63672011D01*
X102395795Y-63723111D01*
X102278739Y-63810739D01*
X102191111Y-63927795D01*
X102140011Y-64064795D01*
X102140011Y-64064797D01*
X102133500Y-64125345D01*
X102133500Y-64262625D01*
X102113815Y-64329664D01*
X102061011Y-64375419D01*
X102013395Y-64386564D01*
X101953738Y-64388439D01*
X101949843Y-64388500D01*
X101921817Y-64388500D01*
X101921813Y-64388500D01*
X101921801Y-64388501D01*
X101917676Y-64389022D01*
X101906047Y-64389937D01*
X101861599Y-64391334D01*
X101861594Y-64391335D01*
X101841893Y-64397058D01*
X101822854Y-64401000D01*
X101802511Y-64403571D01*
X101802503Y-64403572D01*
X101802501Y-64403573D01*
X101802499Y-64403573D01*
X101802493Y-64403575D01*
X101761159Y-64419939D01*
X101750119Y-64423719D01*
X101707409Y-64436129D01*
X101697364Y-64442070D01*
X101689748Y-64446573D01*
X101672283Y-64455129D01*
X101653215Y-64462678D01*
X101653214Y-64462679D01*
X101617233Y-64488820D01*
X101607475Y-64495230D01*
X101569198Y-64517868D01*
X101554702Y-64532364D01*
X101539912Y-64544996D01*
X101523317Y-64557053D01*
X101523315Y-64557055D01*
X101494958Y-64591331D01*
X101487098Y-64599968D01*
X96522686Y-69564381D01*
X96461363Y-69597866D01*
X96435005Y-69600700D01*
X90999562Y-69600700D01*
X90932523Y-69581015D01*
X90886768Y-69528211D01*
X90876824Y-69459053D01*
X90905849Y-69395497D01*
X90959299Y-69359419D01*
X90993121Y-69347807D01*
X91061776Y-69324238D01*
X91267066Y-69213141D01*
X91451269Y-69069769D01*
X91609363Y-68898034D01*
X91737033Y-68702620D01*
X91830798Y-68488858D01*
X91888100Y-68262577D01*
X91903904Y-68071853D01*
X91929057Y-68006668D01*
X91985459Y-67965430D01*
X92055202Y-67961232D01*
X92078986Y-67969297D01*
X92112174Y-67984453D01*
X92145363Y-67999610D01*
X92145364Y-67999610D01*
X92145366Y-67999611D01*
X92290100Y-68020421D01*
X92434834Y-67999611D01*
X92567843Y-67938869D01*
X92615272Y-67900648D01*
X93956848Y-66559072D01*
X93995069Y-66511643D01*
X94055811Y-66378634D01*
X94055811Y-66378627D01*
X94058309Y-66370126D01*
X94059609Y-66370507D01*
X94084788Y-66315360D01*
X94143563Y-66277580D01*
X94213432Y-66277574D01*
X94272214Y-66315342D01*
X94295550Y-66355598D01*
X94316656Y-66415913D01*
X94316656Y-66415915D01*
X94397316Y-66544283D01*
X94413589Y-66570181D01*
X94542419Y-66699011D01*
X94696685Y-66795943D01*
X94845010Y-66847844D01*
X94868653Y-66856117D01*
X94868658Y-66856118D01*
X95049696Y-66876516D01*
X95049700Y-66876516D01*
X95049704Y-66876516D01*
X95230741Y-66856118D01*
X95230744Y-66856117D01*
X95230747Y-66856117D01*
X95402715Y-66795943D01*
X95556981Y-66699011D01*
X95685811Y-66570181D01*
X95782743Y-66415915D01*
X95842917Y-66243947D01*
X95847650Y-66201938D01*
X95874715Y-66137526D01*
X95883179Y-66128151D01*
X96045072Y-65966258D01*
X96057459Y-65956336D01*
X96057288Y-65956129D01*
X96063301Y-65951154D01*
X96063300Y-65951154D01*
X96063303Y-65951153D01*
X96085007Y-65928038D01*
X96122997Y-65900539D01*
X96195567Y-65866699D01*
X96311749Y-65812523D01*
X96499300Y-65681198D01*
X96661198Y-65519300D01*
X96792523Y-65331749D01*
X96889284Y-65124243D01*
X96948543Y-64903087D01*
X96968498Y-64675000D01*
X96948543Y-64446913D01*
X96889284Y-64225757D01*
X96882021Y-64210182D01*
X96818495Y-64073949D01*
X96792523Y-64018251D01*
X96661198Y-63830700D01*
X96499300Y-63668802D01*
X96311749Y-63537477D01*
X96311745Y-63537475D01*
X96104249Y-63440718D01*
X96104238Y-63440714D01*
X95883089Y-63381457D01*
X95883081Y-63381456D01*
X95655002Y-63361502D01*
X95654998Y-63361502D01*
X95426918Y-63381456D01*
X95426910Y-63381457D01*
X95205761Y-63440714D01*
X95205750Y-63440718D01*
X94998254Y-63537475D01*
X94998252Y-63537476D01*
X94998251Y-63537477D01*
X94810700Y-63668802D01*
X94810698Y-63668803D01*
X94810695Y-63668806D01*
X94648806Y-63830695D01*
X94648803Y-63830698D01*
X94648802Y-63830700D01*
X94555798Y-63963523D01*
X94517478Y-64018250D01*
X94517475Y-64018254D01*
X94420718Y-64225750D01*
X94420714Y-64225761D01*
X94361457Y-64446910D01*
X94361456Y-64446918D01*
X94341502Y-64674998D01*
X94341502Y-64675001D01*
X94361456Y-64903081D01*
X94361457Y-64903089D01*
X94420714Y-65124238D01*
X94420718Y-65124249D01*
X94518938Y-65334884D01*
X94529430Y-65403961D01*
X94500910Y-65467745D01*
X94494238Y-65474968D01*
X94413590Y-65555617D01*
X94413589Y-65555618D01*
X94316658Y-65709882D01*
X94256482Y-65881853D01*
X94256481Y-65881857D01*
X94248141Y-65955882D01*
X94221074Y-66020296D01*
X94163479Y-66059851D01*
X94093642Y-66061988D01*
X94033736Y-66026029D01*
X94012128Y-65993512D01*
X93995069Y-65956157D01*
X93959735Y-65912310D01*
X93956849Y-65908729D01*
X92864607Y-64816487D01*
X92831122Y-64755164D01*
X92836106Y-64685472D01*
X92864607Y-64641125D01*
X94896813Y-62608919D01*
X94958136Y-62575434D01*
X94984494Y-62572600D01*
X96991984Y-62572600D01*
X97059023Y-62592285D01*
G37*
G04 #@! TD.AperFunction*
G04 #@! TA.AperFunction,Conductor*
G36*
X103144507Y-73438156D02*
G01*
X103104000Y-73576111D01*
X103104000Y-73719889D01*
X103144507Y-73857844D01*
X103170314Y-73898000D01*
X101497686Y-73898000D01*
X101523493Y-73857844D01*
X101564000Y-73719889D01*
X101564000Y-73576111D01*
X101523493Y-73438156D01*
X101497686Y-73398000D01*
X103170314Y-73398000D01*
X103144507Y-73438156D01*
G37*
G04 #@! TD.AperFunction*
G04 #@! TA.AperFunction,Conductor*
G36*
X105684507Y-73438156D02*
G01*
X105644000Y-73576111D01*
X105644000Y-73719889D01*
X105684507Y-73857844D01*
X105710314Y-73898000D01*
X104037686Y-73898000D01*
X104063493Y-73857844D01*
X104104000Y-73719889D01*
X104104000Y-73576111D01*
X104063493Y-73438156D01*
X104037686Y-73398000D01*
X105710314Y-73398000D01*
X105684507Y-73438156D01*
G37*
G04 #@! TD.AperFunction*
G04 #@! TA.AperFunction,Conductor*
G36*
X118320327Y-65351265D02*
G01*
X118369887Y-65477541D01*
X118454465Y-65583599D01*
X118566547Y-65660016D01*
X118674299Y-65693253D01*
X117965201Y-66402351D01*
X117995649Y-66426050D01*
X118199697Y-66536476D01*
X118199706Y-66536479D01*
X118419139Y-66611811D01*
X118647993Y-66650000D01*
X118705903Y-66650000D01*
X118772942Y-66669685D01*
X118818697Y-66722489D01*
X118828641Y-66791647D01*
X118799616Y-66855203D01*
X118793584Y-66861681D01*
X115828386Y-69826881D01*
X115767063Y-69860366D01*
X115740705Y-69863200D01*
X100867277Y-69863200D01*
X100801305Y-69844193D01*
X100676322Y-69765660D01*
X100676319Y-69765658D01*
X100504346Y-69705482D01*
X100504342Y-69705481D01*
X100478491Y-69702569D01*
X100414077Y-69675502D01*
X100374522Y-69617907D01*
X100372385Y-69548070D01*
X100408344Y-69488164D01*
X100426403Y-69474355D01*
X100450756Y-69459053D01*
X100519106Y-69416105D01*
X100585077Y-69397100D01*
X112628553Y-69397100D01*
X112644332Y-69398841D01*
X112644358Y-69398574D01*
X112652111Y-69399306D01*
X112652119Y-69399308D01*
X112720444Y-69397161D01*
X112724339Y-69397100D01*
X112752377Y-69397100D01*
X112752383Y-69397100D01*
X112756522Y-69396576D01*
X112768153Y-69395661D01*
X112812605Y-69394265D01*
X112832306Y-69388540D01*
X112851351Y-69384597D01*
X112871699Y-69382027D01*
X112913059Y-69365651D01*
X112924060Y-69361883D01*
X112966793Y-69349469D01*
X112984454Y-69339023D01*
X113001912Y-69330471D01*
X113020988Y-69322919D01*
X113056968Y-69296777D01*
X113066715Y-69290374D01*
X113104998Y-69267734D01*
X113119494Y-69253237D01*
X113134292Y-69240598D01*
X113150887Y-69228542D01*
X113179245Y-69194262D01*
X113187088Y-69185642D01*
X115729711Y-66643019D01*
X115791032Y-66609536D01*
X115857654Y-66613421D01*
X115877049Y-66620080D01*
X116107288Y-66658500D01*
X116340711Y-66658500D01*
X116340712Y-66658500D01*
X116570951Y-66620080D01*
X116791727Y-66544287D01*
X116997017Y-66433190D01*
X117181220Y-66289818D01*
X117339314Y-66118083D01*
X117358207Y-66089166D01*
X117380070Y-66055701D01*
X117395269Y-66032438D01*
X117448412Y-65987082D01*
X117517644Y-65977658D01*
X117580980Y-66007159D01*
X117602885Y-66032438D01*
X117612812Y-66047633D01*
X118319549Y-65340895D01*
X118320327Y-65351265D01*
G37*
G04 #@! TD.AperFunction*
M02*
