M48
; DRILL file {KiCad 7.0.11-7.0.11~ubuntu20.04.1} date Wed 27 Mar 2024 14:11:30 GMT
; FORMAT={-:-/ absolute / metric / decimal}
; #@! TF.CreationDate,2024-03-27T14:11:30+00:00
; #@! TF.GenerationSoftware,Kicad,Pcbnew,7.0.11-7.0.11~ubuntu20.04.1
; #@! TF.FileFunction,Plated,1,2,PTH
FMAT,2
METRIC
; #@! TA.AperFunction,Plated,PTH,ViaDrill
T1C0.300
; #@! TA.AperFunction,Plated,PTH,ComponentDrill
T2C0.700
; #@! TA.AperFunction,Plated,PTH,ComponentDrill
T3C0.800
; #@! TA.AperFunction,Plated,PTH,ComponentDrill
T4C0.900
; #@! TA.AperFunction,Plated,PTH,ComponentDrill
T5C1.000
; #@! TA.AperFunction,Plated,PTH,ComponentDrill
T6C1.100
%
G90
G05
T1
X100.054Y-115.75
X123.804Y-101.75
X132.054Y-82.75
X143.304Y-82.75
T2
X89.154Y-117.348
X96.774Y-117.348
X129.724Y-114.808
X129.764Y-117.348
X129.794Y-112.268
X137.344Y-114.808
X137.384Y-117.348
X137.414Y-112.268
T3
X86.407Y-97.862
X88.488Y-99.319
X88.819Y-107.508
X88.819Y-112.588
X90.568Y-100.776
X91.359Y-110.048
X92.649Y-102.233
X94.729Y-103.69
X95.148Y-85.378
X95.649Y-123.9
X95.655Y-64.675
X96.81Y-105.147
X97.229Y-86.835
X98.247Y-125.4
X98.253Y-63.175
X98.891Y-106.604
X99.309Y-88.292
X100.971Y-108.06
X101.39Y-89.749
X103.052Y-109.517
X103.471Y-91.206
X105.133Y-110.974
X105.551Y-92.663
X107.213Y-112.431
X107.632Y-94.12
X109.294Y-113.888
X109.713Y-95.577
X111.375Y-115.345
X111.793Y-97.033
X113.455Y-116.802
X113.874Y-98.49
X115.536Y-118.259
X115.955Y-99.947
X118.035Y-101.404
X120.116Y-102.861
X122.197Y-104.318
X124.277Y-105.775
X136.144Y-86.868
X136.144Y-89.408
X136.144Y-91.948
X136.144Y-94.488
X136.144Y-97.028
X136.144Y-99.568
X136.144Y-102.108
X143.764Y-86.868
X143.764Y-89.408
X143.764Y-91.948
X143.764Y-94.488
X143.764Y-97.028
X143.764Y-99.568
X143.764Y-102.108
X148.864Y-85.248
X148.864Y-88.248
T4
X88.714Y-86.398
X88.714Y-88.938
X89.944Y-91.658
X89.944Y-94.198
X89.944Y-96.738
X111.204Y-124.078
X113.744Y-124.078
X116.224Y-65.25
X116.374Y-123.173
X118.764Y-65.25
X118.914Y-123.173
X121.304Y-65.25
X121.454Y-123.173
X124.294Y-64.428
X126.834Y-64.428
X148.239Y-91.96
X148.239Y-94.5
X148.239Y-97.04
X149.004Y-99.448
X149.004Y-101.988
T5
X101.064Y-73.648
X101.064Y-76.188
X103.492Y-65.024
X103.594Y-81.788
X103.594Y-84.328
X103.604Y-73.648
X103.604Y-76.188
X106.032Y-65.024
X106.144Y-73.648
X106.144Y-76.188
X108.684Y-73.648
X108.684Y-76.188
X111.224Y-73.648
X111.224Y-76.188
X113.764Y-73.648
X113.764Y-76.188
X116.304Y-73.648
X116.304Y-76.188
X118.844Y-73.648
X118.844Y-76.188
X121.384Y-73.648
X121.384Y-76.188
X123.924Y-73.648
X123.924Y-76.188
X126.464Y-73.648
X126.464Y-76.188
X129.004Y-73.648
X129.004Y-76.188
X129.54Y-86.614
X129.54Y-89.154
X129.54Y-101.854
X130.674Y-64.4
X131.544Y-73.648
X131.544Y-76.188
X132.08Y-86.614
X132.08Y-89.154
X132.08Y-101.854
X133.214Y-64.4
X134.084Y-73.648
X134.084Y-76.188
X135.754Y-64.4
X136.624Y-73.648
X136.624Y-76.188
X138.294Y-64.4
X148.584Y-119.456
X148.634Y-68.694
X149.657Y-117.154
X149.707Y-70.996
X150.731Y-114.852
X150.781Y-73.298
X151.804Y-112.55
X151.854Y-75.6
T6
X84.754Y-75.458
X84.754Y-81.958
X89.254Y-75.458
X89.254Y-81.958
M30
