G04 #@! TF.GenerationSoftware,KiCad,Pcbnew,7.0.11+dfsg-1build4*
G04 #@! TF.CreationDate,2024-12-30T17:53:10+00:00*
G04 #@! TF.ProjectId,Swarm-B_20230626,53776172-6d2d-4425-9f32-303233303632,rev?*
G04 #@! TF.SameCoordinates,Original*
G04 #@! TF.FileFunction,Legend,Top*
G04 #@! TF.FilePolarity,Positive*
%FSLAX46Y46*%
G04 Gerber Fmt 4.6, Leading zero omitted, Abs format (unit mm)*
G04 Created by KiCad (PCBNEW 7.0.11+dfsg-1build4) date 2024-12-30 17:53:10*
%MOMM*%
%LPD*%
G01*
G04 APERTURE LIST*
G04 Aperture macros list*
%AMRoundRect*
0 Rectangle with rounded corners*
0 $1 Rounding radius*
0 $2 $3 $4 $5 $6 $7 $8 $9 X,Y pos of 4 corners*
0 Add a 4 corners polygon primitive as box body*
4,1,4,$2,$3,$4,$5,$6,$7,$8,$9,$2,$3,0*
0 Add four circle primitives for the rounded corners*
1,1,$1+$1,$2,$3*
1,1,$1+$1,$4,$5*
1,1,$1+$1,$6,$7*
1,1,$1+$1,$8,$9*
0 Add four rect primitives between the rounded corners*
20,1,$1+$1,$2,$3,$4,$5,0*
20,1,$1+$1,$4,$5,$6,$7,0*
20,1,$1+$1,$6,$7,$8,$9,0*
20,1,$1+$1,$8,$9,$2,$3,0*%
%AMHorizOval*
0 Thick line with rounded ends*
0 $1 width*
0 $2 $3 position (X,Y) of the first rounded end (center of the circle)*
0 $4 $5 position (X,Y) of the second rounded end (center of the circle)*
0 Add line between two ends*
20,1,$1,$2,$3,$4,$5,0*
0 Add two circle primitives to create the rounded ends*
1,1,$1,$2,$3*
1,1,$1,$4,$5*%
%AMRotRect*
0 Rectangle, with rotation*
0 The origin of the aperture is its center*
0 $1 length*
0 $2 width*
0 $3 Rotation angle, in degrees counterclockwise*
0 Add horizontal line*
21,1,$1,$2,0,0,$3*%
G04 Aperture macros list end*
%ADD10C,0.150000*%
%ADD11C,0.120000*%
%ADD12C,1.800000*%
%ADD13R,1.800000X1.800000*%
%ADD14RoundRect,0.248400X-0.651600X0.651600X-0.651600X-0.651600X0.651600X-0.651600X0.651600X0.651600X0*%
%ADD15O,1.700000X1.700000*%
%ADD16R,1.700000X1.700000*%
%ADD17C,1.600000*%
%ADD18O,1.400000X1.400000*%
%ADD19C,1.400000*%
%ADD20C,2.000000*%
%ADD21RotRect,1.800000X1.800000X315.000000*%
%ADD22RotRect,1.800000X1.800000X45.000000*%
%ADD23HorizOval,1.700000X0.000000X0.000000X0.000000X0.000000X0*%
%ADD24RotRect,1.700000X1.700000X25.000000*%
%ADD25RoundRect,0.248400X-0.651600X-0.651600X0.651600X-0.651600X0.651600X0.651600X-0.651600X0.651600X0*%
%ADD26HorizOval,1.700000X0.000000X0.000000X0.000000X0.000000X0*%
%ADD27RotRect,1.700000X1.700000X335.000000*%
%ADD28RoundRect,0.248400X0.651600X-0.651600X0.651600X0.651600X-0.651600X0.651600X-0.651600X-0.651600X0*%
%ADD29RoundRect,0.248400X0.651600X0.651600X-0.651600X0.651600X-0.651600X-0.651600X0.651600X-0.651600X0*%
%ADD30RotRect,1.800000X1.800000X225.000000*%
%ADD31RotRect,1.800000X1.800000X135.000000*%
%ADD32HorizOval,1.600000X0.000000X0.000000X0.000000X0.000000X0*%
%ADD33RotRect,1.600000X1.600000X235.000000*%
%ADD34O,1.600000X1.600000*%
%ADD35R,1.600000X1.600000*%
%ADD36C,1.440000*%
G04 APERTURE END LIST*
D10*
X102433160Y-60774295D02*
X102433160Y-59974295D01*
X102433160Y-59974295D02*
X102623636Y-59974295D01*
X102623636Y-59974295D02*
X102737922Y-60012390D01*
X102737922Y-60012390D02*
X102814112Y-60088580D01*
X102814112Y-60088580D02*
X102852207Y-60164771D01*
X102852207Y-60164771D02*
X102890303Y-60317152D01*
X102890303Y-60317152D02*
X102890303Y-60431438D01*
X102890303Y-60431438D02*
X102852207Y-60583819D01*
X102852207Y-60583819D02*
X102814112Y-60660009D01*
X102814112Y-60660009D02*
X102737922Y-60736200D01*
X102737922Y-60736200D02*
X102623636Y-60774295D01*
X102623636Y-60774295D02*
X102433160Y-60774295D01*
X103537922Y-60736200D02*
X103461731Y-60774295D01*
X103461731Y-60774295D02*
X103309350Y-60774295D01*
X103309350Y-60774295D02*
X103233160Y-60736200D01*
X103233160Y-60736200D02*
X103195064Y-60660009D01*
X103195064Y-60660009D02*
X103195064Y-60355247D01*
X103195064Y-60355247D02*
X103233160Y-60279057D01*
X103233160Y-60279057D02*
X103309350Y-60240961D01*
X103309350Y-60240961D02*
X103461731Y-60240961D01*
X103461731Y-60240961D02*
X103537922Y-60279057D01*
X103537922Y-60279057D02*
X103576017Y-60355247D01*
X103576017Y-60355247D02*
X103576017Y-60431438D01*
X103576017Y-60431438D02*
X103195064Y-60507628D01*
X104261731Y-60736200D02*
X104185540Y-60774295D01*
X104185540Y-60774295D02*
X104033159Y-60774295D01*
X104033159Y-60774295D02*
X103956969Y-60736200D01*
X103956969Y-60736200D02*
X103918874Y-60698104D01*
X103918874Y-60698104D02*
X103880778Y-60621914D01*
X103880778Y-60621914D02*
X103880778Y-60393342D01*
X103880778Y-60393342D02*
X103918874Y-60317152D01*
X103918874Y-60317152D02*
X103956969Y-60279057D01*
X103956969Y-60279057D02*
X104033159Y-60240961D01*
X104033159Y-60240961D02*
X104185540Y-60240961D01*
X104185540Y-60240961D02*
X104261731Y-60279057D01*
X105176016Y-60050485D02*
X105214112Y-60012390D01*
X105214112Y-60012390D02*
X105290302Y-59974295D01*
X105290302Y-59974295D02*
X105480778Y-59974295D01*
X105480778Y-59974295D02*
X105556969Y-60012390D01*
X105556969Y-60012390D02*
X105595064Y-60050485D01*
X105595064Y-60050485D02*
X105633159Y-60126676D01*
X105633159Y-60126676D02*
X105633159Y-60202866D01*
X105633159Y-60202866D02*
X105595064Y-60317152D01*
X105595064Y-60317152D02*
X105137921Y-60774295D01*
X105137921Y-60774295D02*
X105633159Y-60774295D01*
X106128398Y-59974295D02*
X106204588Y-59974295D01*
X106204588Y-59974295D02*
X106280779Y-60012390D01*
X106280779Y-60012390D02*
X106318874Y-60050485D01*
X106318874Y-60050485D02*
X106356969Y-60126676D01*
X106356969Y-60126676D02*
X106395064Y-60279057D01*
X106395064Y-60279057D02*
X106395064Y-60469533D01*
X106395064Y-60469533D02*
X106356969Y-60621914D01*
X106356969Y-60621914D02*
X106318874Y-60698104D01*
X106318874Y-60698104D02*
X106280779Y-60736200D01*
X106280779Y-60736200D02*
X106204588Y-60774295D01*
X106204588Y-60774295D02*
X106128398Y-60774295D01*
X106128398Y-60774295D02*
X106052207Y-60736200D01*
X106052207Y-60736200D02*
X106014112Y-60698104D01*
X106014112Y-60698104D02*
X105976017Y-60621914D01*
X105976017Y-60621914D02*
X105937921Y-60469533D01*
X105937921Y-60469533D02*
X105937921Y-60279057D01*
X105937921Y-60279057D02*
X105976017Y-60126676D01*
X105976017Y-60126676D02*
X106014112Y-60050485D01*
X106014112Y-60050485D02*
X106052207Y-60012390D01*
X106052207Y-60012390D02*
X106128398Y-59974295D01*
X106699826Y-60050485D02*
X106737922Y-60012390D01*
X106737922Y-60012390D02*
X106814112Y-59974295D01*
X106814112Y-59974295D02*
X107004588Y-59974295D01*
X107004588Y-59974295D02*
X107080779Y-60012390D01*
X107080779Y-60012390D02*
X107118874Y-60050485D01*
X107118874Y-60050485D02*
X107156969Y-60126676D01*
X107156969Y-60126676D02*
X107156969Y-60202866D01*
X107156969Y-60202866D02*
X107118874Y-60317152D01*
X107118874Y-60317152D02*
X106661731Y-60774295D01*
X106661731Y-60774295D02*
X107156969Y-60774295D01*
X107842684Y-60240961D02*
X107842684Y-60774295D01*
X107652208Y-59936200D02*
X107461731Y-60507628D01*
X107461731Y-60507628D02*
X107956970Y-60507628D01*
D11*
X91440000Y-67310000D02*
X91440000Y-121412000D01*
X146304000Y-67310000D02*
X146304000Y-121412000D01*
X91440000Y-121412000D02*
X146304000Y-67310000D01*
X96520000Y-67310000D02*
X96520000Y-121412000D01*
X118872000Y-67310000D02*
X118872000Y-121412000D01*
X91440000Y-116332000D02*
X146304000Y-116332000D01*
X91440000Y-67310000D02*
X146304000Y-67310000D01*
X91440000Y-121412000D02*
X146304000Y-121412000D01*
X91440000Y-67310000D02*
X146304000Y-121412000D01*
D10*
X106647809Y-128068152D02*
X106647809Y-128877676D01*
X106647809Y-128877676D02*
X106600190Y-128972914D01*
X106600190Y-128972914D02*
X106552571Y-129020533D01*
X106552571Y-129020533D02*
X106457333Y-129068152D01*
X106457333Y-129068152D02*
X106314476Y-129068152D01*
X106314476Y-129068152D02*
X106219238Y-129020533D01*
X106647809Y-128687200D02*
X106552571Y-128734819D01*
X106552571Y-128734819D02*
X106362095Y-128734819D01*
X106362095Y-128734819D02*
X106266857Y-128687200D01*
X106266857Y-128687200D02*
X106219238Y-128639580D01*
X106219238Y-128639580D02*
X106171619Y-128544342D01*
X106171619Y-128544342D02*
X106171619Y-128258628D01*
X106171619Y-128258628D02*
X106219238Y-128163390D01*
X106219238Y-128163390D02*
X106266857Y-128115771D01*
X106266857Y-128115771D02*
X106362095Y-128068152D01*
X106362095Y-128068152D02*
X106552571Y-128068152D01*
X106552571Y-128068152D02*
X106647809Y-128115771D01*
X107124000Y-128734819D02*
X107124000Y-128068152D01*
X107124000Y-127734819D02*
X107076381Y-127782438D01*
X107076381Y-127782438D02*
X107124000Y-127830057D01*
X107124000Y-127830057D02*
X107171619Y-127782438D01*
X107171619Y-127782438D02*
X107124000Y-127734819D01*
X107124000Y-127734819D02*
X107124000Y-127830057D01*
X107457333Y-128068152D02*
X107838285Y-128068152D01*
X107600190Y-127734819D02*
X107600190Y-128591961D01*
X107600190Y-128591961D02*
X107647809Y-128687200D01*
X107647809Y-128687200D02*
X107743047Y-128734819D01*
X107743047Y-128734819D02*
X107838285Y-128734819D01*
X108171619Y-128734819D02*
X108171619Y-127734819D01*
X108600190Y-128734819D02*
X108600190Y-128211009D01*
X108600190Y-128211009D02*
X108552571Y-128115771D01*
X108552571Y-128115771D02*
X108457333Y-128068152D01*
X108457333Y-128068152D02*
X108314476Y-128068152D01*
X108314476Y-128068152D02*
X108219238Y-128115771D01*
X108219238Y-128115771D02*
X108171619Y-128163390D01*
X109504952Y-128068152D02*
X109504952Y-128734819D01*
X109076381Y-128068152D02*
X109076381Y-128591961D01*
X109076381Y-128591961D02*
X109124000Y-128687200D01*
X109124000Y-128687200D02*
X109219238Y-128734819D01*
X109219238Y-128734819D02*
X109362095Y-128734819D01*
X109362095Y-128734819D02*
X109457333Y-128687200D01*
X109457333Y-128687200D02*
X109504952Y-128639580D01*
X109981143Y-128734819D02*
X109981143Y-127734819D01*
X109981143Y-128115771D02*
X110076381Y-128068152D01*
X110076381Y-128068152D02*
X110266857Y-128068152D01*
X110266857Y-128068152D02*
X110362095Y-128115771D01*
X110362095Y-128115771D02*
X110409714Y-128163390D01*
X110409714Y-128163390D02*
X110457333Y-128258628D01*
X110457333Y-128258628D02*
X110457333Y-128544342D01*
X110457333Y-128544342D02*
X110409714Y-128639580D01*
X110409714Y-128639580D02*
X110362095Y-128687200D01*
X110362095Y-128687200D02*
X110266857Y-128734819D01*
X110266857Y-128734819D02*
X110076381Y-128734819D01*
X110076381Y-128734819D02*
X109981143Y-128687200D01*
X110885905Y-128639580D02*
X110933524Y-128687200D01*
X110933524Y-128687200D02*
X110885905Y-128734819D01*
X110885905Y-128734819D02*
X110838286Y-128687200D01*
X110838286Y-128687200D02*
X110885905Y-128639580D01*
X110885905Y-128639580D02*
X110885905Y-128734819D01*
X111790666Y-128687200D02*
X111695428Y-128734819D01*
X111695428Y-128734819D02*
X111504952Y-128734819D01*
X111504952Y-128734819D02*
X111409714Y-128687200D01*
X111409714Y-128687200D02*
X111362095Y-128639580D01*
X111362095Y-128639580D02*
X111314476Y-128544342D01*
X111314476Y-128544342D02*
X111314476Y-128258628D01*
X111314476Y-128258628D02*
X111362095Y-128163390D01*
X111362095Y-128163390D02*
X111409714Y-128115771D01*
X111409714Y-128115771D02*
X111504952Y-128068152D01*
X111504952Y-128068152D02*
X111695428Y-128068152D01*
X111695428Y-128068152D02*
X111790666Y-128115771D01*
X112362095Y-128734819D02*
X112266857Y-128687200D01*
X112266857Y-128687200D02*
X112219238Y-128639580D01*
X112219238Y-128639580D02*
X112171619Y-128544342D01*
X112171619Y-128544342D02*
X112171619Y-128258628D01*
X112171619Y-128258628D02*
X112219238Y-128163390D01*
X112219238Y-128163390D02*
X112266857Y-128115771D01*
X112266857Y-128115771D02*
X112362095Y-128068152D01*
X112362095Y-128068152D02*
X112504952Y-128068152D01*
X112504952Y-128068152D02*
X112600190Y-128115771D01*
X112600190Y-128115771D02*
X112647809Y-128163390D01*
X112647809Y-128163390D02*
X112695428Y-128258628D01*
X112695428Y-128258628D02*
X112695428Y-128544342D01*
X112695428Y-128544342D02*
X112647809Y-128639580D01*
X112647809Y-128639580D02*
X112600190Y-128687200D01*
X112600190Y-128687200D02*
X112504952Y-128734819D01*
X112504952Y-128734819D02*
X112362095Y-128734819D01*
X113124000Y-128734819D02*
X113124000Y-128068152D01*
X113124000Y-128163390D02*
X113171619Y-128115771D01*
X113171619Y-128115771D02*
X113266857Y-128068152D01*
X113266857Y-128068152D02*
X113409714Y-128068152D01*
X113409714Y-128068152D02*
X113504952Y-128115771D01*
X113504952Y-128115771D02*
X113552571Y-128211009D01*
X113552571Y-128211009D02*
X113552571Y-128734819D01*
X113552571Y-128211009D02*
X113600190Y-128115771D01*
X113600190Y-128115771D02*
X113695428Y-128068152D01*
X113695428Y-128068152D02*
X113838285Y-128068152D01*
X113838285Y-128068152D02*
X113933524Y-128115771D01*
X113933524Y-128115771D02*
X113981143Y-128211009D01*
X113981143Y-128211009D02*
X113981143Y-128734819D01*
X115171618Y-127687200D02*
X114314476Y-128972914D01*
X115504952Y-128068152D02*
X115504952Y-129068152D01*
X115504952Y-128115771D02*
X115600190Y-128068152D01*
X115600190Y-128068152D02*
X115790666Y-128068152D01*
X115790666Y-128068152D02*
X115885904Y-128115771D01*
X115885904Y-128115771D02*
X115933523Y-128163390D01*
X115933523Y-128163390D02*
X115981142Y-128258628D01*
X115981142Y-128258628D02*
X115981142Y-128544342D01*
X115981142Y-128544342D02*
X115933523Y-128639580D01*
X115933523Y-128639580D02*
X115885904Y-128687200D01*
X115885904Y-128687200D02*
X115790666Y-128734819D01*
X115790666Y-128734819D02*
X115600190Y-128734819D01*
X115600190Y-128734819D02*
X115504952Y-128687200D01*
X116838285Y-128734819D02*
X116838285Y-128211009D01*
X116838285Y-128211009D02*
X116790666Y-128115771D01*
X116790666Y-128115771D02*
X116695428Y-128068152D01*
X116695428Y-128068152D02*
X116504952Y-128068152D01*
X116504952Y-128068152D02*
X116409714Y-128115771D01*
X116838285Y-128687200D02*
X116743047Y-128734819D01*
X116743047Y-128734819D02*
X116504952Y-128734819D01*
X116504952Y-128734819D02*
X116409714Y-128687200D01*
X116409714Y-128687200D02*
X116362095Y-128591961D01*
X116362095Y-128591961D02*
X116362095Y-128496723D01*
X116362095Y-128496723D02*
X116409714Y-128401485D01*
X116409714Y-128401485D02*
X116504952Y-128353866D01*
X116504952Y-128353866D02*
X116743047Y-128353866D01*
X116743047Y-128353866D02*
X116838285Y-128306247D01*
X117743047Y-128068152D02*
X117743047Y-128734819D01*
X117314476Y-128068152D02*
X117314476Y-128591961D01*
X117314476Y-128591961D02*
X117362095Y-128687200D01*
X117362095Y-128687200D02*
X117457333Y-128734819D01*
X117457333Y-128734819D02*
X117600190Y-128734819D01*
X117600190Y-128734819D02*
X117695428Y-128687200D01*
X117695428Y-128687200D02*
X117743047Y-128639580D01*
X118362095Y-128734819D02*
X118266857Y-128687200D01*
X118266857Y-128687200D02*
X118219238Y-128591961D01*
X118219238Y-128591961D02*
X118219238Y-127734819D01*
X118885905Y-128734819D02*
X118790667Y-128687200D01*
X118790667Y-128687200D02*
X118743048Y-128639580D01*
X118743048Y-128639580D02*
X118695429Y-128544342D01*
X118695429Y-128544342D02*
X118695429Y-128258628D01*
X118695429Y-128258628D02*
X118743048Y-128163390D01*
X118743048Y-128163390D02*
X118790667Y-128115771D01*
X118790667Y-128115771D02*
X118885905Y-128068152D01*
X118885905Y-128068152D02*
X119028762Y-128068152D01*
X119028762Y-128068152D02*
X119124000Y-128115771D01*
X119124000Y-128115771D02*
X119171619Y-128163390D01*
X119171619Y-128163390D02*
X119219238Y-128258628D01*
X119219238Y-128258628D02*
X119219238Y-128544342D01*
X119219238Y-128544342D02*
X119171619Y-128639580D01*
X119171619Y-128639580D02*
X119124000Y-128687200D01*
X119124000Y-128687200D02*
X119028762Y-128734819D01*
X119028762Y-128734819D02*
X118885905Y-128734819D01*
X120076381Y-128734819D02*
X120076381Y-127734819D01*
X120076381Y-128687200D02*
X119981143Y-128734819D01*
X119981143Y-128734819D02*
X119790667Y-128734819D01*
X119790667Y-128734819D02*
X119695429Y-128687200D01*
X119695429Y-128687200D02*
X119647810Y-128639580D01*
X119647810Y-128639580D02*
X119600191Y-128544342D01*
X119600191Y-128544342D02*
X119600191Y-128258628D01*
X119600191Y-128258628D02*
X119647810Y-128163390D01*
X119647810Y-128163390D02*
X119695429Y-128115771D01*
X119695429Y-128115771D02*
X119790667Y-128068152D01*
X119790667Y-128068152D02*
X119981143Y-128068152D01*
X119981143Y-128068152D02*
X120076381Y-128115771D01*
X120695429Y-128734819D02*
X120600191Y-128687200D01*
X120600191Y-128687200D02*
X120552572Y-128639580D01*
X120552572Y-128639580D02*
X120504953Y-128544342D01*
X120504953Y-128544342D02*
X120504953Y-128258628D01*
X120504953Y-128258628D02*
X120552572Y-128163390D01*
X120552572Y-128163390D02*
X120600191Y-128115771D01*
X120600191Y-128115771D02*
X120695429Y-128068152D01*
X120695429Y-128068152D02*
X120838286Y-128068152D01*
X120838286Y-128068152D02*
X120933524Y-128115771D01*
X120933524Y-128115771D02*
X120981143Y-128163390D01*
X120981143Y-128163390D02*
X121028762Y-128258628D01*
X121028762Y-128258628D02*
X121028762Y-128544342D01*
X121028762Y-128544342D02*
X120981143Y-128639580D01*
X120981143Y-128639580D02*
X120933524Y-128687200D01*
X120933524Y-128687200D02*
X120838286Y-128734819D01*
X120838286Y-128734819D02*
X120695429Y-128734819D01*
X121362096Y-128068152D02*
X121552572Y-128734819D01*
X121552572Y-128734819D02*
X121743048Y-128258628D01*
X121743048Y-128258628D02*
X121933524Y-128734819D01*
X121933524Y-128734819D02*
X122124000Y-128068152D01*
X122933524Y-128734819D02*
X122933524Y-127734819D01*
X122933524Y-128687200D02*
X122838286Y-128734819D01*
X122838286Y-128734819D02*
X122647810Y-128734819D01*
X122647810Y-128734819D02*
X122552572Y-128687200D01*
X122552572Y-128687200D02*
X122504953Y-128639580D01*
X122504953Y-128639580D02*
X122457334Y-128544342D01*
X122457334Y-128544342D02*
X122457334Y-128258628D01*
X122457334Y-128258628D02*
X122504953Y-128163390D01*
X122504953Y-128163390D02*
X122552572Y-128115771D01*
X122552572Y-128115771D02*
X122647810Y-128068152D01*
X122647810Y-128068152D02*
X122838286Y-128068152D01*
X122838286Y-128068152D02*
X122933524Y-128115771D01*
X124124000Y-127687200D02*
X123266858Y-128972914D01*
X124409715Y-128687200D02*
X124552572Y-128734819D01*
X124552572Y-128734819D02*
X124790667Y-128734819D01*
X124790667Y-128734819D02*
X124885905Y-128687200D01*
X124885905Y-128687200D02*
X124933524Y-128639580D01*
X124933524Y-128639580D02*
X124981143Y-128544342D01*
X124981143Y-128544342D02*
X124981143Y-128449104D01*
X124981143Y-128449104D02*
X124933524Y-128353866D01*
X124933524Y-128353866D02*
X124885905Y-128306247D01*
X124885905Y-128306247D02*
X124790667Y-128258628D01*
X124790667Y-128258628D02*
X124600191Y-128211009D01*
X124600191Y-128211009D02*
X124504953Y-128163390D01*
X124504953Y-128163390D02*
X124457334Y-128115771D01*
X124457334Y-128115771D02*
X124409715Y-128020533D01*
X124409715Y-128020533D02*
X124409715Y-127925295D01*
X124409715Y-127925295D02*
X124457334Y-127830057D01*
X124457334Y-127830057D02*
X124504953Y-127782438D01*
X124504953Y-127782438D02*
X124600191Y-127734819D01*
X124600191Y-127734819D02*
X124838286Y-127734819D01*
X124838286Y-127734819D02*
X124981143Y-127782438D01*
X125314477Y-128068152D02*
X125504953Y-128734819D01*
X125504953Y-128734819D02*
X125695429Y-128258628D01*
X125695429Y-128258628D02*
X125885905Y-128734819D01*
X125885905Y-128734819D02*
X126076381Y-128068152D01*
X126885905Y-128734819D02*
X126885905Y-128211009D01*
X126885905Y-128211009D02*
X126838286Y-128115771D01*
X126838286Y-128115771D02*
X126743048Y-128068152D01*
X126743048Y-128068152D02*
X126552572Y-128068152D01*
X126552572Y-128068152D02*
X126457334Y-128115771D01*
X126885905Y-128687200D02*
X126790667Y-128734819D01*
X126790667Y-128734819D02*
X126552572Y-128734819D01*
X126552572Y-128734819D02*
X126457334Y-128687200D01*
X126457334Y-128687200D02*
X126409715Y-128591961D01*
X126409715Y-128591961D02*
X126409715Y-128496723D01*
X126409715Y-128496723D02*
X126457334Y-128401485D01*
X126457334Y-128401485D02*
X126552572Y-128353866D01*
X126552572Y-128353866D02*
X126790667Y-128353866D01*
X126790667Y-128353866D02*
X126885905Y-128306247D01*
X127362096Y-128734819D02*
X127362096Y-128068152D01*
X127362096Y-128258628D02*
X127409715Y-128163390D01*
X127409715Y-128163390D02*
X127457334Y-128115771D01*
X127457334Y-128115771D02*
X127552572Y-128068152D01*
X127552572Y-128068152D02*
X127647810Y-128068152D01*
X127981144Y-128734819D02*
X127981144Y-128068152D01*
X127981144Y-128163390D02*
X128028763Y-128115771D01*
X128028763Y-128115771D02*
X128124001Y-128068152D01*
X128124001Y-128068152D02*
X128266858Y-128068152D01*
X128266858Y-128068152D02*
X128362096Y-128115771D01*
X128362096Y-128115771D02*
X128409715Y-128211009D01*
X128409715Y-128211009D02*
X128409715Y-128734819D01*
X128409715Y-128211009D02*
X128457334Y-128115771D01*
X128457334Y-128115771D02*
X128552572Y-128068152D01*
X128552572Y-128068152D02*
X128695429Y-128068152D01*
X128695429Y-128068152D02*
X128790668Y-128115771D01*
X128790668Y-128115771D02*
X128838287Y-128211009D01*
X128838287Y-128211009D02*
X128838287Y-128734819D01*
X129314477Y-128353866D02*
X130076382Y-128353866D01*
X130885905Y-128211009D02*
X131028762Y-128258628D01*
X131028762Y-128258628D02*
X131076381Y-128306247D01*
X131076381Y-128306247D02*
X131124000Y-128401485D01*
X131124000Y-128401485D02*
X131124000Y-128544342D01*
X131124000Y-128544342D02*
X131076381Y-128639580D01*
X131076381Y-128639580D02*
X131028762Y-128687200D01*
X131028762Y-128687200D02*
X130933524Y-128734819D01*
X130933524Y-128734819D02*
X130552572Y-128734819D01*
X130552572Y-128734819D02*
X130552572Y-127734819D01*
X130552572Y-127734819D02*
X130885905Y-127734819D01*
X130885905Y-127734819D02*
X130981143Y-127782438D01*
X130981143Y-127782438D02*
X131028762Y-127830057D01*
X131028762Y-127830057D02*
X131076381Y-127925295D01*
X131076381Y-127925295D02*
X131076381Y-128020533D01*
X131076381Y-128020533D02*
X131028762Y-128115771D01*
X131028762Y-128115771D02*
X130981143Y-128163390D01*
X130981143Y-128163390D02*
X130885905Y-128211009D01*
X130885905Y-128211009D02*
X130552572Y-128211009D01*
X131504953Y-127830057D02*
X131552572Y-127782438D01*
X131552572Y-127782438D02*
X131647810Y-127734819D01*
X131647810Y-127734819D02*
X131885905Y-127734819D01*
X131885905Y-127734819D02*
X131981143Y-127782438D01*
X131981143Y-127782438D02*
X132028762Y-127830057D01*
X132028762Y-127830057D02*
X132076381Y-127925295D01*
X132076381Y-127925295D02*
X132076381Y-128020533D01*
X132076381Y-128020533D02*
X132028762Y-128163390D01*
X132028762Y-128163390D02*
X131457334Y-128734819D01*
X131457334Y-128734819D02*
X132076381Y-128734819D01*
X131076200Y-62385839D02*
X131123819Y-62242982D01*
X131123819Y-62242982D02*
X131123819Y-62004887D01*
X131123819Y-62004887D02*
X131076200Y-61909649D01*
X131076200Y-61909649D02*
X131028580Y-61862030D01*
X131028580Y-61862030D02*
X130933342Y-61814411D01*
X130933342Y-61814411D02*
X130838104Y-61814411D01*
X130838104Y-61814411D02*
X130742866Y-61862030D01*
X130742866Y-61862030D02*
X130695247Y-61909649D01*
X130695247Y-61909649D02*
X130647628Y-62004887D01*
X130647628Y-62004887D02*
X130600009Y-62195363D01*
X130600009Y-62195363D02*
X130552390Y-62290601D01*
X130552390Y-62290601D02*
X130504771Y-62338220D01*
X130504771Y-62338220D02*
X130409533Y-62385839D01*
X130409533Y-62385839D02*
X130314295Y-62385839D01*
X130314295Y-62385839D02*
X130219057Y-62338220D01*
X130219057Y-62338220D02*
X130171438Y-62290601D01*
X130171438Y-62290601D02*
X130123819Y-62195363D01*
X130123819Y-62195363D02*
X130123819Y-61957268D01*
X130123819Y-61957268D02*
X130171438Y-61814411D01*
X131123819Y-61385839D02*
X130123819Y-61385839D01*
X130123819Y-61385839D02*
X130123819Y-61147744D01*
X130123819Y-61147744D02*
X130171438Y-61004887D01*
X130171438Y-61004887D02*
X130266676Y-60909649D01*
X130266676Y-60909649D02*
X130361914Y-60862030D01*
X130361914Y-60862030D02*
X130552390Y-60814411D01*
X130552390Y-60814411D02*
X130695247Y-60814411D01*
X130695247Y-60814411D02*
X130885723Y-60862030D01*
X130885723Y-60862030D02*
X130980961Y-60909649D01*
X130980961Y-60909649D02*
X131076200Y-61004887D01*
X131076200Y-61004887D02*
X131123819Y-61147744D01*
X131123819Y-61147744D02*
X131123819Y-61385839D01*
X130838104Y-60433458D02*
X130838104Y-59957268D01*
X131123819Y-60528696D02*
X130123819Y-60195363D01*
X130123819Y-60195363D02*
X131123819Y-59862030D01*
X137796438Y-61764411D02*
X137748819Y-61859649D01*
X137748819Y-61859649D02*
X137748819Y-62002506D01*
X137748819Y-62002506D02*
X137796438Y-62145363D01*
X137796438Y-62145363D02*
X137891676Y-62240601D01*
X137891676Y-62240601D02*
X137986914Y-62288220D01*
X137986914Y-62288220D02*
X138177390Y-62335839D01*
X138177390Y-62335839D02*
X138320247Y-62335839D01*
X138320247Y-62335839D02*
X138510723Y-62288220D01*
X138510723Y-62288220D02*
X138605961Y-62240601D01*
X138605961Y-62240601D02*
X138701200Y-62145363D01*
X138701200Y-62145363D02*
X138748819Y-62002506D01*
X138748819Y-62002506D02*
X138748819Y-61907268D01*
X138748819Y-61907268D02*
X138701200Y-61764411D01*
X138701200Y-61764411D02*
X138653580Y-61716792D01*
X138653580Y-61716792D02*
X138320247Y-61716792D01*
X138320247Y-61716792D02*
X138320247Y-61907268D01*
X138748819Y-61288220D02*
X137748819Y-61288220D01*
X137748819Y-61288220D02*
X138748819Y-60716792D01*
X138748819Y-60716792D02*
X137748819Y-60716792D01*
X138748819Y-60240601D02*
X137748819Y-60240601D01*
X137748819Y-60240601D02*
X137748819Y-60002506D01*
X137748819Y-60002506D02*
X137796438Y-59859649D01*
X137796438Y-59859649D02*
X137891676Y-59764411D01*
X137891676Y-59764411D02*
X137986914Y-59716792D01*
X137986914Y-59716792D02*
X138177390Y-59669173D01*
X138177390Y-59669173D02*
X138320247Y-59669173D01*
X138320247Y-59669173D02*
X138510723Y-59716792D01*
X138510723Y-59716792D02*
X138605961Y-59764411D01*
X138605961Y-59764411D02*
X138701200Y-59859649D01*
X138701200Y-59859649D02*
X138748819Y-60002506D01*
X138748819Y-60002506D02*
X138748819Y-60240601D01*
X85106190Y-72352819D02*
X85296666Y-72352819D01*
X85296666Y-72352819D02*
X85391904Y-72400438D01*
X85391904Y-72400438D02*
X85487142Y-72495676D01*
X85487142Y-72495676D02*
X85534761Y-72686152D01*
X85534761Y-72686152D02*
X85534761Y-73019485D01*
X85534761Y-73019485D02*
X85487142Y-73209961D01*
X85487142Y-73209961D02*
X85391904Y-73305200D01*
X85391904Y-73305200D02*
X85296666Y-73352819D01*
X85296666Y-73352819D02*
X85106190Y-73352819D01*
X85106190Y-73352819D02*
X85010952Y-73305200D01*
X85010952Y-73305200D02*
X84915714Y-73209961D01*
X84915714Y-73209961D02*
X84868095Y-73019485D01*
X84868095Y-73019485D02*
X84868095Y-72686152D01*
X84868095Y-72686152D02*
X84915714Y-72495676D01*
X84915714Y-72495676D02*
X85010952Y-72400438D01*
X85010952Y-72400438D02*
X85106190Y-72352819D01*
X85963333Y-73352819D02*
X85963333Y-72352819D01*
X85963333Y-72352819D02*
X86534761Y-73352819D01*
X86534761Y-73352819D02*
X86534761Y-72352819D01*
X87725237Y-72305200D02*
X86868095Y-73590914D01*
X88249047Y-72352819D02*
X88439523Y-72352819D01*
X88439523Y-72352819D02*
X88534761Y-72400438D01*
X88534761Y-72400438D02*
X88629999Y-72495676D01*
X88629999Y-72495676D02*
X88677618Y-72686152D01*
X88677618Y-72686152D02*
X88677618Y-73019485D01*
X88677618Y-73019485D02*
X88629999Y-73209961D01*
X88629999Y-73209961D02*
X88534761Y-73305200D01*
X88534761Y-73305200D02*
X88439523Y-73352819D01*
X88439523Y-73352819D02*
X88249047Y-73352819D01*
X88249047Y-73352819D02*
X88153809Y-73305200D01*
X88153809Y-73305200D02*
X88058571Y-73209961D01*
X88058571Y-73209961D02*
X88010952Y-73019485D01*
X88010952Y-73019485D02*
X88010952Y-72686152D01*
X88010952Y-72686152D02*
X88058571Y-72495676D01*
X88058571Y-72495676D02*
X88153809Y-72400438D01*
X88153809Y-72400438D02*
X88249047Y-72352819D01*
X89439523Y-72829009D02*
X89106190Y-72829009D01*
X89106190Y-73352819D02*
X89106190Y-72352819D01*
X89106190Y-72352819D02*
X89582380Y-72352819D01*
X90296666Y-72829009D02*
X89963333Y-72829009D01*
X89963333Y-73352819D02*
X89963333Y-72352819D01*
X89963333Y-72352819D02*
X90439523Y-72352819D01*
X133576200Y-62360839D02*
X133623819Y-62217982D01*
X133623819Y-62217982D02*
X133623819Y-61979887D01*
X133623819Y-61979887D02*
X133576200Y-61884649D01*
X133576200Y-61884649D02*
X133528580Y-61837030D01*
X133528580Y-61837030D02*
X133433342Y-61789411D01*
X133433342Y-61789411D02*
X133338104Y-61789411D01*
X133338104Y-61789411D02*
X133242866Y-61837030D01*
X133242866Y-61837030D02*
X133195247Y-61884649D01*
X133195247Y-61884649D02*
X133147628Y-61979887D01*
X133147628Y-61979887D02*
X133100009Y-62170363D01*
X133100009Y-62170363D02*
X133052390Y-62265601D01*
X133052390Y-62265601D02*
X133004771Y-62313220D01*
X133004771Y-62313220D02*
X132909533Y-62360839D01*
X132909533Y-62360839D02*
X132814295Y-62360839D01*
X132814295Y-62360839D02*
X132719057Y-62313220D01*
X132719057Y-62313220D02*
X132671438Y-62265601D01*
X132671438Y-62265601D02*
X132623819Y-62170363D01*
X132623819Y-62170363D02*
X132623819Y-61932268D01*
X132623819Y-61932268D02*
X132671438Y-61789411D01*
X133528580Y-60789411D02*
X133576200Y-60837030D01*
X133576200Y-60837030D02*
X133623819Y-60979887D01*
X133623819Y-60979887D02*
X133623819Y-61075125D01*
X133623819Y-61075125D02*
X133576200Y-61217982D01*
X133576200Y-61217982D02*
X133480961Y-61313220D01*
X133480961Y-61313220D02*
X133385723Y-61360839D01*
X133385723Y-61360839D02*
X133195247Y-61408458D01*
X133195247Y-61408458D02*
X133052390Y-61408458D01*
X133052390Y-61408458D02*
X132861914Y-61360839D01*
X132861914Y-61360839D02*
X132766676Y-61313220D01*
X132766676Y-61313220D02*
X132671438Y-61217982D01*
X132671438Y-61217982D02*
X132623819Y-61075125D01*
X132623819Y-61075125D02*
X132623819Y-60979887D01*
X132623819Y-60979887D02*
X132671438Y-60837030D01*
X132671438Y-60837030D02*
X132719057Y-60789411D01*
X133623819Y-59884649D02*
X133623819Y-60360839D01*
X133623819Y-60360839D02*
X132623819Y-60360839D01*
X135248819Y-61812030D02*
X135248819Y-62288220D01*
X135248819Y-62288220D02*
X135725009Y-62335839D01*
X135725009Y-62335839D02*
X135677390Y-62288220D01*
X135677390Y-62288220D02*
X135629771Y-62192982D01*
X135629771Y-62192982D02*
X135629771Y-61954887D01*
X135629771Y-61954887D02*
X135677390Y-61859649D01*
X135677390Y-61859649D02*
X135725009Y-61812030D01*
X135725009Y-61812030D02*
X135820247Y-61764411D01*
X135820247Y-61764411D02*
X136058342Y-61764411D01*
X136058342Y-61764411D02*
X136153580Y-61812030D01*
X136153580Y-61812030D02*
X136201200Y-61859649D01*
X136201200Y-61859649D02*
X136248819Y-61954887D01*
X136248819Y-61954887D02*
X136248819Y-62192982D01*
X136248819Y-62192982D02*
X136201200Y-62288220D01*
X136201200Y-62288220D02*
X136153580Y-62335839D01*
X135248819Y-61478696D02*
X136248819Y-61145363D01*
X136248819Y-61145363D02*
X135248819Y-60812030D01*
X114445905Y-127194819D02*
X114445905Y-126194819D01*
X114445905Y-126194819D02*
X114684000Y-126194819D01*
X114684000Y-126194819D02*
X114826857Y-126242438D01*
X114826857Y-126242438D02*
X114922095Y-126337676D01*
X114922095Y-126337676D02*
X114969714Y-126432914D01*
X114969714Y-126432914D02*
X115017333Y-126623390D01*
X115017333Y-126623390D02*
X115017333Y-126766247D01*
X115017333Y-126766247D02*
X114969714Y-126956723D01*
X114969714Y-126956723D02*
X114922095Y-127051961D01*
X114922095Y-127051961D02*
X114826857Y-127147200D01*
X114826857Y-127147200D02*
X114684000Y-127194819D01*
X114684000Y-127194819D02*
X114445905Y-127194819D01*
X115969714Y-127194819D02*
X115398286Y-127194819D01*
X115684000Y-127194819D02*
X115684000Y-126194819D01*
X115684000Y-126194819D02*
X115588762Y-126337676D01*
X115588762Y-126337676D02*
X115493524Y-126432914D01*
X115493524Y-126432914D02*
X115398286Y-126480533D01*
X117935905Y-64434819D02*
X117935905Y-63434819D01*
X117935905Y-63434819D02*
X118174000Y-63434819D01*
X118174000Y-63434819D02*
X118316857Y-63482438D01*
X118316857Y-63482438D02*
X118412095Y-63577676D01*
X118412095Y-63577676D02*
X118459714Y-63672914D01*
X118459714Y-63672914D02*
X118507333Y-63863390D01*
X118507333Y-63863390D02*
X118507333Y-64006247D01*
X118507333Y-64006247D02*
X118459714Y-64196723D01*
X118459714Y-64196723D02*
X118412095Y-64291961D01*
X118412095Y-64291961D02*
X118316857Y-64387200D01*
X118316857Y-64387200D02*
X118174000Y-64434819D01*
X118174000Y-64434819D02*
X117935905Y-64434819D01*
X118888286Y-63530057D02*
X118935905Y-63482438D01*
X118935905Y-63482438D02*
X119031143Y-63434819D01*
X119031143Y-63434819D02*
X119269238Y-63434819D01*
X119269238Y-63434819D02*
X119364476Y-63482438D01*
X119364476Y-63482438D02*
X119412095Y-63530057D01*
X119412095Y-63530057D02*
X119459714Y-63625295D01*
X119459714Y-63625295D02*
X119459714Y-63720533D01*
X119459714Y-63720533D02*
X119412095Y-63863390D01*
X119412095Y-63863390D02*
X118840667Y-64434819D01*
X118840667Y-64434819D02*
X119459714Y-64434819D01*
X89128819Y-95028094D02*
X88128819Y-95028094D01*
X88128819Y-95028094D02*
X88128819Y-94789999D01*
X88128819Y-94789999D02*
X88176438Y-94647142D01*
X88176438Y-94647142D02*
X88271676Y-94551904D01*
X88271676Y-94551904D02*
X88366914Y-94504285D01*
X88366914Y-94504285D02*
X88557390Y-94456666D01*
X88557390Y-94456666D02*
X88700247Y-94456666D01*
X88700247Y-94456666D02*
X88890723Y-94504285D01*
X88890723Y-94504285D02*
X88985961Y-94551904D01*
X88985961Y-94551904D02*
X89081200Y-94647142D01*
X89081200Y-94647142D02*
X89128819Y-94789999D01*
X89128819Y-94789999D02*
X89128819Y-95028094D01*
X88128819Y-94123332D02*
X88128819Y-93504285D01*
X88128819Y-93504285D02*
X88509771Y-93837618D01*
X88509771Y-93837618D02*
X88509771Y-93694761D01*
X88509771Y-93694761D02*
X88557390Y-93599523D01*
X88557390Y-93599523D02*
X88605009Y-93551904D01*
X88605009Y-93551904D02*
X88700247Y-93504285D01*
X88700247Y-93504285D02*
X88938342Y-93504285D01*
X88938342Y-93504285D02*
X89033580Y-93551904D01*
X89033580Y-93551904D02*
X89081200Y-93599523D01*
X89081200Y-93599523D02*
X89128819Y-93694761D01*
X89128819Y-93694761D02*
X89128819Y-93980475D01*
X89128819Y-93980475D02*
X89081200Y-94075713D01*
X89081200Y-94075713D02*
X89033580Y-94123332D01*
X150028819Y-95268094D02*
X149028819Y-95268094D01*
X149028819Y-95268094D02*
X149028819Y-95029999D01*
X149028819Y-95029999D02*
X149076438Y-94887142D01*
X149076438Y-94887142D02*
X149171676Y-94791904D01*
X149171676Y-94791904D02*
X149266914Y-94744285D01*
X149266914Y-94744285D02*
X149457390Y-94696666D01*
X149457390Y-94696666D02*
X149600247Y-94696666D01*
X149600247Y-94696666D02*
X149790723Y-94744285D01*
X149790723Y-94744285D02*
X149885961Y-94791904D01*
X149885961Y-94791904D02*
X149981200Y-94887142D01*
X149981200Y-94887142D02*
X150028819Y-95029999D01*
X150028819Y-95029999D02*
X150028819Y-95268094D01*
X149362152Y-93839523D02*
X150028819Y-93839523D01*
X148981200Y-94077618D02*
X149695485Y-94315713D01*
X149695485Y-94315713D02*
X149695485Y-93696666D01*
X103260666Y-86112819D02*
X103260666Y-86827104D01*
X103260666Y-86827104D02*
X103213047Y-86969961D01*
X103213047Y-86969961D02*
X103117809Y-87065200D01*
X103117809Y-87065200D02*
X102974952Y-87112819D01*
X102974952Y-87112819D02*
X102879714Y-87112819D01*
X103641619Y-86112819D02*
X104260666Y-86112819D01*
X104260666Y-86112819D02*
X103927333Y-86493771D01*
X103927333Y-86493771D02*
X104070190Y-86493771D01*
X104070190Y-86493771D02*
X104165428Y-86541390D01*
X104165428Y-86541390D02*
X104213047Y-86589009D01*
X104213047Y-86589009D02*
X104260666Y-86684247D01*
X104260666Y-86684247D02*
X104260666Y-86922342D01*
X104260666Y-86922342D02*
X104213047Y-87017580D01*
X104213047Y-87017580D02*
X104165428Y-87065200D01*
X104165428Y-87065200D02*
X104070190Y-87112819D01*
X104070190Y-87112819D02*
X103784476Y-87112819D01*
X103784476Y-87112819D02*
X103689238Y-87065200D01*
X103689238Y-87065200D02*
X103641619Y-87017580D01*
X152218819Y-86914666D02*
X151742628Y-87247999D01*
X152218819Y-87486094D02*
X151218819Y-87486094D01*
X151218819Y-87486094D02*
X151218819Y-87105142D01*
X151218819Y-87105142D02*
X151266438Y-87009904D01*
X151266438Y-87009904D02*
X151314057Y-86962285D01*
X151314057Y-86962285D02*
X151409295Y-86914666D01*
X151409295Y-86914666D02*
X151552152Y-86914666D01*
X151552152Y-86914666D02*
X151647390Y-86962285D01*
X151647390Y-86962285D02*
X151695009Y-87009904D01*
X151695009Y-87009904D02*
X151742628Y-87105142D01*
X151742628Y-87105142D02*
X151742628Y-87486094D01*
X151218819Y-86057523D02*
X151218819Y-86247999D01*
X151218819Y-86247999D02*
X151266438Y-86343237D01*
X151266438Y-86343237D02*
X151314057Y-86390856D01*
X151314057Y-86390856D02*
X151456914Y-86486094D01*
X151456914Y-86486094D02*
X151647390Y-86533713D01*
X151647390Y-86533713D02*
X152028342Y-86533713D01*
X152028342Y-86533713D02*
X152123580Y-86486094D01*
X152123580Y-86486094D02*
X152171200Y-86438475D01*
X152171200Y-86438475D02*
X152218819Y-86343237D01*
X152218819Y-86343237D02*
X152218819Y-86152761D01*
X152218819Y-86152761D02*
X152171200Y-86057523D01*
X152171200Y-86057523D02*
X152123580Y-86009904D01*
X152123580Y-86009904D02*
X152028342Y-85962285D01*
X152028342Y-85962285D02*
X151790247Y-85962285D01*
X151790247Y-85962285D02*
X151695009Y-86009904D01*
X151695009Y-86009904D02*
X151647390Y-86057523D01*
X151647390Y-86057523D02*
X151599771Y-86152761D01*
X151599771Y-86152761D02*
X151599771Y-86343237D01*
X151599771Y-86343237D02*
X151647390Y-86438475D01*
X151647390Y-86438475D02*
X151695009Y-86486094D01*
X151695009Y-86486094D02*
X151790247Y-86533713D01*
X126664819Y-102187333D02*
X127379104Y-102187333D01*
X127379104Y-102187333D02*
X127521961Y-102234952D01*
X127521961Y-102234952D02*
X127617200Y-102330190D01*
X127617200Y-102330190D02*
X127664819Y-102473047D01*
X127664819Y-102473047D02*
X127664819Y-102568285D01*
X126664819Y-101234952D02*
X126664819Y-101711142D01*
X126664819Y-101711142D02*
X127141009Y-101758761D01*
X127141009Y-101758761D02*
X127093390Y-101711142D01*
X127093390Y-101711142D02*
X127045771Y-101615904D01*
X127045771Y-101615904D02*
X127045771Y-101377809D01*
X127045771Y-101377809D02*
X127093390Y-101282571D01*
X127093390Y-101282571D02*
X127141009Y-101234952D01*
X127141009Y-101234952D02*
X127236247Y-101187333D01*
X127236247Y-101187333D02*
X127474342Y-101187333D01*
X127474342Y-101187333D02*
X127569580Y-101234952D01*
X127569580Y-101234952D02*
X127617200Y-101282571D01*
X127617200Y-101282571D02*
X127664819Y-101377809D01*
X127664819Y-101377809D02*
X127664819Y-101615904D01*
X127664819Y-101615904D02*
X127617200Y-101711142D01*
X127617200Y-101711142D02*
X127569580Y-101758761D01*
X126708819Y-86947333D02*
X127423104Y-86947333D01*
X127423104Y-86947333D02*
X127565961Y-86994952D01*
X127565961Y-86994952D02*
X127661200Y-87090190D01*
X127661200Y-87090190D02*
X127708819Y-87233047D01*
X127708819Y-87233047D02*
X127708819Y-87328285D01*
X126804057Y-86518761D02*
X126756438Y-86471142D01*
X126756438Y-86471142D02*
X126708819Y-86375904D01*
X126708819Y-86375904D02*
X126708819Y-86137809D01*
X126708819Y-86137809D02*
X126756438Y-86042571D01*
X126756438Y-86042571D02*
X126804057Y-85994952D01*
X126804057Y-85994952D02*
X126899295Y-85947333D01*
X126899295Y-85947333D02*
X126994533Y-85947333D01*
X126994533Y-85947333D02*
X127137390Y-85994952D01*
X127137390Y-85994952D02*
X127708819Y-86566380D01*
X127708819Y-86566380D02*
X127708819Y-85947333D01*
X126708819Y-89487333D02*
X127423104Y-89487333D01*
X127423104Y-89487333D02*
X127565961Y-89534952D01*
X127565961Y-89534952D02*
X127661200Y-89630190D01*
X127661200Y-89630190D02*
X127708819Y-89773047D01*
X127708819Y-89773047D02*
X127708819Y-89868285D01*
X127708819Y-88487333D02*
X127708819Y-89058761D01*
X127708819Y-88773047D02*
X126708819Y-88773047D01*
X126708819Y-88773047D02*
X126851676Y-88868285D01*
X126851676Y-88868285D02*
X126946914Y-88963523D01*
X126946914Y-88963523D02*
X126994533Y-89058761D01*
X91781333Y-119580819D02*
X91448000Y-119104628D01*
X91209905Y-119580819D02*
X91209905Y-118580819D01*
X91209905Y-118580819D02*
X91590857Y-118580819D01*
X91590857Y-118580819D02*
X91686095Y-118628438D01*
X91686095Y-118628438D02*
X91733714Y-118676057D01*
X91733714Y-118676057D02*
X91781333Y-118771295D01*
X91781333Y-118771295D02*
X91781333Y-118914152D01*
X91781333Y-118914152D02*
X91733714Y-119009390D01*
X91733714Y-119009390D02*
X91686095Y-119057009D01*
X91686095Y-119057009D02*
X91590857Y-119104628D01*
X91590857Y-119104628D02*
X91209905Y-119104628D01*
X92733714Y-119580819D02*
X92162286Y-119580819D01*
X92448000Y-119580819D02*
X92448000Y-118580819D01*
X92448000Y-118580819D02*
X92352762Y-118723676D01*
X92352762Y-118723676D02*
X92257524Y-118818914D01*
X92257524Y-118818914D02*
X92162286Y-118866533D01*
X139237333Y-117802819D02*
X138904000Y-117326628D01*
X138665905Y-117802819D02*
X138665905Y-116802819D01*
X138665905Y-116802819D02*
X139046857Y-116802819D01*
X139046857Y-116802819D02*
X139142095Y-116850438D01*
X139142095Y-116850438D02*
X139189714Y-116898057D01*
X139189714Y-116898057D02*
X139237333Y-116993295D01*
X139237333Y-116993295D02*
X139237333Y-117136152D01*
X139237333Y-117136152D02*
X139189714Y-117231390D01*
X139189714Y-117231390D02*
X139142095Y-117279009D01*
X139142095Y-117279009D02*
X139046857Y-117326628D01*
X139046857Y-117326628D02*
X138665905Y-117326628D01*
X140142095Y-116802819D02*
X139665905Y-116802819D01*
X139665905Y-116802819D02*
X139618286Y-117279009D01*
X139618286Y-117279009D02*
X139665905Y-117231390D01*
X139665905Y-117231390D02*
X139761143Y-117183771D01*
X139761143Y-117183771D02*
X139999238Y-117183771D01*
X139999238Y-117183771D02*
X140094476Y-117231390D01*
X140094476Y-117231390D02*
X140142095Y-117279009D01*
X140142095Y-117279009D02*
X140189714Y-117374247D01*
X140189714Y-117374247D02*
X140189714Y-117612342D01*
X140189714Y-117612342D02*
X140142095Y-117707580D01*
X140142095Y-117707580D02*
X140094476Y-117755200D01*
X140094476Y-117755200D02*
X139999238Y-117802819D01*
X139999238Y-117802819D02*
X139761143Y-117802819D01*
X139761143Y-117802819D02*
X139665905Y-117755200D01*
X139665905Y-117755200D02*
X139618286Y-117707580D01*
X100616819Y-65357333D02*
X101331104Y-65357333D01*
X101331104Y-65357333D02*
X101473961Y-65404952D01*
X101473961Y-65404952D02*
X101569200Y-65500190D01*
X101569200Y-65500190D02*
X101616819Y-65643047D01*
X101616819Y-65643047D02*
X101616819Y-65738285D01*
X100616819Y-64452571D02*
X100616819Y-64643047D01*
X100616819Y-64643047D02*
X100664438Y-64738285D01*
X100664438Y-64738285D02*
X100712057Y-64785904D01*
X100712057Y-64785904D02*
X100854914Y-64881142D01*
X100854914Y-64881142D02*
X101045390Y-64928761D01*
X101045390Y-64928761D02*
X101426342Y-64928761D01*
X101426342Y-64928761D02*
X101521580Y-64881142D01*
X101521580Y-64881142D02*
X101569200Y-64833523D01*
X101569200Y-64833523D02*
X101616819Y-64738285D01*
X101616819Y-64738285D02*
X101616819Y-64547809D01*
X101616819Y-64547809D02*
X101569200Y-64452571D01*
X101569200Y-64452571D02*
X101521580Y-64404952D01*
X101521580Y-64404952D02*
X101426342Y-64357333D01*
X101426342Y-64357333D02*
X101188247Y-64357333D01*
X101188247Y-64357333D02*
X101093009Y-64404952D01*
X101093009Y-64404952D02*
X101045390Y-64452571D01*
X101045390Y-64452571D02*
X100997771Y-64547809D01*
X100997771Y-64547809D02*
X100997771Y-64738285D01*
X100997771Y-64738285D02*
X101045390Y-64833523D01*
X101045390Y-64833523D02*
X101093009Y-64881142D01*
X101093009Y-64881142D02*
X101188247Y-64928761D01*
X83208819Y-80517523D02*
X82208819Y-80517523D01*
X82208819Y-80517523D02*
X82208819Y-80136571D01*
X82208819Y-80136571D02*
X82256438Y-80041333D01*
X82256438Y-80041333D02*
X82304057Y-79993714D01*
X82304057Y-79993714D02*
X82399295Y-79946095D01*
X82399295Y-79946095D02*
X82542152Y-79946095D01*
X82542152Y-79946095D02*
X82637390Y-79993714D01*
X82637390Y-79993714D02*
X82685009Y-80041333D01*
X82685009Y-80041333D02*
X82732628Y-80136571D01*
X82732628Y-80136571D02*
X82732628Y-80517523D01*
X82208819Y-79612761D02*
X83208819Y-79374666D01*
X83208819Y-79374666D02*
X82494533Y-79184190D01*
X82494533Y-79184190D02*
X83208819Y-78993714D01*
X83208819Y-78993714D02*
X82208819Y-78755619D01*
X83208819Y-77803238D02*
X82732628Y-78136571D01*
X83208819Y-78374666D02*
X82208819Y-78374666D01*
X82208819Y-78374666D02*
X82208819Y-77993714D01*
X82208819Y-77993714D02*
X82256438Y-77898476D01*
X82256438Y-77898476D02*
X82304057Y-77850857D01*
X82304057Y-77850857D02*
X82399295Y-77803238D01*
X82399295Y-77803238D02*
X82542152Y-77803238D01*
X82542152Y-77803238D02*
X82637390Y-77850857D01*
X82637390Y-77850857D02*
X82685009Y-77898476D01*
X82685009Y-77898476D02*
X82732628Y-77993714D01*
X82732628Y-77993714D02*
X82732628Y-78374666D01*
X83208819Y-76850857D02*
X83208819Y-77422285D01*
X83208819Y-77136571D02*
X82208819Y-77136571D01*
X82208819Y-77136571D02*
X82351676Y-77231809D01*
X82351676Y-77231809D02*
X82446914Y-77327047D01*
X82446914Y-77327047D02*
X82494533Y-77422285D01*
X95587110Y-61890743D02*
X95060339Y-61645017D01*
X95092238Y-62176458D02*
X94592238Y-61310432D01*
X94592238Y-61310432D02*
X94922153Y-61119956D01*
X94922153Y-61119956D02*
X95028441Y-61113576D01*
X95028441Y-61113576D02*
X95093490Y-61131006D01*
X95093490Y-61131006D02*
X95182348Y-61189675D01*
X95182348Y-61189675D02*
X95253777Y-61313393D01*
X95253777Y-61313393D02*
X95260156Y-61419681D01*
X95260156Y-61419681D02*
X95242726Y-61484730D01*
X95242726Y-61484730D02*
X95184057Y-61573588D01*
X95184057Y-61573588D02*
X94854143Y-61764065D01*
X95375785Y-60858051D02*
X95911896Y-60548528D01*
X95911896Y-60548528D02*
X95813697Y-61045109D01*
X95813697Y-61045109D02*
X95937415Y-60973680D01*
X95937415Y-60973680D02*
X96043703Y-60967300D01*
X96043703Y-60967300D02*
X96108752Y-60984730D01*
X96108752Y-60984730D02*
X96197610Y-61043399D01*
X96197610Y-61043399D02*
X96316658Y-61249596D01*
X96316658Y-61249596D02*
X96323038Y-61355884D01*
X96323038Y-61355884D02*
X96305608Y-61420933D01*
X96305608Y-61420933D02*
X96246939Y-61509791D01*
X96246939Y-61509791D02*
X95999503Y-61652648D01*
X95999503Y-61652648D02*
X95893215Y-61659028D01*
X95893215Y-61659028D02*
X95828166Y-61641598D01*
X127798819Y-64733333D02*
X128513104Y-64733333D01*
X128513104Y-64733333D02*
X128655961Y-64780952D01*
X128655961Y-64780952D02*
X128751200Y-64876190D01*
X128751200Y-64876190D02*
X128798819Y-65019047D01*
X128798819Y-65019047D02*
X128798819Y-65114285D01*
X127798819Y-64352380D02*
X127798819Y-63685714D01*
X127798819Y-63685714D02*
X128798819Y-64114285D01*
X91978337Y-119865689D02*
X92685444Y-119158583D01*
X92685444Y-119158583D02*
X92853803Y-119326941D01*
X92853803Y-119326941D02*
X92921146Y-119461628D01*
X92921146Y-119461628D02*
X92921146Y-119596315D01*
X92921146Y-119596315D02*
X92887474Y-119697331D01*
X92887474Y-119697331D02*
X92786459Y-119865689D01*
X92786459Y-119865689D02*
X92685444Y-119966705D01*
X92685444Y-119966705D02*
X92517085Y-120067720D01*
X92517085Y-120067720D02*
X92416070Y-120101392D01*
X92416070Y-120101392D02*
X92281383Y-120101392D01*
X92281383Y-120101392D02*
X92146696Y-120034048D01*
X92146696Y-120034048D02*
X91978337Y-119865689D01*
X93695596Y-120168735D02*
X93560909Y-120034048D01*
X93560909Y-120034048D02*
X93459894Y-120000376D01*
X93459894Y-120000376D02*
X93392551Y-120000376D01*
X93392551Y-120000376D02*
X93224192Y-120034048D01*
X93224192Y-120034048D02*
X93055833Y-120135063D01*
X93055833Y-120135063D02*
X92786459Y-120404437D01*
X92786459Y-120404437D02*
X92752787Y-120505453D01*
X92752787Y-120505453D02*
X92752787Y-120572796D01*
X92752787Y-120572796D02*
X92786459Y-120673811D01*
X92786459Y-120673811D02*
X92921146Y-120808498D01*
X92921146Y-120808498D02*
X93022161Y-120842170D01*
X93022161Y-120842170D02*
X93089505Y-120842170D01*
X93089505Y-120842170D02*
X93190520Y-120808498D01*
X93190520Y-120808498D02*
X93358879Y-120640140D01*
X93358879Y-120640140D02*
X93392551Y-120539124D01*
X93392551Y-120539124D02*
X93392551Y-120471781D01*
X93392551Y-120471781D02*
X93358879Y-120370766D01*
X93358879Y-120370766D02*
X93224192Y-120236079D01*
X93224192Y-120236079D02*
X93123177Y-120202407D01*
X93123177Y-120202407D02*
X93055833Y-120202407D01*
X93055833Y-120202407D02*
X92954818Y-120236079D01*
X139162333Y-112752819D02*
X138829000Y-112276628D01*
X138590905Y-112752819D02*
X138590905Y-111752819D01*
X138590905Y-111752819D02*
X138971857Y-111752819D01*
X138971857Y-111752819D02*
X139067095Y-111800438D01*
X139067095Y-111800438D02*
X139114714Y-111848057D01*
X139114714Y-111848057D02*
X139162333Y-111943295D01*
X139162333Y-111943295D02*
X139162333Y-112086152D01*
X139162333Y-112086152D02*
X139114714Y-112181390D01*
X139114714Y-112181390D02*
X139067095Y-112229009D01*
X139067095Y-112229009D02*
X138971857Y-112276628D01*
X138971857Y-112276628D02*
X138590905Y-112276628D01*
X139495667Y-111752819D02*
X140162333Y-111752819D01*
X140162333Y-111752819D02*
X139733762Y-112752819D01*
X95126415Y-127471825D02*
X95075835Y-126892766D01*
X94631543Y-127186111D02*
X95131543Y-126320086D01*
X95131543Y-126320086D02*
X95461458Y-126510562D01*
X95461458Y-126510562D02*
X95520127Y-126599420D01*
X95520127Y-126599420D02*
X95537556Y-126664469D01*
X95537556Y-126664469D02*
X95531177Y-126770757D01*
X95531177Y-126770757D02*
X95459748Y-126894475D01*
X95459748Y-126894475D02*
X95370890Y-126953144D01*
X95370890Y-126953144D02*
X95305841Y-126970574D01*
X95305841Y-126970574D02*
X95199553Y-126964194D01*
X95199553Y-126964194D02*
X94869638Y-126773718D01*
X95908710Y-126878755D02*
X95973759Y-126861325D01*
X95973759Y-126861325D02*
X96080047Y-126867705D01*
X96080047Y-126867705D02*
X96286244Y-126986752D01*
X96286244Y-126986752D02*
X96344913Y-127075611D01*
X96344913Y-127075611D02*
X96362343Y-127140659D01*
X96362343Y-127140659D02*
X96355963Y-127246948D01*
X96355963Y-127246948D02*
X96308344Y-127329426D01*
X96308344Y-127329426D02*
X96195676Y-127429335D01*
X96195676Y-127429335D02*
X95415090Y-127638492D01*
X95415090Y-127638492D02*
X95951201Y-127948016D01*
X139187333Y-115352819D02*
X138854000Y-114876628D01*
X138615905Y-115352819D02*
X138615905Y-114352819D01*
X138615905Y-114352819D02*
X138996857Y-114352819D01*
X138996857Y-114352819D02*
X139092095Y-114400438D01*
X139092095Y-114400438D02*
X139139714Y-114448057D01*
X139139714Y-114448057D02*
X139187333Y-114543295D01*
X139187333Y-114543295D02*
X139187333Y-114686152D01*
X139187333Y-114686152D02*
X139139714Y-114781390D01*
X139139714Y-114781390D02*
X139092095Y-114829009D01*
X139092095Y-114829009D02*
X138996857Y-114876628D01*
X138996857Y-114876628D02*
X138615905Y-114876628D01*
X140044476Y-114686152D02*
X140044476Y-115352819D01*
X139806381Y-114305200D02*
X139568286Y-115019485D01*
X139568286Y-115019485D02*
X140187333Y-115019485D01*
X144775789Y-120999562D02*
X144068683Y-120292455D01*
X144068683Y-120292455D02*
X144237041Y-120124096D01*
X144237041Y-120124096D02*
X144371728Y-120056753D01*
X144371728Y-120056753D02*
X144506415Y-120056753D01*
X144506415Y-120056753D02*
X144607431Y-120090425D01*
X144607431Y-120090425D02*
X144775789Y-120191440D01*
X144775789Y-120191440D02*
X144876805Y-120292455D01*
X144876805Y-120292455D02*
X144977820Y-120460814D01*
X144977820Y-120460814D02*
X145011492Y-120561829D01*
X145011492Y-120561829D02*
X145011492Y-120696516D01*
X145011492Y-120696516D02*
X144944148Y-120831203D01*
X144944148Y-120831203D02*
X144775789Y-120999562D01*
X145112507Y-119248631D02*
X144775789Y-119585348D01*
X144775789Y-119585348D02*
X145078835Y-119955738D01*
X145078835Y-119955738D02*
X145078835Y-119888394D01*
X145078835Y-119888394D02*
X145112507Y-119787379D01*
X145112507Y-119787379D02*
X145280866Y-119619020D01*
X145280866Y-119619020D02*
X145381881Y-119585348D01*
X145381881Y-119585348D02*
X145449224Y-119585348D01*
X145449224Y-119585348D02*
X145550240Y-119619020D01*
X145550240Y-119619020D02*
X145718598Y-119787379D01*
X145718598Y-119787379D02*
X145752270Y-119888394D01*
X145752270Y-119888394D02*
X145752270Y-119955738D01*
X145752270Y-119955738D02*
X145718598Y-120056753D01*
X145718598Y-120056753D02*
X145550240Y-120225112D01*
X145550240Y-120225112D02*
X145449224Y-120258783D01*
X145449224Y-120258783D02*
X145381881Y-120258783D01*
X147676392Y-69558974D02*
X147978263Y-70206336D01*
X147978263Y-70206336D02*
X147995479Y-70355933D01*
X147995479Y-70355933D02*
X147949413Y-70482498D01*
X147949413Y-70482498D02*
X147840066Y-70586029D01*
X147840066Y-70586029D02*
X147753751Y-70626279D01*
X148418562Y-69685770D02*
X148312123Y-69682862D01*
X148312123Y-69682862D02*
X148248840Y-69659829D01*
X148248840Y-69659829D02*
X148165434Y-69593639D01*
X148165434Y-69593639D02*
X148145309Y-69550481D01*
X148145309Y-69550481D02*
X148148217Y-69444042D01*
X148148217Y-69444042D02*
X148171250Y-69380760D01*
X148171250Y-69380760D02*
X148237440Y-69297353D01*
X148237440Y-69297353D02*
X148410070Y-69216854D01*
X148410070Y-69216854D02*
X148516510Y-69219762D01*
X148516510Y-69219762D02*
X148579792Y-69242795D01*
X148579792Y-69242795D02*
X148663199Y-69308985D01*
X148663199Y-69308985D02*
X148683324Y-69352143D01*
X148683324Y-69352143D02*
X148680416Y-69458582D01*
X148680416Y-69458582D02*
X148657383Y-69521865D01*
X148657383Y-69521865D02*
X148591192Y-69605272D01*
X148591192Y-69605272D02*
X148418562Y-69685770D01*
X148418562Y-69685770D02*
X148352372Y-69769177D01*
X148352372Y-69769177D02*
X148329339Y-69832459D01*
X148329339Y-69832459D02*
X148326431Y-69938899D01*
X148326431Y-69938899D02*
X148406930Y-70111529D01*
X148406930Y-70111529D02*
X148490337Y-70177719D01*
X148490337Y-70177719D02*
X148553619Y-70200752D01*
X148553619Y-70200752D02*
X148660059Y-70203660D01*
X148660059Y-70203660D02*
X148832689Y-70123162D01*
X148832689Y-70123162D02*
X148898879Y-70039755D01*
X148898879Y-70039755D02*
X148921912Y-69976473D01*
X148921912Y-69976473D02*
X148924820Y-69870033D01*
X148924820Y-69870033D02*
X148844321Y-69697403D01*
X148844321Y-69697403D02*
X148760914Y-69631213D01*
X148760914Y-69631213D02*
X148697632Y-69608180D01*
X148697632Y-69608180D02*
X148591192Y-69605272D01*
X118112095Y-120377819D02*
X118112095Y-121187342D01*
X118112095Y-121187342D02*
X118159714Y-121282580D01*
X118159714Y-121282580D02*
X118207333Y-121330200D01*
X118207333Y-121330200D02*
X118302571Y-121377819D01*
X118302571Y-121377819D02*
X118493047Y-121377819D01*
X118493047Y-121377819D02*
X118588285Y-121330200D01*
X118588285Y-121330200D02*
X118635904Y-121282580D01*
X118635904Y-121282580D02*
X118683523Y-121187342D01*
X118683523Y-121187342D02*
X118683523Y-120377819D01*
X119635904Y-120377819D02*
X119159714Y-120377819D01*
X119159714Y-120377819D02*
X119112095Y-120854009D01*
X119112095Y-120854009D02*
X119159714Y-120806390D01*
X119159714Y-120806390D02*
X119254952Y-120758771D01*
X119254952Y-120758771D02*
X119493047Y-120758771D01*
X119493047Y-120758771D02*
X119588285Y-120806390D01*
X119588285Y-120806390D02*
X119635904Y-120854009D01*
X119635904Y-120854009D02*
X119683523Y-120949247D01*
X119683523Y-120949247D02*
X119683523Y-121187342D01*
X119683523Y-121187342D02*
X119635904Y-121282580D01*
X119635904Y-121282580D02*
X119588285Y-121330200D01*
X119588285Y-121330200D02*
X119493047Y-121377819D01*
X119493047Y-121377819D02*
X119254952Y-121377819D01*
X119254952Y-121377819D02*
X119159714Y-121330200D01*
X119159714Y-121330200D02*
X119112095Y-121282580D01*
X153397401Y-106727228D02*
X153095531Y-107374591D01*
X153095531Y-107374591D02*
X152991999Y-107483939D01*
X152991999Y-107483939D02*
X152865435Y-107530004D01*
X152865435Y-107530004D02*
X152715838Y-107512788D01*
X152715838Y-107512788D02*
X152629523Y-107472538D01*
X153449516Y-107854907D02*
X153622146Y-107935406D01*
X153622146Y-107935406D02*
X153728586Y-107932498D01*
X153728586Y-107932498D02*
X153791868Y-107909465D01*
X153791868Y-107909465D02*
X153938557Y-107820242D01*
X153938557Y-107820242D02*
X154062213Y-107667736D01*
X154062213Y-107667736D02*
X154223210Y-107322476D01*
X154223210Y-107322476D02*
X154220302Y-107216037D01*
X154220302Y-107216037D02*
X154197269Y-107152754D01*
X154197269Y-107152754D02*
X154131079Y-107069348D01*
X154131079Y-107069348D02*
X153958449Y-106988849D01*
X153958449Y-106988849D02*
X153852009Y-106991757D01*
X153852009Y-106991757D02*
X153788727Y-107014790D01*
X153788727Y-107014790D02*
X153705320Y-107080980D01*
X153705320Y-107080980D02*
X153604697Y-107296768D01*
X153604697Y-107296768D02*
X153607605Y-107403207D01*
X153607605Y-107403207D02*
X153630638Y-107466490D01*
X153630638Y-107466490D02*
X153696828Y-107549897D01*
X153696828Y-107549897D02*
X153869458Y-107630395D01*
X153869458Y-107630395D02*
X153975898Y-107627487D01*
X153975898Y-107627487D02*
X154039180Y-107604454D01*
X154039180Y-107604454D02*
X154122587Y-107538264D01*
X146333819Y-95261904D02*
X147143342Y-95261904D01*
X147143342Y-95261904D02*
X147238580Y-95214285D01*
X147238580Y-95214285D02*
X147286200Y-95166666D01*
X147286200Y-95166666D02*
X147333819Y-95071428D01*
X147333819Y-95071428D02*
X147333819Y-94880952D01*
X147333819Y-94880952D02*
X147286200Y-94785714D01*
X147286200Y-94785714D02*
X147238580Y-94738095D01*
X147238580Y-94738095D02*
X147143342Y-94690476D01*
X147143342Y-94690476D02*
X146333819Y-94690476D01*
X146333819Y-94309523D02*
X146333819Y-93690476D01*
X146333819Y-93690476D02*
X146714771Y-94023809D01*
X146714771Y-94023809D02*
X146714771Y-93880952D01*
X146714771Y-93880952D02*
X146762390Y-93785714D01*
X146762390Y-93785714D02*
X146810009Y-93738095D01*
X146810009Y-93738095D02*
X146905247Y-93690476D01*
X146905247Y-93690476D02*
X147143342Y-93690476D01*
X147143342Y-93690476D02*
X147238580Y-93738095D01*
X147238580Y-93738095D02*
X147286200Y-93785714D01*
X147286200Y-93785714D02*
X147333819Y-93880952D01*
X147333819Y-93880952D02*
X147333819Y-94166666D01*
X147333819Y-94166666D02*
X147286200Y-94261904D01*
X147286200Y-94261904D02*
X147238580Y-94309523D01*
X118042095Y-66954819D02*
X118042095Y-67764342D01*
X118042095Y-67764342D02*
X118089714Y-67859580D01*
X118089714Y-67859580D02*
X118137333Y-67907200D01*
X118137333Y-67907200D02*
X118232571Y-67954819D01*
X118232571Y-67954819D02*
X118423047Y-67954819D01*
X118423047Y-67954819D02*
X118518285Y-67907200D01*
X118518285Y-67907200D02*
X118565904Y-67859580D01*
X118565904Y-67859580D02*
X118613523Y-67764342D01*
X118613523Y-67764342D02*
X118613523Y-66954819D01*
X119042095Y-67050057D02*
X119089714Y-67002438D01*
X119089714Y-67002438D02*
X119184952Y-66954819D01*
X119184952Y-66954819D02*
X119423047Y-66954819D01*
X119423047Y-66954819D02*
X119518285Y-67002438D01*
X119518285Y-67002438D02*
X119565904Y-67050057D01*
X119565904Y-67050057D02*
X119613523Y-67145295D01*
X119613523Y-67145295D02*
X119613523Y-67240533D01*
X119613523Y-67240533D02*
X119565904Y-67383390D01*
X119565904Y-67383390D02*
X118994476Y-67954819D01*
X118994476Y-67954819D02*
X119613523Y-67954819D01*
X92577697Y-69361372D02*
X91870591Y-68654265D01*
X91870591Y-68654265D02*
X92038949Y-68485906D01*
X92038949Y-68485906D02*
X92173636Y-68418563D01*
X92173636Y-68418563D02*
X92308323Y-68418563D01*
X92308323Y-68418563D02*
X92409339Y-68452235D01*
X92409339Y-68452235D02*
X92577697Y-68553250D01*
X92577697Y-68553250D02*
X92678713Y-68654265D01*
X92678713Y-68654265D02*
X92779728Y-68822624D01*
X92779728Y-68822624D02*
X92813400Y-68923639D01*
X92813400Y-68923639D02*
X92813400Y-69058326D01*
X92813400Y-69058326D02*
X92746056Y-69193013D01*
X92746056Y-69193013D02*
X92577697Y-69361372D01*
X92981758Y-68149189D02*
X92880743Y-68182861D01*
X92880743Y-68182861D02*
X92813400Y-68182861D01*
X92813400Y-68182861D02*
X92712384Y-68149189D01*
X92712384Y-68149189D02*
X92678713Y-68115517D01*
X92678713Y-68115517D02*
X92645041Y-68014502D01*
X92645041Y-68014502D02*
X92645041Y-67947158D01*
X92645041Y-67947158D02*
X92678713Y-67846143D01*
X92678713Y-67846143D02*
X92813400Y-67711456D01*
X92813400Y-67711456D02*
X92914415Y-67677784D01*
X92914415Y-67677784D02*
X92981758Y-67677784D01*
X92981758Y-67677784D02*
X93082774Y-67711456D01*
X93082774Y-67711456D02*
X93116445Y-67745128D01*
X93116445Y-67745128D02*
X93150117Y-67846143D01*
X93150117Y-67846143D02*
X93150117Y-67913487D01*
X93150117Y-67913487D02*
X93116445Y-68014502D01*
X93116445Y-68014502D02*
X92981758Y-68149189D01*
X92981758Y-68149189D02*
X92948087Y-68250204D01*
X92948087Y-68250204D02*
X92948087Y-68317548D01*
X92948087Y-68317548D02*
X92981758Y-68418563D01*
X92981758Y-68418563D02*
X93116445Y-68553250D01*
X93116445Y-68553250D02*
X93217461Y-68586922D01*
X93217461Y-68586922D02*
X93284804Y-68586922D01*
X93284804Y-68586922D02*
X93385819Y-68553250D01*
X93385819Y-68553250D02*
X93520506Y-68418563D01*
X93520506Y-68418563D02*
X93554178Y-68317548D01*
X93554178Y-68317548D02*
X93554178Y-68250204D01*
X93554178Y-68250204D02*
X93520506Y-68149189D01*
X93520506Y-68149189D02*
X93385819Y-68014502D01*
X93385819Y-68014502D02*
X93284804Y-67980830D01*
X93284804Y-67980830D02*
X93217461Y-67980830D01*
X93217461Y-67980830D02*
X93116445Y-68014502D01*
X144116527Y-68527597D02*
X144823634Y-67820491D01*
X144823634Y-67820491D02*
X144991993Y-67988849D01*
X144991993Y-67988849D02*
X145059336Y-68123536D01*
X145059336Y-68123536D02*
X145059336Y-68258223D01*
X145059336Y-68258223D02*
X145025664Y-68359239D01*
X145025664Y-68359239D02*
X144924649Y-68527597D01*
X144924649Y-68527597D02*
X144823634Y-68628613D01*
X144823634Y-68628613D02*
X144655275Y-68729628D01*
X144655275Y-68729628D02*
X144554260Y-68763300D01*
X144554260Y-68763300D02*
X144419573Y-68763300D01*
X144419573Y-68763300D02*
X144284886Y-68695956D01*
X144284886Y-68695956D02*
X144116527Y-68527597D01*
X145463397Y-68460254D02*
X145934802Y-68931658D01*
X145934802Y-68931658D02*
X144924649Y-69335719D01*
D11*
X120564000Y-127520000D02*
X120964000Y-127520000D01*
X120274000Y-127520000D02*
X120274000Y-127520000D01*
X120274000Y-127520000D02*
X120274000Y-127390000D01*
X120274000Y-127390000D02*
X120274000Y-127520000D01*
X120274000Y-127390000D02*
X120274000Y-127390000D01*
X117734000Y-127520000D02*
X117734000Y-127520000D01*
X117734000Y-127520000D02*
X117734000Y-127390000D01*
X117734000Y-127390000D02*
X117734000Y-127520000D01*
X117734000Y-127390000D02*
X117734000Y-127390000D01*
X117444000Y-127520000D02*
X120564000Y-127520000D01*
X117114000Y-60810000D02*
X116714000Y-60810000D01*
X117404000Y-60810000D02*
X117404000Y-60810000D01*
X117404000Y-60810000D02*
X117404000Y-60940000D01*
X117404000Y-60940000D02*
X117404000Y-60810000D01*
X117404000Y-60940000D02*
X117404000Y-60940000D01*
X119944000Y-60810000D02*
X119944000Y-60810000D01*
X119944000Y-60810000D02*
X119944000Y-60940000D01*
X119944000Y-60940000D02*
X119944000Y-60810000D01*
X119944000Y-60940000D02*
X119944000Y-60940000D01*
X120234000Y-60810000D02*
X117114000Y-60810000D01*
X85504000Y-95850000D02*
X85504000Y-96250000D01*
X85504000Y-95560000D02*
X85504000Y-95560000D01*
X85504000Y-95560000D02*
X85634000Y-95560000D01*
X85634000Y-95560000D02*
X85504000Y-95560000D01*
X85634000Y-95560000D02*
X85634000Y-95560000D01*
X85504000Y-93020000D02*
X85504000Y-93020000D01*
X85504000Y-93020000D02*
X85634000Y-93020000D01*
X85634000Y-93020000D02*
X85504000Y-93020000D01*
X85634000Y-93020000D02*
X85634000Y-93020000D01*
X85504000Y-92730000D02*
X85504000Y-95850000D01*
X152744000Y-92970000D02*
X152744000Y-92570000D01*
X152744000Y-93260000D02*
X152744000Y-93260000D01*
X152744000Y-93260000D02*
X152614000Y-93260000D01*
X152614000Y-93260000D02*
X152744000Y-93260000D01*
X152614000Y-93260000D02*
X152614000Y-93260000D01*
X152744000Y-95800000D02*
X152744000Y-95800000D01*
X152744000Y-95800000D02*
X152614000Y-95800000D01*
X152614000Y-95800000D02*
X152744000Y-95800000D01*
X152614000Y-95800000D02*
X152614000Y-95800000D01*
X152744000Y-96090000D02*
X152744000Y-92970000D01*
X87644000Y-91698001D02*
G75*
G03*
X87644000Y-96897999I1100000J-2599999D01*
G01*
X87644000Y-97358000D02*
X88844000Y-97358000D01*
X87644000Y-97358000D02*
X87644000Y-96898000D01*
X91304000Y-97278000D02*
X91304000Y-94198000D01*
X87644000Y-91698000D02*
X87644000Y-91478000D01*
X102264000Y-83058000D02*
X102264000Y-80458000D01*
X104924000Y-80458000D02*
X102264000Y-80458000D01*
X104924000Y-83058000D02*
X102264000Y-83058000D01*
X104924000Y-83058000D02*
X104924000Y-80458000D01*
X104924000Y-84328000D02*
X104924000Y-85658000D01*
X104924000Y-85658000D02*
X103594000Y-85658000D01*
X146754759Y-88134036D02*
G75*
G03*
X150963999Y-88148000I2109241J1386036D01*
G01*
X150973241Y-85361964D02*
G75*
G03*
X146764001Y-85348000I-2109241J-1386036D01*
G01*
X146764000Y-85348000D02*
X146764000Y-88148000D01*
X150964000Y-85348000D02*
X150964000Y-88148000D01*
X130810000Y-100524000D02*
X133410000Y-100524000D01*
X133410000Y-103184000D02*
X133410000Y-100524000D01*
X130810000Y-103184000D02*
X130810000Y-100524000D01*
X130810000Y-103184000D02*
X133410000Y-103184000D01*
X129540000Y-103184000D02*
X128210000Y-103184000D01*
X128210000Y-103184000D02*
X128210000Y-101854000D01*
X130810000Y-87944000D02*
X128210000Y-87944000D01*
X128210000Y-85284000D02*
X128210000Y-87944000D01*
X130810000Y-85284000D02*
X130810000Y-87944000D01*
X130810000Y-85284000D02*
X128210000Y-85284000D01*
X132080000Y-85284000D02*
X133410000Y-85284000D01*
X133410000Y-85284000D02*
X133410000Y-86614000D01*
X130810000Y-90484000D02*
X128210000Y-90484000D01*
X128210000Y-87824000D02*
X128210000Y-90484000D01*
X130810000Y-87824000D02*
X130810000Y-90484000D01*
X130810000Y-87824000D02*
X128210000Y-87824000D01*
X132080000Y-87824000D02*
X133410000Y-87824000D01*
X133410000Y-87824000D02*
X133410000Y-89154000D01*
X90094000Y-117348000D02*
X91044000Y-117348000D01*
X91044000Y-116428000D02*
X91044000Y-118268000D01*
X91044000Y-118268000D02*
X94884000Y-118268000D01*
X94884000Y-116428000D02*
X91044000Y-116428000D01*
X94884000Y-118268000D02*
X94884000Y-116428000D01*
X95834000Y-117348000D02*
X94884000Y-117348000D01*
X130704000Y-117348000D02*
X131654000Y-117348000D01*
X131654000Y-116428000D02*
X131654000Y-118268000D01*
X131654000Y-118268000D02*
X135494000Y-118268000D01*
X135494000Y-116428000D02*
X131654000Y-116428000D01*
X135494000Y-118268000D02*
X135494000Y-116428000D01*
X136444000Y-117348000D02*
X135494000Y-117348000D01*
X104762000Y-63694000D02*
X107362000Y-63694000D01*
X107362000Y-66354000D02*
X107362000Y-63694000D01*
X104762000Y-66354000D02*
X104762000Y-63694000D01*
X104762000Y-66354000D02*
X107362000Y-66354000D01*
X103492000Y-66354000D02*
X102162000Y-66354000D01*
X102162000Y-66354000D02*
X102162000Y-65024000D01*
X87754000Y-75208000D02*
X86254000Y-75208000D01*
X83754000Y-76458000D02*
X83754000Y-80958000D01*
X90254000Y-80958000D02*
X90254000Y-76458000D01*
X86254000Y-82208000D02*
X87754000Y-82208000D01*
X99209001Y-65058639D02*
G75*
G03*
X97116474Y-61406348I-2254963J1133639D01*
G01*
X94699075Y-62791361D02*
G75*
G03*
X96791603Y-66443652I2254963J-1133639D01*
G01*
X96791603Y-66443653D02*
X99216474Y-65043653D01*
X94691603Y-62806347D02*
X97116474Y-61406347D01*
X131944000Y-63070000D02*
X139624000Y-63070000D01*
X139624000Y-65730000D02*
X139624000Y-63070000D01*
X131944000Y-65730000D02*
X131944000Y-63070000D01*
X131944000Y-65730000D02*
X139624000Y-65730000D01*
X130674000Y-65730000D02*
X129344000Y-65730000D01*
X129344000Y-65730000D02*
X129344000Y-64400000D01*
X86747808Y-123933870D02*
G75*
G03*
X88953981Y-126140044I1103086J-1103087D01*
G01*
X91174296Y-124485414D02*
X90891453Y-124202571D01*
X91966256Y-123693454D02*
X91174296Y-124485414D01*
X90891453Y-124202571D02*
X91683413Y-123410611D01*
X91683413Y-123410611D02*
X91966256Y-123693454D01*
X91683413Y-123410611D02*
X88953981Y-126140044D01*
X91478352Y-123205550D02*
X91478352Y-123205550D01*
X91478352Y-123205550D02*
X91570276Y-123113627D01*
X91570276Y-123113627D02*
X91478352Y-123205550D01*
X91570276Y-123113627D02*
X91570276Y-123113627D01*
X89682301Y-121409499D02*
X89682301Y-121409499D01*
X89682301Y-121409499D02*
X89774225Y-121317575D01*
X89774225Y-121317575D02*
X89682301Y-121409499D01*
X89774225Y-121317575D02*
X89774225Y-121317575D01*
X89477240Y-121204438D02*
X91683413Y-123410611D01*
X89477240Y-121204438D02*
X86747808Y-123933870D01*
X130734000Y-112268000D02*
X131684000Y-112268000D01*
X131684000Y-111348000D02*
X131684000Y-113188000D01*
X131684000Y-113188000D02*
X135524000Y-113188000D01*
X135524000Y-111348000D02*
X131684000Y-111348000D01*
X135524000Y-113188000D02*
X135524000Y-111348000D01*
X136474000Y-112268000D02*
X135524000Y-112268000D01*
X96802440Y-122130124D02*
G75*
G03*
X94685726Y-125768453I145722J-2519676D01*
G01*
X97093884Y-127169475D02*
G75*
G03*
X99210597Y-123531147I-145722J2519675D01*
G01*
X99210597Y-123531147D02*
X96785726Y-122131147D01*
X97110597Y-127168453D02*
X94685726Y-125768453D01*
X130664000Y-114808000D02*
X131614000Y-114808000D01*
X131614000Y-113888000D02*
X131614000Y-115728000D01*
X131614000Y-115728000D02*
X135454000Y-115728000D01*
X135454000Y-113888000D02*
X131614000Y-113888000D01*
X135454000Y-115728000D02*
X135454000Y-113888000D01*
X136404000Y-114808000D02*
X135454000Y-114808000D01*
X148843970Y-126230092D02*
G75*
G03*
X151050144Y-124023919I1103087J1103086D01*
G01*
X149395514Y-121803604D02*
X149112671Y-122086447D01*
X148603554Y-121011644D02*
X149395514Y-121803604D01*
X149112671Y-122086447D02*
X148320711Y-121294487D01*
X148320711Y-121294487D02*
X148603554Y-121011644D01*
X148320711Y-121294487D02*
X151050144Y-124023919D01*
X148115650Y-121499548D02*
X148115650Y-121499548D01*
X148115650Y-121499548D02*
X148023727Y-121407624D01*
X148023727Y-121407624D02*
X148115650Y-121499548D01*
X148023727Y-121407624D02*
X148023727Y-121407624D01*
X146319599Y-123295599D02*
X146319599Y-123295599D01*
X146319599Y-123295599D02*
X146227675Y-123203675D01*
X146227675Y-123203675D02*
X146319599Y-123295599D01*
X146227675Y-123203675D02*
X146227675Y-123203675D01*
X146114538Y-123500660D02*
X148320711Y-121294487D01*
X146114538Y-123500660D02*
X148843970Y-126230092D01*
X150935715Y-72612829D02*
X154181423Y-79573272D01*
X151770644Y-80697437D02*
X154181423Y-79573272D01*
X148524936Y-73736993D02*
X150935715Y-72612829D01*
X148524936Y-73736993D02*
X151770644Y-80697437D01*
X147988211Y-72585982D02*
X147426128Y-71380593D01*
X147426128Y-71380593D02*
X148631518Y-70818511D01*
X116414001Y-125473000D02*
G75*
G03*
X121613999Y-125473000I2599999J1100000D01*
G01*
X122074000Y-125473000D02*
X122074000Y-124273000D01*
X122074000Y-125473000D02*
X121614000Y-125473000D01*
X121994000Y-121813000D02*
X118914000Y-121813000D01*
X116414000Y-125473000D02*
X116194000Y-125473000D01*
X153153064Y-111186993D02*
X149907356Y-118147437D01*
X147496577Y-117023272D02*
X149907356Y-118147437D01*
X150742285Y-110062829D02*
X153153064Y-111186993D01*
X150742285Y-110062829D02*
X147496577Y-117023272D01*
X151279011Y-108911818D02*
X151841093Y-107706428D01*
X151841093Y-107706428D02*
X153046482Y-108268511D01*
X150539000Y-96999999D02*
G75*
G03*
X150539000Y-91800001I-1100000J2599999D01*
G01*
X150539000Y-91340000D02*
X149339000Y-91340000D01*
X150539000Y-91340000D02*
X150539000Y-91800000D01*
X146879000Y-91420000D02*
X146879000Y-94500000D01*
X150539000Y-97000000D02*
X150539000Y-97220000D01*
X121263999Y-62950000D02*
G75*
G03*
X116064001Y-62950000I-2599999J-1100000D01*
G01*
X115604000Y-62950000D02*
X115604000Y-64150000D01*
X115604000Y-62950000D02*
X116064000Y-62950000D01*
X115684000Y-66610000D02*
X118764000Y-66610000D01*
X121264000Y-62950000D02*
X121484000Y-62950000D01*
X88910130Y-62443808D02*
G75*
G03*
X86703956Y-64649981I-1103087J-1103086D01*
G01*
X88358586Y-66870296D02*
X88641429Y-66587453D01*
X89150546Y-67662256D02*
X88358586Y-66870296D01*
X88641429Y-66587453D02*
X89433389Y-67379413D01*
X89433389Y-67379413D02*
X89150546Y-67662256D01*
X89433389Y-67379413D02*
X86703956Y-64649981D01*
X89638450Y-67174352D02*
X89638450Y-67174352D01*
X89638450Y-67174352D02*
X89730373Y-67266276D01*
X89730373Y-67266276D02*
X89638450Y-67174352D01*
X89730373Y-67266276D02*
X89730373Y-67266276D01*
X91434501Y-65378301D02*
X91434501Y-65378301D01*
X91434501Y-65378301D02*
X91526425Y-65470225D01*
X91526425Y-65470225D02*
X91434501Y-65378301D01*
X91526425Y-65470225D02*
X91526425Y-65470225D01*
X91639562Y-65173240D02*
X89433389Y-67379413D01*
X91639562Y-65173240D02*
X88910130Y-62443808D01*
X151034092Y-64860030D02*
G75*
G03*
X148827919Y-62653856I-1103086J1103087D01*
G01*
X146607604Y-64308486D02*
X146890447Y-64591329D01*
X145815644Y-65100446D02*
X146607604Y-64308486D01*
X146890447Y-64591329D02*
X146098487Y-65383289D01*
X146098487Y-65383289D02*
X145815644Y-65100446D01*
X146098487Y-65383289D02*
X148827919Y-62653856D01*
X146303548Y-65588350D02*
X146303548Y-65588350D01*
X146303548Y-65588350D02*
X146211624Y-65680273D01*
X146211624Y-65680273D02*
X146303548Y-65588350D01*
X146211624Y-65680273D02*
X146211624Y-65680273D01*
X148099599Y-67384401D02*
X148099599Y-67384401D01*
X148099599Y-67384401D02*
X148007675Y-67476325D01*
X148007675Y-67476325D02*
X148099599Y-67384401D01*
X148007675Y-67476325D02*
X148007675Y-67476325D01*
X148304660Y-67589462D02*
X146098487Y-65383289D01*
X148304660Y-67589462D02*
X151034092Y-64860030D01*
%LPC*%
D12*
X120274000Y-126310000D03*
D13*
X117734000Y-126310000D03*
D12*
X117404000Y-62020000D03*
D13*
X119944000Y-62020000D03*
D12*
X86714000Y-95560000D03*
D13*
X86714000Y-93020000D03*
D12*
X151534000Y-93260000D03*
D13*
X151534000Y-95800000D03*
D12*
X89944000Y-96738000D03*
X89944000Y-94198000D03*
D14*
X89944000Y-91658000D03*
D15*
X103594000Y-81788000D03*
D16*
X103594000Y-84328000D03*
D17*
X148864000Y-88248000D03*
X148864000Y-85248000D03*
D15*
X132080000Y-101854000D03*
D16*
X129540000Y-101854000D03*
D15*
X129540000Y-86614000D03*
D16*
X132080000Y-86614000D03*
D15*
X129540000Y-89154000D03*
D16*
X132080000Y-89154000D03*
D18*
X89154000Y-117348000D03*
D19*
X96774000Y-117348000D03*
D18*
X129764000Y-117348000D03*
D19*
X137384000Y-117348000D03*
D15*
X106032000Y-65024000D03*
D16*
X103492000Y-65024000D03*
D20*
X89254000Y-75458000D03*
X89254000Y-81958000D03*
X84754000Y-75458000D03*
X84754000Y-81958000D03*
D17*
X98253076Y-63175000D03*
X95655000Y-64675000D03*
D15*
X138294000Y-64400000D03*
X135754000Y-64400000D03*
X133214000Y-64400000D03*
D16*
X130674000Y-64400000D03*
D12*
X92333951Y-122349951D03*
D21*
X90537900Y-120553900D03*
D18*
X129794000Y-112268000D03*
D19*
X137414000Y-112268000D03*
D17*
X95649124Y-123899800D03*
X98247200Y-125399800D03*
D18*
X129724000Y-114808000D03*
D19*
X137344000Y-114808000D03*
D12*
X147260051Y-120643949D03*
D22*
X145464000Y-122440000D03*
D23*
X152413951Y-78929965D03*
X151340501Y-76627944D03*
X150267050Y-74325922D03*
D24*
X149193600Y-72023900D03*
D12*
X121454000Y-123173000D03*
X118914000Y-123173000D03*
D25*
X116374000Y-123173000D03*
D26*
X149264049Y-116379965D03*
X150337499Y-114077944D03*
X151410950Y-111775922D03*
D27*
X152484400Y-109473900D03*
D12*
X148239000Y-91960000D03*
X148239000Y-94500000D03*
D28*
X148239000Y-97040000D03*
D12*
X116224000Y-65250000D03*
X118764000Y-65250000D03*
D29*
X121304000Y-65250000D03*
D12*
X90494049Y-68029951D03*
D30*
X92290100Y-66233900D03*
D12*
X145447949Y-66443949D03*
D31*
X147244000Y-68240000D03*
D32*
X86406895Y-97862277D03*
X88487541Y-99319161D03*
X90568187Y-100776045D03*
X92648834Y-102232930D03*
X94729480Y-103689814D03*
X96810126Y-105146698D03*
X98890772Y-106603582D03*
X100971418Y-108060466D03*
X103052065Y-109517350D03*
X105132711Y-110974234D03*
X107213357Y-112431119D03*
X109294003Y-113888003D03*
X111374649Y-115344887D03*
X113455296Y-116801771D03*
X115535942Y-118258655D03*
X124277247Y-105774778D03*
X122196601Y-104317894D03*
X120115954Y-102861010D03*
X118035308Y-101404126D03*
X115954662Y-99947241D03*
X113874016Y-98490357D03*
X111793370Y-97033473D03*
X109712723Y-95576589D03*
X107632077Y-94119705D03*
X105551431Y-92662821D03*
X103470785Y-91205937D03*
X101390139Y-89749052D03*
X99309492Y-88292168D03*
X97228846Y-86835284D03*
D33*
X95148200Y-85378400D03*
D34*
X136144000Y-86868000D03*
X136144000Y-89408000D03*
X136144000Y-91948000D03*
X136144000Y-94488000D03*
X136144000Y-97028000D03*
X136144000Y-99568000D03*
X136144000Y-102108000D03*
X143764000Y-102108000D03*
X143764000Y-99568000D03*
X143764000Y-97028000D03*
X143764000Y-94488000D03*
X143764000Y-91948000D03*
X143764000Y-89408000D03*
D35*
X143764000Y-86868000D03*
D36*
X88819000Y-112588000D03*
X91359000Y-110048000D03*
X88819000Y-107508000D03*
D15*
X136624000Y-76188000D03*
X136624000Y-73648000D03*
X134084000Y-76188000D03*
X134084000Y-73648000D03*
X131544000Y-76188000D03*
X131544000Y-73648000D03*
X129004000Y-76188000D03*
X129004000Y-73648000D03*
X126464000Y-76188000D03*
X126464000Y-73648000D03*
X123924000Y-76188000D03*
X123924000Y-73648000D03*
X121384000Y-76188000D03*
X121384000Y-73648000D03*
X118844000Y-76188000D03*
X118844000Y-73648000D03*
X116304000Y-76188000D03*
X116304000Y-73648000D03*
X113764000Y-76188000D03*
X113764000Y-73648000D03*
X111224000Y-76188000D03*
X111224000Y-73648000D03*
X108684000Y-76188000D03*
X108684000Y-73648000D03*
X106144000Y-76188000D03*
X106144000Y-73648000D03*
X103604000Y-76188000D03*
X103604000Y-73648000D03*
X101064000Y-76188000D03*
D16*
X101064000Y-73648000D03*
%LPD*%
M02*
