M48
; DRILL file {KiCad 7.0.5-7.0.5~ubuntu20.04.1} date Wed 13 Sep 2023 16:29:29 BST
; FORMAT={-:-/ absolute / inch / decimal}
; #@! TF.CreationDate,2023-09-13T16:29:29+01:00
; #@! TF.GenerationSoftware,Kicad,Pcbnew,7.0.5-7.0.5~ubuntu20.04.1
; #@! TF.FileFunction,Plated,1,2,PTH
FMAT,2
INCH
; #@! TA.AperFunction,Plated,PTH,ViaDrill
T1C0.0157
; #@! TA.AperFunction,Plated,PTH,ComponentDrill
T2C0.0276
; #@! TA.AperFunction,Plated,PTH,ComponentDrill
T3C0.0295
; #@! TA.AperFunction,Plated,PTH,ComponentDrill
T4C0.0315
; #@! TA.AperFunction,Plated,PTH,ComponentDrill
T5C0.0354
; #@! TA.AperFunction,Plated,PTH,ComponentDrill
T6C0.0394
; #@! TA.AperFunction,Plated,PTH,ComponentDrill
T7C0.0433
%
G90
G05
T1
X4.5819Y-3.1742
X5.385Y-2.7402
X5.5189Y-3.9163
T2
X3.51Y-4.62
X3.81Y-4.62
X5.1072Y-4.52
X5.1088Y-4.62
X5.11Y-4.42
X5.4072Y-4.52
X5.4088Y-4.62
X5.41Y-4.42
T3
X4.9051Y-3.2327
X5.2051Y-3.2327
T4
X3.4018Y-3.8528
X3.4838Y-3.9102
X3.4968Y-4.2326
X3.4968Y-4.4326
X3.5657Y-3.9676
X3.5968Y-4.3326
X3.6476Y-4.0249
X3.7295Y-4.0823
X3.7391Y-4.8901
X3.7393Y-2.5373
X3.746Y-3.3614
X3.8114Y-4.1396
X3.8279Y-3.4187
X3.8572Y-4.8901
X3.8574Y-2.5373
X3.8933Y-4.197
X3.9098Y-3.4761
X3.9753Y-4.2543
X3.9917Y-3.5334
X4.0572Y-4.3117
X4.0737Y-3.5908
X4.1391Y-4.3691
X4.1556Y-3.6481
X4.221Y-4.4264
X4.2375Y-3.7055
X4.3029Y-4.4838
X4.3194Y-3.7629
X4.3848Y-4.5411
X4.4013Y-3.8202
X4.4667Y-4.5985
X4.4832Y-3.8776
X4.5487Y-4.6559
X4.5651Y-3.9349
X4.6471Y-3.9923
X4.729Y-4.0496
X4.8109Y-4.107
X4.8928Y-4.1644
X5.36Y-3.42
X5.36Y-3.52
X5.36Y-3.62
X5.36Y-3.72
X5.36Y-3.82
X5.36Y-3.92
X5.36Y-4.02
X5.66Y-3.42
X5.66Y-3.52
X5.66Y-3.62
X5.66Y-3.72
X5.66Y-3.82
X5.66Y-3.92
X5.66Y-4.02
X5.8608Y-3.3562
X5.8608Y-3.4743
T5
X3.4927Y-3.4015
X3.4927Y-3.5015
X3.5411Y-3.6086
X3.5411Y-3.7086
X3.5411Y-3.8086
X4.3781Y-4.885
X4.4781Y-4.885
X4.5817Y-4.8493
X4.5832Y-2.5698
X4.6817Y-4.8493
X4.6832Y-2.5698
X4.7817Y-4.8493
X4.7832Y-2.5698
X4.8935Y-2.5365
X4.9935Y-2.5365
X5.8234Y-3.6106
X5.8234Y-3.7106
X5.8234Y-3.8106
X5.8663Y-3.9153
X5.8663Y-4.0153
T6
X3.9789Y-2.8995
X3.9789Y-2.9995
X4.0745Y-2.56
X4.0785Y-3.22
X4.0785Y-3.32
X4.0789Y-2.8995
X4.0789Y-2.9995
X4.1745Y-2.56
X4.1789Y-2.8995
X4.1789Y-2.9995
X4.2789Y-2.8995
X4.2789Y-2.9995
X4.3789Y-2.8995
X4.3789Y-2.9995
X4.4789Y-2.8995
X4.4789Y-2.9995
X4.5789Y-2.8995
X4.5789Y-2.9995
X4.6789Y-2.8995
X4.6789Y-2.9995
X4.7789Y-2.8995
X4.7789Y-2.9995
X4.8789Y-2.8995
X4.8789Y-2.9995
X4.9789Y-2.8995
X4.9789Y-2.9995
X5.0789Y-2.8995
X5.0789Y-2.9995
X5.1Y-3.41
X5.1Y-3.51
X5.1Y-4.01
X5.1446Y-2.5354
X5.1789Y-2.8995
X5.1789Y-2.9995
X5.2Y-3.41
X5.2Y-3.51
X5.2Y-4.01
X5.2446Y-2.5354
X5.2789Y-2.8995
X5.2789Y-2.9995
X5.3446Y-2.5354
X5.3789Y-2.8995
X5.3789Y-2.9995
X5.4446Y-2.5354
X5.8497Y-4.703
X5.8517Y-2.7045
X5.892Y-4.6124
X5.894Y-2.7951
X5.9343Y-4.5217
X5.9362Y-2.8857
X5.9765Y-4.4311
X5.9785Y-2.9764
T7
X3.3368Y-2.9708
X3.3368Y-3.2267
X3.5139Y-2.9708
X3.5139Y-3.2267
T0
M30
