G04 #@! TF.GenerationSoftware,KiCad,Pcbnew,7.0.5-7.0.5~ubuntu20.04.1*
G04 #@! TF.CreationDate,2023-09-13T16:29:25+01:00*
G04 #@! TF.ProjectId,Swarm-B_20230626,53776172-6d2d-4425-9f32-303233303632,rev?*
G04 #@! TF.SameCoordinates,Original*
G04 #@! TF.FileFunction,AssemblyDrawing,Top*
%FSLAX46Y46*%
G04 Gerber Fmt 4.6, Leading zero omitted, Abs format (unit mm)*
G04 Created by KiCad (PCBNEW 7.0.5-7.0.5~ubuntu20.04.1) date 2023-09-13 16:29:25*
%MOMM*%
%LPD*%
G01*
G04 APERTURE LIST*
%ADD10C,0.150000*%
%ADD11C,0.091200*%
%ADD12C,0.108000*%
%ADD13C,0.100000*%
G04 APERTURE END LIST*
D10*
X114672860Y-125051764D02*
X114672860Y-124051764D01*
X115720478Y-125051764D02*
X115387145Y-124575573D01*
X115149050Y-125051764D02*
X115149050Y-124051764D01*
X115149050Y-124051764D02*
X115530002Y-124051764D01*
X115530002Y-124051764D02*
X115625240Y-124099383D01*
X115625240Y-124099383D02*
X115672859Y-124147002D01*
X115672859Y-124147002D02*
X115720478Y-124242240D01*
X115720478Y-124242240D02*
X115720478Y-124385097D01*
X115720478Y-124385097D02*
X115672859Y-124480335D01*
X115672859Y-124480335D02*
X115625240Y-124527954D01*
X115625240Y-124527954D02*
X115530002Y-124575573D01*
X115530002Y-124575573D02*
X115149050Y-124575573D01*
X115910955Y-125147002D02*
X116672859Y-125147002D01*
X117387145Y-125051764D02*
X116910955Y-125051764D01*
X116910955Y-125051764D02*
X116910955Y-124051764D01*
X117720479Y-124527954D02*
X118053812Y-124527954D01*
X118196669Y-125051764D02*
X117720479Y-125051764D01*
X117720479Y-125051764D02*
X117720479Y-124051764D01*
X117720479Y-124051764D02*
X118196669Y-124051764D01*
X118625241Y-125051764D02*
X118625241Y-124051764D01*
X118625241Y-124051764D02*
X118863336Y-124051764D01*
X118863336Y-124051764D02*
X119006193Y-124099383D01*
X119006193Y-124099383D02*
X119101431Y-124194621D01*
X119101431Y-124194621D02*
X119149050Y-124289859D01*
X119149050Y-124289859D02*
X119196669Y-124480335D01*
X119196669Y-124480335D02*
X119196669Y-124623192D01*
X119196669Y-124623192D02*
X119149050Y-124813668D01*
X119149050Y-124813668D02*
X119101431Y-124908906D01*
X119101431Y-124908906D02*
X119006193Y-125004145D01*
X119006193Y-125004145D02*
X118863336Y-125051764D01*
X118863336Y-125051764D02*
X118625241Y-125051764D01*
X124802753Y-68448328D02*
X124802753Y-67448328D01*
X125850371Y-68448328D02*
X125517038Y-67972137D01*
X125278943Y-68448328D02*
X125278943Y-67448328D01*
X125278943Y-67448328D02*
X125659895Y-67448328D01*
X125659895Y-67448328D02*
X125755133Y-67495947D01*
X125755133Y-67495947D02*
X125802752Y-67543566D01*
X125802752Y-67543566D02*
X125850371Y-67638804D01*
X125850371Y-67638804D02*
X125850371Y-67781661D01*
X125850371Y-67781661D02*
X125802752Y-67876899D01*
X125802752Y-67876899D02*
X125755133Y-67924518D01*
X125755133Y-67924518D02*
X125659895Y-67972137D01*
X125659895Y-67972137D02*
X125278943Y-67972137D01*
X126040848Y-68543566D02*
X126802752Y-68543566D01*
X127517038Y-68448328D02*
X127040848Y-68448328D01*
X127040848Y-68448328D02*
X127040848Y-67448328D01*
X127850372Y-67924518D02*
X128183705Y-67924518D01*
X128326562Y-68448328D02*
X127850372Y-68448328D01*
X127850372Y-68448328D02*
X127850372Y-67448328D01*
X127850372Y-67448328D02*
X128326562Y-67448328D01*
X128755134Y-68448328D02*
X128755134Y-67448328D01*
X128755134Y-67448328D02*
X128993229Y-67448328D01*
X128993229Y-67448328D02*
X129136086Y-67495947D01*
X129136086Y-67495947D02*
X129231324Y-67591185D01*
X129231324Y-67591185D02*
X129278943Y-67686423D01*
X129278943Y-67686423D02*
X129326562Y-67876899D01*
X129326562Y-67876899D02*
X129326562Y-68019756D01*
X129326562Y-68019756D02*
X129278943Y-68210232D01*
X129278943Y-68210232D02*
X129231324Y-68305470D01*
X129231324Y-68305470D02*
X129136086Y-68400709D01*
X129136086Y-68400709D02*
X128993229Y-68448328D01*
X128993229Y-68448328D02*
X128755134Y-68448328D01*
X92493575Y-89702401D02*
X91493575Y-89702401D01*
X92493575Y-88654783D02*
X92017384Y-88988116D01*
X92493575Y-89226211D02*
X91493575Y-89226211D01*
X91493575Y-89226211D02*
X91493575Y-88845259D01*
X91493575Y-88845259D02*
X91541194Y-88750021D01*
X91541194Y-88750021D02*
X91588813Y-88702402D01*
X91588813Y-88702402D02*
X91684051Y-88654783D01*
X91684051Y-88654783D02*
X91826908Y-88654783D01*
X91826908Y-88654783D02*
X91922146Y-88702402D01*
X91922146Y-88702402D02*
X91969765Y-88750021D01*
X91969765Y-88750021D02*
X92017384Y-88845259D01*
X92017384Y-88845259D02*
X92017384Y-89226211D01*
X92588813Y-88464307D02*
X92588813Y-87702402D01*
X92493575Y-86988116D02*
X92493575Y-87464306D01*
X92493575Y-87464306D02*
X91493575Y-87464306D01*
X91969765Y-86654782D02*
X91969765Y-86321449D01*
X92493575Y-86178592D02*
X92493575Y-86654782D01*
X92493575Y-86654782D02*
X91493575Y-86654782D01*
X91493575Y-86654782D02*
X91493575Y-86178592D01*
X92493575Y-85750020D02*
X91493575Y-85750020D01*
X91493575Y-85750020D02*
X91493575Y-85511925D01*
X91493575Y-85511925D02*
X91541194Y-85369068D01*
X91541194Y-85369068D02*
X91636432Y-85273830D01*
X91636432Y-85273830D02*
X91731670Y-85226211D01*
X91731670Y-85226211D02*
X91922146Y-85178592D01*
X91922146Y-85178592D02*
X92065003Y-85178592D01*
X92065003Y-85178592D02*
X92255479Y-85226211D01*
X92255479Y-85226211D02*
X92350717Y-85273830D01*
X92350717Y-85273830D02*
X92445956Y-85369068D01*
X92445956Y-85369068D02*
X92493575Y-85511925D01*
X92493575Y-85511925D02*
X92493575Y-85750020D01*
X146898350Y-102921470D02*
X145898350Y-102921470D01*
X146898350Y-101873852D02*
X146422159Y-102207185D01*
X146898350Y-102445280D02*
X145898350Y-102445280D01*
X145898350Y-102445280D02*
X145898350Y-102064328D01*
X145898350Y-102064328D02*
X145945969Y-101969090D01*
X145945969Y-101969090D02*
X145993588Y-101921471D01*
X145993588Y-101921471D02*
X146088826Y-101873852D01*
X146088826Y-101873852D02*
X146231683Y-101873852D01*
X146231683Y-101873852D02*
X146326921Y-101921471D01*
X146326921Y-101921471D02*
X146374540Y-101969090D01*
X146374540Y-101969090D02*
X146422159Y-102064328D01*
X146422159Y-102064328D02*
X146422159Y-102445280D01*
X146993588Y-101683376D02*
X146993588Y-100921471D01*
X146898350Y-100207185D02*
X146898350Y-100683375D01*
X146898350Y-100683375D02*
X145898350Y-100683375D01*
X146374540Y-99873851D02*
X146374540Y-99540518D01*
X146898350Y-99397661D02*
X146898350Y-99873851D01*
X146898350Y-99873851D02*
X145898350Y-99873851D01*
X145898350Y-99873851D02*
X145898350Y-99397661D01*
X146898350Y-98969089D02*
X145898350Y-98969089D01*
X145898350Y-98969089D02*
X145898350Y-98730994D01*
X145898350Y-98730994D02*
X145945969Y-98588137D01*
X145945969Y-98588137D02*
X146041207Y-98492899D01*
X146041207Y-98492899D02*
X146136445Y-98445280D01*
X146136445Y-98445280D02*
X146326921Y-98397661D01*
X146326921Y-98397661D02*
X146469778Y-98397661D01*
X146469778Y-98397661D02*
X146660254Y-98445280D01*
X146660254Y-98445280D02*
X146755492Y-98492899D01*
X146755492Y-98492899D02*
X146850731Y-98588137D01*
X146850731Y-98588137D02*
X146898350Y-98730994D01*
X146898350Y-98730994D02*
X146898350Y-98969089D01*
X84023143Y-89334819D02*
X84594571Y-89334819D01*
X84308857Y-90334819D02*
X84308857Y-89334819D01*
X84880286Y-90287200D02*
X85023143Y-90334819D01*
X85023143Y-90334819D02*
X85261238Y-90334819D01*
X85261238Y-90334819D02*
X85356476Y-90287200D01*
X85356476Y-90287200D02*
X85404095Y-90239580D01*
X85404095Y-90239580D02*
X85451714Y-90144342D01*
X85451714Y-90144342D02*
X85451714Y-90049104D01*
X85451714Y-90049104D02*
X85404095Y-89953866D01*
X85404095Y-89953866D02*
X85356476Y-89906247D01*
X85356476Y-89906247D02*
X85261238Y-89858628D01*
X85261238Y-89858628D02*
X85070762Y-89811009D01*
X85070762Y-89811009D02*
X84975524Y-89763390D01*
X84975524Y-89763390D02*
X84927905Y-89715771D01*
X84927905Y-89715771D02*
X84880286Y-89620533D01*
X84880286Y-89620533D02*
X84880286Y-89525295D01*
X84880286Y-89525295D02*
X84927905Y-89430057D01*
X84927905Y-89430057D02*
X84975524Y-89382438D01*
X84975524Y-89382438D02*
X85070762Y-89334819D01*
X85070762Y-89334819D02*
X85308857Y-89334819D01*
X85308857Y-89334819D02*
X85451714Y-89382438D01*
X85880286Y-90334819D02*
X85880286Y-89334819D01*
X85880286Y-89334819D02*
X86118381Y-89334819D01*
X86118381Y-89334819D02*
X86261238Y-89382438D01*
X86261238Y-89382438D02*
X86356476Y-89477676D01*
X86356476Y-89477676D02*
X86404095Y-89572914D01*
X86404095Y-89572914D02*
X86451714Y-89763390D01*
X86451714Y-89763390D02*
X86451714Y-89906247D01*
X86451714Y-89906247D02*
X86404095Y-90096723D01*
X86404095Y-90096723D02*
X86356476Y-90191961D01*
X86356476Y-90191961D02*
X86261238Y-90287200D01*
X86261238Y-90287200D02*
X86118381Y-90334819D01*
X86118381Y-90334819D02*
X85880286Y-90334819D01*
X86880286Y-90334819D02*
X86880286Y-89334819D01*
X86880286Y-89334819D02*
X87261238Y-89334819D01*
X87261238Y-89334819D02*
X87356476Y-89382438D01*
X87356476Y-89382438D02*
X87404095Y-89430057D01*
X87404095Y-89430057D02*
X87451714Y-89525295D01*
X87451714Y-89525295D02*
X87451714Y-89668152D01*
X87451714Y-89668152D02*
X87404095Y-89763390D01*
X87404095Y-89763390D02*
X87356476Y-89811009D01*
X87356476Y-89811009D02*
X87261238Y-89858628D01*
X87261238Y-89858628D02*
X86880286Y-89858628D01*
X87785048Y-89334819D02*
X88404095Y-89334819D01*
X88404095Y-89334819D02*
X88070762Y-89715771D01*
X88070762Y-89715771D02*
X88213619Y-89715771D01*
X88213619Y-89715771D02*
X88308857Y-89763390D01*
X88308857Y-89763390D02*
X88356476Y-89811009D01*
X88356476Y-89811009D02*
X88404095Y-89906247D01*
X88404095Y-89906247D02*
X88404095Y-90144342D01*
X88404095Y-90144342D02*
X88356476Y-90239580D01*
X88356476Y-90239580D02*
X88308857Y-90287200D01*
X88308857Y-90287200D02*
X88213619Y-90334819D01*
X88213619Y-90334819D02*
X87927905Y-90334819D01*
X87927905Y-90334819D02*
X87832667Y-90287200D01*
X87832667Y-90287200D02*
X87785048Y-90239580D01*
X89261238Y-89668152D02*
X89261238Y-90334819D01*
X89023143Y-89287200D02*
X88785048Y-90001485D01*
X88785048Y-90001485D02*
X89404095Y-90001485D01*
X90308857Y-90334819D02*
X89737429Y-90334819D01*
X90023143Y-90334819D02*
X90023143Y-89334819D01*
X90023143Y-89334819D02*
X89927905Y-89477676D01*
X89927905Y-89477676D02*
X89832667Y-89572914D01*
X89832667Y-89572914D02*
X89737429Y-89620533D01*
X90642191Y-89334819D02*
X91261238Y-89334819D01*
X91261238Y-89334819D02*
X90927905Y-89715771D01*
X90927905Y-89715771D02*
X91070762Y-89715771D01*
X91070762Y-89715771D02*
X91166000Y-89763390D01*
X91166000Y-89763390D02*
X91213619Y-89811009D01*
X91213619Y-89811009D02*
X91261238Y-89906247D01*
X91261238Y-89906247D02*
X91261238Y-90144342D01*
X91261238Y-90144342D02*
X91213619Y-90239580D01*
X91213619Y-90239580D02*
X91166000Y-90287200D01*
X91166000Y-90287200D02*
X91070762Y-90334819D01*
X91070762Y-90334819D02*
X90785048Y-90334819D01*
X90785048Y-90334819D02*
X90689810Y-90287200D01*
X90689810Y-90287200D02*
X90642191Y-90239580D01*
X91832667Y-89763390D02*
X91737429Y-89715771D01*
X91737429Y-89715771D02*
X91689810Y-89668152D01*
X91689810Y-89668152D02*
X91642191Y-89572914D01*
X91642191Y-89572914D02*
X91642191Y-89525295D01*
X91642191Y-89525295D02*
X91689810Y-89430057D01*
X91689810Y-89430057D02*
X91737429Y-89382438D01*
X91737429Y-89382438D02*
X91832667Y-89334819D01*
X91832667Y-89334819D02*
X92023143Y-89334819D01*
X92023143Y-89334819D02*
X92118381Y-89382438D01*
X92118381Y-89382438D02*
X92166000Y-89430057D01*
X92166000Y-89430057D02*
X92213619Y-89525295D01*
X92213619Y-89525295D02*
X92213619Y-89572914D01*
X92213619Y-89572914D02*
X92166000Y-89668152D01*
X92166000Y-89668152D02*
X92118381Y-89715771D01*
X92118381Y-89715771D02*
X92023143Y-89763390D01*
X92023143Y-89763390D02*
X91832667Y-89763390D01*
X91832667Y-89763390D02*
X91737429Y-89811009D01*
X91737429Y-89811009D02*
X91689810Y-89858628D01*
X91689810Y-89858628D02*
X91642191Y-89953866D01*
X91642191Y-89953866D02*
X91642191Y-90144342D01*
X91642191Y-90144342D02*
X91689810Y-90239580D01*
X91689810Y-90239580D02*
X91737429Y-90287200D01*
X91737429Y-90287200D02*
X91832667Y-90334819D01*
X91832667Y-90334819D02*
X92023143Y-90334819D01*
X92023143Y-90334819D02*
X92118381Y-90287200D01*
X92118381Y-90287200D02*
X92166000Y-90239580D01*
X92166000Y-90239580D02*
X92213619Y-90144342D01*
X92213619Y-90144342D02*
X92213619Y-89953866D01*
X92213619Y-89953866D02*
X92166000Y-89858628D01*
X92166000Y-89858628D02*
X92118381Y-89811009D01*
X92118381Y-89811009D02*
X92023143Y-89763390D01*
X87620819Y-95094904D02*
X88430342Y-95094904D01*
X88430342Y-95094904D02*
X88525580Y-95047285D01*
X88525580Y-95047285D02*
X88573200Y-94999666D01*
X88573200Y-94999666D02*
X88620819Y-94904428D01*
X88620819Y-94904428D02*
X88620819Y-94713952D01*
X88620819Y-94713952D02*
X88573200Y-94618714D01*
X88573200Y-94618714D02*
X88525580Y-94571095D01*
X88525580Y-94571095D02*
X88430342Y-94523476D01*
X88430342Y-94523476D02*
X87620819Y-94523476D01*
X87954152Y-93618714D02*
X88620819Y-93618714D01*
X87573200Y-93856809D02*
X88287485Y-94094904D01*
X88287485Y-94094904D02*
X88287485Y-93475857D01*
X106588819Y-85446857D02*
X106112628Y-85780190D01*
X106588819Y-86018285D02*
X105588819Y-86018285D01*
X105588819Y-86018285D02*
X105588819Y-85637333D01*
X105588819Y-85637333D02*
X105636438Y-85542095D01*
X105636438Y-85542095D02*
X105684057Y-85494476D01*
X105684057Y-85494476D02*
X105779295Y-85446857D01*
X105779295Y-85446857D02*
X105922152Y-85446857D01*
X105922152Y-85446857D02*
X106017390Y-85494476D01*
X106017390Y-85494476D02*
X106065009Y-85542095D01*
X106065009Y-85542095D02*
X106112628Y-85637333D01*
X106112628Y-85637333D02*
X106112628Y-86018285D01*
X105588819Y-85113523D02*
X106588819Y-84446857D01*
X105588819Y-84446857D02*
X106588819Y-85113523D01*
X106684057Y-84304000D02*
X106684057Y-83542095D01*
X106065009Y-82970666D02*
X106112628Y-82827809D01*
X106112628Y-82827809D02*
X106160247Y-82780190D01*
X106160247Y-82780190D02*
X106255485Y-82732571D01*
X106255485Y-82732571D02*
X106398342Y-82732571D01*
X106398342Y-82732571D02*
X106493580Y-82780190D01*
X106493580Y-82780190D02*
X106541200Y-82827809D01*
X106541200Y-82827809D02*
X106588819Y-82923047D01*
X106588819Y-82923047D02*
X106588819Y-83303999D01*
X106588819Y-83303999D02*
X105588819Y-83303999D01*
X105588819Y-83303999D02*
X105588819Y-82970666D01*
X105588819Y-82970666D02*
X105636438Y-82875428D01*
X105636438Y-82875428D02*
X105684057Y-82827809D01*
X105684057Y-82827809D02*
X105779295Y-82780190D01*
X105779295Y-82780190D02*
X105874533Y-82780190D01*
X105874533Y-82780190D02*
X105969771Y-82827809D01*
X105969771Y-82827809D02*
X106017390Y-82875428D01*
X106017390Y-82875428D02*
X106065009Y-82970666D01*
X106065009Y-82970666D02*
X106065009Y-83303999D01*
X106588819Y-82303999D02*
X105922152Y-82303999D01*
X106112628Y-82303999D02*
X106017390Y-82256380D01*
X106017390Y-82256380D02*
X105969771Y-82208761D01*
X105969771Y-82208761D02*
X105922152Y-82113523D01*
X105922152Y-82113523D02*
X105922152Y-82018285D01*
X106541200Y-81303999D02*
X106588819Y-81399237D01*
X106588819Y-81399237D02*
X106588819Y-81589713D01*
X106588819Y-81589713D02*
X106541200Y-81684951D01*
X106541200Y-81684951D02*
X106445961Y-81732570D01*
X106445961Y-81732570D02*
X106065009Y-81732570D01*
X106065009Y-81732570D02*
X105969771Y-81684951D01*
X105969771Y-81684951D02*
X105922152Y-81589713D01*
X105922152Y-81589713D02*
X105922152Y-81399237D01*
X105922152Y-81399237D02*
X105969771Y-81303999D01*
X105969771Y-81303999D02*
X106065009Y-81256380D01*
X106065009Y-81256380D02*
X106160247Y-81256380D01*
X106160247Y-81256380D02*
X106255485Y-81732570D01*
X106588819Y-80399237D02*
X106065009Y-80399237D01*
X106065009Y-80399237D02*
X105969771Y-80446856D01*
X105969771Y-80446856D02*
X105922152Y-80542094D01*
X105922152Y-80542094D02*
X105922152Y-80732570D01*
X105922152Y-80732570D02*
X105969771Y-80827808D01*
X106541200Y-80399237D02*
X106588819Y-80494475D01*
X106588819Y-80494475D02*
X106588819Y-80732570D01*
X106588819Y-80732570D02*
X106541200Y-80827808D01*
X106541200Y-80827808D02*
X106445961Y-80875427D01*
X106445961Y-80875427D02*
X106350723Y-80875427D01*
X106350723Y-80875427D02*
X106255485Y-80827808D01*
X106255485Y-80827808D02*
X106207866Y-80732570D01*
X106207866Y-80732570D02*
X106207866Y-80494475D01*
X106207866Y-80494475D02*
X106160247Y-80399237D01*
X106588819Y-79923046D02*
X105588819Y-79923046D01*
X106207866Y-79827808D02*
X106588819Y-79542094D01*
X105922152Y-79542094D02*
X106303104Y-79923046D01*
X103048819Y-83391333D02*
X103763104Y-83391333D01*
X103763104Y-83391333D02*
X103905961Y-83438952D01*
X103905961Y-83438952D02*
X104001200Y-83534190D01*
X104001200Y-83534190D02*
X104048819Y-83677047D01*
X104048819Y-83677047D02*
X104048819Y-83772285D01*
X103048819Y-83010380D02*
X103048819Y-82391333D01*
X103048819Y-82391333D02*
X103429771Y-82724666D01*
X103429771Y-82724666D02*
X103429771Y-82581809D01*
X103429771Y-82581809D02*
X103477390Y-82486571D01*
X103477390Y-82486571D02*
X103525009Y-82438952D01*
X103525009Y-82438952D02*
X103620247Y-82391333D01*
X103620247Y-82391333D02*
X103858342Y-82391333D01*
X103858342Y-82391333D02*
X103953580Y-82438952D01*
X103953580Y-82438952D02*
X104001200Y-82486571D01*
X104001200Y-82486571D02*
X104048819Y-82581809D01*
X104048819Y-82581809D02*
X104048819Y-82867523D01*
X104048819Y-82867523D02*
X104001200Y-82962761D01*
X104001200Y-82962761D02*
X103953580Y-83010380D01*
X146318819Y-87238476D02*
X146318819Y-87714666D01*
X146318819Y-87714666D02*
X145318819Y-87714666D01*
X146318819Y-86905142D02*
X145318819Y-86905142D01*
X145318819Y-86905142D02*
X145318819Y-86667047D01*
X145318819Y-86667047D02*
X145366438Y-86524190D01*
X145366438Y-86524190D02*
X145461676Y-86428952D01*
X145461676Y-86428952D02*
X145556914Y-86381333D01*
X145556914Y-86381333D02*
X145747390Y-86333714D01*
X145747390Y-86333714D02*
X145890247Y-86333714D01*
X145890247Y-86333714D02*
X146080723Y-86381333D01*
X146080723Y-86381333D02*
X146175961Y-86428952D01*
X146175961Y-86428952D02*
X146271200Y-86524190D01*
X146271200Y-86524190D02*
X146318819Y-86667047D01*
X146318819Y-86667047D02*
X146318819Y-86905142D01*
X146318819Y-85333714D02*
X145842628Y-85667047D01*
X146318819Y-85905142D02*
X145318819Y-85905142D01*
X145318819Y-85905142D02*
X145318819Y-85524190D01*
X145318819Y-85524190D02*
X145366438Y-85428952D01*
X145366438Y-85428952D02*
X145414057Y-85381333D01*
X145414057Y-85381333D02*
X145509295Y-85333714D01*
X145509295Y-85333714D02*
X145652152Y-85333714D01*
X145652152Y-85333714D02*
X145747390Y-85381333D01*
X145747390Y-85381333D02*
X145795009Y-85428952D01*
X145795009Y-85428952D02*
X145842628Y-85524190D01*
X145842628Y-85524190D02*
X145842628Y-85905142D01*
X152218819Y-86914666D02*
X151742628Y-87247999D01*
X152218819Y-87486094D02*
X151218819Y-87486094D01*
X151218819Y-87486094D02*
X151218819Y-87105142D01*
X151218819Y-87105142D02*
X151266438Y-87009904D01*
X151266438Y-87009904D02*
X151314057Y-86962285D01*
X151314057Y-86962285D02*
X151409295Y-86914666D01*
X151409295Y-86914666D02*
X151552152Y-86914666D01*
X151552152Y-86914666D02*
X151647390Y-86962285D01*
X151647390Y-86962285D02*
X151695009Y-87009904D01*
X151695009Y-87009904D02*
X151742628Y-87105142D01*
X151742628Y-87105142D02*
X151742628Y-87486094D01*
X151218819Y-86057523D02*
X151218819Y-86247999D01*
X151218819Y-86247999D02*
X151266438Y-86343237D01*
X151266438Y-86343237D02*
X151314057Y-86390856D01*
X151314057Y-86390856D02*
X151456914Y-86486094D01*
X151456914Y-86486094D02*
X151647390Y-86533713D01*
X151647390Y-86533713D02*
X152028342Y-86533713D01*
X152028342Y-86533713D02*
X152123580Y-86486094D01*
X152123580Y-86486094D02*
X152171200Y-86438475D01*
X152171200Y-86438475D02*
X152218819Y-86343237D01*
X152218819Y-86343237D02*
X152218819Y-86152761D01*
X152218819Y-86152761D02*
X152171200Y-86057523D01*
X152171200Y-86057523D02*
X152123580Y-86009904D01*
X152123580Y-86009904D02*
X152028342Y-85962285D01*
X152028342Y-85962285D02*
X151790247Y-85962285D01*
X151790247Y-85962285D02*
X151695009Y-86009904D01*
X151695009Y-86009904D02*
X151647390Y-86057523D01*
X151647390Y-86057523D02*
X151599771Y-86152761D01*
X151599771Y-86152761D02*
X151599771Y-86343237D01*
X151599771Y-86343237D02*
X151647390Y-86438475D01*
X151647390Y-86438475D02*
X151695009Y-86486094D01*
X151695009Y-86486094D02*
X151790247Y-86533713D01*
X126256142Y-84484819D02*
X125684714Y-84484819D01*
X125970428Y-84484819D02*
X125970428Y-83484819D01*
X125970428Y-83484819D02*
X125875190Y-83627676D01*
X125875190Y-83627676D02*
X125779952Y-83722914D01*
X125779952Y-83722914D02*
X125684714Y-83770533D01*
X126684714Y-84484819D02*
X126684714Y-83484819D01*
X126684714Y-83484819D02*
X127256142Y-84484819D01*
X127256142Y-84484819D02*
X127256142Y-83484819D01*
X128208523Y-83484819D02*
X127732333Y-83484819D01*
X127732333Y-83484819D02*
X127684714Y-83961009D01*
X127684714Y-83961009D02*
X127732333Y-83913390D01*
X127732333Y-83913390D02*
X127827571Y-83865771D01*
X127827571Y-83865771D02*
X128065666Y-83865771D01*
X128065666Y-83865771D02*
X128160904Y-83913390D01*
X128160904Y-83913390D02*
X128208523Y-83961009D01*
X128208523Y-83961009D02*
X128256142Y-84056247D01*
X128256142Y-84056247D02*
X128256142Y-84294342D01*
X128256142Y-84294342D02*
X128208523Y-84389580D01*
X128208523Y-84389580D02*
X128160904Y-84437200D01*
X128160904Y-84437200D02*
X128065666Y-84484819D01*
X128065666Y-84484819D02*
X127827571Y-84484819D01*
X127827571Y-84484819D02*
X127732333Y-84437200D01*
X127732333Y-84437200D02*
X127684714Y-84389580D01*
X128827571Y-83913390D02*
X128732333Y-83865771D01*
X128732333Y-83865771D02*
X128684714Y-83818152D01*
X128684714Y-83818152D02*
X128637095Y-83722914D01*
X128637095Y-83722914D02*
X128637095Y-83675295D01*
X128637095Y-83675295D02*
X128684714Y-83580057D01*
X128684714Y-83580057D02*
X128732333Y-83532438D01*
X128732333Y-83532438D02*
X128827571Y-83484819D01*
X128827571Y-83484819D02*
X129018047Y-83484819D01*
X129018047Y-83484819D02*
X129113285Y-83532438D01*
X129113285Y-83532438D02*
X129160904Y-83580057D01*
X129160904Y-83580057D02*
X129208523Y-83675295D01*
X129208523Y-83675295D02*
X129208523Y-83722914D01*
X129208523Y-83722914D02*
X129160904Y-83818152D01*
X129160904Y-83818152D02*
X129113285Y-83865771D01*
X129113285Y-83865771D02*
X129018047Y-83913390D01*
X129018047Y-83913390D02*
X128827571Y-83913390D01*
X128827571Y-83913390D02*
X128732333Y-83961009D01*
X128732333Y-83961009D02*
X128684714Y-84008628D01*
X128684714Y-84008628D02*
X128637095Y-84103866D01*
X128637095Y-84103866D02*
X128637095Y-84294342D01*
X128637095Y-84294342D02*
X128684714Y-84389580D01*
X128684714Y-84389580D02*
X128732333Y-84437200D01*
X128732333Y-84437200D02*
X128827571Y-84484819D01*
X128827571Y-84484819D02*
X129018047Y-84484819D01*
X129018047Y-84484819D02*
X129113285Y-84437200D01*
X129113285Y-84437200D02*
X129160904Y-84389580D01*
X129160904Y-84389580D02*
X129208523Y-84294342D01*
X129208523Y-84294342D02*
X129208523Y-84103866D01*
X129208523Y-84103866D02*
X129160904Y-84008628D01*
X129160904Y-84008628D02*
X129113285Y-83961009D01*
X129113285Y-83961009D02*
X129018047Y-83913390D01*
X130160904Y-84484819D02*
X129589476Y-84484819D01*
X129875190Y-84484819D02*
X129875190Y-83484819D01*
X129875190Y-83484819D02*
X129779952Y-83627676D01*
X129779952Y-83627676D02*
X129684714Y-83722914D01*
X129684714Y-83722914D02*
X129589476Y-83770533D01*
X130637095Y-84484819D02*
X130827571Y-84484819D01*
X130827571Y-84484819D02*
X130922809Y-84437200D01*
X130922809Y-84437200D02*
X130970428Y-84389580D01*
X130970428Y-84389580D02*
X131065666Y-84246723D01*
X131065666Y-84246723D02*
X131113285Y-84056247D01*
X131113285Y-84056247D02*
X131113285Y-83675295D01*
X131113285Y-83675295D02*
X131065666Y-83580057D01*
X131065666Y-83580057D02*
X131018047Y-83532438D01*
X131018047Y-83532438D02*
X130922809Y-83484819D01*
X130922809Y-83484819D02*
X130732333Y-83484819D01*
X130732333Y-83484819D02*
X130637095Y-83532438D01*
X130637095Y-83532438D02*
X130589476Y-83580057D01*
X130589476Y-83580057D02*
X130541857Y-83675295D01*
X130541857Y-83675295D02*
X130541857Y-83913390D01*
X130541857Y-83913390D02*
X130589476Y-84008628D01*
X130589476Y-84008628D02*
X130637095Y-84056247D01*
X130637095Y-84056247D02*
X130732333Y-84103866D01*
X130732333Y-84103866D02*
X130922809Y-84103866D01*
X130922809Y-84103866D02*
X131018047Y-84056247D01*
X131018047Y-84056247D02*
X131065666Y-84008628D01*
X131065666Y-84008628D02*
X131113285Y-83913390D01*
D11*
X128178237Y-82386529D02*
X128178237Y-81778529D01*
X128178237Y-81778529D02*
X128322999Y-81778529D01*
X128322999Y-81778529D02*
X128409856Y-81807481D01*
X128409856Y-81807481D02*
X128467761Y-81865386D01*
X128467761Y-81865386D02*
X128496714Y-81923291D01*
X128496714Y-81923291D02*
X128525666Y-82039100D01*
X128525666Y-82039100D02*
X128525666Y-82125957D01*
X128525666Y-82125957D02*
X128496714Y-82241767D01*
X128496714Y-82241767D02*
X128467761Y-82299672D01*
X128467761Y-82299672D02*
X128409856Y-82357577D01*
X128409856Y-82357577D02*
X128322999Y-82386529D01*
X128322999Y-82386529D02*
X128178237Y-82386529D01*
X129046809Y-81778529D02*
X128930999Y-81778529D01*
X128930999Y-81778529D02*
X128873095Y-81807481D01*
X128873095Y-81807481D02*
X128844142Y-81836434D01*
X128844142Y-81836434D02*
X128786237Y-81923291D01*
X128786237Y-81923291D02*
X128757285Y-82039100D01*
X128757285Y-82039100D02*
X128757285Y-82270719D01*
X128757285Y-82270719D02*
X128786237Y-82328624D01*
X128786237Y-82328624D02*
X128815190Y-82357577D01*
X128815190Y-82357577D02*
X128873095Y-82386529D01*
X128873095Y-82386529D02*
X128988904Y-82386529D01*
X128988904Y-82386529D02*
X129046809Y-82357577D01*
X129046809Y-82357577D02*
X129075761Y-82328624D01*
X129075761Y-82328624D02*
X129104714Y-82270719D01*
X129104714Y-82270719D02*
X129104714Y-82125957D01*
X129104714Y-82125957D02*
X129075761Y-82068053D01*
X129075761Y-82068053D02*
X129046809Y-82039100D01*
X129046809Y-82039100D02*
X128988904Y-82010148D01*
X128988904Y-82010148D02*
X128873095Y-82010148D01*
X128873095Y-82010148D02*
X128815190Y-82039100D01*
X128815190Y-82039100D02*
X128786237Y-82068053D01*
X128786237Y-82068053D02*
X128757285Y-82125957D01*
D10*
X127984572Y-99768819D02*
X127984572Y-98768819D01*
X128413143Y-98864057D02*
X128460762Y-98816438D01*
X128460762Y-98816438D02*
X128556000Y-98768819D01*
X128556000Y-98768819D02*
X128794095Y-98768819D01*
X128794095Y-98768819D02*
X128889333Y-98816438D01*
X128889333Y-98816438D02*
X128936952Y-98864057D01*
X128936952Y-98864057D02*
X128984571Y-98959295D01*
X128984571Y-98959295D02*
X128984571Y-99054533D01*
X128984571Y-99054533D02*
X128936952Y-99197390D01*
X128936952Y-99197390D02*
X128365524Y-99768819D01*
X128365524Y-99768819D02*
X128984571Y-99768819D01*
X129984571Y-99673580D02*
X129936952Y-99721200D01*
X129936952Y-99721200D02*
X129794095Y-99768819D01*
X129794095Y-99768819D02*
X129698857Y-99768819D01*
X129698857Y-99768819D02*
X129556000Y-99721200D01*
X129556000Y-99721200D02*
X129460762Y-99625961D01*
X129460762Y-99625961D02*
X129413143Y-99530723D01*
X129413143Y-99530723D02*
X129365524Y-99340247D01*
X129365524Y-99340247D02*
X129365524Y-99197390D01*
X129365524Y-99197390D02*
X129413143Y-99006914D01*
X129413143Y-99006914D02*
X129460762Y-98911676D01*
X129460762Y-98911676D02*
X129556000Y-98816438D01*
X129556000Y-98816438D02*
X129698857Y-98768819D01*
X129698857Y-98768819D02*
X129794095Y-98768819D01*
X129794095Y-98768819D02*
X129936952Y-98816438D01*
X129936952Y-98816438D02*
X129984571Y-98864057D01*
X130175048Y-99864057D02*
X130936952Y-99864057D01*
X131079810Y-98768819D02*
X131698857Y-98768819D01*
X131698857Y-98768819D02*
X131365524Y-99149771D01*
X131365524Y-99149771D02*
X131508381Y-99149771D01*
X131508381Y-99149771D02*
X131603619Y-99197390D01*
X131603619Y-99197390D02*
X131651238Y-99245009D01*
X131651238Y-99245009D02*
X131698857Y-99340247D01*
X131698857Y-99340247D02*
X131698857Y-99578342D01*
X131698857Y-99578342D02*
X131651238Y-99673580D01*
X131651238Y-99673580D02*
X131603619Y-99721200D01*
X131603619Y-99721200D02*
X131508381Y-99768819D01*
X131508381Y-99768819D02*
X131222667Y-99768819D01*
X131222667Y-99768819D02*
X131127429Y-99721200D01*
X131127429Y-99721200D02*
X131079810Y-99673580D01*
X132127429Y-99768819D02*
X132127429Y-98768819D01*
X132127429Y-98768819D02*
X132508381Y-98768819D01*
X132508381Y-98768819D02*
X132603619Y-98816438D01*
X132603619Y-98816438D02*
X132651238Y-98864057D01*
X132651238Y-98864057D02*
X132698857Y-98959295D01*
X132698857Y-98959295D02*
X132698857Y-99102152D01*
X132698857Y-99102152D02*
X132651238Y-99197390D01*
X132651238Y-99197390D02*
X132603619Y-99245009D01*
X132603619Y-99245009D02*
X132508381Y-99292628D01*
X132508381Y-99292628D02*
X132127429Y-99292628D01*
X133127429Y-99768819D02*
X133127429Y-99102152D01*
X133127429Y-98768819D02*
X133079810Y-98816438D01*
X133079810Y-98816438D02*
X133127429Y-98864057D01*
X133127429Y-98864057D02*
X133175048Y-98816438D01*
X133175048Y-98816438D02*
X133127429Y-98768819D01*
X133127429Y-98768819D02*
X133127429Y-98864057D01*
X130476666Y-101308819D02*
X130476666Y-102023104D01*
X130476666Y-102023104D02*
X130429047Y-102165961D01*
X130429047Y-102165961D02*
X130333809Y-102261200D01*
X130333809Y-102261200D02*
X130190952Y-102308819D01*
X130190952Y-102308819D02*
X130095714Y-102308819D01*
X131429047Y-101308819D02*
X130952857Y-101308819D01*
X130952857Y-101308819D02*
X130905238Y-101785009D01*
X130905238Y-101785009D02*
X130952857Y-101737390D01*
X130952857Y-101737390D02*
X131048095Y-101689771D01*
X131048095Y-101689771D02*
X131286190Y-101689771D01*
X131286190Y-101689771D02*
X131381428Y-101737390D01*
X131381428Y-101737390D02*
X131429047Y-101785009D01*
X131429047Y-101785009D02*
X131476666Y-101880247D01*
X131476666Y-101880247D02*
X131476666Y-102118342D01*
X131476666Y-102118342D02*
X131429047Y-102213580D01*
X131429047Y-102213580D02*
X131381428Y-102261200D01*
X131381428Y-102261200D02*
X131286190Y-102308819D01*
X131286190Y-102308819D02*
X131048095Y-102308819D01*
X131048095Y-102308819D02*
X130952857Y-102261200D01*
X130952857Y-102261200D02*
X130905238Y-102213580D01*
X128452857Y-83576438D02*
X128357619Y-83528819D01*
X128357619Y-83528819D02*
X128214762Y-83528819D01*
X128214762Y-83528819D02*
X128071905Y-83576438D01*
X128071905Y-83576438D02*
X127976667Y-83671676D01*
X127976667Y-83671676D02*
X127929048Y-83766914D01*
X127929048Y-83766914D02*
X127881429Y-83957390D01*
X127881429Y-83957390D02*
X127881429Y-84100247D01*
X127881429Y-84100247D02*
X127929048Y-84290723D01*
X127929048Y-84290723D02*
X127976667Y-84385961D01*
X127976667Y-84385961D02*
X128071905Y-84481200D01*
X128071905Y-84481200D02*
X128214762Y-84528819D01*
X128214762Y-84528819D02*
X128310000Y-84528819D01*
X128310000Y-84528819D02*
X128452857Y-84481200D01*
X128452857Y-84481200D02*
X128500476Y-84433580D01*
X128500476Y-84433580D02*
X128500476Y-84100247D01*
X128500476Y-84100247D02*
X128310000Y-84100247D01*
X128929048Y-84528819D02*
X128929048Y-83528819D01*
X128929048Y-83528819D02*
X129500476Y-84528819D01*
X129500476Y-84528819D02*
X129500476Y-83528819D01*
X129976667Y-84528819D02*
X129976667Y-83528819D01*
X129976667Y-83528819D02*
X130214762Y-83528819D01*
X130214762Y-83528819D02*
X130357619Y-83576438D01*
X130357619Y-83576438D02*
X130452857Y-83671676D01*
X130452857Y-83671676D02*
X130500476Y-83766914D01*
X130500476Y-83766914D02*
X130548095Y-83957390D01*
X130548095Y-83957390D02*
X130548095Y-84100247D01*
X130548095Y-84100247D02*
X130500476Y-84290723D01*
X130500476Y-84290723D02*
X130452857Y-84385961D01*
X130452857Y-84385961D02*
X130357619Y-84481200D01*
X130357619Y-84481200D02*
X130214762Y-84528819D01*
X130214762Y-84528819D02*
X129976667Y-84528819D01*
X130738572Y-84624057D02*
X131500476Y-84624057D01*
X131643334Y-83528819D02*
X132262381Y-83528819D01*
X132262381Y-83528819D02*
X131929048Y-83909771D01*
X131929048Y-83909771D02*
X132071905Y-83909771D01*
X132071905Y-83909771D02*
X132167143Y-83957390D01*
X132167143Y-83957390D02*
X132214762Y-84005009D01*
X132214762Y-84005009D02*
X132262381Y-84100247D01*
X132262381Y-84100247D02*
X132262381Y-84338342D01*
X132262381Y-84338342D02*
X132214762Y-84433580D01*
X132214762Y-84433580D02*
X132167143Y-84481200D01*
X132167143Y-84481200D02*
X132071905Y-84528819D01*
X132071905Y-84528819D02*
X131786191Y-84528819D01*
X131786191Y-84528819D02*
X131690953Y-84481200D01*
X131690953Y-84481200D02*
X131643334Y-84433580D01*
X132690953Y-84528819D02*
X132690953Y-83528819D01*
X132690953Y-83528819D02*
X133071905Y-83528819D01*
X133071905Y-83528819D02*
X133167143Y-83576438D01*
X133167143Y-83576438D02*
X133214762Y-83624057D01*
X133214762Y-83624057D02*
X133262381Y-83719295D01*
X133262381Y-83719295D02*
X133262381Y-83862152D01*
X133262381Y-83862152D02*
X133214762Y-83957390D01*
X133214762Y-83957390D02*
X133167143Y-84005009D01*
X133167143Y-84005009D02*
X133071905Y-84052628D01*
X133071905Y-84052628D02*
X132690953Y-84052628D01*
X133690953Y-84528819D02*
X133690953Y-83862152D01*
X133690953Y-83528819D02*
X133643334Y-83576438D01*
X133643334Y-83576438D02*
X133690953Y-83624057D01*
X133690953Y-83624057D02*
X133738572Y-83576438D01*
X133738572Y-83576438D02*
X133690953Y-83528819D01*
X133690953Y-83528819D02*
X133690953Y-83624057D01*
X130476666Y-86068819D02*
X130476666Y-86783104D01*
X130476666Y-86783104D02*
X130429047Y-86925961D01*
X130429047Y-86925961D02*
X130333809Y-87021200D01*
X130333809Y-87021200D02*
X130190952Y-87068819D01*
X130190952Y-87068819D02*
X130095714Y-87068819D01*
X130905238Y-86164057D02*
X130952857Y-86116438D01*
X130952857Y-86116438D02*
X131048095Y-86068819D01*
X131048095Y-86068819D02*
X131286190Y-86068819D01*
X131286190Y-86068819D02*
X131381428Y-86116438D01*
X131381428Y-86116438D02*
X131429047Y-86164057D01*
X131429047Y-86164057D02*
X131476666Y-86259295D01*
X131476666Y-86259295D02*
X131476666Y-86354533D01*
X131476666Y-86354533D02*
X131429047Y-86497390D01*
X131429047Y-86497390D02*
X130857619Y-87068819D01*
X130857619Y-87068819D02*
X131476666Y-87068819D01*
X129071904Y-91148819D02*
X128595714Y-91148819D01*
X128595714Y-91148819D02*
X128548095Y-91625009D01*
X128548095Y-91625009D02*
X128595714Y-91577390D01*
X128595714Y-91577390D02*
X128690952Y-91529771D01*
X128690952Y-91529771D02*
X128929047Y-91529771D01*
X128929047Y-91529771D02*
X129024285Y-91577390D01*
X129024285Y-91577390D02*
X129071904Y-91625009D01*
X129071904Y-91625009D02*
X129119523Y-91720247D01*
X129119523Y-91720247D02*
X129119523Y-91958342D01*
X129119523Y-91958342D02*
X129071904Y-92053580D01*
X129071904Y-92053580D02*
X129024285Y-92101200D01*
X129024285Y-92101200D02*
X128929047Y-92148819D01*
X128929047Y-92148819D02*
X128690952Y-92148819D01*
X128690952Y-92148819D02*
X128595714Y-92101200D01*
X128595714Y-92101200D02*
X128548095Y-92053580D01*
X129452857Y-91482152D02*
X129690952Y-92148819D01*
X129690952Y-92148819D02*
X129929047Y-91482152D01*
X130071905Y-92244057D02*
X130833809Y-92244057D01*
X130976667Y-91148819D02*
X131595714Y-91148819D01*
X131595714Y-91148819D02*
X131262381Y-91529771D01*
X131262381Y-91529771D02*
X131405238Y-91529771D01*
X131405238Y-91529771D02*
X131500476Y-91577390D01*
X131500476Y-91577390D02*
X131548095Y-91625009D01*
X131548095Y-91625009D02*
X131595714Y-91720247D01*
X131595714Y-91720247D02*
X131595714Y-91958342D01*
X131595714Y-91958342D02*
X131548095Y-92053580D01*
X131548095Y-92053580D02*
X131500476Y-92101200D01*
X131500476Y-92101200D02*
X131405238Y-92148819D01*
X131405238Y-92148819D02*
X131119524Y-92148819D01*
X131119524Y-92148819D02*
X131024286Y-92101200D01*
X131024286Y-92101200D02*
X130976667Y-92053580D01*
X132024286Y-92148819D02*
X132024286Y-91148819D01*
X132024286Y-91148819D02*
X132405238Y-91148819D01*
X132405238Y-91148819D02*
X132500476Y-91196438D01*
X132500476Y-91196438D02*
X132548095Y-91244057D01*
X132548095Y-91244057D02*
X132595714Y-91339295D01*
X132595714Y-91339295D02*
X132595714Y-91482152D01*
X132595714Y-91482152D02*
X132548095Y-91577390D01*
X132548095Y-91577390D02*
X132500476Y-91625009D01*
X132500476Y-91625009D02*
X132405238Y-91672628D01*
X132405238Y-91672628D02*
X132024286Y-91672628D01*
X133024286Y-92148819D02*
X133024286Y-91482152D01*
X133024286Y-91148819D02*
X132976667Y-91196438D01*
X132976667Y-91196438D02*
X133024286Y-91244057D01*
X133024286Y-91244057D02*
X133071905Y-91196438D01*
X133071905Y-91196438D02*
X133024286Y-91148819D01*
X133024286Y-91148819D02*
X133024286Y-91244057D01*
X130476666Y-88608819D02*
X130476666Y-89323104D01*
X130476666Y-89323104D02*
X130429047Y-89465961D01*
X130429047Y-89465961D02*
X130333809Y-89561200D01*
X130333809Y-89561200D02*
X130190952Y-89608819D01*
X130190952Y-89608819D02*
X130095714Y-89608819D01*
X131476666Y-89608819D02*
X130905238Y-89608819D01*
X131190952Y-89608819D02*
X131190952Y-88608819D01*
X131190952Y-88608819D02*
X131095714Y-88751676D01*
X131095714Y-88751676D02*
X131000476Y-88846914D01*
X131000476Y-88846914D02*
X130905238Y-88894533D01*
X89797333Y-115882819D02*
X89225905Y-115882819D01*
X89511619Y-115882819D02*
X89511619Y-114882819D01*
X89511619Y-114882819D02*
X89416381Y-115025676D01*
X89416381Y-115025676D02*
X89321143Y-115120914D01*
X89321143Y-115120914D02*
X89225905Y-115168533D01*
X90702095Y-114882819D02*
X90225905Y-114882819D01*
X90225905Y-114882819D02*
X90178286Y-115359009D01*
X90178286Y-115359009D02*
X90225905Y-115311390D01*
X90225905Y-115311390D02*
X90321143Y-115263771D01*
X90321143Y-115263771D02*
X90559238Y-115263771D01*
X90559238Y-115263771D02*
X90654476Y-115311390D01*
X90654476Y-115311390D02*
X90702095Y-115359009D01*
X90702095Y-115359009D02*
X90749714Y-115454247D01*
X90749714Y-115454247D02*
X90749714Y-115692342D01*
X90749714Y-115692342D02*
X90702095Y-115787580D01*
X90702095Y-115787580D02*
X90654476Y-115835200D01*
X90654476Y-115835200D02*
X90559238Y-115882819D01*
X90559238Y-115882819D02*
X90321143Y-115882819D01*
X90321143Y-115882819D02*
X90225905Y-115835200D01*
X90225905Y-115835200D02*
X90178286Y-115787580D01*
X91749714Y-115882819D02*
X91416381Y-115406628D01*
X91178286Y-115882819D02*
X91178286Y-114882819D01*
X91178286Y-114882819D02*
X91559238Y-114882819D01*
X91559238Y-114882819D02*
X91654476Y-114930438D01*
X91654476Y-114930438D02*
X91702095Y-114978057D01*
X91702095Y-114978057D02*
X91749714Y-115073295D01*
X91749714Y-115073295D02*
X91749714Y-115216152D01*
X91749714Y-115216152D02*
X91702095Y-115311390D01*
X91702095Y-115311390D02*
X91654476Y-115359009D01*
X91654476Y-115359009D02*
X91559238Y-115406628D01*
X91559238Y-115406628D02*
X91178286Y-115406628D01*
X91940191Y-115978057D02*
X92702095Y-115978057D01*
X92940191Y-115882819D02*
X92940191Y-114882819D01*
X93987809Y-115882819D02*
X93654476Y-115406628D01*
X93416381Y-115882819D02*
X93416381Y-114882819D01*
X93416381Y-114882819D02*
X93797333Y-114882819D01*
X93797333Y-114882819D02*
X93892571Y-114930438D01*
X93892571Y-114930438D02*
X93940190Y-114978057D01*
X93940190Y-114978057D02*
X93987809Y-115073295D01*
X93987809Y-115073295D02*
X93987809Y-115216152D01*
X93987809Y-115216152D02*
X93940190Y-115311390D01*
X93940190Y-115311390D02*
X93892571Y-115359009D01*
X93892571Y-115359009D02*
X93797333Y-115406628D01*
X93797333Y-115406628D02*
X93416381Y-115406628D01*
X94892571Y-115882819D02*
X94416381Y-115882819D01*
X94416381Y-115882819D02*
X94416381Y-114882819D01*
X95225905Y-115359009D02*
X95559238Y-115359009D01*
X95702095Y-115882819D02*
X95225905Y-115882819D01*
X95225905Y-115882819D02*
X95225905Y-114882819D01*
X95225905Y-114882819D02*
X95702095Y-114882819D01*
X96130667Y-115882819D02*
X96130667Y-114882819D01*
X96130667Y-114882819D02*
X96368762Y-114882819D01*
X96368762Y-114882819D02*
X96511619Y-114930438D01*
X96511619Y-114930438D02*
X96606857Y-115025676D01*
X96606857Y-115025676D02*
X96654476Y-115120914D01*
X96654476Y-115120914D02*
X96702095Y-115311390D01*
X96702095Y-115311390D02*
X96702095Y-115454247D01*
X96702095Y-115454247D02*
X96654476Y-115644723D01*
X96654476Y-115644723D02*
X96606857Y-115739961D01*
X96606857Y-115739961D02*
X96511619Y-115835200D01*
X96511619Y-115835200D02*
X96368762Y-115882819D01*
X96368762Y-115882819D02*
X96130667Y-115882819D01*
D12*
X92844000Y-117675469D02*
X92604000Y-117332612D01*
X92432571Y-117675469D02*
X92432571Y-116955469D01*
X92432571Y-116955469D02*
X92706857Y-116955469D01*
X92706857Y-116955469D02*
X92775428Y-116989755D01*
X92775428Y-116989755D02*
X92809714Y-117024041D01*
X92809714Y-117024041D02*
X92844000Y-117092612D01*
X92844000Y-117092612D02*
X92844000Y-117195469D01*
X92844000Y-117195469D02*
X92809714Y-117264041D01*
X92809714Y-117264041D02*
X92775428Y-117298326D01*
X92775428Y-117298326D02*
X92706857Y-117332612D01*
X92706857Y-117332612D02*
X92432571Y-117332612D01*
X93529714Y-117675469D02*
X93118285Y-117675469D01*
X93324000Y-117675469D02*
X93324000Y-116955469D01*
X93324000Y-116955469D02*
X93255428Y-117058326D01*
X93255428Y-117058326D02*
X93186857Y-117126898D01*
X93186857Y-117126898D02*
X93118285Y-117161184D01*
D10*
X131097809Y-115882819D02*
X130526381Y-115882819D01*
X130812095Y-115882819D02*
X130812095Y-114882819D01*
X130812095Y-114882819D02*
X130716857Y-115025676D01*
X130716857Y-115025676D02*
X130621619Y-115120914D01*
X130621619Y-115120914D02*
X130526381Y-115168533D01*
X131716857Y-114882819D02*
X131812095Y-114882819D01*
X131812095Y-114882819D02*
X131907333Y-114930438D01*
X131907333Y-114930438D02*
X131954952Y-114978057D01*
X131954952Y-114978057D02*
X132002571Y-115073295D01*
X132002571Y-115073295D02*
X132050190Y-115263771D01*
X132050190Y-115263771D02*
X132050190Y-115501866D01*
X132050190Y-115501866D02*
X132002571Y-115692342D01*
X132002571Y-115692342D02*
X131954952Y-115787580D01*
X131954952Y-115787580D02*
X131907333Y-115835200D01*
X131907333Y-115835200D02*
X131812095Y-115882819D01*
X131812095Y-115882819D02*
X131716857Y-115882819D01*
X131716857Y-115882819D02*
X131621619Y-115835200D01*
X131621619Y-115835200D02*
X131574000Y-115787580D01*
X131574000Y-115787580D02*
X131526381Y-115692342D01*
X131526381Y-115692342D02*
X131478762Y-115501866D01*
X131478762Y-115501866D02*
X131478762Y-115263771D01*
X131478762Y-115263771D02*
X131526381Y-115073295D01*
X131526381Y-115073295D02*
X131574000Y-114978057D01*
X131574000Y-114978057D02*
X131621619Y-114930438D01*
X131621619Y-114930438D02*
X131716857Y-114882819D01*
X132478762Y-115882819D02*
X132478762Y-114882819D01*
X133050190Y-115882819D02*
X132621619Y-115311390D01*
X133050190Y-114882819D02*
X132478762Y-115454247D01*
X133240667Y-115978057D02*
X134002571Y-115978057D01*
X134716857Y-115882819D02*
X134240667Y-115882819D01*
X134240667Y-115882819D02*
X134240667Y-114882819D01*
X135050191Y-115882819D02*
X135050191Y-114882819D01*
X135050191Y-114882819D02*
X135288286Y-114882819D01*
X135288286Y-114882819D02*
X135431143Y-114930438D01*
X135431143Y-114930438D02*
X135526381Y-115025676D01*
X135526381Y-115025676D02*
X135574000Y-115120914D01*
X135574000Y-115120914D02*
X135621619Y-115311390D01*
X135621619Y-115311390D02*
X135621619Y-115454247D01*
X135621619Y-115454247D02*
X135574000Y-115644723D01*
X135574000Y-115644723D02*
X135526381Y-115739961D01*
X135526381Y-115739961D02*
X135431143Y-115835200D01*
X135431143Y-115835200D02*
X135288286Y-115882819D01*
X135288286Y-115882819D02*
X135050191Y-115882819D01*
X136621619Y-115882819D02*
X136288286Y-115406628D01*
X136050191Y-115882819D02*
X136050191Y-114882819D01*
X136050191Y-114882819D02*
X136431143Y-114882819D01*
X136431143Y-114882819D02*
X136526381Y-114930438D01*
X136526381Y-114930438D02*
X136574000Y-114978057D01*
X136574000Y-114978057D02*
X136621619Y-115073295D01*
X136621619Y-115073295D02*
X136621619Y-115216152D01*
X136621619Y-115216152D02*
X136574000Y-115311390D01*
X136574000Y-115311390D02*
X136526381Y-115359009D01*
X136526381Y-115359009D02*
X136431143Y-115406628D01*
X136431143Y-115406628D02*
X136050191Y-115406628D01*
D12*
X133454000Y-117675469D02*
X133214000Y-117332612D01*
X133042571Y-117675469D02*
X133042571Y-116955469D01*
X133042571Y-116955469D02*
X133316857Y-116955469D01*
X133316857Y-116955469D02*
X133385428Y-116989755D01*
X133385428Y-116989755D02*
X133419714Y-117024041D01*
X133419714Y-117024041D02*
X133454000Y-117092612D01*
X133454000Y-117092612D02*
X133454000Y-117195469D01*
X133454000Y-117195469D02*
X133419714Y-117264041D01*
X133419714Y-117264041D02*
X133385428Y-117298326D01*
X133385428Y-117298326D02*
X133316857Y-117332612D01*
X133316857Y-117332612D02*
X133042571Y-117332612D01*
X134105428Y-116955469D02*
X133762571Y-116955469D01*
X133762571Y-116955469D02*
X133728285Y-117298326D01*
X133728285Y-117298326D02*
X133762571Y-117264041D01*
X133762571Y-117264041D02*
X133831143Y-117229755D01*
X133831143Y-117229755D02*
X134002571Y-117229755D01*
X134002571Y-117229755D02*
X134071143Y-117264041D01*
X134071143Y-117264041D02*
X134105428Y-117298326D01*
X134105428Y-117298326D02*
X134139714Y-117366898D01*
X134139714Y-117366898D02*
X134139714Y-117538326D01*
X134139714Y-117538326D02*
X134105428Y-117606898D01*
X134105428Y-117606898D02*
X134071143Y-117641184D01*
X134071143Y-117641184D02*
X134002571Y-117675469D01*
X134002571Y-117675469D02*
X133831143Y-117675469D01*
X133831143Y-117675469D02*
X133762571Y-117641184D01*
X133762571Y-117641184D02*
X133728285Y-117606898D01*
D10*
X107816819Y-68928761D02*
X107816819Y-68309714D01*
X107816819Y-68309714D02*
X108197771Y-68643047D01*
X108197771Y-68643047D02*
X108197771Y-68500190D01*
X108197771Y-68500190D02*
X108245390Y-68404952D01*
X108245390Y-68404952D02*
X108293009Y-68357333D01*
X108293009Y-68357333D02*
X108388247Y-68309714D01*
X108388247Y-68309714D02*
X108626342Y-68309714D01*
X108626342Y-68309714D02*
X108721580Y-68357333D01*
X108721580Y-68357333D02*
X108769200Y-68404952D01*
X108769200Y-68404952D02*
X108816819Y-68500190D01*
X108816819Y-68500190D02*
X108816819Y-68785904D01*
X108816819Y-68785904D02*
X108769200Y-68881142D01*
X108769200Y-68881142D02*
X108721580Y-68928761D01*
X108816819Y-67881142D02*
X107816819Y-67881142D01*
X107816819Y-67881142D02*
X107816819Y-67500190D01*
X107816819Y-67500190D02*
X107864438Y-67404952D01*
X107864438Y-67404952D02*
X107912057Y-67357333D01*
X107912057Y-67357333D02*
X108007295Y-67309714D01*
X108007295Y-67309714D02*
X108150152Y-67309714D01*
X108150152Y-67309714D02*
X108245390Y-67357333D01*
X108245390Y-67357333D02*
X108293009Y-67404952D01*
X108293009Y-67404952D02*
X108340628Y-67500190D01*
X108340628Y-67500190D02*
X108340628Y-67881142D01*
X108816819Y-66881142D02*
X107816819Y-66881142D01*
X108912057Y-66643048D02*
X108912057Y-65881143D01*
X108769200Y-65690666D02*
X108816819Y-65547809D01*
X108816819Y-65547809D02*
X108816819Y-65309714D01*
X108816819Y-65309714D02*
X108769200Y-65214476D01*
X108769200Y-65214476D02*
X108721580Y-65166857D01*
X108721580Y-65166857D02*
X108626342Y-65119238D01*
X108626342Y-65119238D02*
X108531104Y-65119238D01*
X108531104Y-65119238D02*
X108435866Y-65166857D01*
X108435866Y-65166857D02*
X108388247Y-65214476D01*
X108388247Y-65214476D02*
X108340628Y-65309714D01*
X108340628Y-65309714D02*
X108293009Y-65500190D01*
X108293009Y-65500190D02*
X108245390Y-65595428D01*
X108245390Y-65595428D02*
X108197771Y-65643047D01*
X108197771Y-65643047D02*
X108102533Y-65690666D01*
X108102533Y-65690666D02*
X108007295Y-65690666D01*
X108007295Y-65690666D02*
X107912057Y-65643047D01*
X107912057Y-65643047D02*
X107864438Y-65595428D01*
X107864438Y-65595428D02*
X107816819Y-65500190D01*
X107816819Y-65500190D02*
X107816819Y-65262095D01*
X107816819Y-65262095D02*
X107864438Y-65119238D01*
X107816819Y-64785904D02*
X108816819Y-64547809D01*
X108816819Y-64547809D02*
X108102533Y-64357333D01*
X108102533Y-64357333D02*
X108816819Y-64166857D01*
X108816819Y-64166857D02*
X107816819Y-63928762D01*
X107816819Y-63690666D02*
X107816819Y-63119238D01*
X108816819Y-63404952D02*
X107816819Y-63404952D01*
X108721580Y-62214476D02*
X108769200Y-62262095D01*
X108769200Y-62262095D02*
X108816819Y-62404952D01*
X108816819Y-62404952D02*
X108816819Y-62500190D01*
X108816819Y-62500190D02*
X108769200Y-62643047D01*
X108769200Y-62643047D02*
X108673961Y-62738285D01*
X108673961Y-62738285D02*
X108578723Y-62785904D01*
X108578723Y-62785904D02*
X108388247Y-62833523D01*
X108388247Y-62833523D02*
X108245390Y-62833523D01*
X108245390Y-62833523D02*
X108054914Y-62785904D01*
X108054914Y-62785904D02*
X107959676Y-62738285D01*
X107959676Y-62738285D02*
X107864438Y-62643047D01*
X107864438Y-62643047D02*
X107816819Y-62500190D01*
X107816819Y-62500190D02*
X107816819Y-62404952D01*
X107816819Y-62404952D02*
X107864438Y-62262095D01*
X107864438Y-62262095D02*
X107912057Y-62214476D01*
X108816819Y-61785904D02*
X107816819Y-61785904D01*
X108293009Y-61785904D02*
X108293009Y-61214476D01*
X108816819Y-61214476D02*
X107816819Y-61214476D01*
X104428666Y-64478819D02*
X104428666Y-65193104D01*
X104428666Y-65193104D02*
X104381047Y-65335961D01*
X104381047Y-65335961D02*
X104285809Y-65431200D01*
X104285809Y-65431200D02*
X104142952Y-65478819D01*
X104142952Y-65478819D02*
X104047714Y-65478819D01*
X105333428Y-64478819D02*
X105142952Y-64478819D01*
X105142952Y-64478819D02*
X105047714Y-64526438D01*
X105047714Y-64526438D02*
X105000095Y-64574057D01*
X105000095Y-64574057D02*
X104904857Y-64716914D01*
X104904857Y-64716914D02*
X104857238Y-64907390D01*
X104857238Y-64907390D02*
X104857238Y-65288342D01*
X104857238Y-65288342D02*
X104904857Y-65383580D01*
X104904857Y-65383580D02*
X104952476Y-65431200D01*
X104952476Y-65431200D02*
X105047714Y-65478819D01*
X105047714Y-65478819D02*
X105238190Y-65478819D01*
X105238190Y-65478819D02*
X105333428Y-65431200D01*
X105333428Y-65431200D02*
X105381047Y-65383580D01*
X105381047Y-65383580D02*
X105428666Y-65288342D01*
X105428666Y-65288342D02*
X105428666Y-65050247D01*
X105428666Y-65050247D02*
X105381047Y-64955009D01*
X105381047Y-64955009D02*
X105333428Y-64907390D01*
X105333428Y-64907390D02*
X105238190Y-64859771D01*
X105238190Y-64859771D02*
X105047714Y-64859771D01*
X105047714Y-64859771D02*
X104952476Y-64907390D01*
X104952476Y-64907390D02*
X104904857Y-64955009D01*
X104904857Y-64955009D02*
X104857238Y-65050247D01*
X91385009Y-79160381D02*
X91432628Y-79017524D01*
X91432628Y-79017524D02*
X91480247Y-78969905D01*
X91480247Y-78969905D02*
X91575485Y-78922286D01*
X91575485Y-78922286D02*
X91718342Y-78922286D01*
X91718342Y-78922286D02*
X91813580Y-78969905D01*
X91813580Y-78969905D02*
X91861200Y-79017524D01*
X91861200Y-79017524D02*
X91908819Y-79112762D01*
X91908819Y-79112762D02*
X91908819Y-79493714D01*
X91908819Y-79493714D02*
X90908819Y-79493714D01*
X90908819Y-79493714D02*
X90908819Y-79160381D01*
X90908819Y-79160381D02*
X90956438Y-79065143D01*
X90956438Y-79065143D02*
X91004057Y-79017524D01*
X91004057Y-79017524D02*
X91099295Y-78969905D01*
X91099295Y-78969905D02*
X91194533Y-78969905D01*
X91194533Y-78969905D02*
X91289771Y-79017524D01*
X91289771Y-79017524D02*
X91337390Y-79065143D01*
X91337390Y-79065143D02*
X91385009Y-79160381D01*
X91385009Y-79160381D02*
X91385009Y-79493714D01*
X91242152Y-78636571D02*
X91242152Y-78255619D01*
X90908819Y-78493714D02*
X91765961Y-78493714D01*
X91765961Y-78493714D02*
X91861200Y-78446095D01*
X91861200Y-78446095D02*
X91908819Y-78350857D01*
X91908819Y-78350857D02*
X91908819Y-78255619D01*
X91242152Y-78065142D02*
X91242152Y-77684190D01*
X90908819Y-77922285D02*
X91765961Y-77922285D01*
X91765961Y-77922285D02*
X91861200Y-77874666D01*
X91861200Y-77874666D02*
X91908819Y-77779428D01*
X91908819Y-77779428D02*
X91908819Y-77684190D01*
X91242152Y-77350856D02*
X91908819Y-77350856D01*
X91337390Y-77350856D02*
X91289771Y-77303237D01*
X91289771Y-77303237D02*
X91242152Y-77207999D01*
X91242152Y-77207999D02*
X91242152Y-77065142D01*
X91242152Y-77065142D02*
X91289771Y-76969904D01*
X91289771Y-76969904D02*
X91385009Y-76922285D01*
X91385009Y-76922285D02*
X91908819Y-76922285D01*
X87458819Y-80517523D02*
X86458819Y-80517523D01*
X86458819Y-80517523D02*
X86458819Y-80136571D01*
X86458819Y-80136571D02*
X86506438Y-80041333D01*
X86506438Y-80041333D02*
X86554057Y-79993714D01*
X86554057Y-79993714D02*
X86649295Y-79946095D01*
X86649295Y-79946095D02*
X86792152Y-79946095D01*
X86792152Y-79946095D02*
X86887390Y-79993714D01*
X86887390Y-79993714D02*
X86935009Y-80041333D01*
X86935009Y-80041333D02*
X86982628Y-80136571D01*
X86982628Y-80136571D02*
X86982628Y-80517523D01*
X86458819Y-79612761D02*
X87458819Y-79374666D01*
X87458819Y-79374666D02*
X86744533Y-79184190D01*
X86744533Y-79184190D02*
X87458819Y-78993714D01*
X87458819Y-78993714D02*
X86458819Y-78755619D01*
X87458819Y-77803238D02*
X86982628Y-78136571D01*
X87458819Y-78374666D02*
X86458819Y-78374666D01*
X86458819Y-78374666D02*
X86458819Y-77993714D01*
X86458819Y-77993714D02*
X86506438Y-77898476D01*
X86506438Y-77898476D02*
X86554057Y-77850857D01*
X86554057Y-77850857D02*
X86649295Y-77803238D01*
X86649295Y-77803238D02*
X86792152Y-77803238D01*
X86792152Y-77803238D02*
X86887390Y-77850857D01*
X86887390Y-77850857D02*
X86935009Y-77898476D01*
X86935009Y-77898476D02*
X86982628Y-77993714D01*
X86982628Y-77993714D02*
X86982628Y-78374666D01*
X87458819Y-76850857D02*
X87458819Y-77422285D01*
X87458819Y-77136571D02*
X86458819Y-77136571D01*
X86458819Y-77136571D02*
X86601676Y-77231809D01*
X86601676Y-77231809D02*
X86696914Y-77327047D01*
X86696914Y-77327047D02*
X86744533Y-77422285D01*
X95588523Y-67902819D02*
X95112333Y-67902819D01*
X95112333Y-67902819D02*
X95112333Y-66902819D01*
X95921857Y-67902819D02*
X95921857Y-66902819D01*
X95921857Y-66902819D02*
X96159952Y-66902819D01*
X96159952Y-66902819D02*
X96302809Y-66950438D01*
X96302809Y-66950438D02*
X96398047Y-67045676D01*
X96398047Y-67045676D02*
X96445666Y-67140914D01*
X96445666Y-67140914D02*
X96493285Y-67331390D01*
X96493285Y-67331390D02*
X96493285Y-67474247D01*
X96493285Y-67474247D02*
X96445666Y-67664723D01*
X96445666Y-67664723D02*
X96398047Y-67759961D01*
X96398047Y-67759961D02*
X96302809Y-67855200D01*
X96302809Y-67855200D02*
X96159952Y-67902819D01*
X96159952Y-67902819D02*
X95921857Y-67902819D01*
X97493285Y-67902819D02*
X97159952Y-67426628D01*
X96921857Y-67902819D02*
X96921857Y-66902819D01*
X96921857Y-66902819D02*
X97302809Y-66902819D01*
X97302809Y-66902819D02*
X97398047Y-66950438D01*
X97398047Y-66950438D02*
X97445666Y-66998057D01*
X97445666Y-66998057D02*
X97493285Y-67093295D01*
X97493285Y-67093295D02*
X97493285Y-67236152D01*
X97493285Y-67236152D02*
X97445666Y-67331390D01*
X97445666Y-67331390D02*
X97398047Y-67379009D01*
X97398047Y-67379009D02*
X97302809Y-67426628D01*
X97302809Y-67426628D02*
X96921857Y-67426628D01*
X96312333Y-62002819D02*
X95979000Y-61526628D01*
X95740905Y-62002819D02*
X95740905Y-61002819D01*
X95740905Y-61002819D02*
X96121857Y-61002819D01*
X96121857Y-61002819D02*
X96217095Y-61050438D01*
X96217095Y-61050438D02*
X96264714Y-61098057D01*
X96264714Y-61098057D02*
X96312333Y-61193295D01*
X96312333Y-61193295D02*
X96312333Y-61336152D01*
X96312333Y-61336152D02*
X96264714Y-61431390D01*
X96264714Y-61431390D02*
X96217095Y-61479009D01*
X96217095Y-61479009D02*
X96121857Y-61526628D01*
X96121857Y-61526628D02*
X95740905Y-61526628D01*
X96645667Y-61002819D02*
X97264714Y-61002819D01*
X97264714Y-61002819D02*
X96931381Y-61383771D01*
X96931381Y-61383771D02*
X97074238Y-61383771D01*
X97074238Y-61383771D02*
X97169476Y-61431390D01*
X97169476Y-61431390D02*
X97217095Y-61479009D01*
X97217095Y-61479009D02*
X97264714Y-61574247D01*
X97264714Y-61574247D02*
X97264714Y-61812342D01*
X97264714Y-61812342D02*
X97217095Y-61907580D01*
X97217095Y-61907580D02*
X97169476Y-61955200D01*
X97169476Y-61955200D02*
X97074238Y-62002819D01*
X97074238Y-62002819D02*
X96788524Y-62002819D01*
X96788524Y-62002819D02*
X96693286Y-61955200D01*
X96693286Y-61955200D02*
X96645667Y-61907580D01*
X141078819Y-67066666D02*
X140078819Y-67066666D01*
X140174057Y-66638095D02*
X140126438Y-66590476D01*
X140126438Y-66590476D02*
X140078819Y-66495238D01*
X140078819Y-66495238D02*
X140078819Y-66257143D01*
X140078819Y-66257143D02*
X140126438Y-66161905D01*
X140126438Y-66161905D02*
X140174057Y-66114286D01*
X140174057Y-66114286D02*
X140269295Y-66066667D01*
X140269295Y-66066667D02*
X140364533Y-66066667D01*
X140364533Y-66066667D02*
X140507390Y-66114286D01*
X140507390Y-66114286D02*
X141078819Y-66685714D01*
X141078819Y-66685714D02*
X141078819Y-66066667D01*
X140983580Y-65066667D02*
X141031200Y-65114286D01*
X141031200Y-65114286D02*
X141078819Y-65257143D01*
X141078819Y-65257143D02*
X141078819Y-65352381D01*
X141078819Y-65352381D02*
X141031200Y-65495238D01*
X141031200Y-65495238D02*
X140935961Y-65590476D01*
X140935961Y-65590476D02*
X140840723Y-65638095D01*
X140840723Y-65638095D02*
X140650247Y-65685714D01*
X140650247Y-65685714D02*
X140507390Y-65685714D01*
X140507390Y-65685714D02*
X140316914Y-65638095D01*
X140316914Y-65638095D02*
X140221676Y-65590476D01*
X140221676Y-65590476D02*
X140126438Y-65495238D01*
X140126438Y-65495238D02*
X140078819Y-65352381D01*
X140078819Y-65352381D02*
X140078819Y-65257143D01*
X140078819Y-65257143D02*
X140126438Y-65114286D01*
X140126438Y-65114286D02*
X140174057Y-65066667D01*
X141174057Y-64876191D02*
X141174057Y-64114286D01*
X140555009Y-63876190D02*
X140555009Y-63542857D01*
X141078819Y-63400000D02*
X141078819Y-63876190D01*
X141078819Y-63876190D02*
X140078819Y-63876190D01*
X140078819Y-63876190D02*
X140078819Y-63400000D01*
X141078819Y-63066666D02*
X140412152Y-62542857D01*
X140412152Y-63066666D02*
X141078819Y-62542857D01*
X140412152Y-62161904D02*
X141412152Y-62161904D01*
X140459771Y-62161904D02*
X140412152Y-62066666D01*
X140412152Y-62066666D02*
X140412152Y-61876190D01*
X140412152Y-61876190D02*
X140459771Y-61780952D01*
X140459771Y-61780952D02*
X140507390Y-61733333D01*
X140507390Y-61733333D02*
X140602628Y-61685714D01*
X140602628Y-61685714D02*
X140888342Y-61685714D01*
X140888342Y-61685714D02*
X140983580Y-61733333D01*
X140983580Y-61733333D02*
X141031200Y-61780952D01*
X141031200Y-61780952D02*
X141078819Y-61876190D01*
X141078819Y-61876190D02*
X141078819Y-62066666D01*
X141078819Y-62066666D02*
X141031200Y-62161904D01*
X134150666Y-63854819D02*
X134150666Y-64569104D01*
X134150666Y-64569104D02*
X134103047Y-64711961D01*
X134103047Y-64711961D02*
X134007809Y-64807200D01*
X134007809Y-64807200D02*
X133864952Y-64854819D01*
X133864952Y-64854819D02*
X133769714Y-64854819D01*
X134531619Y-63854819D02*
X135198285Y-63854819D01*
X135198285Y-63854819D02*
X134769714Y-64854819D01*
X131127809Y-110802819D02*
X130556381Y-110802819D01*
X130842095Y-110802819D02*
X130842095Y-109802819D01*
X130842095Y-109802819D02*
X130746857Y-109945676D01*
X130746857Y-109945676D02*
X130651619Y-110040914D01*
X130651619Y-110040914D02*
X130556381Y-110088533D01*
X131746857Y-109802819D02*
X131842095Y-109802819D01*
X131842095Y-109802819D02*
X131937333Y-109850438D01*
X131937333Y-109850438D02*
X131984952Y-109898057D01*
X131984952Y-109898057D02*
X132032571Y-109993295D01*
X132032571Y-109993295D02*
X132080190Y-110183771D01*
X132080190Y-110183771D02*
X132080190Y-110421866D01*
X132080190Y-110421866D02*
X132032571Y-110612342D01*
X132032571Y-110612342D02*
X131984952Y-110707580D01*
X131984952Y-110707580D02*
X131937333Y-110755200D01*
X131937333Y-110755200D02*
X131842095Y-110802819D01*
X131842095Y-110802819D02*
X131746857Y-110802819D01*
X131746857Y-110802819D02*
X131651619Y-110755200D01*
X131651619Y-110755200D02*
X131604000Y-110707580D01*
X131604000Y-110707580D02*
X131556381Y-110612342D01*
X131556381Y-110612342D02*
X131508762Y-110421866D01*
X131508762Y-110421866D02*
X131508762Y-110183771D01*
X131508762Y-110183771D02*
X131556381Y-109993295D01*
X131556381Y-109993295D02*
X131604000Y-109898057D01*
X131604000Y-109898057D02*
X131651619Y-109850438D01*
X131651619Y-109850438D02*
X131746857Y-109802819D01*
X132508762Y-110802819D02*
X132508762Y-109802819D01*
X133080190Y-110802819D02*
X132651619Y-110231390D01*
X133080190Y-109802819D02*
X132508762Y-110374247D01*
X133270667Y-110898057D02*
X134032571Y-110898057D01*
X134746857Y-110802819D02*
X134270667Y-110802819D01*
X134270667Y-110802819D02*
X134270667Y-109802819D01*
X135080191Y-110802819D02*
X135080191Y-109802819D01*
X135080191Y-109802819D02*
X135318286Y-109802819D01*
X135318286Y-109802819D02*
X135461143Y-109850438D01*
X135461143Y-109850438D02*
X135556381Y-109945676D01*
X135556381Y-109945676D02*
X135604000Y-110040914D01*
X135604000Y-110040914D02*
X135651619Y-110231390D01*
X135651619Y-110231390D02*
X135651619Y-110374247D01*
X135651619Y-110374247D02*
X135604000Y-110564723D01*
X135604000Y-110564723D02*
X135556381Y-110659961D01*
X135556381Y-110659961D02*
X135461143Y-110755200D01*
X135461143Y-110755200D02*
X135318286Y-110802819D01*
X135318286Y-110802819D02*
X135080191Y-110802819D01*
X136651619Y-110802819D02*
X136318286Y-110326628D01*
X136080191Y-110802819D02*
X136080191Y-109802819D01*
X136080191Y-109802819D02*
X136461143Y-109802819D01*
X136461143Y-109802819D02*
X136556381Y-109850438D01*
X136556381Y-109850438D02*
X136604000Y-109898057D01*
X136604000Y-109898057D02*
X136651619Y-109993295D01*
X136651619Y-109993295D02*
X136651619Y-110136152D01*
X136651619Y-110136152D02*
X136604000Y-110231390D01*
X136604000Y-110231390D02*
X136556381Y-110279009D01*
X136556381Y-110279009D02*
X136461143Y-110326628D01*
X136461143Y-110326628D02*
X136080191Y-110326628D01*
D12*
X133484000Y-112595469D02*
X133244000Y-112252612D01*
X133072571Y-112595469D02*
X133072571Y-111875469D01*
X133072571Y-111875469D02*
X133346857Y-111875469D01*
X133346857Y-111875469D02*
X133415428Y-111909755D01*
X133415428Y-111909755D02*
X133449714Y-111944041D01*
X133449714Y-111944041D02*
X133484000Y-112012612D01*
X133484000Y-112012612D02*
X133484000Y-112115469D01*
X133484000Y-112115469D02*
X133449714Y-112184041D01*
X133449714Y-112184041D02*
X133415428Y-112218326D01*
X133415428Y-112218326D02*
X133346857Y-112252612D01*
X133346857Y-112252612D02*
X133072571Y-112252612D01*
X133724000Y-111875469D02*
X134204000Y-111875469D01*
X134204000Y-111875469D02*
X133895428Y-112595469D01*
D10*
X95983523Y-121662819D02*
X95507333Y-121662819D01*
X95507333Y-121662819D02*
X95507333Y-120662819D01*
X96316857Y-121662819D02*
X96316857Y-120662819D01*
X96316857Y-120662819D02*
X96554952Y-120662819D01*
X96554952Y-120662819D02*
X96697809Y-120710438D01*
X96697809Y-120710438D02*
X96793047Y-120805676D01*
X96793047Y-120805676D02*
X96840666Y-120900914D01*
X96840666Y-120900914D02*
X96888285Y-121091390D01*
X96888285Y-121091390D02*
X96888285Y-121234247D01*
X96888285Y-121234247D02*
X96840666Y-121424723D01*
X96840666Y-121424723D02*
X96793047Y-121519961D01*
X96793047Y-121519961D02*
X96697809Y-121615200D01*
X96697809Y-121615200D02*
X96554952Y-121662819D01*
X96554952Y-121662819D02*
X96316857Y-121662819D01*
X97888285Y-121662819D02*
X97554952Y-121186628D01*
X97316857Y-121662819D02*
X97316857Y-120662819D01*
X97316857Y-120662819D02*
X97697809Y-120662819D01*
X97697809Y-120662819D02*
X97793047Y-120710438D01*
X97793047Y-120710438D02*
X97840666Y-120758057D01*
X97840666Y-120758057D02*
X97888285Y-120853295D01*
X97888285Y-120853295D02*
X97888285Y-120996152D01*
X97888285Y-120996152D02*
X97840666Y-121091390D01*
X97840666Y-121091390D02*
X97793047Y-121139009D01*
X97793047Y-121139009D02*
X97697809Y-121186628D01*
X97697809Y-121186628D02*
X97316857Y-121186628D01*
X96307333Y-127562819D02*
X95974000Y-127086628D01*
X95735905Y-127562819D02*
X95735905Y-126562819D01*
X95735905Y-126562819D02*
X96116857Y-126562819D01*
X96116857Y-126562819D02*
X96212095Y-126610438D01*
X96212095Y-126610438D02*
X96259714Y-126658057D01*
X96259714Y-126658057D02*
X96307333Y-126753295D01*
X96307333Y-126753295D02*
X96307333Y-126896152D01*
X96307333Y-126896152D02*
X96259714Y-126991390D01*
X96259714Y-126991390D02*
X96212095Y-127039009D01*
X96212095Y-127039009D02*
X96116857Y-127086628D01*
X96116857Y-127086628D02*
X95735905Y-127086628D01*
X96688286Y-126658057D02*
X96735905Y-126610438D01*
X96735905Y-126610438D02*
X96831143Y-126562819D01*
X96831143Y-126562819D02*
X97069238Y-126562819D01*
X97069238Y-126562819D02*
X97164476Y-126610438D01*
X97164476Y-126610438D02*
X97212095Y-126658057D01*
X97212095Y-126658057D02*
X97259714Y-126753295D01*
X97259714Y-126753295D02*
X97259714Y-126848533D01*
X97259714Y-126848533D02*
X97212095Y-126991390D01*
X97212095Y-126991390D02*
X96640667Y-127562819D01*
X96640667Y-127562819D02*
X97259714Y-127562819D01*
X131057809Y-113342819D02*
X130486381Y-113342819D01*
X130772095Y-113342819D02*
X130772095Y-112342819D01*
X130772095Y-112342819D02*
X130676857Y-112485676D01*
X130676857Y-112485676D02*
X130581619Y-112580914D01*
X130581619Y-112580914D02*
X130486381Y-112628533D01*
X131676857Y-112342819D02*
X131772095Y-112342819D01*
X131772095Y-112342819D02*
X131867333Y-112390438D01*
X131867333Y-112390438D02*
X131914952Y-112438057D01*
X131914952Y-112438057D02*
X131962571Y-112533295D01*
X131962571Y-112533295D02*
X132010190Y-112723771D01*
X132010190Y-112723771D02*
X132010190Y-112961866D01*
X132010190Y-112961866D02*
X131962571Y-113152342D01*
X131962571Y-113152342D02*
X131914952Y-113247580D01*
X131914952Y-113247580D02*
X131867333Y-113295200D01*
X131867333Y-113295200D02*
X131772095Y-113342819D01*
X131772095Y-113342819D02*
X131676857Y-113342819D01*
X131676857Y-113342819D02*
X131581619Y-113295200D01*
X131581619Y-113295200D02*
X131534000Y-113247580D01*
X131534000Y-113247580D02*
X131486381Y-113152342D01*
X131486381Y-113152342D02*
X131438762Y-112961866D01*
X131438762Y-112961866D02*
X131438762Y-112723771D01*
X131438762Y-112723771D02*
X131486381Y-112533295D01*
X131486381Y-112533295D02*
X131534000Y-112438057D01*
X131534000Y-112438057D02*
X131581619Y-112390438D01*
X131581619Y-112390438D02*
X131676857Y-112342819D01*
X132438762Y-113342819D02*
X132438762Y-112342819D01*
X133010190Y-113342819D02*
X132581619Y-112771390D01*
X133010190Y-112342819D02*
X132438762Y-112914247D01*
X133200667Y-113438057D02*
X133962571Y-113438057D01*
X134676857Y-113342819D02*
X134200667Y-113342819D01*
X134200667Y-113342819D02*
X134200667Y-112342819D01*
X135010191Y-113342819D02*
X135010191Y-112342819D01*
X135010191Y-112342819D02*
X135248286Y-112342819D01*
X135248286Y-112342819D02*
X135391143Y-112390438D01*
X135391143Y-112390438D02*
X135486381Y-112485676D01*
X135486381Y-112485676D02*
X135534000Y-112580914D01*
X135534000Y-112580914D02*
X135581619Y-112771390D01*
X135581619Y-112771390D02*
X135581619Y-112914247D01*
X135581619Y-112914247D02*
X135534000Y-113104723D01*
X135534000Y-113104723D02*
X135486381Y-113199961D01*
X135486381Y-113199961D02*
X135391143Y-113295200D01*
X135391143Y-113295200D02*
X135248286Y-113342819D01*
X135248286Y-113342819D02*
X135010191Y-113342819D01*
X136581619Y-113342819D02*
X136248286Y-112866628D01*
X136010191Y-113342819D02*
X136010191Y-112342819D01*
X136010191Y-112342819D02*
X136391143Y-112342819D01*
X136391143Y-112342819D02*
X136486381Y-112390438D01*
X136486381Y-112390438D02*
X136534000Y-112438057D01*
X136534000Y-112438057D02*
X136581619Y-112533295D01*
X136581619Y-112533295D02*
X136581619Y-112676152D01*
X136581619Y-112676152D02*
X136534000Y-112771390D01*
X136534000Y-112771390D02*
X136486381Y-112819009D01*
X136486381Y-112819009D02*
X136391143Y-112866628D01*
X136391143Y-112866628D02*
X136010191Y-112866628D01*
D12*
X133414000Y-115135469D02*
X133174000Y-114792612D01*
X133002571Y-115135469D02*
X133002571Y-114415469D01*
X133002571Y-114415469D02*
X133276857Y-114415469D01*
X133276857Y-114415469D02*
X133345428Y-114449755D01*
X133345428Y-114449755D02*
X133379714Y-114484041D01*
X133379714Y-114484041D02*
X133414000Y-114552612D01*
X133414000Y-114552612D02*
X133414000Y-114655469D01*
X133414000Y-114655469D02*
X133379714Y-114724041D01*
X133379714Y-114724041D02*
X133345428Y-114758326D01*
X133345428Y-114758326D02*
X133276857Y-114792612D01*
X133276857Y-114792612D02*
X133002571Y-114792612D01*
X134031143Y-114655469D02*
X134031143Y-115135469D01*
X133859714Y-114381184D02*
X133688285Y-114895469D01*
X133688285Y-114895469D02*
X134134000Y-114895469D01*
D10*
X151347772Y-78908765D02*
X150925154Y-78002457D01*
X150925154Y-78002457D02*
X151270414Y-77841460D01*
X151270414Y-77841460D02*
X151376854Y-77844368D01*
X151376854Y-77844368D02*
X151440136Y-77867401D01*
X151440136Y-77867401D02*
X151523543Y-77933591D01*
X151523543Y-77933591D02*
X151583917Y-78063064D01*
X151583917Y-78063064D02*
X151581009Y-78169503D01*
X151581009Y-78169503D02*
X151557976Y-78232786D01*
X151557976Y-78232786D02*
X151491786Y-78316192D01*
X151491786Y-78316192D02*
X151146526Y-78477190D01*
X152254080Y-78486147D02*
X151972335Y-77881942D01*
X152052833Y-78054572D02*
X152055742Y-77948132D01*
X152055742Y-77948132D02*
X152078774Y-77884850D01*
X152078774Y-77884850D02*
X152144965Y-77801443D01*
X152144965Y-77801443D02*
X152231280Y-77761193D01*
X152944601Y-78164152D02*
X152838161Y-78161244D01*
X152838161Y-78161244D02*
X152774879Y-78138211D01*
X152774879Y-78138211D02*
X152691472Y-78072020D01*
X152691472Y-78072020D02*
X152570724Y-77813075D01*
X152570724Y-77813075D02*
X152573632Y-77706636D01*
X152573632Y-77706636D02*
X152596665Y-77643353D01*
X152596665Y-77643353D02*
X152662855Y-77559947D01*
X152662855Y-77559947D02*
X152792328Y-77499572D01*
X152792328Y-77499572D02*
X152898767Y-77502481D01*
X152898767Y-77502481D02*
X152962050Y-77525513D01*
X152962050Y-77525513D02*
X153045457Y-77591704D01*
X153045457Y-77591704D02*
X153166205Y-77850649D01*
X153166205Y-77850649D02*
X153163296Y-77957089D01*
X153163296Y-77957089D02*
X153140264Y-78020371D01*
X153140264Y-78020371D02*
X153074073Y-78103778D01*
X153074073Y-78103778D02*
X152944601Y-78164152D01*
X153548806Y-77882406D02*
X153741793Y-77056829D01*
X153267061Y-77278201D02*
X154023539Y-77661035D01*
X154204893Y-77261217D02*
X154636468Y-77059970D01*
X154239326Y-77560411D02*
X154118811Y-76513231D01*
X154118811Y-76513231D02*
X154843532Y-77278666D01*
X150597053Y-71614461D02*
X149949691Y-71916332D01*
X149949691Y-71916332D02*
X149800094Y-71933548D01*
X149800094Y-71933548D02*
X149673529Y-71887482D01*
X149673529Y-71887482D02*
X149569998Y-71778135D01*
X149569998Y-71778135D02*
X149529748Y-71691820D01*
X150470257Y-72356631D02*
X150473165Y-72250192D01*
X150473165Y-72250192D02*
X150496198Y-72186909D01*
X150496198Y-72186909D02*
X150562388Y-72103503D01*
X150562388Y-72103503D02*
X150605546Y-72083378D01*
X150605546Y-72083378D02*
X150711985Y-72086286D01*
X150711985Y-72086286D02*
X150775267Y-72109319D01*
X150775267Y-72109319D02*
X150858674Y-72175509D01*
X150858674Y-72175509D02*
X150939173Y-72348139D01*
X150939173Y-72348139D02*
X150936265Y-72454579D01*
X150936265Y-72454579D02*
X150913232Y-72517861D01*
X150913232Y-72517861D02*
X150847042Y-72601268D01*
X150847042Y-72601268D02*
X150803884Y-72621393D01*
X150803884Y-72621393D02*
X150697445Y-72618485D01*
X150697445Y-72618485D02*
X150634162Y-72595452D01*
X150634162Y-72595452D02*
X150550755Y-72529261D01*
X150550755Y-72529261D02*
X150470257Y-72356631D01*
X150470257Y-72356631D02*
X150386850Y-72290441D01*
X150386850Y-72290441D02*
X150323568Y-72267408D01*
X150323568Y-72267408D02*
X150217128Y-72264500D01*
X150217128Y-72264500D02*
X150044498Y-72344999D01*
X150044498Y-72344999D02*
X149978308Y-72428406D01*
X149978308Y-72428406D02*
X149955275Y-72491688D01*
X149955275Y-72491688D02*
X149952367Y-72598128D01*
X149952367Y-72598128D02*
X150032865Y-72770758D01*
X150032865Y-72770758D02*
X150116272Y-72836948D01*
X150116272Y-72836948D02*
X150179554Y-72859981D01*
X150179554Y-72859981D02*
X150285994Y-72862889D01*
X150285994Y-72862889D02*
X150458624Y-72782390D01*
X150458624Y-72782390D02*
X150524814Y-72698983D01*
X150524814Y-72698983D02*
X150547847Y-72635701D01*
X150547847Y-72635701D02*
X150550755Y-72529261D01*
X114731143Y-127627819D02*
X115302571Y-127627819D01*
X115016857Y-128627819D02*
X115016857Y-127627819D01*
X115588286Y-128580200D02*
X115731143Y-128627819D01*
X115731143Y-128627819D02*
X115969238Y-128627819D01*
X115969238Y-128627819D02*
X116064476Y-128580200D01*
X116064476Y-128580200D02*
X116112095Y-128532580D01*
X116112095Y-128532580D02*
X116159714Y-128437342D01*
X116159714Y-128437342D02*
X116159714Y-128342104D01*
X116159714Y-128342104D02*
X116112095Y-128246866D01*
X116112095Y-128246866D02*
X116064476Y-128199247D01*
X116064476Y-128199247D02*
X115969238Y-128151628D01*
X115969238Y-128151628D02*
X115778762Y-128104009D01*
X115778762Y-128104009D02*
X115683524Y-128056390D01*
X115683524Y-128056390D02*
X115635905Y-128008771D01*
X115635905Y-128008771D02*
X115588286Y-127913533D01*
X115588286Y-127913533D02*
X115588286Y-127818295D01*
X115588286Y-127818295D02*
X115635905Y-127723057D01*
X115635905Y-127723057D02*
X115683524Y-127675438D01*
X115683524Y-127675438D02*
X115778762Y-127627819D01*
X115778762Y-127627819D02*
X116016857Y-127627819D01*
X116016857Y-127627819D02*
X116159714Y-127675438D01*
X116588286Y-128627819D02*
X116588286Y-127627819D01*
X116588286Y-127627819D02*
X116826381Y-127627819D01*
X116826381Y-127627819D02*
X116969238Y-127675438D01*
X116969238Y-127675438D02*
X117064476Y-127770676D01*
X117064476Y-127770676D02*
X117112095Y-127865914D01*
X117112095Y-127865914D02*
X117159714Y-128056390D01*
X117159714Y-128056390D02*
X117159714Y-128199247D01*
X117159714Y-128199247D02*
X117112095Y-128389723D01*
X117112095Y-128389723D02*
X117064476Y-128484961D01*
X117064476Y-128484961D02*
X116969238Y-128580200D01*
X116969238Y-128580200D02*
X116826381Y-128627819D01*
X116826381Y-128627819D02*
X116588286Y-128627819D01*
X117588286Y-128627819D02*
X117588286Y-127627819D01*
X117588286Y-127627819D02*
X117969238Y-127627819D01*
X117969238Y-127627819D02*
X118064476Y-127675438D01*
X118064476Y-127675438D02*
X118112095Y-127723057D01*
X118112095Y-127723057D02*
X118159714Y-127818295D01*
X118159714Y-127818295D02*
X118159714Y-127961152D01*
X118159714Y-127961152D02*
X118112095Y-128056390D01*
X118112095Y-128056390D02*
X118064476Y-128104009D01*
X118064476Y-128104009D02*
X117969238Y-128151628D01*
X117969238Y-128151628D02*
X117588286Y-128151628D01*
X118493048Y-127627819D02*
X119112095Y-127627819D01*
X119112095Y-127627819D02*
X118778762Y-128008771D01*
X118778762Y-128008771D02*
X118921619Y-128008771D01*
X118921619Y-128008771D02*
X119016857Y-128056390D01*
X119016857Y-128056390D02*
X119064476Y-128104009D01*
X119064476Y-128104009D02*
X119112095Y-128199247D01*
X119112095Y-128199247D02*
X119112095Y-128437342D01*
X119112095Y-128437342D02*
X119064476Y-128532580D01*
X119064476Y-128532580D02*
X119016857Y-128580200D01*
X119016857Y-128580200D02*
X118921619Y-128627819D01*
X118921619Y-128627819D02*
X118635905Y-128627819D01*
X118635905Y-128627819D02*
X118540667Y-128580200D01*
X118540667Y-128580200D02*
X118493048Y-128532580D01*
X119969238Y-127961152D02*
X119969238Y-128627819D01*
X119731143Y-127580200D02*
X119493048Y-128294485D01*
X119493048Y-128294485D02*
X120112095Y-128294485D01*
X121016857Y-128627819D02*
X120445429Y-128627819D01*
X120731143Y-128627819D02*
X120731143Y-127627819D01*
X120731143Y-127627819D02*
X120635905Y-127770676D01*
X120635905Y-127770676D02*
X120540667Y-127865914D01*
X120540667Y-127865914D02*
X120445429Y-127913533D01*
X121350191Y-127627819D02*
X121969238Y-127627819D01*
X121969238Y-127627819D02*
X121635905Y-128008771D01*
X121635905Y-128008771D02*
X121778762Y-128008771D01*
X121778762Y-128008771D02*
X121874000Y-128056390D01*
X121874000Y-128056390D02*
X121921619Y-128104009D01*
X121921619Y-128104009D02*
X121969238Y-128199247D01*
X121969238Y-128199247D02*
X121969238Y-128437342D01*
X121969238Y-128437342D02*
X121921619Y-128532580D01*
X121921619Y-128532580D02*
X121874000Y-128580200D01*
X121874000Y-128580200D02*
X121778762Y-128627819D01*
X121778762Y-128627819D02*
X121493048Y-128627819D01*
X121493048Y-128627819D02*
X121397810Y-128580200D01*
X121397810Y-128580200D02*
X121350191Y-128532580D01*
X122540667Y-128056390D02*
X122445429Y-128008771D01*
X122445429Y-128008771D02*
X122397810Y-127961152D01*
X122397810Y-127961152D02*
X122350191Y-127865914D01*
X122350191Y-127865914D02*
X122350191Y-127818295D01*
X122350191Y-127818295D02*
X122397810Y-127723057D01*
X122397810Y-127723057D02*
X122445429Y-127675438D01*
X122445429Y-127675438D02*
X122540667Y-127627819D01*
X122540667Y-127627819D02*
X122731143Y-127627819D01*
X122731143Y-127627819D02*
X122826381Y-127675438D01*
X122826381Y-127675438D02*
X122874000Y-127723057D01*
X122874000Y-127723057D02*
X122921619Y-127818295D01*
X122921619Y-127818295D02*
X122921619Y-127865914D01*
X122921619Y-127865914D02*
X122874000Y-127961152D01*
X122874000Y-127961152D02*
X122826381Y-128008771D01*
X122826381Y-128008771D02*
X122731143Y-128056390D01*
X122731143Y-128056390D02*
X122540667Y-128056390D01*
X122540667Y-128056390D02*
X122445429Y-128104009D01*
X122445429Y-128104009D02*
X122397810Y-128151628D01*
X122397810Y-128151628D02*
X122350191Y-128246866D01*
X122350191Y-128246866D02*
X122350191Y-128437342D01*
X122350191Y-128437342D02*
X122397810Y-128532580D01*
X122397810Y-128532580D02*
X122445429Y-128580200D01*
X122445429Y-128580200D02*
X122540667Y-128627819D01*
X122540667Y-128627819D02*
X122731143Y-128627819D01*
X122731143Y-128627819D02*
X122826381Y-128580200D01*
X122826381Y-128580200D02*
X122874000Y-128532580D01*
X122874000Y-128532580D02*
X122921619Y-128437342D01*
X122921619Y-128437342D02*
X122921619Y-128246866D01*
X122921619Y-128246866D02*
X122874000Y-128151628D01*
X122874000Y-128151628D02*
X122826381Y-128104009D01*
X122826381Y-128104009D02*
X122731143Y-128056390D01*
X118287095Y-123943819D02*
X118287095Y-124753342D01*
X118287095Y-124753342D02*
X118334714Y-124848580D01*
X118334714Y-124848580D02*
X118382333Y-124896200D01*
X118382333Y-124896200D02*
X118477571Y-124943819D01*
X118477571Y-124943819D02*
X118668047Y-124943819D01*
X118668047Y-124943819D02*
X118763285Y-124896200D01*
X118763285Y-124896200D02*
X118810904Y-124848580D01*
X118810904Y-124848580D02*
X118858523Y-124753342D01*
X118858523Y-124753342D02*
X118858523Y-123943819D01*
X119810904Y-123943819D02*
X119334714Y-123943819D01*
X119334714Y-123943819D02*
X119287095Y-124420009D01*
X119287095Y-124420009D02*
X119334714Y-124372390D01*
X119334714Y-124372390D02*
X119429952Y-124324771D01*
X119429952Y-124324771D02*
X119668047Y-124324771D01*
X119668047Y-124324771D02*
X119763285Y-124372390D01*
X119763285Y-124372390D02*
X119810904Y-124420009D01*
X119810904Y-124420009D02*
X119858523Y-124515247D01*
X119858523Y-124515247D02*
X119858523Y-124753342D01*
X119858523Y-124753342D02*
X119810904Y-124848580D01*
X119810904Y-124848580D02*
X119763285Y-124896200D01*
X119763285Y-124896200D02*
X119668047Y-124943819D01*
X119668047Y-124943819D02*
X119429952Y-124943819D01*
X119429952Y-124943819D02*
X119334714Y-124896200D01*
X119334714Y-124896200D02*
X119287095Y-124848580D01*
X145658853Y-121164918D02*
X146081471Y-120258610D01*
X146081471Y-120258610D02*
X146426731Y-120419608D01*
X146426731Y-120419608D02*
X146492922Y-120503014D01*
X146492922Y-120503014D02*
X146515955Y-120566297D01*
X146515955Y-120566297D02*
X146518863Y-120672736D01*
X146518863Y-120672736D02*
X146458489Y-120802209D01*
X146458489Y-120802209D02*
X146375082Y-120868399D01*
X146375082Y-120868399D02*
X146311800Y-120891432D01*
X146311800Y-120891432D02*
X146205360Y-120894340D01*
X146205360Y-120894340D02*
X145860100Y-120733343D01*
X146565161Y-121587536D02*
X146846906Y-120983331D01*
X146766408Y-121155961D02*
X146849815Y-121089771D01*
X146849815Y-121089771D02*
X146913097Y-121066738D01*
X146913097Y-121066738D02*
X147019536Y-121063830D01*
X147019536Y-121063830D02*
X147105851Y-121104079D01*
X147255681Y-121909531D02*
X147189491Y-121826124D01*
X147189491Y-121826124D02*
X147166458Y-121762842D01*
X147166458Y-121762842D02*
X147163550Y-121656402D01*
X147163550Y-121656402D02*
X147284298Y-121397457D01*
X147284298Y-121397457D02*
X147367705Y-121331267D01*
X147367705Y-121331267D02*
X147430987Y-121308234D01*
X147430987Y-121308234D02*
X147537427Y-121305326D01*
X147537427Y-121305326D02*
X147666899Y-121365700D01*
X147666899Y-121365700D02*
X147733090Y-121449107D01*
X147733090Y-121449107D02*
X147756123Y-121512389D01*
X147756123Y-121512389D02*
X147759031Y-121618829D01*
X147759031Y-121618829D02*
X147638283Y-121877774D01*
X147638283Y-121877774D02*
X147554876Y-121943964D01*
X147554876Y-121943964D02*
X147491594Y-121966997D01*
X147491594Y-121966997D02*
X147385154Y-121969905D01*
X147385154Y-121969905D02*
X147255681Y-121909531D01*
X147859887Y-122191277D02*
X148616365Y-121808443D01*
X148141632Y-121587072D02*
X148334619Y-122412648D01*
X149203354Y-122239786D02*
X149312702Y-122343317D01*
X149312702Y-122343317D02*
X149335734Y-122406600D01*
X149335734Y-122406600D02*
X149338643Y-122513039D01*
X149338643Y-122513039D02*
X149278269Y-122642512D01*
X149278269Y-122642512D02*
X149194862Y-122708702D01*
X149194862Y-122708702D02*
X149131579Y-122731735D01*
X149131579Y-122731735D02*
X149025140Y-122734643D01*
X149025140Y-122734643D02*
X148679880Y-122573646D01*
X148679880Y-122573646D02*
X149102498Y-121667338D01*
X149102498Y-121667338D02*
X149404600Y-121808211D01*
X149404600Y-121808211D02*
X149470791Y-121891618D01*
X149470791Y-121891618D02*
X149493824Y-121954900D01*
X149493824Y-121954900D02*
X149496732Y-122061339D01*
X149496732Y-122061339D02*
X149456482Y-122147654D01*
X149456482Y-122147654D02*
X149373076Y-122213845D01*
X149373076Y-122213845D02*
X149309793Y-122236878D01*
X149309793Y-122236878D02*
X149203354Y-122239786D01*
X149203354Y-122239786D02*
X148901251Y-122098913D01*
X149558849Y-116074732D02*
X150206212Y-116376602D01*
X150206212Y-116376602D02*
X150315560Y-116480134D01*
X150315560Y-116480134D02*
X150361625Y-116606698D01*
X150361625Y-116606698D02*
X150344409Y-116756295D01*
X150344409Y-116756295D02*
X150304159Y-116842610D01*
X150686528Y-116022617D02*
X150767027Y-115849987D01*
X150767027Y-115849987D02*
X150764119Y-115743547D01*
X150764119Y-115743547D02*
X150741086Y-115680265D01*
X150741086Y-115680265D02*
X150651863Y-115533576D01*
X150651863Y-115533576D02*
X150499357Y-115409920D01*
X150499357Y-115409920D02*
X150154097Y-115248923D01*
X150154097Y-115248923D02*
X150047658Y-115251831D01*
X150047658Y-115251831D02*
X149984375Y-115274864D01*
X149984375Y-115274864D02*
X149900969Y-115341054D01*
X149900969Y-115341054D02*
X149820470Y-115513684D01*
X149820470Y-115513684D02*
X149823378Y-115620124D01*
X149823378Y-115620124D02*
X149846411Y-115683406D01*
X149846411Y-115683406D02*
X149912601Y-115766813D01*
X149912601Y-115766813D02*
X150128389Y-115867436D01*
X150128389Y-115867436D02*
X150234828Y-115864528D01*
X150234828Y-115864528D02*
X150298111Y-115841495D01*
X150298111Y-115841495D02*
X150381518Y-115775305D01*
X150381518Y-115775305D02*
X150462016Y-115602675D01*
X150462016Y-115602675D02*
X150459108Y-115496235D01*
X150459108Y-115496235D02*
X150436075Y-115432953D01*
X150436075Y-115432953D02*
X150369885Y-115349546D01*
X114851143Y-59727819D02*
X115422571Y-59727819D01*
X115136857Y-60727819D02*
X115136857Y-59727819D01*
X115708286Y-60680200D02*
X115851143Y-60727819D01*
X115851143Y-60727819D02*
X116089238Y-60727819D01*
X116089238Y-60727819D02*
X116184476Y-60680200D01*
X116184476Y-60680200D02*
X116232095Y-60632580D01*
X116232095Y-60632580D02*
X116279714Y-60537342D01*
X116279714Y-60537342D02*
X116279714Y-60442104D01*
X116279714Y-60442104D02*
X116232095Y-60346866D01*
X116232095Y-60346866D02*
X116184476Y-60299247D01*
X116184476Y-60299247D02*
X116089238Y-60251628D01*
X116089238Y-60251628D02*
X115898762Y-60204009D01*
X115898762Y-60204009D02*
X115803524Y-60156390D01*
X115803524Y-60156390D02*
X115755905Y-60108771D01*
X115755905Y-60108771D02*
X115708286Y-60013533D01*
X115708286Y-60013533D02*
X115708286Y-59918295D01*
X115708286Y-59918295D02*
X115755905Y-59823057D01*
X115755905Y-59823057D02*
X115803524Y-59775438D01*
X115803524Y-59775438D02*
X115898762Y-59727819D01*
X115898762Y-59727819D02*
X116136857Y-59727819D01*
X116136857Y-59727819D02*
X116279714Y-59775438D01*
X116708286Y-60727819D02*
X116708286Y-59727819D01*
X116708286Y-59727819D02*
X116946381Y-59727819D01*
X116946381Y-59727819D02*
X117089238Y-59775438D01*
X117089238Y-59775438D02*
X117184476Y-59870676D01*
X117184476Y-59870676D02*
X117232095Y-59965914D01*
X117232095Y-59965914D02*
X117279714Y-60156390D01*
X117279714Y-60156390D02*
X117279714Y-60299247D01*
X117279714Y-60299247D02*
X117232095Y-60489723D01*
X117232095Y-60489723D02*
X117184476Y-60584961D01*
X117184476Y-60584961D02*
X117089238Y-60680200D01*
X117089238Y-60680200D02*
X116946381Y-60727819D01*
X116946381Y-60727819D02*
X116708286Y-60727819D01*
X117708286Y-60727819D02*
X117708286Y-59727819D01*
X117708286Y-59727819D02*
X118089238Y-59727819D01*
X118089238Y-59727819D02*
X118184476Y-59775438D01*
X118184476Y-59775438D02*
X118232095Y-59823057D01*
X118232095Y-59823057D02*
X118279714Y-59918295D01*
X118279714Y-59918295D02*
X118279714Y-60061152D01*
X118279714Y-60061152D02*
X118232095Y-60156390D01*
X118232095Y-60156390D02*
X118184476Y-60204009D01*
X118184476Y-60204009D02*
X118089238Y-60251628D01*
X118089238Y-60251628D02*
X117708286Y-60251628D01*
X118613048Y-59727819D02*
X119232095Y-59727819D01*
X119232095Y-59727819D02*
X118898762Y-60108771D01*
X118898762Y-60108771D02*
X119041619Y-60108771D01*
X119041619Y-60108771D02*
X119136857Y-60156390D01*
X119136857Y-60156390D02*
X119184476Y-60204009D01*
X119184476Y-60204009D02*
X119232095Y-60299247D01*
X119232095Y-60299247D02*
X119232095Y-60537342D01*
X119232095Y-60537342D02*
X119184476Y-60632580D01*
X119184476Y-60632580D02*
X119136857Y-60680200D01*
X119136857Y-60680200D02*
X119041619Y-60727819D01*
X119041619Y-60727819D02*
X118755905Y-60727819D01*
X118755905Y-60727819D02*
X118660667Y-60680200D01*
X118660667Y-60680200D02*
X118613048Y-60632580D01*
X120089238Y-60061152D02*
X120089238Y-60727819D01*
X119851143Y-59680200D02*
X119613048Y-60394485D01*
X119613048Y-60394485D02*
X120232095Y-60394485D01*
X121136857Y-60727819D02*
X120565429Y-60727819D01*
X120851143Y-60727819D02*
X120851143Y-59727819D01*
X120851143Y-59727819D02*
X120755905Y-59870676D01*
X120755905Y-59870676D02*
X120660667Y-59965914D01*
X120660667Y-59965914D02*
X120565429Y-60013533D01*
X121470191Y-59727819D02*
X122089238Y-59727819D01*
X122089238Y-59727819D02*
X121755905Y-60108771D01*
X121755905Y-60108771D02*
X121898762Y-60108771D01*
X121898762Y-60108771D02*
X121994000Y-60156390D01*
X121994000Y-60156390D02*
X122041619Y-60204009D01*
X122041619Y-60204009D02*
X122089238Y-60299247D01*
X122089238Y-60299247D02*
X122089238Y-60537342D01*
X122089238Y-60537342D02*
X122041619Y-60632580D01*
X122041619Y-60632580D02*
X121994000Y-60680200D01*
X121994000Y-60680200D02*
X121898762Y-60727819D01*
X121898762Y-60727819D02*
X121613048Y-60727819D01*
X121613048Y-60727819D02*
X121517810Y-60680200D01*
X121517810Y-60680200D02*
X121470191Y-60632580D01*
X122660667Y-60156390D02*
X122565429Y-60108771D01*
X122565429Y-60108771D02*
X122517810Y-60061152D01*
X122517810Y-60061152D02*
X122470191Y-59965914D01*
X122470191Y-59965914D02*
X122470191Y-59918295D01*
X122470191Y-59918295D02*
X122517810Y-59823057D01*
X122517810Y-59823057D02*
X122565429Y-59775438D01*
X122565429Y-59775438D02*
X122660667Y-59727819D01*
X122660667Y-59727819D02*
X122851143Y-59727819D01*
X122851143Y-59727819D02*
X122946381Y-59775438D01*
X122946381Y-59775438D02*
X122994000Y-59823057D01*
X122994000Y-59823057D02*
X123041619Y-59918295D01*
X123041619Y-59918295D02*
X123041619Y-59965914D01*
X123041619Y-59965914D02*
X122994000Y-60061152D01*
X122994000Y-60061152D02*
X122946381Y-60108771D01*
X122946381Y-60108771D02*
X122851143Y-60156390D01*
X122851143Y-60156390D02*
X122660667Y-60156390D01*
X122660667Y-60156390D02*
X122565429Y-60204009D01*
X122565429Y-60204009D02*
X122517810Y-60251628D01*
X122517810Y-60251628D02*
X122470191Y-60346866D01*
X122470191Y-60346866D02*
X122470191Y-60537342D01*
X122470191Y-60537342D02*
X122517810Y-60632580D01*
X122517810Y-60632580D02*
X122565429Y-60680200D01*
X122565429Y-60680200D02*
X122660667Y-60727819D01*
X122660667Y-60727819D02*
X122851143Y-60727819D01*
X122851143Y-60727819D02*
X122946381Y-60680200D01*
X122946381Y-60680200D02*
X122994000Y-60632580D01*
X122994000Y-60632580D02*
X123041619Y-60537342D01*
X123041619Y-60537342D02*
X123041619Y-60346866D01*
X123041619Y-60346866D02*
X122994000Y-60251628D01*
X122994000Y-60251628D02*
X122946381Y-60204009D01*
X122946381Y-60204009D02*
X122851143Y-60156390D01*
X118057095Y-63411819D02*
X118057095Y-64221342D01*
X118057095Y-64221342D02*
X118104714Y-64316580D01*
X118104714Y-64316580D02*
X118152333Y-64364200D01*
X118152333Y-64364200D02*
X118247571Y-64411819D01*
X118247571Y-64411819D02*
X118438047Y-64411819D01*
X118438047Y-64411819D02*
X118533285Y-64364200D01*
X118533285Y-64364200D02*
X118580904Y-64316580D01*
X118580904Y-64316580D02*
X118628523Y-64221342D01*
X118628523Y-64221342D02*
X118628523Y-63411819D01*
X119009476Y-63411819D02*
X119628523Y-63411819D01*
X119628523Y-63411819D02*
X119295190Y-63792771D01*
X119295190Y-63792771D02*
X119438047Y-63792771D01*
X119438047Y-63792771D02*
X119533285Y-63840390D01*
X119533285Y-63840390D02*
X119580904Y-63888009D01*
X119580904Y-63888009D02*
X119628523Y-63983247D01*
X119628523Y-63983247D02*
X119628523Y-64221342D01*
X119628523Y-64221342D02*
X119580904Y-64316580D01*
X119580904Y-64316580D02*
X119533285Y-64364200D01*
X119533285Y-64364200D02*
X119438047Y-64411819D01*
X119438047Y-64411819D02*
X119152333Y-64411819D01*
X119152333Y-64411819D02*
X119057095Y-64364200D01*
X119057095Y-64364200D02*
X119009476Y-64316580D01*
X152368819Y-98430856D02*
X152368819Y-97859428D01*
X153368819Y-98145142D02*
X152368819Y-98145142D01*
X153321200Y-97573713D02*
X153368819Y-97430856D01*
X153368819Y-97430856D02*
X153368819Y-97192761D01*
X153368819Y-97192761D02*
X153321200Y-97097523D01*
X153321200Y-97097523D02*
X153273580Y-97049904D01*
X153273580Y-97049904D02*
X153178342Y-97002285D01*
X153178342Y-97002285D02*
X153083104Y-97002285D01*
X153083104Y-97002285D02*
X152987866Y-97049904D01*
X152987866Y-97049904D02*
X152940247Y-97097523D01*
X152940247Y-97097523D02*
X152892628Y-97192761D01*
X152892628Y-97192761D02*
X152845009Y-97383237D01*
X152845009Y-97383237D02*
X152797390Y-97478475D01*
X152797390Y-97478475D02*
X152749771Y-97526094D01*
X152749771Y-97526094D02*
X152654533Y-97573713D01*
X152654533Y-97573713D02*
X152559295Y-97573713D01*
X152559295Y-97573713D02*
X152464057Y-97526094D01*
X152464057Y-97526094D02*
X152416438Y-97478475D01*
X152416438Y-97478475D02*
X152368819Y-97383237D01*
X152368819Y-97383237D02*
X152368819Y-97145142D01*
X152368819Y-97145142D02*
X152416438Y-97002285D01*
X153368819Y-96573713D02*
X152368819Y-96573713D01*
X152368819Y-96573713D02*
X152368819Y-96335618D01*
X152368819Y-96335618D02*
X152416438Y-96192761D01*
X152416438Y-96192761D02*
X152511676Y-96097523D01*
X152511676Y-96097523D02*
X152606914Y-96049904D01*
X152606914Y-96049904D02*
X152797390Y-96002285D01*
X152797390Y-96002285D02*
X152940247Y-96002285D01*
X152940247Y-96002285D02*
X153130723Y-96049904D01*
X153130723Y-96049904D02*
X153225961Y-96097523D01*
X153225961Y-96097523D02*
X153321200Y-96192761D01*
X153321200Y-96192761D02*
X153368819Y-96335618D01*
X153368819Y-96335618D02*
X153368819Y-96573713D01*
X153368819Y-95573713D02*
X152368819Y-95573713D01*
X152368819Y-95573713D02*
X152368819Y-95192761D01*
X152368819Y-95192761D02*
X152416438Y-95097523D01*
X152416438Y-95097523D02*
X152464057Y-95049904D01*
X152464057Y-95049904D02*
X152559295Y-95002285D01*
X152559295Y-95002285D02*
X152702152Y-95002285D01*
X152702152Y-95002285D02*
X152797390Y-95049904D01*
X152797390Y-95049904D02*
X152845009Y-95097523D01*
X152845009Y-95097523D02*
X152892628Y-95192761D01*
X152892628Y-95192761D02*
X152892628Y-95573713D01*
X152368819Y-94668951D02*
X152368819Y-94049904D01*
X152368819Y-94049904D02*
X152749771Y-94383237D01*
X152749771Y-94383237D02*
X152749771Y-94240380D01*
X152749771Y-94240380D02*
X152797390Y-94145142D01*
X152797390Y-94145142D02*
X152845009Y-94097523D01*
X152845009Y-94097523D02*
X152940247Y-94049904D01*
X152940247Y-94049904D02*
X153178342Y-94049904D01*
X153178342Y-94049904D02*
X153273580Y-94097523D01*
X153273580Y-94097523D02*
X153321200Y-94145142D01*
X153321200Y-94145142D02*
X153368819Y-94240380D01*
X153368819Y-94240380D02*
X153368819Y-94526094D01*
X153368819Y-94526094D02*
X153321200Y-94621332D01*
X153321200Y-94621332D02*
X153273580Y-94668951D01*
X152702152Y-93192761D02*
X153368819Y-93192761D01*
X152321200Y-93430856D02*
X153035485Y-93668951D01*
X153035485Y-93668951D02*
X153035485Y-93049904D01*
X153368819Y-92145142D02*
X153368819Y-92716570D01*
X153368819Y-92430856D02*
X152368819Y-92430856D01*
X152368819Y-92430856D02*
X152511676Y-92526094D01*
X152511676Y-92526094D02*
X152606914Y-92621332D01*
X152606914Y-92621332D02*
X152654533Y-92716570D01*
X152368819Y-91811808D02*
X152368819Y-91192761D01*
X152368819Y-91192761D02*
X152749771Y-91526094D01*
X152749771Y-91526094D02*
X152749771Y-91383237D01*
X152749771Y-91383237D02*
X152797390Y-91287999D01*
X152797390Y-91287999D02*
X152845009Y-91240380D01*
X152845009Y-91240380D02*
X152940247Y-91192761D01*
X152940247Y-91192761D02*
X153178342Y-91192761D01*
X153178342Y-91192761D02*
X153273580Y-91240380D01*
X153273580Y-91240380D02*
X153321200Y-91287999D01*
X153321200Y-91287999D02*
X153368819Y-91383237D01*
X153368819Y-91383237D02*
X153368819Y-91668951D01*
X153368819Y-91668951D02*
X153321200Y-91764189D01*
X153321200Y-91764189D02*
X153273580Y-91811808D01*
X152797390Y-90621332D02*
X152749771Y-90716570D01*
X152749771Y-90716570D02*
X152702152Y-90764189D01*
X152702152Y-90764189D02*
X152606914Y-90811808D01*
X152606914Y-90811808D02*
X152559295Y-90811808D01*
X152559295Y-90811808D02*
X152464057Y-90764189D01*
X152464057Y-90764189D02*
X152416438Y-90716570D01*
X152416438Y-90716570D02*
X152368819Y-90621332D01*
X152368819Y-90621332D02*
X152368819Y-90430856D01*
X152368819Y-90430856D02*
X152416438Y-90335618D01*
X152416438Y-90335618D02*
X152464057Y-90287999D01*
X152464057Y-90287999D02*
X152559295Y-90240380D01*
X152559295Y-90240380D02*
X152606914Y-90240380D01*
X152606914Y-90240380D02*
X152702152Y-90287999D01*
X152702152Y-90287999D02*
X152749771Y-90335618D01*
X152749771Y-90335618D02*
X152797390Y-90430856D01*
X152797390Y-90430856D02*
X152797390Y-90621332D01*
X152797390Y-90621332D02*
X152845009Y-90716570D01*
X152845009Y-90716570D02*
X152892628Y-90764189D01*
X152892628Y-90764189D02*
X152987866Y-90811808D01*
X152987866Y-90811808D02*
X153178342Y-90811808D01*
X153178342Y-90811808D02*
X153273580Y-90764189D01*
X153273580Y-90764189D02*
X153321200Y-90716570D01*
X153321200Y-90716570D02*
X153368819Y-90621332D01*
X153368819Y-90621332D02*
X153368819Y-90430856D01*
X153368819Y-90430856D02*
X153321200Y-90335618D01*
X153321200Y-90335618D02*
X153273580Y-90287999D01*
X153273580Y-90287999D02*
X153178342Y-90240380D01*
X153178342Y-90240380D02*
X152987866Y-90240380D01*
X152987866Y-90240380D02*
X152892628Y-90287999D01*
X152892628Y-90287999D02*
X152845009Y-90335618D01*
X152845009Y-90335618D02*
X152797390Y-90430856D01*
X148684819Y-94874904D02*
X149494342Y-94874904D01*
X149494342Y-94874904D02*
X149589580Y-94827285D01*
X149589580Y-94827285D02*
X149637200Y-94779666D01*
X149637200Y-94779666D02*
X149684819Y-94684428D01*
X149684819Y-94684428D02*
X149684819Y-94493952D01*
X149684819Y-94493952D02*
X149637200Y-94398714D01*
X149637200Y-94398714D02*
X149589580Y-94351095D01*
X149589580Y-94351095D02*
X149494342Y-94303476D01*
X149494342Y-94303476D02*
X148684819Y-94303476D01*
X148780057Y-93874904D02*
X148732438Y-93827285D01*
X148732438Y-93827285D02*
X148684819Y-93732047D01*
X148684819Y-93732047D02*
X148684819Y-93493952D01*
X148684819Y-93493952D02*
X148732438Y-93398714D01*
X148732438Y-93398714D02*
X148780057Y-93351095D01*
X148780057Y-93351095D02*
X148875295Y-93303476D01*
X148875295Y-93303476D02*
X148970533Y-93303476D01*
X148970533Y-93303476D02*
X149113390Y-93351095D01*
X149113390Y-93351095D02*
X149684819Y-93922523D01*
X149684819Y-93922523D02*
X149684819Y-93303476D01*
D13*
X110974000Y-125348000D02*
X113974000Y-125348000D01*
X111204000Y-124078000D02*
X111204000Y-124078000D01*
X111204000Y-124078000D02*
X111204000Y-125348000D01*
X111204000Y-125348000D02*
X111204000Y-124078000D01*
X111204000Y-125348000D02*
X111204000Y-125348000D01*
X113744000Y-124078000D02*
X113744000Y-124078000D01*
X113744000Y-124078000D02*
X113744000Y-125348000D01*
X113744000Y-125348000D02*
X113744000Y-124078000D01*
X113744000Y-125348000D02*
X113744000Y-125348000D01*
X113974000Y-125348000D02*
X114374000Y-125348000D01*
X127064000Y-63158000D02*
X124064000Y-63158000D01*
X126834000Y-64428000D02*
X126834000Y-64428000D01*
X126834000Y-64428000D02*
X126834000Y-63158000D01*
X126834000Y-63158000D02*
X126834000Y-64428000D01*
X126834000Y-63158000D02*
X126834000Y-63158000D01*
X124294000Y-64428000D02*
X124294000Y-64428000D01*
X124294000Y-64428000D02*
X124294000Y-63158000D01*
X124294000Y-63158000D02*
X124294000Y-64428000D01*
X124294000Y-63158000D02*
X124294000Y-63158000D01*
X124064000Y-63158000D02*
X123664000Y-63158000D01*
X87444000Y-86168000D02*
X87444000Y-89168000D01*
X88714000Y-86398000D02*
X88714000Y-86398000D01*
X88714000Y-86398000D02*
X87444000Y-86398000D01*
X87444000Y-86398000D02*
X88714000Y-86398000D01*
X87444000Y-86398000D02*
X87444000Y-86398000D01*
X88714000Y-88938000D02*
X88714000Y-88938000D01*
X88714000Y-88938000D02*
X87444000Y-88938000D01*
X87444000Y-88938000D02*
X88714000Y-88938000D01*
X87444000Y-88938000D02*
X87444000Y-88938000D01*
X87444000Y-89168000D02*
X87444000Y-89568000D01*
X150274000Y-102218000D02*
X150274000Y-99218000D01*
X149004000Y-101988000D02*
X149004000Y-101988000D01*
X149004000Y-101988000D02*
X150274000Y-101988000D01*
X150274000Y-101988000D02*
X149004000Y-101988000D01*
X150274000Y-101988000D02*
X150274000Y-101988000D01*
X149004000Y-99448000D02*
X149004000Y-99448000D01*
X149004000Y-99448000D02*
X150274000Y-99448000D01*
X150274000Y-99448000D02*
X149004000Y-99448000D01*
X150274000Y-99448000D02*
X150274000Y-99448000D01*
X150274000Y-99218000D02*
X150274000Y-98818000D01*
X87744000Y-91458000D02*
X90444000Y-91458000D01*
X91194000Y-92208000D02*
X90444000Y-91458000D01*
X91194000Y-92208000D02*
X91194000Y-97258000D01*
X91194000Y-97258000D02*
X87744000Y-97258000D01*
X87744000Y-97258000D02*
X87744000Y-91458000D01*
X87672182Y-91807714D02*
G75*
G03*
X87694000Y-96798000I1121818J-2490286D01*
G01*
X104864000Y-84963000D02*
X104229000Y-85598000D01*
X104864000Y-80518000D02*
X104864000Y-84963000D01*
X104229000Y-85598000D02*
X102324000Y-85598000D01*
X102324000Y-85598000D02*
X102324000Y-80518000D01*
X102324000Y-80518000D02*
X104864000Y-80518000D01*
X150914000Y-85448000D02*
X150914000Y-88048000D01*
X150664000Y-85848000D02*
X150664000Y-87648000D01*
X147664000Y-85848000D02*
X147064000Y-85848000D01*
X147664000Y-85848000D02*
X147664000Y-87348000D01*
X147064000Y-85848000D02*
X147064000Y-87648000D01*
X150064000Y-86148000D02*
X150064000Y-87648000D01*
X149464000Y-86148000D02*
X150064000Y-86148000D01*
X148864000Y-86148000D02*
X148864000Y-87348000D01*
X148264000Y-86148000D02*
X148864000Y-86148000D01*
X149464000Y-87348000D02*
X149464000Y-86148000D01*
X149364000Y-87348000D02*
X149464000Y-87348000D01*
X148864000Y-87348000D02*
X149364000Y-87348000D01*
X148264000Y-87348000D02*
X148264000Y-86148000D01*
X147664000Y-87348000D02*
X148264000Y-87348000D01*
X150664000Y-87648000D02*
X150064000Y-87648000D01*
X146814000Y-88048000D02*
X146814000Y-85448000D01*
X150885419Y-85403989D02*
G75*
G03*
X146814000Y-85448000I-2021419J-1344011D01*
G01*
X146842581Y-88092011D02*
G75*
G03*
X150914000Y-88048000I2021419J1344011D01*
G01*
X124589000Y-82110000D02*
X126879000Y-82110000D01*
X126879000Y-81310000D02*
X126879000Y-82910000D01*
X126879000Y-82910000D02*
X129919000Y-82910000D01*
X129919000Y-81310000D02*
X126879000Y-81310000D01*
X129919000Y-82910000D02*
X129919000Y-81310000D01*
X132209000Y-82110000D02*
X129919000Y-82110000D01*
X128905000Y-103124000D02*
X128270000Y-102489000D01*
X133350000Y-103124000D02*
X128905000Y-103124000D01*
X128270000Y-102489000D02*
X128270000Y-100584000D01*
X128270000Y-100584000D02*
X133350000Y-100584000D01*
X133350000Y-100584000D02*
X133350000Y-103124000D01*
X132715000Y-85344000D02*
X133350000Y-85979000D01*
X128270000Y-85344000D02*
X132715000Y-85344000D01*
X133350000Y-85979000D02*
X133350000Y-87884000D01*
X133350000Y-87884000D02*
X128270000Y-87884000D01*
X128270000Y-87884000D02*
X128270000Y-85344000D01*
X132715000Y-87884000D02*
X133350000Y-88519000D01*
X128270000Y-87884000D02*
X132715000Y-87884000D01*
X133350000Y-88519000D02*
X133350000Y-90424000D01*
X133350000Y-90424000D02*
X128270000Y-90424000D01*
X128270000Y-90424000D02*
X128270000Y-87884000D01*
X96774000Y-117348000D02*
X94764000Y-117348000D01*
X94764000Y-118148000D02*
X94764000Y-116548000D01*
X94764000Y-116548000D02*
X91164000Y-116548000D01*
X91164000Y-118148000D02*
X94764000Y-118148000D01*
X91164000Y-116548000D02*
X91164000Y-118148000D01*
X89154000Y-117348000D02*
X91164000Y-117348000D01*
X137384000Y-117348000D02*
X135374000Y-117348000D01*
X135374000Y-118148000D02*
X135374000Y-116548000D01*
X135374000Y-116548000D02*
X131774000Y-116548000D01*
X131774000Y-118148000D02*
X135374000Y-118148000D01*
X131774000Y-116548000D02*
X131774000Y-118148000D01*
X129764000Y-117348000D02*
X131774000Y-117348000D01*
X102857000Y-66294000D02*
X102222000Y-65659000D01*
X107302000Y-66294000D02*
X102857000Y-66294000D01*
X102222000Y-65659000D02*
X102222000Y-63754000D01*
X102222000Y-63754000D02*
X107302000Y-63754000D01*
X107302000Y-63754000D02*
X107302000Y-66294000D01*
X84004000Y-81708000D02*
X84004000Y-78708000D01*
X90004000Y-81708000D02*
X84004000Y-81708000D01*
X84004000Y-78708000D02*
X84004000Y-75708000D01*
X84004000Y-75708000D02*
X90004000Y-75708000D01*
X90004000Y-75708000D02*
X90004000Y-81708000D01*
X89019564Y-78708000D02*
G75*
G03*
X89019564Y-78708000I-2015564J0D01*
G01*
X95179000Y-62398000D02*
X97779000Y-62398000D01*
X95579000Y-62648000D02*
X97379000Y-62648000D01*
X95579000Y-65648000D02*
X95579000Y-66248000D01*
X95579000Y-65648000D02*
X97079000Y-65648000D01*
X95579000Y-66248000D02*
X97379000Y-66248000D01*
X95879000Y-63248000D02*
X97379000Y-63248000D01*
X95879000Y-63848000D02*
X95879000Y-63248000D01*
X95879000Y-64448000D02*
X97079000Y-64448000D01*
X95879000Y-65048000D02*
X95879000Y-64448000D01*
X97079000Y-63848000D02*
X95879000Y-63848000D01*
X97079000Y-63948000D02*
X97079000Y-63848000D01*
X97079000Y-64448000D02*
X97079000Y-63948000D01*
X97079000Y-65048000D02*
X95879000Y-65048000D01*
X97079000Y-65648000D02*
X97079000Y-65048000D01*
X97379000Y-62648000D02*
X97379000Y-63248000D01*
X97779000Y-66498000D02*
X95179000Y-66498000D01*
X95134989Y-62426581D02*
G75*
G03*
X95179000Y-66498000I1344011J-2021419D01*
G01*
X97823011Y-66469419D02*
G75*
G03*
X97779000Y-62398000I-1344011J2021419D01*
G01*
X130039000Y-65670000D02*
X129404000Y-65035000D01*
X139564000Y-65670000D02*
X130039000Y-65670000D01*
X129404000Y-65035000D02*
X129404000Y-63130000D01*
X129404000Y-63130000D02*
X139564000Y-63130000D01*
X139564000Y-63130000D02*
X139564000Y-65670000D01*
X137414000Y-112268000D02*
X135404000Y-112268000D01*
X135404000Y-113068000D02*
X135404000Y-111468000D01*
X135404000Y-111468000D02*
X131804000Y-111468000D01*
X131804000Y-113068000D02*
X135404000Y-113068000D01*
X131804000Y-111468000D02*
X131804000Y-113068000D01*
X129794000Y-112268000D02*
X131804000Y-112268000D01*
X97774000Y-126258000D02*
X95174000Y-126258000D01*
X97374000Y-126008000D02*
X95574000Y-126008000D01*
X97374000Y-123008000D02*
X97374000Y-122408000D01*
X97374000Y-123008000D02*
X95874000Y-123008000D01*
X97374000Y-122408000D02*
X95574000Y-122408000D01*
X97074000Y-125408000D02*
X95574000Y-125408000D01*
X97074000Y-124808000D02*
X97074000Y-125408000D01*
X97074000Y-124208000D02*
X95874000Y-124208000D01*
X97074000Y-123608000D02*
X97074000Y-124208000D01*
X95874000Y-124808000D02*
X97074000Y-124808000D01*
X95874000Y-124708000D02*
X95874000Y-124808000D01*
X95874000Y-124208000D02*
X95874000Y-124708000D01*
X95874000Y-123608000D02*
X97074000Y-123608000D01*
X95874000Y-123008000D02*
X95874000Y-123608000D01*
X95574000Y-126008000D02*
X95574000Y-125408000D01*
X95174000Y-122158000D02*
X97774000Y-122158000D01*
X97818011Y-126229419D02*
G75*
G03*
X97774000Y-122158000I-1344011J2021419D01*
G01*
X95129989Y-122186581D02*
G75*
G03*
X95174000Y-126258000I1344011J-2021419D01*
G01*
X137344000Y-114808000D02*
X135334000Y-114808000D01*
X135334000Y-115608000D02*
X135334000Y-114008000D01*
X135334000Y-114008000D02*
X131734000Y-114008000D01*
X131734000Y-115608000D02*
X135334000Y-115608000D01*
X131734000Y-114008000D02*
X131734000Y-115608000D01*
X129724000Y-114808000D02*
X131734000Y-114808000D01*
X147214276Y-68655155D02*
X147521418Y-67811287D01*
X151239714Y-77287736D02*
X147214276Y-68655155D01*
X147521418Y-67811287D02*
X149247935Y-67006199D01*
X149247935Y-67006199D02*
X153541736Y-76214286D01*
X153541736Y-76214286D02*
X151239714Y-77287736D01*
X116174000Y-125373000D02*
X116174000Y-122673000D01*
X116924000Y-121923000D02*
X116174000Y-122673000D01*
X116924000Y-121923000D02*
X121974000Y-121923000D01*
X121974000Y-121923000D02*
X121974000Y-125373000D01*
X121974000Y-125373000D02*
X116174000Y-125373000D01*
X116523714Y-125444818D02*
G75*
G03*
X121514000Y-125423000I2490286J1121818D01*
G01*
X150921352Y-111437769D02*
X151765220Y-111130627D01*
X146895913Y-120070351D02*
X150921352Y-111437769D01*
X151765220Y-111130627D02*
X153491736Y-111935714D01*
X153491736Y-111935714D02*
X149197935Y-121143801D01*
X149197935Y-121143801D02*
X146895913Y-120070351D01*
X121694000Y-63073000D02*
X121694000Y-65773000D01*
X120944000Y-66523000D02*
X121694000Y-65773000D01*
X120944000Y-66523000D02*
X115894000Y-66523000D01*
X115894000Y-66523000D02*
X115894000Y-63073000D01*
X115894000Y-63073000D02*
X121694000Y-63073000D01*
X121344286Y-63001182D02*
G75*
G03*
X116354000Y-63023000I-2490286J-1121818D01*
G01*
X150114000Y-96988000D02*
X147414000Y-96988000D01*
X146664000Y-96238000D02*
X147414000Y-96988000D01*
X146664000Y-96238000D02*
X146664000Y-91188000D01*
X146664000Y-91188000D02*
X150114000Y-91188000D01*
X150114000Y-91188000D02*
X150114000Y-96988000D01*
X150185818Y-96638286D02*
G75*
G03*
X150164000Y-91648000I-1121818J2490286D01*
G01*
M02*
