G04 #@! TF.GenerationSoftware,KiCad,Pcbnew,7.0.5-7.0.5~ubuntu20.04.1*
G04 #@! TF.CreationDate,2023-09-13T16:29:24+01:00*
G04 #@! TF.ProjectId,Swarm-B_20230626,53776172-6d2d-4425-9f32-303233303632,rev?*
G04 #@! TF.SameCoordinates,Original*
G04 #@! TF.FileFunction,Copper,L1,Top*
G04 #@! TF.FilePolarity,Positive*
%FSLAX46Y46*%
G04 Gerber Fmt 4.6, Leading zero omitted, Abs format (unit mm)*
G04 Created by KiCad (PCBNEW 7.0.5-7.0.5~ubuntu20.04.1) date 2023-09-13 16:29:24*
%MOMM*%
%LPD*%
G01*
G04 APERTURE LIST*
G04 Aperture macros list*
%AMRoundRect*
0 Rectangle with rounded corners*
0 $1 Rounding radius*
0 $2 $3 $4 $5 $6 $7 $8 $9 X,Y pos of 4 corners*
0 Add a 4 corners polygon primitive as box body*
4,1,4,$2,$3,$4,$5,$6,$7,$8,$9,$2,$3,0*
0 Add four circle primitives for the rounded corners*
1,1,$1+$1,$2,$3*
1,1,$1+$1,$4,$5*
1,1,$1+$1,$6,$7*
1,1,$1+$1,$8,$9*
0 Add four rect primitives between the rounded corners*
20,1,$1+$1,$2,$3,$4,$5,0*
20,1,$1+$1,$4,$5,$6,$7,0*
20,1,$1+$1,$6,$7,$8,$9,0*
20,1,$1+$1,$8,$9,$2,$3,0*%
%AMHorizOval*
0 Thick line with rounded ends*
0 $1 width*
0 $2 $3 position (X,Y) of the first rounded end (center of the circle)*
0 $4 $5 position (X,Y) of the second rounded end (center of the circle)*
0 Add line between two ends*
20,1,$1,$2,$3,$4,$5,0*
0 Add two circle primitives to create the rounded ends*
1,1,$1,$2,$3*
1,1,$1,$4,$5*%
%AMRotRect*
0 Rectangle, with rotation*
0 The origin of the aperture is its center*
0 $1 length*
0 $2 width*
0 $3 Rotation angle, in degrees counterclockwise*
0 Add horizontal line*
21,1,$1,$2,0,0,$3*%
G04 Aperture macros list end*
G04 #@! TA.AperFunction,ComponentPad*
%ADD10R,1.800000X1.800000*%
G04 #@! TD*
G04 #@! TA.AperFunction,ComponentPad*
%ADD11C,1.800000*%
G04 #@! TD*
G04 #@! TA.AperFunction,ComponentPad*
%ADD12RoundRect,0.248400X-0.651600X0.651600X-0.651600X-0.651600X0.651600X-0.651600X0.651600X0.651600X0*%
G04 #@! TD*
G04 #@! TA.AperFunction,ComponentPad*
%ADD13R,1.700000X1.700000*%
G04 #@! TD*
G04 #@! TA.AperFunction,ComponentPad*
%ADD14O,1.700000X1.700000*%
G04 #@! TD*
G04 #@! TA.AperFunction,ComponentPad*
%ADD15C,1.600000*%
G04 #@! TD*
G04 #@! TA.AperFunction,ComponentPad*
%ADD16R,1.500000X1.500000*%
G04 #@! TD*
G04 #@! TA.AperFunction,ComponentPad*
%ADD17O,1.500000X1.500000*%
G04 #@! TD*
G04 #@! TA.AperFunction,ComponentPad*
%ADD18C,1.400000*%
G04 #@! TD*
G04 #@! TA.AperFunction,ComponentPad*
%ADD19O,1.400000X1.400000*%
G04 #@! TD*
G04 #@! TA.AperFunction,ComponentPad*
%ADD20C,2.000000*%
G04 #@! TD*
G04 #@! TA.AperFunction,ComponentPad*
%ADD21RotRect,1.700000X1.700000X25.000000*%
G04 #@! TD*
G04 #@! TA.AperFunction,ComponentPad*
%ADD22HorizOval,1.700000X0.000000X0.000000X0.000000X0.000000X0*%
G04 #@! TD*
G04 #@! TA.AperFunction,ComponentPad*
%ADD23RoundRect,0.248400X-0.651600X-0.651600X0.651600X-0.651600X0.651600X0.651600X-0.651600X0.651600X0*%
G04 #@! TD*
G04 #@! TA.AperFunction,ComponentPad*
%ADD24RotRect,1.700000X1.700000X335.000000*%
G04 #@! TD*
G04 #@! TA.AperFunction,ComponentPad*
%ADD25HorizOval,1.700000X0.000000X0.000000X0.000000X0.000000X0*%
G04 #@! TD*
G04 #@! TA.AperFunction,ComponentPad*
%ADD26RoundRect,0.248400X0.651600X0.651600X-0.651600X0.651600X-0.651600X-0.651600X0.651600X-0.651600X0*%
G04 #@! TD*
G04 #@! TA.AperFunction,ComponentPad*
%ADD27RoundRect,0.248400X0.651600X-0.651600X0.651600X0.651600X-0.651600X0.651600X-0.651600X-0.651600X0*%
G04 #@! TD*
G04 #@! TA.AperFunction,ComponentPad*
%ADD28RotRect,1.600000X1.600000X235.000000*%
G04 #@! TD*
G04 #@! TA.AperFunction,ComponentPad*
%ADD29HorizOval,1.600000X0.000000X0.000000X0.000000X0.000000X0*%
G04 #@! TD*
G04 #@! TA.AperFunction,ComponentPad*
%ADD30R,1.600000X1.600000*%
G04 #@! TD*
G04 #@! TA.AperFunction,ComponentPad*
%ADD31O,1.600000X1.600000*%
G04 #@! TD*
G04 #@! TA.AperFunction,ComponentPad*
%ADD32C,1.440000*%
G04 #@! TD*
G04 #@! TA.AperFunction,ViaPad*
%ADD33C,0.700000*%
G04 #@! TD*
G04 #@! TA.AperFunction,Conductor*
%ADD34C,0.250000*%
G04 #@! TD*
G04 APERTURE END LIST*
D10*
X111204000Y-124078000D03*
D11*
X113744000Y-124078000D03*
D10*
X126834000Y-64428000D03*
D11*
X124294000Y-64428000D03*
D10*
X88714000Y-86398000D03*
D11*
X88714000Y-88938000D03*
D10*
X149004000Y-101988000D03*
D11*
X149004000Y-99448000D03*
D12*
X89944000Y-91658000D03*
D11*
X89944000Y-94198000D03*
X89944000Y-96738000D03*
D13*
X103594000Y-84328000D03*
D14*
X103594000Y-81788000D03*
D15*
X148864000Y-85248000D03*
X148864000Y-88248000D03*
D16*
X124589000Y-82110000D03*
D17*
X132209000Y-82110000D03*
D13*
X129540000Y-101854000D03*
D14*
X132080000Y-101854000D03*
D13*
X132080000Y-86614000D03*
D14*
X129540000Y-86614000D03*
D13*
X132080000Y-89154000D03*
D14*
X129540000Y-89154000D03*
D18*
X96774000Y-117348000D03*
D19*
X89154000Y-117348000D03*
D18*
X137384000Y-117348000D03*
D19*
X129764000Y-117348000D03*
D13*
X103492000Y-65024000D03*
D14*
X106032000Y-65024000D03*
D20*
X84754000Y-81958000D03*
X84754000Y-75458000D03*
X89254000Y-81958000D03*
X89254000Y-75458000D03*
D15*
X94979000Y-64448000D03*
X97979000Y-64448000D03*
D13*
X130674000Y-64400000D03*
D14*
X133214000Y-64400000D03*
X135754000Y-64400000D03*
X138294000Y-64400000D03*
D18*
X137414000Y-112268000D03*
D19*
X129794000Y-112268000D03*
D15*
X97974000Y-124208000D03*
X94974000Y-124208000D03*
D18*
X137344000Y-114808000D03*
D19*
X129724000Y-114808000D03*
D21*
X148633649Y-68693935D03*
D22*
X149707099Y-70995957D03*
X150780550Y-73297979D03*
X151854000Y-75600000D03*
D23*
X116374000Y-123173000D03*
D11*
X118914000Y-123173000D03*
X121454000Y-123173000D03*
D24*
X151804000Y-112550000D03*
D25*
X150730550Y-114852022D03*
X149657099Y-117154044D03*
X148583649Y-119456065D03*
D26*
X121494000Y-65273000D03*
D11*
X118954000Y-65273000D03*
X116414000Y-65273000D03*
D27*
X147914000Y-96788000D03*
D11*
X147914000Y-94248000D03*
X147914000Y-91708000D03*
D28*
X95148197Y-85378397D03*
D29*
X97228843Y-86835281D03*
X99309489Y-88292165D03*
X101390136Y-89749049D03*
X103470782Y-91205934D03*
X105551428Y-92662818D03*
X107632074Y-94119702D03*
X109712720Y-95576586D03*
X111793367Y-97033470D03*
X113874013Y-98490354D03*
X115954659Y-99947238D03*
X118035305Y-101404123D03*
X120115951Y-102861007D03*
X122196598Y-104317891D03*
X124277244Y-105774775D03*
X115535939Y-118258652D03*
X113455293Y-116801768D03*
X111374646Y-115344884D03*
X109294000Y-113888000D03*
X107213354Y-112431116D03*
X105132708Y-110974231D03*
X103052062Y-109517347D03*
X100971415Y-108060463D03*
X98890769Y-106603579D03*
X96810123Y-105146695D03*
X94729477Y-103689811D03*
X92648831Y-102232927D03*
X90568184Y-100776042D03*
X88487538Y-99319158D03*
X86406892Y-97862274D03*
D30*
X143764000Y-86868000D03*
D31*
X143764000Y-89408000D03*
X143764000Y-91948000D03*
X143764000Y-94488000D03*
X143764000Y-97028000D03*
X143764000Y-99568000D03*
X143764000Y-102108000D03*
X136144000Y-102108000D03*
X136144000Y-99568000D03*
X136144000Y-97028000D03*
X136144000Y-94488000D03*
X136144000Y-91948000D03*
X136144000Y-89408000D03*
X136144000Y-86868000D03*
D32*
X88819000Y-107508000D03*
X91359000Y-110048000D03*
X88819000Y-112588000D03*
D13*
X101064000Y-73648000D03*
D14*
X101064000Y-76188000D03*
X103604000Y-73648000D03*
X103604000Y-76188000D03*
X106144000Y-73648000D03*
X106144000Y-76188000D03*
X108684000Y-73648000D03*
X108684000Y-76188000D03*
X111224000Y-73648000D03*
X111224000Y-76188000D03*
X113764000Y-73648000D03*
X113764000Y-76188000D03*
X116304000Y-73648000D03*
X116304000Y-76188000D03*
X118844000Y-73648000D03*
X118844000Y-76188000D03*
X121384000Y-73648000D03*
X121384000Y-76188000D03*
X123924000Y-73648000D03*
X123924000Y-76188000D03*
X126464000Y-73648000D03*
X126464000Y-76188000D03*
X129004000Y-73648000D03*
X129004000Y-76188000D03*
X131544000Y-73648000D03*
X131544000Y-76188000D03*
X134084000Y-73648000D03*
X134084000Y-76188000D03*
X136624000Y-73648000D03*
X136624000Y-76188000D03*
D33*
X116379000Y-80625000D03*
X140179000Y-99475000D03*
X136779000Y-69600000D03*
D34*
X149657099Y-117154044D02*
X151069956Y-117154044D01*
X151069956Y-117154044D02*
X153208587Y-115015413D01*
X153208587Y-115015413D02*
X153208587Y-75363596D01*
X153208587Y-75363596D02*
X151142970Y-73297979D01*
X151142970Y-73297979D02*
X150780550Y-73297979D01*
X125049000Y-73472009D02*
X125049000Y-75063000D01*
X125049000Y-75063000D02*
X123924000Y-76188000D01*
X123564000Y-93338000D02*
X123564000Y-76548000D01*
X133214000Y-65307009D02*
X125049000Y-73472009D01*
X123564000Y-76548000D02*
X123924000Y-76188000D01*
X133214000Y-64400000D02*
X133214000Y-65307009D01*
X132080000Y-101854000D02*
X123564000Y-93338000D01*
X130674000Y-66898000D02*
X123924000Y-73648000D01*
X130674000Y-64400000D02*
X130674000Y-66898000D01*
X122799000Y-74773000D02*
X123924000Y-73648000D01*
X129540000Y-101854000D02*
X122799000Y-95113000D01*
X122799000Y-95113000D02*
X122799000Y-74773000D01*
X144839000Y-95953000D02*
X143764000Y-97028000D01*
X143764000Y-97028000D02*
X136144000Y-97028000D01*
X143764000Y-89408000D02*
X144839000Y-90483000D01*
X136144000Y-89408000D02*
X143764000Y-89408000D01*
X144839000Y-90483000D02*
X144839000Y-95953000D01*
X105551428Y-92662818D02*
X99266818Y-92662818D01*
X96537380Y-85068028D02*
X94006484Y-82537132D01*
X94006484Y-82537132D02*
X94006484Y-77131832D01*
X112572000Y-69115000D02*
X102023315Y-69115000D01*
X96537380Y-85688766D02*
X96537380Y-85068028D01*
X94733658Y-76404658D02*
X94548666Y-76589649D01*
X116414000Y-65273000D02*
X112572000Y-69115000D01*
X94006484Y-77131832D02*
X94733658Y-76404658D01*
X96153843Y-86072303D02*
X96537380Y-85688766D01*
X102023315Y-69115000D02*
X94733658Y-76404658D01*
X99266818Y-92662818D02*
X96153843Y-89549843D01*
X96153843Y-89549843D02*
X96153843Y-86072303D01*
X103594000Y-81788000D02*
X102276124Y-81788000D01*
X102276124Y-81788000D02*
X97228843Y-86835281D01*
X138684000Y-94488000D02*
X136144000Y-91948000D01*
X143764000Y-94488000D02*
X138684000Y-94488000D01*
X95964652Y-119733652D02*
X109399652Y-119733652D01*
X88819000Y-112588000D02*
X95964652Y-119733652D01*
X109399652Y-119733652D02*
X113744000Y-124078000D01*
X136144000Y-102108000D02*
X141224000Y-102108000D01*
X143764000Y-99568000D02*
X146584000Y-99568000D01*
X141224000Y-102108000D02*
X143764000Y-99568000D01*
X146584000Y-99568000D02*
X149004000Y-101988000D01*
X124589000Y-82110000D02*
X124589000Y-84203000D01*
X124589000Y-84203000D02*
X129540000Y-89154000D01*
X132080000Y-89154000D02*
X129540000Y-89154000D01*
X136144000Y-86868000D02*
X136144000Y-87340000D01*
X150780550Y-73297979D02*
X142134021Y-73297979D01*
X142134021Y-70780021D02*
X135754000Y-64400000D01*
X137384000Y-117348000D02*
X137384000Y-112298000D01*
X135209000Y-75063000D02*
X140369000Y-75063000D01*
X137384000Y-112298000D02*
X137414000Y-112268000D01*
X132209000Y-82110000D02*
X134084000Y-80235000D01*
X98759652Y-119333652D02*
X96774000Y-117348000D01*
X134084000Y-80235000D02*
X134084000Y-76188000D01*
X142134021Y-73297979D02*
X140369000Y-75063000D01*
X137384000Y-117348000D02*
X135398348Y-119333652D01*
X137577956Y-117154044D02*
X137384000Y-117348000D01*
X149657099Y-117154044D02*
X137577956Y-117154044D01*
X134084000Y-76188000D02*
X135209000Y-75063000D01*
X135398348Y-119333652D02*
X98759652Y-119333652D01*
X132209000Y-82933000D02*
X132209000Y-82110000D01*
X96774000Y-117348000D02*
X92648831Y-113222831D01*
X92648831Y-113222831D02*
X92648831Y-102232927D01*
X142134021Y-73297979D02*
X142134021Y-70780021D01*
X118649060Y-66881949D02*
X112349000Y-73182009D01*
X111689991Y-74773000D02*
X102479000Y-74773000D01*
X123801000Y-63253000D02*
X122669000Y-64385000D01*
X143298966Y-70995957D02*
X138334958Y-66031949D01*
X136879000Y-63934009D02*
X136197991Y-63253000D01*
X138334958Y-66031949D02*
X136879000Y-64575991D01*
X112349000Y-74113991D02*
X111689991Y-74773000D01*
X122669000Y-66460000D02*
X122247051Y-66881949D01*
X122669000Y-64385000D02*
X122669000Y-66460000D01*
X112349000Y-73182009D02*
X112349000Y-74113991D01*
X136197991Y-63253000D02*
X123801000Y-63253000D01*
X102479000Y-74773000D02*
X101064000Y-76188000D01*
X149707099Y-70995957D02*
X143298966Y-70995957D01*
X122247051Y-66881949D02*
X118649060Y-66881949D01*
X136879000Y-64575991D02*
X136879000Y-63934009D01*
X141528022Y-114852022D02*
X137894847Y-111218847D01*
X150730550Y-114852022D02*
X141528022Y-114852022D01*
X137894847Y-111218847D02*
X136329041Y-111218847D01*
X136329041Y-111218847D02*
X103604000Y-78493806D01*
X103604000Y-78493806D02*
X103604000Y-76188000D01*
X114264000Y-125283000D02*
X94528720Y-125283000D01*
X92964000Y-88638000D02*
X89944000Y-91658000D01*
X88704000Y-92898000D02*
X89944000Y-91658000D01*
X87359223Y-118113503D02*
X87359223Y-98430223D01*
X119594000Y-63373000D02*
X94533720Y-63373000D01*
X92964000Y-64942720D02*
X92964000Y-88638000D01*
X87359223Y-98430223D02*
X88704000Y-97085446D01*
X94528720Y-125283000D02*
X87359223Y-118113503D01*
X121494000Y-65273000D02*
X119594000Y-63373000D01*
X88704000Y-97085446D02*
X88704000Y-92898000D01*
X94533720Y-63373000D02*
X92964000Y-64942720D01*
X116374000Y-123173000D02*
X114264000Y-125283000D01*
X87824000Y-112175857D02*
X87824000Y-116018000D01*
X89951857Y-110048000D02*
X87824000Y-112175857D01*
X87824000Y-116018000D02*
X89154000Y-117348000D01*
X91359000Y-110048000D02*
X89951857Y-110048000D01*
X84754000Y-75458000D02*
X84754000Y-81958000D01*
X89254000Y-75458000D02*
X89254000Y-81958000D01*
X126304000Y-113888000D02*
X109294000Y-113888000D01*
X129764000Y-117348000D02*
X126304000Y-113888000D01*
X129724000Y-114808000D02*
X127347116Y-112431116D01*
X127347116Y-112431116D02*
X107213354Y-112431116D01*
X94979000Y-64448000D02*
X93606484Y-65820516D01*
X93606484Y-97162484D02*
X105132708Y-108688708D01*
X129794000Y-112268000D02*
X128500231Y-110974231D01*
X105514593Y-111356116D02*
X105132708Y-110974231D01*
X93606484Y-65820516D02*
X93606484Y-97162484D01*
X128500231Y-110974231D02*
X105132708Y-110974231D01*
X105132708Y-108688708D02*
X105132708Y-110974231D01*
G04 #@! TA.AperFunction,Conductor*
G36*
X138188419Y-58242089D02*
G01*
X139247918Y-58830338D01*
X139249576Y-58831292D01*
X140329923Y-59475478D01*
X140331526Y-59476467D01*
X140861500Y-59815056D01*
X141391451Y-60153630D01*
X141393046Y-60154684D01*
X142431614Y-60864225D01*
X142433155Y-60865312D01*
X143446113Y-61604178D01*
X143449353Y-61606541D01*
X143450880Y-61607692D01*
X144443709Y-62379880D01*
X144445200Y-62381077D01*
X145001395Y-62841879D01*
X145413781Y-63183537D01*
X145415207Y-63184757D01*
X146358553Y-64016675D01*
X146359952Y-64017946D01*
X146575208Y-64219911D01*
X147277241Y-64878598D01*
X147278595Y-64879907D01*
X148168865Y-65768388D01*
X148170197Y-65769759D01*
X149032692Y-66685316D01*
X149033961Y-66686705D01*
X149142144Y-66808882D01*
X149174546Y-66845475D01*
X149204251Y-66908715D01*
X149195051Y-66977976D01*
X149149865Y-67031268D01*
X149086189Y-67050709D01*
X149086209Y-67050950D01*
X149085117Y-67051036D01*
X149083040Y-67051671D01*
X149078609Y-67051554D01*
X148931605Y-67063241D01*
X148873958Y-67082937D01*
X147245078Y-67842496D01*
X147192942Y-67873992D01*
X147090369Y-67978206D01*
X147090368Y-67978209D01*
X147021318Y-68107085D01*
X147021313Y-68107097D01*
X146991366Y-68250214D01*
X147002955Y-68395978D01*
X147022651Y-68453625D01*
X147782210Y-70082505D01*
X147813706Y-70134641D01*
X147829395Y-70150083D01*
X147863365Y-70211138D01*
X147858934Y-70280867D01*
X147817508Y-70337131D01*
X147752239Y-70362067D01*
X147742412Y-70362457D01*
X143612733Y-70362457D01*
X143545694Y-70342772D01*
X143525052Y-70326138D01*
X138958990Y-65760076D01*
X138925505Y-65698753D01*
X138930489Y-65629061D01*
X138972361Y-65573128D01*
X138975547Y-65570820D01*
X139165082Y-65438105D01*
X139332105Y-65271082D01*
X139467600Y-65077578D01*
X139567429Y-64863492D01*
X139567432Y-64863486D01*
X139624636Y-64650000D01*
X138727686Y-64650000D01*
X138753493Y-64609844D01*
X138794000Y-64471889D01*
X138794000Y-64328111D01*
X138753493Y-64190156D01*
X138727686Y-64150000D01*
X139624636Y-64150000D01*
X139624635Y-64149999D01*
X139567432Y-63936513D01*
X139567429Y-63936507D01*
X139467600Y-63722422D01*
X139467599Y-63722420D01*
X139332113Y-63528926D01*
X139332108Y-63528920D01*
X139165082Y-63361894D01*
X138971578Y-63226399D01*
X138757492Y-63126570D01*
X138757486Y-63126567D01*
X138544000Y-63069364D01*
X138544000Y-63964498D01*
X138436315Y-63915320D01*
X138329763Y-63900000D01*
X138258237Y-63900000D01*
X138151685Y-63915320D01*
X138044000Y-63964498D01*
X138044000Y-63069364D01*
X138043999Y-63069364D01*
X137830513Y-63126567D01*
X137830507Y-63126570D01*
X137616422Y-63226399D01*
X137616420Y-63226400D01*
X137422922Y-63361888D01*
X137400533Y-63384278D01*
X137339209Y-63417762D01*
X137269517Y-63412776D01*
X137225172Y-63384276D01*
X136705079Y-62864183D01*
X136695178Y-62851823D01*
X136694968Y-62851998D01*
X136689992Y-62845984D01*
X136689991Y-62845982D01*
X136639605Y-62798667D01*
X136638230Y-62797334D01*
X136617759Y-62776863D01*
X136615783Y-62775331D01*
X136612174Y-62772531D01*
X136607741Y-62768744D01*
X136598235Y-62759818D01*
X136573312Y-62736414D01*
X136573310Y-62736412D01*
X136555422Y-62726578D01*
X136539161Y-62715897D01*
X136523030Y-62703384D01*
X136479684Y-62684627D01*
X136474436Y-62682056D01*
X136447010Y-62666979D01*
X136433051Y-62659305D01*
X136429651Y-62658432D01*
X136413278Y-62654228D01*
X136394872Y-62647926D01*
X136376135Y-62639818D01*
X136376137Y-62639818D01*
X136329487Y-62632430D01*
X136323772Y-62631246D01*
X136303603Y-62626068D01*
X136278023Y-62619500D01*
X136278021Y-62619500D01*
X136257607Y-62619500D01*
X136238208Y-62617973D01*
X136218049Y-62614780D01*
X136218048Y-62614780D01*
X136171025Y-62619225D01*
X136165187Y-62619500D01*
X123884632Y-62619500D01*
X123868880Y-62617760D01*
X123868855Y-62618032D01*
X123861093Y-62617297D01*
X123791997Y-62619469D01*
X123790049Y-62619500D01*
X123761144Y-62619500D01*
X123761141Y-62619500D01*
X123761129Y-62619501D01*
X123754137Y-62620384D01*
X123748320Y-62620841D01*
X123701114Y-62622325D01*
X123701107Y-62622326D01*
X123681500Y-62628022D01*
X123662461Y-62631965D01*
X123642211Y-62634524D01*
X123642201Y-62634526D01*
X123598291Y-62651911D01*
X123592765Y-62653803D01*
X123547412Y-62666979D01*
X123547407Y-62666981D01*
X123529833Y-62677374D01*
X123512372Y-62685928D01*
X123493386Y-62693446D01*
X123493384Y-62693447D01*
X123455172Y-62721208D01*
X123450290Y-62724415D01*
X123409637Y-62748457D01*
X123395201Y-62762894D01*
X123380415Y-62775523D01*
X123363893Y-62787528D01*
X123363891Y-62787529D01*
X123363891Y-62787530D01*
X123363888Y-62787532D01*
X123333780Y-62823925D01*
X123329849Y-62828246D01*
X122326216Y-63831877D01*
X122264893Y-63865362D01*
X122225933Y-63867554D01*
X122196046Y-63864500D01*
X122196037Y-63864500D01*
X121032767Y-63864500D01*
X120965728Y-63844815D01*
X120945086Y-63828181D01*
X120101088Y-62984183D01*
X120091187Y-62971823D01*
X120090977Y-62971998D01*
X120086002Y-62965986D01*
X120086000Y-62965982D01*
X120035621Y-62918673D01*
X120034253Y-62917348D01*
X120013770Y-62896865D01*
X120013769Y-62896864D01*
X120013767Y-62896862D01*
X120011250Y-62894910D01*
X120008183Y-62892531D01*
X120003750Y-62888744D01*
X119997524Y-62882898D01*
X119969321Y-62856414D01*
X119969319Y-62856412D01*
X119951431Y-62846578D01*
X119935170Y-62835897D01*
X119919039Y-62823384D01*
X119875693Y-62804627D01*
X119870445Y-62802056D01*
X119843024Y-62786982D01*
X119829060Y-62779305D01*
X119814346Y-62775527D01*
X119809287Y-62774228D01*
X119790881Y-62767926D01*
X119772144Y-62759818D01*
X119772146Y-62759818D01*
X119725496Y-62752430D01*
X119719781Y-62751246D01*
X119699612Y-62746068D01*
X119674032Y-62739500D01*
X119674030Y-62739500D01*
X119653616Y-62739500D01*
X119634217Y-62737973D01*
X119614058Y-62734780D01*
X119614057Y-62734780D01*
X119567034Y-62739225D01*
X119561196Y-62739500D01*
X94617354Y-62739500D01*
X94601606Y-62737761D01*
X94601581Y-62738032D01*
X94593813Y-62737297D01*
X94524729Y-62739469D01*
X94522781Y-62739500D01*
X94493857Y-62739500D01*
X94486863Y-62740384D01*
X94481040Y-62740842D01*
X94433831Y-62742326D01*
X94433828Y-62742327D01*
X94414225Y-62748022D01*
X94395179Y-62751966D01*
X94374923Y-62754526D01*
X94374921Y-62754526D01*
X94374919Y-62754527D01*
X94331002Y-62771914D01*
X94325476Y-62773806D01*
X94280126Y-62786982D01*
X94262553Y-62797374D01*
X94245090Y-62805929D01*
X94226105Y-62813446D01*
X94226103Y-62813447D01*
X94187899Y-62841204D01*
X94183016Y-62844412D01*
X94142357Y-62868458D01*
X94127916Y-62882898D01*
X94113128Y-62895527D01*
X94096617Y-62907523D01*
X94096612Y-62907528D01*
X94066510Y-62943914D01*
X94062578Y-62948236D01*
X92575179Y-64435634D01*
X92562820Y-64445538D01*
X92562993Y-64445747D01*
X92556981Y-64450720D01*
X92509673Y-64501097D01*
X92508320Y-64502493D01*
X92487873Y-64522941D01*
X92487857Y-64522959D01*
X92483531Y-64528534D01*
X92479747Y-64532964D01*
X92447419Y-64567391D01*
X92447412Y-64567401D01*
X92437579Y-64585287D01*
X92426903Y-64601540D01*
X92414386Y-64617677D01*
X92414385Y-64617679D01*
X92395625Y-64661030D01*
X92393055Y-64666276D01*
X92370303Y-64707661D01*
X92370303Y-64707662D01*
X92365225Y-64727440D01*
X92358925Y-64745842D01*
X92350818Y-64764577D01*
X92343431Y-64811215D01*
X92342246Y-64816936D01*
X92330500Y-64862685D01*
X92330500Y-64883104D01*
X92328973Y-64902503D01*
X92325780Y-64922661D01*
X92325780Y-64922662D01*
X92330225Y-64969686D01*
X92330500Y-64975524D01*
X92330500Y-88324232D01*
X92310815Y-88391271D01*
X92294181Y-88411913D01*
X90492913Y-90213181D01*
X90431590Y-90246666D01*
X90405232Y-90249500D01*
X89683361Y-90249500D01*
X89616322Y-90229815D01*
X89570567Y-90177011D01*
X89560623Y-90107853D01*
X89589648Y-90044297D01*
X89607193Y-90027652D01*
X89671220Y-89977818D01*
X89829314Y-89806083D01*
X89956984Y-89610669D01*
X90050749Y-89396907D01*
X90108051Y-89170626D01*
X90127327Y-88938000D01*
X90108051Y-88705374D01*
X90050749Y-88479093D01*
X89956984Y-88265331D01*
X89892219Y-88166201D01*
X89829313Y-88069915D01*
X89742143Y-87975224D01*
X89711220Y-87912570D01*
X89719080Y-87843144D01*
X89763227Y-87788988D01*
X89790032Y-87775061D01*
X89860204Y-87748889D01*
X89977261Y-87661261D01*
X90064889Y-87544204D01*
X90115989Y-87407201D01*
X90119591Y-87373692D01*
X90122499Y-87346654D01*
X90122500Y-87346637D01*
X90122500Y-85449362D01*
X90122499Y-85449345D01*
X90119157Y-85418270D01*
X90115989Y-85388799D01*
X90064889Y-85251796D01*
X89977261Y-85134739D01*
X89860204Y-85047111D01*
X89860203Y-85047110D01*
X89723203Y-84996011D01*
X89662654Y-84989500D01*
X89662638Y-84989500D01*
X87765362Y-84989500D01*
X87765345Y-84989500D01*
X87704797Y-84996011D01*
X87704795Y-84996011D01*
X87567795Y-85047111D01*
X87450739Y-85134739D01*
X87363111Y-85251795D01*
X87312011Y-85388795D01*
X87312011Y-85388797D01*
X87305500Y-85449345D01*
X87305500Y-87346654D01*
X87312011Y-87407202D01*
X87312011Y-87407204D01*
X87357688Y-87529665D01*
X87363111Y-87544204D01*
X87450739Y-87661261D01*
X87567796Y-87748889D01*
X87567795Y-87748889D01*
X87637961Y-87775060D01*
X87693895Y-87816931D01*
X87718311Y-87882396D01*
X87703459Y-87950669D01*
X87685857Y-87975224D01*
X87598683Y-88069919D01*
X87471015Y-88265331D01*
X87377251Y-88479092D01*
X87319948Y-88705377D01*
X87300673Y-88937994D01*
X87300673Y-88938005D01*
X87319948Y-89170622D01*
X87377251Y-89396907D01*
X87471015Y-89610668D01*
X87598686Y-89806084D01*
X87751919Y-89972538D01*
X87756780Y-89977818D01*
X87940983Y-90121190D01*
X87940985Y-90121191D01*
X87940988Y-90121193D01*
X88060331Y-90185777D01*
X88146273Y-90232287D01*
X88260914Y-90271643D01*
X88367045Y-90308079D01*
X88367047Y-90308079D01*
X88367049Y-90308080D01*
X88597288Y-90346500D01*
X88597289Y-90346500D01*
X88598388Y-90346591D01*
X88598809Y-90346753D01*
X88602347Y-90347344D01*
X88602225Y-90348071D01*
X88663575Y-90371738D01*
X88704818Y-90428136D01*
X88709023Y-90497879D01*
X88693697Y-90535266D01*
X88601744Y-90684342D01*
X88601743Y-90684344D01*
X88546091Y-90852295D01*
X88546091Y-90852297D01*
X88535500Y-90955955D01*
X88535500Y-92119231D01*
X88515815Y-92186270D01*
X88499181Y-92206912D01*
X88315179Y-92390914D01*
X88302820Y-92400818D01*
X88302993Y-92401027D01*
X88296981Y-92406000D01*
X88249672Y-92456378D01*
X88248319Y-92457774D01*
X88227873Y-92478221D01*
X88227857Y-92478239D01*
X88223531Y-92483814D01*
X88219747Y-92488244D01*
X88187419Y-92522671D01*
X88187412Y-92522681D01*
X88177579Y-92540567D01*
X88166903Y-92556820D01*
X88154386Y-92572957D01*
X88154385Y-92572959D01*
X88135625Y-92616310D01*
X88133055Y-92621556D01*
X88110303Y-92662941D01*
X88110303Y-92662942D01*
X88105225Y-92682720D01*
X88098925Y-92701122D01*
X88090818Y-92719857D01*
X88083431Y-92766495D01*
X88082246Y-92772216D01*
X88070500Y-92817965D01*
X88070500Y-92838384D01*
X88068973Y-92857784D01*
X88065779Y-92877941D01*
X88065779Y-92877942D01*
X88070224Y-92924963D01*
X88070499Y-92930800D01*
X88070499Y-96771679D01*
X88050814Y-96838718D01*
X88034180Y-96859360D01*
X87708049Y-97185491D01*
X87646726Y-97218976D01*
X87577034Y-97213992D01*
X87521101Y-97172120D01*
X87518811Y-97168960D01*
X87413090Y-97017974D01*
X87251192Y-96856076D01*
X87063641Y-96724751D01*
X87063637Y-96724749D01*
X86856141Y-96627992D01*
X86856130Y-96627988D01*
X86634981Y-96568731D01*
X86634973Y-96568730D01*
X86406894Y-96548776D01*
X86406890Y-96548776D01*
X86178810Y-96568730D01*
X86178802Y-96568731D01*
X85957653Y-96627988D01*
X85957642Y-96627992D01*
X85750146Y-96724749D01*
X85750144Y-96724750D01*
X85731214Y-96738005D01*
X85562592Y-96856076D01*
X85562590Y-96856077D01*
X85562587Y-96856080D01*
X85400698Y-97017969D01*
X85400695Y-97017972D01*
X85400694Y-97017974D01*
X85393674Y-97028000D01*
X85269368Y-97205526D01*
X85269367Y-97205528D01*
X85172610Y-97413024D01*
X85172606Y-97413035D01*
X85113349Y-97634184D01*
X85113348Y-97634192D01*
X85093394Y-97862272D01*
X85093394Y-97862275D01*
X85113348Y-98090355D01*
X85113349Y-98090363D01*
X85172606Y-98311512D01*
X85172610Y-98311523D01*
X85256001Y-98490355D01*
X85269369Y-98519023D01*
X85400694Y-98706574D01*
X85562592Y-98868472D01*
X85750143Y-98999797D01*
X85860837Y-99051414D01*
X85957642Y-99096555D01*
X85957644Y-99096555D01*
X85957649Y-99096558D01*
X86178805Y-99155817D01*
X86335214Y-99169501D01*
X86406890Y-99175772D01*
X86406892Y-99175772D01*
X86406893Y-99175772D01*
X86420504Y-99174581D01*
X86590918Y-99159671D01*
X86659415Y-99173437D01*
X86709598Y-99222052D01*
X86725723Y-99283199D01*
X86725723Y-118029869D01*
X86723984Y-118045616D01*
X86724255Y-118045642D01*
X86723520Y-118053409D01*
X86725692Y-118122493D01*
X86725723Y-118124441D01*
X86725723Y-118153362D01*
X86726607Y-118160359D01*
X86727065Y-118166182D01*
X86728549Y-118213392D01*
X86728550Y-118213394D01*
X86734245Y-118232998D01*
X86738190Y-118252045D01*
X86740749Y-118272300D01*
X86740750Y-118272303D01*
X86740751Y-118272306D01*
X86758137Y-118316219D01*
X86760029Y-118321747D01*
X86773204Y-118367095D01*
X86783595Y-118384665D01*
X86792155Y-118402138D01*
X86799670Y-118421120D01*
X86827432Y-118459330D01*
X86830639Y-118464213D01*
X86854681Y-118504865D01*
X86854685Y-118504869D01*
X86869112Y-118519296D01*
X86881749Y-118534091D01*
X86893751Y-118550610D01*
X86930154Y-118580725D01*
X86934454Y-118584638D01*
X92250473Y-123900658D01*
X94021632Y-125671817D01*
X94031536Y-125684178D01*
X94031746Y-125684005D01*
X94036717Y-125690013D01*
X94036720Y-125690018D01*
X94087138Y-125737363D01*
X94088447Y-125738632D01*
X94098287Y-125748472D01*
X94108945Y-125759131D01*
X94114533Y-125763466D01*
X94118965Y-125767252D01*
X94140573Y-125787542D01*
X94153400Y-125799587D01*
X94171282Y-125809417D01*
X94187549Y-125820102D01*
X94203680Y-125832615D01*
X94225558Y-125842081D01*
X94247027Y-125851371D01*
X94252253Y-125853931D01*
X94293660Y-125876695D01*
X94313436Y-125881772D01*
X94331844Y-125888075D01*
X94350570Y-125896179D01*
X94350572Y-125896180D01*
X94350573Y-125896180D01*
X94350575Y-125896181D01*
X94391504Y-125902663D01*
X94397223Y-125903569D01*
X94402932Y-125904751D01*
X94448690Y-125916500D01*
X94469104Y-125916500D01*
X94488503Y-125918027D01*
X94508663Y-125921220D01*
X94555685Y-125916775D01*
X94561524Y-125916500D01*
X114180366Y-125916500D01*
X114196113Y-125918238D01*
X114196139Y-125917968D01*
X114203906Y-125918702D01*
X114203908Y-125918701D01*
X114203909Y-125918702D01*
X114213259Y-125918408D01*
X114272991Y-125916531D01*
X114274939Y-125916500D01*
X114303857Y-125916500D01*
X114305222Y-125916327D01*
X114310862Y-125915614D01*
X114316685Y-125915156D01*
X114342708Y-125914338D01*
X114363890Y-125913673D01*
X114373681Y-125910827D01*
X114383481Y-125907980D01*
X114402538Y-125904032D01*
X114422797Y-125901474D01*
X114466721Y-125884082D01*
X114472221Y-125882199D01*
X114517593Y-125869018D01*
X114535165Y-125858625D01*
X114552632Y-125850068D01*
X114571617Y-125842552D01*
X114609826Y-125814790D01*
X114614704Y-125811585D01*
X114655362Y-125787542D01*
X114669802Y-125773100D01*
X114684592Y-125760470D01*
X114701107Y-125748472D01*
X114731222Y-125712067D01*
X114735126Y-125707776D01*
X115825085Y-124617818D01*
X115886408Y-124584333D01*
X115912766Y-124581499D01*
X117076031Y-124581499D01*
X117076036Y-124581499D01*
X117179701Y-124570909D01*
X117347658Y-124515255D01*
X117498252Y-124422366D01*
X117623366Y-124297252D01*
X117716255Y-124146658D01*
X117771015Y-123981400D01*
X117771172Y-123980926D01*
X117801197Y-123932248D01*
X118469550Y-123263896D01*
X118470327Y-123274265D01*
X118519887Y-123400541D01*
X118604465Y-123506599D01*
X118716547Y-123583016D01*
X118824299Y-123616253D01*
X118115199Y-124325351D01*
X118145650Y-124349050D01*
X118349697Y-124459476D01*
X118349706Y-124459479D01*
X118569139Y-124534811D01*
X118797993Y-124573000D01*
X119030007Y-124573000D01*
X119258860Y-124534811D01*
X119478293Y-124459479D01*
X119478302Y-124459476D01*
X119682350Y-124349050D01*
X119712798Y-124325351D01*
X119002231Y-123614784D01*
X119048138Y-123607865D01*
X119170357Y-123549007D01*
X119269798Y-123456740D01*
X119337625Y-123339260D01*
X119355499Y-123260946D01*
X120065186Y-123970634D01*
X120075114Y-123955439D01*
X120128260Y-123910082D01*
X120197491Y-123900658D01*
X120260827Y-123930159D01*
X120282732Y-123955439D01*
X120338686Y-124041084D01*
X120496776Y-124212814D01*
X120496780Y-124212818D01*
X120680983Y-124356190D01*
X120680985Y-124356191D01*
X120680988Y-124356193D01*
X120800331Y-124420777D01*
X120886273Y-124467287D01*
X121000914Y-124506643D01*
X121107045Y-124543079D01*
X121107047Y-124543079D01*
X121107049Y-124543080D01*
X121337288Y-124581500D01*
X121337289Y-124581500D01*
X121570711Y-124581500D01*
X121570712Y-124581500D01*
X121800951Y-124543080D01*
X122021727Y-124467287D01*
X122227017Y-124356190D01*
X122411220Y-124212818D01*
X122569314Y-124041083D01*
X122696984Y-123845669D01*
X122790749Y-123631907D01*
X122848051Y-123405626D01*
X122867327Y-123173000D01*
X122848051Y-122940374D01*
X122790749Y-122714093D01*
X122696984Y-122500331D01*
X122654900Y-122435917D01*
X122569313Y-122304915D01*
X122411223Y-122133185D01*
X122411222Y-122133184D01*
X122411220Y-122133182D01*
X122227017Y-121989810D01*
X122227015Y-121989809D01*
X122227014Y-121989808D01*
X122227011Y-121989806D01*
X122021733Y-121878716D01*
X122021730Y-121878715D01*
X122021727Y-121878713D01*
X122021721Y-121878711D01*
X122021719Y-121878710D01*
X121800954Y-121802920D01*
X121621650Y-121773000D01*
X121570712Y-121764500D01*
X121337288Y-121764500D01*
X121291240Y-121772183D01*
X121107045Y-121802920D01*
X120886280Y-121878710D01*
X120886266Y-121878716D01*
X120680988Y-121989806D01*
X120680985Y-121989808D01*
X120496781Y-122133181D01*
X120496776Y-122133185D01*
X120338686Y-122304916D01*
X120338683Y-122304918D01*
X120282731Y-122390560D01*
X120229585Y-122435917D01*
X120160353Y-122445340D01*
X120097018Y-122415837D01*
X120075114Y-122390560D01*
X120065186Y-122375364D01*
X119358449Y-123082101D01*
X119357673Y-123071735D01*
X119308113Y-122945459D01*
X119223535Y-122839401D01*
X119111453Y-122762984D01*
X119003700Y-122729747D01*
X119712799Y-122020648D01*
X119712799Y-122020647D01*
X119682349Y-121996949D01*
X119478302Y-121886523D01*
X119478293Y-121886520D01*
X119258860Y-121811188D01*
X119030007Y-121773000D01*
X118797993Y-121773000D01*
X118569139Y-121811188D01*
X118349706Y-121886520D01*
X118349698Y-121886523D01*
X118145644Y-121996952D01*
X118115200Y-122020646D01*
X118115200Y-122020647D01*
X118825768Y-122731215D01*
X118779862Y-122738135D01*
X118657643Y-122796993D01*
X118558202Y-122889260D01*
X118490375Y-123006740D01*
X118472500Y-123085053D01*
X117801196Y-122413749D01*
X117771171Y-122365071D01*
X117716256Y-122199344D01*
X117716255Y-122199342D01*
X117623364Y-122048745D01*
X117498254Y-121923635D01*
X117347657Y-121830744D01*
X117347655Y-121830743D01*
X117179703Y-121775091D01*
X117076037Y-121764500D01*
X115671969Y-121764500D01*
X115671954Y-121764501D01*
X115568296Y-121775091D01*
X115400344Y-121830743D01*
X115400342Y-121830744D01*
X115249745Y-121923635D01*
X115124635Y-122048745D01*
X115031744Y-122199342D01*
X115031743Y-122199344D01*
X114976091Y-122367295D01*
X114976091Y-122367297D01*
X114965500Y-122470955D01*
X114965500Y-123007481D01*
X114945815Y-123074520D01*
X114893011Y-123120275D01*
X114823853Y-123130219D01*
X114760297Y-123101194D01*
X114750271Y-123091465D01*
X114701218Y-123038180D01*
X114517014Y-122894808D01*
X114517011Y-122894806D01*
X114311733Y-122783716D01*
X114311730Y-122783715D01*
X114311727Y-122783713D01*
X114311721Y-122783711D01*
X114311719Y-122783710D01*
X114090954Y-122707920D01*
X113899730Y-122676011D01*
X113860712Y-122669500D01*
X113627288Y-122669500D01*
X113588914Y-122675903D01*
X113397044Y-122707920D01*
X113375545Y-122715301D01*
X113305746Y-122718449D01*
X113247604Y-122685700D01*
X110740738Y-120178833D01*
X110707253Y-120117510D01*
X110712237Y-120047818D01*
X110754109Y-119991885D01*
X110819573Y-119967468D01*
X110828419Y-119967152D01*
X135314714Y-119967152D01*
X135330461Y-119968890D01*
X135330487Y-119968620D01*
X135338254Y-119969354D01*
X135338256Y-119969353D01*
X135338257Y-119969354D01*
X135347607Y-119969060D01*
X135407339Y-119967183D01*
X135409287Y-119967152D01*
X135438205Y-119967152D01*
X135439570Y-119966979D01*
X135445210Y-119966266D01*
X135451033Y-119965808D01*
X135477056Y-119964990D01*
X135498238Y-119964325D01*
X135508029Y-119961479D01*
X135517829Y-119958632D01*
X135536886Y-119954684D01*
X135557145Y-119952126D01*
X135601069Y-119934734D01*
X135606569Y-119932851D01*
X135651941Y-119919670D01*
X135669513Y-119909277D01*
X135686980Y-119900720D01*
X135705965Y-119893204D01*
X135744174Y-119865442D01*
X135749052Y-119862237D01*
X135789710Y-119838194D01*
X135804150Y-119823752D01*
X135818940Y-119811122D01*
X135835455Y-119799124D01*
X135865570Y-119762719D01*
X135869474Y-119758428D01*
X137053219Y-118574683D01*
X137114540Y-118541200D01*
X137167880Y-118542471D01*
X137168008Y-118541745D01*
X137172790Y-118542588D01*
X137172997Y-118542592D01*
X137173345Y-118542686D01*
X137350103Y-118558150D01*
X137383998Y-118561116D01*
X137384000Y-118561116D01*
X137384002Y-118561116D01*
X137436663Y-118556508D01*
X137594655Y-118542686D01*
X137798910Y-118487956D01*
X137990558Y-118398589D01*
X138163776Y-118277301D01*
X138313301Y-118127776D01*
X138434589Y-117954558D01*
X138467284Y-117884441D01*
X138479084Y-117859139D01*
X138525257Y-117806700D01*
X138591466Y-117787544D01*
X148381143Y-117787544D01*
X148448182Y-117807229D01*
X148484951Y-117843722D01*
X148536003Y-117921862D01*
X148556191Y-117988751D01*
X148537012Y-118055937D01*
X148484553Y-118102088D01*
X148443004Y-118113212D01*
X148348332Y-118121495D01*
X148348322Y-118121497D01*
X148120165Y-118182631D01*
X148120156Y-118182635D01*
X147906071Y-118282464D01*
X147906069Y-118282465D01*
X147712575Y-118417951D01*
X147712569Y-118417956D01*
X147545543Y-118584982D01*
X147486866Y-118668781D01*
X148294223Y-119045258D01*
X148201888Y-119125267D01*
X148124156Y-119246221D01*
X148083649Y-119384176D01*
X148083649Y-119498755D01*
X147275555Y-119121934D01*
X147275554Y-119121935D01*
X147249082Y-119220736D01*
X147249079Y-119220749D01*
X147228492Y-119456064D01*
X147228492Y-119456066D01*
X147249079Y-119691380D01*
X147249081Y-119691391D01*
X147310215Y-119919548D01*
X147310219Y-119919557D01*
X147410048Y-120133643D01*
X147545543Y-120327147D01*
X147712567Y-120494171D01*
X147712577Y-120494180D01*
X147796364Y-120552849D01*
X148173875Y-119743273D01*
X148201888Y-119786863D01*
X148310549Y-119881017D01*
X148441334Y-119940745D01*
X148547886Y-119956065D01*
X148619412Y-119956065D01*
X148626836Y-119954997D01*
X148249519Y-120764157D01*
X148348326Y-120790633D01*
X148348333Y-120790634D01*
X148583647Y-120811222D01*
X148583651Y-120811222D01*
X148818964Y-120790634D01*
X148818975Y-120790632D01*
X149047132Y-120729498D01*
X149047141Y-120729494D01*
X149261227Y-120629665D01*
X149454731Y-120494170D01*
X149621754Y-120327147D01*
X149680431Y-120243348D01*
X148873074Y-119866870D01*
X148965410Y-119786863D01*
X149043142Y-119665909D01*
X149083649Y-119527954D01*
X149083649Y-119413373D01*
X149891741Y-119790193D01*
X149918217Y-119691385D01*
X149938806Y-119456066D01*
X149938806Y-119456063D01*
X149918218Y-119220749D01*
X149918216Y-119220738D01*
X149857082Y-118992581D01*
X149857078Y-118992572D01*
X149757249Y-118778487D01*
X149757248Y-118778485D01*
X149704596Y-118703290D01*
X149682269Y-118637084D01*
X149699279Y-118569317D01*
X149750227Y-118521504D01*
X149785759Y-118509858D01*
X149991734Y-118475488D01*
X150204673Y-118402386D01*
X150402675Y-118295233D01*
X150580339Y-118156950D01*
X150691635Y-118036052D01*
X150732814Y-117991320D01*
X150732815Y-117991318D01*
X150732821Y-117991312D01*
X150817135Y-117862260D01*
X150829247Y-117843722D01*
X150882393Y-117798365D01*
X150933055Y-117787544D01*
X150986322Y-117787544D01*
X151002069Y-117789282D01*
X151002095Y-117789012D01*
X151009862Y-117789746D01*
X151009864Y-117789745D01*
X151009865Y-117789746D01*
X151019215Y-117789452D01*
X151078947Y-117787575D01*
X151080895Y-117787544D01*
X151109813Y-117787544D01*
X151111178Y-117787371D01*
X151116818Y-117786658D01*
X151122641Y-117786200D01*
X151148664Y-117785382D01*
X151169846Y-117784717D01*
X151179637Y-117781871D01*
X151189437Y-117779024D01*
X151208494Y-117775076D01*
X151228753Y-117772518D01*
X151272677Y-117755126D01*
X151278177Y-117753243D01*
X151323549Y-117740062D01*
X151341121Y-117729669D01*
X151358588Y-117721112D01*
X151377573Y-117713596D01*
X151415782Y-117685834D01*
X151420660Y-117682629D01*
X151461318Y-117658586D01*
X151475758Y-117644144D01*
X151490548Y-117631514D01*
X151507063Y-117619516D01*
X151537178Y-117583111D01*
X151541082Y-117578820D01*
X153184881Y-115935022D01*
X153246203Y-115901538D01*
X153315895Y-115906522D01*
X153371828Y-115948394D01*
X153396245Y-116013858D01*
X153381393Y-116082131D01*
X153376921Y-116089674D01*
X152907007Y-116821953D01*
X152905950Y-116823546D01*
X152194310Y-117860700D01*
X152193204Y-117862260D01*
X151449958Y-118876928D01*
X151448804Y-118878453D01*
X150674610Y-119869743D01*
X150673409Y-119871232D01*
X149869025Y-120838168D01*
X149867779Y-120839619D01*
X149033965Y-121781289D01*
X149032675Y-121782701D01*
X148170196Y-122698240D01*
X148168864Y-122699611D01*
X147278614Y-123588073D01*
X147277240Y-123589402D01*
X146359967Y-124450039D01*
X146358552Y-124451325D01*
X145415206Y-125283243D01*
X145413753Y-125284485D01*
X144445201Y-126086923D01*
X144443709Y-126088120D01*
X143450880Y-126860307D01*
X143449353Y-126861458D01*
X142433175Y-127602673D01*
X142431613Y-127603775D01*
X141393045Y-128313316D01*
X141391450Y-128314370D01*
X140689081Y-128763099D01*
X140331552Y-128991517D01*
X140331550Y-128991518D01*
X140329923Y-128992522D01*
X139249588Y-129636699D01*
X139247931Y-129637653D01*
X138188421Y-130225910D01*
X138128229Y-130241499D01*
X99615771Y-130241499D01*
X99555580Y-130225910D01*
X98496081Y-129637661D01*
X98494423Y-129636707D01*
X97414076Y-128992521D01*
X97412449Y-128991517D01*
X96352548Y-128314369D01*
X96350953Y-128313315D01*
X95312385Y-127603774D01*
X95310831Y-127602678D01*
X94294646Y-126861458D01*
X94293119Y-126860307D01*
X93300290Y-126088119D01*
X93298799Y-126086922D01*
X92638104Y-125539543D01*
X92330223Y-125284466D01*
X92328792Y-125283242D01*
X91385446Y-124451324D01*
X91384031Y-124450038D01*
X91379775Y-124446045D01*
X91026997Y-124115049D01*
X90466758Y-123589401D01*
X90465403Y-123588091D01*
X89575121Y-122699598D01*
X89573802Y-122698240D01*
X88711307Y-121782683D01*
X88710041Y-121781297D01*
X87876208Y-120839607D01*
X87874989Y-120838187D01*
X87874973Y-120838168D01*
X87110791Y-119919557D01*
X87070590Y-119871232D01*
X87069390Y-119869743D01*
X86295194Y-118878453D01*
X86294040Y-118876928D01*
X86050352Y-118544249D01*
X85550784Y-117862245D01*
X85549689Y-117860700D01*
X84838059Y-116823560D01*
X84837002Y-116821967D01*
X84681194Y-116579168D01*
X84157720Y-115763424D01*
X84156713Y-115761799D01*
X83510363Y-114682765D01*
X83509406Y-114681109D01*
X83395665Y-114477218D01*
X82896629Y-113582647D01*
X82895755Y-113581020D01*
X82317147Y-112464199D01*
X82316310Y-112462519D01*
X81772417Y-111328393D01*
X81771617Y-111326656D01*
X81262958Y-110176310D01*
X81262215Y-110174560D01*
X80789247Y-109009025D01*
X80788590Y-109007330D01*
X80351795Y-107827794D01*
X80351167Y-107826012D01*
X79950948Y-106633561D01*
X79950376Y-106631766D01*
X79587120Y-105427554D01*
X79586612Y-105425771D01*
X79260648Y-104210889D01*
X79260203Y-104209120D01*
X78971857Y-102984772D01*
X78971459Y-102982961D01*
X78721011Y-101750344D01*
X78720660Y-101748468D01*
X78601700Y-101053861D01*
X78508332Y-100508689D01*
X78508051Y-100506883D01*
X78345055Y-99339918D01*
X78334050Y-99261125D01*
X78333815Y-99259228D01*
X78326748Y-99194010D01*
X78198317Y-98008767D01*
X78198144Y-98006906D01*
X78195631Y-97974381D01*
X78136236Y-97205525D01*
X78101264Y-96752816D01*
X78101148Y-96750950D01*
X78042980Y-95494412D01*
X78042926Y-95492673D01*
X78023531Y-94234907D01*
X78023531Y-94233092D01*
X78042926Y-92975324D01*
X78042980Y-92973589D01*
X78101148Y-91717044D01*
X78101264Y-91715182D01*
X78122984Y-91434021D01*
X78198145Y-90461072D01*
X78198316Y-90459237D01*
X78333816Y-89208755D01*
X78334050Y-89206873D01*
X78368705Y-88958761D01*
X78508052Y-87961105D01*
X78508335Y-87959291D01*
X78509718Y-87951219D01*
X78676280Y-86978667D01*
X78720660Y-86719532D01*
X78721012Y-86717652D01*
X78727466Y-86685889D01*
X78971463Y-85485024D01*
X78971860Y-85483217D01*
X78973539Y-85476089D01*
X79260208Y-84258863D01*
X79260645Y-84257126D01*
X79586617Y-83042210D01*
X79587116Y-83040461D01*
X79913645Y-81958000D01*
X83240835Y-81958000D01*
X83259465Y-82194714D01*
X83314895Y-82425595D01*
X83314895Y-82425597D01*
X83405757Y-82644959D01*
X83405759Y-82644962D01*
X83529820Y-82847410D01*
X83529821Y-82847413D01*
X83529824Y-82847416D01*
X83684031Y-83027969D01*
X83785626Y-83114739D01*
X83864586Y-83182178D01*
X83864588Y-83182178D01*
X83945554Y-83231795D01*
X84067037Y-83306240D01*
X84067040Y-83306242D01*
X84286403Y-83397104D01*
X84286404Y-83397104D01*
X84286406Y-83397105D01*
X84517289Y-83452535D01*
X84754000Y-83471165D01*
X84990711Y-83452535D01*
X85221594Y-83397105D01*
X85221596Y-83397104D01*
X85221597Y-83397104D01*
X85440959Y-83306242D01*
X85440960Y-83306241D01*
X85440963Y-83306240D01*
X85643416Y-83182176D01*
X85823969Y-83027969D01*
X85978176Y-82847416D01*
X86102240Y-82644963D01*
X86110398Y-82625269D01*
X86193104Y-82425597D01*
X86193104Y-82425596D01*
X86193105Y-82425594D01*
X86248535Y-82194711D01*
X86267165Y-81958000D01*
X87740835Y-81958000D01*
X87759465Y-82194714D01*
X87814895Y-82425595D01*
X87814895Y-82425597D01*
X87905757Y-82644959D01*
X87905759Y-82644962D01*
X88029820Y-82847410D01*
X88029821Y-82847413D01*
X88029824Y-82847416D01*
X88184031Y-83027969D01*
X88285626Y-83114739D01*
X88364586Y-83182178D01*
X88364588Y-83182178D01*
X88445554Y-83231795D01*
X88567037Y-83306240D01*
X88567040Y-83306242D01*
X88786403Y-83397104D01*
X88786404Y-83397104D01*
X88786406Y-83397105D01*
X89017289Y-83452535D01*
X89254000Y-83471165D01*
X89490711Y-83452535D01*
X89721594Y-83397105D01*
X89721596Y-83397104D01*
X89721597Y-83397104D01*
X89940959Y-83306242D01*
X89940960Y-83306241D01*
X89940963Y-83306240D01*
X90143416Y-83182176D01*
X90323969Y-83027969D01*
X90478176Y-82847416D01*
X90602240Y-82644963D01*
X90610398Y-82625269D01*
X90693104Y-82425597D01*
X90693104Y-82425596D01*
X90693105Y-82425594D01*
X90748535Y-82194711D01*
X90767165Y-81958000D01*
X90748535Y-81721289D01*
X90693105Y-81490406D01*
X90693104Y-81490403D01*
X90693104Y-81490402D01*
X90602242Y-81271040D01*
X90602240Y-81271037D01*
X90559923Y-81201982D01*
X90478178Y-81068588D01*
X90478178Y-81068586D01*
X90433217Y-81015944D01*
X90323969Y-80888031D01*
X90153097Y-80742092D01*
X90143413Y-80733821D01*
X90143410Y-80733820D01*
X89946710Y-80613281D01*
X89899835Y-80561469D01*
X89887500Y-80507554D01*
X89887500Y-76908445D01*
X89907185Y-76841406D01*
X89946710Y-76802718D01*
X90143411Y-76682179D01*
X90143413Y-76682178D01*
X90143413Y-76682177D01*
X90143416Y-76682176D01*
X90323969Y-76527969D01*
X90478176Y-76347416D01*
X90602240Y-76144963D01*
X90660016Y-76005480D01*
X90693104Y-75925597D01*
X90693104Y-75925596D01*
X90693105Y-75925594D01*
X90748535Y-75694711D01*
X90767165Y-75458000D01*
X90748535Y-75221289D01*
X90693105Y-74990406D01*
X90693104Y-74990403D01*
X90693104Y-74990402D01*
X90602242Y-74771040D01*
X90602240Y-74771037D01*
X90478179Y-74568589D01*
X90478178Y-74568586D01*
X90407024Y-74485276D01*
X90323969Y-74388031D01*
X90154072Y-74242925D01*
X90143413Y-74233821D01*
X90143410Y-74233820D01*
X89940962Y-74109759D01*
X89940959Y-74109757D01*
X89721596Y-74018895D01*
X89490714Y-73963465D01*
X89313177Y-73949492D01*
X89254000Y-73944835D01*
X89253999Y-73944835D01*
X89017285Y-73963465D01*
X88786404Y-74018895D01*
X88786402Y-74018895D01*
X88567040Y-74109757D01*
X88567037Y-74109759D01*
X88364589Y-74233820D01*
X88364586Y-74233821D01*
X88184031Y-74388031D01*
X88029821Y-74568586D01*
X88029820Y-74568589D01*
X87905759Y-74771037D01*
X87905757Y-74771040D01*
X87814895Y-74990402D01*
X87814895Y-74990404D01*
X87759465Y-75221285D01*
X87740835Y-75458000D01*
X87759465Y-75694714D01*
X87814895Y-75925595D01*
X87814895Y-75925597D01*
X87905757Y-76144959D01*
X87905759Y-76144962D01*
X88029820Y-76347410D01*
X88029821Y-76347413D01*
X88029824Y-76347416D01*
X88184031Y-76527969D01*
X88304213Y-76630614D01*
X88364586Y-76682178D01*
X88364588Y-76682179D01*
X88561290Y-76802718D01*
X88608165Y-76854529D01*
X88620500Y-76908445D01*
X88620500Y-80507554D01*
X88600815Y-80574593D01*
X88561290Y-80613281D01*
X88364589Y-80733820D01*
X88364586Y-80733821D01*
X88184031Y-80888031D01*
X88029821Y-81068586D01*
X88029820Y-81068589D01*
X87905759Y-81271037D01*
X87905757Y-81271040D01*
X87814895Y-81490402D01*
X87814895Y-81490404D01*
X87759465Y-81721285D01*
X87740835Y-81958000D01*
X86267165Y-81958000D01*
X86248535Y-81721289D01*
X86193105Y-81490406D01*
X86193104Y-81490403D01*
X86193104Y-81490402D01*
X86102242Y-81271040D01*
X86102240Y-81271037D01*
X86059923Y-81201982D01*
X85978178Y-81068588D01*
X85978178Y-81068586D01*
X85933217Y-81015944D01*
X85823969Y-80888031D01*
X85653097Y-80742092D01*
X85643413Y-80733821D01*
X85643410Y-80733820D01*
X85446710Y-80613281D01*
X85399835Y-80561469D01*
X85387500Y-80507554D01*
X85387500Y-76908445D01*
X85407185Y-76841406D01*
X85446710Y-76802718D01*
X85643411Y-76682179D01*
X85643413Y-76682178D01*
X85643413Y-76682177D01*
X85643416Y-76682176D01*
X85823969Y-76527969D01*
X85978176Y-76347416D01*
X86102240Y-76144963D01*
X86160016Y-76005480D01*
X86193104Y-75925597D01*
X86193104Y-75925596D01*
X86193105Y-75925594D01*
X86248535Y-75694711D01*
X86267165Y-75458000D01*
X86248535Y-75221289D01*
X86193105Y-74990406D01*
X86193104Y-74990403D01*
X86193104Y-74990402D01*
X86102242Y-74771040D01*
X86102240Y-74771037D01*
X85978179Y-74568589D01*
X85978178Y-74568586D01*
X85907024Y-74485276D01*
X85823969Y-74388031D01*
X85654072Y-74242925D01*
X85643413Y-74233821D01*
X85643410Y-74233820D01*
X85440962Y-74109759D01*
X85440959Y-74109757D01*
X85221596Y-74018895D01*
X84990714Y-73963465D01*
X84754000Y-73944835D01*
X84517285Y-73963465D01*
X84286404Y-74018895D01*
X84286402Y-74018895D01*
X84067040Y-74109757D01*
X84067037Y-74109759D01*
X83864589Y-74233820D01*
X83864586Y-74233821D01*
X83684031Y-74388031D01*
X83529821Y-74568586D01*
X83529820Y-74568589D01*
X83405759Y-74771037D01*
X83405757Y-74771040D01*
X83314895Y-74990402D01*
X83314895Y-74990404D01*
X83259465Y-75221285D01*
X83240835Y-75458000D01*
X83259465Y-75694714D01*
X83314895Y-75925595D01*
X83314895Y-75925597D01*
X83405757Y-76144959D01*
X83405759Y-76144962D01*
X83529820Y-76347410D01*
X83529821Y-76347413D01*
X83529824Y-76347416D01*
X83684031Y-76527969D01*
X83804213Y-76630614D01*
X83864586Y-76682178D01*
X83864588Y-76682179D01*
X84061290Y-76802718D01*
X84108165Y-76854529D01*
X84120500Y-76908445D01*
X84120500Y-80507554D01*
X84100815Y-80574593D01*
X84061290Y-80613281D01*
X83864589Y-80733820D01*
X83864586Y-80733821D01*
X83684031Y-80888031D01*
X83529821Y-81068586D01*
X83529820Y-81068589D01*
X83405759Y-81271037D01*
X83405757Y-81271040D01*
X83314895Y-81490402D01*
X83314895Y-81490404D01*
X83259465Y-81721285D01*
X83240835Y-81958000D01*
X79913645Y-81958000D01*
X79950383Y-81836213D01*
X79950949Y-81834437D01*
X80351168Y-80641986D01*
X80351804Y-80640184D01*
X80788598Y-79460645D01*
X80789238Y-79458995D01*
X81262225Y-78293416D01*
X81262959Y-78291688D01*
X81659793Y-77394236D01*
X81771625Y-77141324D01*
X81772417Y-77139605D01*
X81827248Y-77025273D01*
X82316318Y-76005462D01*
X82317134Y-76003825D01*
X82895776Y-74886937D01*
X82896615Y-74885377D01*
X83509417Y-73786869D01*
X83510352Y-73785251D01*
X83857697Y-73205385D01*
X84156722Y-72706185D01*
X84157693Y-72704617D01*
X84837025Y-71645995D01*
X84838049Y-71644453D01*
X84838059Y-71644439D01*
X85549704Y-70607277D01*
X85550762Y-70605785D01*
X86294059Y-69591047D01*
X86295195Y-69589546D01*
X86363581Y-69501983D01*
X87069428Y-68598207D01*
X87070565Y-68596797D01*
X87875018Y-67629779D01*
X87876191Y-67628412D01*
X88710052Y-66686689D01*
X88711324Y-66685298D01*
X88876597Y-66509857D01*
X89573816Y-65769745D01*
X89575090Y-65768433D01*
X90465437Y-64879875D01*
X90466759Y-64878597D01*
X90482858Y-64863492D01*
X91384079Y-64017916D01*
X91385423Y-64016695D01*
X92328813Y-63184738D01*
X92330224Y-63183532D01*
X93298820Y-62381057D01*
X93300290Y-62379879D01*
X93625839Y-62126678D01*
X94293137Y-61607678D01*
X94294616Y-61606563D01*
X95310874Y-60865290D01*
X95312386Y-60864224D01*
X96350954Y-60154683D01*
X96352543Y-60153632D01*
X97412531Y-59476430D01*
X97414047Y-59475494D01*
X98142535Y-59041115D01*
X98494411Y-58831300D01*
X98496053Y-58830354D01*
X98780922Y-58672190D01*
X99555582Y-58242089D01*
X99615773Y-58226500D01*
X138128228Y-58226500D01*
X138188419Y-58242089D01*
G37*
G04 #@! TD.AperFunction*
G04 #@! TA.AperFunction,Conductor*
G36*
X89116183Y-113800584D02*
G01*
X89166111Y-113831016D01*
X95457564Y-120122469D01*
X95467468Y-120134830D01*
X95467678Y-120134657D01*
X95472649Y-120140665D01*
X95472652Y-120140670D01*
X95523070Y-120188015D01*
X95524379Y-120189284D01*
X95534644Y-120199549D01*
X95544877Y-120209783D01*
X95550465Y-120214118D01*
X95554897Y-120217904D01*
X95581994Y-120243348D01*
X95589332Y-120250239D01*
X95607214Y-120260069D01*
X95623481Y-120270754D01*
X95639612Y-120283267D01*
X95661490Y-120292733D01*
X95682959Y-120302023D01*
X95688185Y-120304583D01*
X95729592Y-120327347D01*
X95749368Y-120332424D01*
X95767776Y-120338727D01*
X95786502Y-120346831D01*
X95786504Y-120346832D01*
X95786505Y-120346832D01*
X95786507Y-120346833D01*
X95827436Y-120353315D01*
X95833155Y-120354221D01*
X95838864Y-120355403D01*
X95884622Y-120367152D01*
X95905036Y-120367152D01*
X95924435Y-120368679D01*
X95944595Y-120371872D01*
X95991617Y-120367427D01*
X95997456Y-120367152D01*
X109085886Y-120367152D01*
X109152925Y-120386837D01*
X109173567Y-120403471D01*
X111227914Y-122457819D01*
X111261399Y-122519142D01*
X111256415Y-122588834D01*
X111214543Y-122644767D01*
X111149079Y-122669184D01*
X111140233Y-122669500D01*
X110255345Y-122669500D01*
X110194797Y-122676011D01*
X110194795Y-122676011D01*
X110057795Y-122727111D01*
X109940739Y-122814739D01*
X109853111Y-122931795D01*
X109802011Y-123068795D01*
X109802011Y-123068797D01*
X109795500Y-123129345D01*
X109795500Y-124525500D01*
X109775815Y-124592539D01*
X109723011Y-124638294D01*
X109671500Y-124649500D01*
X99371959Y-124649500D01*
X99304920Y-124629815D01*
X99259165Y-124577011D01*
X99249221Y-124507853D01*
X99252184Y-124493406D01*
X99267543Y-124436087D01*
X99284647Y-124240583D01*
X99287498Y-124208001D01*
X99287498Y-124207998D01*
X99276549Y-124082852D01*
X99267543Y-123979913D01*
X99208284Y-123758757D01*
X99111523Y-123551251D01*
X98980198Y-123363700D01*
X98818300Y-123201802D01*
X98630749Y-123070477D01*
X98630745Y-123070475D01*
X98423249Y-122973718D01*
X98423238Y-122973714D01*
X98202089Y-122914457D01*
X98202081Y-122914456D01*
X97974002Y-122894502D01*
X97973998Y-122894502D01*
X97745918Y-122914456D01*
X97745910Y-122914457D01*
X97524761Y-122973714D01*
X97524750Y-122973718D01*
X97317254Y-123070475D01*
X97317252Y-123070476D01*
X97287277Y-123091465D01*
X97129700Y-123201802D01*
X97129698Y-123201803D01*
X97129695Y-123201806D01*
X96967806Y-123363695D01*
X96836476Y-123551252D01*
X96836475Y-123551254D01*
X96739718Y-123758750D01*
X96739714Y-123758761D01*
X96680457Y-123979910D01*
X96680456Y-123979918D01*
X96660502Y-124207998D01*
X96660502Y-124208001D01*
X96680456Y-124436081D01*
X96680457Y-124436088D01*
X96695816Y-124493406D01*
X96694153Y-124563256D01*
X96654991Y-124621119D01*
X96590762Y-124648623D01*
X96576041Y-124649500D01*
X96363160Y-124649500D01*
X96296121Y-124629815D01*
X96250366Y-124577011D01*
X96240422Y-124507853D01*
X96243385Y-124493407D01*
X96259139Y-124434609D01*
X96259141Y-124434599D01*
X96278966Y-124208002D01*
X96278966Y-124207997D01*
X96259141Y-123981400D01*
X96259139Y-123981389D01*
X96200269Y-123761682D01*
X96200265Y-123761673D01*
X96104133Y-123555516D01*
X96104131Y-123555512D01*
X96053026Y-123482526D01*
X96053025Y-123482526D01*
X95371953Y-124163597D01*
X95359165Y-124082852D01*
X95301641Y-123969955D01*
X95212045Y-123880359D01*
X95099148Y-123822835D01*
X95018400Y-123810046D01*
X95699472Y-123128974D01*
X95699471Y-123128973D01*
X95626483Y-123077866D01*
X95626481Y-123077865D01*
X95420326Y-122981734D01*
X95420317Y-122981730D01*
X95200610Y-122922860D01*
X95200599Y-122922858D01*
X94974002Y-122903034D01*
X94973998Y-122903034D01*
X94747400Y-122922858D01*
X94747389Y-122922860D01*
X94527682Y-122981730D01*
X94527673Y-122981734D01*
X94321513Y-123077868D01*
X94248527Y-123128972D01*
X94248526Y-123128973D01*
X94929600Y-123810046D01*
X94848852Y-123822835D01*
X94735955Y-123880359D01*
X94646359Y-123969955D01*
X94588835Y-124082852D01*
X94576046Y-124163599D01*
X93894973Y-123482527D01*
X93868200Y-123520763D01*
X93813623Y-123564387D01*
X93744124Y-123571580D01*
X93681770Y-123540058D01*
X93678944Y-123537320D01*
X88900376Y-118758752D01*
X88866891Y-118697429D01*
X88871875Y-118627737D01*
X88913747Y-118571804D01*
X88979211Y-118547387D01*
X88998860Y-118547542D01*
X89124156Y-118558505D01*
X89153999Y-118561116D01*
X89154000Y-118561116D01*
X89154002Y-118561116D01*
X89206663Y-118556508D01*
X89364655Y-118542686D01*
X89568910Y-118487956D01*
X89760558Y-118398589D01*
X89933776Y-118277301D01*
X90083301Y-118127776D01*
X90204589Y-117954558D01*
X90293956Y-117762910D01*
X90348686Y-117558655D01*
X90367116Y-117348000D01*
X90348686Y-117137345D01*
X90305031Y-116974424D01*
X90293958Y-116933097D01*
X90293957Y-116933096D01*
X90293956Y-116933090D01*
X90204589Y-116741442D01*
X90083301Y-116568224D01*
X90083299Y-116568221D01*
X89933778Y-116418700D01*
X89760558Y-116297411D01*
X89760556Y-116297410D01*
X89739071Y-116287391D01*
X89568910Y-116208044D01*
X89568906Y-116208043D01*
X89568902Y-116208041D01*
X89364660Y-116153315D01*
X89364656Y-116153314D01*
X89364655Y-116153314D01*
X89364654Y-116153313D01*
X89364649Y-116153313D01*
X89154002Y-116134884D01*
X89153999Y-116134884D01*
X88943350Y-116153313D01*
X88943330Y-116153317D01*
X88942973Y-116153413D01*
X88942809Y-116153409D01*
X88938012Y-116154255D01*
X88937841Y-116153290D01*
X88873124Y-116151739D01*
X88823218Y-116121314D01*
X88659372Y-115957468D01*
X88493819Y-115791914D01*
X88460334Y-115730591D01*
X88457500Y-115704233D01*
X88457500Y-113924252D01*
X88477185Y-113857213D01*
X88529989Y-113811458D01*
X88599147Y-113801514D01*
X88603033Y-113802136D01*
X88604856Y-113802457D01*
X88604858Y-113802458D01*
X88676238Y-113808703D01*
X88818998Y-113821193D01*
X88819000Y-113821193D01*
X88819002Y-113821193D01*
X88848681Y-113818596D01*
X89033142Y-113802458D01*
X89046334Y-113798923D01*
X89116183Y-113800584D01*
G37*
G04 #@! TD.AperFunction*
G04 #@! TA.AperFunction,Conductor*
G36*
X99672495Y-72464237D02*
G01*
X99728428Y-72506109D01*
X99752845Y-72571573D01*
X99745343Y-72623751D01*
X99720403Y-72690617D01*
X99720401Y-72690627D01*
X99714000Y-72750155D01*
X99714000Y-72750172D01*
X99713999Y-73397999D01*
X99714000Y-73398000D01*
X100630314Y-73398000D01*
X100604507Y-73438156D01*
X100564000Y-73576111D01*
X100564000Y-73719889D01*
X100604507Y-73857844D01*
X100630314Y-73898000D01*
X99714000Y-73898000D01*
X99714000Y-74545844D01*
X99720401Y-74605372D01*
X99720403Y-74605379D01*
X99770645Y-74740086D01*
X99770649Y-74740093D01*
X99856809Y-74855187D01*
X99856812Y-74855190D01*
X99971906Y-74941350D01*
X99971913Y-74941354D01*
X100091810Y-74986073D01*
X100147744Y-75027944D01*
X100172161Y-75093409D01*
X100157309Y-75161682D01*
X100139706Y-75186238D01*
X99988284Y-75350723D01*
X99988276Y-75350734D01*
X99865140Y-75539207D01*
X99774703Y-75745385D01*
X99719436Y-75963628D01*
X99719434Y-75963640D01*
X99700844Y-76187994D01*
X99700844Y-76188005D01*
X99719434Y-76412359D01*
X99719436Y-76412371D01*
X99774703Y-76630614D01*
X99865140Y-76836792D01*
X99988276Y-77025265D01*
X99988284Y-77025276D01*
X100140756Y-77190902D01*
X100140760Y-77190906D01*
X100318424Y-77329189D01*
X100318425Y-77329189D01*
X100318427Y-77329191D01*
X100365516Y-77354674D01*
X100516426Y-77436342D01*
X100729365Y-77509444D01*
X100951431Y-77546500D01*
X101176569Y-77546500D01*
X101398635Y-77509444D01*
X101611574Y-77436342D01*
X101809576Y-77329189D01*
X101987240Y-77190906D01*
X102139722Y-77025268D01*
X102230193Y-76886790D01*
X102283338Y-76841437D01*
X102352569Y-76832013D01*
X102415905Y-76861515D01*
X102437804Y-76886787D01*
X102528278Y-77025268D01*
X102528283Y-77025273D01*
X102528284Y-77025276D01*
X102680756Y-77190902D01*
X102680760Y-77190906D01*
X102858424Y-77329189D01*
X102858426Y-77329190D01*
X102858433Y-77329195D01*
X102905516Y-77354674D01*
X102955107Y-77403892D01*
X102970500Y-77463729D01*
X102970500Y-78410172D01*
X102968761Y-78425919D01*
X102969032Y-78425945D01*
X102968297Y-78433712D01*
X102970469Y-78502796D01*
X102970500Y-78504744D01*
X102970500Y-78533665D01*
X102971384Y-78540662D01*
X102971842Y-78546485D01*
X102973326Y-78593695D01*
X102973327Y-78593697D01*
X102979022Y-78613301D01*
X102982967Y-78632348D01*
X102985526Y-78652603D01*
X102985527Y-78652606D01*
X102985528Y-78652609D01*
X103002914Y-78696522D01*
X103004806Y-78702050D01*
X103017981Y-78747398D01*
X103028372Y-78764968D01*
X103036932Y-78782441D01*
X103044447Y-78801423D01*
X103072209Y-78839633D01*
X103075416Y-78844516D01*
X103099458Y-78885168D01*
X103099462Y-78885172D01*
X103113889Y-78899599D01*
X103126526Y-78914394D01*
X103138528Y-78930913D01*
X103174931Y-78961028D01*
X103179231Y-78964941D01*
X127665568Y-103451279D01*
X135821953Y-111607664D01*
X135831857Y-111620025D01*
X135832067Y-111619852D01*
X135837038Y-111625860D01*
X135837041Y-111625865D01*
X135887459Y-111673210D01*
X135888768Y-111674479D01*
X135899033Y-111684744D01*
X135909266Y-111694978D01*
X135914854Y-111699313D01*
X135919286Y-111703099D01*
X135939984Y-111722534D01*
X135953721Y-111735434D01*
X135971603Y-111745264D01*
X135987870Y-111755949D01*
X136004001Y-111768462D01*
X136025879Y-111777928D01*
X136047348Y-111787218D01*
X136052574Y-111789778D01*
X136093981Y-111812542D01*
X136113757Y-111817619D01*
X136132164Y-111823921D01*
X136150896Y-111832028D01*
X136150899Y-111832028D01*
X136153767Y-111832862D01*
X136155754Y-111834131D01*
X136158058Y-111835128D01*
X136157897Y-111835499D01*
X136212656Y-111870463D01*
X136241867Y-111933933D01*
X136238957Y-111984034D01*
X136219315Y-112057339D01*
X136219313Y-112057350D01*
X136200884Y-112267998D01*
X136200884Y-112268001D01*
X136219313Y-112478649D01*
X136219315Y-112478660D01*
X136274041Y-112682902D01*
X136274043Y-112682906D01*
X136274044Y-112682910D01*
X136329643Y-112802142D01*
X136363410Y-112874556D01*
X136363411Y-112874558D01*
X136484700Y-113047778D01*
X136634220Y-113197298D01*
X136634223Y-113197300D01*
X136634224Y-113197301D01*
X136697623Y-113241693D01*
X136741248Y-113296267D01*
X136750500Y-113343267D01*
X136750500Y-113683717D01*
X136730815Y-113750756D01*
X136697623Y-113785292D01*
X136564222Y-113878699D01*
X136414700Y-114028221D01*
X136293411Y-114201441D01*
X136293410Y-114201443D01*
X136204045Y-114393088D01*
X136204041Y-114393097D01*
X136149315Y-114597339D01*
X136149313Y-114597350D01*
X136130884Y-114807998D01*
X136130884Y-114808001D01*
X136149313Y-115018649D01*
X136149315Y-115018660D01*
X136204041Y-115222902D01*
X136204043Y-115222906D01*
X136204044Y-115222910D01*
X136260922Y-115344885D01*
X136293410Y-115414556D01*
X136293411Y-115414558D01*
X136414700Y-115587778D01*
X136564221Y-115737299D01*
X136564224Y-115737301D01*
X136697624Y-115830708D01*
X136741248Y-115885283D01*
X136750500Y-115932282D01*
X136750500Y-116251724D01*
X136730815Y-116318763D01*
X136697625Y-116353298D01*
X136604224Y-116418699D01*
X136454697Y-116568225D01*
X136333411Y-116741441D01*
X136333410Y-116741443D01*
X136244045Y-116933088D01*
X136244041Y-116933097D01*
X136189315Y-117137339D01*
X136189313Y-117137350D01*
X136170884Y-117347998D01*
X136170884Y-117348001D01*
X136189313Y-117558649D01*
X136189315Y-117558659D01*
X136189409Y-117559009D01*
X136189405Y-117559169D01*
X136190255Y-117563989D01*
X136189286Y-117564159D01*
X136187744Y-117628858D01*
X136157314Y-117678780D01*
X135172262Y-118663833D01*
X135110939Y-118697318D01*
X135084581Y-118700152D01*
X130283182Y-118700152D01*
X130216143Y-118680467D01*
X130170388Y-118627663D01*
X130160444Y-118558505D01*
X130189469Y-118494949D01*
X130230777Y-118463770D01*
X130235229Y-118461694D01*
X130370558Y-118398589D01*
X130543776Y-118277301D01*
X130693301Y-118127776D01*
X130814589Y-117954558D01*
X130903956Y-117762910D01*
X130958686Y-117558655D01*
X130977116Y-117348000D01*
X130958686Y-117137345D01*
X130915031Y-116974424D01*
X130903958Y-116933097D01*
X130903957Y-116933096D01*
X130903956Y-116933090D01*
X130814589Y-116741442D01*
X130693301Y-116568224D01*
X130693299Y-116568221D01*
X130543778Y-116418700D01*
X130370558Y-116297411D01*
X130370556Y-116297410D01*
X130349071Y-116287391D01*
X130178910Y-116208044D01*
X130178906Y-116208043D01*
X130178902Y-116208041D01*
X130120586Y-116192416D01*
X130060925Y-116156051D01*
X130030396Y-116093204D01*
X130038691Y-116023829D01*
X130083176Y-115969951D01*
X130120587Y-115952866D01*
X130138900Y-115947959D01*
X130138901Y-115947958D01*
X130138910Y-115947956D01*
X130330558Y-115858589D01*
X130503776Y-115737301D01*
X130653301Y-115587776D01*
X130774589Y-115414558D01*
X130863956Y-115222910D01*
X130918686Y-115018655D01*
X130937116Y-114808000D01*
X130918686Y-114597345D01*
X130863956Y-114393090D01*
X130774589Y-114201442D01*
X130653301Y-114028224D01*
X130653299Y-114028221D01*
X130503778Y-113878700D01*
X130330558Y-113757411D01*
X130330556Y-113757410D01*
X130260319Y-113724658D01*
X130138910Y-113668044D01*
X130138906Y-113668043D01*
X130138902Y-113668041D01*
X130135586Y-113667153D01*
X130134287Y-113666361D01*
X130133816Y-113666190D01*
X130133850Y-113666095D01*
X130075925Y-113630788D01*
X130045396Y-113567941D01*
X130053691Y-113498566D01*
X130098176Y-113444688D01*
X130135586Y-113427603D01*
X130208910Y-113407956D01*
X130400558Y-113318589D01*
X130573776Y-113197301D01*
X130723301Y-113047776D01*
X130844589Y-112874558D01*
X130933956Y-112682910D01*
X130988686Y-112478655D01*
X131007116Y-112268000D01*
X130988686Y-112057345D01*
X130933956Y-111853090D01*
X130844589Y-111661442D01*
X130749440Y-111525555D01*
X130723299Y-111488221D01*
X130573778Y-111338700D01*
X130400558Y-111217411D01*
X130400556Y-111217410D01*
X130280504Y-111161429D01*
X130208910Y-111128044D01*
X130208906Y-111128043D01*
X130208902Y-111128041D01*
X130004660Y-111073315D01*
X130004656Y-111073314D01*
X130004655Y-111073314D01*
X130004654Y-111073313D01*
X130004649Y-111073313D01*
X129794002Y-111054884D01*
X129793999Y-111054884D01*
X129583350Y-111073313D01*
X129583330Y-111073317D01*
X129582973Y-111073413D01*
X129582809Y-111073409D01*
X129578012Y-111074255D01*
X129577841Y-111073290D01*
X129513124Y-111071739D01*
X129463218Y-111041314D01*
X129262585Y-110840681D01*
X129007315Y-110585410D01*
X128997418Y-110573054D01*
X128997208Y-110573229D01*
X128992233Y-110567217D01*
X128992231Y-110567213D01*
X128941852Y-110519904D01*
X128940484Y-110518579D01*
X128920001Y-110498096D01*
X128920000Y-110498095D01*
X128919998Y-110498093D01*
X128917481Y-110496141D01*
X128914414Y-110493762D01*
X128909981Y-110489975D01*
X128875552Y-110457645D01*
X128875550Y-110457643D01*
X128857662Y-110447809D01*
X128841401Y-110437128D01*
X128825270Y-110424615D01*
X128781924Y-110405858D01*
X128776676Y-110403287D01*
X128749482Y-110388337D01*
X128735291Y-110380536D01*
X128731891Y-110379663D01*
X128715518Y-110375459D01*
X128697112Y-110369157D01*
X128678375Y-110361049D01*
X128678377Y-110361049D01*
X128631727Y-110353661D01*
X128626012Y-110352477D01*
X128605843Y-110347299D01*
X128580263Y-110340731D01*
X128580261Y-110340731D01*
X128559847Y-110340731D01*
X128540448Y-110339204D01*
X128520289Y-110336011D01*
X128520288Y-110336011D01*
X128473265Y-110340456D01*
X128467427Y-110340731D01*
X106351060Y-110340731D01*
X106284021Y-110321046D01*
X106249487Y-110287857D01*
X106138906Y-110129931D01*
X105977008Y-109968033D01*
X105819081Y-109857451D01*
X105775458Y-109802875D01*
X105766208Y-109755883D01*
X105766208Y-108772338D01*
X105767946Y-108756589D01*
X105767676Y-108756564D01*
X105768410Y-108748801D01*
X105766239Y-108679715D01*
X105766208Y-108677767D01*
X105766208Y-108648854D01*
X105765323Y-108641855D01*
X105764864Y-108636022D01*
X105763381Y-108588818D01*
X105763380Y-108588816D01*
X105757685Y-108569216D01*
X105753740Y-108550165D01*
X105751182Y-108529911D01*
X105733792Y-108485992D01*
X105731901Y-108480465D01*
X105718726Y-108435116D01*
X105718726Y-108435115D01*
X105708332Y-108417540D01*
X105699772Y-108400064D01*
X105692262Y-108381096D01*
X105692262Y-108381095D01*
X105692261Y-108381093D01*
X105692260Y-108381091D01*
X105664497Y-108342879D01*
X105661295Y-108338005D01*
X105644217Y-108309126D01*
X105637252Y-108297348D01*
X105637247Y-108297342D01*
X105622814Y-108282909D01*
X105610177Y-108268114D01*
X105598179Y-108251600D01*
X105561792Y-108221498D01*
X105557470Y-108217565D01*
X94276303Y-96936397D01*
X94242818Y-96875074D01*
X94239984Y-96848716D01*
X94239984Y-86578044D01*
X94259669Y-86511005D01*
X94312473Y-86465250D01*
X94381631Y-86455306D01*
X94435106Y-86476468D01*
X95092836Y-86937016D01*
X95146181Y-86966420D01*
X95287717Y-87003143D01*
X95392411Y-86999819D01*
X95460039Y-87017367D01*
X95507446Y-87068692D01*
X95520343Y-87123757D01*
X95520343Y-89466209D01*
X95518604Y-89481956D01*
X95518875Y-89481982D01*
X95518140Y-89489749D01*
X95520312Y-89558833D01*
X95520343Y-89560781D01*
X95520343Y-89589699D01*
X95521227Y-89596699D01*
X95521685Y-89602522D01*
X95523169Y-89649732D01*
X95523170Y-89649734D01*
X95528865Y-89669338D01*
X95532810Y-89688385D01*
X95535369Y-89708640D01*
X95535370Y-89708643D01*
X95535371Y-89708646D01*
X95552757Y-89752559D01*
X95554649Y-89758087D01*
X95567824Y-89803435D01*
X95567825Y-89803436D01*
X95577875Y-89820431D01*
X95578215Y-89821005D01*
X95586775Y-89838478D01*
X95594290Y-89857460D01*
X95622052Y-89895670D01*
X95625259Y-89900553D01*
X95649301Y-89941205D01*
X95649305Y-89941209D01*
X95663732Y-89955636D01*
X95676370Y-89970432D01*
X95688371Y-89986950D01*
X95688373Y-89986952D01*
X95693600Y-89991276D01*
X95724774Y-90017065D01*
X95729074Y-90020978D01*
X97363268Y-91655172D01*
X98759728Y-93051632D01*
X98769634Y-93063996D01*
X98769844Y-93063823D01*
X98774818Y-93069836D01*
X98825220Y-93117166D01*
X98826594Y-93118498D01*
X98847048Y-93138952D01*
X98852620Y-93143274D01*
X98857060Y-93147067D01*
X98891496Y-93179404D01*
X98909385Y-93189238D01*
X98925649Y-93199921D01*
X98941777Y-93212431D01*
X98954646Y-93218000D01*
X98985116Y-93231185D01*
X98990363Y-93233755D01*
X99031758Y-93256513D01*
X99051536Y-93261591D01*
X99069939Y-93267892D01*
X99088670Y-93275998D01*
X99088671Y-93275998D01*
X99088673Y-93275999D01*
X99116068Y-93280337D01*
X99135315Y-93283386D01*
X99141031Y-93284569D01*
X99186788Y-93296318D01*
X99207208Y-93296318D01*
X99226607Y-93297845D01*
X99246759Y-93301036D01*
X99246760Y-93301037D01*
X99246760Y-93301036D01*
X99246761Y-93301037D01*
X99293776Y-93296593D01*
X99299614Y-93296318D01*
X104333076Y-93296318D01*
X104400115Y-93316003D01*
X104434648Y-93349191D01*
X104545230Y-93507118D01*
X104707128Y-93669016D01*
X104894679Y-93800341D01*
X104983767Y-93841883D01*
X105102178Y-93897099D01*
X105102180Y-93897099D01*
X105102185Y-93897102D01*
X105323341Y-93956361D01*
X105484482Y-93970459D01*
X105551426Y-93976316D01*
X105551428Y-93976316D01*
X105551430Y-93976316D01*
X105618374Y-93970459D01*
X105779515Y-93956361D01*
X106000671Y-93897102D01*
X106157752Y-93823854D01*
X106226825Y-93813363D01*
X106290609Y-93841883D01*
X106328849Y-93900359D01*
X106333681Y-93947044D01*
X106318576Y-94119699D01*
X106318576Y-94119703D01*
X106338530Y-94347783D01*
X106338531Y-94347791D01*
X106397788Y-94568940D01*
X106397792Y-94568951D01*
X106494549Y-94776447D01*
X106494551Y-94776451D01*
X106625876Y-94964002D01*
X106787774Y-95125900D01*
X106975325Y-95257225D01*
X107064413Y-95298767D01*
X107182824Y-95353983D01*
X107182826Y-95353983D01*
X107182831Y-95353986D01*
X107403987Y-95413245D01*
X107566906Y-95427498D01*
X107632072Y-95433200D01*
X107632074Y-95433200D01*
X107632076Y-95433200D01*
X107689095Y-95428211D01*
X107860161Y-95413245D01*
X108081317Y-95353986D01*
X108238398Y-95280738D01*
X108307471Y-95270247D01*
X108371255Y-95298767D01*
X108409495Y-95357243D01*
X108414327Y-95403928D01*
X108399222Y-95576583D01*
X108399222Y-95576587D01*
X108419176Y-95804667D01*
X108419177Y-95804675D01*
X108478434Y-96025824D01*
X108478438Y-96025835D01*
X108575195Y-96233331D01*
X108575197Y-96233335D01*
X108706522Y-96420886D01*
X108868420Y-96582784D01*
X109055971Y-96714109D01*
X109136985Y-96751886D01*
X109263470Y-96810867D01*
X109263472Y-96810867D01*
X109263477Y-96810870D01*
X109484633Y-96870129D01*
X109647552Y-96884382D01*
X109712718Y-96890084D01*
X109712720Y-96890084D01*
X109712722Y-96890084D01*
X109769741Y-96885095D01*
X109940807Y-96870129D01*
X110161963Y-96810870D01*
X110319043Y-96737622D01*
X110388119Y-96727131D01*
X110451903Y-96755651D01*
X110490142Y-96814127D01*
X110494974Y-96860812D01*
X110479869Y-97033467D01*
X110479869Y-97033471D01*
X110499823Y-97261551D01*
X110499824Y-97261559D01*
X110559081Y-97482708D01*
X110559085Y-97482719D01*
X110642452Y-97661500D01*
X110655844Y-97690219D01*
X110787169Y-97877770D01*
X110949067Y-98039668D01*
X111136618Y-98170993D01*
X111225706Y-98212535D01*
X111344117Y-98267751D01*
X111344119Y-98267751D01*
X111344124Y-98267754D01*
X111565280Y-98327013D01*
X111728199Y-98341266D01*
X111793365Y-98346968D01*
X111793367Y-98346968D01*
X111793369Y-98346968D01*
X111850388Y-98341979D01*
X112021454Y-98327013D01*
X112242610Y-98267754D01*
X112399691Y-98194506D01*
X112468764Y-98184015D01*
X112532548Y-98212535D01*
X112570788Y-98271011D01*
X112575620Y-98317696D01*
X112560515Y-98490351D01*
X112560515Y-98490355D01*
X112580469Y-98718435D01*
X112580470Y-98718443D01*
X112639727Y-98939592D01*
X112639731Y-98939603D01*
X112720277Y-99112334D01*
X112736490Y-99147103D01*
X112867815Y-99334654D01*
X113029713Y-99496552D01*
X113217264Y-99627877D01*
X113306352Y-99669419D01*
X113424763Y-99724635D01*
X113424765Y-99724635D01*
X113424770Y-99724638D01*
X113645926Y-99783897D01*
X113808845Y-99798150D01*
X113874011Y-99803852D01*
X113874013Y-99803852D01*
X113874015Y-99803852D01*
X113931034Y-99798863D01*
X114102100Y-99783897D01*
X114323256Y-99724638D01*
X114480337Y-99651390D01*
X114549410Y-99640899D01*
X114613194Y-99669419D01*
X114651434Y-99727895D01*
X114656266Y-99774580D01*
X114641161Y-99947235D01*
X114641161Y-99947239D01*
X114661115Y-100175319D01*
X114661116Y-100175327D01*
X114720373Y-100396476D01*
X114720377Y-100396487D01*
X114808754Y-100586011D01*
X114817136Y-100603987D01*
X114948461Y-100791538D01*
X115110359Y-100953436D01*
X115297910Y-101084761D01*
X115348480Y-101108342D01*
X115505409Y-101181519D01*
X115505411Y-101181519D01*
X115505416Y-101181522D01*
X115726572Y-101240781D01*
X115889491Y-101255034D01*
X115954657Y-101260736D01*
X115954659Y-101260736D01*
X115954661Y-101260736D01*
X116011680Y-101255747D01*
X116182746Y-101240781D01*
X116403902Y-101181522D01*
X116560983Y-101108274D01*
X116630056Y-101097783D01*
X116693840Y-101126303D01*
X116732080Y-101184779D01*
X116736912Y-101231464D01*
X116721807Y-101404120D01*
X116721807Y-101404124D01*
X116741761Y-101632204D01*
X116741762Y-101632212D01*
X116801019Y-101853361D01*
X116801023Y-101853372D01*
X116897500Y-102060268D01*
X116897782Y-102060872D01*
X117029107Y-102248423D01*
X117191005Y-102410321D01*
X117378556Y-102541646D01*
X117499653Y-102598114D01*
X117586055Y-102638404D01*
X117586057Y-102638404D01*
X117586062Y-102638407D01*
X117807218Y-102697666D01*
X117970137Y-102711919D01*
X118035303Y-102717621D01*
X118035305Y-102717621D01*
X118035307Y-102717621D01*
X118092326Y-102712632D01*
X118263392Y-102697666D01*
X118484548Y-102638407D01*
X118641629Y-102565159D01*
X118710702Y-102554668D01*
X118774486Y-102583188D01*
X118812726Y-102641664D01*
X118817558Y-102688349D01*
X118802453Y-102861004D01*
X118802453Y-102861008D01*
X118822407Y-103089088D01*
X118822408Y-103089096D01*
X118881665Y-103310245D01*
X118881669Y-103310256D01*
X118978426Y-103517752D01*
X118978428Y-103517756D01*
X119109753Y-103705307D01*
X119271651Y-103867205D01*
X119459202Y-103998530D01*
X119548290Y-104040072D01*
X119666701Y-104095288D01*
X119666703Y-104095288D01*
X119666708Y-104095291D01*
X119887864Y-104154550D01*
X120050783Y-104168803D01*
X120115949Y-104174505D01*
X120115951Y-104174505D01*
X120115953Y-104174505D01*
X120172972Y-104169516D01*
X120344038Y-104154550D01*
X120565194Y-104095291D01*
X120722274Y-104022043D01*
X120791350Y-104011552D01*
X120855134Y-104040072D01*
X120893373Y-104098548D01*
X120898205Y-104145233D01*
X120883100Y-104317888D01*
X120883100Y-104317892D01*
X120903054Y-104545972D01*
X120903055Y-104545980D01*
X120962312Y-104767129D01*
X120962316Y-104767140D01*
X121058794Y-104974037D01*
X121059075Y-104974640D01*
X121190400Y-105162191D01*
X121352298Y-105324089D01*
X121539849Y-105455414D01*
X121628937Y-105496956D01*
X121747348Y-105552172D01*
X121747350Y-105552172D01*
X121747355Y-105552175D01*
X121968511Y-105611434D01*
X122131430Y-105625687D01*
X122196596Y-105631389D01*
X122196598Y-105631389D01*
X122196600Y-105631389D01*
X122253619Y-105626400D01*
X122424685Y-105611434D01*
X122645841Y-105552175D01*
X122802922Y-105478927D01*
X122871995Y-105468436D01*
X122935779Y-105496956D01*
X122974019Y-105555432D01*
X122978851Y-105602117D01*
X122963746Y-105774772D01*
X122963746Y-105774776D01*
X122983700Y-106002856D01*
X122983701Y-106002864D01*
X123042958Y-106224013D01*
X123042962Y-106224024D01*
X123116152Y-106380980D01*
X123139721Y-106431524D01*
X123271046Y-106619075D01*
X123432944Y-106780973D01*
X123620495Y-106912298D01*
X123745335Y-106970511D01*
X123827994Y-107009056D01*
X123827996Y-107009056D01*
X123828001Y-107009059D01*
X124049157Y-107068318D01*
X124212076Y-107082571D01*
X124277242Y-107088273D01*
X124277244Y-107088273D01*
X124277246Y-107088273D01*
X124334265Y-107083284D01*
X124505331Y-107068318D01*
X124726487Y-107009059D01*
X124933993Y-106912298D01*
X125121544Y-106780973D01*
X125283442Y-106619075D01*
X125414767Y-106431524D01*
X125511528Y-106224018D01*
X125570787Y-106002862D01*
X125590742Y-105774775D01*
X125570787Y-105546688D01*
X125511528Y-105325532D01*
X125508465Y-105318964D01*
X125428135Y-105146695D01*
X125414767Y-105118026D01*
X125283442Y-104930475D01*
X125121544Y-104768577D01*
X124933993Y-104637252D01*
X124883565Y-104613737D01*
X124726493Y-104540493D01*
X124726482Y-104540489D01*
X124505333Y-104481232D01*
X124505325Y-104481231D01*
X124277246Y-104461277D01*
X124277242Y-104461277D01*
X124049162Y-104481231D01*
X124049154Y-104481232D01*
X123828005Y-104540489D01*
X123827994Y-104540493D01*
X123670922Y-104613737D01*
X123601845Y-104624229D01*
X123538061Y-104595709D01*
X123499822Y-104537232D01*
X123494990Y-104490550D01*
X123510096Y-104317891D01*
X123490141Y-104089804D01*
X123430882Y-103868648D01*
X123427818Y-103862078D01*
X123347489Y-103689811D01*
X123334121Y-103661142D01*
X123202796Y-103473591D01*
X123040898Y-103311693D01*
X122853347Y-103180368D01*
X122853343Y-103180366D01*
X122645847Y-103083609D01*
X122645836Y-103083605D01*
X122424687Y-103024348D01*
X122424679Y-103024347D01*
X122196600Y-103004393D01*
X122196596Y-103004393D01*
X121968516Y-103024347D01*
X121968508Y-103024348D01*
X121747359Y-103083605D01*
X121747357Y-103083606D01*
X121590275Y-103156854D01*
X121521197Y-103167345D01*
X121457414Y-103138825D01*
X121419175Y-103080348D01*
X121414343Y-103033666D01*
X121429449Y-102861007D01*
X121409494Y-102632920D01*
X121350235Y-102411764D01*
X121347172Y-102405196D01*
X121274068Y-102248423D01*
X121253474Y-102204258D01*
X121122149Y-102016707D01*
X120960251Y-101854809D01*
X120772700Y-101723484D01*
X120772696Y-101723482D01*
X120565200Y-101626725D01*
X120565189Y-101626721D01*
X120344040Y-101567464D01*
X120344032Y-101567463D01*
X120115953Y-101547509D01*
X120115949Y-101547509D01*
X119887869Y-101567463D01*
X119887861Y-101567464D01*
X119666712Y-101626721D01*
X119666701Y-101626725D01*
X119509629Y-101699969D01*
X119440552Y-101710461D01*
X119376768Y-101681941D01*
X119338529Y-101623464D01*
X119333697Y-101576782D01*
X119348803Y-101404123D01*
X119328848Y-101176036D01*
X119269589Y-100954880D01*
X119268913Y-100953431D01*
X119231041Y-100872214D01*
X119172828Y-100747374D01*
X119041503Y-100559823D01*
X118879605Y-100397925D01*
X118692054Y-100266600D01*
X118692050Y-100266598D01*
X118484554Y-100169841D01*
X118484543Y-100169837D01*
X118263394Y-100110580D01*
X118263386Y-100110579D01*
X118035307Y-100090625D01*
X118035303Y-100090625D01*
X117807223Y-100110579D01*
X117807215Y-100110580D01*
X117586066Y-100169837D01*
X117586055Y-100169841D01*
X117428983Y-100243085D01*
X117359906Y-100253577D01*
X117296122Y-100225057D01*
X117257883Y-100166580D01*
X117253051Y-100119895D01*
X117253104Y-100119296D01*
X117268157Y-99947238D01*
X117264628Y-99906907D01*
X117254932Y-99796081D01*
X117248202Y-99719151D01*
X117188943Y-99497995D01*
X117185880Y-99491427D01*
X117115231Y-99339918D01*
X117092182Y-99290489D01*
X116960857Y-99102938D01*
X116798959Y-98941040D01*
X116611408Y-98809715D01*
X116560980Y-98786200D01*
X116403908Y-98712956D01*
X116403897Y-98712952D01*
X116182748Y-98653695D01*
X116182740Y-98653694D01*
X115954661Y-98633740D01*
X115954657Y-98633740D01*
X115726577Y-98653694D01*
X115726569Y-98653695D01*
X115505420Y-98712952D01*
X115505409Y-98712956D01*
X115348337Y-98786200D01*
X115279260Y-98796692D01*
X115215476Y-98768172D01*
X115177237Y-98709695D01*
X115172405Y-98663013D01*
X115187511Y-98490354D01*
X115167556Y-98262267D01*
X115108297Y-98041111D01*
X115105234Y-98034543D01*
X115031790Y-97877040D01*
X115011536Y-97833605D01*
X114880211Y-97646054D01*
X114718313Y-97484156D01*
X114530762Y-97352831D01*
X114480334Y-97329316D01*
X114323262Y-97256072D01*
X114323251Y-97256068D01*
X114102102Y-97196811D01*
X114102094Y-97196810D01*
X113874015Y-97176856D01*
X113874011Y-97176856D01*
X113645931Y-97196810D01*
X113645923Y-97196811D01*
X113424774Y-97256068D01*
X113424763Y-97256072D01*
X113267691Y-97329316D01*
X113198614Y-97339808D01*
X113134830Y-97311288D01*
X113096591Y-97252811D01*
X113091759Y-97206129D01*
X113106865Y-97033470D01*
X113106386Y-97028000D01*
X113093007Y-96875074D01*
X113086910Y-96805383D01*
X113027651Y-96584227D01*
X113025100Y-96578757D01*
X112969766Y-96460092D01*
X112930890Y-96376721D01*
X112799565Y-96189170D01*
X112637667Y-96027272D01*
X112450116Y-95895947D01*
X112450112Y-95895945D01*
X112242616Y-95799188D01*
X112242605Y-95799184D01*
X112021456Y-95739927D01*
X112021448Y-95739926D01*
X111793369Y-95719972D01*
X111793365Y-95719972D01*
X111565285Y-95739926D01*
X111565277Y-95739927D01*
X111344128Y-95799184D01*
X111344126Y-95799185D01*
X111187044Y-95872433D01*
X111117966Y-95882924D01*
X111054183Y-95854404D01*
X111015944Y-95795927D01*
X111011112Y-95749245D01*
X111026218Y-95576586D01*
X111006263Y-95348499D01*
X110947004Y-95127343D01*
X110946479Y-95126218D01*
X110861361Y-94943680D01*
X110850243Y-94919837D01*
X110718918Y-94732286D01*
X110557020Y-94570388D01*
X110369469Y-94439063D01*
X110369465Y-94439061D01*
X110161969Y-94342304D01*
X110161958Y-94342300D01*
X109940809Y-94283043D01*
X109940801Y-94283042D01*
X109712722Y-94263088D01*
X109712718Y-94263088D01*
X109484638Y-94283042D01*
X109484630Y-94283043D01*
X109263481Y-94342300D01*
X109263470Y-94342304D01*
X109106398Y-94415548D01*
X109037321Y-94426040D01*
X108973537Y-94397520D01*
X108935298Y-94339043D01*
X108930466Y-94292361D01*
X108945572Y-94119702D01*
X108925617Y-93891615D01*
X108866358Y-93670459D01*
X108863295Y-93663891D01*
X108769598Y-93462956D01*
X108769597Y-93462954D01*
X108769597Y-93462953D01*
X108638272Y-93275402D01*
X108476374Y-93113504D01*
X108288823Y-92982179D01*
X108274307Y-92975410D01*
X108081323Y-92885420D01*
X108081312Y-92885416D01*
X107860163Y-92826159D01*
X107860155Y-92826158D01*
X107632076Y-92806204D01*
X107632072Y-92806204D01*
X107403992Y-92826158D01*
X107403984Y-92826159D01*
X107182835Y-92885416D01*
X107182824Y-92885420D01*
X107025752Y-92958664D01*
X106956675Y-92969156D01*
X106892891Y-92940636D01*
X106854652Y-92882159D01*
X106849820Y-92835477D01*
X106864926Y-92662818D01*
X106861091Y-92618989D01*
X106854230Y-92540567D01*
X106844971Y-92434731D01*
X106785712Y-92213575D01*
X106768234Y-92176094D01*
X106699792Y-92029318D01*
X106688951Y-92006069D01*
X106557626Y-91818518D01*
X106395728Y-91656620D01*
X106208177Y-91525295D01*
X106157749Y-91501780D01*
X106000677Y-91428536D01*
X106000666Y-91428532D01*
X105779517Y-91369275D01*
X105779509Y-91369274D01*
X105551430Y-91349320D01*
X105551426Y-91349320D01*
X105323346Y-91369274D01*
X105323338Y-91369275D01*
X105102189Y-91428532D01*
X105102178Y-91428536D01*
X104945106Y-91501780D01*
X104876029Y-91512272D01*
X104812245Y-91483752D01*
X104774006Y-91425275D01*
X104769174Y-91378593D01*
X104784280Y-91205934D01*
X104764325Y-90977847D01*
X104705066Y-90756691D01*
X104608305Y-90549185D01*
X104476980Y-90361634D01*
X104315082Y-90199736D01*
X104127531Y-90068411D01*
X104119678Y-90064749D01*
X103920031Y-89971652D01*
X103920020Y-89971648D01*
X103698871Y-89912391D01*
X103698863Y-89912390D01*
X103470784Y-89892436D01*
X103470780Y-89892436D01*
X103242700Y-89912390D01*
X103242692Y-89912391D01*
X103021543Y-89971648D01*
X103021541Y-89971649D01*
X102855565Y-90049044D01*
X102786487Y-90059535D01*
X102722704Y-90031015D01*
X102684464Y-89972538D01*
X102679633Y-89925853D01*
X102695102Y-89749049D01*
X102695102Y-89749046D01*
X102675277Y-89522449D01*
X102675275Y-89522438D01*
X102616405Y-89302731D01*
X102616401Y-89302722D01*
X102520270Y-89096566D01*
X102389796Y-88910232D01*
X102326790Y-88847226D01*
X101776713Y-89632817D01*
X101775301Y-89623901D01*
X101717777Y-89511004D01*
X101628181Y-89421408D01*
X101515284Y-89363884D01*
X101421617Y-89349049D01*
X101365025Y-89349049D01*
X101917214Y-88560438D01*
X101917214Y-88560437D01*
X101836467Y-88522784D01*
X101836453Y-88522779D01*
X101616746Y-88463909D01*
X101616735Y-88463907D01*
X101390138Y-88444083D01*
X101390134Y-88444083D01*
X101163536Y-88463907D01*
X101163525Y-88463909D01*
X100943818Y-88522779D01*
X100943804Y-88522784D01*
X100782958Y-88597788D01*
X100713881Y-88608280D01*
X100650097Y-88579760D01*
X100611858Y-88521283D01*
X100607026Y-88474599D01*
X100607962Y-88463907D01*
X100622987Y-88292165D01*
X100621089Y-88270476D01*
X100612298Y-88169987D01*
X100603032Y-88064078D01*
X100543773Y-87842922D01*
X100540710Y-87836354D01*
X100479966Y-87706086D01*
X100447012Y-87635416D01*
X100315687Y-87447865D01*
X100153789Y-87285967D01*
X99966238Y-87154642D01*
X99915810Y-87131127D01*
X99758738Y-87057883D01*
X99758727Y-87057879D01*
X99537578Y-86998622D01*
X99537570Y-86998621D01*
X99309491Y-86978667D01*
X99309487Y-86978667D01*
X99081407Y-86998621D01*
X99081399Y-86998622D01*
X98860250Y-87057879D01*
X98860239Y-87057883D01*
X98703167Y-87131127D01*
X98634090Y-87141619D01*
X98570306Y-87113099D01*
X98532067Y-87054622D01*
X98527235Y-87007940D01*
X98542341Y-86835281D01*
X98541340Y-86823844D01*
X98525249Y-86639918D01*
X98522386Y-86607194D01*
X98505083Y-86542622D01*
X98506747Y-86472772D01*
X98537176Y-86422850D01*
X102338932Y-82621094D01*
X102400253Y-82587611D01*
X102469945Y-82592595D01*
X102517840Y-82624793D01*
X102596923Y-82710699D01*
X102663489Y-82783008D01*
X102694412Y-82845661D01*
X102686552Y-82915088D01*
X102642406Y-82969244D01*
X102615596Y-82983172D01*
X102497794Y-83027111D01*
X102380739Y-83114739D01*
X102293111Y-83231795D01*
X102242011Y-83368795D01*
X102242011Y-83368797D01*
X102235500Y-83429345D01*
X102235500Y-85226654D01*
X102242011Y-85287202D01*
X102242011Y-85287204D01*
X102279905Y-85388799D01*
X102293111Y-85424204D01*
X102380739Y-85541261D01*
X102497796Y-85628889D01*
X102634799Y-85679989D01*
X102662050Y-85682918D01*
X102695345Y-85686499D01*
X102695362Y-85686500D01*
X104492638Y-85686500D01*
X104492654Y-85686499D01*
X104519692Y-85683591D01*
X104553201Y-85679989D01*
X104690204Y-85628889D01*
X104807261Y-85541261D01*
X104894889Y-85424204D01*
X104945989Y-85287201D01*
X104950203Y-85248001D01*
X104952499Y-85226654D01*
X104952500Y-85226637D01*
X104952500Y-83429362D01*
X104952499Y-83429345D01*
X104949032Y-83397104D01*
X104945989Y-83368799D01*
X104945877Y-83368500D01*
X104896834Y-83237011D01*
X104894889Y-83231796D01*
X104807261Y-83114739D01*
X104690204Y-83027111D01*
X104690203Y-83027110D01*
X104572404Y-82983172D01*
X104516471Y-82941300D01*
X104492055Y-82875835D01*
X104506908Y-82807562D01*
X104524504Y-82783014D01*
X104669722Y-82625268D01*
X104792860Y-82436791D01*
X104883296Y-82230616D01*
X104938564Y-82012368D01*
X104943069Y-81958000D01*
X104957156Y-81788005D01*
X104957156Y-81787994D01*
X104938565Y-81563640D01*
X104938563Y-81563628D01*
X104883296Y-81345385D01*
X104873270Y-81322528D01*
X104792860Y-81139209D01*
X104746718Y-81068584D01*
X104669723Y-80950734D01*
X104669715Y-80950723D01*
X104517243Y-80785097D01*
X104517238Y-80785092D01*
X104349804Y-80654772D01*
X104339576Y-80646811D01*
X104339575Y-80646810D01*
X104339572Y-80646808D01*
X104141580Y-80539661D01*
X104141577Y-80539659D01*
X104141574Y-80539658D01*
X104141571Y-80539657D01*
X104141569Y-80539656D01*
X103928637Y-80466556D01*
X103706569Y-80429500D01*
X103481431Y-80429500D01*
X103259362Y-80466556D01*
X103046430Y-80539656D01*
X103046419Y-80539661D01*
X102848427Y-80646808D01*
X102848422Y-80646812D01*
X102670761Y-80785092D01*
X102670756Y-80785097D01*
X102518284Y-80950723D01*
X102518276Y-80950734D01*
X102422981Y-81096594D01*
X102369835Y-81141951D01*
X102323070Y-81152711D01*
X102267134Y-81154469D01*
X102265185Y-81154500D01*
X102236261Y-81154500D01*
X102229267Y-81155384D01*
X102223444Y-81155842D01*
X102176235Y-81157326D01*
X102176232Y-81157327D01*
X102156629Y-81163022D01*
X102137583Y-81166966D01*
X102117327Y-81169526D01*
X102117325Y-81169526D01*
X102117323Y-81169527D01*
X102073406Y-81186914D01*
X102067880Y-81188806D01*
X102022530Y-81201982D01*
X102004957Y-81212374D01*
X101987494Y-81220929D01*
X101968509Y-81228446D01*
X101968507Y-81228447D01*
X101930303Y-81256204D01*
X101925420Y-81259412D01*
X101884761Y-81283458D01*
X101870320Y-81297898D01*
X101855532Y-81310527D01*
X101839021Y-81322523D01*
X101839016Y-81322528D01*
X101808914Y-81358914D01*
X101804982Y-81363236D01*
X97641272Y-85526945D01*
X97579949Y-85560430D01*
X97521498Y-85559039D01*
X97456930Y-85541738D01*
X97456929Y-85541737D01*
X97456925Y-85541737D01*
X97284072Y-85526614D01*
X97219003Y-85501161D01*
X97178025Y-85444570D01*
X97170880Y-85403086D01*
X97170880Y-85151654D01*
X97172618Y-85135909D01*
X97172347Y-85135884D01*
X97173081Y-85128121D01*
X97170911Y-85059054D01*
X97170880Y-85057106D01*
X97170880Y-85028178D01*
X97170880Y-85028172D01*
X97169995Y-85021168D01*
X97169536Y-85015339D01*
X97168053Y-84968137D01*
X97162359Y-84948542D01*
X97158412Y-84929485D01*
X97155854Y-84909231D01*
X97138468Y-84865319D01*
X97136576Y-84859792D01*
X97131146Y-84841102D01*
X97123398Y-84814434D01*
X97113005Y-84796861D01*
X97104443Y-84779383D01*
X97096932Y-84760411D01*
X97096930Y-84760408D01*
X97096929Y-84760406D01*
X97069174Y-84722205D01*
X97065966Y-84717321D01*
X97058013Y-84703875D01*
X97041922Y-84676665D01*
X97027488Y-84662231D01*
X97014849Y-84647434D01*
X97002851Y-84630920D01*
X96966464Y-84600818D01*
X96962142Y-84596885D01*
X94676303Y-82311046D01*
X94642818Y-82249723D01*
X94639984Y-82223365D01*
X94639984Y-80001491D01*
X94659669Y-79934452D01*
X94712473Y-79888697D01*
X94781631Y-79878753D01*
X94845187Y-79907778D01*
X94865559Y-79930368D01*
X94988881Y-80106491D01*
X94988886Y-80106497D01*
X95153502Y-80271113D01*
X95153508Y-80271118D01*
X95344207Y-80404647D01*
X95344209Y-80404648D01*
X95555204Y-80503037D01*
X95555210Y-80503038D01*
X95555211Y-80503039D01*
X95586602Y-80511450D01*
X95780079Y-80563292D01*
X95974682Y-80580317D01*
X96011998Y-80583582D01*
X96012000Y-80583582D01*
X96012002Y-80583582D01*
X96042061Y-80580951D01*
X96243921Y-80563292D01*
X96468796Y-80503037D01*
X96679791Y-80404648D01*
X96870496Y-80271115D01*
X97035115Y-80106496D01*
X97168648Y-79915791D01*
X97267037Y-79704796D01*
X97327292Y-79479921D01*
X97347582Y-79248000D01*
X97327292Y-79016079D01*
X97280647Y-78841997D01*
X97267039Y-78791211D01*
X97267038Y-78791210D01*
X97267037Y-78791204D01*
X97168648Y-78580209D01*
X97145034Y-78546485D01*
X97035118Y-78389508D01*
X97035113Y-78389502D01*
X96870497Y-78224886D01*
X96870491Y-78224881D01*
X96679792Y-78091352D01*
X96679790Y-78091351D01*
X96566450Y-78038500D01*
X96468796Y-77992963D01*
X96468792Y-77992962D01*
X96468788Y-77992960D01*
X96243921Y-77932708D01*
X96012002Y-77912418D01*
X96011998Y-77912418D01*
X95857386Y-77925944D01*
X95780079Y-77932708D01*
X95780076Y-77932708D01*
X95555211Y-77992960D01*
X95555202Y-77992964D01*
X95344209Y-78091351D01*
X95344207Y-78091352D01*
X95153508Y-78224881D01*
X95153502Y-78224886D01*
X94988885Y-78389503D01*
X94865559Y-78565632D01*
X94810982Y-78609256D01*
X94741483Y-78616449D01*
X94679129Y-78584927D01*
X94643715Y-78524697D01*
X94639984Y-78494508D01*
X94639984Y-77445597D01*
X94659669Y-77378558D01*
X94676298Y-77357921D01*
X95209792Y-76824428D01*
X95209792Y-76824427D01*
X99541482Y-72492736D01*
X99602803Y-72459253D01*
X99672495Y-72464237D01*
G37*
G04 #@! TD.AperFunction*
G04 #@! TA.AperFunction,Conductor*
G36*
X142612687Y-97681185D02*
G01*
X142647220Y-97714373D01*
X142757802Y-97872300D01*
X142919700Y-98034198D01*
X143090385Y-98153713D01*
X143107251Y-98165523D01*
X143150345Y-98185618D01*
X143202784Y-98231791D01*
X143221936Y-98298984D01*
X143201720Y-98365865D01*
X143150345Y-98410382D01*
X143107251Y-98430476D01*
X142982126Y-98518090D01*
X142919700Y-98561802D01*
X142919698Y-98561803D01*
X142919695Y-98561806D01*
X142757806Y-98723695D01*
X142757803Y-98723698D01*
X142757802Y-98723700D01*
X142675767Y-98840856D01*
X142626476Y-98911252D01*
X142626475Y-98911254D01*
X142529718Y-99118750D01*
X142529714Y-99118761D01*
X142470457Y-99339910D01*
X142470456Y-99339918D01*
X142450502Y-99567998D01*
X142450502Y-99568001D01*
X142470456Y-99796081D01*
X142470458Y-99796091D01*
X142487758Y-99860655D01*
X142486095Y-99930504D01*
X142455664Y-99980429D01*
X140997914Y-101438181D01*
X140936591Y-101471666D01*
X140910233Y-101474500D01*
X137362352Y-101474500D01*
X137295313Y-101454815D01*
X137260779Y-101421626D01*
X137150198Y-101263700D01*
X136988300Y-101101802D01*
X136800749Y-100970477D01*
X136767309Y-100954884D01*
X136757655Y-100950382D01*
X136705215Y-100904210D01*
X136686063Y-100837017D01*
X136706278Y-100770136D01*
X136757655Y-100725618D01*
X136760882Y-100724112D01*
X136800749Y-100705523D01*
X136988300Y-100574198D01*
X137150198Y-100412300D01*
X137281523Y-100224749D01*
X137378284Y-100017243D01*
X137437543Y-99796087D01*
X137457498Y-99568000D01*
X137457302Y-99565764D01*
X137450018Y-99482499D01*
X137437543Y-99339913D01*
X137378284Y-99118757D01*
X137363727Y-99087540D01*
X137337314Y-99030897D01*
X137281523Y-98911251D01*
X137150198Y-98723700D01*
X136988300Y-98561802D01*
X136800749Y-98430477D01*
X136757655Y-98410382D01*
X136705215Y-98364210D01*
X136686063Y-98297017D01*
X136706278Y-98230136D01*
X136757655Y-98185618D01*
X136761093Y-98184015D01*
X136800749Y-98165523D01*
X136988300Y-98034198D01*
X137150198Y-97872300D01*
X137260779Y-97714374D01*
X137315354Y-97670751D01*
X137362352Y-97661500D01*
X142545648Y-97661500D01*
X142612687Y-97681185D01*
G37*
G04 #@! TD.AperFunction*
G04 #@! TA.AperFunction,Conductor*
G36*
X149571633Y-73951164D02*
G01*
X149608402Y-73987657D01*
X149704826Y-74135244D01*
X149704834Y-74135255D01*
X149853541Y-74296791D01*
X149857310Y-74300885D01*
X150034974Y-74439168D01*
X150034975Y-74439168D01*
X150034977Y-74439170D01*
X150120169Y-74485273D01*
X150232976Y-74546321D01*
X150445915Y-74619423D01*
X150651886Y-74653793D01*
X150714772Y-74684243D01*
X150751211Y-74743858D01*
X150749636Y-74813710D01*
X150733053Y-74847224D01*
X150680399Y-74922422D01*
X150580570Y-75136507D01*
X150580566Y-75136516D01*
X150519432Y-75364673D01*
X150519430Y-75364684D01*
X150498843Y-75599998D01*
X150498843Y-75600001D01*
X150519430Y-75835315D01*
X150519432Y-75835326D01*
X150545905Y-75934128D01*
X150545906Y-75934129D01*
X151354000Y-75557307D01*
X151354000Y-75671889D01*
X151394507Y-75809844D01*
X151472239Y-75930798D01*
X151564573Y-76010805D01*
X150757214Y-76387283D01*
X150815884Y-76471070D01*
X150815893Y-76471081D01*
X150982917Y-76638105D01*
X151176421Y-76773600D01*
X151390507Y-76873429D01*
X151390516Y-76873433D01*
X151618673Y-76934567D01*
X151618684Y-76934569D01*
X151853998Y-76955157D01*
X151854002Y-76955157D01*
X152089320Y-76934568D01*
X152188129Y-76908092D01*
X151810810Y-76098932D01*
X151818237Y-76100000D01*
X151889763Y-76100000D01*
X151996315Y-76084680D01*
X152127100Y-76024952D01*
X152235761Y-75930798D01*
X152263772Y-75887210D01*
X152563469Y-76529911D01*
X152575087Y-76582316D01*
X152575087Y-111215983D01*
X152555402Y-111283022D01*
X152502598Y-111328777D01*
X152433440Y-111338721D01*
X152398682Y-111328365D01*
X151563690Y-110939002D01*
X151546214Y-110933031D01*
X151506044Y-110919306D01*
X151360279Y-110907717D01*
X151217162Y-110937664D01*
X151217150Y-110937669D01*
X151088274Y-111006719D01*
X151088271Y-111006720D01*
X150984057Y-111109293D01*
X150952561Y-111161429D01*
X150193002Y-112790309D01*
X150173306Y-112847956D01*
X150161717Y-112993720D01*
X150191664Y-113136837D01*
X150191669Y-113136849D01*
X150259094Y-113262692D01*
X150260722Y-113265730D01*
X150314151Y-113320014D01*
X150351587Y-113358049D01*
X150384584Y-113419636D01*
X150379046Y-113489286D01*
X150336732Y-113544885D01*
X150303475Y-113562312D01*
X150182980Y-113603678D01*
X150182969Y-113603683D01*
X149984977Y-113710830D01*
X149984972Y-113710834D01*
X149807311Y-113849114D01*
X149807306Y-113849119D01*
X149654834Y-114014745D01*
X149654826Y-114014756D01*
X149558402Y-114162344D01*
X149505256Y-114207701D01*
X149454594Y-114218522D01*
X141841789Y-114218522D01*
X141774750Y-114198837D01*
X141754108Y-114182203D01*
X138401935Y-110830030D01*
X138392034Y-110817670D01*
X138391824Y-110817845D01*
X138386848Y-110811831D01*
X138386847Y-110811829D01*
X138336461Y-110764514D01*
X138335086Y-110763181D01*
X138314615Y-110742710D01*
X138312639Y-110741178D01*
X138309030Y-110738378D01*
X138304597Y-110734591D01*
X138270168Y-110702261D01*
X138270166Y-110702259D01*
X138252278Y-110692425D01*
X138236017Y-110681744D01*
X138219886Y-110669231D01*
X138176540Y-110650474D01*
X138171292Y-110647903D01*
X138144098Y-110632953D01*
X138129907Y-110625152D01*
X138126507Y-110624279D01*
X138110134Y-110620075D01*
X138091728Y-110613773D01*
X138072991Y-110605665D01*
X138072993Y-110605665D01*
X138026343Y-110598277D01*
X138020628Y-110597093D01*
X138000459Y-110591915D01*
X137974879Y-110585347D01*
X137974877Y-110585347D01*
X137954463Y-110585347D01*
X137935067Y-110583820D01*
X137920570Y-110581524D01*
X137909414Y-110579757D01*
X137846281Y-110549824D01*
X137809352Y-110490511D01*
X137810352Y-110420649D01*
X137848965Y-110362418D01*
X137857683Y-110355716D01*
X138018496Y-110243115D01*
X138183115Y-110078496D01*
X138316648Y-109887791D01*
X138415037Y-109676796D01*
X138475292Y-109451921D01*
X138495582Y-109220000D01*
X138494795Y-109211008D01*
X138482293Y-109068104D01*
X138475292Y-108988079D01*
X138415037Y-108763204D01*
X138316648Y-108552209D01*
X138311334Y-108544620D01*
X138183118Y-108361508D01*
X138183113Y-108361502D01*
X138018497Y-108196886D01*
X138018491Y-108196881D01*
X137827792Y-108063352D01*
X137827790Y-108063351D01*
X137714450Y-108010500D01*
X137616796Y-107964963D01*
X137616792Y-107964962D01*
X137616788Y-107964960D01*
X137391921Y-107904708D01*
X137160002Y-107884418D01*
X137159998Y-107884418D01*
X137014801Y-107897121D01*
X136928079Y-107904708D01*
X136928076Y-107904708D01*
X136703211Y-107964960D01*
X136703202Y-107964964D01*
X136492209Y-108063351D01*
X136492207Y-108063352D01*
X136301508Y-108196881D01*
X136301502Y-108196886D01*
X136136886Y-108361502D01*
X136136881Y-108361508D01*
X136003352Y-108552207D01*
X136003351Y-108552209D01*
X135904964Y-108763202D01*
X135904960Y-108763211D01*
X135844708Y-108988076D01*
X135844708Y-108988080D01*
X135825205Y-109211008D01*
X135824418Y-109220000D01*
X135844435Y-109448806D01*
X135844708Y-109451919D01*
X135844708Y-109451923D01*
X135866471Y-109533143D01*
X135864808Y-109602993D01*
X135825645Y-109660855D01*
X135761417Y-109688359D01*
X135692514Y-109676772D01*
X135659015Y-109652917D01*
X129430279Y-103424181D01*
X129396794Y-103362858D01*
X129401778Y-103293166D01*
X129443650Y-103237233D01*
X129509114Y-103212816D01*
X129517960Y-103212500D01*
X130438638Y-103212500D01*
X130438654Y-103212499D01*
X130465692Y-103209591D01*
X130499201Y-103205989D01*
X130636204Y-103154889D01*
X130753261Y-103067261D01*
X130840889Y-102950204D01*
X130886138Y-102828887D01*
X130928009Y-102772956D01*
X130993474Y-102748539D01*
X131061746Y-102763391D01*
X131093545Y-102788236D01*
X131156760Y-102856906D01*
X131334424Y-102995189D01*
X131334425Y-102995189D01*
X131334427Y-102995191D01*
X131388303Y-103024347D01*
X131532426Y-103102342D01*
X131745365Y-103175444D01*
X131967431Y-103212500D01*
X132192569Y-103212500D01*
X132414635Y-103175444D01*
X132627574Y-103102342D01*
X132825576Y-102995189D01*
X133003240Y-102856906D01*
X133119832Y-102730255D01*
X133155715Y-102691276D01*
X133155716Y-102691274D01*
X133155722Y-102691268D01*
X133278860Y-102502791D01*
X133369296Y-102296616D01*
X133417060Y-102108001D01*
X134830502Y-102108001D01*
X134850456Y-102336081D01*
X134850457Y-102336089D01*
X134909714Y-102557238D01*
X134909718Y-102557249D01*
X135004487Y-102760482D01*
X135006477Y-102764749D01*
X135137802Y-102952300D01*
X135299700Y-103114198D01*
X135487251Y-103245523D01*
X135612091Y-103303736D01*
X135694750Y-103342281D01*
X135694752Y-103342281D01*
X135694757Y-103342284D01*
X135915913Y-103401543D01*
X136078832Y-103415796D01*
X136143998Y-103421498D01*
X136144000Y-103421498D01*
X136144002Y-103421498D01*
X136201021Y-103416509D01*
X136372087Y-103401543D01*
X136593243Y-103342284D01*
X136800749Y-103245523D01*
X136988300Y-103114198D01*
X137150198Y-102952300D01*
X137260779Y-102794374D01*
X137315354Y-102750751D01*
X137362352Y-102741500D01*
X141140366Y-102741500D01*
X141156113Y-102743238D01*
X141156139Y-102742968D01*
X141163906Y-102743702D01*
X141163908Y-102743701D01*
X141163909Y-102743702D01*
X141173259Y-102743408D01*
X141232991Y-102741531D01*
X141234939Y-102741500D01*
X141263857Y-102741500D01*
X141265222Y-102741327D01*
X141270862Y-102740614D01*
X141276685Y-102740156D01*
X141302708Y-102739338D01*
X141323890Y-102738673D01*
X141333681Y-102735827D01*
X141343481Y-102732980D01*
X141362538Y-102729032D01*
X141382797Y-102726474D01*
X141426721Y-102709082D01*
X141432221Y-102707199D01*
X141477593Y-102694018D01*
X141495165Y-102683625D01*
X141512632Y-102675068D01*
X141531617Y-102667552D01*
X141569826Y-102639790D01*
X141574704Y-102636585D01*
X141615362Y-102612542D01*
X141629802Y-102598100D01*
X141644592Y-102585470D01*
X141661107Y-102573472D01*
X141691222Y-102537067D01*
X141695136Y-102532766D01*
X142335122Y-101892780D01*
X142396441Y-101859298D01*
X142423978Y-101861267D01*
X142423978Y-101858000D01*
X143448314Y-101858000D01*
X143436359Y-101869955D01*
X143378835Y-101982852D01*
X143359014Y-102108000D01*
X143378835Y-102233148D01*
X143436359Y-102346045D01*
X143448314Y-102358000D01*
X142485128Y-102358000D01*
X142537730Y-102554317D01*
X142537734Y-102554326D01*
X142633865Y-102760482D01*
X142764342Y-102946820D01*
X142925179Y-103107657D01*
X143111517Y-103238134D01*
X143317673Y-103334265D01*
X143317682Y-103334269D01*
X143513999Y-103386872D01*
X143514000Y-103386871D01*
X143514000Y-102423686D01*
X143525955Y-102435641D01*
X143638852Y-102493165D01*
X143732519Y-102508000D01*
X143795481Y-102508000D01*
X143889148Y-102493165D01*
X144002045Y-102435641D01*
X144014000Y-102423686D01*
X144014000Y-103386872D01*
X144210317Y-103334269D01*
X144210326Y-103334265D01*
X144416482Y-103238134D01*
X144602820Y-103107657D01*
X144763657Y-102946820D01*
X144894134Y-102760482D01*
X144990265Y-102554326D01*
X144990269Y-102554317D01*
X145042872Y-102358000D01*
X144079686Y-102358000D01*
X144091641Y-102346045D01*
X144149165Y-102233148D01*
X144168986Y-102108000D01*
X144149165Y-101982852D01*
X144091641Y-101869955D01*
X144079686Y-101858000D01*
X145042872Y-101858000D01*
X145042872Y-101857999D01*
X144990269Y-101661682D01*
X144990265Y-101661673D01*
X144894134Y-101455517D01*
X144763657Y-101269179D01*
X144602820Y-101108342D01*
X144416481Y-100977865D01*
X144416479Y-100977864D01*
X144367599Y-100955071D01*
X144315159Y-100908899D01*
X144296007Y-100841706D01*
X144316223Y-100774824D01*
X144367599Y-100730307D01*
X144420749Y-100705523D01*
X144608300Y-100574198D01*
X144770198Y-100412300D01*
X144880779Y-100254374D01*
X144935354Y-100210751D01*
X144982352Y-100201500D01*
X146270234Y-100201500D01*
X146337273Y-100221185D01*
X146357915Y-100237819D01*
X147559181Y-101439085D01*
X147592666Y-101500408D01*
X147595500Y-101526766D01*
X147595500Y-102936654D01*
X147602011Y-102997202D01*
X147602011Y-102997204D01*
X147636286Y-103089096D01*
X147653111Y-103134204D01*
X147740739Y-103251261D01*
X147857796Y-103338889D01*
X147994799Y-103389989D01*
X148022050Y-103392918D01*
X148055345Y-103396499D01*
X148055362Y-103396500D01*
X149952638Y-103396500D01*
X149952654Y-103396499D01*
X149979692Y-103393591D01*
X150013201Y-103389989D01*
X150150204Y-103338889D01*
X150267261Y-103251261D01*
X150354889Y-103134204D01*
X150400555Y-103011768D01*
X150405988Y-102997204D01*
X150405988Y-102997203D01*
X150405989Y-102997201D01*
X150410816Y-102952304D01*
X150412499Y-102936654D01*
X150412500Y-102936637D01*
X150412500Y-101039362D01*
X150412499Y-101039345D01*
X150408712Y-101004129D01*
X150405989Y-100978799D01*
X150405640Y-100977864D01*
X150369697Y-100881498D01*
X150354889Y-100841796D01*
X150267261Y-100724739D01*
X150150204Y-100637111D01*
X150150204Y-100637110D01*
X150080037Y-100610939D01*
X150024104Y-100569067D01*
X149999688Y-100503602D01*
X150014541Y-100435329D01*
X150032138Y-100410780D01*
X150119314Y-100316083D01*
X150246984Y-100120669D01*
X150340749Y-99906907D01*
X150398051Y-99680626D01*
X150407383Y-99568001D01*
X150417327Y-99448005D01*
X150417327Y-99447994D01*
X150398051Y-99215377D01*
X150398051Y-99215374D01*
X150340749Y-98989093D01*
X150246984Y-98775331D01*
X150209812Y-98718435D01*
X150119313Y-98579915D01*
X149961223Y-98408185D01*
X149961222Y-98408184D01*
X149961220Y-98408182D01*
X149777017Y-98264810D01*
X149777015Y-98264809D01*
X149777014Y-98264808D01*
X149777011Y-98264806D01*
X149571733Y-98153716D01*
X149571730Y-98153715D01*
X149571727Y-98153713D01*
X149571721Y-98153711D01*
X149571719Y-98153710D01*
X149350954Y-98077920D01*
X149270213Y-98064447D01*
X149207328Y-98033996D01*
X149170888Y-97974381D01*
X149172464Y-97904529D01*
X149185085Y-97877040D01*
X149256255Y-97761658D01*
X149311909Y-97593701D01*
X149322500Y-97490037D01*
X149322499Y-96085964D01*
X149311909Y-95982299D01*
X149281483Y-95890476D01*
X149256256Y-95814344D01*
X149256255Y-95814342D01*
X149216100Y-95749242D01*
X149163366Y-95663748D01*
X149163365Y-95663747D01*
X149163364Y-95663745D01*
X149038254Y-95538635D01*
X148887657Y-95445744D01*
X148887655Y-95445743D01*
X148721929Y-95390829D01*
X148673251Y-95360804D01*
X148002231Y-94689784D01*
X148048138Y-94682865D01*
X148170357Y-94624007D01*
X148269798Y-94531740D01*
X148337625Y-94414260D01*
X148355499Y-94335947D01*
X149065186Y-95045634D01*
X149149484Y-94916606D01*
X149242682Y-94704135D01*
X149299638Y-94479218D01*
X149318798Y-94248005D01*
X149318798Y-94247994D01*
X149299638Y-94016781D01*
X149242682Y-93791864D01*
X149149483Y-93579390D01*
X149065186Y-93450364D01*
X148358449Y-94157101D01*
X148357673Y-94146735D01*
X148308113Y-94020459D01*
X148223535Y-93914401D01*
X148111453Y-93837984D01*
X148003700Y-93804747D01*
X148712799Y-93095648D01*
X148712798Y-93095647D01*
X148694288Y-93081240D01*
X148653473Y-93024531D01*
X148649798Y-92954758D01*
X148684428Y-92894074D01*
X148694286Y-92885532D01*
X148871220Y-92747818D01*
X149029314Y-92576083D01*
X149156984Y-92380669D01*
X149250749Y-92166907D01*
X149308051Y-91940626D01*
X149318170Y-91818513D01*
X149327327Y-91708005D01*
X149327327Y-91707994D01*
X149314476Y-91552915D01*
X149308051Y-91475374D01*
X149250749Y-91249093D01*
X149156984Y-91035331D01*
X149117773Y-90975314D01*
X149029313Y-90839915D01*
X148871223Y-90668185D01*
X148871222Y-90668184D01*
X148871220Y-90668182D01*
X148687017Y-90524810D01*
X148687015Y-90524809D01*
X148687014Y-90524808D01*
X148687011Y-90524806D01*
X148481733Y-90413716D01*
X148481730Y-90413715D01*
X148481727Y-90413713D01*
X148481721Y-90413711D01*
X148481719Y-90413710D01*
X148260954Y-90337920D01*
X148082123Y-90308079D01*
X148030712Y-90299500D01*
X147797288Y-90299500D01*
X147751240Y-90307184D01*
X147567045Y-90337920D01*
X147346280Y-90413710D01*
X147346266Y-90413716D01*
X147140988Y-90524806D01*
X147140985Y-90524808D01*
X146956781Y-90668181D01*
X146956776Y-90668185D01*
X146798686Y-90839915D01*
X146671015Y-91035331D01*
X146577251Y-91249092D01*
X146519948Y-91475377D01*
X146500673Y-91707994D01*
X146500673Y-91708005D01*
X146519948Y-91940622D01*
X146577251Y-92166907D01*
X146671015Y-92380668D01*
X146798686Y-92576084D01*
X146913793Y-92701122D01*
X146956780Y-92747818D01*
X147133713Y-92885532D01*
X147174526Y-92942241D01*
X147178201Y-93012014D01*
X147143569Y-93072697D01*
X147133711Y-93081239D01*
X147115200Y-93095645D01*
X147115200Y-93095647D01*
X147825768Y-93806215D01*
X147779862Y-93813135D01*
X147657643Y-93871993D01*
X147558202Y-93964260D01*
X147490375Y-94081740D01*
X147472500Y-94160053D01*
X146762812Y-93450365D01*
X146678516Y-93579391D01*
X146678514Y-93579395D01*
X146585317Y-93791864D01*
X146528361Y-94016781D01*
X146509202Y-94247994D01*
X146509202Y-94248005D01*
X146528361Y-94479218D01*
X146585317Y-94704135D01*
X146678516Y-94916609D01*
X146762811Y-95045633D01*
X147469550Y-94338896D01*
X147470327Y-94349265D01*
X147519887Y-94475541D01*
X147604465Y-94581599D01*
X147716547Y-94658016D01*
X147824299Y-94691253D01*
X147154748Y-95360803D01*
X147106070Y-95390828D01*
X146940344Y-95445743D01*
X146940342Y-95445744D01*
X146789745Y-95538635D01*
X146664635Y-95663745D01*
X146571744Y-95814342D01*
X146571743Y-95814344D01*
X146516091Y-95982295D01*
X146516091Y-95982296D01*
X146505500Y-96085955D01*
X146505500Y-97490030D01*
X146505501Y-97490045D01*
X146516091Y-97593703D01*
X146571743Y-97761655D01*
X146571744Y-97761657D01*
X146664635Y-97912254D01*
X146789745Y-98037364D01*
X146789747Y-98037365D01*
X146789748Y-98037366D01*
X146852919Y-98076331D01*
X146940342Y-98130255D01*
X146940344Y-98130256D01*
X147063284Y-98170993D01*
X147108299Y-98185909D01*
X147211963Y-98196500D01*
X147958957Y-98196499D01*
X148025995Y-98216183D01*
X148071750Y-98268987D01*
X148081694Y-98338146D01*
X148052669Y-98401702D01*
X148050186Y-98404482D01*
X147888683Y-98579919D01*
X147761015Y-98775331D01*
X147667251Y-98989092D01*
X147609948Y-99215377D01*
X147595105Y-99394502D01*
X147569952Y-99459687D01*
X147513550Y-99500925D01*
X147443806Y-99505123D01*
X147383848Y-99471943D01*
X147091088Y-99179183D01*
X147081187Y-99166823D01*
X147080977Y-99166998D01*
X147076001Y-99160984D01*
X147076000Y-99160982D01*
X147025614Y-99113667D01*
X147024239Y-99112334D01*
X147003768Y-99091863D01*
X147001792Y-99090331D01*
X146998183Y-99087531D01*
X146993750Y-99083744D01*
X146959321Y-99051414D01*
X146959319Y-99051412D01*
X146941431Y-99041578D01*
X146925170Y-99030897D01*
X146909039Y-99018384D01*
X146865693Y-98999627D01*
X146860445Y-98997056D01*
X146833251Y-98982106D01*
X146819060Y-98974305D01*
X146815660Y-98973432D01*
X146799287Y-98969228D01*
X146780881Y-98962926D01*
X146762144Y-98954818D01*
X146762146Y-98954818D01*
X146715496Y-98947430D01*
X146709781Y-98946246D01*
X146689502Y-98941040D01*
X146664032Y-98934500D01*
X146664030Y-98934500D01*
X146643616Y-98934500D01*
X146624217Y-98932973D01*
X146604058Y-98929780D01*
X146604057Y-98929780D01*
X146557034Y-98934225D01*
X146551196Y-98934500D01*
X144982352Y-98934500D01*
X144915313Y-98914815D01*
X144880779Y-98881626D01*
X144770198Y-98723700D01*
X144608300Y-98561802D01*
X144420749Y-98430477D01*
X144377655Y-98410382D01*
X144325215Y-98364210D01*
X144306063Y-98297017D01*
X144326278Y-98230136D01*
X144377655Y-98185618D01*
X144381093Y-98184015D01*
X144420749Y-98165523D01*
X144608300Y-98034198D01*
X144770198Y-97872300D01*
X144901523Y-97684749D01*
X144998284Y-97477243D01*
X145057543Y-97256087D01*
X145077019Y-97033471D01*
X145077498Y-97028001D01*
X145077498Y-97027998D01*
X145065432Y-96890084D01*
X145057543Y-96799913D01*
X145040240Y-96735341D01*
X145041904Y-96665491D01*
X145072333Y-96615569D01*
X145227815Y-96460087D01*
X145240180Y-96450183D01*
X145240006Y-96449973D01*
X145246012Y-96445003D01*
X145246018Y-96445000D01*
X145293364Y-96394580D01*
X145294635Y-96393267D01*
X145315135Y-96372769D01*
X145319458Y-96367195D01*
X145323257Y-96362747D01*
X145355585Y-96328322D01*
X145365420Y-96310432D01*
X145376098Y-96294174D01*
X145388614Y-96278040D01*
X145407374Y-96234686D01*
X145409935Y-96229458D01*
X145432695Y-96188060D01*
X145437774Y-96168274D01*
X145444072Y-96149882D01*
X145452181Y-96131145D01*
X145459336Y-96085969D01*
X145459569Y-96084497D01*
X145460751Y-96078786D01*
X145472500Y-96033030D01*
X145472500Y-96012615D01*
X145474027Y-95993214D01*
X145477220Y-95973057D01*
X145472775Y-95926033D01*
X145472500Y-95920195D01*
X145472500Y-90566632D01*
X145474239Y-90550880D01*
X145473968Y-90550855D01*
X145474702Y-90543093D01*
X145472531Y-90473995D01*
X145472500Y-90472047D01*
X145472500Y-90443147D01*
X145472500Y-90443144D01*
X145471614Y-90436141D01*
X145471157Y-90430322D01*
X145470650Y-90414198D01*
X145469674Y-90383111D01*
X145463974Y-90363492D01*
X145460031Y-90344446D01*
X145457474Y-90324204D01*
X145457474Y-90324203D01*
X145440081Y-90280274D01*
X145438204Y-90274792D01*
X145425019Y-90229407D01*
X145414620Y-90211824D01*
X145406066Y-90194363D01*
X145398552Y-90175383D01*
X145385128Y-90156907D01*
X145370795Y-90137179D01*
X145367586Y-90132294D01*
X145343544Y-90091641D01*
X145343543Y-90091640D01*
X145343542Y-90091638D01*
X145329108Y-90077204D01*
X145316471Y-90062409D01*
X145304472Y-90045893D01*
X145304470Y-90045890D01*
X145268073Y-90015781D01*
X145263751Y-90011847D01*
X145072335Y-89820431D01*
X145038850Y-89759108D01*
X145040240Y-89700658D01*
X145057543Y-89636087D01*
X145077498Y-89408000D01*
X145076527Y-89396907D01*
X145067906Y-89298363D01*
X145057543Y-89179913D01*
X144998284Y-88958757D01*
X144993692Y-88948910D01*
X144959736Y-88876091D01*
X144901523Y-88751251D01*
X144770198Y-88563700D01*
X144608300Y-88401802D01*
X144600627Y-88396429D01*
X144557006Y-88341853D01*
X144549814Y-88272355D01*
X144562126Y-88248002D01*
X147559034Y-88248002D01*
X147578858Y-88474599D01*
X147578860Y-88474610D01*
X147637730Y-88694317D01*
X147637734Y-88694326D01*
X147733865Y-88900481D01*
X147733866Y-88900483D01*
X147784973Y-88973471D01*
X147784973Y-88973472D01*
X148466045Y-88292399D01*
X148478835Y-88373148D01*
X148536359Y-88486045D01*
X148625955Y-88575641D01*
X148738852Y-88633165D01*
X148819599Y-88645953D01*
X148138526Y-89327025D01*
X148138526Y-89327026D01*
X148211512Y-89378131D01*
X148211516Y-89378133D01*
X148417673Y-89474265D01*
X148417682Y-89474269D01*
X148637389Y-89533139D01*
X148637400Y-89533141D01*
X148863998Y-89552966D01*
X148864002Y-89552966D01*
X149090599Y-89533141D01*
X149090610Y-89533139D01*
X149310317Y-89474269D01*
X149310331Y-89474264D01*
X149516478Y-89378136D01*
X149589472Y-89327025D01*
X148908401Y-88645953D01*
X148989148Y-88633165D01*
X149102045Y-88575641D01*
X149191641Y-88486045D01*
X149249165Y-88373148D01*
X149261953Y-88292400D01*
X149943025Y-88973472D01*
X149994136Y-88900478D01*
X150090264Y-88694331D01*
X150090269Y-88694317D01*
X150149139Y-88474610D01*
X150149141Y-88474599D01*
X150168966Y-88248002D01*
X150168966Y-88247997D01*
X150149141Y-88021400D01*
X150149139Y-88021389D01*
X150090269Y-87801682D01*
X150090265Y-87801673D01*
X149994133Y-87595516D01*
X149994131Y-87595512D01*
X149943026Y-87522526D01*
X149943025Y-87522526D01*
X149261953Y-88203598D01*
X149249165Y-88122852D01*
X149191641Y-88009955D01*
X149102045Y-87920359D01*
X148989148Y-87862835D01*
X148908400Y-87850046D01*
X149589472Y-87168974D01*
X149589471Y-87168973D01*
X149516483Y-87117866D01*
X149516481Y-87117865D01*
X149310326Y-87021734D01*
X149310317Y-87021730D01*
X149090610Y-86962860D01*
X149090599Y-86962858D01*
X148864002Y-86943034D01*
X148863998Y-86943034D01*
X148637400Y-86962858D01*
X148637389Y-86962860D01*
X148417682Y-87021730D01*
X148417673Y-87021734D01*
X148211513Y-87117868D01*
X148138527Y-87168972D01*
X148138526Y-87168973D01*
X148819600Y-87850046D01*
X148738852Y-87862835D01*
X148625955Y-87920359D01*
X148536359Y-88009955D01*
X148478835Y-88122852D01*
X148466046Y-88203598D01*
X147784973Y-87522526D01*
X147733868Y-87595513D01*
X147637734Y-87801673D01*
X147637730Y-87801682D01*
X147578860Y-88021389D01*
X147578858Y-88021400D01*
X147559034Y-88247997D01*
X147559034Y-88248002D01*
X144562126Y-88248002D01*
X144581338Y-88210001D01*
X144641568Y-88174588D01*
X144658489Y-88171570D01*
X144673201Y-88169989D01*
X144810204Y-88118889D01*
X144927261Y-88031261D01*
X145014889Y-87914204D01*
X145061593Y-87788988D01*
X145065988Y-87777204D01*
X145065988Y-87777203D01*
X145065989Y-87777201D01*
X145069591Y-87743692D01*
X145072499Y-87716654D01*
X145072500Y-87716637D01*
X145072500Y-86019362D01*
X145072499Y-86019345D01*
X145069157Y-85988270D01*
X145065989Y-85958799D01*
X145014889Y-85821796D01*
X144927261Y-85704739D01*
X144810204Y-85617111D01*
X144810203Y-85617110D01*
X144673203Y-85566011D01*
X144612654Y-85559500D01*
X144612638Y-85559500D01*
X142915362Y-85559500D01*
X142915345Y-85559500D01*
X142854797Y-85566011D01*
X142854795Y-85566011D01*
X142717795Y-85617111D01*
X142600739Y-85704739D01*
X142513111Y-85821795D01*
X142462011Y-85958795D01*
X142462011Y-85958797D01*
X142455500Y-86019345D01*
X142455500Y-87716654D01*
X142462011Y-87777202D01*
X142462011Y-87777204D01*
X142507135Y-87898182D01*
X142513111Y-87914204D01*
X142600739Y-88031261D01*
X142717796Y-88118889D01*
X142804135Y-88151092D01*
X142854793Y-88169987D01*
X142854799Y-88169989D01*
X142869499Y-88171569D01*
X142934048Y-88198305D01*
X142973897Y-88255696D01*
X142976393Y-88325521D01*
X142940742Y-88385611D01*
X142927377Y-88396425D01*
X142927371Y-88396431D01*
X142919696Y-88401805D01*
X142757806Y-88563695D01*
X142757803Y-88563698D01*
X142757802Y-88563700D01*
X142647220Y-88721625D01*
X142592646Y-88765249D01*
X142545648Y-88774500D01*
X137362352Y-88774500D01*
X137295313Y-88754815D01*
X137260779Y-88721626D01*
X137150198Y-88563700D01*
X136988300Y-88401802D01*
X136800749Y-88270477D01*
X136789713Y-88265331D01*
X136757655Y-88250382D01*
X136705215Y-88204210D01*
X136686063Y-88137017D01*
X136706278Y-88070136D01*
X136757655Y-88025618D01*
X136766724Y-88021389D01*
X136800749Y-88005523D01*
X136988300Y-87874198D01*
X137150198Y-87712300D01*
X137281523Y-87524749D01*
X137378284Y-87317243D01*
X137437543Y-87096087D01*
X137457498Y-86868000D01*
X137454635Y-86835281D01*
X137444509Y-86719532D01*
X137437543Y-86639913D01*
X137378284Y-86418757D01*
X137371475Y-86404156D01*
X137281524Y-86211254D01*
X137281523Y-86211252D01*
X137281523Y-86211251D01*
X137150198Y-86023700D01*
X136988300Y-85861802D01*
X136800749Y-85730477D01*
X136800745Y-85730475D01*
X136593249Y-85633718D01*
X136593238Y-85633714D01*
X136372089Y-85574457D01*
X136372081Y-85574456D01*
X136144002Y-85554502D01*
X136143998Y-85554502D01*
X135915918Y-85574456D01*
X135915910Y-85574457D01*
X135694761Y-85633714D01*
X135694750Y-85633718D01*
X135487254Y-85730475D01*
X135487252Y-85730476D01*
X135469472Y-85742926D01*
X135299700Y-85861802D01*
X135299698Y-85861803D01*
X135299695Y-85861806D01*
X135137806Y-86023695D01*
X135137803Y-86023698D01*
X135137802Y-86023700D01*
X135089768Y-86092300D01*
X135006476Y-86211252D01*
X135006475Y-86211254D01*
X134909718Y-86418750D01*
X134909714Y-86418761D01*
X134850457Y-86639910D01*
X134850456Y-86639918D01*
X134830502Y-86867998D01*
X134830502Y-86868001D01*
X134850456Y-87096081D01*
X134850457Y-87096089D01*
X134909714Y-87317238D01*
X134909718Y-87317249D01*
X134993155Y-87496180D01*
X135006477Y-87524749D01*
X135137802Y-87712300D01*
X135299700Y-87874198D01*
X135440524Y-87972804D01*
X135487251Y-88005523D01*
X135530345Y-88025618D01*
X135582784Y-88071791D01*
X135601936Y-88138984D01*
X135581720Y-88205865D01*
X135530345Y-88250382D01*
X135487251Y-88270476D01*
X135421192Y-88316732D01*
X135299700Y-88401802D01*
X135299698Y-88401803D01*
X135299695Y-88401806D01*
X135137806Y-88563695D01*
X135137803Y-88563698D01*
X135137802Y-88563700D01*
X135111297Y-88601553D01*
X135006476Y-88751252D01*
X135006475Y-88751254D01*
X134909718Y-88958750D01*
X134909714Y-88958761D01*
X134850457Y-89179910D01*
X134850456Y-89179918D01*
X134830502Y-89407998D01*
X134830502Y-89408001D01*
X134850456Y-89636081D01*
X134850457Y-89636089D01*
X134909714Y-89857238D01*
X134909718Y-89857249D01*
X135000837Y-90052654D01*
X135006477Y-90064749D01*
X135137802Y-90252300D01*
X135299700Y-90414198D01*
X135457664Y-90524806D01*
X135487251Y-90545523D01*
X135530345Y-90565618D01*
X135582784Y-90611791D01*
X135601936Y-90678984D01*
X135581720Y-90745865D01*
X135530345Y-90790382D01*
X135487251Y-90810476D01*
X135373942Y-90889817D01*
X135299700Y-90941802D01*
X135299698Y-90941803D01*
X135299695Y-90941806D01*
X135137806Y-91103695D01*
X135137803Y-91103698D01*
X135137802Y-91103700D01*
X135119578Y-91129727D01*
X135006476Y-91291252D01*
X135006475Y-91291254D01*
X134909718Y-91498750D01*
X134909714Y-91498761D01*
X134850457Y-91719910D01*
X134850456Y-91719918D01*
X134830502Y-91947998D01*
X134830502Y-91948001D01*
X134850456Y-92176081D01*
X134850457Y-92176089D01*
X134909714Y-92397238D01*
X134909718Y-92397249D01*
X134984127Y-92556820D01*
X135006477Y-92604749D01*
X135137802Y-92792300D01*
X135299700Y-92954198D01*
X135476621Y-93078080D01*
X135487251Y-93085523D01*
X135530345Y-93105618D01*
X135582784Y-93151791D01*
X135601936Y-93218984D01*
X135581720Y-93285865D01*
X135530345Y-93330382D01*
X135487251Y-93350476D01*
X135416005Y-93400364D01*
X135299700Y-93481802D01*
X135299698Y-93481803D01*
X135299695Y-93481806D01*
X135137806Y-93643695D01*
X135137803Y-93643698D01*
X135137802Y-93643700D01*
X135069067Y-93741864D01*
X135006476Y-93831252D01*
X135006475Y-93831254D01*
X134909718Y-94038750D01*
X134909714Y-94038761D01*
X134850457Y-94259910D01*
X134850456Y-94259918D01*
X134830502Y-94487998D01*
X134830502Y-94488001D01*
X134850456Y-94716081D01*
X134850457Y-94716089D01*
X134909714Y-94937238D01*
X134909718Y-94937249D01*
X134998362Y-95127347D01*
X135006477Y-95144749D01*
X135137802Y-95332300D01*
X135299700Y-95494198D01*
X135428159Y-95584146D01*
X135487251Y-95625523D01*
X135530345Y-95645618D01*
X135582784Y-95691791D01*
X135601936Y-95758984D01*
X135581720Y-95825865D01*
X135530345Y-95870382D01*
X135487251Y-95890476D01*
X135369315Y-95973057D01*
X135299700Y-96021802D01*
X135299698Y-96021803D01*
X135299695Y-96021806D01*
X135137806Y-96183695D01*
X135137803Y-96183698D01*
X135137802Y-96183700D01*
X135103047Y-96233335D01*
X135006476Y-96371252D01*
X135006475Y-96371254D01*
X134909718Y-96578750D01*
X134909714Y-96578761D01*
X134850457Y-96799910D01*
X134850456Y-96799918D01*
X134830502Y-97027998D01*
X134830502Y-97028001D01*
X134850456Y-97256081D01*
X134850457Y-97256089D01*
X134909714Y-97477238D01*
X134909718Y-97477249D01*
X135004815Y-97681185D01*
X135006477Y-97684749D01*
X135137802Y-97872300D01*
X135299700Y-98034198D01*
X135470385Y-98153713D01*
X135487251Y-98165523D01*
X135530345Y-98185618D01*
X135582784Y-98231791D01*
X135601936Y-98298984D01*
X135581720Y-98365865D01*
X135530345Y-98410382D01*
X135487251Y-98430476D01*
X135362126Y-98518090D01*
X135299700Y-98561802D01*
X135299698Y-98561803D01*
X135299695Y-98561806D01*
X135137806Y-98723695D01*
X135137803Y-98723698D01*
X135137802Y-98723700D01*
X135055767Y-98840856D01*
X135006476Y-98911252D01*
X135006475Y-98911254D01*
X134909718Y-99118750D01*
X134909714Y-99118761D01*
X134850457Y-99339910D01*
X134850456Y-99339918D01*
X134830502Y-99567998D01*
X134830502Y-99568001D01*
X134850456Y-99796081D01*
X134850457Y-99796089D01*
X134909714Y-100017238D01*
X134909718Y-100017249D01*
X135004815Y-100221185D01*
X135006477Y-100224749D01*
X135137802Y-100412300D01*
X135299700Y-100574198D01*
X135470839Y-100694031D01*
X135487251Y-100705523D01*
X135530345Y-100725618D01*
X135582784Y-100771791D01*
X135601936Y-100838984D01*
X135581720Y-100905865D01*
X135530345Y-100950382D01*
X135487251Y-100970476D01*
X135388873Y-101039362D01*
X135299700Y-101101802D01*
X135299698Y-101101803D01*
X135299695Y-101101806D01*
X135137806Y-101263695D01*
X135006476Y-101451252D01*
X135006475Y-101451254D01*
X134909718Y-101658750D01*
X134909714Y-101658761D01*
X134850457Y-101879910D01*
X134850456Y-101879918D01*
X134830502Y-102107998D01*
X134830502Y-102108001D01*
X133417060Y-102108001D01*
X133424564Y-102078368D01*
X133426064Y-102060268D01*
X133443156Y-101854005D01*
X133443156Y-101853994D01*
X133424565Y-101629640D01*
X133424563Y-101629628D01*
X133385279Y-101474500D01*
X133369296Y-101411384D01*
X133278860Y-101205209D01*
X133265512Y-101184779D01*
X133200168Y-101084762D01*
X133155722Y-101016732D01*
X133155719Y-101016729D01*
X133155715Y-101016723D01*
X133003243Y-100851097D01*
X133003238Y-100851092D01*
X132869982Y-100747374D01*
X132825576Y-100712811D01*
X132825575Y-100712810D01*
X132825572Y-100712808D01*
X132627580Y-100605661D01*
X132627577Y-100605659D01*
X132627574Y-100605658D01*
X132627571Y-100605657D01*
X132627569Y-100605656D01*
X132414637Y-100532556D01*
X132192569Y-100495500D01*
X131967431Y-100495500D01*
X131745358Y-100532556D01*
X131741115Y-100533631D01*
X131671295Y-100530998D01*
X131623007Y-100501103D01*
X127936031Y-96814127D01*
X124233819Y-93111914D01*
X124200334Y-93050591D01*
X124197500Y-93024233D01*
X124197500Y-85006765D01*
X124217185Y-84939726D01*
X124269989Y-84893971D01*
X124339147Y-84884027D01*
X124402703Y-84913052D01*
X124409181Y-84919084D01*
X128190936Y-88700840D01*
X128224421Y-88762163D01*
X128223461Y-88818960D01*
X128195435Y-88929633D01*
X128176844Y-89153994D01*
X128176844Y-89154005D01*
X128195434Y-89378359D01*
X128195436Y-89378371D01*
X128250703Y-89596614D01*
X128341140Y-89802792D01*
X128464276Y-89991265D01*
X128464284Y-89991276D01*
X128616756Y-90156902D01*
X128616761Y-90156907D01*
X128675981Y-90203000D01*
X128794424Y-90295189D01*
X128794425Y-90295189D01*
X128794427Y-90295191D01*
X128848037Y-90324203D01*
X128992426Y-90402342D01*
X129205365Y-90475444D01*
X129427431Y-90512500D01*
X129652569Y-90512500D01*
X129874635Y-90475444D01*
X130087574Y-90402342D01*
X130285576Y-90295189D01*
X130463240Y-90156906D01*
X130526452Y-90088239D01*
X130586337Y-90052250D01*
X130656175Y-90054349D01*
X130713791Y-90093873D01*
X130733861Y-90128888D01*
X130764802Y-90211840D01*
X130779111Y-90250204D01*
X130866739Y-90367261D01*
X130983796Y-90454889D01*
X131120799Y-90505989D01*
X131148050Y-90508918D01*
X131181345Y-90512499D01*
X131181362Y-90512500D01*
X132978638Y-90512500D01*
X132978654Y-90512499D01*
X133005692Y-90509591D01*
X133039201Y-90505989D01*
X133176204Y-90454889D01*
X133293261Y-90367261D01*
X133380889Y-90250204D01*
X133431989Y-90113201D01*
X133436601Y-90070302D01*
X133438499Y-90052654D01*
X133438499Y-90052647D01*
X133438500Y-90052638D01*
X133438500Y-88255362D01*
X133438499Y-88255352D01*
X133438499Y-88255345D01*
X133433623Y-88210001D01*
X133431989Y-88194799D01*
X133424125Y-88173716D01*
X133401653Y-88113465D01*
X133380889Y-88057796D01*
X133301105Y-87951218D01*
X133276689Y-87885754D01*
X133291541Y-87817481D01*
X133301107Y-87802596D01*
X133373352Y-87706089D01*
X133373354Y-87706086D01*
X133423596Y-87571379D01*
X133423598Y-87571372D01*
X133429999Y-87511844D01*
X133430000Y-87511827D01*
X133430000Y-86864000D01*
X132513686Y-86864000D01*
X132539493Y-86823844D01*
X132580000Y-86685889D01*
X132580000Y-86542111D01*
X132539493Y-86404156D01*
X132513686Y-86364000D01*
X133430000Y-86364000D01*
X133430000Y-85716172D01*
X133429999Y-85716155D01*
X133423598Y-85656627D01*
X133423596Y-85656620D01*
X133373354Y-85521913D01*
X133373350Y-85521906D01*
X133287190Y-85406812D01*
X133287187Y-85406809D01*
X133172093Y-85320649D01*
X133172086Y-85320645D01*
X133037379Y-85270403D01*
X133037372Y-85270401D01*
X132977844Y-85264000D01*
X132330000Y-85264000D01*
X132329999Y-86178498D01*
X132222315Y-86129320D01*
X132115763Y-86114000D01*
X132044237Y-86114000D01*
X131937685Y-86129320D01*
X131830000Y-86178498D01*
X131830000Y-85264000D01*
X131182155Y-85264000D01*
X131122627Y-85270401D01*
X131122620Y-85270403D01*
X130987913Y-85320645D01*
X130987906Y-85320649D01*
X130872812Y-85406809D01*
X130872809Y-85406812D01*
X130786649Y-85521906D01*
X130786646Y-85521911D01*
X130737385Y-85653987D01*
X130695513Y-85709920D01*
X130630049Y-85734337D01*
X130561776Y-85719485D01*
X130533522Y-85698334D01*
X130411082Y-85575894D01*
X130217578Y-85440399D01*
X130003492Y-85340570D01*
X130003486Y-85340567D01*
X129790000Y-85283364D01*
X129790000Y-86178498D01*
X129682315Y-86129320D01*
X129575763Y-86114000D01*
X129504237Y-86114000D01*
X129397685Y-86129320D01*
X129290000Y-86178498D01*
X129290000Y-85283364D01*
X129289999Y-85283364D01*
X129076513Y-85340567D01*
X129076507Y-85340570D01*
X128862422Y-85440399D01*
X128862420Y-85440400D01*
X128668926Y-85575886D01*
X128668920Y-85575891D01*
X128501891Y-85742920D01*
X128501886Y-85742926D01*
X128366400Y-85936420D01*
X128366399Y-85936422D01*
X128266570Y-86150507D01*
X128266567Y-86150513D01*
X128209364Y-86363999D01*
X128209364Y-86364000D01*
X129106314Y-86364000D01*
X129080507Y-86404156D01*
X129040000Y-86542111D01*
X129040000Y-86685889D01*
X129080507Y-86823844D01*
X129106314Y-86864000D01*
X128197267Y-86864000D01*
X128130228Y-86844315D01*
X128109586Y-86827681D01*
X126529906Y-85248001D01*
X147550502Y-85248001D01*
X147570456Y-85476081D01*
X147570457Y-85476089D01*
X147629714Y-85697238D01*
X147629718Y-85697249D01*
X147706452Y-85861806D01*
X147726477Y-85904749D01*
X147857802Y-86092300D01*
X148019700Y-86254198D01*
X148207251Y-86385523D01*
X148332091Y-86443736D01*
X148414750Y-86482281D01*
X148414752Y-86482281D01*
X148414757Y-86482284D01*
X148635913Y-86541543D01*
X148798832Y-86555796D01*
X148863998Y-86561498D01*
X148864000Y-86561498D01*
X148864002Y-86561498D01*
X148921021Y-86556509D01*
X149092087Y-86541543D01*
X149313243Y-86482284D01*
X149520749Y-86385523D01*
X149708300Y-86254198D01*
X149870198Y-86092300D01*
X150001523Y-85904749D01*
X150098284Y-85697243D01*
X150157543Y-85476087D01*
X150177498Y-85248000D01*
X150175630Y-85226654D01*
X150160967Y-85059054D01*
X150157543Y-85019913D01*
X150098284Y-84798757D01*
X150001523Y-84591251D01*
X149870198Y-84403700D01*
X149708300Y-84241802D01*
X149520749Y-84110477D01*
X149520745Y-84110475D01*
X149313249Y-84013718D01*
X149313238Y-84013714D01*
X149092089Y-83954457D01*
X149092081Y-83954456D01*
X148864002Y-83934502D01*
X148863998Y-83934502D01*
X148635918Y-83954456D01*
X148635910Y-83954457D01*
X148414761Y-84013714D01*
X148414750Y-84013718D01*
X148207254Y-84110475D01*
X148207252Y-84110476D01*
X148207249Y-84110477D01*
X148207251Y-84110477D01*
X148019700Y-84241802D01*
X148019698Y-84241803D01*
X148019695Y-84241806D01*
X147857806Y-84403695D01*
X147726476Y-84591252D01*
X147726475Y-84591254D01*
X147629718Y-84798750D01*
X147629714Y-84798761D01*
X147570457Y-85019910D01*
X147570456Y-85019918D01*
X147550502Y-85247998D01*
X147550502Y-85248001D01*
X126529906Y-85248001D01*
X125258819Y-83976914D01*
X125225334Y-83915591D01*
X125222500Y-83889233D01*
X125222500Y-83492500D01*
X125242185Y-83425461D01*
X125294989Y-83379706D01*
X125346500Y-83368500D01*
X125387638Y-83368500D01*
X125387654Y-83368499D01*
X125414692Y-83365591D01*
X125448201Y-83361989D01*
X125585204Y-83310889D01*
X125702261Y-83223261D01*
X125789889Y-83106204D01*
X125838449Y-82976011D01*
X125840988Y-82969204D01*
X125840988Y-82969203D01*
X125840989Y-82969201D01*
X125845291Y-82929189D01*
X125847499Y-82908654D01*
X125847500Y-82908637D01*
X125847500Y-81311362D01*
X125847499Y-81311345D01*
X125843165Y-81271040D01*
X125840989Y-81250799D01*
X125832652Y-81228448D01*
X125809265Y-81165744D01*
X125789889Y-81113796D01*
X125702261Y-80996739D01*
X125585204Y-80909111D01*
X125585204Y-80909110D01*
X125448203Y-80858011D01*
X125387654Y-80851500D01*
X125387638Y-80851500D01*
X124321500Y-80851500D01*
X124254461Y-80831815D01*
X124208706Y-80779011D01*
X124197500Y-80727500D01*
X124197500Y-77618966D01*
X124217185Y-77551927D01*
X124269989Y-77506172D01*
X124281237Y-77501685D01*
X124391798Y-77463729D01*
X124471574Y-77436342D01*
X124669576Y-77329189D01*
X124847240Y-77190906D01*
X124999722Y-77025268D01*
X125090193Y-76886790D01*
X125143338Y-76841437D01*
X125212569Y-76832013D01*
X125275905Y-76861515D01*
X125297804Y-76886787D01*
X125388278Y-77025268D01*
X125388283Y-77025273D01*
X125388284Y-77025276D01*
X125540756Y-77190902D01*
X125540760Y-77190906D01*
X125718424Y-77329189D01*
X125718425Y-77329189D01*
X125718427Y-77329191D01*
X125765516Y-77354674D01*
X125916426Y-77436342D01*
X126129365Y-77509444D01*
X126351431Y-77546500D01*
X126576569Y-77546500D01*
X126798635Y-77509444D01*
X127011574Y-77436342D01*
X127209576Y-77329189D01*
X127387240Y-77190906D01*
X127539722Y-77025268D01*
X127630193Y-76886790D01*
X127683338Y-76841437D01*
X127752569Y-76832013D01*
X127815905Y-76861515D01*
X127837804Y-76886787D01*
X127928278Y-77025268D01*
X127928283Y-77025273D01*
X127928284Y-77025276D01*
X128080756Y-77190902D01*
X128080760Y-77190906D01*
X128258424Y-77329189D01*
X128258425Y-77329189D01*
X128258427Y-77329191D01*
X128305516Y-77354674D01*
X128456426Y-77436342D01*
X128669365Y-77509444D01*
X128891431Y-77546500D01*
X129116569Y-77546500D01*
X129338635Y-77509444D01*
X129551574Y-77436342D01*
X129749576Y-77329189D01*
X129927240Y-77190906D01*
X130079722Y-77025268D01*
X130170193Y-76886790D01*
X130223338Y-76841437D01*
X130292569Y-76832013D01*
X130355905Y-76861515D01*
X130377804Y-76886787D01*
X130468278Y-77025268D01*
X130468283Y-77025273D01*
X130468284Y-77025276D01*
X130620756Y-77190902D01*
X130620760Y-77190906D01*
X130798424Y-77329189D01*
X130798425Y-77329189D01*
X130798427Y-77329191D01*
X130845516Y-77354674D01*
X130996426Y-77436342D01*
X131209365Y-77509444D01*
X131431431Y-77546500D01*
X131656569Y-77546500D01*
X131878635Y-77509444D01*
X132091574Y-77436342D01*
X132289576Y-77329189D01*
X132467240Y-77190906D01*
X132619722Y-77025268D01*
X132710193Y-76886791D01*
X132763336Y-76841437D01*
X132832567Y-76832013D01*
X132895903Y-76861515D01*
X132917807Y-76886793D01*
X133008276Y-77025265D01*
X133008284Y-77025276D01*
X133160756Y-77190902D01*
X133160760Y-77190906D01*
X133338424Y-77329189D01*
X133338426Y-77329190D01*
X133338433Y-77329195D01*
X133385516Y-77354674D01*
X133435107Y-77403892D01*
X133450500Y-77463729D01*
X133450500Y-79921232D01*
X133430815Y-79988271D01*
X133414181Y-80008913D01*
X132580605Y-80842488D01*
X132519282Y-80875973D01*
X132460833Y-80874582D01*
X132428382Y-80865887D01*
X132428365Y-80865884D01*
X132209002Y-80846693D01*
X132208998Y-80846693D01*
X131989634Y-80865884D01*
X131989627Y-80865885D01*
X131776920Y-80922881D01*
X131577346Y-81015944D01*
X131577342Y-81015946D01*
X131396967Y-81142247D01*
X131396960Y-81142252D01*
X131241252Y-81297960D01*
X131241247Y-81297967D01*
X131114946Y-81478342D01*
X131114944Y-81478346D01*
X131021881Y-81677920D01*
X130964885Y-81890627D01*
X130964884Y-81890634D01*
X130945693Y-82109997D01*
X130945693Y-82110002D01*
X130963281Y-82311046D01*
X130964885Y-82329371D01*
X131021880Y-82542076D01*
X131021881Y-82542079D01*
X131021882Y-82542081D01*
X131114942Y-82741650D01*
X131114944Y-82741654D01*
X131241251Y-82922038D01*
X131396962Y-83077749D01*
X131577346Y-83204056D01*
X131577347Y-83204056D01*
X131577348Y-83204057D01*
X131617153Y-83222618D01*
X131665067Y-83262116D01*
X131743525Y-83370104D01*
X131743528Y-83370107D01*
X131866856Y-83472133D01*
X132011682Y-83540283D01*
X132168906Y-83570275D01*
X132328650Y-83560225D01*
X132480875Y-83510764D01*
X132616018Y-83425000D01*
X132725586Y-83308321D01*
X132743473Y-83275783D01*
X132793017Y-83226520D01*
X132799733Y-83223137D01*
X132840650Y-83204058D01*
X132840650Y-83204057D01*
X132840654Y-83204056D01*
X133021038Y-83077749D01*
X133176749Y-82922038D01*
X133303056Y-82741654D01*
X133396120Y-82542076D01*
X133453115Y-82329371D01*
X133472307Y-82110000D01*
X133453115Y-81890629D01*
X133444417Y-81858168D01*
X133446078Y-81788319D01*
X133476508Y-81738394D01*
X134472815Y-80742087D01*
X134485180Y-80732183D01*
X134485006Y-80731973D01*
X134491014Y-80727002D01*
X134491018Y-80727000D01*
X134538393Y-80676549D01*
X134539665Y-80675237D01*
X134560134Y-80654770D01*
X134564463Y-80649187D01*
X134568242Y-80644763D01*
X134600586Y-80610321D01*
X134610423Y-80592424D01*
X134621097Y-80576174D01*
X134633613Y-80560041D01*
X134652372Y-80516689D01*
X134654933Y-80511462D01*
X134677695Y-80470060D01*
X134682774Y-80450274D01*
X134689072Y-80431882D01*
X134697181Y-80413145D01*
X134704568Y-80366501D01*
X134705748Y-80360794D01*
X134717500Y-80315030D01*
X134717500Y-80294609D01*
X134719027Y-80275209D01*
X134719676Y-80271115D01*
X134722219Y-80255057D01*
X134717775Y-80208040D01*
X134717500Y-80202203D01*
X134717500Y-79248000D01*
X135824418Y-79248000D01*
X135842947Y-79459797D01*
X135844708Y-79479919D01*
X135844708Y-79479923D01*
X135904960Y-79704788D01*
X135904962Y-79704792D01*
X135904963Y-79704796D01*
X135954157Y-79810293D01*
X136003351Y-79915790D01*
X136003352Y-79915792D01*
X136136881Y-80106491D01*
X136136886Y-80106497D01*
X136301502Y-80271113D01*
X136301508Y-80271118D01*
X136492207Y-80404647D01*
X136492209Y-80404648D01*
X136703204Y-80503037D01*
X136703210Y-80503038D01*
X136703211Y-80503039D01*
X136734602Y-80511450D01*
X136928079Y-80563292D01*
X137122682Y-80580317D01*
X137159998Y-80583582D01*
X137160000Y-80583582D01*
X137160002Y-80583582D01*
X137190061Y-80580951D01*
X137391921Y-80563292D01*
X137616796Y-80503037D01*
X137827791Y-80404648D01*
X138018496Y-80271115D01*
X138183115Y-80106496D01*
X138316648Y-79915791D01*
X138415037Y-79704796D01*
X138475292Y-79479921D01*
X138495582Y-79248000D01*
X138475292Y-79016079D01*
X138428647Y-78841997D01*
X138415039Y-78791211D01*
X138415038Y-78791210D01*
X138415037Y-78791204D01*
X138316648Y-78580209D01*
X138293034Y-78546485D01*
X138183118Y-78389508D01*
X138183113Y-78389502D01*
X138018497Y-78224886D01*
X138018491Y-78224881D01*
X137827792Y-78091352D01*
X137827790Y-78091351D01*
X137714450Y-78038500D01*
X137616796Y-77992963D01*
X137616792Y-77992962D01*
X137616788Y-77992960D01*
X137391921Y-77932708D01*
X137160002Y-77912418D01*
X137159998Y-77912418D01*
X137005385Y-77925944D01*
X136928079Y-77932708D01*
X136928076Y-77932708D01*
X136703211Y-77992960D01*
X136703202Y-77992964D01*
X136492209Y-78091351D01*
X136492207Y-78091352D01*
X136301508Y-78224881D01*
X136301502Y-78224886D01*
X136136886Y-78389502D01*
X136136881Y-78389508D01*
X136003352Y-78580207D01*
X136003351Y-78580209D01*
X135904964Y-78791202D01*
X135904960Y-78791211D01*
X135844708Y-79016076D01*
X135844708Y-79016079D01*
X135824418Y-79248000D01*
X134717500Y-79248000D01*
X134717500Y-77463729D01*
X134737185Y-77396690D01*
X134782484Y-77354674D01*
X134829566Y-77329195D01*
X134829572Y-77329191D01*
X134829576Y-77329189D01*
X135007240Y-77190906D01*
X135159722Y-77025268D01*
X135250193Y-76886790D01*
X135303338Y-76841437D01*
X135372569Y-76832013D01*
X135435905Y-76861515D01*
X135457804Y-76886787D01*
X135548278Y-77025268D01*
X135548283Y-77025273D01*
X135548284Y-77025276D01*
X135700756Y-77190902D01*
X135700760Y-77190906D01*
X135878424Y-77329189D01*
X135878425Y-77329189D01*
X135878427Y-77329191D01*
X135925516Y-77354674D01*
X136076426Y-77436342D01*
X136289365Y-77509444D01*
X136511431Y-77546500D01*
X136736569Y-77546500D01*
X136958635Y-77509444D01*
X137171574Y-77436342D01*
X137369576Y-77329189D01*
X137547240Y-77190906D01*
X137699722Y-77025268D01*
X137822860Y-76836791D01*
X137913296Y-76630616D01*
X137968564Y-76412368D01*
X137973946Y-76347416D01*
X137987156Y-76188005D01*
X137987156Y-76187994D01*
X137968565Y-75963640D01*
X137968563Y-75963627D01*
X137940027Y-75850940D01*
X137942652Y-75781120D01*
X137982609Y-75723802D01*
X138047210Y-75697186D01*
X138060233Y-75696500D01*
X140285366Y-75696500D01*
X140301113Y-75698238D01*
X140301139Y-75697968D01*
X140308906Y-75698702D01*
X140308908Y-75698701D01*
X140308909Y-75698702D01*
X140318259Y-75698408D01*
X140377991Y-75696531D01*
X140379939Y-75696500D01*
X140408857Y-75696500D01*
X140410222Y-75696327D01*
X140415862Y-75695614D01*
X140421685Y-75695156D01*
X140447708Y-75694338D01*
X140468890Y-75693673D01*
X140478681Y-75690827D01*
X140488481Y-75687980D01*
X140507538Y-75684032D01*
X140527797Y-75681474D01*
X140571721Y-75664082D01*
X140577221Y-75662199D01*
X140622593Y-75649018D01*
X140640165Y-75638625D01*
X140657632Y-75630068D01*
X140676617Y-75622552D01*
X140714826Y-75594790D01*
X140719704Y-75591585D01*
X140760362Y-75567542D01*
X140774802Y-75553100D01*
X140789592Y-75540470D01*
X140806107Y-75528472D01*
X140836222Y-75492067D01*
X140840126Y-75487776D01*
X142360105Y-73967798D01*
X142421429Y-73934313D01*
X142447787Y-73931479D01*
X149504594Y-73931479D01*
X149571633Y-73951164D01*
G37*
G04 #@! TD.AperFunction*
G04 #@! TA.AperFunction,Conductor*
G36*
X92892318Y-89708100D02*
G01*
X92948251Y-89749972D01*
X92972668Y-89815436D01*
X92972984Y-89824282D01*
X92972984Y-97078850D01*
X92971245Y-97094597D01*
X92971516Y-97094623D01*
X92970781Y-97102390D01*
X92972953Y-97171474D01*
X92972984Y-97173422D01*
X92972984Y-97202343D01*
X92973868Y-97209340D01*
X92974326Y-97215163D01*
X92975810Y-97262373D01*
X92975811Y-97262375D01*
X92981506Y-97281979D01*
X92985451Y-97301026D01*
X92988010Y-97321281D01*
X92988011Y-97321284D01*
X92988012Y-97321287D01*
X93005398Y-97365200D01*
X93007290Y-97370728D01*
X93020465Y-97416076D01*
X93030856Y-97433646D01*
X93039416Y-97451119D01*
X93046931Y-97470101D01*
X93074693Y-97508311D01*
X93077900Y-97513194D01*
X93101942Y-97553846D01*
X93101946Y-97553850D01*
X93116373Y-97568277D01*
X93129011Y-97583073D01*
X93141012Y-97599591D01*
X93141014Y-97599593D01*
X93148861Y-97606084D01*
X93177415Y-97629706D01*
X93181715Y-97633619D01*
X98404998Y-102856902D01*
X103624662Y-108076566D01*
X103658147Y-108137889D01*
X103653163Y-108207581D01*
X103611291Y-108263514D01*
X103545827Y-108287931D01*
X103504888Y-108284022D01*
X103280154Y-108223805D01*
X103280150Y-108223804D01*
X103280149Y-108223804D01*
X103280148Y-108223803D01*
X103280143Y-108223803D01*
X103052064Y-108203849D01*
X103052060Y-108203849D01*
X102823980Y-108223803D01*
X102823972Y-108223804D01*
X102602823Y-108283061D01*
X102602821Y-108283062D01*
X102445739Y-108356310D01*
X102376661Y-108366801D01*
X102312878Y-108338281D01*
X102274639Y-108279804D01*
X102269807Y-108233122D01*
X102284913Y-108060463D01*
X102282149Y-108028875D01*
X102276558Y-107964963D01*
X102264958Y-107832376D01*
X102205699Y-107611220D01*
X102202636Y-107604652D01*
X102167151Y-107528554D01*
X102108938Y-107403714D01*
X101977613Y-107216163D01*
X101815715Y-107054265D01*
X101628164Y-106922940D01*
X101628160Y-106922938D01*
X101420664Y-106826181D01*
X101420653Y-106826177D01*
X101199504Y-106766920D01*
X101199496Y-106766919D01*
X100971417Y-106746965D01*
X100971413Y-106746965D01*
X100743333Y-106766919D01*
X100743325Y-106766920D01*
X100522176Y-106826177D01*
X100522165Y-106826181D01*
X100365093Y-106899425D01*
X100296016Y-106909917D01*
X100232232Y-106881397D01*
X100193993Y-106822920D01*
X100189161Y-106776238D01*
X100204267Y-106603579D01*
X100184312Y-106375492D01*
X100125053Y-106154336D01*
X100121990Y-106147768D01*
X100028293Y-105946833D01*
X100028292Y-105946831D01*
X100028292Y-105946830D01*
X99896967Y-105759279D01*
X99735069Y-105597381D01*
X99547518Y-105466056D01*
X99547514Y-105466054D01*
X99340018Y-105369297D01*
X99340007Y-105369293D01*
X99118858Y-105310036D01*
X99118850Y-105310035D01*
X98890771Y-105290081D01*
X98890767Y-105290081D01*
X98662687Y-105310035D01*
X98662679Y-105310036D01*
X98441530Y-105369293D01*
X98441519Y-105369297D01*
X98284447Y-105442541D01*
X98215370Y-105453033D01*
X98151586Y-105424513D01*
X98113347Y-105366036D01*
X98108515Y-105319354D01*
X98123621Y-105146695D01*
X98103666Y-104918608D01*
X98044407Y-104697452D01*
X98041344Y-104690884D01*
X97971214Y-104540489D01*
X97947646Y-104489946D01*
X97816321Y-104302395D01*
X97654423Y-104140497D01*
X97466872Y-104009172D01*
X97466868Y-104009170D01*
X97259372Y-103912413D01*
X97259361Y-103912409D01*
X97038212Y-103853152D01*
X97038204Y-103853151D01*
X96810125Y-103833197D01*
X96810121Y-103833197D01*
X96582041Y-103853151D01*
X96582033Y-103853152D01*
X96360884Y-103912409D01*
X96360873Y-103912413D01*
X96203801Y-103985657D01*
X96134724Y-103996149D01*
X96070940Y-103967629D01*
X96032701Y-103909152D01*
X96027869Y-103862470D01*
X96042975Y-103689811D01*
X96023020Y-103461724D01*
X95963761Y-103240568D01*
X95960698Y-103234000D01*
X95899306Y-103102343D01*
X95867000Y-103033062D01*
X95735675Y-102845511D01*
X95573777Y-102683613D01*
X95386226Y-102552288D01*
X95386222Y-102552286D01*
X95178726Y-102455529D01*
X95178715Y-102455525D01*
X94957566Y-102396268D01*
X94957558Y-102396267D01*
X94729479Y-102376313D01*
X94729475Y-102376313D01*
X94501395Y-102396267D01*
X94501387Y-102396268D01*
X94280238Y-102455525D01*
X94280227Y-102455529D01*
X94123155Y-102528773D01*
X94054078Y-102539265D01*
X93990294Y-102510745D01*
X93952055Y-102452268D01*
X93947223Y-102405586D01*
X93962329Y-102232927D01*
X93942374Y-102004840D01*
X93883115Y-101783684D01*
X93882439Y-101782235D01*
X93812479Y-101632204D01*
X93786354Y-101576178D01*
X93655029Y-101388627D01*
X93493131Y-101226729D01*
X93305580Y-101095404D01*
X93255154Y-101071890D01*
X93098080Y-100998645D01*
X93098069Y-100998641D01*
X92876920Y-100939384D01*
X92876912Y-100939383D01*
X92648833Y-100919429D01*
X92648829Y-100919429D01*
X92420749Y-100939383D01*
X92420741Y-100939384D01*
X92199592Y-100998641D01*
X92199590Y-100998642D01*
X92042508Y-101071890D01*
X91973430Y-101082381D01*
X91909647Y-101053861D01*
X91871408Y-100995384D01*
X91866576Y-100948699D01*
X91866611Y-100948310D01*
X91881682Y-100776042D01*
X91881575Y-100774824D01*
X91867237Y-100610939D01*
X91861727Y-100547955D01*
X91802468Y-100326799D01*
X91774396Y-100266599D01*
X91748354Y-100210751D01*
X91705707Y-100119293D01*
X91574382Y-99931742D01*
X91412484Y-99769844D01*
X91224933Y-99638519D01*
X91224929Y-99638517D01*
X91017433Y-99541760D01*
X91017422Y-99541756D01*
X90796273Y-99482499D01*
X90796265Y-99482498D01*
X90568186Y-99462544D01*
X90568182Y-99462544D01*
X90340102Y-99482498D01*
X90340094Y-99482499D01*
X90118945Y-99541756D01*
X90118943Y-99541757D01*
X89952967Y-99619152D01*
X89883889Y-99629643D01*
X89820106Y-99601123D01*
X89781866Y-99542646D01*
X89777035Y-99495961D01*
X89792504Y-99319158D01*
X89792504Y-99319155D01*
X89772679Y-99092558D01*
X89772677Y-99092547D01*
X89713807Y-98872840D01*
X89713803Y-98872831D01*
X89617672Y-98666675D01*
X89487198Y-98480341D01*
X89424192Y-98417334D01*
X88874115Y-99202927D01*
X88872703Y-99194010D01*
X88815179Y-99081113D01*
X88725583Y-98991517D01*
X88612686Y-98933993D01*
X88519019Y-98919158D01*
X88462426Y-98919158D01*
X89014616Y-98130547D01*
X89014616Y-98130546D01*
X88933869Y-98092893D01*
X88933858Y-98092889D01*
X88872061Y-98076331D01*
X88812401Y-98039966D01*
X88781872Y-97977119D01*
X88790167Y-97907743D01*
X88816471Y-97868878D01*
X88864788Y-97820561D01*
X88926109Y-97787078D01*
X88995801Y-97792062D01*
X89028628Y-97810389D01*
X89170983Y-97921190D01*
X89170985Y-97921191D01*
X89170988Y-97921193D01*
X89269272Y-97974381D01*
X89376273Y-98032287D01*
X89469951Y-98064447D01*
X89597045Y-98108079D01*
X89597047Y-98108079D01*
X89597049Y-98108080D01*
X89827288Y-98146500D01*
X89827289Y-98146500D01*
X90060711Y-98146500D01*
X90060712Y-98146500D01*
X90290951Y-98108080D01*
X90511727Y-98032287D01*
X90717017Y-97921190D01*
X90901220Y-97777818D01*
X91059314Y-97606083D01*
X91186984Y-97410669D01*
X91280749Y-97196907D01*
X91338051Y-96970626D01*
X91357327Y-96738000D01*
X91338051Y-96505374D01*
X91280749Y-96279093D01*
X91186984Y-96065331D01*
X91165881Y-96033030D01*
X91059313Y-95869915D01*
X90901223Y-95698185D01*
X90901213Y-95698176D01*
X90724285Y-95560467D01*
X90683472Y-95503757D01*
X90679797Y-95433984D01*
X90714429Y-95373301D01*
X90724285Y-95364760D01*
X90742798Y-95350351D01*
X90032231Y-94639784D01*
X90078138Y-94632865D01*
X90200357Y-94574007D01*
X90299798Y-94481740D01*
X90367625Y-94364260D01*
X90385499Y-94285946D01*
X91095186Y-94995634D01*
X91179484Y-94866606D01*
X91272682Y-94654135D01*
X91329638Y-94429218D01*
X91348798Y-94198005D01*
X91348798Y-94197994D01*
X91329638Y-93966781D01*
X91272682Y-93741864D01*
X91179483Y-93529390D01*
X91095186Y-93400364D01*
X90388449Y-94107101D01*
X90387673Y-94096735D01*
X90338113Y-93970459D01*
X90253535Y-93864401D01*
X90141453Y-93787984D01*
X90033699Y-93754746D01*
X90703249Y-93085196D01*
X90751924Y-93055172D01*
X90917658Y-93000255D01*
X91068252Y-92907366D01*
X91193366Y-92782252D01*
X91286255Y-92631658D01*
X91341909Y-92463701D01*
X91352500Y-92360037D01*
X91352499Y-91196765D01*
X91372184Y-91129727D01*
X91388813Y-91109090D01*
X92761303Y-89736601D01*
X92822626Y-89703116D01*
X92892318Y-89708100D01*
G37*
G04 #@! TD.AperFunction*
G04 #@! TA.AperFunction,Conductor*
G36*
X120195905Y-76861515D02*
G01*
X120217804Y-76886787D01*
X120308278Y-77025268D01*
X120308283Y-77025273D01*
X120308284Y-77025276D01*
X120460756Y-77190902D01*
X120460760Y-77190906D01*
X120638424Y-77329189D01*
X120638425Y-77329189D01*
X120638427Y-77329191D01*
X120685516Y-77354674D01*
X120836426Y-77436342D01*
X121049365Y-77509444D01*
X121271431Y-77546500D01*
X121496569Y-77546500D01*
X121718635Y-77509444D01*
X121931574Y-77436342D01*
X121982482Y-77408791D01*
X122050810Y-77394196D01*
X122116182Y-77418858D01*
X122157843Y-77474948D01*
X122165500Y-77517846D01*
X122165500Y-95029366D01*
X122163761Y-95045113D01*
X122164032Y-95045139D01*
X122163297Y-95052906D01*
X122165469Y-95121990D01*
X122165500Y-95123938D01*
X122165500Y-95152859D01*
X122166384Y-95159856D01*
X122166842Y-95165679D01*
X122168326Y-95212889D01*
X122168327Y-95212891D01*
X122174022Y-95232495D01*
X122177967Y-95251542D01*
X122180526Y-95271797D01*
X122180527Y-95271800D01*
X122180528Y-95271803D01*
X122197914Y-95315716D01*
X122199806Y-95321244D01*
X122212981Y-95366592D01*
X122223372Y-95384162D01*
X122231932Y-95401635D01*
X122239447Y-95420617D01*
X122267209Y-95458827D01*
X122270418Y-95463712D01*
X122287495Y-95492589D01*
X122294458Y-95504362D01*
X122294462Y-95504366D01*
X122308889Y-95518793D01*
X122321526Y-95533588D01*
X122333528Y-95550107D01*
X122369931Y-95580222D01*
X122374231Y-95584135D01*
X125280448Y-98490351D01*
X128145181Y-101355084D01*
X128178666Y-101416407D01*
X128181500Y-101442765D01*
X128181500Y-101876039D01*
X128161815Y-101943078D01*
X128109011Y-101988833D01*
X128039853Y-101998777D01*
X127976297Y-101969752D01*
X127969819Y-101963720D01*
X104273819Y-78267720D01*
X104240334Y-78206397D01*
X104237500Y-78180039D01*
X104237500Y-77463729D01*
X104257185Y-77396690D01*
X104302484Y-77354674D01*
X104349566Y-77329195D01*
X104349572Y-77329191D01*
X104349576Y-77329189D01*
X104527240Y-77190906D01*
X104679722Y-77025268D01*
X104770193Y-76886790D01*
X104823338Y-76841437D01*
X104892569Y-76832013D01*
X104955905Y-76861515D01*
X104977804Y-76886787D01*
X105068278Y-77025268D01*
X105068283Y-77025273D01*
X105068284Y-77025276D01*
X105220756Y-77190902D01*
X105220760Y-77190906D01*
X105398424Y-77329189D01*
X105398425Y-77329189D01*
X105398427Y-77329191D01*
X105445516Y-77354674D01*
X105596426Y-77436342D01*
X105809365Y-77509444D01*
X106031431Y-77546500D01*
X106256569Y-77546500D01*
X106478635Y-77509444D01*
X106691574Y-77436342D01*
X106889576Y-77329189D01*
X107067240Y-77190906D01*
X107219722Y-77025268D01*
X107310193Y-76886790D01*
X107363338Y-76841437D01*
X107432569Y-76832013D01*
X107495905Y-76861515D01*
X107517804Y-76886787D01*
X107608278Y-77025268D01*
X107608283Y-77025273D01*
X107608284Y-77025276D01*
X107760756Y-77190902D01*
X107760760Y-77190906D01*
X107938424Y-77329189D01*
X107938425Y-77329189D01*
X107938427Y-77329191D01*
X107985516Y-77354674D01*
X108136426Y-77436342D01*
X108349365Y-77509444D01*
X108571431Y-77546500D01*
X108796569Y-77546500D01*
X109018635Y-77509444D01*
X109231574Y-77436342D01*
X109429576Y-77329189D01*
X109607240Y-77190906D01*
X109759722Y-77025268D01*
X109850193Y-76886790D01*
X109903338Y-76841437D01*
X109972569Y-76832013D01*
X110035905Y-76861515D01*
X110057804Y-76886787D01*
X110148278Y-77025268D01*
X110148283Y-77025273D01*
X110148284Y-77025276D01*
X110300756Y-77190902D01*
X110300760Y-77190906D01*
X110478424Y-77329189D01*
X110478425Y-77329189D01*
X110478427Y-77329191D01*
X110525516Y-77354674D01*
X110676426Y-77436342D01*
X110889365Y-77509444D01*
X111111431Y-77546500D01*
X111336569Y-77546500D01*
X111558635Y-77509444D01*
X111771574Y-77436342D01*
X111969576Y-77329189D01*
X112147240Y-77190906D01*
X112299722Y-77025268D01*
X112390193Y-76886790D01*
X112443338Y-76841437D01*
X112512569Y-76832013D01*
X112575905Y-76861515D01*
X112597804Y-76886787D01*
X112688278Y-77025268D01*
X112688283Y-77025273D01*
X112688284Y-77025276D01*
X112840756Y-77190902D01*
X112840760Y-77190906D01*
X113018424Y-77329189D01*
X113018425Y-77329189D01*
X113018427Y-77329191D01*
X113065516Y-77354674D01*
X113216426Y-77436342D01*
X113429365Y-77509444D01*
X113651431Y-77546500D01*
X113876569Y-77546500D01*
X114098635Y-77509444D01*
X114311574Y-77436342D01*
X114509576Y-77329189D01*
X114687240Y-77190906D01*
X114839722Y-77025268D01*
X114930193Y-76886790D01*
X114983338Y-76841437D01*
X115052569Y-76832013D01*
X115115905Y-76861515D01*
X115137804Y-76886787D01*
X115228278Y-77025268D01*
X115228283Y-77025273D01*
X115228284Y-77025276D01*
X115380756Y-77190902D01*
X115380760Y-77190906D01*
X115558424Y-77329189D01*
X115558425Y-77329189D01*
X115558427Y-77329191D01*
X115605516Y-77354674D01*
X115756426Y-77436342D01*
X115969365Y-77509444D01*
X116191431Y-77546500D01*
X116416569Y-77546500D01*
X116638635Y-77509444D01*
X116851574Y-77436342D01*
X117049576Y-77329189D01*
X117227240Y-77190906D01*
X117379722Y-77025268D01*
X117470193Y-76886790D01*
X117523338Y-76841437D01*
X117592569Y-76832013D01*
X117655905Y-76861515D01*
X117677804Y-76886787D01*
X117768278Y-77025268D01*
X117768283Y-77025273D01*
X117768284Y-77025276D01*
X117920756Y-77190902D01*
X117920760Y-77190906D01*
X118098424Y-77329189D01*
X118098425Y-77329189D01*
X118098427Y-77329191D01*
X118145516Y-77354674D01*
X118296426Y-77436342D01*
X118509365Y-77509444D01*
X118731431Y-77546500D01*
X118956569Y-77546500D01*
X119178635Y-77509444D01*
X119391574Y-77436342D01*
X119589576Y-77329189D01*
X119767240Y-77190906D01*
X119919722Y-77025268D01*
X120010193Y-76886790D01*
X120063338Y-76841437D01*
X120132569Y-76832013D01*
X120195905Y-76861515D01*
G37*
G04 #@! TD.AperFunction*
G04 #@! TA.AperFunction,Conductor*
G36*
X97968024Y-88014346D02*
G01*
X98006264Y-88072822D01*
X98011096Y-88119507D01*
X97995991Y-88292162D01*
X97995991Y-88292166D01*
X98015945Y-88520246D01*
X98015946Y-88520254D01*
X98075203Y-88741403D01*
X98075207Y-88741414D01*
X98124548Y-88847226D01*
X98171966Y-88948914D01*
X98303291Y-89136465D01*
X98465189Y-89298363D01*
X98652740Y-89429688D01*
X98748345Y-89474269D01*
X98860239Y-89526446D01*
X98860241Y-89526446D01*
X98860246Y-89526449D01*
X99081402Y-89585708D01*
X99240211Y-89599602D01*
X99309487Y-89605663D01*
X99309489Y-89605663D01*
X99309491Y-89605663D01*
X99366510Y-89600674D01*
X99537576Y-89585708D01*
X99758732Y-89526449D01*
X99924708Y-89449053D01*
X99993783Y-89438562D01*
X100057567Y-89467082D01*
X100095806Y-89525558D01*
X100100638Y-89572243D01*
X100085170Y-89749046D01*
X100085170Y-89749051D01*
X100104994Y-89975648D01*
X100104996Y-89975659D01*
X100163866Y-90195366D01*
X100163870Y-90195375D01*
X100260001Y-90401531D01*
X100390475Y-90587865D01*
X100453480Y-90650870D01*
X101003558Y-89865277D01*
X101004971Y-89874197D01*
X101062495Y-89987094D01*
X101152091Y-90076690D01*
X101264988Y-90134214D01*
X101358655Y-90149049D01*
X101415246Y-90149049D01*
X100863056Y-90937659D01*
X100943809Y-90975314D01*
X100943818Y-90975318D01*
X101163525Y-91034188D01*
X101163536Y-91034190D01*
X101390134Y-91054015D01*
X101390138Y-91054015D01*
X101616735Y-91034190D01*
X101616746Y-91034188D01*
X101836453Y-90975318D01*
X101836462Y-90975315D01*
X101997312Y-90900309D01*
X102066389Y-90889817D01*
X102130173Y-90918336D01*
X102168413Y-90976813D01*
X102173245Y-91023498D01*
X102157284Y-91205932D01*
X102157284Y-91205935D01*
X102177238Y-91434015D01*
X102177239Y-91434023D01*
X102236496Y-91655172D01*
X102236497Y-91655174D01*
X102236498Y-91655177D01*
X102328704Y-91852915D01*
X102339196Y-91921991D01*
X102310676Y-91985775D01*
X102252200Y-92024014D01*
X102216322Y-92029318D01*
X99580585Y-92029318D01*
X99513546Y-92009633D01*
X99492904Y-91992999D01*
X96823662Y-89323757D01*
X96790177Y-89262434D01*
X96787343Y-89236076D01*
X96787343Y-88233240D01*
X96807028Y-88166201D01*
X96859832Y-88120446D01*
X96928990Y-88110502D01*
X96943435Y-88113464D01*
X97000756Y-88128824D01*
X97194874Y-88145807D01*
X97228841Y-88148779D01*
X97228843Y-88148779D01*
X97228845Y-88148779D01*
X97285864Y-88143790D01*
X97456930Y-88128824D01*
X97678086Y-88069565D01*
X97835167Y-87996317D01*
X97904240Y-87985826D01*
X97968024Y-88014346D01*
G37*
G04 #@! TD.AperFunction*
G04 #@! TA.AperFunction,Conductor*
G36*
X131620507Y-86404156D02*
G01*
X131580000Y-86542111D01*
X131580000Y-86685889D01*
X131620507Y-86823844D01*
X131646314Y-86864000D01*
X129973686Y-86864000D01*
X129999493Y-86823844D01*
X130040000Y-86685889D01*
X130040000Y-86542111D01*
X129999493Y-86404156D01*
X129973686Y-86364000D01*
X131646314Y-86364000D01*
X131620507Y-86404156D01*
G37*
G04 #@! TD.AperFunction*
G04 #@! TA.AperFunction,Conductor*
G36*
X96656879Y-64026185D02*
G01*
X96702634Y-64078989D01*
X96712578Y-64148147D01*
X96709615Y-64162593D01*
X96693860Y-64221390D01*
X96693858Y-64221400D01*
X96674034Y-64447997D01*
X96674034Y-64448002D01*
X96693858Y-64674599D01*
X96693860Y-64674610D01*
X96752730Y-64894317D01*
X96752734Y-64894326D01*
X96848865Y-65100481D01*
X96848866Y-65100483D01*
X96899973Y-65173471D01*
X96899973Y-65173472D01*
X97581045Y-64492399D01*
X97593835Y-64573148D01*
X97651359Y-64686045D01*
X97740955Y-64775641D01*
X97853852Y-64833165D01*
X97934599Y-64845953D01*
X97253526Y-65527025D01*
X97253526Y-65527026D01*
X97326512Y-65578131D01*
X97326516Y-65578133D01*
X97532673Y-65674265D01*
X97532682Y-65674269D01*
X97752389Y-65733139D01*
X97752400Y-65733141D01*
X97978998Y-65752966D01*
X97979002Y-65752966D01*
X98205599Y-65733141D01*
X98205610Y-65733139D01*
X98425317Y-65674269D01*
X98425331Y-65674264D01*
X98631478Y-65578136D01*
X98704472Y-65527025D01*
X98023401Y-64845953D01*
X98104148Y-64833165D01*
X98217045Y-64775641D01*
X98306641Y-64686045D01*
X98364165Y-64573148D01*
X98376953Y-64492400D01*
X99058025Y-65173472D01*
X99109136Y-65100478D01*
X99205264Y-64894331D01*
X99205269Y-64894317D01*
X99264139Y-64674610D01*
X99264141Y-64674599D01*
X99283966Y-64448002D01*
X99283966Y-64447997D01*
X99264141Y-64221400D01*
X99264139Y-64221390D01*
X99248385Y-64162593D01*
X99250048Y-64092744D01*
X99289210Y-64034881D01*
X99353439Y-64007377D01*
X99368160Y-64006500D01*
X102009500Y-64006500D01*
X102076539Y-64026185D01*
X102122294Y-64078989D01*
X102133500Y-64130500D01*
X102133500Y-65922654D01*
X102140011Y-65983202D01*
X102140011Y-65983204D01*
X102180797Y-66092552D01*
X102191111Y-66120204D01*
X102278739Y-66237261D01*
X102395796Y-66324889D01*
X102532799Y-66375989D01*
X102560050Y-66378918D01*
X102593345Y-66382499D01*
X102593362Y-66382500D01*
X104390638Y-66382500D01*
X104390654Y-66382499D01*
X104417692Y-66379591D01*
X104451201Y-66375989D01*
X104588204Y-66324889D01*
X104705261Y-66237261D01*
X104792889Y-66120204D01*
X104838138Y-65998887D01*
X104880009Y-65942956D01*
X104945474Y-65918539D01*
X105013746Y-65933391D01*
X105045545Y-65958236D01*
X105108760Y-66026906D01*
X105286424Y-66165189D01*
X105286425Y-66165189D01*
X105286427Y-66165191D01*
X105413135Y-66233761D01*
X105484426Y-66272342D01*
X105697365Y-66345444D01*
X105919431Y-66382500D01*
X106144569Y-66382500D01*
X106366635Y-66345444D01*
X106579574Y-66272342D01*
X106777576Y-66165189D01*
X106955240Y-66026906D01*
X107071931Y-65900147D01*
X107107715Y-65861276D01*
X107107716Y-65861274D01*
X107107722Y-65861268D01*
X107230860Y-65672791D01*
X107321296Y-65466616D01*
X107376564Y-65248368D01*
X107377483Y-65237276D01*
X107395156Y-65024005D01*
X107395156Y-65023994D01*
X107376565Y-64799640D01*
X107376563Y-64799628D01*
X107347800Y-64686045D01*
X107321296Y-64581384D01*
X107230860Y-64375209D01*
X107115292Y-64198318D01*
X107095106Y-64131432D01*
X107114286Y-64064247D01*
X107166744Y-64018096D01*
X107219102Y-64006500D01*
X115386821Y-64006500D01*
X115453860Y-64026185D01*
X115499615Y-64078989D01*
X115509559Y-64148147D01*
X115480534Y-64211703D01*
X115462985Y-64228352D01*
X115456783Y-64233178D01*
X115456776Y-64233185D01*
X115298686Y-64404915D01*
X115171015Y-64600331D01*
X115077251Y-64814092D01*
X115019948Y-65040377D01*
X115000673Y-65272994D01*
X115000673Y-65273005D01*
X115019948Y-65505622D01*
X115019948Y-65505625D01*
X115019949Y-65505626D01*
X115047205Y-65613260D01*
X115056305Y-65649193D01*
X115053680Y-65719013D01*
X115023780Y-65767314D01*
X112345914Y-68445181D01*
X112284591Y-68478666D01*
X112258233Y-68481500D01*
X102106947Y-68481500D01*
X102091195Y-68479760D01*
X102091170Y-68480032D01*
X102083408Y-68479297D01*
X102014312Y-68481469D01*
X102012364Y-68481500D01*
X101983459Y-68481500D01*
X101983456Y-68481500D01*
X101983444Y-68481501D01*
X101976452Y-68482384D01*
X101970635Y-68482841D01*
X101923426Y-68484325D01*
X101923424Y-68484326D01*
X101903811Y-68490023D01*
X101884774Y-68493965D01*
X101864523Y-68496524D01*
X101864517Y-68496526D01*
X101820614Y-68513907D01*
X101815090Y-68515798D01*
X101769721Y-68528981D01*
X101769716Y-68528983D01*
X101752142Y-68539376D01*
X101734677Y-68547932D01*
X101715702Y-68555445D01*
X101715700Y-68555446D01*
X101677491Y-68583206D01*
X101672609Y-68586412D01*
X101631950Y-68610458D01*
X101617515Y-68624894D01*
X101602727Y-68637525D01*
X101586209Y-68649526D01*
X101586203Y-68649532D01*
X101556095Y-68685925D01*
X101552164Y-68690246D01*
X94451665Y-75790745D01*
X94390342Y-75824230D01*
X94320650Y-75819246D01*
X94264717Y-75777374D01*
X94240300Y-75711910D01*
X94239984Y-75703064D01*
X94239984Y-66134282D01*
X94259669Y-66067243D01*
X94276303Y-66046601D01*
X94404365Y-65918539D01*
X94566570Y-65756333D01*
X94627891Y-65722850D01*
X94686341Y-65724240D01*
X94750913Y-65741543D01*
X94913832Y-65755796D01*
X94978998Y-65761498D01*
X94979000Y-65761498D01*
X94979002Y-65761498D01*
X95038013Y-65756335D01*
X95207087Y-65741543D01*
X95428243Y-65682284D01*
X95635749Y-65585523D01*
X95823300Y-65454198D01*
X95985198Y-65292300D01*
X96116523Y-65104749D01*
X96213284Y-64897243D01*
X96272543Y-64676087D01*
X96292498Y-64448000D01*
X96272543Y-64219913D01*
X96257184Y-64162592D01*
X96258847Y-64092744D01*
X96298009Y-64034881D01*
X96362238Y-64007377D01*
X96376959Y-64006500D01*
X96589840Y-64006500D01*
X96656879Y-64026185D01*
G37*
G04 #@! TD.AperFunction*
G04 #@! TA.AperFunction,Conductor*
G36*
X134565905Y-65073515D02*
G01*
X134587804Y-65098787D01*
X134678278Y-65237268D01*
X134678283Y-65237273D01*
X134678284Y-65237276D01*
X134806577Y-65376637D01*
X134830760Y-65402906D01*
X135008424Y-65541189D01*
X135008425Y-65541189D01*
X135008427Y-65541191D01*
X135076696Y-65578136D01*
X135206426Y-65648342D01*
X135373539Y-65705712D01*
X135411922Y-65718889D01*
X135419365Y-65721444D01*
X135641431Y-65758500D01*
X135866569Y-65758500D01*
X136088630Y-65721445D01*
X136088631Y-65721444D01*
X136088635Y-65721444D01*
X136088637Y-65721442D01*
X136092849Y-65720376D01*
X136162669Y-65722988D01*
X136210991Y-65752895D01*
X141464202Y-71006106D01*
X141497687Y-71067429D01*
X141500521Y-71093787D01*
X141500521Y-72984211D01*
X141480836Y-73051250D01*
X141464202Y-73071892D01*
X140142914Y-74393181D01*
X140081591Y-74426666D01*
X140055233Y-74429500D01*
X137954445Y-74429500D01*
X137887406Y-74409815D01*
X137841651Y-74357011D01*
X137831707Y-74287853D01*
X137840889Y-74255691D01*
X137877164Y-74172989D01*
X137913296Y-74090616D01*
X137968564Y-73872368D01*
X137975647Y-73786889D01*
X137987156Y-73648005D01*
X137987156Y-73647994D01*
X137968565Y-73423640D01*
X137968563Y-73423628D01*
X137941612Y-73317202D01*
X137913296Y-73205384D01*
X137822860Y-72999209D01*
X137813061Y-72984211D01*
X137761290Y-72904970D01*
X137699722Y-72810732D01*
X137699719Y-72810729D01*
X137699715Y-72810723D01*
X137547243Y-72645097D01*
X137547238Y-72645092D01*
X137369577Y-72506812D01*
X137369572Y-72506808D01*
X137171580Y-72399661D01*
X137171577Y-72399659D01*
X137171574Y-72399658D01*
X137171571Y-72399657D01*
X137171569Y-72399656D01*
X136958637Y-72326556D01*
X136736569Y-72289500D01*
X136511431Y-72289500D01*
X136289362Y-72326556D01*
X136076430Y-72399656D01*
X136076419Y-72399661D01*
X135878427Y-72506808D01*
X135878422Y-72506812D01*
X135700761Y-72645092D01*
X135700756Y-72645097D01*
X135548284Y-72810723D01*
X135548276Y-72810734D01*
X135457808Y-72949206D01*
X135404662Y-72994562D01*
X135335431Y-73003986D01*
X135272095Y-72974484D01*
X135250192Y-72949206D01*
X135192286Y-72860576D01*
X135159722Y-72810732D01*
X135159719Y-72810729D01*
X135159715Y-72810723D01*
X135007243Y-72645097D01*
X135007238Y-72645092D01*
X134829577Y-72506812D01*
X134829572Y-72506808D01*
X134631580Y-72399661D01*
X134631577Y-72399659D01*
X134631574Y-72399658D01*
X134631571Y-72399657D01*
X134631569Y-72399656D01*
X134418637Y-72326556D01*
X134196569Y-72289500D01*
X133971431Y-72289500D01*
X133749362Y-72326556D01*
X133536430Y-72399656D01*
X133536419Y-72399661D01*
X133338427Y-72506808D01*
X133338422Y-72506812D01*
X133160761Y-72645092D01*
X133160756Y-72645097D01*
X133008284Y-72810723D01*
X133008276Y-72810734D01*
X132917808Y-72949206D01*
X132864662Y-72994562D01*
X132795431Y-73003986D01*
X132732095Y-72974484D01*
X132710192Y-72949206D01*
X132652286Y-72860576D01*
X132619722Y-72810732D01*
X132619719Y-72810729D01*
X132619715Y-72810723D01*
X132467243Y-72645097D01*
X132467238Y-72645092D01*
X132289577Y-72506812D01*
X132289572Y-72506808D01*
X132091580Y-72399661D01*
X132091577Y-72399659D01*
X132091574Y-72399658D01*
X132091571Y-72399657D01*
X132091569Y-72399656D01*
X131878637Y-72326556D01*
X131656569Y-72289500D01*
X131431431Y-72289500D01*
X131209362Y-72326556D01*
X130996430Y-72399656D01*
X130996419Y-72399661D01*
X130798427Y-72506808D01*
X130798422Y-72506812D01*
X130620761Y-72645092D01*
X130620756Y-72645097D01*
X130468284Y-72810723D01*
X130468276Y-72810734D01*
X130377808Y-72949206D01*
X130324662Y-72994562D01*
X130255431Y-73003986D01*
X130192095Y-72974484D01*
X130170192Y-72949206D01*
X130112286Y-72860576D01*
X130079722Y-72810732D01*
X130079719Y-72810729D01*
X130079715Y-72810723D01*
X129927243Y-72645097D01*
X129927238Y-72645092D01*
X129749577Y-72506812D01*
X129749572Y-72506808D01*
X129551580Y-72399661D01*
X129551577Y-72399659D01*
X129551574Y-72399658D01*
X129551571Y-72399657D01*
X129551569Y-72399656D01*
X129338637Y-72326556D01*
X129116569Y-72289500D01*
X128891431Y-72289500D01*
X128669362Y-72326556D01*
X128456430Y-72399656D01*
X128456419Y-72399661D01*
X128258427Y-72506808D01*
X128258422Y-72506812D01*
X128080761Y-72645092D01*
X128080756Y-72645097D01*
X127928284Y-72810723D01*
X127928276Y-72810734D01*
X127837808Y-72949206D01*
X127784662Y-72994562D01*
X127715431Y-73003986D01*
X127652095Y-72974484D01*
X127630192Y-72949206D01*
X127572286Y-72860576D01*
X127539722Y-72810732D01*
X127539719Y-72810729D01*
X127539715Y-72810723D01*
X127387243Y-72645097D01*
X127387238Y-72645092D01*
X127209577Y-72506812D01*
X127209572Y-72506808D01*
X127161510Y-72480798D01*
X127111920Y-72431578D01*
X127096813Y-72363361D01*
X127120984Y-72297806D01*
X127132841Y-72284070D01*
X133602817Y-65814095D01*
X133615178Y-65804194D01*
X133615004Y-65803984D01*
X133621013Y-65799011D01*
X133621018Y-65799009D01*
X133668348Y-65748606D01*
X133669619Y-65747293D01*
X133690135Y-65726779D01*
X133694461Y-65721201D01*
X133698250Y-65716764D01*
X133730586Y-65682330D01*
X133730589Y-65682322D01*
X133734652Y-65676732D01*
X133775953Y-65640560D01*
X133959576Y-65541189D01*
X134137240Y-65402906D01*
X134239061Y-65292300D01*
X134289715Y-65237276D01*
X134289715Y-65237275D01*
X134289722Y-65237268D01*
X134380193Y-65098790D01*
X134433338Y-65053437D01*
X134502569Y-65044013D01*
X134565905Y-65073515D01*
G37*
G04 #@! TD.AperFunction*
G04 #@! TA.AperFunction,Conductor*
G36*
X103144507Y-73438156D02*
G01*
X103104000Y-73576111D01*
X103104000Y-73719889D01*
X103144507Y-73857844D01*
X103170314Y-73898000D01*
X101497686Y-73898000D01*
X101523493Y-73857844D01*
X101564000Y-73719889D01*
X101564000Y-73576111D01*
X101523493Y-73438156D01*
X101497686Y-73398000D01*
X103170314Y-73398000D01*
X103144507Y-73438156D01*
G37*
G04 #@! TD.AperFunction*
G04 #@! TA.AperFunction,Conductor*
G36*
X105684507Y-73438156D02*
G01*
X105644000Y-73576111D01*
X105644000Y-73719889D01*
X105684507Y-73857844D01*
X105710314Y-73898000D01*
X104037686Y-73898000D01*
X104063493Y-73857844D01*
X104104000Y-73719889D01*
X104104000Y-73576111D01*
X104063493Y-73438156D01*
X104037686Y-73398000D01*
X105710314Y-73398000D01*
X105684507Y-73438156D01*
G37*
G04 #@! TD.AperFunction*
G04 #@! TA.AperFunction,Conductor*
G36*
X118510327Y-65374265D02*
G01*
X118559887Y-65500541D01*
X118644465Y-65606599D01*
X118756547Y-65683016D01*
X118864298Y-65716252D01*
X118153529Y-66427021D01*
X118139430Y-66489025D01*
X118118842Y-66516260D01*
X112136256Y-72498846D01*
X112074933Y-72532331D01*
X112005241Y-72527347D01*
X111972413Y-72509019D01*
X111969577Y-72506811D01*
X111969573Y-72506809D01*
X111771580Y-72399661D01*
X111771577Y-72399659D01*
X111771574Y-72399658D01*
X111771571Y-72399657D01*
X111771569Y-72399656D01*
X111558637Y-72326556D01*
X111336569Y-72289500D01*
X111111431Y-72289500D01*
X110889362Y-72326556D01*
X110676430Y-72399656D01*
X110676419Y-72399661D01*
X110478427Y-72506808D01*
X110478422Y-72506812D01*
X110300761Y-72645092D01*
X110300756Y-72645097D01*
X110148284Y-72810723D01*
X110148276Y-72810734D01*
X110057808Y-72949206D01*
X110004662Y-72994562D01*
X109935431Y-73003986D01*
X109872095Y-72974484D01*
X109850192Y-72949206D01*
X109792286Y-72860576D01*
X109759722Y-72810732D01*
X109759719Y-72810729D01*
X109759715Y-72810723D01*
X109607243Y-72645097D01*
X109607238Y-72645092D01*
X109429577Y-72506812D01*
X109429572Y-72506808D01*
X109231580Y-72399661D01*
X109231577Y-72399659D01*
X109231574Y-72399658D01*
X109231571Y-72399657D01*
X109231569Y-72399656D01*
X109018637Y-72326556D01*
X108796569Y-72289500D01*
X108571431Y-72289500D01*
X108349362Y-72326556D01*
X108136430Y-72399656D01*
X108136419Y-72399661D01*
X107938427Y-72506808D01*
X107938422Y-72506812D01*
X107760761Y-72645092D01*
X107760756Y-72645097D01*
X107608284Y-72810723D01*
X107608276Y-72810734D01*
X107514251Y-72954650D01*
X107461105Y-73000007D01*
X107391873Y-73009430D01*
X107328538Y-72979928D01*
X107308868Y-72957951D01*
X107182113Y-72776926D01*
X107182108Y-72776920D01*
X107015082Y-72609894D01*
X106821578Y-72474399D01*
X106607492Y-72374570D01*
X106607486Y-72374567D01*
X106394000Y-72317364D01*
X106394000Y-73212498D01*
X106286315Y-73163320D01*
X106179763Y-73148000D01*
X106108237Y-73148000D01*
X106001685Y-73163320D01*
X105894000Y-73212498D01*
X105894000Y-72317364D01*
X105893999Y-72317364D01*
X105680513Y-72374567D01*
X105680507Y-72374570D01*
X105466422Y-72474399D01*
X105466420Y-72474400D01*
X105272926Y-72609886D01*
X105272920Y-72609891D01*
X105105891Y-72776920D01*
X105105890Y-72776922D01*
X104975575Y-72963031D01*
X104920998Y-73006655D01*
X104851499Y-73013848D01*
X104789145Y-72982326D01*
X104772425Y-72963031D01*
X104642109Y-72776922D01*
X104642108Y-72776920D01*
X104475082Y-72609894D01*
X104281578Y-72474399D01*
X104067492Y-72374570D01*
X104067486Y-72374567D01*
X103854000Y-72317364D01*
X103854000Y-73212498D01*
X103746315Y-73163320D01*
X103639763Y-73148000D01*
X103568237Y-73148000D01*
X103461685Y-73163320D01*
X103354000Y-73212498D01*
X103354000Y-72317364D01*
X103353999Y-72317364D01*
X103140513Y-72374567D01*
X103140507Y-72374570D01*
X102926422Y-72474399D01*
X102926420Y-72474400D01*
X102732926Y-72609886D01*
X102610477Y-72732335D01*
X102549154Y-72765819D01*
X102479462Y-72760835D01*
X102423529Y-72718963D01*
X102406614Y-72687986D01*
X102357354Y-72555913D01*
X102357350Y-72555906D01*
X102271190Y-72440812D01*
X102271187Y-72440809D01*
X102156093Y-72354649D01*
X102156086Y-72354645D01*
X102021379Y-72304403D01*
X102021372Y-72304401D01*
X101961844Y-72298000D01*
X101314000Y-72298000D01*
X101314000Y-73212498D01*
X101206315Y-73163320D01*
X101099763Y-73148000D01*
X101028237Y-73148000D01*
X100921685Y-73163320D01*
X100814000Y-73212498D01*
X100814000Y-72298000D01*
X100166155Y-72298000D01*
X100106627Y-72304401D01*
X100106617Y-72304403D01*
X100039751Y-72329343D01*
X99970060Y-72334327D01*
X99908737Y-72300841D01*
X99875253Y-72239518D01*
X99880238Y-72169826D01*
X99908736Y-72125482D01*
X102249400Y-69784819D01*
X102310723Y-69751334D01*
X102337081Y-69748500D01*
X112488366Y-69748500D01*
X112504113Y-69750238D01*
X112504139Y-69749968D01*
X112511906Y-69750702D01*
X112511908Y-69750701D01*
X112511909Y-69750702D01*
X112521259Y-69750408D01*
X112580991Y-69748531D01*
X112582939Y-69748500D01*
X112611857Y-69748500D01*
X112613222Y-69748327D01*
X112618862Y-69747614D01*
X112624685Y-69747156D01*
X112650708Y-69746338D01*
X112671890Y-69745673D01*
X112681681Y-69742827D01*
X112691481Y-69739980D01*
X112710538Y-69736032D01*
X112730797Y-69733474D01*
X112774721Y-69716082D01*
X112780221Y-69714199D01*
X112825593Y-69701018D01*
X112843165Y-69690625D01*
X112860632Y-69682068D01*
X112879617Y-69674552D01*
X112917826Y-69646790D01*
X112922704Y-69643585D01*
X112963362Y-69619542D01*
X112977802Y-69605100D01*
X112992592Y-69592470D01*
X113009107Y-69580472D01*
X113039222Y-69544067D01*
X113043126Y-69539776D01*
X115917606Y-66665296D01*
X115978927Y-66631813D01*
X116045545Y-66635697D01*
X116067049Y-66643080D01*
X116297288Y-66681500D01*
X116530711Y-66681500D01*
X116530712Y-66681500D01*
X116760951Y-66643080D01*
X116981727Y-66567287D01*
X117187017Y-66456190D01*
X117371220Y-66312818D01*
X117529314Y-66141083D01*
X117585267Y-66055439D01*
X117638413Y-66010083D01*
X117707644Y-66000659D01*
X117770980Y-66030161D01*
X117792885Y-66055439D01*
X117802812Y-66070633D01*
X118509550Y-65363896D01*
X118510327Y-65374265D01*
G37*
G04 #@! TD.AperFunction*
G04 #@! TA.AperFunction,Conductor*
G36*
X118097388Y-64026185D02*
G01*
X118143143Y-64078989D01*
X118149874Y-64115321D01*
X118865768Y-64831215D01*
X118819862Y-64838135D01*
X118697643Y-64896993D01*
X118598202Y-64989260D01*
X118530375Y-65106740D01*
X118512500Y-65185053D01*
X117802812Y-64475365D01*
X117792885Y-64490560D01*
X117739738Y-64535916D01*
X117670507Y-64545340D01*
X117607171Y-64515838D01*
X117585267Y-64490559D01*
X117529313Y-64404915D01*
X117371223Y-64233185D01*
X117371216Y-64233178D01*
X117365015Y-64228352D01*
X117324203Y-64171641D01*
X117320530Y-64101868D01*
X117355162Y-64041185D01*
X117417104Y-64008859D01*
X117441179Y-64006500D01*
X118030349Y-64006500D01*
X118097388Y-64026185D01*
G37*
G04 #@! TD.AperFunction*
M02*
