G04 #@! TF.GenerationSoftware,KiCad,Pcbnew,7.0.11+dfsg-1build4*
G04 #@! TF.CreationDate,2024-12-30T17:53:10+00:00*
G04 #@! TF.ProjectId,Swarm-B_20230626,53776172-6d2d-4425-9f32-303233303632,rev?*
G04 #@! TF.SameCoordinates,Original*
G04 #@! TF.FileFunction,Soldermask,Bot*
G04 #@! TF.FilePolarity,Negative*
%FSLAX46Y46*%
G04 Gerber Fmt 4.6, Leading zero omitted, Abs format (unit mm)*
G04 Created by KiCad (PCBNEW 7.0.11+dfsg-1build4) date 2024-12-30 17:53:10*
%MOMM*%
%LPD*%
G01*
G04 APERTURE LIST*
G04 Aperture macros list*
%AMRoundRect*
0 Rectangle with rounded corners*
0 $1 Rounding radius*
0 $2 $3 $4 $5 $6 $7 $8 $9 X,Y pos of 4 corners*
0 Add a 4 corners polygon primitive as box body*
4,1,4,$2,$3,$4,$5,$6,$7,$8,$9,$2,$3,0*
0 Add four circle primitives for the rounded corners*
1,1,$1+$1,$2,$3*
1,1,$1+$1,$4,$5*
1,1,$1+$1,$6,$7*
1,1,$1+$1,$8,$9*
0 Add four rect primitives between the rounded corners*
20,1,$1+$1,$2,$3,$4,$5,0*
20,1,$1+$1,$4,$5,$6,$7,0*
20,1,$1+$1,$6,$7,$8,$9,0*
20,1,$1+$1,$8,$9,$2,$3,0*%
%AMHorizOval*
0 Thick line with rounded ends*
0 $1 width*
0 $2 $3 position (X,Y) of the first rounded end (center of the circle)*
0 $4 $5 position (X,Y) of the second rounded end (center of the circle)*
0 Add line between two ends*
20,1,$1,$2,$3,$4,$5,0*
0 Add two circle primitives to create the rounded ends*
1,1,$1,$2,$3*
1,1,$1,$4,$5*%
%AMRotRect*
0 Rectangle, with rotation*
0 The origin of the aperture is its center*
0 $1 length*
0 $2 width*
0 $3 Rotation angle, in degrees counterclockwise*
0 Add horizontal line*
21,1,$1,$2,0,0,$3*%
G04 Aperture macros list end*
%ADD10C,1.800000*%
%ADD11R,1.800000X1.800000*%
%ADD12RoundRect,0.248400X-0.651600X0.651600X-0.651600X-0.651600X0.651600X-0.651600X0.651600X0.651600X0*%
%ADD13O,1.700000X1.700000*%
%ADD14R,1.700000X1.700000*%
%ADD15C,1.600000*%
%ADD16O,1.400000X1.400000*%
%ADD17C,1.400000*%
%ADD18C,2.000000*%
%ADD19RotRect,1.800000X1.800000X315.000000*%
%ADD20RotRect,1.800000X1.800000X45.000000*%
%ADD21HorizOval,1.700000X0.000000X0.000000X0.000000X0.000000X0*%
%ADD22RotRect,1.700000X1.700000X25.000000*%
%ADD23RoundRect,0.248400X-0.651600X-0.651600X0.651600X-0.651600X0.651600X0.651600X-0.651600X0.651600X0*%
%ADD24HorizOval,1.700000X0.000000X0.000000X0.000000X0.000000X0*%
%ADD25RotRect,1.700000X1.700000X335.000000*%
%ADD26RoundRect,0.248400X0.651600X-0.651600X0.651600X0.651600X-0.651600X0.651600X-0.651600X-0.651600X0*%
%ADD27RoundRect,0.248400X0.651600X0.651600X-0.651600X0.651600X-0.651600X-0.651600X0.651600X-0.651600X0*%
%ADD28RotRect,1.800000X1.800000X225.000000*%
%ADD29RotRect,1.800000X1.800000X135.000000*%
%ADD30HorizOval,1.600000X0.000000X0.000000X0.000000X0.000000X0*%
%ADD31RotRect,1.600000X1.600000X235.000000*%
%ADD32O,1.600000X1.600000*%
%ADD33R,1.600000X1.600000*%
%ADD34C,1.440000*%
G04 APERTURE END LIST*
D10*
X120274000Y-126310000D03*
D11*
X117734000Y-126310000D03*
D10*
X117404000Y-62020000D03*
D11*
X119944000Y-62020000D03*
D10*
X86714000Y-95560000D03*
D11*
X86714000Y-93020000D03*
D10*
X151534000Y-93260000D03*
D11*
X151534000Y-95800000D03*
D10*
X89944000Y-96738000D03*
X89944000Y-94198000D03*
D12*
X89944000Y-91658000D03*
D13*
X103594000Y-81788000D03*
D14*
X103594000Y-84328000D03*
D15*
X148864000Y-88248000D03*
X148864000Y-85248000D03*
D13*
X132080000Y-101854000D03*
D14*
X129540000Y-101854000D03*
D13*
X129540000Y-86614000D03*
D14*
X132080000Y-86614000D03*
D13*
X129540000Y-89154000D03*
D14*
X132080000Y-89154000D03*
D16*
X89154000Y-117348000D03*
D17*
X96774000Y-117348000D03*
D16*
X129764000Y-117348000D03*
D17*
X137384000Y-117348000D03*
D13*
X106032000Y-65024000D03*
D14*
X103492000Y-65024000D03*
D18*
X89254000Y-75458000D03*
X89254000Y-81958000D03*
X84754000Y-75458000D03*
X84754000Y-81958000D03*
D15*
X98253076Y-63175000D03*
X95655000Y-64675000D03*
D13*
X138294000Y-64400000D03*
X135754000Y-64400000D03*
X133214000Y-64400000D03*
D14*
X130674000Y-64400000D03*
D10*
X92333951Y-122349951D03*
D19*
X90537900Y-120553900D03*
D16*
X129794000Y-112268000D03*
D17*
X137414000Y-112268000D03*
D15*
X95649124Y-123899800D03*
X98247200Y-125399800D03*
D16*
X129724000Y-114808000D03*
D17*
X137344000Y-114808000D03*
D10*
X147260051Y-120643949D03*
D20*
X145464000Y-122440000D03*
D21*
X152413951Y-78929965D03*
X151340501Y-76627944D03*
X150267050Y-74325922D03*
D22*
X149193600Y-72023900D03*
D10*
X121454000Y-123173000D03*
X118914000Y-123173000D03*
D23*
X116374000Y-123173000D03*
D24*
X149264049Y-116379965D03*
X150337499Y-114077944D03*
X151410950Y-111775922D03*
D25*
X152484400Y-109473900D03*
D10*
X148239000Y-91960000D03*
X148239000Y-94500000D03*
D26*
X148239000Y-97040000D03*
D10*
X116224000Y-65250000D03*
X118764000Y-65250000D03*
D27*
X121304000Y-65250000D03*
D10*
X90494049Y-68029951D03*
D28*
X92290100Y-66233900D03*
D10*
X145447949Y-66443949D03*
D29*
X147244000Y-68240000D03*
D30*
X86406895Y-97862277D03*
X88487541Y-99319161D03*
X90568187Y-100776045D03*
X92648834Y-102232930D03*
X94729480Y-103689814D03*
X96810126Y-105146698D03*
X98890772Y-106603582D03*
X100971418Y-108060466D03*
X103052065Y-109517350D03*
X105132711Y-110974234D03*
X107213357Y-112431119D03*
X109294003Y-113888003D03*
X111374649Y-115344887D03*
X113455296Y-116801771D03*
X115535942Y-118258655D03*
X124277247Y-105774778D03*
X122196601Y-104317894D03*
X120115954Y-102861010D03*
X118035308Y-101404126D03*
X115954662Y-99947241D03*
X113874016Y-98490357D03*
X111793370Y-97033473D03*
X109712723Y-95576589D03*
X107632077Y-94119705D03*
X105551431Y-92662821D03*
X103470785Y-91205937D03*
X101390139Y-89749052D03*
X99309492Y-88292168D03*
X97228846Y-86835284D03*
D31*
X95148200Y-85378400D03*
D32*
X136144000Y-86868000D03*
X136144000Y-89408000D03*
X136144000Y-91948000D03*
X136144000Y-94488000D03*
X136144000Y-97028000D03*
X136144000Y-99568000D03*
X136144000Y-102108000D03*
X143764000Y-102108000D03*
X143764000Y-99568000D03*
X143764000Y-97028000D03*
X143764000Y-94488000D03*
X143764000Y-91948000D03*
X143764000Y-89408000D03*
D33*
X143764000Y-86868000D03*
D34*
X88819000Y-112588000D03*
X91359000Y-110048000D03*
X88819000Y-107508000D03*
D13*
X136624000Y-76188000D03*
X136624000Y-73648000D03*
X134084000Y-76188000D03*
X134084000Y-73648000D03*
X131544000Y-76188000D03*
X131544000Y-73648000D03*
X129004000Y-76188000D03*
X129004000Y-73648000D03*
X126464000Y-76188000D03*
X126464000Y-73648000D03*
X123924000Y-76188000D03*
X123924000Y-73648000D03*
X121384000Y-76188000D03*
X121384000Y-73648000D03*
X118844000Y-76188000D03*
X118844000Y-73648000D03*
X116304000Y-76188000D03*
X116304000Y-73648000D03*
X113764000Y-76188000D03*
X113764000Y-73648000D03*
X111224000Y-76188000D03*
X111224000Y-73648000D03*
X108684000Y-76188000D03*
X108684000Y-73648000D03*
X106144000Y-76188000D03*
X106144000Y-73648000D03*
X103604000Y-76188000D03*
X103604000Y-73648000D03*
X101064000Y-76188000D03*
D14*
X101064000Y-73648000D03*
M02*
