M48
INCH,TZ
T1C0.0157
T2C0.0276
T3C0.0295
T4C0.0315
T5C0.0354
T6C0.0394
T7C0.0433
%
G90
G05
T1
X45819Y-31742
X53850Y-27402
X55189Y-39163
T2
X35100Y-46200
X38100Y-46200
X51072Y-45200
X51088Y-46200
X51100Y-44200
X54072Y-45200
X54088Y-46200
X54100Y-44200
T3
X49051Y-32327
X52051Y-32327
T4
X34018Y-38528
X34838Y-39102
X34968Y-42326
X34968Y-44326
X35657Y-39676
X35968Y-43326
X36476Y-40249
X37295Y-40823
X37391Y-48901
X37393Y-25373
X37460Y-33614
X38114Y-41396
X38279Y-34187
X38572Y-48901
X38574Y-25373
X38933Y-41970
X39098Y-34761
X39753Y-42543
X39917Y-35334
X40572Y-43117
X40737Y-35908
X41391Y-43691
X41556Y-36481
X42210Y-44264
X42375Y-37055
X43029Y-44838
X43194Y-37629
X43848Y-45411
X44013Y-38202
X44667Y-45985
X44832Y-38776
X45487Y-46559
X45651Y-39349
X46471Y-39923
X47290Y-40496
X48109Y-41070
X48928Y-41644
X53600Y-34200
X53600Y-35200
X53600Y-36200
X53600Y-37200
X53600Y-38200
X53600Y-39200
X53600Y-40200
X56600Y-34200
X56600Y-35200
X56600Y-36200
X56600Y-37200
X56600Y-38200
X56600Y-39200
X56600Y-40200
X58608Y-33562
X58608Y-34743
T5
X34927Y-34015
X34927Y-35015
X35411Y-36086
X35411Y-37086
X35411Y-38086
X43781Y-48850
X44781Y-48850
X45817Y-48493
X45832Y-25698
X46817Y-48493
X46832Y-25698
X47817Y-48493
X47832Y-25698
X48935Y-25365
X49935Y-25365
X58234Y-36106
X58234Y-37106
X58234Y-38106
X58663Y-39153
X58663Y-40153
T6
X39789Y-28995
X39789Y-29995
X40745Y-25600
X40785Y-32200
X40785Y-33200
X40789Y-28995
X40789Y-29995
X41745Y-25600
X41789Y-28995
X41789Y-29995
X42789Y-28995
X42789Y-29995
X43789Y-28995
X43789Y-29995
X44789Y-28995
X44789Y-29995
X45789Y-28995
X45789Y-29995
X46789Y-28995
X46789Y-29995
X47789Y-28995
X47789Y-29995
X48789Y-28995
X48789Y-29995
X49789Y-28995
X49789Y-29995
X50789Y-28995
X50789Y-29995
X51000Y-34100
X51000Y-35100
X51000Y-40100
X51446Y-25354
X51789Y-28995
X51789Y-29995
X52000Y-34100
X52000Y-35100
X52000Y-40100
X52446Y-25354
X52789Y-28995
X52789Y-29995
X53446Y-25354
X53789Y-28995
X53789Y-29995
X54446Y-25354
X58497Y-47030
X58517Y-27045
X58920Y-46124
X58940Y-27951
X59343Y-45217
X59362Y-28857
X59765Y-44311
X59785Y-29764
T7
X33368Y-29708
X33368Y-32267
X35139Y-29708
X35139Y-32267
T0
M30
